<?xml version="1.0" encoding="utf-8" standalone="no"?>
<!DOCTYPE svg PUBLIC "-//W3C//DTD SVG 1.1//EN"
  "http://www.w3.org/Graphics/SVG/1.1/DTD/svg11.dtd">
<svg xmlns:xlink="http://www.w3.org/1999/xlink" width="1007.374937pt" height="487.223426pt" viewBox="0 0 1007.374937 487.223426" xmlns="http://www.w3.org/2000/svg" version="1.1">
 <metadata>
  <rdf:RDF xmlns:dc="http://purl.org/dc/elements/1.1/" xmlns:cc="http://creativecommons.org/ns#" xmlns:rdf="http://www.w3.org/1999/02/22-rdf-syntax-ns#">
   <cc:Work>
    <dc:type rdf:resource="http://purl.org/dc/dcmitype/StillImage"/>
    <dc:date>2024-11-19T10:25:00.728280</dc:date>
    <dc:format>image/svg+xml</dc:format>
    <dc:creator>
     <cc:Agent>
      <dc:title>Matplotlib v3.9.2, https://matplotlib.org/</dc:title>
     </cc:Agent>
    </dc:creator>
   </cc:Work>
  </rdf:RDF>
 </metadata>
 <defs>
  <style type="text/css">*{stroke-linejoin: round; stroke-linecap: butt}</style>
 </defs>
 <g id="figure_1">
  <g id="patch_1">
   <path d="M 0 487.223426 
L 1007.374937 487.223426 
L 1007.374937 0 
L 0 0 
z
" style="fill: #ffffff"/>
  </g>
  <g id="axes_1">
   <g id="patch_2">
    <path d="M 51.800938 58.120038 
L 833.000938 58.120038 
L 833.000938 11.759062 
L 51.800938 11.759062 
z
" style="fill: #ffffff"/>
   </g>
   <g id="matplotlib.axis_1">
    <g id="xtick_1"/>
    <g id="xtick_2"/>
    <g id="xtick_3"/>
    <g id="xtick_4"/>
    <g id="xtick_5"/>
   </g>
   <g id="matplotlib.axis_2">
    <g id="ytick_1">
     <g id="line2d_1">
      <defs>
       <path id="meea50dcd2b" d="M 0 0 
L -3.5 0 
" style="stroke: #000000; stroke-width: 0.8"/>
      </defs>
      <g>
       <use xlink:href="#meea50dcd2b" x="51.800938" y="50.393209" style="stroke: #000000; stroke-width: 0.8"/>
      </g>
     </g>
     <g id="text_1">
      <!-- 0.95 -->
      <g transform="translate(18.082188 54.952271) scale(0.12 -0.12)">
       <defs>
        <path id="DejaVuSans-30" d="M 2034 4250 
Q 1547 4250 1301 3770 
Q 1056 3291 1056 2328 
Q 1056 1369 1301 889 
Q 1547 409 2034 409 
Q 2525 409 2770 889 
Q 3016 1369 3016 2328 
Q 3016 3291 2770 3770 
Q 2525 4250 2034 4250 
z
M 2034 4750 
Q 2819 4750 3233 4129 
Q 3647 3509 3647 2328 
Q 3647 1150 3233 529 
Q 2819 -91 2034 -91 
Q 1250 -91 836 529 
Q 422 1150 422 2328 
Q 422 3509 836 4129 
Q 1250 4750 2034 4750 
z
" transform="scale(0.015625)"/>
        <path id="DejaVuSans-2e" d="M 684 794 
L 1344 794 
L 1344 0 
L 684 0 
L 684 794 
z
" transform="scale(0.015625)"/>
        <path id="DejaVuSans-39" d="M 703 97 
L 703 672 
Q 941 559 1184 500 
Q 1428 441 1663 441 
Q 2288 441 2617 861 
Q 2947 1281 2994 2138 
Q 2813 1869 2534 1725 
Q 2256 1581 1919 1581 
Q 1219 1581 811 2004 
Q 403 2428 403 3163 
Q 403 3881 828 4315 
Q 1253 4750 1959 4750 
Q 2769 4750 3195 4129 
Q 3622 3509 3622 2328 
Q 3622 1225 3098 567 
Q 2575 -91 1691 -91 
Q 1453 -91 1209 -44 
Q 966 3 703 97 
z
M 1959 2075 
Q 2384 2075 2632 2365 
Q 2881 2656 2881 3163 
Q 2881 3666 2632 3958 
Q 2384 4250 1959 4250 
Q 1534 4250 1286 3958 
Q 1038 3666 1038 3163 
Q 1038 2656 1286 2365 
Q 1534 2075 1959 2075 
z
" transform="scale(0.015625)"/>
        <path id="DejaVuSans-35" d="M 691 4666 
L 3169 4666 
L 3169 4134 
L 1269 4134 
L 1269 2991 
Q 1406 3038 1543 3061 
Q 1681 3084 1819 3084 
Q 2600 3084 3056 2656 
Q 3513 2228 3513 1497 
Q 3513 744 3044 326 
Q 2575 -91 1722 -91 
Q 1428 -91 1123 -41 
Q 819 9 494 109 
L 494 744 
Q 775 591 1075 516 
Q 1375 441 1709 441 
Q 2250 441 2565 725 
Q 2881 1009 2881 1497 
Q 2881 1984 2565 2268 
Q 2250 2553 1709 2553 
Q 1456 2553 1204 2497 
Q 953 2441 691 2322 
L 691 4666 
z
" transform="scale(0.015625)"/>
       </defs>
       <use xlink:href="#DejaVuSans-30"/>
       <use xlink:href="#DejaVuSans-2e" x="63.623047"/>
       <use xlink:href="#DejaVuSans-39" x="95.410156"/>
       <use xlink:href="#DejaVuSans-35" x="159.033203"/>
      </g>
     </g>
    </g>
    <g id="ytick_2">
     <g id="line2d_2">
      <g>
       <use xlink:href="#meea50dcd2b" x="51.800938" y="11.759062" style="stroke: #000000; stroke-width: 0.8"/>
      </g>
     </g>
     <g id="text_2">
      <!-- 1.00 -->
      <g transform="translate(18.082188 16.318125) scale(0.12 -0.12)">
       <defs>
        <path id="DejaVuSans-31" d="M 794 531 
L 1825 531 
L 1825 4091 
L 703 3866 
L 703 4441 
L 1819 4666 
L 2450 4666 
L 2450 531 
L 3481 531 
L 3481 0 
L 794 0 
L 794 531 
z
" transform="scale(0.015625)"/>
       </defs>
       <use xlink:href="#DejaVuSans-31"/>
       <use xlink:href="#DejaVuSans-2e" x="63.623047"/>
       <use xlink:href="#DejaVuSans-30" x="95.410156"/>
       <use xlink:href="#DejaVuSans-30" x="159.033203"/>
      </g>
     </g>
    </g>
   </g>
   <g id="patch_3">
    <path d="M 87.310028 723.168232 
L 205.673665 723.168232 
L 205.673665 577.826577 
L 87.310028 577.826577 
L 87.310028 723.168232 
z
" clip-path="url(#p757648dfb1)" style="fill: #3274a1; stroke: #3d3d3d; stroke-linejoin: miter"/>
   </g>
   <g id="line2d_3">
    <path clip-path="url(#p757648dfb1)" style="fill: none; stroke: #3d3d3d"/>
   </g>
   <g id="line2d_4">
    <path d="M 146.491847 488.223426 
L 146.491847 390.412345 
" clip-path="url(#p757648dfb1)" style="fill: none; stroke: #3d3d3d"/>
   </g>
   <g id="line2d_5">
    <path clip-path="url(#p757648dfb1)" style="fill: none; stroke: #3d3d3d; stroke-linecap: square"/>
   </g>
   <g id="line2d_6">
    <path d="M 116.900938 390.412345 
L 176.082756 390.412345 
" clip-path="url(#p757648dfb1)" style="fill: none; stroke: #3d3d3d; stroke-linecap: square"/>
   </g>
   <g id="patch_4">
    <path d="M 235.264574 757.591258 
L 353.62821 757.591258 
L 353.62821 645.716425 
L 235.264574 645.716425 
L 235.264574 757.591258 
z
" clip-path="url(#p757648dfb1)" style="fill: #e1812c; stroke: #3d3d3d; stroke-linejoin: miter"/>
   </g>
   <g id="line2d_7">
    <path clip-path="url(#p757648dfb1)" style="fill: none; stroke: #3d3d3d"/>
   </g>
   <g id="line2d_8">
    <path clip-path="url(#p757648dfb1)" style="fill: none; stroke: #3d3d3d"/>
   </g>
   <g id="line2d_9">
    <path clip-path="url(#p757648dfb1)" style="fill: none; stroke: #3d3d3d; stroke-linecap: square"/>
   </g>
   <g id="line2d_10">
    <path clip-path="url(#p757648dfb1)" style="fill: none; stroke: #3d3d3d; stroke-linecap: square"/>
   </g>
   <g id="patch_5">
    <path d="M 383.219119 763.328429 
L 501.582756 763.328429 
L 501.582756 667.708918 
L 383.219119 667.708918 
L 383.219119 763.328429 
z
" clip-path="url(#p757648dfb1)" style="fill: #3a923a; stroke: #3d3d3d; stroke-linejoin: miter"/>
   </g>
   <g id="line2d_11">
    <path clip-path="url(#p757648dfb1)" style="fill: none; stroke: #3d3d3d"/>
   </g>
   <g id="line2d_12">
    <path clip-path="url(#p757648dfb1)" style="fill: none; stroke: #3d3d3d"/>
   </g>
   <g id="line2d_13">
    <path clip-path="url(#p757648dfb1)" style="fill: none; stroke: #3d3d3d; stroke-linecap: square"/>
   </g>
   <g id="line2d_14">
    <path clip-path="url(#p757648dfb1)" style="fill: none; stroke: #3d3d3d; stroke-linecap: square"/>
   </g>
   <g id="patch_6">
    <path d="M 531.173665 776.71516 
L 649.537301 776.71516 
L 649.537301 663.884141 
L 531.173665 663.884141 
L 531.173665 776.71516 
z
" clip-path="url(#p757648dfb1)" style="fill: #c03d3e; stroke: #3d3d3d; stroke-linejoin: miter"/>
   </g>
   <g id="line2d_15">
    <path clip-path="url(#p757648dfb1)" style="fill: none; stroke: #3d3d3d"/>
   </g>
   <g id="line2d_16">
    <path clip-path="url(#p757648dfb1)" style="fill: none; stroke: #3d3d3d"/>
   </g>
   <g id="line2d_17">
    <path clip-path="url(#p757648dfb1)" style="fill: none; stroke: #3d3d3d; stroke-linecap: square"/>
   </g>
   <g id="line2d_18">
    <path clip-path="url(#p757648dfb1)" style="fill: none; stroke: #3d3d3d; stroke-linecap: square"/>
   </g>
   <g id="patch_7">
    <path d="M 679.12821 776.71516 
L 797.491847 776.71516 
L 797.491847 692.569989 
L 679.12821 692.569989 
L 679.12821 776.71516 
z
" clip-path="url(#p757648dfb1)" style="fill: #9372b2; stroke: #3d3d3d; stroke-linejoin: miter"/>
   </g>
   <g id="line2d_19">
    <path clip-path="url(#p757648dfb1)" style="fill: none; stroke: #3d3d3d"/>
   </g>
   <g id="line2d_20">
    <path clip-path="url(#p757648dfb1)" style="fill: none; stroke: #3d3d3d"/>
   </g>
   <g id="line2d_21">
    <path clip-path="url(#p757648dfb1)" style="fill: none; stroke: #3d3d3d; stroke-linecap: square"/>
   </g>
   <g id="line2d_22">
    <path clip-path="url(#p757648dfb1)" style="fill: none; stroke: #3d3d3d; stroke-linecap: square"/>
   </g>
   <g id="line2d_23">
    <defs>
     <path id="ma3965a8755" d="M -6 3 
L 6 -3 
" style="stroke: #000000"/>
    </defs>
    <g>
     <use xlink:href="#ma3965a8755" x="51.800938" y="58.120038" style="stroke: #000000"/>
    </g>
   </g>
   <g id="line2d_24">
    <path clip-path="url(#p757648dfb1)" style="fill: none; stroke: #3d3d3d"/>
   </g>
   <g id="line2d_25">
    <path clip-path="url(#p757648dfb1)" style="fill: none; stroke: #3d3d3d"/>
   </g>
   <g id="line2d_26">
    <path clip-path="url(#p757648dfb1)" style="fill: none; stroke: #3d3d3d"/>
   </g>
   <g id="line2d_27">
    <path clip-path="url(#p757648dfb1)" style="fill: none; stroke: #3d3d3d"/>
   </g>
   <g id="line2d_28">
    <path clip-path="url(#p757648dfb1)" style="fill: none; stroke: #3d3d3d"/>
   </g>
   <g id="patch_8">
    <path d="M 51.800938 58.120038 
L 51.800938 11.759062 
" style="fill: none; stroke: #000000; stroke-width: 0.8; stroke-linejoin: miter; stroke-linecap: square"/>
   </g>
   <g id="PathCollection_1"/>
   <g id="PathCollection_2"/>
   <g id="PathCollection_3"/>
   <g id="PathCollection_4">
    <path d="M 133.340331 294.468038 
C 134.268542 294.468038 135.158861 294.099256 135.815205 293.442912 
C 136.471549 292.786568 136.840331 291.896249 136.840331 290.968038 
C 136.840331 290.039827 136.471549 289.149508 135.815205 288.493164 
C 135.158861 287.83682 134.268542 287.468038 133.340331 287.468038 
C 132.412121 287.468038 131.521802 287.83682 130.865458 288.493164 
C 130.209114 289.149508 129.840331 290.039827 129.840331 290.968038 
C 129.840331 291.896249 130.209114 292.786568 130.865458 293.442912 
C 131.521802 294.099256 132.412121 294.468038 133.340331 294.468038 
z
" clip-path="url(#p757648dfb1)" style="fill: #d62728"/>
   </g>
   <g id="PathCollection_5"/>
   <g id="PathCollection_6"/>
   <g id="PathCollection_7"/>
   <g id="PathCollection_8"/>
   <g id="PathCollection_9"/>
   <g id="PathCollection_10"/>
   <g id="PathCollection_11"/>
   <g id="PathCollection_12"/>
   <g id="PathCollection_13"/>
   <g id="PathCollection_14"/>
   <g id="PathCollection_15">
    <path d="M 307.597907 478.057523 
C 308.526118 478.057523 309.416437 477.688741 310.072781 477.032397 
C 310.729125 476.376053 311.097907 475.485734 311.097907 474.557523 
C 311.097907 473.629313 310.729125 472.738994 310.072781 472.08265 
C 309.416437 471.426306 308.526118 471.057523 307.597907 471.057523 
C 306.669696 471.057523 305.779378 471.426306 305.123033 472.08265 
C 304.466689 472.738994 304.097907 473.629313 304.097907 474.557523 
C 304.097907 475.485734 304.466689 476.376053 305.123033 477.032397 
C 305.779378 477.688741 306.669696 478.057523 307.597907 478.057523 
z
" clip-path="url(#p757648dfb1)" style="fill: #8c564b"/>
   </g>
   <g id="PathCollection_16"/>
   <g id="PathCollection_17"/>
   <g id="PathCollection_18"/>
   <g id="PathCollection_19"/>
   <g id="PathCollection_20"/>
   <g id="PathCollection_21"/>
   <g id="PathCollection_22"/>
   <g id="PathCollection_23"/>
   <g id="PathCollection_24"/>
   <g id="PathCollection_25"/>
   <g id="PathCollection_26"/>
   <g id="PathCollection_27"/>
   <g id="PathCollection_28"/>
   <g id="PathCollection_29"/>
   <g id="PathCollection_30"/>
   <g id="PathCollection_31"/>
   <g id="PathCollection_32"/>
   <g id="PathCollection_33"/>
   <g id="PathCollection_34"/>
   <g id="PathCollection_35"/>
   <g id="PathCollection_36"/>
   <g id="PathCollection_37">
    <defs>
     <path id="C0_0_a8160e526f" d="M 0 3.5 
C 0.928211 3.5 1.81853 3.131218 2.474874 2.474874 
C 3.131218 1.81853 3.5 0.928211 3.5 -0 
C 3.5 -0.928211 3.131218 -1.81853 2.474874 -2.474874 
C 1.81853 -3.131218 0.928211 -3.5 0 -3.5 
C -0.928211 -3.5 -1.81853 -3.131218 -2.474874 -2.474874 
C -3.131218 -1.81853 -3.5 -0.928211 -3.5 0 
C -3.5 0.928211 -3.131218 1.81853 -2.474874 2.474874 
C -1.81853 3.131218 -0.928211 3.5 0 3.5 
z
"/>
    </defs>
    <g clip-path="url(#p757648dfb1)">
     <use xlink:href="#C0_0_a8160e526f" x="689.709306" y="447.784062" style="fill: #1f77b4"/>
    </g>
    <g clip-path="url(#p757648dfb1)">
     <use xlink:href="#C0_0_a8160e526f" x="687.907681" y="474.557523" style="fill: #1f77b4"/>
    </g>
    <g clip-path="url(#p757648dfb1)">
     <use xlink:href="#C0_0_a8160e526f" x="676.788536" y="554.877909" style="fill: #1f77b4"/>
    </g>
    <g clip-path="url(#p757648dfb1)">
     <use xlink:href="#C0_0_a8160e526f" x="673.194144" y="562.52745" style="fill: #1f77b4"/>
    </g>
   </g>
   <g id="PathCollection_38">
    <defs>
     <path id="C1_0_3a88a1ce46" d="M 0 3.5 
C 0.928211 3.5 1.81853 3.131218 2.474874 2.474874 
C 3.131218 1.81853 3.5 0.928211 3.5 -0 
C 3.5 -0.928211 3.131218 -1.81853 2.474874 -2.474874 
C 1.81853 -3.131218 0.928211 -3.5 0 -3.5 
C -0.928211 -3.5 -1.81853 -3.131218 -2.474874 -2.474874 
C -3.131218 -1.81853 -3.5 -0.928211 -3.5 0 
C -3.5 0.928211 -3.131218 1.81853 -2.474874 2.474874 
C -1.81853 3.131218 -0.928211 3.5 0 3.5 
z
"/>
    </defs>
    <g clip-path="url(#p757648dfb1)">
     <use xlink:href="#C1_0_3a88a1ce46" x="692.502056" y="447.784062" style="fill: #ff7f0e"/>
    </g>
    <g clip-path="url(#p757648dfb1)">
     <use xlink:href="#C1_0_3a88a1ce46" x="702.058359" y="474.557523" style="fill: #ff7f0e"/>
    </g>
   </g>
   <g id="PathCollection_39">
    <path d="M 712.006998 45.857318 
C 712.935209 45.857318 713.825528 45.488536 714.481872 44.832191 
C 715.138216 44.175847 715.506998 43.285529 715.506998 42.357318 
C 715.506998 41.429107 715.138216 40.538788 714.481872 39.882444 
C 713.825528 39.2261 712.935209 38.857318 712.006998 38.857318 
C 711.078787 38.857318 710.188469 39.2261 709.532124 39.882444 
C 708.87578 40.538788 708.506998 41.429107 708.506998 42.357318 
C 708.506998 43.285529 708.87578 44.175847 709.532124 44.832191 
C 710.188469 45.488536 711.078787 45.857318 712.006998 45.857318 
z
" clip-path="url(#p757648dfb1)" style="fill: #2ca02c"/>
   </g>
   <g id="PathCollection_40">
    <defs>
     <path id="C2_0_9e44156683" d="M 0 3.5 
C 0.928211 3.5 1.81853 3.131218 2.474874 2.474874 
C 3.131218 1.81853 3.5 0.928211 3.5 -0 
C 3.5 -0.928211 3.131218 -1.81853 2.474874 -2.474874 
C 1.81853 -3.131218 0.928211 -3.5 0 -3.5 
C -0.928211 -3.5 -1.81853 -3.131218 -2.474874 -2.474874 
C -3.131218 -1.81853 -3.5 -0.928211 -3.5 0 
C -3.5 0.928211 -3.131218 1.81853 -2.474874 2.474874 
C -1.81853 3.131218 -0.928211 3.5 0 3.5 
z
"/>
    </defs>
    <g clip-path="url(#p757648dfb1)">
     <use xlink:href="#C2_0_9e44156683" x="722.272035" y="436.309704" style="fill: #d62728"/>
    </g>
    <g clip-path="url(#p757648dfb1)">
     <use xlink:href="#C2_0_9e44156683" x="735.682079" y="566.35222" style="fill: #d62728"/>
    </g>
   </g>
   <g id="PathCollection_41"/>
   <g id="PathCollection_42"/>
   <g id="PathCollection_43"/>
   <g id="PathCollection_44"/>
   <g id="PathCollection_45"/>
   <g id="line2d_29"/>
   <g id="line2d_30"/>
   <g id="line2d_31"/>
   <g id="line2d_32"/>
   <g id="line2d_33"/>
   <g id="line2d_34"/>
   <g id="line2d_35"/>
   <g id="line2d_36"/>
   <g id="line2d_37"/>
   <g id="legend_1">
    <g id="patch_9">
     <path d="M 855.624938 166.540312 
L 998.174938 166.540312 
Q 1000.174938 166.540312 1000.174938 164.540312 
L 1000.174938 18.759062 
Q 1000.174938 16.759062 998.174938 16.759062 
L 855.624938 16.759062 
Q 853.624938 16.759062 853.624938 18.759062 
L 853.624938 164.540312 
Q 853.624938 166.540312 855.624938 166.540312 
z
" style="fill: #ffffff; opacity: 0.8; stroke: #cccccc; stroke-linejoin: miter"/>
    </g>
    <g id="text_3">
     <!-- Reports -->
     <g transform="translate(907.72025 28.3575) scale(0.1 -0.1)">
      <defs>
       <path id="DejaVuSans-52" d="M 2841 2188 
Q 3044 2119 3236 1894 
Q 3428 1669 3622 1275 
L 4263 0 
L 3584 0 
L 2988 1197 
Q 2756 1666 2539 1819 
Q 2322 1972 1947 1972 
L 1259 1972 
L 1259 0 
L 628 0 
L 628 4666 
L 2053 4666 
Q 2853 4666 3247 4331 
Q 3641 3997 3641 3322 
Q 3641 2881 3436 2590 
Q 3231 2300 2841 2188 
z
M 1259 4147 
L 1259 2491 
L 2053 2491 
Q 2509 2491 2742 2702 
Q 2975 2913 2975 3322 
Q 2975 3731 2742 3939 
Q 2509 4147 2053 4147 
L 1259 4147 
z
" transform="scale(0.015625)"/>
       <path id="DejaVuSans-65" d="M 3597 1894 
L 3597 1613 
L 953 1613 
Q 991 1019 1311 708 
Q 1631 397 2203 397 
Q 2534 397 2845 478 
Q 3156 559 3463 722 
L 3463 178 
Q 3153 47 2828 -22 
Q 2503 -91 2169 -91 
Q 1331 -91 842 396 
Q 353 884 353 1716 
Q 353 2575 817 3079 
Q 1281 3584 2069 3584 
Q 2775 3584 3186 3129 
Q 3597 2675 3597 1894 
z
M 3022 2063 
Q 3016 2534 2758 2815 
Q 2500 3097 2075 3097 
Q 1594 3097 1305 2825 
Q 1016 2553 972 2059 
L 3022 2063 
z
" transform="scale(0.015625)"/>
       <path id="DejaVuSans-70" d="M 1159 525 
L 1159 -1331 
L 581 -1331 
L 581 3500 
L 1159 3500 
L 1159 2969 
Q 1341 3281 1617 3432 
Q 1894 3584 2278 3584 
Q 2916 3584 3314 3078 
Q 3713 2572 3713 1747 
Q 3713 922 3314 415 
Q 2916 -91 2278 -91 
Q 1894 -91 1617 61 
Q 1341 213 1159 525 
z
M 3116 1747 
Q 3116 2381 2855 2742 
Q 2594 3103 2138 3103 
Q 1681 3103 1420 2742 
Q 1159 2381 1159 1747 
Q 1159 1113 1420 752 
Q 1681 391 2138 391 
Q 2594 391 2855 752 
Q 3116 1113 3116 1747 
z
" transform="scale(0.015625)"/>
       <path id="DejaVuSans-6f" d="M 1959 3097 
Q 1497 3097 1228 2736 
Q 959 2375 959 1747 
Q 959 1119 1226 758 
Q 1494 397 1959 397 
Q 2419 397 2687 759 
Q 2956 1122 2956 1747 
Q 2956 2369 2687 2733 
Q 2419 3097 1959 3097 
z
M 1959 3584 
Q 2709 3584 3137 3096 
Q 3566 2609 3566 1747 
Q 3566 888 3137 398 
Q 2709 -91 1959 -91 
Q 1206 -91 779 398 
Q 353 888 353 1747 
Q 353 2609 779 3096 
Q 1206 3584 1959 3584 
z
" transform="scale(0.015625)"/>
       <path id="DejaVuSans-72" d="M 2631 2963 
Q 2534 3019 2420 3045 
Q 2306 3072 2169 3072 
Q 1681 3072 1420 2755 
Q 1159 2438 1159 1844 
L 1159 0 
L 581 0 
L 581 3500 
L 1159 3500 
L 1159 2956 
Q 1341 3275 1631 3429 
Q 1922 3584 2338 3584 
Q 2397 3584 2469 3576 
Q 2541 3569 2628 3553 
L 2631 2963 
z
" transform="scale(0.015625)"/>
       <path id="DejaVuSans-74" d="M 1172 4494 
L 1172 3500 
L 2356 3500 
L 2356 3053 
L 1172 3053 
L 1172 1153 
Q 1172 725 1289 603 
Q 1406 481 1766 481 
L 2356 481 
L 2356 0 
L 1766 0 
Q 1100 0 847 248 
Q 594 497 594 1153 
L 594 3053 
L 172 3053 
L 172 3500 
L 594 3500 
L 594 4494 
L 1172 4494 
z
" transform="scale(0.015625)"/>
       <path id="DejaVuSans-73" d="M 2834 3397 
L 2834 2853 
Q 2591 2978 2328 3040 
Q 2066 3103 1784 3103 
Q 1356 3103 1142 2972 
Q 928 2841 928 2578 
Q 928 2378 1081 2264 
Q 1234 2150 1697 2047 
L 1894 2003 
Q 2506 1872 2764 1633 
Q 3022 1394 3022 966 
Q 3022 478 2636 193 
Q 2250 -91 1575 -91 
Q 1294 -91 989 -36 
Q 684 19 347 128 
L 347 722 
Q 666 556 975 473 
Q 1284 391 1588 391 
Q 1994 391 2212 530 
Q 2431 669 2431 922 
Q 2431 1156 2273 1281 
Q 2116 1406 1581 1522 
L 1381 1569 
Q 847 1681 609 1914 
Q 372 2147 372 2553 
Q 372 3047 722 3315 
Q 1072 3584 1716 3584 
Q 2034 3584 2315 3537 
Q 2597 3491 2834 3397 
z
" transform="scale(0.015625)"/>
      </defs>
      <use xlink:href="#DejaVuSans-52"/>
      <use xlink:href="#DejaVuSans-65" x="64.982422"/>
      <use xlink:href="#DejaVuSans-70" x="126.505859"/>
      <use xlink:href="#DejaVuSans-6f" x="189.982422"/>
      <use xlink:href="#DejaVuSans-72" x="251.164062"/>
      <use xlink:href="#DejaVuSans-74" x="292.277344"/>
      <use xlink:href="#DejaVuSans-73" x="331.486328"/>
     </g>
    </g>
    <g id="line2d_38">
     <defs>
      <path id="mf4821dc8bd" d="M 0 3.5 
C 0.928211 3.5 1.81853 3.131218 2.474874 2.474874 
C 3.131218 1.81853 3.5 0.928211 3.5 0 
C 3.5 -0.928211 3.131218 -1.81853 2.474874 -2.474874 
C 1.81853 -3.131218 0.928211 -3.5 0 -3.5 
C -0.928211 -3.5 -1.81853 -3.131218 -2.474874 -2.474874 
C -3.131218 -1.81853 -3.5 -0.928211 -3.5 0 
C -3.5 0.928211 -3.131218 1.81853 -2.474874 2.474874 
C -1.81853 3.131218 -0.928211 3.5 0 3.5 
z
"/>
     </defs>
     <g>
      <use xlink:href="#mf4821dc8bd" x="867.624938" y="39.535625" style="fill: #1f77b4"/>
     </g>
    </g>
    <g id="text_4">
     <!-- AML -->
     <g transform="translate(885.624938 43.035625) scale(0.1 -0.1)">
      <defs>
       <path id="DejaVuSans-41" d="M 2188 4044 
L 1331 1722 
L 3047 1722 
L 2188 4044 
z
M 1831 4666 
L 2547 4666 
L 4325 0 
L 3669 0 
L 3244 1197 
L 1141 1197 
L 716 0 
L 50 0 
L 1831 4666 
z
" transform="scale(0.015625)"/>
       <path id="DejaVuSans-4d" d="M 628 4666 
L 1569 4666 
L 2759 1491 
L 3956 4666 
L 4897 4666 
L 4897 0 
L 4281 0 
L 4281 4097 
L 3078 897 
L 2444 897 
L 1241 4097 
L 1241 0 
L 628 0 
L 628 4666 
z
" transform="scale(0.015625)"/>
       <path id="DejaVuSans-4c" d="M 628 4666 
L 1259 4666 
L 1259 531 
L 3531 531 
L 3531 0 
L 628 0 
L 628 4666 
z
" transform="scale(0.015625)"/>
      </defs>
      <use xlink:href="#DejaVuSans-41"/>
      <use xlink:href="#DejaVuSans-4d" x="68.408203"/>
      <use xlink:href="#DejaVuSans-4c" x="154.6875"/>
     </g>
    </g>
    <g id="line2d_39">
     <defs>
      <path id="mde4621501c" d="M 0 3.5 
C 0.928211 3.5 1.81853 3.131218 2.474874 2.474874 
C 3.131218 1.81853 3.5 0.928211 3.5 0 
C 3.5 -0.928211 3.131218 -1.81853 2.474874 -2.474874 
C 1.81853 -3.131218 0.928211 -3.5 0 -3.5 
C -0.928211 -3.5 -1.81853 -3.131218 -2.474874 -2.474874 
C -3.131218 -1.81853 -3.5 -0.928211 -3.5 0 
C -3.5 0.928211 -3.131218 1.81853 -2.474874 2.474874 
C -1.81853 3.131218 -0.928211 3.5 0 3.5 
z
"/>
     </defs>
     <g>
      <use xlink:href="#mde4621501c" x="867.624938" y="54.21375" style="fill: #ff7f0e"/>
     </g>
    </g>
    <g id="text_5">
     <!-- CML -->
     <g transform="translate(885.624938 57.71375) scale(0.1 -0.1)">
      <defs>
       <path id="DejaVuSans-43" d="M 4122 4306 
L 4122 3641 
Q 3803 3938 3442 4084 
Q 3081 4231 2675 4231 
Q 1875 4231 1450 3742 
Q 1025 3253 1025 2328 
Q 1025 1406 1450 917 
Q 1875 428 2675 428 
Q 3081 428 3442 575 
Q 3803 722 4122 1019 
L 4122 359 
Q 3791 134 3420 21 
Q 3050 -91 2638 -91 
Q 1578 -91 968 557 
Q 359 1206 359 2328 
Q 359 3453 968 4101 
Q 1578 4750 2638 4750 
Q 3056 4750 3426 4639 
Q 3797 4528 4122 4306 
z
" transform="scale(0.015625)"/>
      </defs>
      <use xlink:href="#DejaVuSans-43"/>
      <use xlink:href="#DejaVuSans-4d" x="69.824219"/>
      <use xlink:href="#DejaVuSans-4c" x="156.103516"/>
     </g>
    </g>
    <g id="line2d_40">
     <defs>
      <path id="m62743c64e2" d="M 0 3.5 
C 0.928211 3.5 1.81853 3.131218 2.474874 2.474874 
C 3.131218 1.81853 3.5 0.928211 3.5 0 
C 3.5 -0.928211 3.131218 -1.81853 2.474874 -2.474874 
C 1.81853 -3.131218 0.928211 -3.5 0 -3.5 
C -0.928211 -3.5 -1.81853 -3.131218 -2.474874 -2.474874 
C -3.131218 -1.81853 -3.5 -0.928211 -3.5 0 
C -3.5 0.928211 -3.131218 1.81853 -2.474874 2.474874 
C -1.81853 3.131218 -0.928211 3.5 0 3.5 
z
"/>
     </defs>
     <g>
      <use xlink:href="#m62743c64e2" x="867.624938" y="68.891875" style="fill: #2ca02c"/>
     </g>
    </g>
    <g id="text_6">
     <!-- AML/CML -->
     <g transform="translate(885.624938 72.391875) scale(0.1 -0.1)">
      <defs>
       <path id="DejaVuSans-2f" d="M 1625 4666 
L 2156 4666 
L 531 -594 
L 0 -594 
L 1625 4666 
z
" transform="scale(0.015625)"/>
      </defs>
      <use xlink:href="#DejaVuSans-41"/>
      <use xlink:href="#DejaVuSans-4d" x="68.408203"/>
      <use xlink:href="#DejaVuSans-4c" x="154.6875"/>
      <use xlink:href="#DejaVuSans-2f" x="210.400391"/>
      <use xlink:href="#DejaVuSans-43" x="244.091797"/>
      <use xlink:href="#DejaVuSans-4d" x="313.916016"/>
      <use xlink:href="#DejaVuSans-4c" x="400.195312"/>
     </g>
    </g>
    <g id="line2d_41">
     <defs>
      <path id="m05b60522f6" d="M 0 3.5 
C 0.928211 3.5 1.81853 3.131218 2.474874 2.474874 
C 3.131218 1.81853 3.5 0.928211 3.5 0 
C 3.5 -0.928211 3.131218 -1.81853 2.474874 -2.474874 
C 1.81853 -3.131218 0.928211 -3.5 0 -3.5 
C -0.928211 -3.5 -1.81853 -3.131218 -2.474874 -2.474874 
C -3.131218 -1.81853 -3.5 -0.928211 -3.5 0 
C -3.5 0.928211 -3.131218 1.81853 -2.474874 2.474874 
C -1.81853 3.131218 -0.928211 3.5 0 3.5 
z
"/>
     </defs>
     <g>
      <use xlink:href="#m05b60522f6" x="867.624938" y="83.57" style="fill: #d62728"/>
     </g>
    </g>
    <g id="text_7">
     <!-- AML/MDS -->
     <g transform="translate(885.624938 87.07) scale(0.1 -0.1)">
      <defs>
       <path id="DejaVuSans-44" d="M 1259 4147 
L 1259 519 
L 2022 519 
Q 2988 519 3436 956 
Q 3884 1394 3884 2338 
Q 3884 3275 3436 3711 
Q 2988 4147 2022 4147 
L 1259 4147 
z
M 628 4666 
L 1925 4666 
Q 3281 4666 3915 4102 
Q 4550 3538 4550 2338 
Q 4550 1131 3912 565 
Q 3275 0 1925 0 
L 628 0 
L 628 4666 
z
" transform="scale(0.015625)"/>
       <path id="DejaVuSans-53" d="M 3425 4513 
L 3425 3897 
Q 3066 4069 2747 4153 
Q 2428 4238 2131 4238 
Q 1616 4238 1336 4038 
Q 1056 3838 1056 3469 
Q 1056 3159 1242 3001 
Q 1428 2844 1947 2747 
L 2328 2669 
Q 3034 2534 3370 2195 
Q 3706 1856 3706 1288 
Q 3706 609 3251 259 
Q 2797 -91 1919 -91 
Q 1588 -91 1214 -16 
Q 841 59 441 206 
L 441 856 
Q 825 641 1194 531 
Q 1563 422 1919 422 
Q 2459 422 2753 634 
Q 3047 847 3047 1241 
Q 3047 1584 2836 1778 
Q 2625 1972 2144 2069 
L 1759 2144 
Q 1053 2284 737 2584 
Q 422 2884 422 3419 
Q 422 4038 858 4394 
Q 1294 4750 2059 4750 
Q 2388 4750 2728 4690 
Q 3069 4631 3425 4513 
z
" transform="scale(0.015625)"/>
      </defs>
      <use xlink:href="#DejaVuSans-41"/>
      <use xlink:href="#DejaVuSans-4d" x="68.408203"/>
      <use xlink:href="#DejaVuSans-4c" x="154.6875"/>
      <use xlink:href="#DejaVuSans-2f" x="210.400391"/>
      <use xlink:href="#DejaVuSans-4d" x="244.091797"/>
      <use xlink:href="#DejaVuSans-44" x="330.371094"/>
      <use xlink:href="#DejaVuSans-53" x="407.373047"/>
     </g>
    </g>
    <g id="line2d_42">
     <defs>
      <path id="me601e79172" d="M 0 3.5 
C 0.928211 3.5 1.81853 3.131218 2.474874 2.474874 
C 3.131218 1.81853 3.5 0.928211 3.5 0 
C 3.5 -0.928211 3.131218 -1.81853 2.474874 -2.474874 
C 1.81853 -3.131218 0.928211 -3.5 0 -3.5 
C -0.928211 -3.5 -1.81853 -3.131218 -2.474874 -2.474874 
C -3.131218 -1.81853 -3.5 -0.928211 -3.5 0 
C -3.5 0.928211 -3.131218 1.81853 -2.474874 2.474874 
C -1.81853 3.131218 -0.928211 3.5 0 3.5 
z
"/>
     </defs>
     <g>
      <use xlink:href="#me601e79172" x="867.624938" y="98.248125" style="fill: #9467bd"/>
     </g>
    </g>
    <g id="text_8">
     <!-- AML/Lymph Neoplasm -->
     <g transform="translate(885.624938 101.748125) scale(0.1 -0.1)">
      <defs>
       <path id="DejaVuSans-79" d="M 2059 -325 
Q 1816 -950 1584 -1140 
Q 1353 -1331 966 -1331 
L 506 -1331 
L 506 -850 
L 844 -850 
Q 1081 -850 1212 -737 
Q 1344 -625 1503 -206 
L 1606 56 
L 191 3500 
L 800 3500 
L 1894 763 
L 2988 3500 
L 3597 3500 
L 2059 -325 
z
" transform="scale(0.015625)"/>
       <path id="DejaVuSans-6d" d="M 3328 2828 
Q 3544 3216 3844 3400 
Q 4144 3584 4550 3584 
Q 5097 3584 5394 3201 
Q 5691 2819 5691 2113 
L 5691 0 
L 5113 0 
L 5113 2094 
Q 5113 2597 4934 2840 
Q 4756 3084 4391 3084 
Q 3944 3084 3684 2787 
Q 3425 2491 3425 1978 
L 3425 0 
L 2847 0 
L 2847 2094 
Q 2847 2600 2669 2842 
Q 2491 3084 2119 3084 
Q 1678 3084 1418 2786 
Q 1159 2488 1159 1978 
L 1159 0 
L 581 0 
L 581 3500 
L 1159 3500 
L 1159 2956 
Q 1356 3278 1631 3431 
Q 1906 3584 2284 3584 
Q 2666 3584 2933 3390 
Q 3200 3197 3328 2828 
z
" transform="scale(0.015625)"/>
       <path id="DejaVuSans-68" d="M 3513 2113 
L 3513 0 
L 2938 0 
L 2938 2094 
Q 2938 2591 2744 2837 
Q 2550 3084 2163 3084 
Q 1697 3084 1428 2787 
Q 1159 2491 1159 1978 
L 1159 0 
L 581 0 
L 581 4863 
L 1159 4863 
L 1159 2956 
Q 1366 3272 1645 3428 
Q 1925 3584 2291 3584 
Q 2894 3584 3203 3211 
Q 3513 2838 3513 2113 
z
" transform="scale(0.015625)"/>
       <path id="DejaVuSans-20" transform="scale(0.015625)"/>
       <path id="DejaVuSans-4e" d="M 628 4666 
L 1478 4666 
L 3547 763 
L 3547 4666 
L 4159 4666 
L 4159 0 
L 3309 0 
L 1241 3903 
L 1241 0 
L 628 0 
L 628 4666 
z
" transform="scale(0.015625)"/>
       <path id="DejaVuSans-6c" d="M 603 4863 
L 1178 4863 
L 1178 0 
L 603 0 
L 603 4863 
z
" transform="scale(0.015625)"/>
       <path id="DejaVuSans-61" d="M 2194 1759 
Q 1497 1759 1228 1600 
Q 959 1441 959 1056 
Q 959 750 1161 570 
Q 1363 391 1709 391 
Q 2188 391 2477 730 
Q 2766 1069 2766 1631 
L 2766 1759 
L 2194 1759 
z
M 3341 1997 
L 3341 0 
L 2766 0 
L 2766 531 
Q 2569 213 2275 61 
Q 1981 -91 1556 -91 
Q 1019 -91 701 211 
Q 384 513 384 1019 
Q 384 1609 779 1909 
Q 1175 2209 1959 2209 
L 2766 2209 
L 2766 2266 
Q 2766 2663 2505 2880 
Q 2244 3097 1772 3097 
Q 1472 3097 1187 3025 
Q 903 2953 641 2809 
L 641 3341 
Q 956 3463 1253 3523 
Q 1550 3584 1831 3584 
Q 2591 3584 2966 3190 
Q 3341 2797 3341 1997 
z
" transform="scale(0.015625)"/>
      </defs>
      <use xlink:href="#DejaVuSans-41"/>
      <use xlink:href="#DejaVuSans-4d" x="68.408203"/>
      <use xlink:href="#DejaVuSans-4c" x="154.6875"/>
      <use xlink:href="#DejaVuSans-2f" x="210.400391"/>
      <use xlink:href="#DejaVuSans-4c" x="244.091797"/>
      <use xlink:href="#DejaVuSans-79" x="290.679688"/>
      <use xlink:href="#DejaVuSans-6d" x="349.859375"/>
      <use xlink:href="#DejaVuSans-70" x="447.271484"/>
      <use xlink:href="#DejaVuSans-68" x="510.748047"/>
      <use xlink:href="#DejaVuSans-20" x="574.126953"/>
      <use xlink:href="#DejaVuSans-4e" x="605.914062"/>
      <use xlink:href="#DejaVuSans-65" x="680.71875"/>
      <use xlink:href="#DejaVuSans-6f" x="742.242188"/>
      <use xlink:href="#DejaVuSans-70" x="803.423828"/>
      <use xlink:href="#DejaVuSans-6c" x="866.900391"/>
      <use xlink:href="#DejaVuSans-61" x="894.683594"/>
      <use xlink:href="#DejaVuSans-73" x="955.962891"/>
      <use xlink:href="#DejaVuSans-6d" x="1008.0625"/>
     </g>
    </g>
    <g id="line2d_43">
     <defs>
      <path id="m069226278e" d="M 0 3.5 
C 0.928211 3.5 1.81853 3.131218 2.474874 2.474874 
C 3.131218 1.81853 3.5 0.928211 3.5 0 
C 3.5 -0.928211 3.131218 -1.81853 2.474874 -2.474874 
C 1.81853 -3.131218 0.928211 -3.5 0 -3.5 
C -0.928211 -3.5 -1.81853 -3.131218 -2.474874 -2.474874 
C -3.131218 -1.81853 -3.5 -0.928211 -3.5 0 
C -3.5 0.928211 -3.131218 1.81853 -2.474874 2.474874 
C -1.81853 3.131218 -0.928211 3.5 0 3.5 
z
"/>
     </defs>
     <g>
      <use xlink:href="#m069226278e" x="867.624938" y="112.92625" style="fill: #8c564b"/>
     </g>
    </g>
    <g id="text_9">
     <!-- Meningioma -->
     <g transform="translate(885.624938 116.42625) scale(0.1 -0.1)">
      <defs>
       <path id="DejaVuSans-6e" d="M 3513 2113 
L 3513 0 
L 2938 0 
L 2938 2094 
Q 2938 2591 2744 2837 
Q 2550 3084 2163 3084 
Q 1697 3084 1428 2787 
Q 1159 2491 1159 1978 
L 1159 0 
L 581 0 
L 581 3500 
L 1159 3500 
L 1159 2956 
Q 1366 3272 1645 3428 
Q 1925 3584 2291 3584 
Q 2894 3584 3203 3211 
Q 3513 2838 3513 2113 
z
" transform="scale(0.015625)"/>
       <path id="DejaVuSans-69" d="M 603 3500 
L 1178 3500 
L 1178 0 
L 603 0 
L 603 3500 
z
M 603 4863 
L 1178 4863 
L 1178 4134 
L 603 4134 
L 603 4863 
z
" transform="scale(0.015625)"/>
       <path id="DejaVuSans-67" d="M 2906 1791 
Q 2906 2416 2648 2759 
Q 2391 3103 1925 3103 
Q 1463 3103 1205 2759 
Q 947 2416 947 1791 
Q 947 1169 1205 825 
Q 1463 481 1925 481 
Q 2391 481 2648 825 
Q 2906 1169 2906 1791 
z
M 3481 434 
Q 3481 -459 3084 -895 
Q 2688 -1331 1869 -1331 
Q 1566 -1331 1297 -1286 
Q 1028 -1241 775 -1147 
L 775 -588 
Q 1028 -725 1275 -790 
Q 1522 -856 1778 -856 
Q 2344 -856 2625 -561 
Q 2906 -266 2906 331 
L 2906 616 
Q 2728 306 2450 153 
Q 2172 0 1784 0 
Q 1141 0 747 490 
Q 353 981 353 1791 
Q 353 2603 747 3093 
Q 1141 3584 1784 3584 
Q 2172 3584 2450 3431 
Q 2728 3278 2906 2969 
L 2906 3500 
L 3481 3500 
L 3481 434 
z
" transform="scale(0.015625)"/>
      </defs>
      <use xlink:href="#DejaVuSans-4d"/>
      <use xlink:href="#DejaVuSans-65" x="86.279297"/>
      <use xlink:href="#DejaVuSans-6e" x="147.802734"/>
      <use xlink:href="#DejaVuSans-69" x="211.181641"/>
      <use xlink:href="#DejaVuSans-6e" x="238.964844"/>
      <use xlink:href="#DejaVuSans-67" x="302.34375"/>
      <use xlink:href="#DejaVuSans-69" x="365.820312"/>
      <use xlink:href="#DejaVuSans-6f" x="393.603516"/>
      <use xlink:href="#DejaVuSans-6d" x="454.785156"/>
      <use xlink:href="#DejaVuSans-61" x="552.197266"/>
     </g>
    </g>
    <g id="line2d_44">
     <defs>
      <path id="m99c2c2f10e" d="M 0 3.5 
C 0.928211 3.5 1.81853 3.131218 2.474874 2.474874 
C 3.131218 1.81853 3.5 0.928211 3.5 0 
C 3.5 -0.928211 3.131218 -1.81853 2.474874 -2.474874 
C 1.81853 -3.131218 0.928211 -3.5 0 -3.5 
C -0.928211 -3.5 -1.81853 -3.131218 -2.474874 -2.474874 
C -3.131218 -1.81853 -3.5 -0.928211 -3.5 0 
C -3.5 0.928211 -3.131218 1.81853 -2.474874 2.474874 
C -1.81853 3.131218 -0.928211 3.5 0 3.5 
z
"/>
     </defs>
     <g>
      <use xlink:href="#m99c2c2f10e" x="867.624938" y="127.604375" style="fill: #e377c2"/>
     </g>
    </g>
    <g id="text_10">
     <!-- Glioma -->
     <g transform="translate(885.624938 131.104375) scale(0.1 -0.1)">
      <defs>
       <path id="DejaVuSans-47" d="M 3809 666 
L 3809 1919 
L 2778 1919 
L 2778 2438 
L 4434 2438 
L 4434 434 
Q 4069 175 3628 42 
Q 3188 -91 2688 -91 
Q 1594 -91 976 548 
Q 359 1188 359 2328 
Q 359 3472 976 4111 
Q 1594 4750 2688 4750 
Q 3144 4750 3555 4637 
Q 3966 4525 4313 4306 
L 4313 3634 
Q 3963 3931 3569 4081 
Q 3175 4231 2741 4231 
Q 1884 4231 1454 3753 
Q 1025 3275 1025 2328 
Q 1025 1384 1454 906 
Q 1884 428 2741 428 
Q 3075 428 3337 486 
Q 3600 544 3809 666 
z
" transform="scale(0.015625)"/>
      </defs>
      <use xlink:href="#DejaVuSans-47"/>
      <use xlink:href="#DejaVuSans-6c" x="77.490234"/>
      <use xlink:href="#DejaVuSans-69" x="105.273438"/>
      <use xlink:href="#DejaVuSans-6f" x="133.056641"/>
      <use xlink:href="#DejaVuSans-6d" x="194.238281"/>
      <use xlink:href="#DejaVuSans-61" x="291.650391"/>
     </g>
    </g>
    <g id="line2d_45">
     <defs>
      <path id="m76d82b3db0" d="M 0 3.5 
C 0.928211 3.5 1.81853 3.131218 2.474874 2.474874 
C 3.131218 1.81853 3.5 0.928211 3.5 0 
C 3.5 -0.928211 3.131218 -1.81853 2.474874 -2.474874 
C 1.81853 -3.131218 0.928211 -3.5 0 -3.5 
C -0.928211 -3.5 -1.81853 -3.131218 -2.474874 -2.474874 
C -3.131218 -1.81853 -3.5 -0.928211 -3.5 0 
C -3.5 0.928211 -3.131218 1.81853 -2.474874 2.474874 
C -1.81853 3.131218 -0.928211 3.5 0 3.5 
z
"/>
     </defs>
     <g>
      <use xlink:href="#m76d82b3db0" x="867.624938" y="142.2825" style="fill: #7f7f7f"/>
     </g>
    </g>
    <g id="text_11">
     <!-- Carcinoma -->
     <g transform="translate(885.624938 145.7825) scale(0.1 -0.1)">
      <defs>
       <path id="DejaVuSans-63" d="M 3122 3366 
L 3122 2828 
Q 2878 2963 2633 3030 
Q 2388 3097 2138 3097 
Q 1578 3097 1268 2742 
Q 959 2388 959 1747 
Q 959 1106 1268 751 
Q 1578 397 2138 397 
Q 2388 397 2633 464 
Q 2878 531 3122 666 
L 3122 134 
Q 2881 22 2623 -34 
Q 2366 -91 2075 -91 
Q 1284 -91 818 406 
Q 353 903 353 1747 
Q 353 2603 823 3093 
Q 1294 3584 2113 3584 
Q 2378 3584 2631 3529 
Q 2884 3475 3122 3366 
z
" transform="scale(0.015625)"/>
      </defs>
      <use xlink:href="#DejaVuSans-43"/>
      <use xlink:href="#DejaVuSans-61" x="69.824219"/>
      <use xlink:href="#DejaVuSans-72" x="131.103516"/>
      <use xlink:href="#DejaVuSans-63" x="169.966797"/>
      <use xlink:href="#DejaVuSans-69" x="224.947266"/>
      <use xlink:href="#DejaVuSans-6e" x="252.730469"/>
      <use xlink:href="#DejaVuSans-6f" x="316.109375"/>
      <use xlink:href="#DejaVuSans-6d" x="377.291016"/>
      <use xlink:href="#DejaVuSans-61" x="474.703125"/>
     </g>
    </g>
    <g id="line2d_46">
     <defs>
      <path id="m05e1556997" d="M 0 3.5 
C 0.928211 3.5 1.81853 3.131218 2.474874 2.474874 
C 3.131218 1.81853 3.5 0.928211 3.5 0 
C 3.5 -0.928211 3.131218 -1.81853 2.474874 -2.474874 
C 1.81853 -3.131218 0.928211 -3.5 0 -3.5 
C -0.928211 -3.5 -1.81853 -3.131218 -2.474874 -2.474874 
C -3.131218 -1.81853 -3.5 -0.928211 -3.5 0 
C -3.5 0.928211 -3.131218 1.81853 -2.474874 2.474874 
C -1.81853 3.131218 -0.928211 3.5 0 3.5 
z
"/>
     </defs>
     <g>
      <use xlink:href="#m05e1556997" x="867.624938" y="156.960625" style="fill: #bcbd22"/>
     </g>
    </g>
    <g id="text_12">
     <!-- Not Reported -->
     <g transform="translate(885.624938 160.460625) scale(0.1 -0.1)">
      <defs>
       <path id="DejaVuSans-64" d="M 2906 2969 
L 2906 4863 
L 3481 4863 
L 3481 0 
L 2906 0 
L 2906 525 
Q 2725 213 2448 61 
Q 2172 -91 1784 -91 
Q 1150 -91 751 415 
Q 353 922 353 1747 
Q 353 2572 751 3078 
Q 1150 3584 1784 3584 
Q 2172 3584 2448 3432 
Q 2725 3281 2906 2969 
z
M 947 1747 
Q 947 1113 1208 752 
Q 1469 391 1925 391 
Q 2381 391 2643 752 
Q 2906 1113 2906 1747 
Q 2906 2381 2643 2742 
Q 2381 3103 1925 3103 
Q 1469 3103 1208 2742 
Q 947 2381 947 1747 
z
" transform="scale(0.015625)"/>
      </defs>
      <use xlink:href="#DejaVuSans-4e"/>
      <use xlink:href="#DejaVuSans-6f" x="74.804688"/>
      <use xlink:href="#DejaVuSans-74" x="135.986328"/>
      <use xlink:href="#DejaVuSans-20" x="175.195312"/>
      <use xlink:href="#DejaVuSans-52" x="206.982422"/>
      <use xlink:href="#DejaVuSans-65" x="271.964844"/>
      <use xlink:href="#DejaVuSans-70" x="333.488281"/>
      <use xlink:href="#DejaVuSans-6f" x="396.964844"/>
      <use xlink:href="#DejaVuSans-72" x="458.146484"/>
      <use xlink:href="#DejaVuSans-74" x="499.259766"/>
      <use xlink:href="#DejaVuSans-65" x="538.46875"/>
      <use xlink:href="#DejaVuSans-64" x="599.992188"/>
     </g>
    </g>
   </g>
  </g>
  <g id="axes_2">
   <g id="patch_10">
    <path d="M 51.800938 344.399063 
L 833.000938 344.399063 
L 833.000938 66.233209 
L 51.800938 66.233209 
z
" style="fill: #ffffff"/>
   </g>
   <g id="matplotlib.axis_3">
    <g id="xtick_6">
     <g id="line2d_47">
      <defs>
       <path id="m0d8e1b22c5" d="M 0 0 
L 0 3.5 
" style="stroke: #000000; stroke-width: 0.8"/>
      </defs>
      <g>
       <use xlink:href="#m0d8e1b22c5" x="146.491847" y="344.399063" style="stroke: #000000; stroke-width: 0.8"/>
      </g>
     </g>
     <g id="text_13">
      <!-- RNA_Splicing_Processing -->
      <g transform="translate(68.695614 478.400563) rotate(-55) scale(0.12 -0.12)">
       <defs>
        <path id="DejaVuSans-5f" d="M 3263 -1063 
L 3263 -1509 
L -63 -1509 
L -63 -1063 
L 3263 -1063 
z
" transform="scale(0.015625)"/>
        <path id="DejaVuSans-50" d="M 1259 4147 
L 1259 2394 
L 2053 2394 
Q 2494 2394 2734 2622 
Q 2975 2850 2975 3272 
Q 2975 3691 2734 3919 
Q 2494 4147 2053 4147 
L 1259 4147 
z
M 628 4666 
L 2053 4666 
Q 2838 4666 3239 4311 
Q 3641 3956 3641 3272 
Q 3641 2581 3239 2228 
Q 2838 1875 2053 1875 
L 1259 1875 
L 1259 0 
L 628 0 
L 628 4666 
z
" transform="scale(0.015625)"/>
       </defs>
       <use xlink:href="#DejaVuSans-52"/>
       <use xlink:href="#DejaVuSans-4e" x="69.482422"/>
       <use xlink:href="#DejaVuSans-41" x="144.287109"/>
       <use xlink:href="#DejaVuSans-5f" x="212.695312"/>
       <use xlink:href="#DejaVuSans-53" x="262.695312"/>
       <use xlink:href="#DejaVuSans-70" x="326.171875"/>
       <use xlink:href="#DejaVuSans-6c" x="389.648438"/>
       <use xlink:href="#DejaVuSans-69" x="417.431641"/>
       <use xlink:href="#DejaVuSans-63" x="445.214844"/>
       <use xlink:href="#DejaVuSans-69" x="500.195312"/>
       <use xlink:href="#DejaVuSans-6e" x="527.978516"/>
       <use xlink:href="#DejaVuSans-67" x="591.357422"/>
       <use xlink:href="#DejaVuSans-5f" x="654.833984"/>
       <use xlink:href="#DejaVuSans-50" x="704.833984"/>
       <use xlink:href="#DejaVuSans-72" x="763.386719"/>
       <use xlink:href="#DejaVuSans-6f" x="802.25"/>
       <use xlink:href="#DejaVuSans-63" x="863.431641"/>
       <use xlink:href="#DejaVuSans-65" x="918.412109"/>
       <use xlink:href="#DejaVuSans-73" x="979.935547"/>
       <use xlink:href="#DejaVuSans-73" x="1032.035156"/>
       <use xlink:href="#DejaVuSans-69" x="1084.134766"/>
       <use xlink:href="#DejaVuSans-6e" x="1111.917969"/>
       <use xlink:href="#DejaVuSans-67" x="1175.296875"/>
      </g>
     </g>
    </g>
    <g id="xtick_7">
     <g id="line2d_48">
      <g>
       <use xlink:href="#m0d8e1b22c5" x="294.446392" y="344.399063" style="stroke: #000000; stroke-width: 0.8"/>
      </g>
     </g>
     <g id="text_14">
      <!-- Signal_Transduction -->
      <g transform="translate(233.446628 454.41272) rotate(-55) scale(0.12 -0.12)">
       <defs>
        <path id="DejaVuSans-54" d="M -19 4666 
L 3928 4666 
L 3928 4134 
L 2272 4134 
L 2272 0 
L 1638 0 
L 1638 4134 
L -19 4134 
L -19 4666 
z
" transform="scale(0.015625)"/>
        <path id="DejaVuSans-75" d="M 544 1381 
L 544 3500 
L 1119 3500 
L 1119 1403 
Q 1119 906 1312 657 
Q 1506 409 1894 409 
Q 2359 409 2629 706 
Q 2900 1003 2900 1516 
L 2900 3500 
L 3475 3500 
L 3475 0 
L 2900 0 
L 2900 538 
Q 2691 219 2414 64 
Q 2138 -91 1772 -91 
Q 1169 -91 856 284 
Q 544 659 544 1381 
z
M 1991 3584 
L 1991 3584 
z
" transform="scale(0.015625)"/>
       </defs>
       <use xlink:href="#DejaVuSans-53"/>
       <use xlink:href="#DejaVuSans-69" x="63.476562"/>
       <use xlink:href="#DejaVuSans-67" x="91.259766"/>
       <use xlink:href="#DejaVuSans-6e" x="154.736328"/>
       <use xlink:href="#DejaVuSans-61" x="218.115234"/>
       <use xlink:href="#DejaVuSans-6c" x="279.394531"/>
       <use xlink:href="#DejaVuSans-5f" x="307.177734"/>
       <use xlink:href="#DejaVuSans-54" x="357.177734"/>
       <use xlink:href="#DejaVuSans-72" x="403.511719"/>
       <use xlink:href="#DejaVuSans-61" x="444.625"/>
       <use xlink:href="#DejaVuSans-6e" x="505.904297"/>
       <use xlink:href="#DejaVuSans-73" x="569.283203"/>
       <use xlink:href="#DejaVuSans-64" x="621.382812"/>
       <use xlink:href="#DejaVuSans-75" x="684.859375"/>
       <use xlink:href="#DejaVuSans-63" x="748.238281"/>
       <use xlink:href="#DejaVuSans-74" x="803.21875"/>
       <use xlink:href="#DejaVuSans-69" x="842.427734"/>
       <use xlink:href="#DejaVuSans-6f" x="870.210938"/>
       <use xlink:href="#DejaVuSans-6e" x="931.392578"/>
      </g>
     </g>
    </g>
    <g id="xtick_8">
     <g id="line2d_49">
      <g>
       <use xlink:href="#m0d8e1b22c5" x="442.400937" y="344.399063" style="stroke: #000000; stroke-width: 0.8"/>
      </g>
     </g>
     <g id="text_15">
      <!-- Chromatin_Structure -->
      <g transform="translate(378.465179 458.605754) rotate(-55) scale(0.12 -0.12)">
       <use xlink:href="#DejaVuSans-43"/>
       <use xlink:href="#DejaVuSans-68" x="69.824219"/>
       <use xlink:href="#DejaVuSans-72" x="133.203125"/>
       <use xlink:href="#DejaVuSans-6f" x="172.066406"/>
       <use xlink:href="#DejaVuSans-6d" x="233.248047"/>
       <use xlink:href="#DejaVuSans-61" x="330.660156"/>
       <use xlink:href="#DejaVuSans-74" x="391.939453"/>
       <use xlink:href="#DejaVuSans-69" x="431.148438"/>
       <use xlink:href="#DejaVuSans-6e" x="458.931641"/>
       <use xlink:href="#DejaVuSans-5f" x="522.310547"/>
       <use xlink:href="#DejaVuSans-53" x="572.310547"/>
       <use xlink:href="#DejaVuSans-74" x="635.787109"/>
       <use xlink:href="#DejaVuSans-72" x="674.996094"/>
       <use xlink:href="#DejaVuSans-75" x="716.109375"/>
       <use xlink:href="#DejaVuSans-63" x="779.488281"/>
       <use xlink:href="#DejaVuSans-74" x="834.46875"/>
       <use xlink:href="#DejaVuSans-75" x="873.677734"/>
       <use xlink:href="#DejaVuSans-72" x="937.056641"/>
       <use xlink:href="#DejaVuSans-65" x="975.919922"/>
      </g>
     </g>
    </g>
    <g id="xtick_9">
     <g id="line2d_50">
      <g>
       <use xlink:href="#m0d8e1b22c5" x="590.355483" y="344.399063" style="stroke: #000000; stroke-width: 0.8"/>
      </g>
     </g>
     <g id="text_16">
      <!-- Transcription_Factors -->
      <g transform="translate(525.461494 459.97425) rotate(-55) scale(0.12 -0.12)">
       <defs>
        <path id="DejaVuSans-46" d="M 628 4666 
L 3309 4666 
L 3309 4134 
L 1259 4134 
L 1259 2759 
L 3109 2759 
L 3109 2228 
L 1259 2228 
L 1259 0 
L 628 0 
L 628 4666 
z
" transform="scale(0.015625)"/>
       </defs>
       <use xlink:href="#DejaVuSans-54"/>
       <use xlink:href="#DejaVuSans-72" x="46.333984"/>
       <use xlink:href="#DejaVuSans-61" x="87.447266"/>
       <use xlink:href="#DejaVuSans-6e" x="148.726562"/>
       <use xlink:href="#DejaVuSans-73" x="212.105469"/>
       <use xlink:href="#DejaVuSans-63" x="264.205078"/>
       <use xlink:href="#DejaVuSans-72" x="319.185547"/>
       <use xlink:href="#DejaVuSans-69" x="360.298828"/>
       <use xlink:href="#DejaVuSans-70" x="388.082031"/>
       <use xlink:href="#DejaVuSans-74" x="451.558594"/>
       <use xlink:href="#DejaVuSans-69" x="490.767578"/>
       <use xlink:href="#DejaVuSans-6f" x="518.550781"/>
       <use xlink:href="#DejaVuSans-6e" x="579.732422"/>
       <use xlink:href="#DejaVuSans-5f" x="643.111328"/>
       <use xlink:href="#DejaVuSans-46" x="693.111328"/>
       <use xlink:href="#DejaVuSans-61" x="741.505859"/>
       <use xlink:href="#DejaVuSans-63" x="802.785156"/>
       <use xlink:href="#DejaVuSans-74" x="857.765625"/>
       <use xlink:href="#DejaVuSans-6f" x="896.974609"/>
       <use xlink:href="#DejaVuSans-72" x="958.15625"/>
       <use xlink:href="#DejaVuSans-73" x="999.269531"/>
      </g>
     </g>
    </g>
    <g id="xtick_10">
     <g id="line2d_51">
      <g>
       <use xlink:href="#m0d8e1b22c5" x="738.310028" y="344.399063" style="stroke: #000000; stroke-width: 0.8"/>
      </g>
     </g>
     <g id="text_17">
      <!-- Epigenetic_Regulation -->
      <g transform="translate(669.356193 465.772311) rotate(-55) scale(0.12 -0.12)">
       <defs>
        <path id="DejaVuSans-45" d="M 628 4666 
L 3578 4666 
L 3578 4134 
L 1259 4134 
L 1259 2753 
L 3481 2753 
L 3481 2222 
L 1259 2222 
L 1259 531 
L 3634 531 
L 3634 0 
L 628 0 
L 628 4666 
z
" transform="scale(0.015625)"/>
       </defs>
       <use xlink:href="#DejaVuSans-45"/>
       <use xlink:href="#DejaVuSans-70" x="63.183594"/>
       <use xlink:href="#DejaVuSans-69" x="126.660156"/>
       <use xlink:href="#DejaVuSans-67" x="154.443359"/>
       <use xlink:href="#DejaVuSans-65" x="217.919922"/>
       <use xlink:href="#DejaVuSans-6e" x="279.443359"/>
       <use xlink:href="#DejaVuSans-65" x="342.822266"/>
       <use xlink:href="#DejaVuSans-74" x="404.345703"/>
       <use xlink:href="#DejaVuSans-69" x="443.554688"/>
       <use xlink:href="#DejaVuSans-63" x="471.337891"/>
       <use xlink:href="#DejaVuSans-5f" x="526.318359"/>
       <use xlink:href="#DejaVuSans-52" x="576.318359"/>
       <use xlink:href="#DejaVuSans-65" x="641.300781"/>
       <use xlink:href="#DejaVuSans-67" x="702.824219"/>
       <use xlink:href="#DejaVuSans-75" x="766.300781"/>
       <use xlink:href="#DejaVuSans-6c" x="829.679688"/>
       <use xlink:href="#DejaVuSans-61" x="857.462891"/>
       <use xlink:href="#DejaVuSans-74" x="918.742188"/>
       <use xlink:href="#DejaVuSans-69" x="957.951172"/>
       <use xlink:href="#DejaVuSans-6f" x="985.734375"/>
       <use xlink:href="#DejaVuSans-6e" x="1046.916016"/>
      </g>
     </g>
    </g>
   </g>
   <g id="matplotlib.axis_4">
    <g id="ytick_3">
     <g id="line2d_52">
      <g>
       <use xlink:href="#meea50dcd2b" x="51.800938" y="344.399063" style="stroke: #000000; stroke-width: 0.8"/>
      </g>
     </g>
     <g id="text_18">
      <!-- 0.0 -->
      <g transform="translate(25.717188 348.958125) scale(0.12 -0.12)">
       <use xlink:href="#DejaVuSans-30"/>
       <use xlink:href="#DejaVuSans-2e" x="63.623047"/>
       <use xlink:href="#DejaVuSans-30" x="95.410156"/>
      </g>
     </g>
    </g>
    <g id="ytick_4">
     <g id="line2d_53">
      <g>
       <use xlink:href="#meea50dcd2b" x="51.800938" y="301.604316" style="stroke: #000000; stroke-width: 0.8"/>
      </g>
     </g>
     <g id="text_19">
      <!-- 0.1 -->
      <g transform="translate(25.717188 306.163378) scale(0.12 -0.12)">
       <use xlink:href="#DejaVuSans-30"/>
       <use xlink:href="#DejaVuSans-2e" x="63.623047"/>
       <use xlink:href="#DejaVuSans-31" x="95.410156"/>
      </g>
     </g>
    </g>
    <g id="ytick_5">
     <g id="line2d_54">
      <g>
       <use xlink:href="#meea50dcd2b" x="51.800938" y="258.809569" style="stroke: #000000; stroke-width: 0.8"/>
      </g>
     </g>
     <g id="text_20">
      <!-- 0.2 -->
      <g transform="translate(25.717188 263.368632) scale(0.12 -0.12)">
       <defs>
        <path id="DejaVuSans-32" d="M 1228 531 
L 3431 531 
L 3431 0 
L 469 0 
L 469 531 
Q 828 903 1448 1529 
Q 2069 2156 2228 2338 
Q 2531 2678 2651 2914 
Q 2772 3150 2772 3378 
Q 2772 3750 2511 3984 
Q 2250 4219 1831 4219 
Q 1534 4219 1204 4116 
Q 875 4013 500 3803 
L 500 4441 
Q 881 4594 1212 4672 
Q 1544 4750 1819 4750 
Q 2544 4750 2975 4387 
Q 3406 4025 3406 3419 
Q 3406 3131 3298 2873 
Q 3191 2616 2906 2266 
Q 2828 2175 2409 1742 
Q 1991 1309 1228 531 
z
" transform="scale(0.015625)"/>
       </defs>
       <use xlink:href="#DejaVuSans-30"/>
       <use xlink:href="#DejaVuSans-2e" x="63.623047"/>
       <use xlink:href="#DejaVuSans-32" x="95.410156"/>
      </g>
     </g>
    </g>
    <g id="ytick_6">
     <g id="line2d_55">
      <g>
       <use xlink:href="#meea50dcd2b" x="51.800938" y="216.014822" style="stroke: #000000; stroke-width: 0.8"/>
      </g>
     </g>
     <g id="text_21">
      <!-- 0.3 -->
      <g transform="translate(25.717188 220.573885) scale(0.12 -0.12)">
       <defs>
        <path id="DejaVuSans-33" d="M 2597 2516 
Q 3050 2419 3304 2112 
Q 3559 1806 3559 1356 
Q 3559 666 3084 287 
Q 2609 -91 1734 -91 
Q 1441 -91 1130 -33 
Q 819 25 488 141 
L 488 750 
Q 750 597 1062 519 
Q 1375 441 1716 441 
Q 2309 441 2620 675 
Q 2931 909 2931 1356 
Q 2931 1769 2642 2001 
Q 2353 2234 1838 2234 
L 1294 2234 
L 1294 2753 
L 1863 2753 
Q 2328 2753 2575 2939 
Q 2822 3125 2822 3475 
Q 2822 3834 2567 4026 
Q 2313 4219 1838 4219 
Q 1578 4219 1281 4162 
Q 984 4106 628 3988 
L 628 4550 
Q 988 4650 1302 4700 
Q 1616 4750 1894 4750 
Q 2613 4750 3031 4423 
Q 3450 4097 3450 3541 
Q 3450 3153 3228 2886 
Q 3006 2619 2597 2516 
z
" transform="scale(0.015625)"/>
       </defs>
       <use xlink:href="#DejaVuSans-30"/>
       <use xlink:href="#DejaVuSans-2e" x="63.623047"/>
       <use xlink:href="#DejaVuSans-33" x="95.410156"/>
      </g>
     </g>
    </g>
    <g id="ytick_7">
     <g id="line2d_56">
      <g>
       <use xlink:href="#meea50dcd2b" x="51.800938" y="173.220076" style="stroke: #000000; stroke-width: 0.8"/>
      </g>
     </g>
     <g id="text_22">
      <!-- 0.4 -->
      <g transform="translate(25.717188 177.779138) scale(0.12 -0.12)">
       <defs>
        <path id="DejaVuSans-34" d="M 2419 4116 
L 825 1625 
L 2419 1625 
L 2419 4116 
z
M 2253 4666 
L 3047 4666 
L 3047 1625 
L 3713 1625 
L 3713 1100 
L 3047 1100 
L 3047 0 
L 2419 0 
L 2419 1100 
L 313 1100 
L 313 1709 
L 2253 4666 
z
" transform="scale(0.015625)"/>
       </defs>
       <use xlink:href="#DejaVuSans-30"/>
       <use xlink:href="#DejaVuSans-2e" x="63.623047"/>
       <use xlink:href="#DejaVuSans-34" x="95.410156"/>
      </g>
     </g>
    </g>
    <g id="ytick_8">
     <g id="line2d_57">
      <g>
       <use xlink:href="#meea50dcd2b" x="51.800938" y="130.425329" style="stroke: #000000; stroke-width: 0.8"/>
      </g>
     </g>
     <g id="text_23">
      <!-- 0.5 -->
      <g transform="translate(25.717188 134.984391) scale(0.12 -0.12)">
       <use xlink:href="#DejaVuSans-30"/>
       <use xlink:href="#DejaVuSans-2e" x="63.623047"/>
       <use xlink:href="#DejaVuSans-35" x="95.410156"/>
      </g>
     </g>
    </g>
    <g id="ytick_9">
     <g id="line2d_58">
      <g>
       <use xlink:href="#meea50dcd2b" x="51.800938" y="87.630582" style="stroke: #000000; stroke-width: 0.8"/>
      </g>
     </g>
     <g id="text_24">
      <!-- 0.6 -->
      <g transform="translate(25.717188 92.189645) scale(0.12 -0.12)">
       <defs>
        <path id="DejaVuSans-36" d="M 2113 2584 
Q 1688 2584 1439 2293 
Q 1191 2003 1191 1497 
Q 1191 994 1439 701 
Q 1688 409 2113 409 
Q 2538 409 2786 701 
Q 3034 994 3034 1497 
Q 3034 2003 2786 2293 
Q 2538 2584 2113 2584 
z
M 3366 4563 
L 3366 3988 
Q 3128 4100 2886 4159 
Q 2644 4219 2406 4219 
Q 1781 4219 1451 3797 
Q 1122 3375 1075 2522 
Q 1259 2794 1537 2939 
Q 1816 3084 2150 3084 
Q 2853 3084 3261 2657 
Q 3669 2231 3669 1497 
Q 3669 778 3244 343 
Q 2819 -91 2113 -91 
Q 1303 -91 875 529 
Q 447 1150 447 2328 
Q 447 3434 972 4092 
Q 1497 4750 2381 4750 
Q 2619 4750 2861 4703 
Q 3103 4656 3366 4563 
z
" transform="scale(0.015625)"/>
       </defs>
       <use xlink:href="#DejaVuSans-30"/>
       <use xlink:href="#DejaVuSans-2e" x="63.623047"/>
       <use xlink:href="#DejaVuSans-36" x="95.410156"/>
      </g>
     </g>
    </g>
    <g id="text_25">
     <!-- Fitness -->
     <g transform="translate(18.597656 231.291917) rotate(-90) scale(0.15 -0.15)">
      <use xlink:href="#DejaVuSans-46"/>
      <use xlink:href="#DejaVuSans-69" x="50.269531"/>
      <use xlink:href="#DejaVuSans-74" x="78.052734"/>
      <use xlink:href="#DejaVuSans-6e" x="117.261719"/>
      <use xlink:href="#DejaVuSans-65" x="180.640625"/>
      <use xlink:href="#DejaVuSans-73" x="242.164062"/>
      <use xlink:href="#DejaVuSans-73" x="294.263672"/>
     </g>
    </g>
   </g>
   <g id="patch_11">
    <path d="M 87.310028 310.462828 
L 205.673665 310.462828 
L 205.673665 229.965911 
L 87.310028 229.965911 
L 87.310028 310.462828 
z
" clip-path="url(#p16c1cfba0b)" style="fill: #3274a1; fill-opacity: 0.7; stroke: #3d3d3d; stroke-linejoin: miter"/>
   </g>
   <g id="line2d_59">
    <path d="M 146.491847 310.462828 
L 146.491847 340.119588 
" clip-path="url(#p16c1cfba0b)" style="fill: none; stroke: #3d3d3d"/>
   </g>
   <g id="line2d_60">
    <path d="M 146.491847 229.965911 
L 146.491847 126.167259 
" clip-path="url(#p16c1cfba0b)" style="fill: none; stroke: #3d3d3d"/>
   </g>
   <g id="line2d_61">
    <path d="M 116.900938 340.119588 
L 176.082756 340.119588 
" clip-path="url(#p16c1cfba0b)" style="fill: none; stroke: #3d3d3d; stroke-linecap: square"/>
   </g>
   <g id="line2d_62">
    <path d="M 116.900938 126.167259 
L 176.082756 126.167259 
" clip-path="url(#p16c1cfba0b)" style="fill: none; stroke: #3d3d3d; stroke-linecap: square"/>
   </g>
   <g id="patch_12">
    <path d="M 235.264574 329.527888 
L 353.62821 329.527888 
L 353.62821 267.566442 
L 235.264574 267.566442 
L 235.264574 329.527888 
z
" clip-path="url(#p16c1cfba0b)" style="fill: #e1812c; fill-opacity: 0.7; stroke: #3d3d3d; stroke-linejoin: miter"/>
   </g>
   <g id="line2d_63">
    <path d="M 294.446392 329.527888 
L 294.446392 340.119588 
" clip-path="url(#p16c1cfba0b)" style="fill: none; stroke: #3d3d3d"/>
   </g>
   <g id="line2d_64">
    <path d="M 294.446392 267.566442 
L 294.446392 181.244093 
" clip-path="url(#p16c1cfba0b)" style="fill: none; stroke: #3d3d3d"/>
   </g>
   <g id="line2d_65">
    <path d="M 264.855483 340.119588 
L 324.037301 340.119588 
" clip-path="url(#p16c1cfba0b)" style="fill: none; stroke: #3d3d3d; stroke-linecap: square"/>
   </g>
   <g id="line2d_66">
    <path d="M 264.855483 181.244093 
L 324.037301 181.244093 
" clip-path="url(#p16c1cfba0b)" style="fill: none; stroke: #3d3d3d; stroke-linecap: square"/>
   </g>
   <g id="patch_13">
    <path d="M 383.219119 332.705398 
L 501.582756 332.705398 
L 501.582756 279.7469 
L 383.219119 279.7469 
L 383.219119 332.705398 
z
" clip-path="url(#p16c1cfba0b)" style="fill: #3a923a; fill-opacity: 0.7; stroke: #3d3d3d; stroke-linejoin: miter"/>
   </g>
   <g id="line2d_67">
    <path d="M 442.400937 332.705398 
L 442.400937 340.119588 
" clip-path="url(#p16c1cfba0b)" style="fill: none; stroke: #3d3d3d"/>
   </g>
   <g id="line2d_68">
    <path d="M 442.400937 279.7469 
L 442.400937 244.79429 
" clip-path="url(#p16c1cfba0b)" style="fill: none; stroke: #3d3d3d"/>
   </g>
   <g id="line2d_69">
    <path d="M 412.810028 340.119588 
L 471.991847 340.119588 
" clip-path="url(#p16c1cfba0b)" style="fill: none; stroke: #3d3d3d; stroke-linecap: square"/>
   </g>
   <g id="line2d_70">
    <path d="M 412.810028 244.79429 
L 471.991847 244.79429 
" clip-path="url(#p16c1cfba0b)" style="fill: none; stroke: #3d3d3d; stroke-linecap: square"/>
   </g>
   <g id="patch_14">
    <path d="M 531.173665 340.119588 
L 649.537301 340.119588 
L 649.537301 277.628562 
L 531.173665 277.628562 
L 531.173665 340.119588 
z
" clip-path="url(#p16c1cfba0b)" style="fill: #c03d3e; fill-opacity: 0.7; stroke: #3d3d3d; stroke-linejoin: miter"/>
   </g>
   <g id="line2d_71">
    <path d="M 590.355483 340.119588 
L 590.355483 340.119588 
" clip-path="url(#p16c1cfba0b)" style="fill: none; stroke: #3d3d3d"/>
   </g>
   <g id="line2d_72">
    <path d="M 590.355483 277.628562 
L 590.355483 206.664169 
" clip-path="url(#p16c1cfba0b)" style="fill: none; stroke: #3d3d3d"/>
   </g>
   <g id="line2d_73">
    <path d="M 560.764574 340.119588 
L 619.946392 340.119588 
" clip-path="url(#p16c1cfba0b)" style="fill: none; stroke: #3d3d3d; stroke-linecap: square"/>
   </g>
   <g id="line2d_74">
    <path d="M 560.764574 206.664169 
L 619.946392 206.664169 
" clip-path="url(#p16c1cfba0b)" style="fill: none; stroke: #3d3d3d; stroke-linecap: square"/>
   </g>
   <g id="patch_15">
    <path d="M 679.12821 340.119588 
L 797.491847 340.119588 
L 797.491847 293.516108 
L 679.12821 293.516108 
L 679.12821 340.119588 
z
" clip-path="url(#p16c1cfba0b)" style="fill: #9372b2; fill-opacity: 0.7; stroke: #3d3d3d; stroke-linejoin: miter"/>
   </g>
   <g id="line2d_75">
    <path d="M 738.310028 340.119588 
L 738.310028 340.119588 
" clip-path="url(#p16c1cfba0b)" style="fill: none; stroke: #3d3d3d"/>
   </g>
   <g id="line2d_76">
    <path d="M 738.310028 293.516108 
L 738.310028 225.729243 
" clip-path="url(#p16c1cfba0b)" style="fill: none; stroke: #3d3d3d"/>
   </g>
   <g id="line2d_77">
    <path d="M 708.719119 340.119588 
L 767.900938 340.119588 
" clip-path="url(#p16c1cfba0b)" style="fill: none; stroke: #3d3d3d; stroke-linecap: square"/>
   </g>
   <g id="line2d_78">
    <path d="M 708.719119 225.729243 
L 767.900938 225.729243 
" clip-path="url(#p16c1cfba0b)" style="fill: none; stroke: #3d3d3d; stroke-linecap: square"/>
   </g>
   <g id="line2d_79">
    <g>
     <use xlink:href="#ma3965a8755" x="51.800938" y="66.233209" style="stroke: #000000"/>
    </g>
   </g>
   <g id="line2d_80">
    <path d="M 87.310028 276.569395 
L 205.673665 276.569395 
" clip-path="url(#p16c1cfba0b)" style="fill: none; stroke: #3d3d3d"/>
   </g>
   <g id="line2d_81">
    <path d="M 235.264574 301.989471 
L 353.62821 301.989471 
" clip-path="url(#p16c1cfba0b)" style="fill: none; stroke: #3d3d3d"/>
   </g>
   <g id="line2d_82">
    <path d="M 383.219119 301.989471 
L 501.582756 301.989471 
" clip-path="url(#p16c1cfba0b)" style="fill: none; stroke: #3d3d3d"/>
   </g>
   <g id="line2d_83">
    <path d="M 531.173665 312.581169 
L 649.537301 312.581169 
" clip-path="url(#p16c1cfba0b)" style="fill: none; stroke: #3d3d3d"/>
   </g>
   <g id="line2d_84">
    <path d="M 679.12821 316.81785 
L 797.491847 316.81785 
" clip-path="url(#p16c1cfba0b)" style="fill: none; stroke: #3d3d3d"/>
   </g>
   <g id="patch_16">
    <path d="M 51.800938 344.399063 
L 51.800938 66.233209 
" style="fill: none; stroke: #000000; stroke-width: 0.8; stroke-linejoin: miter; stroke-linecap: square"/>
   </g>
   <g id="patch_17">
    <path d="M 51.800938 344.399063 
L 833.000937 344.399063 
" style="fill: none; stroke: #000000; stroke-width: 0.8; stroke-linejoin: miter; stroke-linecap: square"/>
   </g>
   <g id="PathCollection_46"/>
   <g id="PathCollection_47"/>
   <g id="PathCollection_48"/>
   <g id="PathCollection_49">
    <path d="M 133.340331 74.590413 
C 134.268542 74.590413 135.158861 74.22163 135.815205 73.565286 
C 136.471549 72.908942 136.840331 72.018623 136.840331 71.090413 
C 136.840331 70.162202 136.471549 69.271883 135.815205 68.615539 
C 135.158861 67.959195 134.268542 67.590413 133.340331 67.590413 
C 132.412121 67.590413 131.521802 67.959195 130.865458 68.615539 
C 130.209114 69.271883 129.840331 70.162202 129.840331 71.090413 
C 129.840331 72.018623 130.209114 72.908942 130.865458 73.565286 
C 131.521802 74.22163 132.412121 74.590413 133.340331 74.590413 
z
" clip-path="url(#p16c1cfba0b)" style="fill: #d62728"/>
   </g>
   <g id="PathCollection_50"/>
   <g id="PathCollection_51"/>
   <g id="PathCollection_52"/>
   <g id="PathCollection_53"/>
   <g id="PathCollection_54"/>
   <g id="PathCollection_55"/>
   <g id="PathCollection_56"/>
   <g id="PathCollection_57"/>
   <g id="PathCollection_58"/>
   <g id="PathCollection_59"/>
   <g id="PathCollection_60">
    <path d="M 307.597907 176.270743 
C 308.526118 176.270743 309.416437 175.901961 310.072781 175.245617 
C 310.729125 174.589273 311.097907 173.698954 311.097907 172.770743 
C 311.097907 171.842532 310.729125 170.952213 310.072781 170.295869 
C 309.416437 169.639525 308.526118 169.270743 307.597907 169.270743 
C 306.669696 169.270743 305.779378 169.639525 305.123033 170.295869 
C 304.466689 170.952213 304.097907 171.842532 304.097907 172.770743 
C 304.097907 173.698954 304.466689 174.589273 305.123033 175.245617 
C 305.779378 175.901961 306.669696 176.270743 307.597907 176.270743 
z
" clip-path="url(#p16c1cfba0b)" style="fill: #8c564b"/>
   </g>
   <g id="PathCollection_61"/>
   <g id="PathCollection_62"/>
   <g id="PathCollection_63"/>
   <g id="PathCollection_64"/>
   <g id="PathCollection_65"/>
   <g id="PathCollection_66"/>
   <g id="PathCollection_67"/>
   <g id="PathCollection_68"/>
   <g id="PathCollection_69"/>
   <g id="PathCollection_70"/>
   <g id="PathCollection_71"/>
   <g id="PathCollection_72"/>
   <g id="PathCollection_73"/>
   <g id="PathCollection_74"/>
   <g id="PathCollection_75"/>
   <g id="PathCollection_76"/>
   <g id="PathCollection_77"/>
   <g id="PathCollection_78"/>
   <g id="PathCollection_79"/>
   <g id="PathCollection_80"/>
   <g id="PathCollection_81"/>
   <g id="PathCollection_82">
    <defs>
     <path id="C3_0_b17b61b33d" d="M 0 3.5 
C 0.928211 3.5 1.81853 3.131218 2.474874 2.474874 
C 3.131218 1.81853 3.5 0.928211 3.5 -0 
C 3.5 -0.928211 3.131218 -1.81853 2.474874 -2.474874 
C 1.81853 -3.131218 0.928211 -3.5 0 -3.5 
C -0.928211 -3.5 -1.81853 -3.131218 -2.474874 -2.474874 
C -3.131218 -1.81853 -3.5 -0.928211 -3.5 0 
C -3.5 0.928211 -3.131218 1.81853 -2.474874 2.474874 
C -1.81853 3.131218 -0.928211 3.5 0 3.5 
z
"/>
    </defs>
    <g clip-path="url(#p16c1cfba0b)">
     <use xlink:href="#C3_0_b17b61b33d" x="688.957413" y="157.942364" style="fill: #1f77b4"/>
    </g>
    <g clip-path="url(#p16c1cfba0b)">
     <use xlink:href="#C3_0_b17b61b33d" x="674.626792" y="172.770743" style="fill: #1f77b4"/>
    </g>
    <g clip-path="url(#p16c1cfba0b)">
     <use xlink:href="#C3_0_b17b61b33d" x="684.960971" y="217.25588" style="fill: #1f77b4"/>
    </g>
    <g clip-path="url(#p16c1cfba0b)">
     <use xlink:href="#C3_0_b17b61b33d" x="672.72584" y="221.492548" style="fill: #1f77b4"/>
    </g>
   </g>
   <g id="PathCollection_83">
    <defs>
     <path id="C4_0_a253863686" d="M 0 3.5 
C 0.928211 3.5 1.81853 3.131218 2.474874 2.474874 
C 3.131218 1.81853 3.5 0.928211 3.5 -0 
C 3.5 -0.928211 3.131218 -1.81853 2.474874 -2.474874 
C 1.81853 -3.131218 0.928211 -3.5 0 -3.5 
C -0.928211 -3.5 -1.81853 -3.131218 -2.474874 -2.474874 
C -3.131218 -1.81853 -3.5 -0.928211 -3.5 0 
C -3.5 0.928211 -3.131218 1.81853 -2.474874 2.474874 
C -1.81853 3.131218 -0.928211 3.5 0 3.5 
z
"/>
    </defs>
    <g clip-path="url(#p16c1cfba0b)">
     <use xlink:href="#C4_0_a253863686" x="686.54952" y="157.942364" style="fill: #ff7f0e"/>
    </g>
    <g clip-path="url(#p16c1cfba0b)">
     <use xlink:href="#C4_0_a253863686" x="697.040762" y="172.770743" style="fill: #ff7f0e"/>
    </g>
   </g>
   <g id="PathCollection_84">
    <path d="M 712.006998 -63.101679 
C 712.935209 -63.101679 713.825528 -63.470461 714.481872 -64.126805 
C 715.138216 -64.783149 715.506998 -65.673468 715.506998 -66.601679 
C 715.506998 -67.52989 715.138216 -68.420208 714.481872 -69.076552 
C 713.825528 -69.732897 712.935209 -70.101679 712.006998 -70.101679 
C 711.078787 -70.101679 710.188469 -69.732897 709.532124 -69.076552 
C 708.87578 -68.420208 708.506998 -67.52989 708.506998 -66.601679 
C 708.506998 -65.673468 708.87578 -64.783149 709.532124 -64.126805 
C 710.188469 -63.470461 711.078787 -63.101679 712.006998 -63.101679 
z
" clip-path="url(#p16c1cfba0b)" style="fill: #2ca02c"/>
   </g>
   <g id="PathCollection_85">
    <defs>
     <path id="C5_0_7b3e79a80a" d="M 0 3.5 
C 0.928211 3.5 1.81853 3.131218 2.474874 2.474874 
C 3.131218 1.81853 3.5 0.928211 3.5 -0 
C 3.5 -0.928211 3.131218 -1.81853 2.474874 -2.474874 
C 1.81853 -3.131218 0.928211 -3.5 0 -3.5 
C -0.928211 -3.5 -1.81853 -3.131218 -2.474874 -2.474874 
C -3.131218 -1.81853 -3.5 -0.928211 -3.5 0 
C -3.5 0.928211 -3.131218 1.81853 -2.474874 2.474874 
C -1.81853 3.131218 -0.928211 3.5 0 3.5 
z
"/>
    </defs>
    <g clip-path="url(#p16c1cfba0b)">
     <use xlink:href="#C5_0_7b3e79a80a" x="729.168211" y="151.587335" style="fill: #d62728"/>
    </g>
    <g clip-path="url(#p16c1cfba0b)">
     <use xlink:href="#C5_0_7b3e79a80a" x="724.320282" y="223.610883" style="fill: #d62728"/>
    </g>
   </g>
   <g id="PathCollection_86"/>
   <g id="PathCollection_87"/>
   <g id="PathCollection_88"/>
   <g id="PathCollection_89"/>
   <g id="PathCollection_90"/>
   <g id="line2d_85"/>
   <g id="line2d_86"/>
   <g id="line2d_87"/>
   <g id="line2d_88"/>
   <g id="line2d_89"/>
   <g id="line2d_90"/>
   <g id="line2d_91"/>
   <g id="line2d_92"/>
   <g id="line2d_93"/>
  </g>
 </g>
 <defs>
  <clipPath id="p757648dfb1">
   <rect x="51.800938" y="11.759062" width="781.2" height="46.360976"/>
  </clipPath>
  <clipPath id="p16c1cfba0b">
   <rect x="51.800938" y="66.233209" width="781.2" height="278.165854"/>
  </clipPath>
 </defs>
</svg>
