<?xml version="1.0" encoding="utf-8" standalone="no"?>
<!DOCTYPE svg PUBLIC "-//W3C//DTD SVG 1.1//EN"
  "http://www.w3.org/Graphics/SVG/1.1/DTD/svg11.dtd">
<svg xmlns:xlink="http://www.w3.org/1999/xlink" width="360pt" height="504pt" viewBox="0 0 360 504" xmlns="http://www.w3.org/2000/svg" version="1.1">
 <metadata>
  <rdf:RDF xmlns:dc="http://purl.org/dc/elements/1.1/" xmlns:cc="http://creativecommons.org/ns#" xmlns:rdf="http://www.w3.org/1999/02/22-rdf-syntax-ns#">
   <cc:Work>
    <dc:type rdf:resource="http://purl.org/dc/dcmitype/StillImage"/>
    <dc:date>2024-10-23T14:41:34.500367</dc:date>
    <dc:format>image/svg+xml</dc:format>
    <dc:creator>
     <cc:Agent>
      <dc:title>Matplotlib v3.9.1, https://matplotlib.org/</dc:title>
     </cc:Agent>
    </dc:creator>
   </cc:Work>
  </rdf:RDF>
 </metadata>
 <defs>
  <style type="text/css">*{stroke-linejoin: round; stroke-linecap: butt}</style>
 </defs>
 <g id="figure_1">
  <g id="patch_1">
   <path d="M 0 504 
L 360 504 
L 360 0 
L 0 0 
z
" style="fill: #ffffff"/>
  </g>
  <g id="axes_1">
   <g id="patch_2">
    <path d="M 45 285.453913 
L 324 285.453913 
L 324 60.48 
L 45 60.48 
z
" style="fill: #ffffff"/>
   </g>
   <g id="PathCollection_1">
    <defs>
     <path id="mf55f6e122e" d="M 0 3 
C 0.795609 3 1.55874 2.683901 2.12132 2.12132 
C 2.683901 1.55874 3 0.795609 3 0 
C 3 -0.795609 2.683901 -1.55874 2.12132 -2.12132 
C 1.55874 -2.683901 0.795609 -3 0 -3 
C -0.795609 -3 -1.55874 -2.683901 -2.12132 -2.12132 
C -2.683901 -1.55874 -3 -0.795609 -3 0 
C -3 0.795609 -2.683901 1.55874 -2.12132 2.12132 
C -1.55874 2.683901 -0.795609 3 0 3 
z
" style="stroke: #ffffff; stroke-width: 0.48"/>
    </defs>
    <g clip-path="url(#pfbf698000a)">
     <use xlink:href="#mf55f6e122e" x="102.974026" y="266.479365" style="fill: #1f77b4; stroke: #ffffff; stroke-width: 0.48"/>
     <use xlink:href="#mf55f6e122e" x="157.324675" y="266.527041" style="fill: #1f77b4; stroke: #ffffff; stroke-width: 0.48"/>
     <use xlink:href="#mf55f6e122e" x="184.5" y="233.461988" style="fill: #1f77b4; stroke: #ffffff; stroke-width: 0.48"/>
     <use xlink:href="#mf55f6e122e" x="266.025974" y="249.054153" style="fill: #1f77b4; stroke: #ffffff; stroke-width: 0.48"/>
    </g>
   </g>
   <g id="PolyCollection_1"/>
   <g id="PathCollection_2">
    <defs>
     <path id="m19e75653a4" d="M 0 3 
C 0.795609 3 1.55874 2.683901 2.12132 2.12132 
C 2.683901 1.55874 3 0.795609 3 0 
C 3 -0.795609 2.683901 -1.55874 2.12132 -2.12132 
C 1.55874 -2.683901 0.795609 -3 0 -3 
C -0.795609 -3 -1.55874 -2.683901 -2.12132 -2.12132 
C -2.683901 -1.55874 -3 -0.795609 -3 0 
C -3 0.795609 -2.683901 1.55874 -2.12132 2.12132 
C -1.55874 2.683901 -0.795609 3 0 3 
z
" style="stroke: #ffffff; stroke-width: 0.48"/>
    </defs>
    <g clip-path="url(#pfbf698000a)">
     <use xlink:href="#m19e75653a4" x="102.974026" y="275.227826" style="fill: #ff7f0e; stroke: #ffffff; stroke-width: 0.48"/>
     <use xlink:href="#m19e75653a4" x="157.324675" y="275.227826" style="fill: #ff7f0e; stroke: #ffffff; stroke-width: 0.48"/>
     <use xlink:href="#m19e75653a4" x="184.5" y="271.546918" style="fill: #ff7f0e; stroke: #ffffff; stroke-width: 0.48"/>
     <use xlink:href="#m19e75653a4" x="266.025974" y="211.263727" style="fill: #ff7f0e; stroke: #ffffff; stroke-width: 0.48"/>
    </g>
   </g>
   <g id="PolyCollection_2"/>
   <g id="PathCollection_3">
    <defs>
     <path id="m29362eb728" d="M 0 3 
C 0.795609 3 1.55874 2.683901 2.12132 2.12132 
C 2.683901 1.55874 3 0.795609 3 0 
C 3 -0.795609 2.683901 -1.55874 2.12132 -2.12132 
C 1.55874 -2.683901 0.795609 -3 0 -3 
C -0.795609 -3 -1.55874 -2.683901 -2.12132 -2.12132 
C -2.683901 -1.55874 -3 -0.795609 -3 0 
C -3 0.795609 -2.683901 1.55874 -2.12132 2.12132 
C -1.55874 2.683901 -0.795609 3 0 3 
z
" style="stroke: #ffffff; stroke-width: 0.48"/>
    </defs>
    <g clip-path="url(#pfbf698000a)">
     <use xlink:href="#m29362eb728" x="102.974026" y="164.965804" style="fill: #2ca02c; stroke: #ffffff; stroke-width: 0.48"/>
     <use xlink:href="#m29362eb728" x="157.324675" y="160.293041" style="fill: #2ca02c; stroke: #ffffff; stroke-width: 0.48"/>
     <use xlink:href="#m29362eb728" x="184.5" y="163.042124" style="fill: #2ca02c; stroke: #ffffff; stroke-width: 0.48"/>
     <use xlink:href="#m29362eb728" x="266.025974" y="130.241711" style="fill: #2ca02c; stroke: #ffffff; stroke-width: 0.48"/>
    </g>
   </g>
   <g id="PolyCollection_3"/>
   <g id="matplotlib.axis_1">
    <g id="xtick_1">
     <g id="line2d_1">
      <defs>
       <path id="m667ba6f849" d="M 0 0 
L 0 3.5 
" style="stroke: #000000; stroke-width: 0.8"/>
      </defs>
      <g>
       <use xlink:href="#m667ba6f849" x="66.74026" y="285.453913" style="stroke: #000000; stroke-width: 0.8"/>
      </g>
     </g>
     <g id="text_1">
      <!-- 60 -->
      <g transform="translate(60.37776 300.052351) scale(0.1 -0.1)">
       <defs>
        <path id="DejaVuSans-36" d="M 2113 2584 
Q 1688 2584 1439 2293 
Q 1191 2003 1191 1497 
Q 1191 994 1439 701 
Q 1688 409 2113 409 
Q 2538 409 2786 701 
Q 3034 994 3034 1497 
Q 3034 2003 2786 2293 
Q 2538 2584 2113 2584 
z
M 3366 4563 
L 3366 3988 
Q 3128 4100 2886 4159 
Q 2644 4219 2406 4219 
Q 1781 4219 1451 3797 
Q 1122 3375 1075 2522 
Q 1259 2794 1537 2939 
Q 1816 3084 2150 3084 
Q 2853 3084 3261 2657 
Q 3669 2231 3669 1497 
Q 3669 778 3244 343 
Q 2819 -91 2113 -91 
Q 1303 -91 875 529 
Q 447 1150 447 2328 
Q 447 3434 972 4092 
Q 1497 4750 2381 4750 
Q 2619 4750 2861 4703 
Q 3103 4656 3366 4563 
z
" transform="scale(0.015625)"/>
        <path id="DejaVuSans-30" d="M 2034 4250 
Q 1547 4250 1301 3770 
Q 1056 3291 1056 2328 
Q 1056 1369 1301 889 
Q 1547 409 2034 409 
Q 2525 409 2770 889 
Q 3016 1369 3016 2328 
Q 3016 3291 2770 3770 
Q 2525 4250 2034 4250 
z
M 2034 4750 
Q 2819 4750 3233 4129 
Q 3647 3509 3647 2328 
Q 3647 1150 3233 529 
Q 2819 -91 2034 -91 
Q 1250 -91 836 529 
Q 422 1150 422 2328 
Q 422 3509 836 4129 
Q 1250 4750 2034 4750 
z
" transform="scale(0.015625)"/>
       </defs>
       <use xlink:href="#DejaVuSans-36"/>
       <use xlink:href="#DejaVuSans-30" x="63.623047"/>
      </g>
     </g>
    </g>
    <g id="xtick_2">
     <g id="line2d_2">
      <g>
       <use xlink:href="#m667ba6f849" x="112.032468" y="285.453913" style="stroke: #000000; stroke-width: 0.8"/>
      </g>
     </g>
     <g id="text_2">
      <!-- 65 -->
      <g transform="translate(105.669968 300.052351) scale(0.1 -0.1)">
       <defs>
        <path id="DejaVuSans-35" d="M 691 4666 
L 3169 4666 
L 3169 4134 
L 1269 4134 
L 1269 2991 
Q 1406 3038 1543 3061 
Q 1681 3084 1819 3084 
Q 2600 3084 3056 2656 
Q 3513 2228 3513 1497 
Q 3513 744 3044 326 
Q 2575 -91 1722 -91 
Q 1428 -91 1123 -41 
Q 819 9 494 109 
L 494 744 
Q 775 591 1075 516 
Q 1375 441 1709 441 
Q 2250 441 2565 725 
Q 2881 1009 2881 1497 
Q 2881 1984 2565 2268 
Q 2250 2553 1709 2553 
Q 1456 2553 1204 2497 
Q 953 2441 691 2322 
L 691 4666 
z
" transform="scale(0.015625)"/>
       </defs>
       <use xlink:href="#DejaVuSans-36"/>
       <use xlink:href="#DejaVuSans-35" x="63.623047"/>
      </g>
     </g>
    </g>
    <g id="xtick_3">
     <g id="line2d_3">
      <g>
       <use xlink:href="#m667ba6f849" x="157.324675" y="285.453913" style="stroke: #000000; stroke-width: 0.8"/>
      </g>
     </g>
     <g id="text_3">
      <!-- 70 -->
      <g transform="translate(150.962175 300.052351) scale(0.1 -0.1)">
       <defs>
        <path id="DejaVuSans-37" d="M 525 4666 
L 3525 4666 
L 3525 4397 
L 1831 0 
L 1172 0 
L 2766 4134 
L 525 4134 
L 525 4666 
z
" transform="scale(0.015625)"/>
       </defs>
       <use xlink:href="#DejaVuSans-37"/>
       <use xlink:href="#DejaVuSans-30" x="63.623047"/>
      </g>
     </g>
    </g>
    <g id="xtick_4">
     <g id="line2d_4">
      <g>
       <use xlink:href="#m667ba6f849" x="202.616883" y="285.453913" style="stroke: #000000; stroke-width: 0.8"/>
      </g>
     </g>
     <g id="text_4">
      <!-- 75 -->
      <g transform="translate(196.254383 300.052351) scale(0.1 -0.1)">
       <use xlink:href="#DejaVuSans-37"/>
       <use xlink:href="#DejaVuSans-35" x="63.623047"/>
      </g>
     </g>
    </g>
    <g id="xtick_5">
     <g id="line2d_5">
      <g>
       <use xlink:href="#m667ba6f849" x="247.909091" y="285.453913" style="stroke: #000000; stroke-width: 0.8"/>
      </g>
     </g>
     <g id="text_5">
      <!-- 80 -->
      <g transform="translate(241.546591 300.052351) scale(0.1 -0.1)">
       <defs>
        <path id="DejaVuSans-38" d="M 2034 2216 
Q 1584 2216 1326 1975 
Q 1069 1734 1069 1313 
Q 1069 891 1326 650 
Q 1584 409 2034 409 
Q 2484 409 2743 651 
Q 3003 894 3003 1313 
Q 3003 1734 2745 1975 
Q 2488 2216 2034 2216 
z
M 1403 2484 
Q 997 2584 770 2862 
Q 544 3141 544 3541 
Q 544 4100 942 4425 
Q 1341 4750 2034 4750 
Q 2731 4750 3128 4425 
Q 3525 4100 3525 3541 
Q 3525 3141 3298 2862 
Q 3072 2584 2669 2484 
Q 3125 2378 3379 2068 
Q 3634 1759 3634 1313 
Q 3634 634 3220 271 
Q 2806 -91 2034 -91 
Q 1263 -91 848 271 
Q 434 634 434 1313 
Q 434 1759 690 2068 
Q 947 2378 1403 2484 
z
M 1172 3481 
Q 1172 3119 1398 2916 
Q 1625 2713 2034 2713 
Q 2441 2713 2670 2916 
Q 2900 3119 2900 3481 
Q 2900 3844 2670 4047 
Q 2441 4250 2034 4250 
Q 1625 4250 1398 4047 
Q 1172 3844 1172 3481 
z
" transform="scale(0.015625)"/>
       </defs>
       <use xlink:href="#DejaVuSans-38"/>
       <use xlink:href="#DejaVuSans-30" x="63.623047"/>
      </g>
     </g>
    </g>
    <g id="xtick_6">
     <g id="line2d_6">
      <g>
       <use xlink:href="#m667ba6f849" x="293.201299" y="285.453913" style="stroke: #000000; stroke-width: 0.8"/>
      </g>
     </g>
     <g id="text_6">
      <!-- 85 -->
      <g transform="translate(286.838799 300.052351) scale(0.1 -0.1)">
       <use xlink:href="#DejaVuSans-38"/>
       <use xlink:href="#DejaVuSans-35" x="63.623047"/>
      </g>
     </g>
    </g>
    <g id="text_7">
     <!-- Age (yrs) -->
     <g transform="translate(161.71875 313.730476) scale(0.1 -0.1)">
      <defs>
       <path id="DejaVuSans-41" d="M 2188 4044 
L 1331 1722 
L 3047 1722 
L 2188 4044 
z
M 1831 4666 
L 2547 4666 
L 4325 0 
L 3669 0 
L 3244 1197 
L 1141 1197 
L 716 0 
L 50 0 
L 1831 4666 
z
" transform="scale(0.015625)"/>
       <path id="DejaVuSans-67" d="M 2906 1791 
Q 2906 2416 2648 2759 
Q 2391 3103 1925 3103 
Q 1463 3103 1205 2759 
Q 947 2416 947 1791 
Q 947 1169 1205 825 
Q 1463 481 1925 481 
Q 2391 481 2648 825 
Q 2906 1169 2906 1791 
z
M 3481 434 
Q 3481 -459 3084 -895 
Q 2688 -1331 1869 -1331 
Q 1566 -1331 1297 -1286 
Q 1028 -1241 775 -1147 
L 775 -588 
Q 1028 -725 1275 -790 
Q 1522 -856 1778 -856 
Q 2344 -856 2625 -561 
Q 2906 -266 2906 331 
L 2906 616 
Q 2728 306 2450 153 
Q 2172 0 1784 0 
Q 1141 0 747 490 
Q 353 981 353 1791 
Q 353 2603 747 3093 
Q 1141 3584 1784 3584 
Q 2172 3584 2450 3431 
Q 2728 3278 2906 2969 
L 2906 3500 
L 3481 3500 
L 3481 434 
z
" transform="scale(0.015625)"/>
       <path id="DejaVuSans-65" d="M 3597 1894 
L 3597 1613 
L 953 1613 
Q 991 1019 1311 708 
Q 1631 397 2203 397 
Q 2534 397 2845 478 
Q 3156 559 3463 722 
L 3463 178 
Q 3153 47 2828 -22 
Q 2503 -91 2169 -91 
Q 1331 -91 842 396 
Q 353 884 353 1716 
Q 353 2575 817 3079 
Q 1281 3584 2069 3584 
Q 2775 3584 3186 3129 
Q 3597 2675 3597 1894 
z
M 3022 2063 
Q 3016 2534 2758 2815 
Q 2500 3097 2075 3097 
Q 1594 3097 1305 2825 
Q 1016 2553 972 2059 
L 3022 2063 
z
" transform="scale(0.015625)"/>
       <path id="DejaVuSans-20" transform="scale(0.015625)"/>
       <path id="DejaVuSans-28" d="M 1984 4856 
Q 1566 4138 1362 3434 
Q 1159 2731 1159 2009 
Q 1159 1288 1364 580 
Q 1569 -128 1984 -844 
L 1484 -844 
Q 1016 -109 783 600 
Q 550 1309 550 2009 
Q 550 2706 781 3412 
Q 1013 4119 1484 4856 
L 1984 4856 
z
" transform="scale(0.015625)"/>
       <path id="DejaVuSans-79" d="M 2059 -325 
Q 1816 -950 1584 -1140 
Q 1353 -1331 966 -1331 
L 506 -1331 
L 506 -850 
L 844 -850 
Q 1081 -850 1212 -737 
Q 1344 -625 1503 -206 
L 1606 56 
L 191 3500 
L 800 3500 
L 1894 763 
L 2988 3500 
L 3597 3500 
L 2059 -325 
z
" transform="scale(0.015625)"/>
       <path id="DejaVuSans-72" d="M 2631 2963 
Q 2534 3019 2420 3045 
Q 2306 3072 2169 3072 
Q 1681 3072 1420 2755 
Q 1159 2438 1159 1844 
L 1159 0 
L 581 0 
L 581 3500 
L 1159 3500 
L 1159 2956 
Q 1341 3275 1631 3429 
Q 1922 3584 2338 3584 
Q 2397 3584 2469 3576 
Q 2541 3569 2628 3553 
L 2631 2963 
z
" transform="scale(0.015625)"/>
       <path id="DejaVuSans-73" d="M 2834 3397 
L 2834 2853 
Q 2591 2978 2328 3040 
Q 2066 3103 1784 3103 
Q 1356 3103 1142 2972 
Q 928 2841 928 2578 
Q 928 2378 1081 2264 
Q 1234 2150 1697 2047 
L 1894 2003 
Q 2506 1872 2764 1633 
Q 3022 1394 3022 966 
Q 3022 478 2636 193 
Q 2250 -91 1575 -91 
Q 1294 -91 989 -36 
Q 684 19 347 128 
L 347 722 
Q 666 556 975 473 
Q 1284 391 1588 391 
Q 1994 391 2212 530 
Q 2431 669 2431 922 
Q 2431 1156 2273 1281 
Q 2116 1406 1581 1522 
L 1381 1569 
Q 847 1681 609 1914 
Q 372 2147 372 2553 
Q 372 3047 722 3315 
Q 1072 3584 1716 3584 
Q 2034 3584 2315 3537 
Q 2597 3491 2834 3397 
z
" transform="scale(0.015625)"/>
       <path id="DejaVuSans-29" d="M 513 4856 
L 1013 4856 
Q 1481 4119 1714 3412 
Q 1947 2706 1947 2009 
Q 1947 1309 1714 600 
Q 1481 -109 1013 -844 
L 513 -844 
Q 928 -128 1133 580 
Q 1338 1288 1338 2009 
Q 1338 2731 1133 3434 
Q 928 4138 513 4856 
z
" transform="scale(0.015625)"/>
      </defs>
      <use xlink:href="#DejaVuSans-41"/>
      <use xlink:href="#DejaVuSans-67" x="68.408203"/>
      <use xlink:href="#DejaVuSans-65" x="131.884766"/>
      <use xlink:href="#DejaVuSans-20" x="193.408203"/>
      <use xlink:href="#DejaVuSans-28" x="225.195312"/>
      <use xlink:href="#DejaVuSans-79" x="264.208984"/>
      <use xlink:href="#DejaVuSans-72" x="323.388672"/>
      <use xlink:href="#DejaVuSans-73" x="364.501953"/>
      <use xlink:href="#DejaVuSans-29" x="416.601562"/>
     </g>
    </g>
   </g>
   <g id="matplotlib.axis_2">
    <g id="ytick_1">
     <g id="line2d_7">
      <defs>
       <path id="m2a6b9801b3" d="M 0 0 
L -3.5 0 
" style="stroke: #000000; stroke-width: 0.8"/>
      </defs>
      <g>
       <use xlink:href="#m2a6b9801b3" x="45" y="275.227826" style="stroke: #000000; stroke-width: 0.8"/>
      </g>
     </g>
     <g id="text_8">
      <!-- 0.00 -->
      <g transform="translate(15.734375 279.027045) scale(0.1 -0.1)">
       <defs>
        <path id="DejaVuSans-2e" d="M 684 794 
L 1344 794 
L 1344 0 
L 684 0 
L 684 794 
z
" transform="scale(0.015625)"/>
       </defs>
       <use xlink:href="#DejaVuSans-30"/>
       <use xlink:href="#DejaVuSans-2e" x="63.623047"/>
       <use xlink:href="#DejaVuSans-30" x="95.410156"/>
       <use xlink:href="#DejaVuSans-30" x="159.033203"/>
      </g>
     </g>
    </g>
    <g id="ytick_2">
     <g id="line2d_8">
      <g>
       <use xlink:href="#m2a6b9801b3" x="45" y="243.295944" style="stroke: #000000; stroke-width: 0.8"/>
      </g>
     </g>
     <g id="text_9">
      <!-- 0.01 -->
      <g transform="translate(15.734375 247.095163) scale(0.1 -0.1)">
       <defs>
        <path id="DejaVuSans-31" d="M 794 531 
L 1825 531 
L 1825 4091 
L 703 3866 
L 703 4441 
L 1819 4666 
L 2450 4666 
L 2450 531 
L 3481 531 
L 3481 0 
L 794 0 
L 794 531 
z
" transform="scale(0.015625)"/>
       </defs>
       <use xlink:href="#DejaVuSans-30"/>
       <use xlink:href="#DejaVuSans-2e" x="63.623047"/>
       <use xlink:href="#DejaVuSans-30" x="95.410156"/>
       <use xlink:href="#DejaVuSans-31" x="159.033203"/>
      </g>
     </g>
    </g>
    <g id="ytick_3">
     <g id="line2d_9">
      <g>
       <use xlink:href="#m2a6b9801b3" x="45" y="211.364063" style="stroke: #000000; stroke-width: 0.8"/>
      </g>
     </g>
     <g id="text_10">
      <!-- 0.02 -->
      <g transform="translate(15.734375 215.163282) scale(0.1 -0.1)">
       <defs>
        <path id="DejaVuSans-32" d="M 1228 531 
L 3431 531 
L 3431 0 
L 469 0 
L 469 531 
Q 828 903 1448 1529 
Q 2069 2156 2228 2338 
Q 2531 2678 2651 2914 
Q 2772 3150 2772 3378 
Q 2772 3750 2511 3984 
Q 2250 4219 1831 4219 
Q 1534 4219 1204 4116 
Q 875 4013 500 3803 
L 500 4441 
Q 881 4594 1212 4672 
Q 1544 4750 1819 4750 
Q 2544 4750 2975 4387 
Q 3406 4025 3406 3419 
Q 3406 3131 3298 2873 
Q 3191 2616 2906 2266 
Q 2828 2175 2409 1742 
Q 1991 1309 1228 531 
z
" transform="scale(0.015625)"/>
       </defs>
       <use xlink:href="#DejaVuSans-30"/>
       <use xlink:href="#DejaVuSans-2e" x="63.623047"/>
       <use xlink:href="#DejaVuSans-30" x="95.410156"/>
       <use xlink:href="#DejaVuSans-32" x="159.033203"/>
      </g>
     </g>
    </g>
    <g id="ytick_4">
     <g id="line2d_10">
      <g>
       <use xlink:href="#m2a6b9801b3" x="45" y="179.432181" style="stroke: #000000; stroke-width: 0.8"/>
      </g>
     </g>
     <g id="text_11">
      <!-- 0.03 -->
      <g transform="translate(15.734375 183.2314) scale(0.1 -0.1)">
       <defs>
        <path id="DejaVuSans-33" d="M 2597 2516 
Q 3050 2419 3304 2112 
Q 3559 1806 3559 1356 
Q 3559 666 3084 287 
Q 2609 -91 1734 -91 
Q 1441 -91 1130 -33 
Q 819 25 488 141 
L 488 750 
Q 750 597 1062 519 
Q 1375 441 1716 441 
Q 2309 441 2620 675 
Q 2931 909 2931 1356 
Q 2931 1769 2642 2001 
Q 2353 2234 1838 2234 
L 1294 2234 
L 1294 2753 
L 1863 2753 
Q 2328 2753 2575 2939 
Q 2822 3125 2822 3475 
Q 2822 3834 2567 4026 
Q 2313 4219 1838 4219 
Q 1578 4219 1281 4162 
Q 984 4106 628 3988 
L 628 4550 
Q 988 4650 1302 4700 
Q 1616 4750 1894 4750 
Q 2613 4750 3031 4423 
Q 3450 4097 3450 3541 
Q 3450 3153 3228 2886 
Q 3006 2619 2597 2516 
z
" transform="scale(0.015625)"/>
       </defs>
       <use xlink:href="#DejaVuSans-30"/>
       <use xlink:href="#DejaVuSans-2e" x="63.623047"/>
       <use xlink:href="#DejaVuSans-30" x="95.410156"/>
       <use xlink:href="#DejaVuSans-33" x="159.033203"/>
      </g>
     </g>
    </g>
    <g id="ytick_5">
     <g id="line2d_11">
      <g>
       <use xlink:href="#m2a6b9801b3" x="45" y="147.5003" style="stroke: #000000; stroke-width: 0.8"/>
      </g>
     </g>
     <g id="text_12">
      <!-- 0.04 -->
      <g transform="translate(15.734375 151.299518) scale(0.1 -0.1)">
       <defs>
        <path id="DejaVuSans-34" d="M 2419 4116 
L 825 1625 
L 2419 1625 
L 2419 4116 
z
M 2253 4666 
L 3047 4666 
L 3047 1625 
L 3713 1625 
L 3713 1100 
L 3047 1100 
L 3047 0 
L 2419 0 
L 2419 1100 
L 313 1100 
L 313 1709 
L 2253 4666 
z
" transform="scale(0.015625)"/>
       </defs>
       <use xlink:href="#DejaVuSans-30"/>
       <use xlink:href="#DejaVuSans-2e" x="63.623047"/>
       <use xlink:href="#DejaVuSans-30" x="95.410156"/>
       <use xlink:href="#DejaVuSans-34" x="159.033203"/>
      </g>
     </g>
    </g>
    <g id="ytick_6">
     <g id="line2d_12">
      <g>
       <use xlink:href="#m2a6b9801b3" x="45" y="115.568418" style="stroke: #000000; stroke-width: 0.8"/>
      </g>
     </g>
     <g id="text_13">
      <!-- 0.05 -->
      <g transform="translate(15.734375 119.367637) scale(0.1 -0.1)">
       <use xlink:href="#DejaVuSans-30"/>
       <use xlink:href="#DejaVuSans-2e" x="63.623047"/>
       <use xlink:href="#DejaVuSans-30" x="95.410156"/>
       <use xlink:href="#DejaVuSans-35" x="159.033203"/>
      </g>
     </g>
    </g>
    <g id="ytick_7">
     <g id="line2d_13">
      <g>
       <use xlink:href="#m2a6b9801b3" x="45" y="83.636536" style="stroke: #000000; stroke-width: 0.8"/>
      </g>
     </g>
     <g id="text_14">
      <!-- 0.06 -->
      <g transform="translate(15.734375 87.435755) scale(0.1 -0.1)">
       <use xlink:href="#DejaVuSans-30"/>
       <use xlink:href="#DejaVuSans-2e" x="63.623047"/>
       <use xlink:href="#DejaVuSans-30" x="95.410156"/>
       <use xlink:href="#DejaVuSans-36" x="159.033203"/>
      </g>
     </g>
    </g>
    <g id="text_15">
     <!-- VAF -->
     <g transform="translate(9.654687 182.364613) rotate(-90) scale(0.1 -0.1)">
      <defs>
       <path id="DejaVuSans-56" d="M 1831 0 
L 50 4666 
L 709 4666 
L 2188 738 
L 3669 4666 
L 4325 4666 
L 2547 0 
L 1831 0 
z
" transform="scale(0.015625)"/>
       <path id="DejaVuSans-46" d="M 628 4666 
L 3309 4666 
L 3309 4134 
L 1259 4134 
L 1259 2759 
L 3109 2759 
L 3109 2228 
L 1259 2228 
L 1259 0 
L 628 0 
L 628 4666 
z
" transform="scale(0.015625)"/>
      </defs>
      <use xlink:href="#DejaVuSans-56"/>
      <use xlink:href="#DejaVuSans-41" x="62.033203"/>
      <use xlink:href="#DejaVuSans-46" x="130.441406"/>
     </g>
    </g>
   </g>
   <g id="line2d_14">
    <path d="M 57.681818 260.289082 
L 62.858071 260.086747 
L 68.034323 259.881855 
L 73.210575 259.674382 
L 78.386827 259.464306 
L 83.56308 259.251608 
L 88.739332 259.036267 
L 93.915584 258.818267 
L 99.091837 258.597593 
L 104.268089 258.374231 
L 109.444341 258.148174 
L 114.620594 257.919414 
L 119.796846 257.68795 
L 124.973098 257.453787 
L 130.149351 257.216934 
L 135.325603 256.97741 
L 140.501855 256.735241 
L 145.678108 256.490463 
L 150.85436 256.243128 
L 156.030612 255.993299 
L 161.206865 255.741059 
L 166.383117 255.486511 
L 171.559369 255.229784 
L 176.735622 254.971033 
L 181.911874 254.710452 
L 187.088126 254.448273 
L 192.264378 254.184775 
L 197.440631 253.920298 
L 202.616883 253.655244 
L 207.793135 253.390097 
L 212.969388 253.125429 
L 218.14564 252.861922 
L 223.321892 252.600383 
L 228.498145 252.341764 
L 233.674397 252.087185 
L 238.850649 251.837963 
L 244.026902 251.59564 
L 249.203154 251.362013 
L 254.379406 251.139172 
L 259.555659 250.929536 
L 264.731911 250.735889 
L 269.908163 250.561424 
L 275.084416 250.409771 
L 280.260668 250.28503 
L 285.43692 250.19179 
L 290.613173 250.13513 
L 295.789425 250.120605 
L 300.965677 250.154194 
L 306.141929 250.242211 
L 311.318182 250.391173 
" clip-path="url(#pfbf698000a)" style="fill: none; stroke-dasharray: 5.55,2.4; stroke-dashoffset: 0; stroke: #1f77b4; stroke-width: 1.5"/>
   </g>
   <g id="line2d_15">
    <path d="M 57.681818 275.123087 
L 62.858071 275.105195 
L 68.034323 275.084248 
L 73.210575 275.059725 
L 78.386827 275.031016 
L 83.56308 274.997408 
L 88.739332 274.958063 
L 93.915584 274.912006 
L 99.091837 274.85809 
L 104.268089 274.794978 
L 109.444341 274.721101 
L 114.620594 274.634627 
L 119.796846 274.533409 
L 124.973098 274.41494 
L 130.149351 274.276282 
L 135.325603 274.114002 
L 140.501855 273.924084 
L 145.678108 273.701833 
L 150.85436 273.441759 
L 156.030612 273.137444 
L 161.206865 272.781389 
L 166.383117 272.364832 
L 171.559369 271.87754 
L 176.735622 271.307563 
L 181.911874 270.640957 
L 187.088126 269.861453 
L 192.264378 268.950085 
L 197.440631 267.884753 
L 202.616883 266.639728 
L 207.793135 265.185082 
L 212.969388 263.486034 
L 218.14564 261.50222 
L 223.321892 259.186856 
L 228.498145 256.48581 
L 233.674397 253.33657 
L 238.850649 249.667109 
L 244.026902 245.394661 
L 249.203154 240.42442 
L 254.379406 234.648192 
L 259.555659 227.943045 
L 264.731911 220.170025 
L 269.908163 211.173036 
L 275.084416 200.778011 
L 280.260668 188.792537 
L 285.43692 175.006163 
L 290.613173 159.191644 
L 295.789425 141.107432 
L 300.965677 120.501753 
L 306.141929 97.118618 
L 311.318182 70.706087 
" clip-path="url(#pfbf698000a)" style="fill: none; stroke-dasharray: 5.55,2.4; stroke-dashoffset: 0; stroke: #ff7f0e; stroke-width: 1.5"/>
   </g>
   <g id="line2d_16">
    <path d="M 57.681818 193.098482 
L 62.858071 191.986102 
L 68.034323 190.859657 
L 73.210575 189.719023 
L 78.386827 188.564082 
L 83.56308 187.39472 
L 88.739332 186.210833 
L 93.915584 185.012325 
L 99.091837 183.799115 
L 104.268089 182.571132 
L 109.444341 181.328325 
L 114.620594 180.070662 
L 119.796846 178.798135 
L 124.973098 177.510767 
L 130.149351 176.208612 
L 135.325603 174.89177 
L 140.501855 173.560385 
L 145.678108 172.214664 
L 150.85436 170.854878 
L 156.030612 169.481384 
L 161.206865 168.094634 
L 166.383117 166.695197 
L 171.559369 165.283774 
L 176.735622 163.861232 
L 181.911874 162.428623 
L 187.088126 160.987228 
L 192.264378 159.53859 
L 197.440631 158.084562 
L 202.616883 156.627366 
L 207.793135 155.169653 
L 212.969388 153.714578 
L 218.14564 152.265887 
L 223.321892 150.828012 
L 228.498145 149.406189 
L 233.674397 148.006581 
L 238.850649 146.636426 
L 244.026902 145.304195 
L 249.203154 144.019775 
L 254.379406 142.794652 
L 259.555659 141.642125 
L 264.731911 140.577509 
L 269.908163 139.618346 
L 275.084416 138.784597 
L 280.260668 138.098803 
L 285.43692 137.58619 
L 290.613173 137.27469 
L 295.789425 137.194837 
L 300.965677 137.379498 
L 306.141929 137.863393 
L 311.318182 138.682346 
" clip-path="url(#pfbf698000a)" style="fill: none; stroke-dasharray: 5.55,2.4; stroke-dashoffset: 0; stroke: #2ca02c; stroke-width: 1.5"/>
   </g>
   <g id="patch_3">
    <path d="M 45 285.453913 
L 45 60.48 
" style="fill: none; stroke: #000000; stroke-width: 0.8; stroke-linejoin: miter; stroke-linecap: square"/>
   </g>
   <g id="patch_4">
    <path d="M 45 285.453913 
L 324 285.453913 
" style="fill: none; stroke: #000000; stroke-width: 0.8; stroke-linejoin: miter; stroke-linecap: square"/>
   </g>
   <g id="text_16">
    <g id="patch_5">
     <path d="M 88.22404 261.289082 
L 136.325603 261.289082 
L 136.325603 249.610957 
L 88.22404 249.610957 
z
" style="fill: #1f77b4; opacity: 0.2"/>
    </g>
    <!-- ATMA: 0 -->
    <g style="fill: #1f77b4" transform="translate(89.22404 258.209394) scale(0.1 -0.1)">
     <defs>
      <path id="DejaVuSans-Bold-41" d="M 3419 850 
L 1538 850 
L 1241 0 
L 31 0 
L 1759 4666 
L 3194 4666 
L 4922 0 
L 3713 0 
L 3419 850 
z
M 1838 1716 
L 3116 1716 
L 2478 3572 
L 1838 1716 
z
" transform="scale(0.015625)"/>
      <path id="DejaVuSans-Bold-54" d="M 31 4666 
L 4331 4666 
L 4331 3756 
L 2784 3756 
L 2784 0 
L 1581 0 
L 1581 3756 
L 31 3756 
L 31 4666 
z
" transform="scale(0.015625)"/>
      <path id="DejaVuSans-Bold-4d" d="M 588 4666 
L 2119 4666 
L 3181 2169 
L 4250 4666 
L 5778 4666 
L 5778 0 
L 4641 0 
L 4641 3413 
L 3566 897 
L 2803 897 
L 1728 3413 
L 1728 0 
L 588 0 
L 588 4666 
z
" transform="scale(0.015625)"/>
      <path id="DejaVuSans-Bold-3a" d="M 716 3500 
L 1844 3500 
L 1844 2291 
L 716 2291 
L 716 3500 
z
M 716 1209 
L 1844 1209 
L 1844 0 
L 716 0 
L 716 1209 
z
" transform="scale(0.015625)"/>
      <path id="DejaVuSans-Bold-20" transform="scale(0.015625)"/>
      <path id="DejaVuSans-Bold-30" d="M 2944 2338 
Q 2944 3213 2780 3570 
Q 2616 3928 2228 3928 
Q 1841 3928 1675 3570 
Q 1509 3213 1509 2338 
Q 1509 1453 1675 1090 
Q 1841 728 2228 728 
Q 2613 728 2778 1090 
Q 2944 1453 2944 2338 
z
M 4147 2328 
Q 4147 1169 3647 539 
Q 3147 -91 2228 -91 
Q 1306 -91 806 539 
Q 306 1169 306 2328 
Q 306 3491 806 4120 
Q 1306 4750 2228 4750 
Q 3147 4750 3647 4120 
Q 4147 3491 4147 2328 
z
" transform="scale(0.015625)"/>
     </defs>
     <use xlink:href="#DejaVuSans-Bold-41"/>
     <use xlink:href="#DejaVuSans-Bold-54" x="69.642578"/>
     <use xlink:href="#DejaVuSans-Bold-4d" x="137.855469"/>
     <use xlink:href="#DejaVuSans-Bold-41" x="237.367188"/>
     <use xlink:href="#DejaVuSans-Bold-3a" x="316.634766"/>
     <use xlink:href="#DejaVuSans-Bold-20" x="356.625"/>
     <use xlink:href="#DejaVuSans-Bold-30" x="391.439453"/>
    </g>
   </g>
   <g id="text_17">
    <g id="patch_6">
     <path d="M 81.266228 276.123087 
L 136.325603 276.123087 
L 136.325603 264.444962 
L 81.266228 264.444962 
z
" style="fill: #ff7f0e; opacity: 0.2"/>
    </g>
    <!-- ATMA: 52 -->
    <g style="fill: #ff7f0e" transform="translate(82.266228 273.0434) scale(0.1 -0.1)">
     <defs>
      <path id="DejaVuSans-Bold-35" d="M 678 4666 
L 3669 4666 
L 3669 3781 
L 1638 3781 
L 1638 3059 
Q 1775 3097 1914 3117 
Q 2053 3138 2203 3138 
Q 3056 3138 3531 2711 
Q 4006 2284 4006 1522 
Q 4006 766 3489 337 
Q 2972 -91 2053 -91 
Q 1656 -91 1267 -14 
Q 878 63 494 219 
L 494 1166 
Q 875 947 1217 837 
Q 1559 728 1863 728 
Q 2300 728 2551 942 
Q 2803 1156 2803 1522 
Q 2803 1891 2551 2103 
Q 2300 2316 1863 2316 
Q 1603 2316 1309 2248 
Q 1016 2181 678 2041 
L 678 4666 
z
" transform="scale(0.015625)"/>
      <path id="DejaVuSans-Bold-32" d="M 1844 884 
L 3897 884 
L 3897 0 
L 506 0 
L 506 884 
L 2209 2388 
Q 2438 2594 2547 2791 
Q 2656 2988 2656 3200 
Q 2656 3528 2436 3728 
Q 2216 3928 1850 3928 
Q 1569 3928 1234 3808 
Q 900 3688 519 3450 
L 519 4475 
Q 925 4609 1322 4679 
Q 1719 4750 2100 4750 
Q 2938 4750 3402 4381 
Q 3866 4013 3866 3353 
Q 3866 2972 3669 2642 
Q 3472 2313 2841 1759 
L 1844 884 
z
" transform="scale(0.015625)"/>
     </defs>
     <use xlink:href="#DejaVuSans-Bold-41"/>
     <use xlink:href="#DejaVuSans-Bold-54" x="69.642578"/>
     <use xlink:href="#DejaVuSans-Bold-4d" x="137.855469"/>
     <use xlink:href="#DejaVuSans-Bold-41" x="237.367188"/>
     <use xlink:href="#DejaVuSans-Bold-3a" x="316.634766"/>
     <use xlink:href="#DejaVuSans-Bold-20" x="356.625"/>
     <use xlink:href="#DejaVuSans-Bold-35" x="391.439453"/>
     <use xlink:href="#DejaVuSans-Bold-32" x="461.019531"/>
    </g>
   </g>
   <g id="text_18">
    <g id="patch_7">
     <path d="M 88.22404 194.098482 
L 136.325603 194.098482 
L 136.325603 182.420357 
L 88.22404 182.420357 
z
" style="fill: #2ca02c; opacity: 0.2"/>
    </g>
    <!-- ATMA: 0 -->
    <g style="fill: #2ca02c" transform="translate(89.22404 191.018795) scale(0.1 -0.1)">
     <use xlink:href="#DejaVuSans-Bold-41"/>
     <use xlink:href="#DejaVuSans-Bold-54" x="69.642578"/>
     <use xlink:href="#DejaVuSans-Bold-4d" x="137.855469"/>
     <use xlink:href="#DejaVuSans-Bold-41" x="237.367188"/>
     <use xlink:href="#DejaVuSans-Bold-3a" x="316.634766"/>
     <use xlink:href="#DejaVuSans-Bold-20" x="356.625"/>
     <use xlink:href="#DejaVuSans-Bold-30" x="391.439453"/>
    </g>
   </g>
   <g id="text_19">
    <!-- Clonal dynamics inference -->
    <g transform="translate(105.14625 54.48) scale(0.12 -0.12)">
     <defs>
      <path id="DejaVuSans-43" d="M 4122 4306 
L 4122 3641 
Q 3803 3938 3442 4084 
Q 3081 4231 2675 4231 
Q 1875 4231 1450 3742 
Q 1025 3253 1025 2328 
Q 1025 1406 1450 917 
Q 1875 428 2675 428 
Q 3081 428 3442 575 
Q 3803 722 4122 1019 
L 4122 359 
Q 3791 134 3420 21 
Q 3050 -91 2638 -91 
Q 1578 -91 968 557 
Q 359 1206 359 2328 
Q 359 3453 968 4101 
Q 1578 4750 2638 4750 
Q 3056 4750 3426 4639 
Q 3797 4528 4122 4306 
z
" transform="scale(0.015625)"/>
      <path id="DejaVuSans-6c" d="M 603 4863 
L 1178 4863 
L 1178 0 
L 603 0 
L 603 4863 
z
" transform="scale(0.015625)"/>
      <path id="DejaVuSans-6f" d="M 1959 3097 
Q 1497 3097 1228 2736 
Q 959 2375 959 1747 
Q 959 1119 1226 758 
Q 1494 397 1959 397 
Q 2419 397 2687 759 
Q 2956 1122 2956 1747 
Q 2956 2369 2687 2733 
Q 2419 3097 1959 3097 
z
M 1959 3584 
Q 2709 3584 3137 3096 
Q 3566 2609 3566 1747 
Q 3566 888 3137 398 
Q 2709 -91 1959 -91 
Q 1206 -91 779 398 
Q 353 888 353 1747 
Q 353 2609 779 3096 
Q 1206 3584 1959 3584 
z
" transform="scale(0.015625)"/>
      <path id="DejaVuSans-6e" d="M 3513 2113 
L 3513 0 
L 2938 0 
L 2938 2094 
Q 2938 2591 2744 2837 
Q 2550 3084 2163 3084 
Q 1697 3084 1428 2787 
Q 1159 2491 1159 1978 
L 1159 0 
L 581 0 
L 581 3500 
L 1159 3500 
L 1159 2956 
Q 1366 3272 1645 3428 
Q 1925 3584 2291 3584 
Q 2894 3584 3203 3211 
Q 3513 2838 3513 2113 
z
" transform="scale(0.015625)"/>
      <path id="DejaVuSans-61" d="M 2194 1759 
Q 1497 1759 1228 1600 
Q 959 1441 959 1056 
Q 959 750 1161 570 
Q 1363 391 1709 391 
Q 2188 391 2477 730 
Q 2766 1069 2766 1631 
L 2766 1759 
L 2194 1759 
z
M 3341 1997 
L 3341 0 
L 2766 0 
L 2766 531 
Q 2569 213 2275 61 
Q 1981 -91 1556 -91 
Q 1019 -91 701 211 
Q 384 513 384 1019 
Q 384 1609 779 1909 
Q 1175 2209 1959 2209 
L 2766 2209 
L 2766 2266 
Q 2766 2663 2505 2880 
Q 2244 3097 1772 3097 
Q 1472 3097 1187 3025 
Q 903 2953 641 2809 
L 641 3341 
Q 956 3463 1253 3523 
Q 1550 3584 1831 3584 
Q 2591 3584 2966 3190 
Q 3341 2797 3341 1997 
z
" transform="scale(0.015625)"/>
      <path id="DejaVuSans-64" d="M 2906 2969 
L 2906 4863 
L 3481 4863 
L 3481 0 
L 2906 0 
L 2906 525 
Q 2725 213 2448 61 
Q 2172 -91 1784 -91 
Q 1150 -91 751 415 
Q 353 922 353 1747 
Q 353 2572 751 3078 
Q 1150 3584 1784 3584 
Q 2172 3584 2448 3432 
Q 2725 3281 2906 2969 
z
M 947 1747 
Q 947 1113 1208 752 
Q 1469 391 1925 391 
Q 2381 391 2643 752 
Q 2906 1113 2906 1747 
Q 2906 2381 2643 2742 
Q 2381 3103 1925 3103 
Q 1469 3103 1208 2742 
Q 947 2381 947 1747 
z
" transform="scale(0.015625)"/>
      <path id="DejaVuSans-6d" d="M 3328 2828 
Q 3544 3216 3844 3400 
Q 4144 3584 4550 3584 
Q 5097 3584 5394 3201 
Q 5691 2819 5691 2113 
L 5691 0 
L 5113 0 
L 5113 2094 
Q 5113 2597 4934 2840 
Q 4756 3084 4391 3084 
Q 3944 3084 3684 2787 
Q 3425 2491 3425 1978 
L 3425 0 
L 2847 0 
L 2847 2094 
Q 2847 2600 2669 2842 
Q 2491 3084 2119 3084 
Q 1678 3084 1418 2786 
Q 1159 2488 1159 1978 
L 1159 0 
L 581 0 
L 581 3500 
L 1159 3500 
L 1159 2956 
Q 1356 3278 1631 3431 
Q 1906 3584 2284 3584 
Q 2666 3584 2933 3390 
Q 3200 3197 3328 2828 
z
" transform="scale(0.015625)"/>
      <path id="DejaVuSans-69" d="M 603 3500 
L 1178 3500 
L 1178 0 
L 603 0 
L 603 3500 
z
M 603 4863 
L 1178 4863 
L 1178 4134 
L 603 4134 
L 603 4863 
z
" transform="scale(0.015625)"/>
      <path id="DejaVuSans-63" d="M 3122 3366 
L 3122 2828 
Q 2878 2963 2633 3030 
Q 2388 3097 2138 3097 
Q 1578 3097 1268 2742 
Q 959 2388 959 1747 
Q 959 1106 1268 751 
Q 1578 397 2138 397 
Q 2388 397 2633 464 
Q 2878 531 3122 666 
L 3122 134 
Q 2881 22 2623 -34 
Q 2366 -91 2075 -91 
Q 1284 -91 818 406 
Q 353 903 353 1747 
Q 353 2603 823 3093 
Q 1294 3584 2113 3584 
Q 2378 3584 2631 3529 
Q 2884 3475 3122 3366 
z
" transform="scale(0.015625)"/>
      <path id="DejaVuSans-66" d="M 2375 4863 
L 2375 4384 
L 1825 4384 
Q 1516 4384 1395 4259 
Q 1275 4134 1275 3809 
L 1275 3500 
L 2222 3500 
L 2222 3053 
L 1275 3053 
L 1275 0 
L 697 0 
L 697 3053 
L 147 3053 
L 147 3500 
L 697 3500 
L 697 3744 
Q 697 4328 969 4595 
Q 1241 4863 1831 4863 
L 2375 4863 
z
" transform="scale(0.015625)"/>
     </defs>
     <use xlink:href="#DejaVuSans-43"/>
     <use xlink:href="#DejaVuSans-6c" x="69.824219"/>
     <use xlink:href="#DejaVuSans-6f" x="97.607422"/>
     <use xlink:href="#DejaVuSans-6e" x="158.789062"/>
     <use xlink:href="#DejaVuSans-61" x="222.167969"/>
     <use xlink:href="#DejaVuSans-6c" x="283.447266"/>
     <use xlink:href="#DejaVuSans-20" x="311.230469"/>
     <use xlink:href="#DejaVuSans-64" x="343.017578"/>
     <use xlink:href="#DejaVuSans-79" x="406.494141"/>
     <use xlink:href="#DejaVuSans-6e" x="465.673828"/>
     <use xlink:href="#DejaVuSans-61" x="529.052734"/>
     <use xlink:href="#DejaVuSans-6d" x="590.332031"/>
     <use xlink:href="#DejaVuSans-69" x="687.744141"/>
     <use xlink:href="#DejaVuSans-63" x="715.527344"/>
     <use xlink:href="#DejaVuSans-73" x="770.507812"/>
     <use xlink:href="#DejaVuSans-20" x="822.607422"/>
     <use xlink:href="#DejaVuSans-69" x="854.394531"/>
     <use xlink:href="#DejaVuSans-6e" x="882.177734"/>
     <use xlink:href="#DejaVuSans-66" x="945.556641"/>
     <use xlink:href="#DejaVuSans-65" x="980.761719"/>
     <use xlink:href="#DejaVuSans-72" x="1042.285156"/>
     <use xlink:href="#DejaVuSans-65" x="1081.148438"/>
     <use xlink:href="#DejaVuSans-6e" x="1142.671875"/>
     <use xlink:href="#DejaVuSans-63" x="1206.050781"/>
     <use xlink:href="#DejaVuSans-65" x="1261.03125"/>
    </g>
   </g>
   <g id="legend_1">
    <g id="patch_8">
     <path d="M 52 112.514375 
L 174.779688 112.514375 
Q 176.779688 112.514375 176.779688 110.514375 
L 176.779688 67.48 
Q 176.779688 65.48 174.779688 65.48 
L 52 65.48 
Q 50 65.48 50 67.48 
L 50 110.514375 
Q 50 112.514375 52 112.514375 
z
" style="fill: #ffffff; opacity: 0.8; stroke: #cccccc; stroke-linejoin: miter"/>
    </g>
    <g id="PathCollection_4">
     <g>
      <use xlink:href="#mf55f6e122e" x="64" y="74.453438" style="fill: #1f77b4; stroke: #ffffff; stroke-width: 0.48"/>
     </g>
    </g>
    <g id="text_20">
     <!-- DNMT3A p.G289V -->
     <g transform="translate(82 77.078438) scale(0.1 -0.1)">
      <defs>
       <path id="DejaVuSans-44" d="M 1259 4147 
L 1259 519 
L 2022 519 
Q 2988 519 3436 956 
Q 3884 1394 3884 2338 
Q 3884 3275 3436 3711 
Q 2988 4147 2022 4147 
L 1259 4147 
z
M 628 4666 
L 1925 4666 
Q 3281 4666 3915 4102 
Q 4550 3538 4550 2338 
Q 4550 1131 3912 565 
Q 3275 0 1925 0 
L 628 0 
L 628 4666 
z
" transform="scale(0.015625)"/>
       <path id="DejaVuSans-4e" d="M 628 4666 
L 1478 4666 
L 3547 763 
L 3547 4666 
L 4159 4666 
L 4159 0 
L 3309 0 
L 1241 3903 
L 1241 0 
L 628 0 
L 628 4666 
z
" transform="scale(0.015625)"/>
       <path id="DejaVuSans-4d" d="M 628 4666 
L 1569 4666 
L 2759 1491 
L 3956 4666 
L 4897 4666 
L 4897 0 
L 4281 0 
L 4281 4097 
L 3078 897 
L 2444 897 
L 1241 4097 
L 1241 0 
L 628 0 
L 628 4666 
z
" transform="scale(0.015625)"/>
       <path id="DejaVuSans-54" d="M -19 4666 
L 3928 4666 
L 3928 4134 
L 2272 4134 
L 2272 0 
L 1638 0 
L 1638 4134 
L -19 4134 
L -19 4666 
z
" transform="scale(0.015625)"/>
       <path id="DejaVuSans-70" d="M 1159 525 
L 1159 -1331 
L 581 -1331 
L 581 3500 
L 1159 3500 
L 1159 2969 
Q 1341 3281 1617 3432 
Q 1894 3584 2278 3584 
Q 2916 3584 3314 3078 
Q 3713 2572 3713 1747 
Q 3713 922 3314 415 
Q 2916 -91 2278 -91 
Q 1894 -91 1617 61 
Q 1341 213 1159 525 
z
M 3116 1747 
Q 3116 2381 2855 2742 
Q 2594 3103 2138 3103 
Q 1681 3103 1420 2742 
Q 1159 2381 1159 1747 
Q 1159 1113 1420 752 
Q 1681 391 2138 391 
Q 2594 391 2855 752 
Q 3116 1113 3116 1747 
z
" transform="scale(0.015625)"/>
       <path id="DejaVuSans-47" d="M 3809 666 
L 3809 1919 
L 2778 1919 
L 2778 2438 
L 4434 2438 
L 4434 434 
Q 4069 175 3628 42 
Q 3188 -91 2688 -91 
Q 1594 -91 976 548 
Q 359 1188 359 2328 
Q 359 3472 976 4111 
Q 1594 4750 2688 4750 
Q 3144 4750 3555 4637 
Q 3966 4525 4313 4306 
L 4313 3634 
Q 3963 3931 3569 4081 
Q 3175 4231 2741 4231 
Q 1884 4231 1454 3753 
Q 1025 3275 1025 2328 
Q 1025 1384 1454 906 
Q 1884 428 2741 428 
Q 3075 428 3337 486 
Q 3600 544 3809 666 
z
" transform="scale(0.015625)"/>
       <path id="DejaVuSans-39" d="M 703 97 
L 703 672 
Q 941 559 1184 500 
Q 1428 441 1663 441 
Q 2288 441 2617 861 
Q 2947 1281 2994 2138 
Q 2813 1869 2534 1725 
Q 2256 1581 1919 1581 
Q 1219 1581 811 2004 
Q 403 2428 403 3163 
Q 403 3881 828 4315 
Q 1253 4750 1959 4750 
Q 2769 4750 3195 4129 
Q 3622 3509 3622 2328 
Q 3622 1225 3098 567 
Q 2575 -91 1691 -91 
Q 1453 -91 1209 -44 
Q 966 3 703 97 
z
M 1959 2075 
Q 2384 2075 2632 2365 
Q 2881 2656 2881 3163 
Q 2881 3666 2632 3958 
Q 2384 4250 1959 4250 
Q 1534 4250 1286 3958 
Q 1038 3666 1038 3163 
Q 1038 2656 1286 2365 
Q 1534 2075 1959 2075 
z
" transform="scale(0.015625)"/>
      </defs>
      <use xlink:href="#DejaVuSans-44"/>
      <use xlink:href="#DejaVuSans-4e" x="77.001953"/>
      <use xlink:href="#DejaVuSans-4d" x="151.806641"/>
      <use xlink:href="#DejaVuSans-54" x="238.085938"/>
      <use xlink:href="#DejaVuSans-33" x="299.169922"/>
      <use xlink:href="#DejaVuSans-41" x="362.792969"/>
      <use xlink:href="#DejaVuSans-20" x="431.201172"/>
      <use xlink:href="#DejaVuSans-70" x="462.988281"/>
      <use xlink:href="#DejaVuSans-2e" x="526.464844"/>
      <use xlink:href="#DejaVuSans-47" x="558.251953"/>
      <use xlink:href="#DejaVuSans-32" x="635.742188"/>
      <use xlink:href="#DejaVuSans-38" x="699.365234"/>
      <use xlink:href="#DejaVuSans-39" x="762.988281"/>
      <use xlink:href="#DejaVuSans-56" x="826.611328"/>
     </g>
    </g>
    <g id="PathCollection_5">
     <g>
      <use xlink:href="#m19e75653a4" x="64" y="89.131563" style="fill: #ff7f0e; stroke: #ffffff; stroke-width: 0.48"/>
     </g>
    </g>
    <g id="text_21">
     <!-- TET2 p.H864Afs*8 -->
     <g transform="translate(82 91.756563) scale(0.1 -0.1)">
      <defs>
       <path id="DejaVuSans-45" d="M 628 4666 
L 3578 4666 
L 3578 4134 
L 1259 4134 
L 1259 2753 
L 3481 2753 
L 3481 2222 
L 1259 2222 
L 1259 531 
L 3634 531 
L 3634 0 
L 628 0 
L 628 4666 
z
" transform="scale(0.015625)"/>
       <path id="DejaVuSans-48" d="M 628 4666 
L 1259 4666 
L 1259 2753 
L 3553 2753 
L 3553 4666 
L 4184 4666 
L 4184 0 
L 3553 0 
L 3553 2222 
L 1259 2222 
L 1259 0 
L 628 0 
L 628 4666 
z
" transform="scale(0.015625)"/>
       <path id="DejaVuSans-2a" d="M 3009 3897 
L 1888 3291 
L 3009 2681 
L 2828 2375 
L 1778 3009 
L 1778 1831 
L 1422 1831 
L 1422 3009 
L 372 2375 
L 191 2681 
L 1313 3291 
L 191 3897 
L 372 4206 
L 1422 3572 
L 1422 4750 
L 1778 4750 
L 1778 3572 
L 2828 4206 
L 3009 3897 
z
" transform="scale(0.015625)"/>
      </defs>
      <use xlink:href="#DejaVuSans-54"/>
      <use xlink:href="#DejaVuSans-45" x="61.083984"/>
      <use xlink:href="#DejaVuSans-54" x="124.267578"/>
      <use xlink:href="#DejaVuSans-32" x="185.351562"/>
      <use xlink:href="#DejaVuSans-20" x="248.974609"/>
      <use xlink:href="#DejaVuSans-70" x="280.761719"/>
      <use xlink:href="#DejaVuSans-2e" x="344.238281"/>
      <use xlink:href="#DejaVuSans-48" x="376.025391"/>
      <use xlink:href="#DejaVuSans-38" x="451.220703"/>
      <use xlink:href="#DejaVuSans-36" x="514.84375"/>
      <use xlink:href="#DejaVuSans-34" x="578.466797"/>
      <use xlink:href="#DejaVuSans-41" x="642.089844"/>
      <use xlink:href="#DejaVuSans-66" x="706.873047"/>
      <use xlink:href="#DejaVuSans-73" x="742.078125"/>
      <use xlink:href="#DejaVuSans-2a" x="794.177734"/>
      <use xlink:href="#DejaVuSans-38" x="844.177734"/>
     </g>
    </g>
    <g id="PathCollection_6">
     <g>
      <use xlink:href="#m29362eb728" x="64" y="103.809687" style="fill: #2ca02c; stroke: #ffffff; stroke-width: 0.48"/>
     </g>
    </g>
    <g id="text_22">
     <!-- TET2 p.I1873T -->
     <g transform="translate(82 106.434687) scale(0.1 -0.1)">
      <defs>
       <path id="DejaVuSans-49" d="M 628 4666 
L 1259 4666 
L 1259 0 
L 628 0 
L 628 4666 
z
" transform="scale(0.015625)"/>
      </defs>
      <use xlink:href="#DejaVuSans-54"/>
      <use xlink:href="#DejaVuSans-45" x="61.083984"/>
      <use xlink:href="#DejaVuSans-54" x="124.267578"/>
      <use xlink:href="#DejaVuSans-32" x="185.351562"/>
      <use xlink:href="#DejaVuSans-20" x="248.974609"/>
      <use xlink:href="#DejaVuSans-70" x="280.761719"/>
      <use xlink:href="#DejaVuSans-2e" x="344.238281"/>
      <use xlink:href="#DejaVuSans-49" x="376.025391"/>
      <use xlink:href="#DejaVuSans-31" x="405.517578"/>
      <use xlink:href="#DejaVuSans-38" x="469.140625"/>
      <use xlink:href="#DejaVuSans-37" x="532.763672"/>
      <use xlink:href="#DejaVuSans-33" x="596.386719"/>
      <use xlink:href="#DejaVuSans-54" x="660.009766"/>
     </g>
    </g>
   </g>
  </g>
  <g id="axes_2">
   <g id="patch_9">
    <path d="M 45 448.56 
L 324 448.56 
L 324 336.073043 
L 45 336.073043 
z
" style="fill: #ffffff"/>
   </g>
   <g id="PolyCollection_4"/>
   <g id="PolyCollection_5">
    <defs>
     <path id="me35032eaef" d="M 57.681818 -60.553043 
L 57.681818 -60.553043 
L 58.95 -60.553043 
L 60.218182 -60.553043 
L 61.486364 -60.553043 
L 62.754545 -60.553043 
L 64.022727 -60.553043 
L 65.290909 -60.553044 
L 66.559091 -60.553044 
L 67.827272 -60.553044 
L 69.095454 -60.553045 
L 70.363636 -60.553049 
L 71.631817 -60.553061 
L 72.899999 -60.553093 
L 74.168182 -60.553173 
L 75.436364 -60.553367 
L 76.704544 -60.553809 
L 77.972727 -60.554766 
L 79.240909 -60.556745 
L 80.509089 -60.560662 
L 81.777272 -60.568096 
L 83.045452 -60.581646 
L 84.313636 -60.605489 
L 85.581819 -60.645887 
L 86.849999 -60.712154 
L 88.118179 -60.817359 
L 89.386365 -60.979425 
L 90.654544 -61.222431 
L 91.922726 -61.576207 
L 93.190908 -62.078527 
L 94.459091 -62.773874 
L 95.727269 -63.713083 
L 96.995455 -64.952728 
L 98.263634 -66.551016 
L 99.531816 -68.56333 
L 100.800002 -71.04305 
L 102.068181 -74.035611 
L 103.336363 -77.571375 
L 104.604545 -81.663802 
L 105.872727 -86.295306 
L 107.140906 -91.451191 
L 108.409088 -97.057098 
L 109.677271 -103.061679 
L 110.945453 -109.350132 
L 112.213635 -115.794371 
L 113.481817 -122.287508 
L 114.75 -128.712159 
L 116.018178 -134.867932 
L 117.286364 -140.669048 
L 118.554543 -145.956112 
L 119.822721 -150.693398 
L 121.090907 -154.698648 
L 122.359093 -157.950102 
L 123.627272 -160.403758 
L 124.89545 -162.035827 
L 126.163629 -162.813913 
L 127.431823 -162.777732 
L 128.700001 -161.990174 
L 129.96818 -160.473152 
L 131.236358 -158.315102 
L 132.504544 -155.56954 
L 133.772723 -152.3419 
L 135.040909 -148.663585 
L 136.309095 -144.685215 
L 137.577273 -140.43988 
L 138.845452 -136.047754 
L 140.11363 -131.548638 
L 141.381816 -127.016602 
L 142.649995 -122.507588 
L 143.918181 -118.071363 
L 145.186367 -113.760919 
L 146.454545 -109.578021 
L 147.722724 -105.582352 
L 148.990902 -101.780679 
L 150.259088 -98.195268 
L 151.527275 -94.822315 
L 152.795453 -91.659663 
L 154.063632 -88.73565 
L 155.331818 -86.016596 
L 156.599996 -83.518779 
L 157.868175 -81.218368 
L 159.136361 -79.118024 
L 160.404547 -77.200214 
L 161.672725 -75.452305 
L 162.940904 -73.872556 
L 164.20909 -72.439341 
L 165.477268 -71.153332 
L 166.745447 -69.989748 
L 168.013641 -68.946738 
L 169.281819 -68.011813 
L 170.549997 -67.171549 
L 171.818176 -66.423111 
L 173.086362 -65.752663 
L 174.354541 -65.155737 
L 175.622727 -64.62206 
L 176.890905 -64.149377 
L 178.159091 -63.727766 
L 179.42727 -63.353487 
L 180.695448 -63.023464 
L 181.963634 -62.729259 
L 183.231805 -62.470775 
L 184.499999 -62.239358 
L 185.768177 -62.035621 
L 187.036356 -61.856347 
L 188.304534 -61.696918 
L 189.572728 -61.558216 
L 190.840906 -61.433547 
L 192.109085 -61.324606 
L 193.377263 -61.228776 
L 194.645442 -61.144362 
L 195.913636 -61.069214 
L 197.181814 -61.002669 
L 198.450008 -60.945116 
L 199.718186 -60.893624 
L 200.986365 -60.848338 
L 202.254543 -60.808783 
L 203.522722 -60.77405 
L 204.7909 -60.743682 
L 206.059079 -60.716957 
L 207.327272 -60.693752 
L 208.595451 -60.673614 
L 209.863629 -60.656104 
L 211.131808 -60.640881 
L 212.400002 -60.627746 
L 213.66818 -60.616523 
L 214.936358 -60.606864 
L 216.204552 -60.598579 
L 217.472731 -60.591501 
L 218.740909 -60.585417 
L 220.009088 -60.580311 
L 221.277266 -60.575971 
L 222.545445 -60.57228 
L 223.813623 -60.569163 
L 225.081817 -60.566531 
L 226.349995 -60.564337 
L 227.618174 -60.562456 
L 228.886367 -60.560895 
L 230.154546 -60.559582 
L 231.422724 -60.558469 
L 232.690903 -60.557541 
L 233.959097 -60.556773 
L 235.227275 -60.55612 
L 236.495454 -60.555589 
L 237.763632 -60.555134 
L 239.03181 -60.554763 
L 240.299989 -60.55445 
L 241.568167 -60.554197 
L 242.836346 -60.553983 
L 244.10454 -60.553808 
L 245.372733 -60.553664 
L 246.640912 -60.553544 
L 247.90909 -60.553448 
L 249.177269 -60.553368 
L 250.445447 -60.553304 
L 251.713626 -60.553252 
L 252.981819 -60.55321 
L 254.249998 -60.553176 
L 255.518176 -60.553148 
L 256.786355 -60.553127 
L 258.054533 -60.553109 
L 259.322712 -60.553095 
L 260.59089 -60.553084 
L 261.859099 -60.553075 
L 263.127278 -60.553068 
L 264.395456 -60.553062 
L 265.663635 -60.553058 
L 266.931813 -60.553055 
L 268.199992 -60.553052 
L 269.46817 -60.55305 
L 270.736364 -60.553049 
L 272.004542 -60.553047 
L 273.272721 -60.553046 
L 274.540899 -60.553046 
L 275.809078 -60.553045 
L 277.077271 -60.553045 
L 278.34545 -60.553044 
L 279.613644 -60.553044 
L 280.881822 -60.553044 
L 282.150001 -60.553044 
L 283.418179 -60.553044 
L 284.686358 -60.553044 
L 285.954536 -60.553044 
L 287.222715 -60.553044 
L 288.490893 -60.553044 
L 289.759087 -60.553044 
L 291.027265 -60.553044 
L 292.295444 -60.553044 
L 293.563637 -60.553044 
L 294.831816 -60.553043 
L 296.099994 -60.553043 
L 297.368173 -60.553043 
L 298.636367 -60.553043 
L 299.904545 -60.553043 
L 301.172724 -60.553043 
L 302.440902 -60.553043 
L 303.70908 -60.553043 
L 304.977259 -60.553043 
L 306.245437 -60.553043 
L 307.513631 -60.553043 
L 308.78181 -60.553043 
L 310.050003 -60.553043 
L 311.318182 -60.553043 
L 311.318182 -60.553043 
L 311.318182 -60.553043 
L 310.050003 -60.553043 
L 308.78181 -60.553043 
L 307.513631 -60.553043 
L 306.245437 -60.553043 
L 304.977259 -60.553043 
L 303.70908 -60.553043 
L 302.440902 -60.553043 
L 301.172724 -60.553043 
L 299.904545 -60.553043 
L 298.636367 -60.553043 
L 297.368173 -60.553043 
L 296.099994 -60.553043 
L 294.831816 -60.553043 
L 293.563637 -60.553043 
L 292.295444 -60.553043 
L 291.027265 -60.553043 
L 289.759087 -60.553043 
L 288.490893 -60.553043 
L 287.222715 -60.553043 
L 285.954536 -60.553043 
L 284.686358 -60.553043 
L 283.418179 -60.553043 
L 282.150001 -60.553043 
L 280.881822 -60.553043 
L 279.613644 -60.553043 
L 278.34545 -60.553043 
L 277.077271 -60.553043 
L 275.809078 -60.553043 
L 274.540899 -60.553043 
L 273.272721 -60.553043 
L 272.004542 -60.553043 
L 270.736364 -60.553043 
L 269.46817 -60.553043 
L 268.199992 -60.553043 
L 266.931813 -60.553043 
L 265.663635 -60.553043 
L 264.395456 -60.553043 
L 263.127278 -60.553043 
L 261.859099 -60.553043 
L 260.59089 -60.553043 
L 259.322712 -60.553043 
L 258.054533 -60.553043 
L 256.786355 -60.553043 
L 255.518176 -60.553043 
L 254.249998 -60.553043 
L 252.981819 -60.553043 
L 251.713626 -60.553043 
L 250.445447 -60.553043 
L 249.177269 -60.553043 
L 247.90909 -60.553043 
L 246.640912 -60.553043 
L 245.372733 -60.553043 
L 244.10454 -60.553043 
L 242.836346 -60.553043 
L 241.568167 -60.553043 
L 240.299989 -60.553043 
L 239.03181 -60.553043 
L 237.763632 -60.553043 
L 236.495454 -60.553043 
L 235.227275 -60.553043 
L 233.959097 -60.553043 
L 232.690903 -60.553043 
L 231.422724 -60.553043 
L 230.154546 -60.553043 
L 228.886367 -60.553043 
L 227.618174 -60.553043 
L 226.349995 -60.553043 
L 225.081817 -60.553043 
L 223.813623 -60.553043 
L 222.545445 -60.553043 
L 221.277266 -60.553043 
L 220.009088 -60.553043 
L 218.740909 -60.553043 
L 217.472731 -60.553043 
L 216.204552 -60.553043 
L 214.936358 -60.553043 
L 213.66818 -60.553043 
L 212.400002 -60.553043 
L 211.131808 -60.553043 
L 209.863629 -60.553043 
L 208.595451 -60.553043 
L 207.327272 -60.553043 
L 206.059079 -60.553043 
L 204.7909 -60.553043 
L 203.522722 -60.553043 
L 202.254543 -60.553043 
L 200.986365 -60.553043 
L 199.718186 -60.553043 
L 198.450008 -60.553043 
L 197.181814 -60.553043 
L 195.913636 -60.553043 
L 194.645442 -60.553043 
L 193.377263 -60.553043 
L 192.109085 -60.553043 
L 190.840906 -60.553043 
L 189.572728 -60.553043 
L 188.304534 -60.553043 
L 187.036356 -60.553043 
L 185.768177 -60.553043 
L 184.499999 -60.553043 
L 183.231805 -60.553043 
L 181.963634 -60.553043 
L 180.695448 -60.553043 
L 179.42727 -60.553043 
L 178.159091 -60.553043 
L 176.890905 -60.553043 
L 175.622727 -60.553043 
L 174.354541 -60.553043 
L 173.086362 -60.553043 
L 171.818176 -60.553043 
L 170.549997 -60.553043 
L 169.281819 -60.553043 
L 168.013641 -60.553043 
L 166.745447 -60.553043 
L 165.477268 -60.553043 
L 164.20909 -60.553043 
L 162.940904 -60.553043 
L 161.672725 -60.553043 
L 160.404547 -60.553043 
L 159.136361 -60.553043 
L 157.868175 -60.553043 
L 156.599996 -60.553043 
L 155.331818 -60.553043 
L 154.063632 -60.553043 
L 152.795453 -60.553043 
L 151.527275 -60.553043 
L 150.259088 -60.553043 
L 148.990902 -60.553043 
L 147.722724 -60.553043 
L 146.454545 -60.553043 
L 145.186367 -60.553043 
L 143.918181 -60.553043 
L 142.649995 -60.553043 
L 141.381816 -60.553043 
L 140.11363 -60.553043 
L 138.845452 -60.553043 
L 137.577273 -60.553043 
L 136.309095 -60.553043 
L 135.040909 -60.553043 
L 133.772723 -60.553043 
L 132.504544 -60.553043 
L 131.236358 -60.553043 
L 129.96818 -60.553043 
L 128.700001 -60.553043 
L 127.431823 -60.553043 
L 126.163629 -60.553043 
L 124.89545 -60.553043 
L 123.627272 -60.553043 
L 122.359093 -60.553043 
L 121.090907 -60.553043 
L 119.822721 -60.553043 
L 118.554543 -60.553043 
L 117.286364 -60.553043 
L 116.018178 -60.553043 
L 114.75 -60.553043 
L 113.481817 -60.553043 
L 112.213635 -60.553043 
L 110.945453 -60.553043 
L 109.677271 -60.553043 
L 108.409088 -60.553043 
L 107.140906 -60.553043 
L 105.872727 -60.553043 
L 104.604545 -60.553043 
L 103.336363 -60.553043 
L 102.068181 -60.553043 
L 100.800002 -60.553043 
L 99.531816 -60.553043 
L 98.263634 -60.553043 
L 96.995455 -60.553043 
L 95.727269 -60.553043 
L 94.459091 -60.553043 
L 93.190908 -60.553043 
L 91.922726 -60.553043 
L 90.654544 -60.553043 
L 89.386365 -60.553043 
L 88.118179 -60.553043 
L 86.849999 -60.553043 
L 85.581819 -60.553043 
L 84.313636 -60.553043 
L 83.045452 -60.553043 
L 81.777272 -60.553043 
L 80.509089 -60.553043 
L 79.240909 -60.553043 
L 77.972727 -60.553043 
L 76.704544 -60.553043 
L 75.436364 -60.553043 
L 74.168182 -60.553043 
L 72.899999 -60.553043 
L 71.631817 -60.553043 
L 70.363636 -60.553043 
L 69.095454 -60.553043 
L 67.827272 -60.553043 
L 66.559091 -60.553043 
L 65.290909 -60.553043 
L 64.022727 -60.553043 
L 62.754545 -60.553043 
L 61.486364 -60.553043 
L 60.218182 -60.553043 
L 58.95 -60.553043 
L 57.681818 -60.553043 
z
" style="stroke: #ff7f0e; stroke-opacity: 0.3"/>
    </defs>
    <g clip-path="url(#p7fd2497b50)">
     <use xlink:href="#me35032eaef" x="0" y="504" style="fill: #ff7f0e; fill-opacity: 0.3; stroke: #ff7f0e; stroke-opacity: 0.3"/>
    </g>
   </g>
   <g id="PolyCollection_6"/>
   <g id="PolyCollection_7">
    <defs>
     <path id="m75f5dba4cf" d="M 57.681818 -60.553043 
L 57.681818 -117.041892 
L 58.95 -142.858763 
L 60.218182 -160.677611 
L 61.486364 -162.813913 
L 62.754545 -148.129126 
L 64.022727 -123.733813 
L 65.290909 -98.88743 
L 66.559091 -80.164226 
L 67.827272 -68.926232 
L 69.095454 -63.488694 
L 70.363636 -61.366221 
L 71.631817 -60.720093 
L 72.899999 -60.576248 
L 74.168182 -60.554935 
L 75.436364 -60.55312 
L 76.704544 -60.553045 
L 77.972727 -60.553043 
L 79.240909 -60.553043 
L 80.509089 -60.553043 
L 81.777272 -60.553043 
L 83.045452 -60.553043 
L 84.313636 -60.553043 
L 85.581819 -60.553043 
L 86.849999 -60.553043 
L 88.118179 -60.553043 
L 89.386365 -60.553043 
L 90.654544 -60.553043 
L 91.922726 -60.553043 
L 93.190908 -60.553043 
L 94.459091 -60.553043 
L 95.727269 -60.553043 
L 96.995455 -60.553043 
L 98.263634 -60.553043 
L 99.531816 -60.553043 
L 100.800002 -60.553043 
L 102.068181 -60.553043 
L 103.336363 -60.553043 
L 104.604545 -60.553043 
L 105.872727 -60.553043 
L 107.140906 -60.553043 
L 108.409088 -60.553043 
L 109.677271 -60.553043 
L 110.945453 -60.553043 
L 112.213635 -60.553043 
L 113.481817 -60.553043 
L 114.75 -60.553043 
L 116.018178 -60.553043 
L 117.286364 -60.553043 
L 118.554543 -60.553043 
L 119.822721 -60.553043 
L 121.090907 -60.553043 
L 122.359093 -60.553043 
L 123.627272 -60.553043 
L 124.89545 -60.553043 
L 126.163629 -60.553043 
L 127.431823 -60.553043 
L 128.700001 -60.553043 
L 129.96818 -60.553043 
L 131.236358 -60.553043 
L 132.504544 -60.553043 
L 133.772723 -60.553043 
L 135.040909 -60.553043 
L 136.309095 -60.553043 
L 137.577273 -60.553043 
L 138.845452 -60.553043 
L 140.11363 -60.553043 
L 141.381816 -60.553043 
L 142.649995 -60.553043 
L 143.918181 -60.553043 
L 145.186367 -60.553043 
L 146.454545 -60.553043 
L 147.722724 -60.553043 
L 148.990902 -60.553043 
L 150.259088 -60.553043 
L 151.527275 -60.553043 
L 152.795453 -60.553043 
L 154.063632 -60.553043 
L 155.331818 -60.553043 
L 156.599996 -60.553043 
L 157.868175 -60.553043 
L 159.136361 -60.553043 
L 160.404547 -60.553043 
L 161.672725 -60.553043 
L 162.940904 -60.553043 
L 164.20909 -60.553043 
L 165.477268 -60.553043 
L 166.745447 -60.553043 
L 168.013641 -60.553043 
L 169.281819 -60.553043 
L 170.549997 -60.553043 
L 171.818176 -60.553043 
L 173.086362 -60.553043 
L 174.354541 -60.553043 
L 175.622727 -60.553043 
L 176.890905 -60.553043 
L 178.159091 -60.553043 
L 179.42727 -60.553043 
L 180.695448 -60.553043 
L 181.963634 -60.553043 
L 183.231805 -60.553043 
L 184.499999 -60.553043 
L 185.768177 -60.553043 
L 187.036356 -60.553043 
L 188.304534 -60.553043 
L 189.572728 -60.553043 
L 190.840906 -60.553043 
L 192.109085 -60.553043 
L 193.377263 -60.553043 
L 194.645442 -60.553043 
L 195.913636 -60.553043 
L 197.181814 -60.553043 
L 198.450008 -60.553043 
L 199.718186 -60.553043 
L 200.986365 -60.553043 
L 202.254543 -60.553043 
L 203.522722 -60.553043 
L 204.7909 -60.553043 
L 206.059079 -60.553043 
L 207.327272 -60.553043 
L 208.595451 -60.553043 
L 209.863629 -60.553043 
L 211.131808 -60.553043 
L 212.400002 -60.553043 
L 213.66818 -60.553043 
L 214.936358 -60.553043 
L 216.204552 -60.553043 
L 217.472731 -60.553043 
L 218.740909 -60.553043 
L 220.009088 -60.553043 
L 221.277266 -60.553043 
L 222.545445 -60.553043 
L 223.813623 -60.553043 
L 225.081817 -60.553043 
L 226.349995 -60.553043 
L 227.618174 -60.553043 
L 228.886367 -60.553043 
L 230.154546 -60.553043 
L 231.422724 -60.553043 
L 232.690903 -60.553043 
L 233.959097 -60.553043 
L 235.227275 -60.553043 
L 236.495454 -60.553043 
L 237.763632 -60.553043 
L 239.03181 -60.553043 
L 240.299989 -60.553043 
L 241.568167 -60.553043 
L 242.836346 -60.553043 
L 244.10454 -60.553043 
L 245.372733 -60.553043 
L 246.640912 -60.553043 
L 247.90909 -60.553043 
L 249.177269 -60.553043 
L 250.445447 -60.553043 
L 251.713626 -60.553043 
L 252.981819 -60.553043 
L 254.249998 -60.553043 
L 255.518176 -60.553043 
L 256.786355 -60.553043 
L 258.054533 -60.553043 
L 259.322712 -60.553043 
L 260.59089 -60.553043 
L 261.859099 -60.553043 
L 263.127278 -60.553043 
L 264.395456 -60.553043 
L 265.663635 -60.553043 
L 266.931813 -60.553043 
L 268.199992 -60.553043 
L 269.46817 -60.553043 
L 270.736364 -60.553043 
L 272.004542 -60.553043 
L 273.272721 -60.553043 
L 274.540899 -60.553043 
L 275.809078 -60.553043 
L 277.077271 -60.553043 
L 278.34545 -60.553043 
L 279.613644 -60.553043 
L 280.881822 -60.553043 
L 282.150001 -60.553043 
L 283.418179 -60.553043 
L 284.686358 -60.553043 
L 285.954536 -60.553043 
L 287.222715 -60.553043 
L 288.490893 -60.553043 
L 289.759087 -60.553043 
L 291.027265 -60.553043 
L 292.295444 -60.553043 
L 293.563637 -60.553043 
L 294.831816 -60.553043 
L 296.099994 -60.553043 
L 297.368173 -60.553043 
L 298.636367 -60.553043 
L 299.904545 -60.553043 
L 301.172724 -60.553043 
L 302.440902 -60.553043 
L 303.70908 -60.553043 
L 304.977259 -60.553043 
L 306.245437 -60.553043 
L 307.513631 -60.553043 
L 308.78181 -60.553043 
L 310.050003 -60.553043 
L 311.318182 -60.553043 
L 311.318182 -60.553043 
L 311.318182 -60.553043 
L 310.050003 -60.553043 
L 308.78181 -60.553043 
L 307.513631 -60.553043 
L 306.245437 -60.553043 
L 304.977259 -60.553043 
L 303.70908 -60.553043 
L 302.440902 -60.553043 
L 301.172724 -60.553043 
L 299.904545 -60.553043 
L 298.636367 -60.553043 
L 297.368173 -60.553043 
L 296.099994 -60.553043 
L 294.831816 -60.553043 
L 293.563637 -60.553043 
L 292.295444 -60.553043 
L 291.027265 -60.553043 
L 289.759087 -60.553043 
L 288.490893 -60.553043 
L 287.222715 -60.553043 
L 285.954536 -60.553043 
L 284.686358 -60.553043 
L 283.418179 -60.553043 
L 282.150001 -60.553043 
L 280.881822 -60.553043 
L 279.613644 -60.553043 
L 278.34545 -60.553043 
L 277.077271 -60.553043 
L 275.809078 -60.553043 
L 274.540899 -60.553043 
L 273.272721 -60.553043 
L 272.004542 -60.553043 
L 270.736364 -60.553043 
L 269.46817 -60.553043 
L 268.199992 -60.553043 
L 266.931813 -60.553043 
L 265.663635 -60.553043 
L 264.395456 -60.553043 
L 263.127278 -60.553043 
L 261.859099 -60.553043 
L 260.59089 -60.553043 
L 259.322712 -60.553043 
L 258.054533 -60.553043 
L 256.786355 -60.553043 
L 255.518176 -60.553043 
L 254.249998 -60.553043 
L 252.981819 -60.553043 
L 251.713626 -60.553043 
L 250.445447 -60.553043 
L 249.177269 -60.553043 
L 247.90909 -60.553043 
L 246.640912 -60.553043 
L 245.372733 -60.553043 
L 244.10454 -60.553043 
L 242.836346 -60.553043 
L 241.568167 -60.553043 
L 240.299989 -60.553043 
L 239.03181 -60.553043 
L 237.763632 -60.553043 
L 236.495454 -60.553043 
L 235.227275 -60.553043 
L 233.959097 -60.553043 
L 232.690903 -60.553043 
L 231.422724 -60.553043 
L 230.154546 -60.553043 
L 228.886367 -60.553043 
L 227.618174 -60.553043 
L 226.349995 -60.553043 
L 225.081817 -60.553043 
L 223.813623 -60.553043 
L 222.545445 -60.553043 
L 221.277266 -60.553043 
L 220.009088 -60.553043 
L 218.740909 -60.553043 
L 217.472731 -60.553043 
L 216.204552 -60.553043 
L 214.936358 -60.553043 
L 213.66818 -60.553043 
L 212.400002 -60.553043 
L 211.131808 -60.553043 
L 209.863629 -60.553043 
L 208.595451 -60.553043 
L 207.327272 -60.553043 
L 206.059079 -60.553043 
L 204.7909 -60.553043 
L 203.522722 -60.553043 
L 202.254543 -60.553043 
L 200.986365 -60.553043 
L 199.718186 -60.553043 
L 198.450008 -60.553043 
L 197.181814 -60.553043 
L 195.913636 -60.553043 
L 194.645442 -60.553043 
L 193.377263 -60.553043 
L 192.109085 -60.553043 
L 190.840906 -60.553043 
L 189.572728 -60.553043 
L 188.304534 -60.553043 
L 187.036356 -60.553043 
L 185.768177 -60.553043 
L 184.499999 -60.553043 
L 183.231805 -60.553043 
L 181.963634 -60.553043 
L 180.695448 -60.553043 
L 179.42727 -60.553043 
L 178.159091 -60.553043 
L 176.890905 -60.553043 
L 175.622727 -60.553043 
L 174.354541 -60.553043 
L 173.086362 -60.553043 
L 171.818176 -60.553043 
L 170.549997 -60.553043 
L 169.281819 -60.553043 
L 168.013641 -60.553043 
L 166.745447 -60.553043 
L 165.477268 -60.553043 
L 164.20909 -60.553043 
L 162.940904 -60.553043 
L 161.672725 -60.553043 
L 160.404547 -60.553043 
L 159.136361 -60.553043 
L 157.868175 -60.553043 
L 156.599996 -60.553043 
L 155.331818 -60.553043 
L 154.063632 -60.553043 
L 152.795453 -60.553043 
L 151.527275 -60.553043 
L 150.259088 -60.553043 
L 148.990902 -60.553043 
L 147.722724 -60.553043 
L 146.454545 -60.553043 
L 145.186367 -60.553043 
L 143.918181 -60.553043 
L 142.649995 -60.553043 
L 141.381816 -60.553043 
L 140.11363 -60.553043 
L 138.845452 -60.553043 
L 137.577273 -60.553043 
L 136.309095 -60.553043 
L 135.040909 -60.553043 
L 133.772723 -60.553043 
L 132.504544 -60.553043 
L 131.236358 -60.553043 
L 129.96818 -60.553043 
L 128.700001 -60.553043 
L 127.431823 -60.553043 
L 126.163629 -60.553043 
L 124.89545 -60.553043 
L 123.627272 -60.553043 
L 122.359093 -60.553043 
L 121.090907 -60.553043 
L 119.822721 -60.553043 
L 118.554543 -60.553043 
L 117.286364 -60.553043 
L 116.018178 -60.553043 
L 114.75 -60.553043 
L 113.481817 -60.553043 
L 112.213635 -60.553043 
L 110.945453 -60.553043 
L 109.677271 -60.553043 
L 108.409088 -60.553043 
L 107.140906 -60.553043 
L 105.872727 -60.553043 
L 104.604545 -60.553043 
L 103.336363 -60.553043 
L 102.068181 -60.553043 
L 100.800002 -60.553043 
L 99.531816 -60.553043 
L 98.263634 -60.553043 
L 96.995455 -60.553043 
L 95.727269 -60.553043 
L 94.459091 -60.553043 
L 93.190908 -60.553043 
L 91.922726 -60.553043 
L 90.654544 -60.553043 
L 89.386365 -60.553043 
L 88.118179 -60.553043 
L 86.849999 -60.553043 
L 85.581819 -60.553043 
L 84.313636 -60.553043 
L 83.045452 -60.553043 
L 81.777272 -60.553043 
L 80.509089 -60.553043 
L 79.240909 -60.553043 
L 77.972727 -60.553043 
L 76.704544 -60.553043 
L 75.436364 -60.553043 
L 74.168182 -60.553043 
L 72.899999 -60.553043 
L 71.631817 -60.553043 
L 70.363636 -60.553043 
L 69.095454 -60.553043 
L 67.827272 -60.553043 
L 66.559091 -60.553043 
L 65.290909 -60.553043 
L 64.022727 -60.553043 
L 62.754545 -60.553043 
L 61.486364 -60.553043 
L 60.218182 -60.553043 
L 58.95 -60.553043 
L 57.681818 -60.553043 
z
" style="stroke: #1f77b4; stroke-opacity: 0.3"/>
    </defs>
    <g clip-path="url(#p7fd2497b50)">
     <use xlink:href="#m75f5dba4cf" x="0" y="504" style="fill: #1f77b4; fill-opacity: 0.3; stroke: #1f77b4; stroke-opacity: 0.3"/>
    </g>
   </g>
   <g id="matplotlib.axis_3">
    <g id="xtick_7">
     <g id="line2d_17">
      <g>
       <use xlink:href="#m667ba6f849" x="55.119835" y="448.56" style="stroke: #000000; stroke-width: 0.8"/>
      </g>
     </g>
     <g id="text_23">
      <!-- 0.0 -->
      <g transform="translate(47.168272 463.158437) scale(0.1 -0.1)">
       <use xlink:href="#DejaVuSans-30"/>
       <use xlink:href="#DejaVuSans-2e" x="63.623047"/>
       <use xlink:href="#DejaVuSans-30" x="95.410156"/>
      </g>
     </g>
    </g>
    <g id="xtick_8">
     <g id="line2d_18">
      <g>
       <use xlink:href="#m667ba6f849" x="106.359504" y="448.56" style="stroke: #000000; stroke-width: 0.8"/>
      </g>
     </g>
     <g id="text_24">
      <!-- 0.2 -->
      <g transform="translate(98.407942 463.158437) scale(0.1 -0.1)">
       <use xlink:href="#DejaVuSans-30"/>
       <use xlink:href="#DejaVuSans-2e" x="63.623047"/>
       <use xlink:href="#DejaVuSans-32" x="95.410156"/>
      </g>
     </g>
    </g>
    <g id="xtick_9">
     <g id="line2d_19">
      <g>
       <use xlink:href="#m667ba6f849" x="157.599174" y="448.56" style="stroke: #000000; stroke-width: 0.8"/>
      </g>
     </g>
     <g id="text_25">
      <!-- 0.4 -->
      <g transform="translate(149.647611 463.158437) scale(0.1 -0.1)">
       <use xlink:href="#DejaVuSans-30"/>
       <use xlink:href="#DejaVuSans-2e" x="63.623047"/>
       <use xlink:href="#DejaVuSans-34" x="95.410156"/>
      </g>
     </g>
    </g>
    <g id="xtick_10">
     <g id="line2d_20">
      <g>
       <use xlink:href="#m667ba6f849" x="208.838843" y="448.56" style="stroke: #000000; stroke-width: 0.8"/>
      </g>
     </g>
     <g id="text_26">
      <!-- 0.6 -->
      <g transform="translate(200.88728 463.158437) scale(0.1 -0.1)">
       <use xlink:href="#DejaVuSans-30"/>
       <use xlink:href="#DejaVuSans-2e" x="63.623047"/>
       <use xlink:href="#DejaVuSans-36" x="95.410156"/>
      </g>
     </g>
    </g>
    <g id="xtick_11">
     <g id="line2d_21">
      <g>
       <use xlink:href="#m667ba6f849" x="260.078512" y="448.56" style="stroke: #000000; stroke-width: 0.8"/>
      </g>
     </g>
     <g id="text_27">
      <!-- 0.8 -->
      <g transform="translate(252.12695 463.158437) scale(0.1 -0.1)">
       <use xlink:href="#DejaVuSans-30"/>
       <use xlink:href="#DejaVuSans-2e" x="63.623047"/>
       <use xlink:href="#DejaVuSans-38" x="95.410156"/>
      </g>
     </g>
    </g>
    <g id="xtick_12">
     <g id="line2d_22">
      <g>
       <use xlink:href="#m667ba6f849" x="311.318182" y="448.56" style="stroke: #000000; stroke-width: 0.8"/>
      </g>
     </g>
     <g id="text_28">
      <!-- 1.0 -->
      <g transform="translate(303.366619 463.158437) scale(0.1 -0.1)">
       <use xlink:href="#DejaVuSans-31"/>
       <use xlink:href="#DejaVuSans-2e" x="63.623047"/>
       <use xlink:href="#DejaVuSans-30" x="95.410156"/>
      </g>
     </g>
    </g>
    <g id="text_29">
     <!-- Fitness -->
     <g transform="translate(167.182813 476.836563) scale(0.1 -0.1)">
      <defs>
       <path id="DejaVuSans-74" d="M 1172 4494 
L 1172 3500 
L 2356 3500 
L 2356 3053 
L 1172 3053 
L 1172 1153 
Q 1172 725 1289 603 
Q 1406 481 1766 481 
L 2356 481 
L 2356 0 
L 1766 0 
Q 1100 0 847 248 
Q 594 497 594 1153 
L 594 3053 
L 172 3053 
L 172 3500 
L 594 3500 
L 594 4494 
L 1172 4494 
z
" transform="scale(0.015625)"/>
      </defs>
      <use xlink:href="#DejaVuSans-46"/>
      <use xlink:href="#DejaVuSans-69" x="50.269531"/>
      <use xlink:href="#DejaVuSans-74" x="78.052734"/>
      <use xlink:href="#DejaVuSans-6e" x="117.261719"/>
      <use xlink:href="#DejaVuSans-65" x="180.640625"/>
      <use xlink:href="#DejaVuSans-73" x="242.164062"/>
      <use xlink:href="#DejaVuSans-73" x="294.263672"/>
     </g>
    </g>
   </g>
   <g id="matplotlib.axis_4">
    <g id="ytick_8">
     <g id="line2d_23">
      <g>
       <use xlink:href="#m2a6b9801b3" x="45" y="443.446957" style="stroke: #000000; stroke-width: 0.8"/>
      </g>
     </g>
     <g id="text_30">
      <!-- 0.00 -->
      <g transform="translate(15.734375 447.246175) scale(0.1 -0.1)">
       <use xlink:href="#DejaVuSans-30"/>
       <use xlink:href="#DejaVuSans-2e" x="63.623047"/>
       <use xlink:href="#DejaVuSans-30" x="95.410156"/>
       <use xlink:href="#DejaVuSans-30" x="159.033203"/>
      </g>
     </g>
    </g>
    <g id="ytick_9">
     <g id="line2d_24">
      <g>
       <use xlink:href="#m2a6b9801b3" x="45" y="417.881739" style="stroke: #000000; stroke-width: 0.8"/>
      </g>
     </g>
     <g id="text_31">
      <!-- 0.25 -->
      <g transform="translate(15.734375 421.680958) scale(0.1 -0.1)">
       <use xlink:href="#DejaVuSans-30"/>
       <use xlink:href="#DejaVuSans-2e" x="63.623047"/>
       <use xlink:href="#DejaVuSans-32" x="95.410156"/>
       <use xlink:href="#DejaVuSans-35" x="159.033203"/>
      </g>
     </g>
    </g>
    <g id="ytick_10">
     <g id="line2d_25">
      <g>
       <use xlink:href="#m2a6b9801b3" x="45" y="392.316522" style="stroke: #000000; stroke-width: 0.8"/>
      </g>
     </g>
     <g id="text_32">
      <!-- 0.50 -->
      <g transform="translate(15.734375 396.11574) scale(0.1 -0.1)">
       <use xlink:href="#DejaVuSans-30"/>
       <use xlink:href="#DejaVuSans-2e" x="63.623047"/>
       <use xlink:href="#DejaVuSans-35" x="95.410156"/>
       <use xlink:href="#DejaVuSans-30" x="159.033203"/>
      </g>
     </g>
    </g>
    <g id="ytick_11">
     <g id="line2d_26">
      <g>
       <use xlink:href="#m2a6b9801b3" x="45" y="366.751304" style="stroke: #000000; stroke-width: 0.8"/>
      </g>
     </g>
     <g id="text_33">
      <!-- 0.75 -->
      <g transform="translate(15.734375 370.550523) scale(0.1 -0.1)">
       <use xlink:href="#DejaVuSans-30"/>
       <use xlink:href="#DejaVuSans-2e" x="63.623047"/>
       <use xlink:href="#DejaVuSans-37" x="95.410156"/>
       <use xlink:href="#DejaVuSans-35" x="159.033203"/>
      </g>
     </g>
    </g>
    <g id="ytick_12">
     <g id="line2d_27">
      <g>
       <use xlink:href="#m2a6b9801b3" x="45" y="341.186087" style="stroke: #000000; stroke-width: 0.8"/>
      </g>
     </g>
     <g id="text_34">
      <!-- 1.00 -->
      <g transform="translate(15.734375 344.985306) scale(0.1 -0.1)">
       <use xlink:href="#DejaVuSans-31"/>
       <use xlink:href="#DejaVuSans-2e" x="63.623047"/>
       <use xlink:href="#DejaVuSans-30" x="95.410156"/>
       <use xlink:href="#DejaVuSans-30" x="159.033203"/>
      </g>
     </g>
    </g>
    <g id="text_35">
     <!-- Normalised likelihood -->
     <g transform="translate(9.654687 446.050115) rotate(-90) scale(0.1 -0.1)">
      <defs>
       <path id="DejaVuSans-6b" d="M 581 4863 
L 1159 4863 
L 1159 1991 
L 2875 3500 
L 3609 3500 
L 1753 1863 
L 3688 0 
L 2938 0 
L 1159 1709 
L 1159 0 
L 581 0 
L 581 4863 
z
" transform="scale(0.015625)"/>
       <path id="DejaVuSans-68" d="M 3513 2113 
L 3513 0 
L 2938 0 
L 2938 2094 
Q 2938 2591 2744 2837 
Q 2550 3084 2163 3084 
Q 1697 3084 1428 2787 
Q 1159 2491 1159 1978 
L 1159 0 
L 581 0 
L 581 4863 
L 1159 4863 
L 1159 2956 
Q 1366 3272 1645 3428 
Q 1925 3584 2291 3584 
Q 2894 3584 3203 3211 
Q 3513 2838 3513 2113 
z
" transform="scale(0.015625)"/>
      </defs>
      <use xlink:href="#DejaVuSans-4e"/>
      <use xlink:href="#DejaVuSans-6f" x="74.804688"/>
      <use xlink:href="#DejaVuSans-72" x="135.986328"/>
      <use xlink:href="#DejaVuSans-6d" x="175.349609"/>
      <use xlink:href="#DejaVuSans-61" x="272.761719"/>
      <use xlink:href="#DejaVuSans-6c" x="334.041016"/>
      <use xlink:href="#DejaVuSans-69" x="361.824219"/>
      <use xlink:href="#DejaVuSans-73" x="389.607422"/>
      <use xlink:href="#DejaVuSans-65" x="441.707031"/>
      <use xlink:href="#DejaVuSans-64" x="503.230469"/>
      <use xlink:href="#DejaVuSans-20" x="566.707031"/>
      <use xlink:href="#DejaVuSans-6c" x="598.494141"/>
      <use xlink:href="#DejaVuSans-69" x="626.277344"/>
      <use xlink:href="#DejaVuSans-6b" x="654.060547"/>
      <use xlink:href="#DejaVuSans-65" x="708.345703"/>
      <use xlink:href="#DejaVuSans-6c" x="769.869141"/>
      <use xlink:href="#DejaVuSans-69" x="797.652344"/>
      <use xlink:href="#DejaVuSans-68" x="825.435547"/>
      <use xlink:href="#DejaVuSans-6f" x="888.814453"/>
      <use xlink:href="#DejaVuSans-6f" x="949.996094"/>
      <use xlink:href="#DejaVuSans-64" x="1011.177734"/>
     </g>
    </g>
   </g>
   <g id="line2d_28">
    <path d="M 57.681818 443.446957 
L 85.581819 443.354113 
L 88.118179 443.182641 
L 90.654544 442.777569 
L 91.922726 442.423793 
L 93.190908 441.921473 
L 94.459091 441.226126 
L 95.727269 440.286917 
L 96.995455 439.047272 
L 98.263634 437.448984 
L 99.531816 435.43667 
L 100.800002 432.95695 
L 102.068181 429.964389 
L 103.336363 426.428625 
L 104.604545 422.336198 
L 105.872727 417.704694 
L 108.409088 406.942902 
L 110.945453 394.649868 
L 116.018178 369.132068 
L 118.554543 358.043888 
L 119.822721 353.306602 
L 121.090907 349.301352 
L 122.359093 346.049898 
L 123.627272 343.596242 
L 124.89545 341.964173 
L 126.163629 341.186087 
L 127.431823 341.222268 
L 128.700001 342.009826 
L 129.96818 343.526848 
L 131.236358 345.684898 
L 132.504544 348.43046 
L 133.772723 351.6581 
L 136.309095 359.314785 
L 138.845452 367.952246 
L 145.186367 390.239081 
L 147.722724 398.417648 
L 150.259088 405.804732 
L 152.795453 412.340337 
L 155.331818 417.983404 
L 157.868175 422.781632 
L 160.404547 426.799786 
L 162.940904 430.127444 
L 165.477268 432.846668 
L 168.013641 435.053262 
L 170.549997 436.828451 
L 173.086362 438.247337 
L 175.622727 439.37794 
L 178.159091 440.272234 
L 180.695448 440.976536 
L 184.499999 441.760642 
L 188.304534 442.303082 
L 193.377263 442.771224 
L 199.718186 443.106376 
L 208.595451 443.326386 
L 223.813623 443.430837 
L 284.686358 443.446956 
L 311.318182 443.446957 
L 311.318182 443.446957 
" clip-path="url(#p7fd2497b50)" style="fill: none; stroke: #ff7f0e; stroke-width: 1.5; stroke-linecap: square"/>
   </g>
   <g id="line2d_29">
    <path d="M 57.681818 386.958108 
L 58.95 361.141237 
L 60.218182 343.322389 
L 61.486364 341.186087 
L 62.754545 355.870874 
L 65.290909 405.11257 
L 66.559091 423.835774 
L 67.827272 435.073768 
L 69.095454 440.511306 
L 70.363636 442.633779 
L 71.631817 443.279907 
L 72.899999 443.423752 
L 80.509089 443.446957 
L 311.318182 443.446957 
L 311.318182 443.446957 
" clip-path="url(#p7fd2497b50)" style="fill: none; stroke: #1f77b4; stroke-width: 1.5; stroke-linecap: square"/>
   </g>
   <g id="patch_10">
    <path d="M 45 448.56 
L 45 336.073043 
" style="fill: none; stroke: #000000; stroke-width: 0.8; stroke-linejoin: miter; stroke-linecap: square"/>
   </g>
   <g id="patch_11">
    <path d="M 45 448.56 
L 324 448.56 
" style="fill: none; stroke: #000000; stroke-width: 0.8; stroke-linejoin: miter; stroke-linecap: square"/>
   </g>
   <g id="text_36">
    <!-- Clonal Fitness -->
    <g transform="translate(143.138438 330.073043) scale(0.12 -0.12)">
     <use xlink:href="#DejaVuSans-43"/>
     <use xlink:href="#DejaVuSans-6c" x="69.824219"/>
     <use xlink:href="#DejaVuSans-6f" x="97.607422"/>
     <use xlink:href="#DejaVuSans-6e" x="158.789062"/>
     <use xlink:href="#DejaVuSans-61" x="222.167969"/>
     <use xlink:href="#DejaVuSans-6c" x="283.447266"/>
     <use xlink:href="#DejaVuSans-20" x="311.230469"/>
     <use xlink:href="#DejaVuSans-46" x="343.017578"/>
     <use xlink:href="#DejaVuSans-69" x="393.287109"/>
     <use xlink:href="#DejaVuSans-74" x="421.070312"/>
     <use xlink:href="#DejaVuSans-6e" x="460.279297"/>
     <use xlink:href="#DejaVuSans-65" x="523.658203"/>
     <use xlink:href="#DejaVuSans-73" x="585.181641"/>
     <use xlink:href="#DejaVuSans-73" x="637.28125"/>
    </g>
   </g>
   <g id="legend_2">
    <g id="patch_12">
     <path d="M 194.220312 384.627106 
L 317 384.627106 
Q 319 384.627106 319 382.627106 
L 319 343.073043 
Q 319 341.073043 317 341.073043 
L 194.220312 341.073043 
Q 192.220312 341.073043 192.220312 343.073043 
L 192.220312 382.627106 
Q 192.220312 384.627106 194.220312 384.627106 
z
" style="fill: #ffffff; opacity: 0.8; stroke: #cccccc; stroke-linejoin: miter"/>
    </g>
    <g id="line2d_30">
     <path d="M 196.220312 349.171481 
L 206.220312 349.171481 
L 216.220312 349.171481 
" style="fill: none; stroke: #ff7f0e; stroke-width: 1.5; stroke-linecap: square"/>
    </g>
    <g id="text_37">
     <!-- TET2 p.H864Afs*8 -->
     <g transform="translate(224.220312 352.671481) scale(0.1 -0.1)">
      <use xlink:href="#DejaVuSans-54"/>
      <use xlink:href="#DejaVuSans-45" x="61.083984"/>
      <use xlink:href="#DejaVuSans-54" x="124.267578"/>
      <use xlink:href="#DejaVuSans-32" x="185.351562"/>
      <use xlink:href="#DejaVuSans-20" x="248.974609"/>
      <use xlink:href="#DejaVuSans-70" x="280.761719"/>
      <use xlink:href="#DejaVuSans-2e" x="344.238281"/>
      <use xlink:href="#DejaVuSans-48" x="376.025391"/>
      <use xlink:href="#DejaVuSans-38" x="451.220703"/>
      <use xlink:href="#DejaVuSans-36" x="514.84375"/>
      <use xlink:href="#DejaVuSans-34" x="578.466797"/>
      <use xlink:href="#DejaVuSans-41" x="642.089844"/>
      <use xlink:href="#DejaVuSans-66" x="706.873047"/>
      <use xlink:href="#DejaVuSans-73" x="742.078125"/>
      <use xlink:href="#DejaVuSans-2a" x="794.177734"/>
      <use xlink:href="#DejaVuSans-38" x="844.177734"/>
     </g>
    </g>
    <g id="line2d_31">
     <path d="M 196.220312 370.488356 
L 206.220312 370.488356 
L 216.220312 370.488356 
" style="fill: none; stroke: #1f77b4; stroke-width: 1.5; stroke-linecap: square"/>
    </g>
    <g id="text_38">
     <!-- DNMT3A p.G289V -->
     <g transform="translate(224.220312 367.349606) scale(0.1 -0.1)">
      <use xlink:href="#DejaVuSans-44"/>
      <use xlink:href="#DejaVuSans-4e" x="77.001953"/>
      <use xlink:href="#DejaVuSans-4d" x="151.806641"/>
      <use xlink:href="#DejaVuSans-54" x="238.085938"/>
      <use xlink:href="#DejaVuSans-33" x="299.169922"/>
      <use xlink:href="#DejaVuSans-41" x="362.792969"/>
      <use xlink:href="#DejaVuSans-20" x="431.201172"/>
      <use xlink:href="#DejaVuSans-70" x="462.988281"/>
      <use xlink:href="#DejaVuSans-2e" x="526.464844"/>
      <use xlink:href="#DejaVuSans-47" x="558.251953"/>
      <use xlink:href="#DejaVuSans-32" x="635.742188"/>
      <use xlink:href="#DejaVuSans-38" x="699.365234"/>
      <use xlink:href="#DejaVuSans-39" x="762.988281"/>
      <use xlink:href="#DejaVuSans-56" x="826.611328"/>
     </g>
     <!-- TET2 p.I1873T -->
     <g transform="translate(224.220312 378.547418) scale(0.1 -0.1)">
      <use xlink:href="#DejaVuSans-54"/>
      <use xlink:href="#DejaVuSans-45" x="61.083984"/>
      <use xlink:href="#DejaVuSans-54" x="124.267578"/>
      <use xlink:href="#DejaVuSans-32" x="185.351562"/>
      <use xlink:href="#DejaVuSans-20" x="248.974609"/>
      <use xlink:href="#DejaVuSans-70" x="280.761719"/>
      <use xlink:href="#DejaVuSans-2e" x="344.238281"/>
      <use xlink:href="#DejaVuSans-49" x="376.025391"/>
      <use xlink:href="#DejaVuSans-31" x="405.517578"/>
      <use xlink:href="#DejaVuSans-38" x="469.140625"/>
      <use xlink:href="#DejaVuSans-37" x="532.763672"/>
      <use xlink:href="#DejaVuSans-33" x="596.386719"/>
      <use xlink:href="#DejaVuSans-54" x="660.009766"/>
     </g>
    </g>
   </g>
  </g>
 </g>
 <defs>
  <clipPath id="pfbf698000a">
   <rect x="45" y="60.48" width="279" height="224.973913"/>
  </clipPath>
  <clipPath id="p7fd2497b50">
   <rect x="45" y="336.073043" width="279" height="112.486957"/>
  </clipPath>
 </defs>
</svg>
