<?xml version="1.0" encoding="utf-8" standalone="no"?>
<!DOCTYPE svg PUBLIC "-//W3C//DTD SVG 1.1//EN"
  "http://www.w3.org/Graphics/SVG/1.1/DTD/svg11.dtd">
<svg xmlns:xlink="http://www.w3.org/1999/xlink" width="460.8pt" height="345.6pt" viewBox="0 0 460.8 345.6" xmlns="http://www.w3.org/2000/svg" version="1.1">
 <metadata>
  <rdf:RDF xmlns:dc="http://purl.org/dc/elements/1.1/" xmlns:cc="http://creativecommons.org/ns#" xmlns:rdf="http://www.w3.org/1999/02/22-rdf-syntax-ns#">
   <cc:Work>
    <dc:type rdf:resource="http://purl.org/dc/dcmitype/StillImage"/>
    <dc:date>2024-10-24T15:21:01.533862</dc:date>
    <dc:format>image/svg+xml</dc:format>
    <dc:creator>
     <cc:Agent>
      <dc:title>Matplotlib v3.9.1, https://matplotlib.org/</dc:title>
     </cc:Agent>
    </dc:creator>
   </cc:Work>
  </rdf:RDF>
 </metadata>
 <defs>
  <style type="text/css">*{stroke-linejoin: round; stroke-linecap: butt}</style>
 </defs>
 <g id="figure_1">
  <g id="patch_1">
   <path d="M 0 345.6 
L 460.8 345.6 
L 460.8 0 
L 0 0 
z
" style="fill: #ffffff"/>
  </g>
  <g id="axes_1">
   <g id="patch_2">
    <path d="M 57.6 307.584 
L 347.941463 307.584 
L 347.941463 41.472 
L 57.6 41.472 
z
" style="fill: #ffffff"/>
   </g>
   <g id="patch_3">
    <path d="M 98.581211 303.221508 
L 98.581211 303.221508 
L 98.581211 303.221508 
L 98.581211 303.221508 
z
" clip-path="url(#p37980c7406)" style="fill: #7f7f7f; stroke: #3d3d3d; stroke-linejoin: miter"/>
   </g>
   <g id="patch_4">
    <path d="M 98.581211 303.221508 
L 98.581211 303.221508 
L 98.581211 303.221508 
L 98.581211 303.221508 
z
" clip-path="url(#p37980c7406)" style="fill: #3274a1; stroke: #3d3d3d; stroke-linejoin: miter"/>
   </g>
   <g id="patch_5">
    <path d="M 98.581211 303.221508 
L 98.581211 303.221508 
L 98.581211 303.221508 
L 98.581211 303.221508 
z
" clip-path="url(#p37980c7406)" style="fill: #e1812c; stroke: #3d3d3d; stroke-linejoin: miter"/>
   </g>
   <g id="patch_6">
    <path d="M 98.581211 303.221508 
L 98.581211 303.221508 
L 98.581211 303.221508 
L 98.581211 303.221508 
z
" clip-path="url(#p37980c7406)" style="fill: #3a923a; stroke: #3d3d3d; stroke-linejoin: miter"/>
   </g>
   <g id="patch_7">
    <path d="M 98.581211 303.221508 
L 98.581211 303.221508 
L 98.581211 303.221508 
L 98.581211 303.221508 
z
" clip-path="url(#p37980c7406)" style="fill: #c03d3e; stroke: #3d3d3d; stroke-linejoin: miter"/>
   </g>
   <g id="matplotlib.axis_1">
    <g id="xtick_1">
     <g id="line2d_1">
      <defs>
       <path id="mca6ab94a20" d="M 0 0 
L 0 3.5 
" style="stroke: #000000; stroke-width: 0.8"/>
      </defs>
      <g>
       <use xlink:href="#mca6ab94a20" x="98.581211" y="307.584" style="stroke: #000000; stroke-width: 0.8"/>
      </g>
     </g>
     <g id="text_1">
      <!-- 1 -->
      <g transform="translate(95.399961 322.182437) scale(0.1 -0.1)">
       <defs>
        <path id="DejaVuSans-31" d="M 794 531 
L 1825 531 
L 1825 4091 
L 703 3866 
L 703 4441 
L 1819 4666 
L 2450 4666 
L 2450 531 
L 3481 531 
L 3481 0 
L 794 0 
L 794 531 
z
" transform="scale(0.015625)"/>
       </defs>
       <use xlink:href="#DejaVuSans-31"/>
      </g>
     </g>
    </g>
    <g id="xtick_2">
     <g id="line2d_2">
      <g>
       <use xlink:href="#mca6ab94a20" x="168.040892" y="307.584" style="stroke: #000000; stroke-width: 0.8"/>
      </g>
     </g>
     <g id="text_2">
      <!-- 2 -->
      <g transform="translate(164.859642 322.182437) scale(0.1 -0.1)">
       <defs>
        <path id="DejaVuSans-32" d="M 1228 531 
L 3431 531 
L 3431 0 
L 469 0 
L 469 531 
Q 828 903 1448 1529 
Q 2069 2156 2228 2338 
Q 2531 2678 2651 2914 
Q 2772 3150 2772 3378 
Q 2772 3750 2511 3984 
Q 2250 4219 1831 4219 
Q 1534 4219 1204 4116 
Q 875 4013 500 3803 
L 500 4441 
Q 881 4594 1212 4672 
Q 1544 4750 1819 4750 
Q 2544 4750 2975 4387 
Q 3406 4025 3406 3419 
Q 3406 3131 3298 2873 
Q 3191 2616 2906 2266 
Q 2828 2175 2409 1742 
Q 1991 1309 1228 531 
z
" transform="scale(0.015625)"/>
       </defs>
       <use xlink:href="#DejaVuSans-32"/>
      </g>
     </g>
    </g>
    <g id="xtick_3">
     <g id="line2d_3">
      <g>
       <use xlink:href="#mca6ab94a20" x="237.500572" y="307.584" style="stroke: #000000; stroke-width: 0.8"/>
      </g>
     </g>
     <g id="text_3">
      <!-- 3 -->
      <g transform="translate(234.319322 322.182437) scale(0.1 -0.1)">
       <defs>
        <path id="DejaVuSans-33" d="M 2597 2516 
Q 3050 2419 3304 2112 
Q 3559 1806 3559 1356 
Q 3559 666 3084 287 
Q 2609 -91 1734 -91 
Q 1441 -91 1130 -33 
Q 819 25 488 141 
L 488 750 
Q 750 597 1062 519 
Q 1375 441 1716 441 
Q 2309 441 2620 675 
Q 2931 909 2931 1356 
Q 2931 1769 2642 2001 
Q 2353 2234 1838 2234 
L 1294 2234 
L 1294 2753 
L 1863 2753 
Q 2328 2753 2575 2939 
Q 2822 3125 2822 3475 
Q 2822 3834 2567 4026 
Q 2313 4219 1838 4219 
Q 1578 4219 1281 4162 
Q 984 4106 628 3988 
L 628 4550 
Q 988 4650 1302 4700 
Q 1616 4750 1894 4750 
Q 2613 4750 3031 4423 
Q 3450 4097 3450 3541 
Q 3450 3153 3228 2886 
Q 3006 2619 2597 2516 
z
" transform="scale(0.015625)"/>
       </defs>
       <use xlink:href="#DejaVuSans-33"/>
      </g>
     </g>
    </g>
    <g id="xtick_4">
     <g id="line2d_4">
      <g>
       <use xlink:href="#mca6ab94a20" x="306.960252" y="307.584" style="stroke: #000000; stroke-width: 0.8"/>
      </g>
     </g>
     <g id="text_4">
      <!-- 4 -->
      <g transform="translate(303.779002 322.182437) scale(0.1 -0.1)">
       <defs>
        <path id="DejaVuSans-34" d="M 2419 4116 
L 825 1625 
L 2419 1625 
L 2419 4116 
z
M 2253 4666 
L 3047 4666 
L 3047 1625 
L 3713 1625 
L 3713 1100 
L 3047 1100 
L 3047 0 
L 2419 0 
L 2419 1100 
L 313 1100 
L 313 1709 
L 2253 4666 
z
" transform="scale(0.015625)"/>
       </defs>
       <use xlink:href="#DejaVuSans-34"/>
      </g>
     </g>
    </g>
    <g id="text_5">
     <!-- overall_order -->
     <g transform="translate(169.944169 335.860562) scale(0.1 -0.1)">
      <defs>
       <path id="DejaVuSans-6f" d="M 1959 3097 
Q 1497 3097 1228 2736 
Q 959 2375 959 1747 
Q 959 1119 1226 758 
Q 1494 397 1959 397 
Q 2419 397 2687 759 
Q 2956 1122 2956 1747 
Q 2956 2369 2687 2733 
Q 2419 3097 1959 3097 
z
M 1959 3584 
Q 2709 3584 3137 3096 
Q 3566 2609 3566 1747 
Q 3566 888 3137 398 
Q 2709 -91 1959 -91 
Q 1206 -91 779 398 
Q 353 888 353 1747 
Q 353 2609 779 3096 
Q 1206 3584 1959 3584 
z
" transform="scale(0.015625)"/>
       <path id="DejaVuSans-76" d="M 191 3500 
L 800 3500 
L 1894 563 
L 2988 3500 
L 3597 3500 
L 2284 0 
L 1503 0 
L 191 3500 
z
" transform="scale(0.015625)"/>
       <path id="DejaVuSans-65" d="M 3597 1894 
L 3597 1613 
L 953 1613 
Q 991 1019 1311 708 
Q 1631 397 2203 397 
Q 2534 397 2845 478 
Q 3156 559 3463 722 
L 3463 178 
Q 3153 47 2828 -22 
Q 2503 -91 2169 -91 
Q 1331 -91 842 396 
Q 353 884 353 1716 
Q 353 2575 817 3079 
Q 1281 3584 2069 3584 
Q 2775 3584 3186 3129 
Q 3597 2675 3597 1894 
z
M 3022 2063 
Q 3016 2534 2758 2815 
Q 2500 3097 2075 3097 
Q 1594 3097 1305 2825 
Q 1016 2553 972 2059 
L 3022 2063 
z
" transform="scale(0.015625)"/>
       <path id="DejaVuSans-72" d="M 2631 2963 
Q 2534 3019 2420 3045 
Q 2306 3072 2169 3072 
Q 1681 3072 1420 2755 
Q 1159 2438 1159 1844 
L 1159 0 
L 581 0 
L 581 3500 
L 1159 3500 
L 1159 2956 
Q 1341 3275 1631 3429 
Q 1922 3584 2338 3584 
Q 2397 3584 2469 3576 
Q 2541 3569 2628 3553 
L 2631 2963 
z
" transform="scale(0.015625)"/>
       <path id="DejaVuSans-61" d="M 2194 1759 
Q 1497 1759 1228 1600 
Q 959 1441 959 1056 
Q 959 750 1161 570 
Q 1363 391 1709 391 
Q 2188 391 2477 730 
Q 2766 1069 2766 1631 
L 2766 1759 
L 2194 1759 
z
M 3341 1997 
L 3341 0 
L 2766 0 
L 2766 531 
Q 2569 213 2275 61 
Q 1981 -91 1556 -91 
Q 1019 -91 701 211 
Q 384 513 384 1019 
Q 384 1609 779 1909 
Q 1175 2209 1959 2209 
L 2766 2209 
L 2766 2266 
Q 2766 2663 2505 2880 
Q 2244 3097 1772 3097 
Q 1472 3097 1187 3025 
Q 903 2953 641 2809 
L 641 3341 
Q 956 3463 1253 3523 
Q 1550 3584 1831 3584 
Q 2591 3584 2966 3190 
Q 3341 2797 3341 1997 
z
" transform="scale(0.015625)"/>
       <path id="DejaVuSans-6c" d="M 603 4863 
L 1178 4863 
L 1178 0 
L 603 0 
L 603 4863 
z
" transform="scale(0.015625)"/>
       <path id="DejaVuSans-5f" d="M 3263 -1063 
L 3263 -1509 
L -63 -1509 
L -63 -1063 
L 3263 -1063 
z
" transform="scale(0.015625)"/>
       <path id="DejaVuSans-64" d="M 2906 2969 
L 2906 4863 
L 3481 4863 
L 3481 0 
L 2906 0 
L 2906 525 
Q 2725 213 2448 61 
Q 2172 -91 1784 -91 
Q 1150 -91 751 415 
Q 353 922 353 1747 
Q 353 2572 751 3078 
Q 1150 3584 1784 3584 
Q 2172 3584 2448 3432 
Q 2725 3281 2906 2969 
z
M 947 1747 
Q 947 1113 1208 752 
Q 1469 391 1925 391 
Q 2381 391 2643 752 
Q 2906 1113 2906 1747 
Q 2906 2381 2643 2742 
Q 2381 3103 1925 3103 
Q 1469 3103 1208 2742 
Q 947 2381 947 1747 
z
" transform="scale(0.015625)"/>
      </defs>
      <use xlink:href="#DejaVuSans-6f"/>
      <use xlink:href="#DejaVuSans-76" x="61.181641"/>
      <use xlink:href="#DejaVuSans-65" x="120.361328"/>
      <use xlink:href="#DejaVuSans-72" x="181.884766"/>
      <use xlink:href="#DejaVuSans-61" x="222.998047"/>
      <use xlink:href="#DejaVuSans-6c" x="284.277344"/>
      <use xlink:href="#DejaVuSans-6c" x="312.060547"/>
      <use xlink:href="#DejaVuSans-5f" x="339.84375"/>
      <use xlink:href="#DejaVuSans-6f" x="389.84375"/>
      <use xlink:href="#DejaVuSans-72" x="451.025391"/>
      <use xlink:href="#DejaVuSans-64" x="490.388672"/>
      <use xlink:href="#DejaVuSans-65" x="553.865234"/>
      <use xlink:href="#DejaVuSans-72" x="615.388672"/>
     </g>
    </g>
   </g>
   <g id="matplotlib.axis_2">
    <g id="ytick_1">
     <g id="line2d_5">
      <defs>
       <path id="m5f45a1159f" d="M 0 0 
L -3.5 0 
" style="stroke: #000000; stroke-width: 0.8"/>
      </defs>
      <g>
       <use xlink:href="#m5f45a1159f" x="57.6" y="303.221508" style="stroke: #000000; stroke-width: 0.8"/>
      </g>
     </g>
     <g id="text_6">
      <!-- 0.0 -->
      <g transform="translate(34.696875 307.020727) scale(0.1 -0.1)">
       <defs>
        <path id="DejaVuSans-30" d="M 2034 4250 
Q 1547 4250 1301 3770 
Q 1056 3291 1056 2328 
Q 1056 1369 1301 889 
Q 1547 409 2034 409 
Q 2525 409 2770 889 
Q 3016 1369 3016 2328 
Q 3016 3291 2770 3770 
Q 2525 4250 2034 4250 
z
M 2034 4750 
Q 2819 4750 3233 4129 
Q 3647 3509 3647 2328 
Q 3647 1150 3233 529 
Q 2819 -91 2034 -91 
Q 1250 -91 836 529 
Q 422 1150 422 2328 
Q 422 3509 836 4129 
Q 1250 4750 2034 4750 
z
" transform="scale(0.015625)"/>
        <path id="DejaVuSans-2e" d="M 684 794 
L 1344 794 
L 1344 0 
L 684 0 
L 684 794 
z
" transform="scale(0.015625)"/>
       </defs>
       <use xlink:href="#DejaVuSans-30"/>
       <use xlink:href="#DejaVuSans-2e" x="63.623047"/>
       <use xlink:href="#DejaVuSans-30" x="95.410156"/>
      </g>
     </g>
    </g>
    <g id="ytick_2">
     <g id="line2d_6">
      <g>
       <use xlink:href="#m5f45a1159f" x="57.6" y="259.59659" style="stroke: #000000; stroke-width: 0.8"/>
      </g>
     </g>
     <g id="text_7">
      <!-- 0.1 -->
      <g transform="translate(34.696875 263.395809) scale(0.1 -0.1)">
       <use xlink:href="#DejaVuSans-30"/>
       <use xlink:href="#DejaVuSans-2e" x="63.623047"/>
       <use xlink:href="#DejaVuSans-31" x="95.410156"/>
      </g>
     </g>
    </g>
    <g id="ytick_3">
     <g id="line2d_7">
      <g>
       <use xlink:href="#m5f45a1159f" x="57.6" y="215.971672" style="stroke: #000000; stroke-width: 0.8"/>
      </g>
     </g>
     <g id="text_8">
      <!-- 0.2 -->
      <g transform="translate(34.696875 219.770891) scale(0.1 -0.1)">
       <use xlink:href="#DejaVuSans-30"/>
       <use xlink:href="#DejaVuSans-2e" x="63.623047"/>
       <use xlink:href="#DejaVuSans-32" x="95.410156"/>
      </g>
     </g>
    </g>
    <g id="ytick_4">
     <g id="line2d_8">
      <g>
       <use xlink:href="#m5f45a1159f" x="57.6" y="172.346754" style="stroke: #000000; stroke-width: 0.8"/>
      </g>
     </g>
     <g id="text_9">
      <!-- 0.3 -->
      <g transform="translate(34.696875 176.145973) scale(0.1 -0.1)">
       <use xlink:href="#DejaVuSans-30"/>
       <use xlink:href="#DejaVuSans-2e" x="63.623047"/>
       <use xlink:href="#DejaVuSans-33" x="95.410156"/>
      </g>
     </g>
    </g>
    <g id="ytick_5">
     <g id="line2d_9">
      <g>
       <use xlink:href="#m5f45a1159f" x="57.6" y="128.721836" style="stroke: #000000; stroke-width: 0.8"/>
      </g>
     </g>
     <g id="text_10">
      <!-- 0.4 -->
      <g transform="translate(34.696875 132.521055) scale(0.1 -0.1)">
       <use xlink:href="#DejaVuSans-30"/>
       <use xlink:href="#DejaVuSans-2e" x="63.623047"/>
       <use xlink:href="#DejaVuSans-34" x="95.410156"/>
      </g>
     </g>
    </g>
    <g id="ytick_6">
     <g id="line2d_10">
      <g>
       <use xlink:href="#m5f45a1159f" x="57.6" y="85.096918" style="stroke: #000000; stroke-width: 0.8"/>
      </g>
     </g>
     <g id="text_11">
      <!-- 0.5 -->
      <g transform="translate(34.696875 88.896137) scale(0.1 -0.1)">
       <defs>
        <path id="DejaVuSans-35" d="M 691 4666 
L 3169 4666 
L 3169 4134 
L 1269 4134 
L 1269 2991 
Q 1406 3038 1543 3061 
Q 1681 3084 1819 3084 
Q 2600 3084 3056 2656 
Q 3513 2228 3513 1497 
Q 3513 744 3044 326 
Q 2575 -91 1722 -91 
Q 1428 -91 1123 -41 
Q 819 9 494 109 
L 494 744 
Q 775 591 1075 516 
Q 1375 441 1709 441 
Q 2250 441 2565 725 
Q 2881 1009 2881 1497 
Q 2881 1984 2565 2268 
Q 2250 2553 1709 2553 
Q 1456 2553 1204 2497 
Q 953 2441 691 2322 
L 691 4666 
z
" transform="scale(0.015625)"/>
       </defs>
       <use xlink:href="#DejaVuSans-30"/>
       <use xlink:href="#DejaVuSans-2e" x="63.623047"/>
       <use xlink:href="#DejaVuSans-35" x="95.410156"/>
      </g>
     </g>
    </g>
    <g id="ytick_7">
     <g id="line2d_11">
      <g>
       <use xlink:href="#m5f45a1159f" x="57.6" y="41.472" style="stroke: #000000; stroke-width: 0.8"/>
      </g>
     </g>
     <g id="text_12">
      <!-- 0.6 -->
      <g transform="translate(34.696875 45.271219) scale(0.1 -0.1)">
       <defs>
        <path id="DejaVuSans-36" d="M 2113 2584 
Q 1688 2584 1439 2293 
Q 1191 2003 1191 1497 
Q 1191 994 1439 701 
Q 1688 409 2113 409 
Q 2538 409 2786 701 
Q 3034 994 3034 1497 
Q 3034 2003 2786 2293 
Q 2538 2584 2113 2584 
z
M 3366 4563 
L 3366 3988 
Q 3128 4100 2886 4159 
Q 2644 4219 2406 4219 
Q 1781 4219 1451 3797 
Q 1122 3375 1075 2522 
Q 1259 2794 1537 2939 
Q 1816 3084 2150 3084 
Q 2853 3084 3261 2657 
Q 3669 2231 3669 1497 
Q 3669 778 3244 343 
Q 2819 -91 2113 -91 
Q 1303 -91 875 529 
Q 447 1150 447 2328 
Q 447 3434 972 4092 
Q 1497 4750 2381 4750 
Q 2619 4750 2861 4703 
Q 3103 4656 3366 4563 
z
" transform="scale(0.015625)"/>
       </defs>
       <use xlink:href="#DejaVuSans-30"/>
       <use xlink:href="#DejaVuSans-2e" x="63.623047"/>
       <use xlink:href="#DejaVuSans-36" x="95.410156"/>
      </g>
     </g>
    </g>
    <g id="text_13">
     <!-- fitness -->
     <g transform="translate(28.617187 191.092062) rotate(-90) scale(0.1 -0.1)">
      <defs>
       <path id="DejaVuSans-66" d="M 2375 4863 
L 2375 4384 
L 1825 4384 
Q 1516 4384 1395 4259 
Q 1275 4134 1275 3809 
L 1275 3500 
L 2222 3500 
L 2222 3053 
L 1275 3053 
L 1275 0 
L 697 0 
L 697 3053 
L 147 3053 
L 147 3500 
L 697 3500 
L 697 3744 
Q 697 4328 969 4595 
Q 1241 4863 1831 4863 
L 2375 4863 
z
" transform="scale(0.015625)"/>
       <path id="DejaVuSans-69" d="M 603 3500 
L 1178 3500 
L 1178 0 
L 603 0 
L 603 3500 
z
M 603 4863 
L 1178 4863 
L 1178 4134 
L 603 4134 
L 603 4863 
z
" transform="scale(0.015625)"/>
       <path id="DejaVuSans-74" d="M 1172 4494 
L 1172 3500 
L 2356 3500 
L 2356 3053 
L 1172 3053 
L 1172 1153 
Q 1172 725 1289 603 
Q 1406 481 1766 481 
L 2356 481 
L 2356 0 
L 1766 0 
Q 1100 0 847 248 
Q 594 497 594 1153 
L 594 3053 
L 172 3053 
L 172 3500 
L 594 3500 
L 594 4494 
L 1172 4494 
z
" transform="scale(0.015625)"/>
       <path id="DejaVuSans-6e" d="M 3513 2113 
L 3513 0 
L 2938 0 
L 2938 2094 
Q 2938 2591 2744 2837 
Q 2550 3084 2163 3084 
Q 1697 3084 1428 2787 
Q 1159 2491 1159 1978 
L 1159 0 
L 581 0 
L 581 3500 
L 1159 3500 
L 1159 2956 
Q 1366 3272 1645 3428 
Q 1925 3584 2291 3584 
Q 2894 3584 3203 3211 
Q 3513 2838 3513 2113 
z
" transform="scale(0.015625)"/>
       <path id="DejaVuSans-73" d="M 2834 3397 
L 2834 2853 
Q 2591 2978 2328 3040 
Q 2066 3103 1784 3103 
Q 1356 3103 1142 2972 
Q 928 2841 928 2578 
Q 928 2378 1081 2264 
Q 1234 2150 1697 2047 
L 1894 2003 
Q 2506 1872 2764 1633 
Q 3022 1394 3022 966 
Q 3022 478 2636 193 
Q 2250 -91 1575 -91 
Q 1294 -91 989 -36 
Q 684 19 347 128 
L 347 722 
Q 666 556 975 473 
Q 1284 391 1588 391 
Q 1994 391 2212 530 
Q 2431 669 2431 922 
Q 2431 1156 2273 1281 
Q 2116 1406 1581 1522 
L 1381 1569 
Q 847 1681 609 1914 
Q 372 2147 372 2553 
Q 372 3047 722 3315 
Q 1072 3584 1716 3584 
Q 2034 3584 2315 3537 
Q 2597 3491 2834 3397 
z
" transform="scale(0.015625)"/>
      </defs>
      <use xlink:href="#DejaVuSans-66"/>
      <use xlink:href="#DejaVuSans-69" x="35.205078"/>
      <use xlink:href="#DejaVuSans-74" x="62.988281"/>
      <use xlink:href="#DejaVuSans-6e" x="102.197266"/>
      <use xlink:href="#DejaVuSans-65" x="165.576172"/>
      <use xlink:href="#DejaVuSans-73" x="227.099609"/>
      <use xlink:href="#DejaVuSans-73" x="279.199219"/>
     </g>
    </g>
   </g>
   <g id="patch_8">
    <path d="M 70.797339 298.859016 
L 81.910888 298.859016 
L 81.910888 255.670352 
L 70.797339 255.670352 
L 70.797339 298.859016 
z
" clip-path="url(#p37980c7406)" style="fill: #7f7f7f; stroke: #3d3d3d; stroke-linejoin: miter"/>
   </g>
   <g id="line2d_12">
    <path d="M 76.354114 298.859016 
L 76.354114 298.859016 
" clip-path="url(#p37980c7406)" style="fill: none; stroke: #3d3d3d"/>
   </g>
   <g id="line2d_13">
    <path d="M 76.354114 255.670352 
L 76.354114 193.046788 
" clip-path="url(#p37980c7406)" style="fill: none; stroke: #3d3d3d"/>
   </g>
   <g id="line2d_14">
    <path d="M 73.575726 298.859016 
L 79.132501 298.859016 
" clip-path="url(#p37980c7406)" style="fill: none; stroke: #3d3d3d; stroke-linecap: square"/>
   </g>
   <g id="line2d_15">
    <path d="M 73.575726 193.046788 
L 79.132501 193.046788 
" clip-path="url(#p37980c7406)" style="fill: none; stroke: #3d3d3d; stroke-linecap: square"/>
   </g>
   <g id="patch_9">
    <path d="M 140.257019 279.424116 
L 151.370568 279.424116 
L 151.370568 234.076019 
L 140.257019 234.076019 
L 140.257019 279.424116 
z
" clip-path="url(#p37980c7406)" style="fill: #7f7f7f; stroke: #3d3d3d; stroke-linejoin: miter"/>
   </g>
   <g id="line2d_16">
    <path d="M 145.813794 279.424116 
L 145.813794 298.859016 
" clip-path="url(#p37980c7406)" style="fill: none; stroke: #3d3d3d"/>
   </g>
   <g id="line2d_17">
    <path d="M 145.813794 234.076019 
L 145.813794 167.133577 
" clip-path="url(#p37980c7406)" style="fill: none; stroke: #3d3d3d"/>
   </g>
   <g id="line2d_18">
    <path d="M 143.035407 298.859016 
L 148.592181 298.859016 
" clip-path="url(#p37980c7406)" style="fill: none; stroke: #3d3d3d; stroke-linecap: square"/>
   </g>
   <g id="line2d_19">
    <path d="M 143.035407 167.133577 
L 148.592181 167.133577 
" clip-path="url(#p37980c7406)" style="fill: none; stroke: #3d3d3d; stroke-linecap: square"/>
   </g>
   <g id="patch_10">
    <path d="M 209.7167 272.945816 
L 220.830249 272.945816 
L 220.830249 200.604795 
L 209.7167 200.604795 
L 209.7167 272.945816 
z
" clip-path="url(#p37980c7406)" style="fill: #7f7f7f; stroke: #3d3d3d; stroke-linejoin: miter"/>
   </g>
   <g id="line2d_20">
    <path d="M 215.273474 272.945816 
L 215.273474 298.859016 
" clip-path="url(#p37980c7406)" style="fill: none; stroke: #3d3d3d"/>
   </g>
   <g id="line2d_21">
    <path d="M 215.273474 200.604795 
L 215.273474 106.669444 
" clip-path="url(#p37980c7406)" style="fill: none; stroke: #3d3d3d"/>
   </g>
   <g id="line2d_22">
    <path d="M 212.495087 298.859016 
L 218.051861 298.859016 
" clip-path="url(#p37980c7406)" style="fill: none; stroke: #3d3d3d; stroke-linecap: square"/>
   </g>
   <g id="line2d_23">
    <path d="M 212.495087 106.669444 
L 218.051861 106.669444 
" clip-path="url(#p37980c7406)" style="fill: none; stroke: #3d3d3d; stroke-linecap: square"/>
   </g>
   <g id="patch_11">
    <path d="M 279.17638 228.677427 
L 290.289929 228.677427 
L 290.289929 158.495847 
L 279.17638 158.495847 
L 279.17638 228.677427 
z
" clip-path="url(#p37980c7406)" style="fill: #7f7f7f; stroke: #3d3d3d; stroke-linejoin: miter"/>
   </g>
   <g id="line2d_24">
    <path d="M 284.733154 228.677427 
L 284.733154 294.54015 
" clip-path="url(#p37980c7406)" style="fill: none; stroke: #3d3d3d"/>
   </g>
   <g id="line2d_25">
    <path d="M 284.733154 158.495847 
L 284.733154 128.263787 
" clip-path="url(#p37980c7406)" style="fill: none; stroke: #3d3d3d"/>
   </g>
   <g id="line2d_26">
    <path d="M 281.954767 294.54015 
L 287.511542 294.54015 
" clip-path="url(#p37980c7406)" style="fill: none; stroke: #3d3d3d; stroke-linecap: square"/>
   </g>
   <g id="line2d_27">
    <path d="M 281.954767 128.263787 
L 287.511542 128.263787 
" clip-path="url(#p37980c7406)" style="fill: none; stroke: #3d3d3d; stroke-linecap: square"/>
   </g>
   <g id="patch_12">
    <path d="M 81.910888 298.859016 
L 93.024437 298.859016 
L 93.024437 215.180971 
L 81.910888 215.180971 
L 81.910888 298.859016 
z
" clip-path="url(#p37980c7406)" style="fill: #3274a1; stroke: #3d3d3d; stroke-linejoin: miter"/>
   </g>
   <g id="line2d_28">
    <path d="M 87.467663 298.859016 
L 87.467663 298.859016 
" clip-path="url(#p37980c7406)" style="fill: none; stroke: #3d3d3d"/>
   </g>
   <g id="line2d_29">
    <path d="M 87.467663 215.180971 
L 87.467663 180.09017 
" clip-path="url(#p37980c7406)" style="fill: none; stroke: #3d3d3d"/>
   </g>
   <g id="line2d_30">
    <path d="M 84.689275 298.859016 
L 90.24605 298.859016 
" clip-path="url(#p37980c7406)" style="fill: none; stroke: #3d3d3d; stroke-linecap: square"/>
   </g>
   <g id="line2d_31">
    <path d="M 84.689275 180.09017 
L 90.24605 180.09017 
" clip-path="url(#p37980c7406)" style="fill: none; stroke: #3d3d3d; stroke-linecap: square"/>
   </g>
   <g id="patch_13">
    <path d="M 151.370568 285.362558 
L 162.484117 285.362558 
L 162.484117 238.394881 
L 151.370568 238.394881 
L 151.370568 285.362558 
z
" clip-path="url(#p37980c7406)" style="fill: #3274a1; stroke: #3d3d3d; stroke-linejoin: miter"/>
   </g>
   <g id="line2d_32">
    <path d="M 156.927343 285.362558 
L 156.927343 298.859016 
" clip-path="url(#p37980c7406)" style="fill: none; stroke: #3d3d3d"/>
   </g>
   <g id="line2d_33">
    <path d="M 156.927343 238.394881 
L 156.927343 229.757151 
" clip-path="url(#p37980c7406)" style="fill: none; stroke: #3d3d3d"/>
   </g>
   <g id="line2d_34">
    <path d="M 154.148956 298.859016 
L 159.70573 298.859016 
" clip-path="url(#p37980c7406)" style="fill: none; stroke: #3d3d3d; stroke-linecap: square"/>
   </g>
   <g id="line2d_35">
    <path d="M 154.148956 229.757151 
L 159.70573 229.757151 
" clip-path="url(#p37980c7406)" style="fill: none; stroke: #3d3d3d; stroke-linecap: square"/>
   </g>
   <g id="patch_14">
    <path d="M 220.830249 264.308084 
L 231.943797 264.308084 
L 231.943797 201.684519 
L 220.830249 201.684519 
L 220.830249 264.308084 
z
" clip-path="url(#p37980c7406)" style="fill: #3274a1; stroke: #3d3d3d; stroke-linejoin: miter"/>
   </g>
   <g id="line2d_36">
    <path d="M 226.387023 264.308084 
L 226.387023 298.859016 
" clip-path="url(#p37980c7406)" style="fill: none; stroke: #3d3d3d"/>
   </g>
   <g id="line2d_37">
    <path d="M 226.387023 201.684519 
L 226.387023 173.611886 
" clip-path="url(#p37980c7406)" style="fill: none; stroke: #3d3d3d"/>
   </g>
   <g id="line2d_38">
    <path d="M 223.608636 298.859016 
L 229.16541 298.859016 
" clip-path="url(#p37980c7406)" style="fill: none; stroke: #3d3d3d; stroke-linecap: square"/>
   </g>
   <g id="line2d_39">
    <path d="M 223.608636 173.611886 
L 229.16541 173.611886 
" clip-path="url(#p37980c7406)" style="fill: none; stroke: #3d3d3d; stroke-linecap: square"/>
   </g>
   <g id="patch_15">
    <path d="M 93.024437 298.859016 
L 104.137986 298.859016 
L 104.137986 266.467517 
L 93.024437 266.467517 
L 93.024437 298.859016 
z
" clip-path="url(#p37980c7406)" style="fill: #e1812c; stroke: #3d3d3d; stroke-linejoin: miter"/>
   </g>
   <g id="line2d_40">
    <path d="M 98.581211 298.859016 
L 98.581211 298.859016 
" clip-path="url(#p37980c7406)" style="fill: none; stroke: #3d3d3d"/>
   </g>
   <g id="line2d_41">
    <path d="M 98.581211 266.467517 
L 98.581211 218.95998 
" clip-path="url(#p37980c7406)" style="fill: none; stroke: #3d3d3d"/>
   </g>
   <g id="line2d_42">
    <path d="M 95.802824 298.859016 
L 101.359599 298.859016 
" clip-path="url(#p37980c7406)" style="fill: none; stroke: #3d3d3d; stroke-linecap: square"/>
   </g>
   <g id="line2d_43">
    <path d="M 95.802824 218.95998 
L 101.359599 218.95998 
" clip-path="url(#p37980c7406)" style="fill: none; stroke: #3d3d3d; stroke-linecap: square"/>
   </g>
   <g id="patch_16">
    <path d="M 162.484117 292.380716 
L 173.597666 292.380716 
L 173.597666 262.148648 
L 162.484117 262.148648 
L 162.484117 292.380716 
z
" clip-path="url(#p37980c7406)" style="fill: #e1812c; stroke: #3d3d3d; stroke-linejoin: miter"/>
   </g>
   <g id="line2d_44">
    <path d="M 168.040892 292.380716 
L 168.040892 298.859016 
" clip-path="url(#p37980c7406)" style="fill: none; stroke: #3d3d3d"/>
   </g>
   <g id="line2d_45">
    <path d="M 168.040892 262.148648 
L 168.040892 227.597717 
" clip-path="url(#p37980c7406)" style="fill: none; stroke: #3d3d3d"/>
   </g>
   <g id="line2d_46">
    <path d="M 165.262504 298.859016 
L 170.819279 298.859016 
" clip-path="url(#p37980c7406)" style="fill: none; stroke: #3d3d3d; stroke-linecap: square"/>
   </g>
   <g id="line2d_47">
    <path d="M 165.262504 227.597717 
L 170.819279 227.597717 
" clip-path="url(#p37980c7406)" style="fill: none; stroke: #3d3d3d; stroke-linecap: square"/>
   </g>
   <g id="patch_17">
    <path d="M 231.943797 290.221283 
L 243.057346 290.221283 
L 243.057346 234.076019 
L 231.943797 234.076019 
L 231.943797 290.221283 
z
" clip-path="url(#p37980c7406)" style="fill: #e1812c; stroke: #3d3d3d; stroke-linejoin: miter"/>
   </g>
   <g id="line2d_48">
    <path d="M 237.500572 290.221283 
L 237.500572 294.54015 
" clip-path="url(#p37980c7406)" style="fill: none; stroke: #3d3d3d"/>
   </g>
   <g id="line2d_49">
    <path d="M 237.500572 234.076019 
L 237.500572 173.611886 
" clip-path="url(#p37980c7406)" style="fill: none; stroke: #3d3d3d"/>
   </g>
   <g id="line2d_50">
    <path d="M 234.722185 294.54015 
L 240.278959 294.54015 
" clip-path="url(#p37980c7406)" style="fill: none; stroke: #3d3d3d; stroke-linecap: square"/>
   </g>
   <g id="line2d_51">
    <path d="M 234.722185 173.611886 
L 240.278959 173.611886 
" clip-path="url(#p37980c7406)" style="fill: none; stroke: #3d3d3d; stroke-linecap: square"/>
   </g>
   <g id="patch_18">
    <path d="M 301.403478 279.424116 
L 312.517026 279.424116 
L 312.517026 266.467517 
L 301.403478 266.467517 
L 301.403478 279.424116 
z
" clip-path="url(#p37980c7406)" style="fill: #e1812c; stroke: #3d3d3d; stroke-linejoin: miter"/>
   </g>
   <g id="line2d_52">
    <path d="M 306.960252 279.424116 
L 306.960252 290.221283 
" clip-path="url(#p37980c7406)" style="fill: none; stroke: #3d3d3d"/>
   </g>
   <g id="line2d_53">
    <path d="M 306.960252 266.467517 
L 306.960252 266.467517 
" clip-path="url(#p37980c7406)" style="fill: none; stroke: #3d3d3d"/>
   </g>
   <g id="line2d_54">
    <path d="M 304.181865 290.221283 
L 309.738639 290.221283 
" clip-path="url(#p37980c7406)" style="fill: none; stroke: #3d3d3d; stroke-linecap: square"/>
   </g>
   <g id="line2d_55">
    <path d="M 304.181865 266.467517 
L 309.738639 266.467517 
" clip-path="url(#p37980c7406)" style="fill: none; stroke: #3d3d3d; stroke-linecap: square"/>
   </g>
   <g id="patch_19">
    <path d="M 104.137986 289.141566 
L 115.251535 289.141566 
L 115.251535 230.297008 
L 104.137986 230.297008 
L 104.137986 289.141566 
z
" clip-path="url(#p37980c7406)" style="fill: #3a923a; stroke: #3d3d3d; stroke-linejoin: miter"/>
   </g>
   <g id="line2d_56">
    <path d="M 109.69476 289.141566 
L 109.69476 298.859016 
" clip-path="url(#p37980c7406)" style="fill: none; stroke: #3d3d3d"/>
   </g>
   <g id="line2d_57">
    <path d="M 109.69476 230.297008 
L 109.69476 184.409051 
" clip-path="url(#p37980c7406)" style="fill: none; stroke: #3d3d3d"/>
   </g>
   <g id="line2d_58">
    <path d="M 106.916373 298.859016 
L 112.473147 298.859016 
" clip-path="url(#p37980c7406)" style="fill: none; stroke: #3d3d3d; stroke-linecap: square"/>
   </g>
   <g id="line2d_59">
    <path d="M 106.916373 184.409051 
L 112.473147 184.409051 
" clip-path="url(#p37980c7406)" style="fill: none; stroke: #3d3d3d; stroke-linecap: square"/>
   </g>
   <g id="patch_20">
    <path d="M 173.597666 257.829783 
L 184.711215 257.829783 
L 184.711215 203.843946 
L 173.597666 203.843946 
L 173.597666 257.829783 
z
" clip-path="url(#p37980c7406)" style="fill: #3a923a; stroke: #3d3d3d; stroke-linejoin: miter"/>
   </g>
   <g id="line2d_60">
    <path d="M 179.15444 257.829783 
L 179.15444 279.424116 
" clip-path="url(#p37980c7406)" style="fill: none; stroke: #3d3d3d"/>
   </g>
   <g id="line2d_61">
    <path d="M 179.15444 203.843946 
L 179.15444 171.452446 
" clip-path="url(#p37980c7406)" style="fill: none; stroke: #3d3d3d"/>
   </g>
   <g id="line2d_62">
    <path d="M 176.376053 279.424116 
L 181.932828 279.424116 
" clip-path="url(#p37980c7406)" style="fill: none; stroke: #3d3d3d; stroke-linecap: square"/>
   </g>
   <g id="line2d_63">
    <path d="M 176.376053 171.452446 
L 181.932828 171.452446 
" clip-path="url(#p37980c7406)" style="fill: none; stroke: #3d3d3d; stroke-linecap: square"/>
   </g>
   <g id="patch_21">
    <path d="M 243.057346 263.228366 
L 254.170895 263.228366 
L 254.170895 198.445362 
L 243.057346 198.445362 
L 243.057346 263.228366 
z
" clip-path="url(#p37980c7406)" style="fill: #3a923a; stroke: #3d3d3d; stroke-linejoin: miter"/>
   </g>
   <g id="line2d_64">
    <path d="M 248.614121 263.228366 
L 248.614121 277.264683 
" clip-path="url(#p37980c7406)" style="fill: none; stroke: #3d3d3d"/>
   </g>
   <g id="line2d_65">
    <path d="M 248.614121 198.445362 
L 248.614121 147.698676 
" clip-path="url(#p37980c7406)" style="fill: none; stroke: #3d3d3d"/>
   </g>
   <g id="line2d_66">
    <path d="M 245.835733 277.264683 
L 251.392508 277.264683 
" clip-path="url(#p37980c7406)" style="fill: none; stroke: #3d3d3d; stroke-linecap: square"/>
   </g>
   <g id="line2d_67">
    <path d="M 245.835733 147.698676 
L 251.392508 147.698676 
" clip-path="url(#p37980c7406)" style="fill: none; stroke: #3d3d3d; stroke-linecap: square"/>
   </g>
   <g id="patch_22">
    <path d="M 312.517026 144.999384 
L 323.630575 144.999384 
L 323.630575 139.600802 
L 312.517026 139.600802 
L 312.517026 144.999384 
z
" clip-path="url(#p37980c7406)" style="fill: #3a923a; stroke: #3d3d3d; stroke-linejoin: miter"/>
   </g>
   <g id="line2d_68">
    <path d="M 318.073801 144.999384 
L 318.073801 147.698676 
" clip-path="url(#p37980c7406)" style="fill: none; stroke: #3d3d3d"/>
   </g>
   <g id="line2d_69">
    <path d="M 318.073801 139.600802 
L 318.073801 136.901511 
" clip-path="url(#p37980c7406)" style="fill: none; stroke: #3d3d3d"/>
   </g>
   <g id="line2d_70">
    <path d="M 315.295414 147.698676 
L 320.852188 147.698676 
" clip-path="url(#p37980c7406)" style="fill: none; stroke: #3d3d3d; stroke-linecap: square"/>
   </g>
   <g id="line2d_71">
    <path d="M 315.295414 136.901511 
L 320.852188 136.901511 
" clip-path="url(#p37980c7406)" style="fill: none; stroke: #3d3d3d; stroke-linecap: square"/>
   </g>
   <g id="patch_23">
    <path d="M 115.251535 298.859016 
L 126.365083 298.859016 
L 126.365083 257.829783 
L 115.251535 257.829783 
L 115.251535 298.859016 
z
" clip-path="url(#p37980c7406)" style="fill: #c03d3e; stroke: #3d3d3d; stroke-linejoin: miter"/>
   </g>
   <g id="line2d_72">
    <path d="M 120.808309 298.859016 
L 120.808309 298.859016 
" clip-path="url(#p37980c7406)" style="fill: none; stroke: #3d3d3d"/>
   </g>
   <g id="line2d_73">
    <path d="M 120.808309 257.829783 
L 120.808309 197.365644 
" clip-path="url(#p37980c7406)" style="fill: none; stroke: #3d3d3d"/>
   </g>
   <g id="line2d_74">
    <path d="M 118.029922 298.859016 
L 123.586696 298.859016 
" clip-path="url(#p37980c7406)" style="fill: none; stroke: #3d3d3d; stroke-linecap: square"/>
   </g>
   <g id="line2d_75">
    <path d="M 118.029922 197.365644 
L 123.586696 197.365644 
" clip-path="url(#p37980c7406)" style="fill: none; stroke: #3d3d3d; stroke-linecap: square"/>
   </g>
   <g id="patch_24">
    <path d="M 184.711215 277.264683 
L 195.824764 277.264683 
L 195.824764 229.757151 
L 184.711215 229.757151 
L 184.711215 277.264683 
z
" clip-path="url(#p37980c7406)" style="fill: #c03d3e; stroke: #3d3d3d; stroke-linejoin: miter"/>
   </g>
   <g id="line2d_76">
    <path d="M 190.267989 277.264683 
L 190.267989 298.859016 
" clip-path="url(#p37980c7406)" style="fill: none; stroke: #3d3d3d"/>
   </g>
   <g id="line2d_77">
    <path d="M 190.267989 229.757151 
L 190.267989 171.452446 
" clip-path="url(#p37980c7406)" style="fill: none; stroke: #3d3d3d"/>
   </g>
   <g id="line2d_78">
    <path d="M 187.489602 298.859016 
L 193.046376 298.859016 
" clip-path="url(#p37980c7406)" style="fill: none; stroke: #3d3d3d; stroke-linecap: square"/>
   </g>
   <g id="line2d_79">
    <path d="M 187.489602 171.452446 
L 193.046376 171.452446 
" clip-path="url(#p37980c7406)" style="fill: none; stroke: #3d3d3d; stroke-linecap: square"/>
   </g>
   <g id="patch_25">
    <path d="M 254.170895 260.529075 
L 265.284444 260.529075 
L 265.284444 203.843946 
L 254.170895 203.843946 
L 254.170895 260.529075 
z
" clip-path="url(#p37980c7406)" style="fill: #c03d3e; stroke: #3d3d3d; stroke-linejoin: miter"/>
   </g>
   <g id="line2d_80">
    <path d="M 259.72767 260.529075 
L 259.72767 281.58355 
" clip-path="url(#p37980c7406)" style="fill: none; stroke: #3d3d3d"/>
   </g>
   <g id="line2d_81">
    <path d="M 259.72767 203.843946 
L 259.72767 164.974136 
" clip-path="url(#p37980c7406)" style="fill: none; stroke: #3d3d3d"/>
   </g>
   <g id="line2d_82">
    <path d="M 256.949282 281.58355 
L 262.506057 281.58355 
" clip-path="url(#p37980c7406)" style="fill: none; stroke: #3d3d3d; stroke-linecap: square"/>
   </g>
   <g id="line2d_83">
    <path d="M 256.949282 164.974136 
L 262.506057 164.974136 
" clip-path="url(#p37980c7406)" style="fill: none; stroke: #3d3d3d; stroke-linecap: square"/>
   </g>
   <g id="patch_26">
    <path d="M 323.630575 218.95998 
L 334.744124 218.95998 
L 334.744124 159.03571 
L 323.630575 159.03571 
L 323.630575 218.95998 
z
" clip-path="url(#p37980c7406)" style="fill: #c03d3e; stroke: #3d3d3d; stroke-linejoin: miter"/>
   </g>
   <g id="line2d_84">
    <path d="M 329.18735 218.95998 
L 329.18735 231.916579 
" clip-path="url(#p37980c7406)" style="fill: none; stroke: #3d3d3d"/>
   </g>
   <g id="line2d_85">
    <path d="M 329.18735 159.03571 
L 329.18735 128.263787 
" clip-path="url(#p37980c7406)" style="fill: none; stroke: #3d3d3d"/>
   </g>
   <g id="line2d_86">
    <path d="M 326.408963 231.916579 
L 331.965737 231.916579 
" clip-path="url(#p37980c7406)" style="fill: none; stroke: #3d3d3d; stroke-linecap: square"/>
   </g>
   <g id="line2d_87">
    <path d="M 326.408963 128.263787 
L 331.965737 128.263787 
" clip-path="url(#p37980c7406)" style="fill: none; stroke: #3d3d3d; stroke-linecap: square"/>
   </g>
   <g id="line2d_88">
    <path d="M 98.581211 108.872508 
L 98.581211 104.510017 
L 168.040892 104.510017 
L 168.040892 108.872508 
" clip-path="url(#p37980c7406)" style="fill: none; stroke: #000000; stroke-width: 1.5; stroke-linecap: square"/>
   </g>
   <g id="line2d_89">
    <path d="M 98.581211 281.58355 
L 168.040892 262.148648 
L 237.500572 245.952899 
L 306.960252 197.365644 
" clip-path="url(#p37980c7406)" style="fill: none; stroke-dasharray: 5.55,2.4; stroke-dashoffset: 0; stroke: #808080; stroke-opacity: 0.5; stroke-width: 1.5"/>
   </g>
   <g id="line2d_90">
    <path d="M 70.797339 281.58355 
L 81.910888 281.58355 
" clip-path="url(#p37980c7406)" style="fill: none; stroke: #3d3d3d"/>
   </g>
   <g id="line2d_91">
    <path d="M 140.257019 262.148648 
L 151.370568 262.148648 
" clip-path="url(#p37980c7406)" style="fill: none; stroke: #3d3d3d"/>
   </g>
   <g id="line2d_92">
    <path d="M 209.7167 245.952899 
L 220.830249 245.952899 
" clip-path="url(#p37980c7406)" style="fill: none; stroke: #3d3d3d"/>
   </g>
   <g id="line2d_93">
    <path d="M 279.17638 197.365644 
L 290.289929 197.365644 
" clip-path="url(#p37980c7406)" style="fill: none; stroke: #3d3d3d"/>
   </g>
   <g id="line2d_94">
    <path d="M 81.910888 261.068933 
L 93.024437 261.068933 
" clip-path="url(#p37980c7406)" style="fill: none; stroke: #3d3d3d"/>
   </g>
   <g id="line2d_95">
    <path d="M 151.370568 263.228365 
L 162.484117 263.228365 
" clip-path="url(#p37980c7406)" style="fill: none; stroke: #3d3d3d"/>
   </g>
   <g id="line2d_96">
    <path d="M 220.830249 229.757151 
L 231.943797 229.757151 
" clip-path="url(#p37980c7406)" style="fill: none; stroke: #3d3d3d"/>
   </g>
   <g id="line2d_97">
    <path d="M 93.024437 288.061849 
L 104.137986 288.061849 
" clip-path="url(#p37980c7406)" style="fill: none; stroke: #3d3d3d"/>
   </g>
   <g id="line2d_98">
    <path d="M 162.484117 272.945816 
L 173.597666 272.945816 
" clip-path="url(#p37980c7406)" style="fill: none; stroke: #3d3d3d"/>
   </g>
   <g id="line2d_99">
    <path d="M 231.943797 257.829783 
L 243.057346 257.829783 
" clip-path="url(#p37980c7406)" style="fill: none; stroke: #3d3d3d"/>
   </g>
   <g id="line2d_100">
    <path d="M 301.403478 275.10525 
L 312.517026 275.10525 
" clip-path="url(#p37980c7406)" style="fill: none; stroke: #3d3d3d"/>
   </g>
   <g id="line2d_101">
    <path d="M 104.137986 272.945816 
L 115.251535 272.945816 
" clip-path="url(#p37980c7406)" style="fill: none; stroke: #3d3d3d"/>
   </g>
   <g id="line2d_102">
    <path d="M 173.597666 244.873177 
L 184.711215 244.873177 
" clip-path="url(#p37980c7406)" style="fill: none; stroke: #3d3d3d"/>
   </g>
   <g id="line2d_103">
    <path d="M 243.057346 249.192049 
L 254.170895 249.192049 
" clip-path="url(#p37980c7406)" style="fill: none; stroke: #3d3d3d"/>
   </g>
   <g id="line2d_104">
    <path d="M 312.517026 142.300093 
L 323.630575 142.300093 
" clip-path="url(#p37980c7406)" style="fill: none; stroke: #3d3d3d"/>
   </g>
   <g id="line2d_105">
    <path d="M 115.251535 281.58355 
L 126.365083 281.58355 
" clip-path="url(#p37980c7406)" style="fill: none; stroke: #3d3d3d"/>
   </g>
   <g id="line2d_106">
    <path d="M 184.711215 253.510914 
L 195.824764 253.510914 
" clip-path="url(#p37980c7406)" style="fill: none; stroke: #3d3d3d"/>
   </g>
   <g id="line2d_107">
    <path d="M 254.170895 227.597713 
L 265.284444 227.597713 
" clip-path="url(#p37980c7406)" style="fill: none; stroke: #3d3d3d"/>
   </g>
   <g id="line2d_108">
    <path d="M 323.630575 191.967058 
L 334.744124 191.967058 
" clip-path="url(#p37980c7406)" style="fill: none; stroke: #3d3d3d"/>
   </g>
   <g id="patch_27">
    <path d="M 57.6 307.584 
L 57.6 41.472 
" style="fill: none; stroke: #000000; stroke-width: 0.8; stroke-linejoin: miter; stroke-linecap: square"/>
   </g>
   <g id="patch_28">
    <path d="M 57.6 307.584 
L 347.941463 307.584 
" style="fill: none; stroke: #000000; stroke-width: 0.8; stroke-linejoin: miter; stroke-linecap: square"/>
   </g>
   <g id="text_14">
    <!-- * -->
    <g transform="translate(130.811051 102.430329) scale(0.1 -0.1)">
     <defs>
      <path id="DejaVuSans-2a" d="M 3009 3897 
L 1888 3291 
L 3009 2681 
L 2828 2375 
L 1778 3009 
L 1778 1831 
L 1422 1831 
L 1422 3009 
L 372 2375 
L 191 2681 
L 1313 3291 
L 191 3897 
L 372 4206 
L 1422 3572 
L 1422 4750 
L 1778 4750 
L 1778 3572 
L 2828 4206 
L 3009 3897 
z
" transform="scale(0.015625)"/>
     </defs>
     <use xlink:href="#DejaVuSans-2a"/>
    </g>
   </g>
   <g id="legend_1">
    <g id="patch_29">
     <path d="M 64.6 78.82825 
L 292.590625 78.82825 
Q 294.590625 78.82825 294.590625 76.82825 
L 294.590625 48.472 
Q 294.590625 46.472 292.590625 46.472 
L 64.6 46.472 
Q 62.6 46.472 62.6 48.472 
L 62.6 76.82825 
Q 62.6 78.82825 64.6 78.82825 
z
" style="fill: #ffffff; opacity: 0.8; stroke: #cccccc; stroke-linejoin: miter"/>
    </g>
    <g id="patch_30">
     <path d="M 66.6 58.070437 
L 86.6 58.070437 
L 86.6 51.070437 
L 66.6 51.070437 
z
" style="fill: #7f7f7f; stroke: #3d3d3d; stroke-linejoin: miter"/>
    </g>
    <g id="text_15">
     <!-- ALL -->
     <g transform="translate(94.6 58.070437) scale(0.1 -0.1)">
      <defs>
       <path id="DejaVuSans-41" d="M 2188 4044 
L 1331 1722 
L 3047 1722 
L 2188 4044 
z
M 1831 4666 
L 2547 4666 
L 4325 0 
L 3669 0 
L 3244 1197 
L 1141 1197 
L 716 0 
L 50 0 
L 1831 4666 
z
" transform="scale(0.015625)"/>
       <path id="DejaVuSans-4c" d="M 628 4666 
L 1259 4666 
L 1259 531 
L 3531 531 
L 3531 0 
L 628 0 
L 628 4666 
z
" transform="scale(0.015625)"/>
      </defs>
      <use xlink:href="#DejaVuSans-41"/>
      <use xlink:href="#DejaVuSans-4c" x="68.408203"/>
      <use xlink:href="#DejaVuSans-4c" x="124.121094"/>
     </g>
    </g>
    <g id="patch_31">
     <path d="M 66.6 72.748562 
L 86.6 72.748562 
L 86.6 65.748562 
L 66.6 65.748562 
z
" style="fill: #3274a1; stroke: #3d3d3d; stroke-linejoin: miter"/>
    </g>
    <g id="text_16">
     <!-- ASXL1 -->
     <g transform="translate(94.6 72.748562) scale(0.1 -0.1)">
      <defs>
       <path id="DejaVuSans-53" d="M 3425 4513 
L 3425 3897 
Q 3066 4069 2747 4153 
Q 2428 4238 2131 4238 
Q 1616 4238 1336 4038 
Q 1056 3838 1056 3469 
Q 1056 3159 1242 3001 
Q 1428 2844 1947 2747 
L 2328 2669 
Q 3034 2534 3370 2195 
Q 3706 1856 3706 1288 
Q 3706 609 3251 259 
Q 2797 -91 1919 -91 
Q 1588 -91 1214 -16 
Q 841 59 441 206 
L 441 856 
Q 825 641 1194 531 
Q 1563 422 1919 422 
Q 2459 422 2753 634 
Q 3047 847 3047 1241 
Q 3047 1584 2836 1778 
Q 2625 1972 2144 2069 
L 1759 2144 
Q 1053 2284 737 2584 
Q 422 2884 422 3419 
Q 422 4038 858 4394 
Q 1294 4750 2059 4750 
Q 2388 4750 2728 4690 
Q 3069 4631 3425 4513 
z
" transform="scale(0.015625)"/>
       <path id="DejaVuSans-58" d="M 403 4666 
L 1081 4666 
L 2241 2931 
L 3406 4666 
L 4084 4666 
L 2584 2425 
L 4184 0 
L 3506 0 
L 2194 1984 
L 872 0 
L 191 0 
L 1856 2491 
L 403 4666 
z
" transform="scale(0.015625)"/>
      </defs>
      <use xlink:href="#DejaVuSans-41"/>
      <use xlink:href="#DejaVuSans-53" x="68.408203"/>
      <use xlink:href="#DejaVuSans-58" x="131.884766"/>
      <use xlink:href="#DejaVuSans-4c" x="200.390625"/>
      <use xlink:href="#DejaVuSans-31" x="256.103516"/>
     </g>
    </g>
    <g id="patch_32">
     <path d="M 146.573438 58.070437 
L 166.573438 58.070437 
L 166.573438 51.070437 
L 146.573438 51.070437 
z
" style="fill: #e1812c; stroke: #3d3d3d; stroke-linejoin: miter"/>
    </g>
    <g id="text_17">
     <!-- DNMT3A -->
     <g transform="translate(174.573438 58.070437) scale(0.1 -0.1)">
      <defs>
       <path id="DejaVuSans-44" d="M 1259 4147 
L 1259 519 
L 2022 519 
Q 2988 519 3436 956 
Q 3884 1394 3884 2338 
Q 3884 3275 3436 3711 
Q 2988 4147 2022 4147 
L 1259 4147 
z
M 628 4666 
L 1925 4666 
Q 3281 4666 3915 4102 
Q 4550 3538 4550 2338 
Q 4550 1131 3912 565 
Q 3275 0 1925 0 
L 628 0 
L 628 4666 
z
" transform="scale(0.015625)"/>
       <path id="DejaVuSans-4e" d="M 628 4666 
L 1478 4666 
L 3547 763 
L 3547 4666 
L 4159 4666 
L 4159 0 
L 3309 0 
L 1241 3903 
L 1241 0 
L 628 0 
L 628 4666 
z
" transform="scale(0.015625)"/>
       <path id="DejaVuSans-4d" d="M 628 4666 
L 1569 4666 
L 2759 1491 
L 3956 4666 
L 4897 4666 
L 4897 0 
L 4281 0 
L 4281 4097 
L 3078 897 
L 2444 897 
L 1241 4097 
L 1241 0 
L 628 0 
L 628 4666 
z
" transform="scale(0.015625)"/>
       <path id="DejaVuSans-54" d="M -19 4666 
L 3928 4666 
L 3928 4134 
L 2272 4134 
L 2272 0 
L 1638 0 
L 1638 4134 
L -19 4134 
L -19 4666 
z
" transform="scale(0.015625)"/>
      </defs>
      <use xlink:href="#DejaVuSans-44"/>
      <use xlink:href="#DejaVuSans-4e" x="77.001953"/>
      <use xlink:href="#DejaVuSans-4d" x="151.806641"/>
      <use xlink:href="#DejaVuSans-54" x="238.085938"/>
      <use xlink:href="#DejaVuSans-33" x="299.169922"/>
      <use xlink:href="#DejaVuSans-41" x="362.792969"/>
     </g>
    </g>
    <g id="patch_33">
     <path d="M 146.573438 72.748562 
L 166.573438 72.748562 
L 166.573438 65.748562 
L 146.573438 65.748562 
z
" style="fill: #3a923a; stroke: #3d3d3d; stroke-linejoin: miter"/>
    </g>
    <g id="text_18">
     <!-- PPM1D -->
     <g transform="translate(174.573438 72.748562) scale(0.1 -0.1)">
      <defs>
       <path id="DejaVuSans-50" d="M 1259 4147 
L 1259 2394 
L 2053 2394 
Q 2494 2394 2734 2622 
Q 2975 2850 2975 3272 
Q 2975 3691 2734 3919 
Q 2494 4147 2053 4147 
L 1259 4147 
z
M 628 4666 
L 2053 4666 
Q 2838 4666 3239 4311 
Q 3641 3956 3641 3272 
Q 3641 2581 3239 2228 
Q 2838 1875 2053 1875 
L 1259 1875 
L 1259 0 
L 628 0 
L 628 4666 
z
" transform="scale(0.015625)"/>
      </defs>
      <use xlink:href="#DejaVuSans-50"/>
      <use xlink:href="#DejaVuSans-50" x="60.302734"/>
      <use xlink:href="#DejaVuSans-4d" x="120.605469"/>
      <use xlink:href="#DejaVuSans-31" x="206.884766"/>
      <use xlink:href="#DejaVuSans-44" x="270.507812"/>
     </g>
    </g>
    <g id="patch_34">
     <path d="M 237.69375 58.070437 
L 257.69375 58.070437 
L 257.69375 51.070437 
L 237.69375 51.070437 
z
" style="fill: #c03d3e; stroke: #3d3d3d; stroke-linejoin: miter"/>
    </g>
    <g id="text_19">
     <!-- TET2 -->
     <g transform="translate(265.69375 58.070437) scale(0.1 -0.1)">
      <defs>
       <path id="DejaVuSans-45" d="M 628 4666 
L 3578 4666 
L 3578 4134 
L 1259 4134 
L 1259 2753 
L 3481 2753 
L 3481 2222 
L 1259 2222 
L 1259 531 
L 3634 531 
L 3634 0 
L 628 0 
L 628 4666 
z
" transform="scale(0.015625)"/>
      </defs>
      <use xlink:href="#DejaVuSans-54"/>
      <use xlink:href="#DejaVuSans-45" x="61.083984"/>
      <use xlink:href="#DejaVuSans-54" x="124.267578"/>
      <use xlink:href="#DejaVuSans-32" x="185.351562"/>
     </g>
    </g>
   </g>
  </g>
  <g id="axes_2">
   <g id="patch_35">
    <path d="M 356.651707 307.584 
L 414.72 307.584 
L 414.72 41.472 
L 356.651707 41.472 
z
" style="fill: #ffffff"/>
   </g>
   <g id="PolyCollection_1">
    <defs>
     <path id="m596fc53d88" d="M 356.681628 26.452174 
L 356.651707 26.452174 
L 356.651707 24.837599 
L 356.651707 23.223024 
L 356.651707 21.608449 
L 356.651707 19.993874 
L 356.651707 18.379299 
L 356.651707 16.764724 
L 356.651707 15.150149 
L 356.651707 13.535574 
L 356.651707 11.920999 
L 356.651707 10.306425 
L 356.651707 8.69185 
L 356.651707 7.077275 
L 356.651707 5.4627 
L 356.651707 3.848125 
L 356.651707 2.23355 
L 356.651707 0.618975 
L 356.651707 -0.9956 
L 356.651707 -2.610175 
L 356.651707 -4.22475 
L 356.651707 -5.839325 
L 356.651707 -7.4539 
L 356.651707 -9.068475 
L 356.651707 -10.68305 
L 356.651707 -12.297624 
L 356.651707 -13.912199 
L 356.651707 -15.526774 
L 356.651707 -17.141349 
L 356.651707 -18.755924 
L 356.651707 -20.370499 
L 356.651707 -21.985074 
L 356.651707 -23.599649 
L 356.651707 -25.214224 
L 356.651707 -26.828799 
L 356.651707 -28.443374 
L 356.651707 -30.057949 
L 356.651707 -31.672524 
L 356.651707 -33.287099 
L 356.651707 -34.901674 
L 356.651707 -36.516248 
L 356.651707 -38.130823 
L 356.651707 -39.745398 
L 356.651707 -41.359973 
L 356.651707 -42.974548 
L 356.651707 -44.589123 
L 356.651707 -46.203698 
L 356.651707 -47.818273 
L 356.651707 -49.432848 
L 356.651707 -51.047423 
L 356.651707 -52.661998 
L 356.651707 -54.276573 
L 356.651707 -55.891148 
L 356.651707 -57.505723 
L 356.651707 -59.120297 
L 356.651707 -60.734872 
L 356.651707 -62.349447 
L 356.651707 -63.964022 
L 356.651707 -65.578597 
L 356.651707 -67.193172 
L 356.651707 -68.807747 
L 356.651707 -70.422322 
L 356.651707 -72.036897 
L 356.651707 -73.651472 
L 356.651707 -75.266047 
L 356.651707 -76.880622 
L 356.651707 -78.495197 
L 356.651707 -80.109772 
L 356.651707 -81.724347 
L 356.651707 -83.338921 
L 356.651707 -84.953496 
L 356.651707 -86.568071 
L 356.651707 -88.182646 
L 356.651707 -89.797221 
L 356.651707 -91.411796 
L 356.651707 -93.026371 
L 356.651707 -94.640946 
L 356.651707 -96.255521 
L 356.651707 -97.870096 
L 356.651707 -99.484671 
L 356.651707 -101.099246 
L 356.651707 -102.713821 
L 356.651707 -104.328396 
L 356.651707 -105.94297 
L 356.651707 -107.557545 
L 356.651707 -109.17212 
L 356.651707 -110.786695 
L 356.651707 -112.40127 
L 356.651707 -114.015845 
L 356.651707 -115.63042 
L 356.651707 -117.244995 
L 356.651707 -118.85957 
L 356.651707 -120.474145 
L 356.651707 -122.08872 
L 356.651707 -123.703295 
L 356.651707 -125.31787 
L 356.651707 -126.932445 
L 356.651707 -128.54702 
L 356.651707 -130.161594 
L 356.651707 -131.776169 
L 356.651707 -133.390744 
L 356.651707 -135.005319 
L 356.651707 -136.619894 
L 356.651707 -138.234469 
L 356.651707 -139.849044 
L 356.651707 -141.463619 
L 356.651707 -143.078194 
L 356.651707 -144.692769 
L 356.651707 -146.307344 
L 356.651707 -147.921919 
L 356.651707 -149.536494 
L 356.651707 -151.151069 
L 356.651707 -152.765643 
L 356.651707 -154.380218 
L 356.651707 -155.994793 
L 356.651707 -157.609368 
L 356.651707 -159.223943 
L 356.651707 -160.838518 
L 356.651707 -162.453093 
L 356.651707 -164.067668 
L 356.651707 -165.682243 
L 356.651707 -167.296818 
L 356.651707 -168.911393 
L 356.651707 -170.525968 
L 356.651707 -172.140543 
L 356.651707 -173.755118 
L 356.651707 -175.369693 
L 356.651707 -176.984267 
L 356.651707 -178.598842 
L 356.651707 -180.213417 
L 356.651707 -181.827992 
L 356.651707 -183.442567 
L 356.651707 -185.057142 
L 356.651707 -186.671717 
L 356.651707 -188.286292 
L 356.651707 -189.900867 
L 356.651707 -191.515442 
L 356.651707 -193.130017 
L 356.651707 -194.744592 
L 356.651707 -196.359167 
L 356.651707 -197.973742 
L 356.651707 -199.588316 
L 356.651707 -201.202891 
L 356.651707 -202.817466 
L 356.651707 -204.432041 
L 356.651707 -206.046616 
L 356.651707 -207.661191 
L 356.651707 -209.275766 
L 356.651707 -210.890341 
L 356.651707 -212.504916 
L 356.651707 -214.119491 
L 356.651707 -215.734066 
L 356.651707 -217.348641 
L 356.651707 -218.963216 
L 356.651707 -220.577791 
L 356.651707 -222.192366 
L 356.651707 -223.80694 
L 356.651707 -225.421515 
L 356.651707 -227.03609 
L 356.651707 -228.650665 
L 356.651707 -230.26524 
L 356.651707 -231.879815 
L 356.651707 -233.49439 
L 356.651707 -235.108965 
L 356.651707 -236.72354 
L 356.651707 -238.338115 
L 356.651707 -239.95269 
L 356.651707 -241.567265 
L 356.651707 -243.18184 
L 356.651707 -244.796415 
L 356.651707 -246.410989 
L 356.651707 -248.025564 
L 356.651707 -249.640139 
L 356.651707 -251.254714 
L 356.651707 -252.869289 
L 356.651707 -254.483864 
L 356.651707 -256.098439 
L 356.651707 -257.713014 
L 356.651707 -259.327589 
L 356.651707 -260.942164 
L 356.651707 -262.556739 
L 356.651707 -264.171314 
L 356.651707 -265.785889 
L 356.651707 -267.400464 
L 356.651707 -269.015039 
L 356.651707 -270.629613 
L 356.651707 -272.244188 
L 356.651707 -273.858763 
L 356.651707 -275.473338 
L 356.651707 -277.087913 
L 356.651707 -278.702488 
L 356.651707 -280.317063 
L 356.651707 -281.931638 
L 356.651707 -283.546213 
L 356.651707 -285.160788 
L 356.651707 -286.775363 
L 356.651707 -288.389938 
L 356.651707 -290.004513 
L 356.651707 -291.619088 
L 356.651707 -293.233662 
L 356.651707 -294.848237 
L 356.709605 -294.848237 
L 356.709605 -294.848237 
L 356.721858 -293.233662 
L 356.736387 -291.619088 
L 356.753545 -290.004513 
L 356.773724 -288.389938 
L 356.797359 -286.775363 
L 356.824928 -285.160788 
L 356.856953 -283.546213 
L 356.894 -281.931638 
L 356.93668 -280.317063 
L 356.985644 -278.702488 
L 357.041584 -277.087913 
L 357.105226 -275.473338 
L 357.177328 -273.858763 
L 357.258668 -272.244188 
L 357.350044 -270.629613 
L 357.452257 -269.015039 
L 357.566107 -267.400464 
L 357.692374 -265.785889 
L 357.831811 -264.171314 
L 357.985126 -262.556739 
L 358.152968 -260.942164 
L 358.335908 -259.327589 
L 358.53443 -257.713014 
L 358.748905 -256.098439 
L 358.979583 -254.483864 
L 359.226575 -252.869289 
L 359.489837 -251.254714 
L 359.769161 -249.640139 
L 360.064163 -248.025564 
L 360.374275 -246.410989 
L 360.698743 -244.796415 
L 361.036621 -243.18184 
L 361.386779 -241.567265 
L 361.747903 -239.95269 
L 362.118508 -238.338115 
L 362.496952 -236.72354 
L 362.881453 -235.108965 
L 363.27011 -233.49439 
L 363.660927 -231.879815 
L 364.051845 -230.26524 
L 364.440766 -228.650665 
L 364.825588 -227.03609 
L 365.204241 -225.421515 
L 365.574716 -223.80694 
L 365.935101 -222.192366 
L 366.283612 -220.577791 
L 366.618627 -218.963216 
L 366.938707 -217.348641 
L 367.242627 -215.734066 
L 367.52939 -214.119491 
L 367.79825 -212.504916 
L 368.048714 -210.890341 
L 368.280555 -209.275766 
L 368.493807 -207.661191 
L 368.688759 -206.046616 
L 368.86595 -204.432041 
L 369.026145 -202.817466 
L 369.17032 -201.202891 
L 369.299636 -199.588316 
L 369.415408 -197.973742 
L 369.519079 -196.359167 
L 369.612184 -194.744592 
L 369.696314 -193.130017 
L 369.773087 -191.515442 
L 369.84411 -189.900867 
L 369.910946 -188.286292 
L 369.975086 -186.671717 
L 370.037916 -185.057142 
L 370.100698 -183.442567 
L 370.16454 -181.827992 
L 370.230384 -180.213417 
L 370.298988 -178.598842 
L 370.370918 -176.984267 
L 370.446538 -175.369693 
L 370.526011 -173.755118 
L 370.609299 -172.140543 
L 370.696166 -170.525968 
L 370.786187 -168.911393 
L 370.87876 -167.296818 
L 370.973116 -165.682243 
L 371.068339 -164.067668 
L 371.163379 -162.453093 
L 371.257072 -160.838518 
L 371.348163 -159.223943 
L 371.435324 -157.609368 
L 371.517177 -155.994793 
L 371.592315 -154.380218 
L 371.65933 -152.765643 
L 371.716828 -151.151069 
L 371.763461 -149.536494 
L 371.797941 -147.921919 
L 371.819068 -146.307344 
L 371.825751 -144.692769 
L 371.817028 -143.078194 
L 371.792083 -141.463619 
L 371.750272 -139.849044 
L 371.69113 -138.234469 
L 371.614393 -136.619894 
L 371.520006 -135.005319 
L 371.408135 -133.390744 
L 371.27917 -131.776169 
L 371.133729 -130.161594 
L 370.972657 -128.54702 
L 370.79702 -126.932445 
L 370.608096 -125.31787 
L 370.407362 -123.703295 
L 370.196472 -122.08872 
L 369.977238 -120.474145 
L 369.751603 -118.85957 
L 369.52161 -117.244995 
L 369.289367 -115.63042 
L 369.057015 -114.015845 
L 368.826687 -112.40127 
L 368.60047 -110.786695 
L 368.380365 -109.17212 
L 368.168249 -107.557545 
L 367.965836 -105.94297 
L 367.774643 -104.328396 
L 367.595957 -102.713821 
L 367.430811 -101.099246 
L 367.279953 -99.484671 
L 367.143837 -97.870096 
L 367.022607 -96.255521 
L 366.916091 -94.640946 
L 366.823806 -93.026371 
L 366.744962 -91.411796 
L 366.678478 -89.797221 
L 366.623004 -88.182646 
L 366.576947 -86.568071 
L 366.538499 -84.953496 
L 366.505681 -83.338921 
L 366.476374 -81.724347 
L 366.448369 -80.109772 
L 366.419405 -78.495197 
L 366.38722 -76.880622 
L 366.349592 -75.266047 
L 366.304382 -73.651472 
L 366.24958 -72.036897 
L 366.183337 -70.422322 
L 366.104 -68.807747 
L 366.010146 -67.193172 
L 365.900602 -65.578597 
L 365.774463 -63.964022 
L 365.631107 -62.349447 
L 365.470202 -60.734872 
L 365.291702 -59.120297 
L 365.095849 -57.505723 
L 364.883155 -55.891148 
L 364.654393 -54.276573 
L 364.410571 -52.661998 
L 364.152913 -51.047423 
L 363.882828 -49.432848 
L 363.601883 -47.818273 
L 363.311769 -46.203698 
L 363.01427 -44.589123 
L 362.711233 -42.974548 
L 362.404529 -41.359973 
L 362.09603 -39.745398 
L 361.787575 -38.130823 
L 361.480943 -36.516248 
L 361.177831 -34.901674 
L 360.879831 -33.287099 
L 360.588413 -31.672524 
L 360.304909 -30.057949 
L 360.030504 -28.443374 
L 359.766225 -26.828799 
L 359.512941 -25.214224 
L 359.271357 -23.599649 
L 359.04202 -21.985074 
L 358.82532 -20.370499 
L 358.621499 -18.755924 
L 358.43066 -17.141349 
L 358.252775 -15.526774 
L 358.087697 -13.912199 
L 357.935175 -12.297624 
L 357.794866 -10.68305 
L 357.666347 -9.068475 
L 357.54913 -7.4539 
L 357.442674 -5.839325 
L 357.346397 -4.22475 
L 357.259692 -2.610175 
L 357.18193 -0.9956 
L 357.112479 0.618975 
L 357.050706 2.23355 
L 356.995986 3.848125 
L 356.947714 5.4627 
L 356.905301 7.077275 
L 356.868189 8.69185 
L 356.835846 10.306425 
L 356.807772 11.920999 
L 356.783503 13.535574 
L 356.762607 15.150149 
L 356.744687 16.764724 
L 356.72938 18.379299 
L 356.716358 19.993874 
L 356.705324 21.608449 
L 356.696011 23.223024 
L 356.688183 24.837599 
L 356.681628 26.452174 
z
" style="stroke: #873c2a"/>
    </defs>
    <g clip-path="url(#p4ca0a6b22a)">
     <use xlink:href="#m596fc53d88" x="0" y="345.6" style="fill: #873c2a; fill-opacity: 0.25; stroke: #873c2a"/>
    </g>
   </g>
   <g id="PolyCollection_2">
    <defs>
     <path id="m5ff70b7362" d="M 356.683348 10.214548 
L 356.651707 10.214548 
L 356.651707 8.513582 
L 356.651707 6.812617 
L 356.651707 5.111651 
L 356.651707 3.410685 
L 356.651707 1.70972 
L 356.651707 0.008754 
L 356.651707 -1.692211 
L 356.651707 -3.393177 
L 356.651707 -5.094142 
L 356.651707 -6.795108 
L 356.651707 -8.496073 
L 356.651707 -10.197039 
L 356.651707 -11.898004 
L 356.651707 -13.59897 
L 356.651707 -15.299935 
L 356.651707 -17.000901 
L 356.651707 -18.701866 
L 356.651707 -20.402832 
L 356.651707 -22.103798 
L 356.651707 -23.804763 
L 356.651707 -25.505729 
L 356.651707 -27.206694 
L 356.651707 -28.90766 
L 356.651707 -30.608625 
L 356.651707 -32.309591 
L 356.651707 -34.010556 
L 356.651707 -35.711522 
L 356.651707 -37.412487 
L 356.651707 -39.113453 
L 356.651707 -40.814418 
L 356.651707 -42.515384 
L 356.651707 -44.216349 
L 356.651707 -45.917315 
L 356.651707 -47.618281 
L 356.651707 -49.319246 
L 356.651707 -51.020212 
L 356.651707 -52.721177 
L 356.651707 -54.422143 
L 356.651707 -56.123108 
L 356.651707 -57.824074 
L 356.651707 -59.525039 
L 356.651707 -61.226005 
L 356.651707 -62.92697 
L 356.651707 -64.627936 
L 356.651707 -66.328901 
L 356.651707 -68.029867 
L 356.651707 -69.730833 
L 356.651707 -71.431798 
L 356.651707 -73.132764 
L 356.651707 -74.833729 
L 356.651707 -76.534695 
L 356.651707 -78.23566 
L 356.651707 -79.936626 
L 356.651707 -81.637591 
L 356.651707 -83.338557 
L 356.651707 -85.039522 
L 356.651707 -86.740488 
L 356.651707 -88.441453 
L 356.651707 -90.142419 
L 356.651707 -91.843384 
L 356.651707 -93.54435 
L 356.651707 -95.245316 
L 356.651707 -96.946281 
L 356.651707 -98.647247 
L 356.651707 -100.348212 
L 356.651707 -102.049178 
L 356.651707 -103.750143 
L 356.651707 -105.451109 
L 356.651707 -107.152074 
L 356.651707 -108.85304 
L 356.651707 -110.554005 
L 356.651707 -112.254971 
L 356.651707 -113.955936 
L 356.651707 -115.656902 
L 356.651707 -117.357868 
L 356.651707 -119.058833 
L 356.651707 -120.759799 
L 356.651707 -122.460764 
L 356.651707 -124.16173 
L 356.651707 -125.862695 
L 356.651707 -127.563661 
L 356.651707 -129.264626 
L 356.651707 -130.965592 
L 356.651707 -132.666557 
L 356.651707 -134.367523 
L 356.651707 -136.068488 
L 356.651707 -137.769454 
L 356.651707 -139.470419 
L 356.651707 -141.171385 
L 356.651707 -142.872351 
L 356.651707 -144.573316 
L 356.651707 -146.274282 
L 356.651707 -147.975247 
L 356.651707 -149.676213 
L 356.651707 -151.377178 
L 356.651707 -153.078144 
L 356.651707 -154.779109 
L 356.651707 -156.480075 
L 356.651707 -158.18104 
L 356.651707 -159.882006 
L 356.651707 -161.582971 
L 356.651707 -163.283937 
L 356.651707 -164.984903 
L 356.651707 -166.685868 
L 356.651707 -168.386834 
L 356.651707 -170.087799 
L 356.651707 -171.788765 
L 356.651707 -173.48973 
L 356.651707 -175.190696 
L 356.651707 -176.891661 
L 356.651707 -178.592627 
L 356.651707 -180.293592 
L 356.651707 -181.994558 
L 356.651707 -183.695523 
L 356.651707 -185.396489 
L 356.651707 -187.097454 
L 356.651707 -188.79842 
L 356.651707 -190.499386 
L 356.651707 -192.200351 
L 356.651707 -193.901317 
L 356.651707 -195.602282 
L 356.651707 -197.303248 
L 356.651707 -199.004213 
L 356.651707 -200.705179 
L 356.651707 -202.406144 
L 356.651707 -204.10711 
L 356.651707 -205.808075 
L 356.651707 -207.509041 
L 356.651707 -209.210006 
L 356.651707 -210.910972 
L 356.651707 -212.611938 
L 356.651707 -214.312903 
L 356.651707 -216.013869 
L 356.651707 -217.714834 
L 356.651707 -219.4158 
L 356.651707 -221.116765 
L 356.651707 -222.817731 
L 356.651707 -224.518696 
L 356.651707 -226.219662 
L 356.651707 -227.920627 
L 356.651707 -229.621593 
L 356.651707 -231.322558 
L 356.651707 -233.023524 
L 356.651707 -234.724489 
L 356.651707 -236.425455 
L 356.651707 -238.126421 
L 356.651707 -239.827386 
L 356.651707 -241.528352 
L 356.651707 -243.229317 
L 356.651707 -244.930283 
L 356.651707 -246.631248 
L 356.651707 -248.332214 
L 356.651707 -250.033179 
L 356.651707 -251.734145 
L 356.651707 -253.43511 
L 356.651707 -255.136076 
L 356.651707 -256.837041 
L 356.651707 -258.538007 
L 356.651707 -260.238972 
L 356.651707 -261.939938 
L 356.651707 -263.640904 
L 356.651707 -265.341869 
L 356.651707 -267.042835 
L 356.651707 -268.7438 
L 356.651707 -270.444766 
L 356.651707 -272.145731 
L 356.651707 -273.846697 
L 356.651707 -275.547662 
L 356.651707 -277.248628 
L 356.651707 -278.949593 
L 356.651707 -280.650559 
L 356.651707 -282.351524 
L 356.651707 -284.05249 
L 356.651707 -285.753456 
L 356.651707 -287.454421 
L 356.651707 -289.155387 
L 356.651707 -290.856352 
L 356.651707 -292.557318 
L 356.651707 -294.258283 
L 356.651707 -295.959249 
L 356.651707 -297.660214 
L 356.651707 -299.36118 
L 356.651707 -301.062145 
L 356.651707 -302.763111 
L 356.651707 -304.464076 
L 356.651707 -306.165042 
L 356.651707 -307.866007 
L 356.651707 -309.566973 
L 356.651707 -311.267939 
L 356.651707 -312.968904 
L 356.651707 -314.66987 
L 356.651707 -316.370835 
L 356.651707 -318.071801 
L 356.651707 -319.772766 
L 356.651707 -321.473732 
L 356.651707 -323.174697 
L 356.651707 -324.875663 
L 356.651707 -326.576628 
L 356.651707 -328.277594 
L 356.66159 -328.277594 
L 356.66159 -328.277594 
L 356.664665 -326.576628 
L 356.668566 -324.875663 
L 356.673471 -323.174697 
L 356.679587 -321.473732 
L 356.687146 -319.772766 
L 356.69641 -318.071801 
L 356.707665 -316.370835 
L 356.721219 -314.66987 
L 356.737401 -312.968904 
L 356.75655 -311.267939 
L 356.77901 -309.566973 
L 356.805121 -307.866007 
L 356.835208 -306.165042 
L 356.869563 -304.464076 
L 356.90844 -302.763111 
L 356.952035 -301.062145 
L 357.000474 -299.36118 
L 357.053797 -297.660214 
L 357.111954 -295.959249 
L 357.174785 -294.258283 
L 357.242024 -292.557318 
L 357.313291 -290.856352 
L 357.388094 -289.155387 
L 357.465836 -287.454421 
L 357.545828 -285.753456 
L 357.6273 -284.05249 
L 357.709422 -282.351524 
L 357.791326 -280.650559 
L 357.872129 -278.949593 
L 357.950959 -277.248628 
L 358.026978 -275.547662 
L 358.099408 -273.846697 
L 358.167547 -272.145731 
L 358.230789 -270.444766 
L 358.288633 -268.7438 
L 358.340694 -267.042835 
L 358.386699 -265.341869 
L 358.426488 -263.640904 
L 358.460006 -261.939938 
L 358.487291 -260.238972 
L 358.50846 -258.538007 
L 358.523698 -256.837041 
L 358.53324 -255.136076 
L 358.537365 -253.43511 
L 358.536378 -251.734145 
L 358.530613 -250.033179 
L 358.520424 -248.332214 
L 358.506193 -246.631248 
L 358.488333 -244.930283 
L 358.467297 -243.229317 
L 358.443593 -241.528352 
L 358.417798 -239.827386 
L 358.390568 -238.126421 
L 358.362654 -236.425455 
L 358.334911 -234.724489 
L 358.308302 -233.023524 
L 358.283906 -231.322558 
L 358.262909 -229.621593 
L 358.246599 -227.920627 
L 358.236354 -226.219662 
L 358.23362 -224.518696 
L 358.239889 -222.817731 
L 358.256679 -221.116765 
L 358.285496 -219.4158 
L 358.32781 -217.714834 
L 358.385022 -216.013869 
L 358.458432 -214.312903 
L 358.549213 -212.611938 
L 358.658376 -210.910972 
L 358.786749 -209.210006 
L 358.934954 -207.509041 
L 359.103383 -205.808075 
L 359.292186 -204.10711 
L 359.501258 -202.406144 
L 359.730232 -200.705179 
L 359.978477 -199.004213 
L 360.245104 -197.303248 
L 360.528976 -195.602282 
L 360.828726 -193.901317 
L 361.142782 -192.200351 
L 361.469396 -190.499386 
L 361.806686 -188.79842 
L 362.152672 -187.097454 
L 362.50533 -185.396489 
L 362.862634 -183.695523 
L 363.222608 -181.994558 
L 363.583373 -180.293592 
L 363.943182 -178.592627 
L 364.30046 -176.891661 
L 364.653825 -175.190696 
L 365.002102 -173.48973 
L 365.344324 -171.788765 
L 365.679726 -170.087799 
L 366.007719 -168.386834 
L 366.327866 -166.685868 
L 366.639841 -164.984903 
L 366.943395 -163.283937 
L 367.238311 -161.582971 
L 367.524375 -159.882006 
L 367.80134 -158.18104 
L 368.068911 -156.480075 
L 368.326736 -154.779109 
L 368.574412 -153.078144 
L 368.811503 -151.377178 
L 369.037568 -149.676213 
L 369.252207 -147.975247 
L 369.455102 -146.274282 
L 369.646072 -144.573316 
L 369.825125 -142.872351 
L 369.992502 -141.171385 
L 370.148722 -139.470419 
L 370.294604 -137.769454 
L 370.431292 -136.068488 
L 370.560245 -134.367523 
L 370.683231 -132.666557 
L 370.802291 -130.965592 
L 370.919692 -129.264626 
L 371.037873 -127.563661 
L 371.159371 -125.862695 
L 371.286745 -124.16173 
L 371.422491 -122.460764 
L 371.568963 -120.759799 
L 371.728286 -119.058833 
L 371.902283 -117.357868 
L 372.0924 -115.656902 
L 372.299655 -113.955936 
L 372.524584 -112.254971 
L 372.76721 -110.554005 
L 373.027027 -108.85304 
L 373.302991 -107.152074 
L 373.593533 -105.451109 
L 373.896578 -103.750143 
L 374.209584 -102.049178 
L 374.529578 -100.348212 
L 374.853214 -98.647247 
L 375.176817 -96.946281 
L 375.496449 -95.245316 
L 375.80796 -93.54435 
L 376.107044 -91.843384 
L 376.38929 -90.142419 
L 376.650234 -88.441453 
L 376.885406 -86.740488 
L 377.090369 -85.039522 
L 377.260771 -83.338557 
L 377.392385 -81.637591 
L 377.481157 -79.936626 
L 377.523261 -78.23566 
L 377.515155 -76.534695 
L 377.45364 -74.833729 
L 377.335936 -73.132764 
L 377.159746 -71.431798 
L 376.923338 -69.730833 
L 376.625616 -68.029867 
L 376.266189 -66.328901 
L 375.845435 -64.627936 
L 375.364554 -62.92697 
L 374.825594 -61.226005 
L 374.231472 -59.525039 
L 373.585964 -57.824074 
L 372.89367 -56.123108 
L 372.159958 -54.422143 
L 371.390875 -52.721177 
L 370.593046 -51.020212 
L 369.773542 -49.319246 
L 368.939736 -47.618281 
L 368.099145 -45.917315 
L 367.259271 -44.216349 
L 366.427438 -42.515384 
L 365.610634 -40.814418 
L 364.815366 -39.113453 
L 364.047537 -37.412487 
L 363.312337 -35.711522 
L 362.614162 -34.010556 
L 361.956561 -32.309591 
L 361.34221 -30.608625 
L 360.772909 -28.90766 
L 360.249613 -27.206694 
L 359.772477 -25.505729 
L 359.340925 -23.804763 
L 358.953736 -22.103798 
L 358.609135 -20.402832 
L 358.304895 -18.701866 
L 358.03844 -17.000901 
L 357.806947 -15.299935 
L 357.607438 -13.59897 
L 357.436872 -11.898004 
L 357.292216 -10.197039 
L 357.170518 -8.496073 
L 357.068954 -6.795108 
L 356.984872 -5.094142 
L 356.91582 -3.393177 
L 356.859566 -1.692211 
L 356.814106 0.008754 
L 356.777662 1.70972 
L 356.748681 3.410685 
L 356.725819 5.111651 
L 356.707929 6.812617 
L 356.694042 8.513582 
L 356.683348 10.214548 
z
" style="stroke: #cfb5af"/>
    </defs>
    <g clip-path="url(#p4ca0a6b22a)">
     <use xlink:href="#m5ff70b7362" x="0" y="345.6" style="fill: #cfb5af; fill-opacity: 0.25; stroke: #cfb5af"/>
    </g>
   </g>
   <g id="PolyCollection_3">
    <defs>
     <path id="m507516c62f" d="M 356.781865 -10.878339 
L 356.651707 -10.878339 
L 356.651707 -12.32391 
L 356.651707 -13.769481 
L 356.651707 -15.215052 
L 356.651707 -16.660623 
L 356.651707 -18.106194 
L 356.651707 -19.551765 
L 356.651707 -20.997336 
L 356.651707 -22.442907 
L 356.651707 -23.888478 
L 356.651707 -25.334049 
L 356.651707 -26.77962 
L 356.651707 -28.225191 
L 356.651707 -29.670762 
L 356.651707 -31.116333 
L 356.651707 -32.561904 
L 356.651707 -34.007475 
L 356.651707 -35.453046 
L 356.651707 -36.898617 
L 356.651707 -38.344188 
L 356.651707 -39.789759 
L 356.651707 -41.23533 
L 356.651707 -42.680901 
L 356.651707 -44.126472 
L 356.651707 -45.572043 
L 356.651707 -47.017614 
L 356.651707 -48.463185 
L 356.651707 -49.908756 
L 356.651707 -51.354327 
L 356.651707 -52.799898 
L 356.651707 -54.245469 
L 356.651707 -55.69104 
L 356.651707 -57.136611 
L 356.651707 -58.582182 
L 356.651707 -60.027753 
L 356.651707 -61.473324 
L 356.651707 -62.918895 
L 356.651707 -64.364466 
L 356.651707 -65.810037 
L 356.651707 -67.255608 
L 356.651707 -68.701179 
L 356.651707 -70.14675 
L 356.651707 -71.592321 
L 356.651707 -73.037892 
L 356.651707 -74.483463 
L 356.651707 -75.929034 
L 356.651707 -77.374605 
L 356.651707 -78.820176 
L 356.651707 -80.265747 
L 356.651707 -81.711318 
L 356.651707 -83.156889 
L 356.651707 -84.60246 
L 356.651707 -86.048031 
L 356.651707 -87.493602 
L 356.651707 -88.939173 
L 356.651707 -90.384745 
L 356.651707 -91.830316 
L 356.651707 -93.275887 
L 356.651707 -94.721458 
L 356.651707 -96.167029 
L 356.651707 -97.6126 
L 356.651707 -99.058171 
L 356.651707 -100.503742 
L 356.651707 -101.949313 
L 356.651707 -103.394884 
L 356.651707 -104.840455 
L 356.651707 -106.286026 
L 356.651707 -107.731597 
L 356.651707 -109.177168 
L 356.651707 -110.622739 
L 356.651707 -112.06831 
L 356.651707 -113.513881 
L 356.651707 -114.959452 
L 356.651707 -116.405023 
L 356.651707 -117.850594 
L 356.651707 -119.296165 
L 356.651707 -120.741736 
L 356.651707 -122.187307 
L 356.651707 -123.632878 
L 356.651707 -125.078449 
L 356.651707 -126.52402 
L 356.651707 -127.969591 
L 356.651707 -129.415162 
L 356.651707 -130.860733 
L 356.651707 -132.306304 
L 356.651707 -133.751875 
L 356.651707 -135.197446 
L 356.651707 -136.643017 
L 356.651707 -138.088588 
L 356.651707 -139.534159 
L 356.651707 -140.97973 
L 356.651707 -142.425301 
L 356.651707 -143.870872 
L 356.651707 -145.316443 
L 356.651707 -146.762014 
L 356.651707 -148.207585 
L 356.651707 -149.653156 
L 356.651707 -151.098727 
L 356.651707 -152.544298 
L 356.651707 -153.989869 
L 356.651707 -155.43544 
L 356.651707 -156.881011 
L 356.651707 -158.326582 
L 356.651707 -159.772153 
L 356.651707 -161.217724 
L 356.651707 -162.663295 
L 356.651707 -164.108866 
L 356.651707 -165.554437 
L 356.651707 -167.000008 
L 356.651707 -168.445579 
L 356.651707 -169.89115 
L 356.651707 -171.336721 
L 356.651707 -172.782292 
L 356.651707 -174.227863 
L 356.651707 -175.673434 
L 356.651707 -177.119005 
L 356.651707 -178.564576 
L 356.651707 -180.010147 
L 356.651707 -181.455718 
L 356.651707 -182.901289 
L 356.651707 -184.34686 
L 356.651707 -185.792431 
L 356.651707 -187.238002 
L 356.651707 -188.683573 
L 356.651707 -190.129145 
L 356.651707 -191.574716 
L 356.651707 -193.020287 
L 356.651707 -194.465858 
L 356.651707 -195.911429 
L 356.651707 -197.357 
L 356.651707 -198.802571 
L 356.651707 -200.248142 
L 356.651707 -201.693713 
L 356.651707 -203.139284 
L 356.651707 -204.584855 
L 356.651707 -206.030426 
L 356.651707 -207.475997 
L 356.651707 -208.921568 
L 356.651707 -210.367139 
L 356.651707 -211.81271 
L 356.651707 -213.258281 
L 356.651707 -214.703852 
L 356.651707 -216.149423 
L 356.651707 -217.594994 
L 356.651707 -219.040565 
L 356.651707 -220.486136 
L 356.651707 -221.931707 
L 356.651707 -223.377278 
L 356.651707 -224.822849 
L 356.651707 -226.26842 
L 356.651707 -227.713991 
L 356.651707 -229.159562 
L 356.651707 -230.605133 
L 356.651707 -232.050704 
L 356.651707 -233.496275 
L 356.651707 -234.941846 
L 356.651707 -236.387417 
L 356.651707 -237.832988 
L 356.651707 -239.278559 
L 356.651707 -240.72413 
L 356.651707 -242.169701 
L 356.651707 -243.615272 
L 356.651707 -245.060843 
L 356.651707 -246.506414 
L 356.651707 -247.951985 
L 356.651707 -249.397556 
L 356.651707 -250.843127 
L 356.651707 -252.288698 
L 356.651707 -253.734269 
L 356.651707 -255.17984 
L 356.651707 -256.625411 
L 356.651707 -258.070982 
L 356.651707 -259.516553 
L 356.651707 -260.962124 
L 356.651707 -262.407695 
L 356.651707 -263.853266 
L 356.651707 -265.298837 
L 356.651707 -266.744408 
L 356.651707 -268.189979 
L 356.651707 -269.63555 
L 356.651707 -271.081121 
L 356.651707 -272.526692 
L 356.651707 -273.972263 
L 356.651707 -275.417834 
L 356.651707 -276.863405 
L 356.651707 -278.308976 
L 356.651707 -279.754547 
L 356.651707 -281.200118 
L 356.651707 -282.645689 
L 356.651707 -284.09126 
L 356.651707 -285.536831 
L 356.651707 -286.982402 
L 356.651707 -288.427973 
L 356.651707 -289.873545 
L 356.651707 -291.319116 
L 356.651707 -292.764687 
L 356.651707 -294.210258 
L 356.651707 -295.655829 
L 356.651707 -297.1014 
L 356.651707 -298.546971 
L 356.654146 -298.546971 
L 356.654146 -298.546971 
L 356.655192 -297.1014 
L 356.656617 -295.655829 
L 356.658527 -294.210258 
L 356.661045 -292.764687 
L 356.664313 -291.319116 
L 356.668487 -289.873545 
L 356.673731 -288.427973 
L 356.680216 -286.982402 
L 356.688105 -285.536831 
L 356.697547 -284.09126 
L 356.708666 -282.645689 
L 356.72155 -281.200118 
L 356.736239 -279.754547 
L 356.75272 -278.308976 
L 356.770923 -276.863405 
L 356.790722 -275.417834 
L 356.811941 -273.972263 
L 356.834368 -272.526692 
L 356.857772 -271.081121 
L 356.881924 -269.63555 
L 356.906629 -268.189979 
L 356.931748 -266.744408 
L 356.957223 -265.298837 
L 356.9831 -263.853266 
L 357.009542 -262.407695 
L 357.036832 -260.962124 
L 357.06537 -259.516553 
L 357.095645 -258.070982 
L 357.128215 -256.625411 
L 357.163654 -255.17984 
L 357.202506 -253.734269 
L 357.24522 -252.288698 
L 357.292095 -250.843127 
L 357.343214 -249.397556 
L 357.398395 -247.951985 
L 357.457151 -246.506414 
L 357.518664 -245.060843 
L 357.581788 -243.615272 
L 357.645071 -242.169701 
L 357.706803 -240.72413 
L 357.765093 -239.278559 
L 357.817957 -237.832988 
L 357.863433 -236.387417 
L 357.899689 -234.941846 
L 357.925141 -233.496275 
L 357.938552 -232.050704 
L 357.939115 -230.605133 
L 357.926507 -229.159562 
L 357.900917 -227.713991 
L 357.863041 -226.26842 
L 357.814047 -224.822849 
L 357.755512 -223.377278 
L 357.689349 -221.931707 
L 357.617713 -220.486136 
L 357.542907 -219.040565 
L 357.467301 -217.594994 
L 357.393247 -216.149423 
L 357.323019 -214.703852 
L 357.25877 -213.258281 
L 357.202499 -211.81271 
L 357.156041 -210.367139 
L 357.121067 -208.921568 
L 357.099086 -207.475997 
L 357.091457 -206.030426 
L 357.099389 -204.584855 
L 357.123943 -203.139284 
L 357.166011 -201.693713 
L 357.226289 -200.248142 
L 357.305232 -198.802571 
L 357.403001 -197.357 
L 357.519402 -195.911429 
L 357.653818 -194.465858 
L 357.805164 -193.020287 
L 357.971847 -191.574716 
L 358.151762 -190.129145 
L 358.34232 -188.683573 
L 358.540516 -187.238002 
L 358.743043 -185.792431 
L 358.94644 -184.34686 
L 359.147267 -182.901289 
L 359.342298 -181.455718 
L 359.528717 -180.010147 
L 359.704278 -178.564576 
L 359.867446 -177.119005 
L 360.017472 -175.673434 
L 360.154412 -174.227863 
L 360.279087 -172.782292 
L 360.392977 -171.336721 
L 360.498074 -169.89115 
L 360.596716 -168.445579 
L 360.691399 -167.000008 
L 360.784618 -165.554437 
L 360.878733 -164.108866 
L 360.975882 -162.663295 
L 361.07794 -161.217724 
L 361.18653 -159.772153 
L 361.303069 -158.326582 
L 361.428828 -156.881011 
L 361.565011 -155.43544 
L 361.712804 -153.989869 
L 361.873409 -152.544298 
L 362.048031 -151.098727 
L 362.237832 -149.653156 
L 362.443854 -148.207585 
L 362.66691 -146.762014 
L 362.907485 -145.316443 
L 363.165638 -143.870872 
L 363.440947 -142.425301 
L 363.732494 -140.97973 
L 364.038906 -139.534159 
L 364.358461 -138.088588 
L 364.689228 -136.643017 
L 365.029252 -135.197446 
L 365.376755 -133.751875 
L 365.730317 -132.306304 
L 366.089037 -130.860733 
L 366.45264 -129.415162 
L 366.821523 -127.969591 
L 367.196732 -126.52402 
L 367.579875 -125.078449 
L 367.972987 -123.632878 
L 368.378355 -122.187307 
L 368.79833 -120.741736 
L 369.235144 -119.296165 
L 369.690753 -117.850594 
L 370.166717 -116.405023 
L 370.664117 -114.959452 
L 371.183531 -113.513881 
L 371.725039 -112.06831 
L 372.288273 -110.622739 
L 372.872484 -109.177168 
L 373.476634 -107.731597 
L 374.099483 -106.286026 
L 374.739681 -104.840455 
L 375.395849 -103.394884 
L 376.066635 -101.949313 
L 376.750754 -100.503742 
L 377.446985 -99.058171 
L 378.154126 -97.6126 
L 378.870902 -96.167029 
L 379.595812 -94.721458 
L 380.326937 -93.275887 
L 381.061694 -91.830316 
L 381.796583 -90.384745 
L 382.526945 -88.939173 
L 383.246761 -87.493602 
L 383.948554 -86.048031 
L 384.62341 -84.60246 
L 385.261161 -83.156889 
L 385.850737 -81.711318 
L 386.380673 -80.265747 
L 386.839764 -78.820176 
L 387.217775 -77.374605 
L 387.50618 -75.929034 
L 387.698803 -74.483463 
L 387.792317 -73.037892 
L 387.786493 -71.592321 
L 387.684173 -70.14675 
L 387.490933 -68.701179 
L 387.214451 -67.255608 
L 386.863636 -65.810037 
L 386.447607 -64.364466 
L 385.974635 -62.918895 
L 385.451158 -61.473324 
L 384.881021 -60.027753 
L 384.265022 -58.582182 
L 383.60084 -57.136611 
L 382.883385 -55.69104 
L 382.105532 -54.245469 
L 381.259176 -52.799898 
L 380.3365 -51.354327 
L 379.331304 -49.908756 
L 378.240247 -48.463185 
L 377.063864 -47.017614 
L 375.807234 -45.572043 
L 374.480212 -44.126472 
L 373.097214 -42.680901 
L 371.67657 -41.23533 
L 370.239514 -39.789759 
L 368.808922 -38.344188 
L 367.407936 -36.898617 
L 366.058601 -35.453046 
L 364.78064 -34.007475 
L 363.590479 -32.561904 
L 362.500577 -31.116333 
L 361.519093 -29.670762 
L 360.649886 -28.225191 
L 359.8928 -26.77962 
L 359.244179 -25.334049 
L 358.697539 -23.888478 
L 358.244306 -22.442907 
L 357.874571 -20.997336 
L 357.57778 -19.551765 
L 357.343335 -18.106194 
L 357.161073 -16.660623 
L 357.021613 -15.215052 
L 356.916577 -13.769481 
L 356.838703 -12.32391 
L 356.781865 -10.878339 
z
" style="stroke: #b1bec9"/>
    </defs>
    <g clip-path="url(#p4ca0a6b22a)">
     <use xlink:href="#m507516c62f" x="0" y="345.6" style="fill: #b1bec9; fill-opacity: 0.25; stroke: #b1bec9"/>
    </g>
   </g>
   <g id="PolyCollection_4">
    <defs>
     <path id="mb0500d2605" d="M 357.162382 -22.384472 
L 356.651707 -22.384472 
L 356.651707 -23.605889 
L 356.651707 -24.827306 
L 356.651707 -26.048723 
L 356.651707 -27.270141 
L 356.651707 -28.491558 
L 356.651707 -29.712975 
L 356.651707 -30.934392 
L 356.651707 -32.155809 
L 356.651707 -33.377227 
L 356.651707 -34.598644 
L 356.651707 -35.820061 
L 356.651707 -37.041478 
L 356.651707 -38.262895 
L 356.651707 -39.484313 
L 356.651707 -40.70573 
L 356.651707 -41.927147 
L 356.651707 -43.148564 
L 356.651707 -44.369981 
L 356.651707 -45.591399 
L 356.651707 -46.812816 
L 356.651707 -48.034233 
L 356.651707 -49.25565 
L 356.651707 -50.477067 
L 356.651707 -51.698485 
L 356.651707 -52.919902 
L 356.651707 -54.141319 
L 356.651707 -55.362736 
L 356.651707 -56.584153 
L 356.651707 -57.805571 
L 356.651707 -59.026988 
L 356.651707 -60.248405 
L 356.651707 -61.469822 
L 356.651707 -62.691239 
L 356.651707 -63.912657 
L 356.651707 -65.134074 
L 356.651707 -66.355491 
L 356.651707 -67.576908 
L 356.651707 -68.798325 
L 356.651707 -70.019743 
L 356.651707 -71.24116 
L 356.651707 -72.462577 
L 356.651707 -73.683994 
L 356.651707 -74.905411 
L 356.651707 -76.126829 
L 356.651707 -77.348246 
L 356.651707 -78.569663 
L 356.651707 -79.79108 
L 356.651707 -81.012497 
L 356.651707 -82.233915 
L 356.651707 -83.455332 
L 356.651707 -84.676749 
L 356.651707 -85.898166 
L 356.651707 -87.119583 
L 356.651707 -88.341001 
L 356.651707 -89.562418 
L 356.651707 -90.783835 
L 356.651707 -92.005252 
L 356.651707 -93.226669 
L 356.651707 -94.448087 
L 356.651707 -95.669504 
L 356.651707 -96.890921 
L 356.651707 -98.112338 
L 356.651707 -99.333756 
L 356.651707 -100.555173 
L 356.651707 -101.77659 
L 356.651707 -102.998007 
L 356.651707 -104.219424 
L 356.651707 -105.440842 
L 356.651707 -106.662259 
L 356.651707 -107.883676 
L 356.651707 -109.105093 
L 356.651707 -110.32651 
L 356.651707 -111.547928 
L 356.651707 -112.769345 
L 356.651707 -113.990762 
L 356.651707 -115.212179 
L 356.651707 -116.433596 
L 356.651707 -117.655014 
L 356.651707 -118.876431 
L 356.651707 -120.097848 
L 356.651707 -121.319265 
L 356.651707 -122.540682 
L 356.651707 -123.7621 
L 356.651707 -124.983517 
L 356.651707 -126.204934 
L 356.651707 -127.426351 
L 356.651707 -128.647768 
L 356.651707 -129.869186 
L 356.651707 -131.090603 
L 356.651707 -132.31202 
L 356.651707 -133.533437 
L 356.651707 -134.754854 
L 356.651707 -135.976272 
L 356.651707 -137.197689 
L 356.651707 -138.419106 
L 356.651707 -139.640523 
L 356.651707 -140.86194 
L 356.651707 -142.083358 
L 356.651707 -143.304775 
L 356.651707 -144.526192 
L 356.651707 -145.747609 
L 356.651707 -146.969026 
L 356.651707 -148.190444 
L 356.651707 -149.411861 
L 356.651707 -150.633278 
L 356.651707 -151.854695 
L 356.651707 -153.076112 
L 356.651707 -154.29753 
L 356.651707 -155.518947 
L 356.651707 -156.740364 
L 356.651707 -157.961781 
L 356.651707 -159.183198 
L 356.651707 -160.404616 
L 356.651707 -161.626033 
L 356.651707 -162.84745 
L 356.651707 -164.068867 
L 356.651707 -165.290284 
L 356.651707 -166.511702 
L 356.651707 -167.733119 
L 356.651707 -168.954536 
L 356.651707 -170.175953 
L 356.651707 -171.397371 
L 356.651707 -172.618788 
L 356.651707 -173.840205 
L 356.651707 -175.061622 
L 356.651707 -176.283039 
L 356.651707 -177.504457 
L 356.651707 -178.725874 
L 356.651707 -179.947291 
L 356.651707 -181.168708 
L 356.651707 -182.390125 
L 356.651707 -183.611543 
L 356.651707 -184.83296 
L 356.651707 -186.054377 
L 356.651707 -187.275794 
L 356.651707 -188.497211 
L 356.651707 -189.718629 
L 356.651707 -190.940046 
L 356.651707 -192.161463 
L 356.651707 -193.38288 
L 356.651707 -194.604297 
L 356.651707 -195.825715 
L 356.651707 -197.047132 
L 356.651707 -198.268549 
L 356.651707 -199.489966 
L 356.651707 -200.711383 
L 356.651707 -201.932801 
L 356.651707 -203.154218 
L 356.651707 -204.375635 
L 356.651707 -205.597052 
L 356.651707 -206.818469 
L 356.651707 -208.039887 
L 356.651707 -209.261304 
L 356.651707 -210.482721 
L 356.651707 -211.704138 
L 356.651707 -212.925555 
L 356.651707 -214.146973 
L 356.651707 -215.36839 
L 356.651707 -216.589807 
L 356.651707 -217.811224 
L 356.651707 -219.032641 
L 356.651707 -220.254059 
L 356.651707 -221.475476 
L 356.651707 -222.696893 
L 356.651707 -223.91831 
L 356.651707 -225.139727 
L 356.651707 -226.361145 
L 356.651707 -227.582562 
L 356.651707 -228.803979 
L 356.651707 -230.025396 
L 356.651707 -231.246813 
L 356.651707 -232.468231 
L 356.651707 -233.689648 
L 356.651707 -234.911065 
L 356.651707 -236.132482 
L 356.651707 -237.353899 
L 356.651707 -238.575317 
L 356.651707 -239.796734 
L 356.651707 -241.018151 
L 356.651707 -242.239568 
L 356.651707 -243.460986 
L 356.651707 -244.682403 
L 356.651707 -245.90382 
L 356.651707 -247.125237 
L 356.651707 -248.346654 
L 356.651707 -249.568072 
L 356.651707 -250.789489 
L 356.651707 -252.010906 
L 356.651707 -253.232323 
L 356.651707 -254.45374 
L 356.651707 -255.675158 
L 356.651707 -256.896575 
L 356.651707 -258.117992 
L 356.651707 -259.339409 
L 356.651707 -260.560826 
L 356.651707 -261.782244 
L 356.651707 -263.003661 
L 356.651707 -264.225078 
L 356.651707 -265.446495 
L 356.65329 -265.446495 
L 356.65329 -265.446495 
L 356.654165 -264.225078 
L 356.655438 -263.003661 
L 356.657244 -261.782244 
L 356.659739 -260.560826 
L 356.663099 -259.339409 
L 356.667504 -258.117992 
L 356.673121 -256.896575 
L 356.680085 -255.675158 
L 356.688475 -254.45374 
L 356.698279 -253.232323 
L 356.709379 -252.010906 
L 356.72153 -250.789489 
L 356.734357 -249.568072 
L 356.747363 -248.346654 
L 356.759961 -247.125237 
L 356.771514 -245.90382 
L 356.781396 -244.682403 
L 356.789057 -243.460986 
L 356.794084 -242.239568 
L 356.79626 -241.018151 
L 356.795595 -239.796734 
L 356.792347 -238.575317 
L 356.787007 -237.353899 
L 356.780262 -236.132482 
L 356.772941 -234.911065 
L 356.765948 -233.689648 
L 356.760182 -232.468231 
L 356.756469 -231.246813 
L 356.755497 -230.025396 
L 356.757772 -228.803979 
L 356.763588 -227.582562 
L 356.773016 -226.361145 
L 356.785916 -225.139727 
L 356.801952 -223.91831 
L 356.820631 -222.696893 
L 356.841339 -221.475476 
L 356.863378 -220.254059 
L 356.886 -219.032641 
L 356.908439 -217.811224 
L 356.929931 -216.589807 
L 356.949728 -215.36839 
L 356.967116 -214.146973 
L 356.981428 -212.925555 
L 356.992066 -211.704138 
L 356.998528 -210.482721 
L 357.000449 -209.261304 
L 356.997636 -208.039887 
L 356.99011 -206.818469 
L 356.97814 -205.597052 
L 356.962254 -204.375635 
L 356.943238 -203.154218 
L 356.922104 -201.932801 
L 356.90004 -200.711383 
L 356.878339 -199.489966 
L 356.85832 -198.268549 
L 356.841243 -197.047132 
L 356.828237 -195.825715 
L 356.820245 -194.604297 
L 356.817986 -193.38288 
L 356.821952 -192.161463 
L 356.832427 -190.940046 
L 356.84954 -189.718629 
L 356.873328 -188.497211 
L 356.903824 -187.275794 
L 356.941151 -186.054377 
L 356.985598 -184.83296 
L 357.037693 -183.611543 
L 357.098235 -182.390125 
L 357.168288 -181.168708 
L 357.249129 -179.947291 
L 357.342133 -178.725874 
L 357.448622 -177.504457 
L 357.569669 -176.283039 
L 357.70588 -175.061622 
L 357.857194 -173.840205 
L 358.022704 -172.618788 
L 358.200553 -171.397371 
L 358.387905 -170.175953 
L 358.581028 -168.954536 
L 358.77548 -167.733119 
L 358.966385 -166.511702 
L 359.14878 -165.290284 
L 359.318004 -164.068867 
L 359.470063 -162.84745 
L 359.601955 -161.626033 
L 359.711887 -160.404616 
L 359.799388 -159.183198 
L 359.865271 -157.961781 
L 359.91149 -156.740364 
L 359.94088 -155.518947 
L 359.956856 -154.29753 
L 359.963099 -153.076112 
L 359.963281 -151.854695 
L 359.96088 -150.633278 
L 359.959103 -149.411861 
L 359.96091 -148.190444 
L 359.969126 -146.969026 
L 359.986605 -145.747609 
L 360.016369 -144.526192 
L 360.061693 -143.304775 
L 360.126073 -142.083358 
L 360.213066 -140.86194 
L 360.325988 -139.640523 
L 360.467534 -138.419106 
L 360.639343 -137.197689 
L 360.841617 -135.976272 
L 361.072846 -134.754854 
L 361.329725 -133.533437 
L 361.607293 -132.31202 
L 361.899302 -131.090603 
L 362.198786 -129.869186 
L 362.498749 -128.647768 
L 362.792881 -127.426351 
L 363.076195 -126.204934 
L 363.345481 -124.983517 
L 363.599508 -123.7621 
L 363.838954 -122.540682 
L 364.066071 -121.319265 
L 364.284171 -120.097848 
L 364.49703 -118.876431 
L 364.708323 -117.655014 
L 364.921211 -116.433596 
L 365.138168 -115.212179 
L 365.361062 -113.990762 
L 365.591494 -112.769345 
L 365.8313 -111.547928 
L 366.083115 -110.32651 
L 366.350844 -109.105093 
L 366.639933 -107.883676 
L 366.957318 -106.662259 
L 367.311021 -105.440842 
L 367.709405 -104.219424 
L 368.160185 -102.998007 
L 368.669324 -101.77659 
L 369.239995 -100.555173 
L 369.871769 -99.333756 
L 370.560188 -98.112338 
L 371.296786 -96.890921 
L 372.069583 -95.669504 
L 372.863999 -94.448087 
L 373.66404 -93.226669 
L 374.453614 -92.005252 
L 375.217803 -90.783835 
L 375.943925 -89.562418 
L 376.6223 -88.341001 
L 377.246644 -87.119583 
L 377.814105 -85.898166 
L 378.325 -84.676749 
L 378.782302 -83.455332 
L 379.191009 -82.233915 
L 379.557452 -81.012497 
L 379.888659 -79.79108 
L 380.191824 -78.569663 
L 380.473979 -77.348246 
L 380.741935 -76.126829 
L 381.002546 -74.905411 
L 381.263374 -73.683994 
L 381.533742 -72.462577 
L 381.826147 -71.24116 
L 382.157865 -70.019743 
L 382.552505 -68.798325 
L 383.041133 -67.576908 
L 383.662504 -66.355491 
L 384.461934 -65.134074 
L 385.488419 -63.912657 
L 386.789772 -62.691239 
L 388.405908 -61.469822 
L 390.360738 -60.248405 
L 392.653598 -59.026988 
L 395.251463 -57.805571 
L 398.083422 -56.584153 
L 401.03885 -55.362736 
L 403.97038 -54.141319 
L 406.70219 -52.919902 
L 409.043302 -51.698485 
L 410.804685 -50.477067 
L 411.818197 -49.25565 
L 411.954843 -48.034233 
L 411.139752 -46.812816 
L 409.361609 -45.591399 
L 406.675082 -44.369981 
L 403.195817 -43.148564 
L 399.088756 -41.927147 
L 394.551504 -40.70573 
L 389.795159 -39.484313 
L 385.025243 -38.262895 
L 380.42513 -37.041478 
L 376.143756 -35.820061 
L 372.288563 -34.598644 
L 368.923758 -33.377227 
L 366.073181 -32.155809 
L 363.7266 -30.934392 
L 361.847969 -29.712975 
L 360.384276 -28.491558 
L 359.273808 -27.270141 
L 358.453057 -26.048723 
L 357.861855 -24.827306 
L 357.44669 -23.605889 
L 357.162382 -22.384472 
z
" style="stroke: #305673"/>
    </defs>
    <g clip-path="url(#p4ca0a6b22a)">
     <use xlink:href="#mb0500d2605" x="0" y="345.6" style="fill: #305673; fill-opacity: 0.25; stroke: #305673"/>
    </g>
   </g>
   <g id="matplotlib.axis_3">
    <g id="xtick_5"/>
    <g id="xtick_6"/>
    <g id="text_20">
     <!-- Density -->
     <g transform="translate(366.67726 319.182437) scale(0.1 -0.1)">
      <defs>
       <path id="DejaVuSans-79" d="M 2059 -325 
Q 1816 -950 1584 -1140 
Q 1353 -1331 966 -1331 
L 506 -1331 
L 506 -850 
L 844 -850 
Q 1081 -850 1212 -737 
Q 1344 -625 1503 -206 
L 1606 56 
L 191 3500 
L 800 3500 
L 1894 763 
L 2988 3500 
L 3597 3500 
L 2059 -325 
z
" transform="scale(0.015625)"/>
      </defs>
      <use xlink:href="#DejaVuSans-44"/>
      <use xlink:href="#DejaVuSans-65" x="77.001953"/>
      <use xlink:href="#DejaVuSans-6e" x="138.525391"/>
      <use xlink:href="#DejaVuSans-73" x="201.904297"/>
      <use xlink:href="#DejaVuSans-69" x="254.003906"/>
      <use xlink:href="#DejaVuSans-74" x="281.787109"/>
      <use xlink:href="#DejaVuSans-79" x="320.996094"/>
     </g>
    </g>
   </g>
   <g id="matplotlib.axis_4">
    <g id="ytick_8">
     <g id="line2d_109">
      <g>
       <use xlink:href="#m5f45a1159f" x="356.651707" y="303.221508" style="stroke: #000000; stroke-width: 0.8"/>
      </g>
     </g>
    </g>
    <g id="ytick_9">
     <g id="line2d_110">
      <g>
       <use xlink:href="#m5f45a1159f" x="356.651707" y="259.59659" style="stroke: #000000; stroke-width: 0.8"/>
      </g>
     </g>
    </g>
    <g id="ytick_10">
     <g id="line2d_111">
      <g>
       <use xlink:href="#m5f45a1159f" x="356.651707" y="215.971672" style="stroke: #000000; stroke-width: 0.8"/>
      </g>
     </g>
    </g>
    <g id="ytick_11">
     <g id="line2d_112">
      <g>
       <use xlink:href="#m5f45a1159f" x="356.651707" y="172.346754" style="stroke: #000000; stroke-width: 0.8"/>
      </g>
     </g>
    </g>
    <g id="ytick_12">
     <g id="line2d_113">
      <g>
       <use xlink:href="#m5f45a1159f" x="356.651707" y="128.721836" style="stroke: #000000; stroke-width: 0.8"/>
      </g>
     </g>
    </g>
    <g id="ytick_13">
     <g id="line2d_114">
      <g>
       <use xlink:href="#m5f45a1159f" x="356.651707" y="85.096918" style="stroke: #000000; stroke-width: 0.8"/>
      </g>
     </g>
    </g>
    <g id="ytick_14">
     <g id="line2d_115">
      <g>
       <use xlink:href="#m5f45a1159f" x="356.651707" y="41.472" style="stroke: #000000; stroke-width: 0.8"/>
      </g>
     </g>
    </g>
   </g>
   <g id="patch_36">
    <path d="M 356.651707 307.584 
L 356.651707 41.472 
" style="fill: none; stroke: #000000; stroke-width: 0.8; stroke-linejoin: miter; stroke-linecap: square"/>
   </g>
   <g id="patch_37">
    <path d="M 356.651707 307.584 
L 414.72 307.584 
" style="fill: none; stroke: #000000; stroke-width: 0.8; stroke-linejoin: miter; stroke-linecap: square"/>
   </g>
   <g id="legend_2">
    <g id="patch_38">
     <path d="M 363.651707 123.14075 
L 433.304832 123.14075 
Q 435.304832 123.14075 435.304832 121.14075 
L 435.304832 48.472 
Q 435.304832 46.472 433.304832 46.472 
L 363.651707 46.472 
Q 361.651707 46.472 361.651707 48.472 
L 361.651707 121.14075 
Q 361.651707 123.14075 363.651707 123.14075 
z
" style="fill: #ffffff; opacity: 0.8; stroke: #cccccc; stroke-linejoin: miter"/>
    </g>
    <g id="text_21">
     <!-- overall_order -->
     <g transform="translate(365.651707 58.070437) scale(0.1 -0.1)">
      <use xlink:href="#DejaVuSans-6f"/>
      <use xlink:href="#DejaVuSans-76" x="61.181641"/>
      <use xlink:href="#DejaVuSans-65" x="120.361328"/>
      <use xlink:href="#DejaVuSans-72" x="181.884766"/>
      <use xlink:href="#DejaVuSans-61" x="222.998047"/>
      <use xlink:href="#DejaVuSans-6c" x="284.277344"/>
      <use xlink:href="#DejaVuSans-6c" x="312.060547"/>
      <use xlink:href="#DejaVuSans-5f" x="339.84375"/>
      <use xlink:href="#DejaVuSans-6f" x="389.84375"/>
      <use xlink:href="#DejaVuSans-72" x="451.025391"/>
      <use xlink:href="#DejaVuSans-64" x="490.388672"/>
      <use xlink:href="#DejaVuSans-65" x="553.865234"/>
      <use xlink:href="#DejaVuSans-72" x="615.388672"/>
     </g>
    </g>
    <g id="patch_39">
     <path d="M 381.29702 73.026687 
L 401.29702 73.026687 
L 401.29702 66.026687 
L 381.29702 66.026687 
z
" style="fill: #305673; fill-opacity: 0.25; stroke: #305673; stroke-linejoin: miter"/>
    </g>
    <g id="text_22">
     <!-- 1 -->
     <g transform="translate(409.29702 73.026687) scale(0.1 -0.1)">
      <use xlink:href="#DejaVuSans-31"/>
     </g>
    </g>
    <g id="patch_40">
     <path d="M 381.29702 87.704813 
L 401.29702 87.704813 
L 401.29702 80.704813 
L 381.29702 80.704813 
z
" style="fill: #b1bec9; fill-opacity: 0.25; stroke: #b1bec9; stroke-linejoin: miter"/>
    </g>
    <g id="text_23">
     <!-- 2 -->
     <g transform="translate(409.29702 87.704813) scale(0.1 -0.1)">
      <use xlink:href="#DejaVuSans-32"/>
     </g>
    </g>
    <g id="patch_41">
     <path d="M 381.29702 102.382937 
L 401.29702 102.382937 
L 401.29702 95.382937 
L 381.29702 95.382937 
z
" style="fill: #cfb5af; fill-opacity: 0.25; stroke: #cfb5af; stroke-linejoin: miter"/>
    </g>
    <g id="text_24">
     <!-- 3 -->
     <g transform="translate(409.29702 102.382937) scale(0.1 -0.1)">
      <use xlink:href="#DejaVuSans-33"/>
     </g>
    </g>
    <g id="patch_42">
     <path d="M 381.29702 117.061062 
L 401.29702 117.061062 
L 401.29702 110.061062 
L 381.29702 110.061062 
z
" style="fill: #873c2a; fill-opacity: 0.25; stroke: #873c2a; stroke-linejoin: miter"/>
    </g>
    <g id="text_25">
     <!-- 4 -->
     <g transform="translate(409.29702 117.061062) scale(0.1 -0.1)">
      <use xlink:href="#DejaVuSans-34"/>
     </g>
    </g>
   </g>
  </g>
 </g>
 <defs>
  <clipPath id="p37980c7406">
   <rect x="57.6" y="41.472" width="290.341463" height="266.112"/>
  </clipPath>
  <clipPath id="p4ca0a6b22a">
   <rect x="356.651707" y="41.472" width="58.068293" height="266.112"/>
  </clipPath>
 </defs>
</svg>
