<?xml version="1.0" encoding="utf-8" standalone="no"?>
<!DOCTYPE svg PUBLIC "-//W3C//DTD SVG 1.1//EN"
  "http://www.w3.org/Graphics/SVG/1.1/DTD/svg11.dtd">
<svg xmlns:xlink="http://www.w3.org/1999/xlink" width="504pt" height="504pt" viewBox="0 0 504 504" xmlns="http://www.w3.org/2000/svg" version="1.1">
 <metadata>
  <rdf:RDF xmlns:dc="http://purl.org/dc/elements/1.1/" xmlns:cc="http://creativecommons.org/ns#" xmlns:rdf="http://www.w3.org/1999/02/22-rdf-syntax-ns#">
   <cc:Work>
    <dc:type rdf:resource="http://purl.org/dc/dcmitype/StillImage"/>
    <dc:date>2024-11-27T14:00:23.573247</dc:date>
    <dc:format>image/svg+xml</dc:format>
    <dc:creator>
     <cc:Agent>
      <dc:title>Matplotlib v3.9.2, https://matplotlib.org/</dc:title>
     </cc:Agent>
    </dc:creator>
   </cc:Work>
  </rdf:RDF>
 </metadata>
 <defs>
  <style type="text/css">*{stroke-linejoin: round; stroke-linecap: butt}</style>
 </defs>
 <g id="figure_1">
  <g id="patch_1">
   <path d="M 0 504 
L 504 504 
L 504 0 
L 0 0 
z
" style="fill: #ffffff"/>
  </g>
  <g id="axes_1">
   <g id="patch_2">
    <path d="M 63 448.56 
L 453.6 448.56 
L 453.6 60.48 
L 63 60.48 
z
" style="fill: #ffffff"/>
   </g>
   <g id="PathCollection_1">
    <defs>
     <path id="m1b34e75ebe" d="M 0 3 
C 0.795609 3 1.55874 2.683901 2.12132 2.12132 
C 2.683901 1.55874 3 0.795609 3 0 
C 3 -0.795609 2.683901 -1.55874 2.12132 -2.12132 
C 1.55874 -2.683901 0.795609 -3 0 -3 
C -0.795609 -3 -1.55874 -2.683901 -2.12132 -2.12132 
C -2.683901 -1.55874 -3 -0.795609 -3 0 
C -3 0.795609 -2.683901 1.55874 -2.12132 2.12132 
C -1.55874 2.683901 -0.795609 3 0 3 
z
" style="stroke: #ffffff; stroke-width: 0.48"/>
    </defs>
    <g clip-path="url(#p877661ac59)">
     <use xlink:href="#m1b34e75ebe" x="231.479071" y="311.718975" style="fill: #1f77b4; stroke: #ffffff; stroke-width: 0.48"/>
     <use xlink:href="#m1b34e75ebe" x="228.968833" y="316.744351" style="fill: #1f77b4; stroke: #ffffff; stroke-width: 0.48"/>
     <use xlink:href="#m1b34e75ebe" x="247.010575" y="325.822454" style="fill: #1f77b4; stroke: #ffffff; stroke-width: 0.48"/>
     <use xlink:href="#m1b34e75ebe" x="242.777845" y="298.588152" style="fill: #1f77b4; stroke: #ffffff; stroke-width: 0.48"/>
     <use xlink:href="#m1b34e75ebe" x="277.79745" y="262.275742" style="fill: #1f77b4; stroke: #ffffff; stroke-width: 0.48"/>
     <use xlink:href="#m1b34e75ebe" x="237.07523" y="304.640216" style="fill: #1f77b4; stroke: #ffffff; stroke-width: 0.48"/>
     <use xlink:href="#m1b34e75ebe" x="221.04978" y="329.713068" style="fill: #1f77b4; stroke: #ffffff; stroke-width: 0.48"/>
     <use xlink:href="#m1b34e75ebe" x="166.915513" y="404.067036" style="fill: #1f77b4; stroke: #ffffff; stroke-width: 0.48"/>
     <use xlink:href="#m1b34e75ebe" x="175.152223" y="370.99681" style="fill: #1f77b4; stroke: #ffffff; stroke-width: 0.48"/>
     <use xlink:href="#m1b34e75ebe" x="240.5928" y="312.421448" style="fill: #1f77b4; stroke: #ffffff; stroke-width: 0.48"/>
     <use xlink:href="#m1b34e75ebe" x="211.821855" y="349.166139" style="fill: #1f77b4; stroke: #ffffff; stroke-width: 0.48"/>
     <use xlink:href="#m1b34e75ebe" x="216.296033" y="317.608931" style="fill: #1f77b4; stroke: #ffffff; stroke-width: 0.48"/>
     <use xlink:href="#m1b34e75ebe" x="246.16102" y="270.705411" style="fill: #1f77b4; stroke: #ffffff; stroke-width: 0.48"/>
     <use xlink:href="#m1b34e75ebe" x="149.8" y="412.712845" style="fill: #1f77b4; stroke: #ffffff; stroke-width: 0.48"/>
     <use xlink:href="#m1b34e75ebe" x="227.676092" y="327.638072" style="fill: #1f77b4; stroke: #ffffff; stroke-width: 0.48"/>
     <use xlink:href="#m1b34e75ebe" x="262.80058" y="296.858986" style="fill: #1f77b4; stroke: #ffffff; stroke-width: 0.48"/>
     <use xlink:href="#m1b34e75ebe" x="149.8" y="368.619214" style="fill: #1f77b4; stroke: #ffffff; stroke-width: 0.48"/>
     <use xlink:href="#m1b34e75ebe" x="240.213291" y="321.067257" style="fill: #1f77b4; stroke: #ffffff; stroke-width: 0.48"/>
     <use xlink:href="#m1b34e75ebe" x="281.98555" y="179.275979" style="fill: #1f77b4; stroke: #ffffff; stroke-width: 0.48"/>
     <use xlink:href="#m1b34e75ebe" x="258.105475" y="300.811358" style="fill: #1f77b4; stroke: #ffffff; stroke-width: 0.48"/>
     <use xlink:href="#m1b34e75ebe" x="269.23463" y="259.681994" style="fill: #1f77b4; stroke: #ffffff; stroke-width: 0.48"/>
     <use xlink:href="#m1b34e75ebe" x="263.730787" y="293.400661" style="fill: #1f77b4; stroke: #ffffff; stroke-width: 0.48"/>
     <use xlink:href="#m1b34e75ebe" x="249.72458" y="282.691017" style="fill: #1f77b4; stroke: #ffffff; stroke-width: 0.48"/>
     <use xlink:href="#m1b34e75ebe" x="237.23364" y="342.681781" style="fill: #1f77b4; stroke: #ffffff; stroke-width: 0.48"/>
     <use xlink:href="#m1b34e75ebe" x="149.8" y="381.587929" style="fill: #1f77b4; stroke: #ffffff; stroke-width: 0.48"/>
     <use xlink:href="#m1b34e75ebe" x="188.91208" y="360.837989" style="fill: #1f77b4; stroke: #ffffff; stroke-width: 0.48"/>
     <use xlink:href="#m1b34e75ebe" x="304.327436" y="203.138407" style="fill: #1f77b4; stroke: #ffffff; stroke-width: 0.48"/>
     <use xlink:href="#m1b34e75ebe" x="245.43407" y="351.759883" style="fill: #1f77b4; stroke: #ffffff; stroke-width: 0.48"/>
     <use xlink:href="#m1b34e75ebe" x="225.861485" y="318.578145" style="fill: #1f77b4; stroke: #ffffff; stroke-width: 0.48"/>
     <use xlink:href="#m1b34e75ebe" x="246.794009" y="305.331881" style="fill: #1f77b4; stroke: #ffffff; stroke-width: 0.48"/>
     <use xlink:href="#m1b34e75ebe" x="343.775432" y="162.676009" style="fill: #1f77b4; stroke: #ffffff; stroke-width: 0.48"/>
     <use xlink:href="#m1b34e75ebe" x="385.6573" y="78.12" style="fill: #1f77b4; stroke: #ffffff; stroke-width: 0.48"/>
     <use xlink:href="#m1b34e75ebe" x="156.059365" y="385.478546" style="fill: #1f77b4; stroke: #ffffff; stroke-width: 0.48"/>
     <use xlink:href="#m1b34e75ebe" x="192.29294" y="378.129605" style="fill: #1f77b4; stroke: #ffffff; stroke-width: 0.48"/>
     <use xlink:href="#m1b34e75ebe" x="165.796155" y="397.150386" style="fill: #1f77b4; stroke: #ffffff; stroke-width: 0.48"/>
    </g>
   </g>
   <g id="PolyCollection_1">
    <path d="M 149.8 399.798902 
L 149.8 430.92 
L 152.182397 427.608799 
L 154.564794 424.248565 
L 156.947191 420.836658 
L 159.329588 417.45245 
L 161.711985 414.180058 
L 164.094382 410.931045 
L 166.476779 407.639515 
L 168.859176 404.367568 
L 171.241573 401.097606 
L 173.62397 397.796825 
L 176.006367 394.487157 
L 178.388764 391.173651 
L 180.771161 387.924426 
L 183.153558 384.585061 
L 185.535955 381.28852 
L 187.918352 378.057681 
L 190.300748 374.877148 
L 192.683145 371.594709 
L 195.065542 368.364648 
L 197.447939 365.128505 
L 199.830336 361.8596 
L 202.212733 358.677816 
L 204.59513 355.382084 
L 206.977527 352.198611 
L 209.359924 348.851547 
L 211.742321 345.680151 
L 214.124718 342.498333 
L 216.507115 339.466336 
L 218.889512 336.395112 
L 221.271909 333.371732 
L 223.654306 330.290311 
L 226.036703 327.444754 
L 228.4191 324.572462 
L 230.801497 321.462358 
L 233.183894 318.882554 
L 235.566291 316.179567 
L 237.948688 313.754677 
L 240.331085 310.986324 
L 242.713482 308.394418 
L 245.095879 305.827977 
L 247.478276 303.363163 
L 249.860673 300.765567 
L 252.24307 298.363877 
L 254.625467 295.915763 
L 257.007864 293.562602 
L 259.390261 291.203613 
L 261.772658 288.779759 
L 264.155055 286.099915 
L 266.537452 283.441041 
L 268.919848 280.933112 
L 271.302245 278.452637 
L 273.684642 275.870791 
L 276.067039 273.288946 
L 278.449436 270.707101 
L 280.831833 268.125255 
L 283.21423 265.54341 
L 285.596627 263.035338 
L 287.979024 260.552121 
L 290.361421 258.068905 
L 292.743818 255.585688 
L 295.126215 253.100329 
L 297.508612 250.614508 
L 299.891009 248.178134 
L 302.273406 245.759281 
L 304.655803 243.353332 
L 307.0382 241.044356 
L 309.420597 238.73538 
L 311.802994 236.426405 
L 314.185391 234.117429 
L 316.567788 231.808453 
L 318.950185 229.39667 
L 321.332582 226.897096 
L 323.714979 224.394456 
L 326.097376 222.038478 
L 328.479773 219.79156 
L 330.86217 217.345508 
L 333.244567 214.874298 
L 335.626964 212.403088 
L 338.009361 209.928469 
L 340.391758 207.451755 
L 342.774155 204.975041 
L 345.156552 202.498327 
L 347.538948 200.021614 
L 349.921345 197.5449 
L 352.303742 195.068186 
L 354.686139 192.591472 
L 357.068536 190.167662 
L 359.450933 187.749893 
L 361.83333 185.332125 
L 364.215727 182.914357 
L 366.598124 180.496588 
L 368.980521 178.07882 
L 371.362918 175.661052 
L 373.745315 173.242905 
L 376.127712 170.824459 
L 378.510109 168.406012 
L 380.892506 165.987566 
L 383.274903 163.56912 
L 385.6573 161.150674 
L 385.6573 93.02998 
L 385.6573 93.02998 
L 383.274903 96.434905 
L 380.892506 99.74138 
L 378.510109 103.047854 
L 376.127712 106.354329 
L 373.745315 109.660804 
L 371.362918 112.967279 
L 368.980521 116.272215 
L 366.598124 119.573232 
L 364.215727 122.87425 
L 361.83333 126.178214 
L 359.450933 129.483683 
L 357.068536 132.79071 
L 354.686139 136.18607 
L 352.303742 139.443957 
L 349.921345 142.764186 
L 347.538948 146.053244 
L 345.156552 149.342303 
L 342.774155 152.631361 
L 340.391758 155.920419 
L 338.009361 159.221646 
L 335.626964 162.549064 
L 333.244567 165.906212 
L 330.86217 169.13194 
L 328.479773 172.435371 
L 326.097376 175.731885 
L 323.714979 178.940318 
L 321.332582 182.226045 
L 318.950185 185.511771 
L 316.567788 188.797731 
L 314.185391 192.088589 
L 311.802994 195.379446 
L 309.420597 198.608988 
L 307.0382 202.035648 
L 304.655803 205.471023 
L 302.273406 208.689533 
L 299.891009 212.051545 
L 297.508612 215.379977 
L 295.126215 218.683408 
L 292.743818 221.952871 
L 290.361421 225.167401 
L 287.979024 228.467273 
L 285.596627 231.679076 
L 283.21423 234.862222 
L 280.831833 238.135116 
L 278.449436 241.284163 
L 276.067039 244.653359 
L 273.684642 247.998529 
L 271.302245 251.252447 
L 268.919848 254.387104 
L 266.537452 257.572945 
L 264.155055 260.68966 
L 261.772658 263.866787 
L 259.390261 267.168105 
L 257.007864 270.251011 
L 254.625467 273.312846 
L 252.24307 276.551014 
L 249.860673 279.710013 
L 247.478276 283.001786 
L 245.095879 286.173245 
L 242.713482 289.283714 
L 240.331085 292.393643 
L 237.948688 295.49976 
L 235.566291 298.471296 
L 233.183894 301.644597 
L 230.801497 304.820354 
L 228.4191 307.8835 
L 226.036703 310.898322 
L 223.654306 314.006847 
L 221.271909 317.210564 
L 218.889512 320.247599 
L 216.507115 323.281606 
L 214.124718 326.38414 
L 211.742321 329.398363 
L 209.359924 332.287031 
L 206.977527 335.204057 
L 204.59513 338.2881 
L 202.212733 341.028044 
L 199.830336 343.982894 
L 197.447939 346.95531 
L 195.065542 349.808879 
L 192.683145 352.531732 
L 190.300748 355.351643 
L 187.918352 358.069091 
L 185.535955 360.871723 
L 183.153558 363.426112 
L 180.771161 366.110342 
L 178.388764 368.797783 
L 176.006367 371.503647 
L 173.62397 374.024011 
L 171.241573 376.629609 
L 168.859176 379.242056 
L 166.476779 381.971336 
L 164.094382 384.535892 
L 161.711985 387.114074 
L 159.329588 389.671392 
L 156.947191 392.282916 
L 154.564794 394.772147 
L 152.182397 397.224183 
L 149.8 399.798902 
z
" clip-path="url(#p877661ac59)" style="fill: #ffa500; fill-opacity: 0.15"/>
   </g>
   <g id="matplotlib.axis_1">
    <g id="xtick_1">
     <g id="line2d_1">
      <defs>
       <path id="m1ac2e6b72b" d="M 0 0 
L 0 3.5 
" style="stroke: #000000; stroke-width: 0.8"/>
      </defs>
      <g>
       <use xlink:href="#m1ac2e6b72b" x="63" y="448.56" style="stroke: #000000; stroke-width: 0.8"/>
      </g>
     </g>
     <g id="text_1">
      <!-- −20 -->
      <g transform="translate(52.447656 463.158437) scale(0.1 -0.1)">
       <defs>
        <path id="DejaVuSans-2212" d="M 678 2272 
L 4684 2272 
L 4684 1741 
L 678 1741 
L 678 2272 
z
" transform="scale(0.015625)"/>
        <path id="DejaVuSans-32" d="M 1228 531 
L 3431 531 
L 3431 0 
L 469 0 
L 469 531 
Q 828 903 1448 1529 
Q 2069 2156 2228 2338 
Q 2531 2678 2651 2914 
Q 2772 3150 2772 3378 
Q 2772 3750 2511 3984 
Q 2250 4219 1831 4219 
Q 1534 4219 1204 4116 
Q 875 4013 500 3803 
L 500 4441 
Q 881 4594 1212 4672 
Q 1544 4750 1819 4750 
Q 2544 4750 2975 4387 
Q 3406 4025 3406 3419 
Q 3406 3131 3298 2873 
Q 3191 2616 2906 2266 
Q 2828 2175 2409 1742 
Q 1991 1309 1228 531 
z
" transform="scale(0.015625)"/>
        <path id="DejaVuSans-30" d="M 2034 4250 
Q 1547 4250 1301 3770 
Q 1056 3291 1056 2328 
Q 1056 1369 1301 889 
Q 1547 409 2034 409 
Q 2525 409 2770 889 
Q 3016 1369 3016 2328 
Q 3016 3291 2770 3770 
Q 2525 4250 2034 4250 
z
M 2034 4750 
Q 2819 4750 3233 4129 
Q 3647 3509 3647 2328 
Q 3647 1150 3233 529 
Q 2819 -91 2034 -91 
Q 1250 -91 836 529 
Q 422 1150 422 2328 
Q 422 3509 836 4129 
Q 1250 4750 2034 4750 
z
" transform="scale(0.015625)"/>
       </defs>
       <use xlink:href="#DejaVuSans-2212"/>
       <use xlink:href="#DejaVuSans-32" x="83.789062"/>
       <use xlink:href="#DejaVuSans-30" x="147.412109"/>
      </g>
     </g>
    </g>
    <g id="xtick_2">
     <g id="line2d_2">
      <g>
       <use xlink:href="#m1ac2e6b72b" x="106.4" y="448.56" style="stroke: #000000; stroke-width: 0.8"/>
      </g>
     </g>
     <g id="text_2">
      <!-- −10 -->
      <g transform="translate(95.847656 463.158437) scale(0.1 -0.1)">
       <defs>
        <path id="DejaVuSans-31" d="M 794 531 
L 1825 531 
L 1825 4091 
L 703 3866 
L 703 4441 
L 1819 4666 
L 2450 4666 
L 2450 531 
L 3481 531 
L 3481 0 
L 794 0 
L 794 531 
z
" transform="scale(0.015625)"/>
       </defs>
       <use xlink:href="#DejaVuSans-2212"/>
       <use xlink:href="#DejaVuSans-31" x="83.789062"/>
       <use xlink:href="#DejaVuSans-30" x="147.412109"/>
      </g>
     </g>
    </g>
    <g id="xtick_3">
     <g id="line2d_3">
      <g>
       <use xlink:href="#m1ac2e6b72b" x="149.8" y="448.56" style="stroke: #000000; stroke-width: 0.8"/>
      </g>
     </g>
     <g id="text_3">
      <!-- 0 -->
      <g transform="translate(146.61875 463.158437) scale(0.1 -0.1)">
       <use xlink:href="#DejaVuSans-30"/>
      </g>
     </g>
    </g>
    <g id="xtick_4">
     <g id="line2d_4">
      <g>
       <use xlink:href="#m1ac2e6b72b" x="193.2" y="448.56" style="stroke: #000000; stroke-width: 0.8"/>
      </g>
     </g>
     <g id="text_4">
      <!-- 10 -->
      <g transform="translate(186.8375 463.158437) scale(0.1 -0.1)">
       <use xlink:href="#DejaVuSans-31"/>
       <use xlink:href="#DejaVuSans-30" x="63.623047"/>
      </g>
     </g>
    </g>
    <g id="xtick_5">
     <g id="line2d_5">
      <g>
       <use xlink:href="#m1ac2e6b72b" x="236.6" y="448.56" style="stroke: #000000; stroke-width: 0.8"/>
      </g>
     </g>
     <g id="text_5">
      <!-- 20 -->
      <g transform="translate(230.2375 463.158437) scale(0.1 -0.1)">
       <use xlink:href="#DejaVuSans-32"/>
       <use xlink:href="#DejaVuSans-30" x="63.623047"/>
      </g>
     </g>
    </g>
    <g id="xtick_6">
     <g id="line2d_6">
      <g>
       <use xlink:href="#m1ac2e6b72b" x="280" y="448.56" style="stroke: #000000; stroke-width: 0.8"/>
      </g>
     </g>
     <g id="text_6">
      <!-- 30 -->
      <g transform="translate(273.6375 463.158437) scale(0.1 -0.1)">
       <defs>
        <path id="DejaVuSans-33" d="M 2597 2516 
Q 3050 2419 3304 2112 
Q 3559 1806 3559 1356 
Q 3559 666 3084 287 
Q 2609 -91 1734 -91 
Q 1441 -91 1130 -33 
Q 819 25 488 141 
L 488 750 
Q 750 597 1062 519 
Q 1375 441 1716 441 
Q 2309 441 2620 675 
Q 2931 909 2931 1356 
Q 2931 1769 2642 2001 
Q 2353 2234 1838 2234 
L 1294 2234 
L 1294 2753 
L 1863 2753 
Q 2328 2753 2575 2939 
Q 2822 3125 2822 3475 
Q 2822 3834 2567 4026 
Q 2313 4219 1838 4219 
Q 1578 4219 1281 4162 
Q 984 4106 628 3988 
L 628 4550 
Q 988 4650 1302 4700 
Q 1616 4750 1894 4750 
Q 2613 4750 3031 4423 
Q 3450 4097 3450 3541 
Q 3450 3153 3228 2886 
Q 3006 2619 2597 2516 
z
" transform="scale(0.015625)"/>
       </defs>
       <use xlink:href="#DejaVuSans-33"/>
       <use xlink:href="#DejaVuSans-30" x="63.623047"/>
      </g>
     </g>
    </g>
    <g id="xtick_7">
     <g id="line2d_7">
      <g>
       <use xlink:href="#m1ac2e6b72b" x="323.4" y="448.56" style="stroke: #000000; stroke-width: 0.8"/>
      </g>
     </g>
     <g id="text_7">
      <!-- 40 -->
      <g transform="translate(317.0375 463.158437) scale(0.1 -0.1)">
       <defs>
        <path id="DejaVuSans-34" d="M 2419 4116 
L 825 1625 
L 2419 1625 
L 2419 4116 
z
M 2253 4666 
L 3047 4666 
L 3047 1625 
L 3713 1625 
L 3713 1100 
L 3047 1100 
L 3047 0 
L 2419 0 
L 2419 1100 
L 313 1100 
L 313 1709 
L 2253 4666 
z
" transform="scale(0.015625)"/>
       </defs>
       <use xlink:href="#DejaVuSans-34"/>
       <use xlink:href="#DejaVuSans-30" x="63.623047"/>
      </g>
     </g>
    </g>
    <g id="xtick_8">
     <g id="line2d_8">
      <g>
       <use xlink:href="#m1ac2e6b72b" x="366.8" y="448.56" style="stroke: #000000; stroke-width: 0.8"/>
      </g>
     </g>
     <g id="text_8">
      <!-- 50 -->
      <g transform="translate(360.4375 463.158437) scale(0.1 -0.1)">
       <defs>
        <path id="DejaVuSans-35" d="M 691 4666 
L 3169 4666 
L 3169 4134 
L 1269 4134 
L 1269 2991 
Q 1406 3038 1543 3061 
Q 1681 3084 1819 3084 
Q 2600 3084 3056 2656 
Q 3513 2228 3513 1497 
Q 3513 744 3044 326 
Q 2575 -91 1722 -91 
Q 1428 -91 1123 -41 
Q 819 9 494 109 
L 494 744 
Q 775 591 1075 516 
Q 1375 441 1709 441 
Q 2250 441 2565 725 
Q 2881 1009 2881 1497 
Q 2881 1984 2565 2268 
Q 2250 2553 1709 2553 
Q 1456 2553 1204 2497 
Q 953 2441 691 2322 
L 691 4666 
z
" transform="scale(0.015625)"/>
       </defs>
       <use xlink:href="#DejaVuSans-35"/>
       <use xlink:href="#DejaVuSans-30" x="63.623047"/>
      </g>
     </g>
    </g>
    <g id="xtick_9">
     <g id="line2d_9">
      <g>
       <use xlink:href="#m1ac2e6b72b" x="410.2" y="448.56" style="stroke: #000000; stroke-width: 0.8"/>
      </g>
     </g>
     <g id="text_9">
      <!-- 60 -->
      <g transform="translate(403.8375 463.158437) scale(0.1 -0.1)">
       <defs>
        <path id="DejaVuSans-36" d="M 2113 2584 
Q 1688 2584 1439 2293 
Q 1191 2003 1191 1497 
Q 1191 994 1439 701 
Q 1688 409 2113 409 
Q 2538 409 2786 701 
Q 3034 994 3034 1497 
Q 3034 2003 2786 2293 
Q 2538 2584 2113 2584 
z
M 3366 4563 
L 3366 3988 
Q 3128 4100 2886 4159 
Q 2644 4219 2406 4219 
Q 1781 4219 1451 3797 
Q 1122 3375 1075 2522 
Q 1259 2794 1537 2939 
Q 1816 3084 2150 3084 
Q 2853 3084 3261 2657 
Q 3669 2231 3669 1497 
Q 3669 778 3244 343 
Q 2819 -91 2113 -91 
Q 1303 -91 875 529 
Q 447 1150 447 2328 
Q 447 3434 972 4092 
Q 1497 4750 2381 4750 
Q 2619 4750 2861 4703 
Q 3103 4656 3366 4563 
z
" transform="scale(0.015625)"/>
       </defs>
       <use xlink:href="#DejaVuSans-36"/>
       <use xlink:href="#DejaVuSans-30" x="63.623047"/>
      </g>
     </g>
    </g>
    <g id="xtick_10">
     <g id="line2d_10">
      <g>
       <use xlink:href="#m1ac2e6b72b" x="453.6" y="448.56" style="stroke: #000000; stroke-width: 0.8"/>
      </g>
     </g>
     <g id="text_10">
      <!-- 70 -->
      <g transform="translate(447.2375 463.158437) scale(0.1 -0.1)">
       <defs>
        <path id="DejaVuSans-37" d="M 525 4666 
L 3525 4666 
L 3525 4397 
L 1831 0 
L 1172 0 
L 2766 4134 
L 525 4134 
L 525 4666 
z
" transform="scale(0.015625)"/>
       </defs>
       <use xlink:href="#DejaVuSans-37"/>
       <use xlink:href="#DejaVuSans-30" x="63.623047"/>
      </g>
     </g>
    </g>
    <g id="text_11">
     <!-- ATMA -->
     <g transform="translate(244.478906 476.836563) scale(0.1 -0.1)">
      <defs>
       <path id="DejaVuSans-41" d="M 2188 4044 
L 1331 1722 
L 3047 1722 
L 2188 4044 
z
M 1831 4666 
L 2547 4666 
L 4325 0 
L 3669 0 
L 3244 1197 
L 1141 1197 
L 716 0 
L 50 0 
L 1831 4666 
z
" transform="scale(0.015625)"/>
       <path id="DejaVuSans-54" d="M -19 4666 
L 3928 4666 
L 3928 4134 
L 2272 4134 
L 2272 0 
L 1638 0 
L 1638 4134 
L -19 4134 
L -19 4666 
z
" transform="scale(0.015625)"/>
       <path id="DejaVuSans-4d" d="M 628 4666 
L 1569 4666 
L 2759 1491 
L 3956 4666 
L 4897 4666 
L 4897 0 
L 4281 0 
L 4281 4097 
L 3078 897 
L 2444 897 
L 1241 4097 
L 1241 0 
L 628 0 
L 628 4666 
z
" transform="scale(0.015625)"/>
      </defs>
      <use xlink:href="#DejaVuSans-41"/>
      <use xlink:href="#DejaVuSans-54" x="60.658203"/>
      <use xlink:href="#DejaVuSans-4d" x="121.742188"/>
      <use xlink:href="#DejaVuSans-41" x="208.021484"/>
     </g>
    </g>
   </g>
   <g id="matplotlib.axis_2">
    <g id="ytick_1">
     <g id="line2d_11">
      <defs>
       <path id="m699314323e" d="M 0 0 
L -3.5 0 
" style="stroke: #000000; stroke-width: 0.8"/>
      </defs>
      <g>
       <use xlink:href="#m699314323e" x="63" y="417.481138" style="stroke: #000000; stroke-width: 0.8"/>
      </g>
     </g>
     <g id="text_12">
      <!-- 0.05 -->
      <g transform="translate(33.734375 421.280357) scale(0.1 -0.1)">
       <defs>
        <path id="DejaVuSans-2e" d="M 684 794 
L 1344 794 
L 1344 0 
L 684 0 
L 684 794 
z
" transform="scale(0.015625)"/>
       </defs>
       <use xlink:href="#DejaVuSans-30"/>
       <use xlink:href="#DejaVuSans-2e" x="63.623047"/>
       <use xlink:href="#DejaVuSans-30" x="95.410156"/>
       <use xlink:href="#DejaVuSans-35" x="159.033203"/>
      </g>
     </g>
    </g>
    <g id="ytick_2">
     <g id="line2d_12">
      <g>
       <use xlink:href="#m699314323e" x="63" y="365.082287" style="stroke: #000000; stroke-width: 0.8"/>
      </g>
     </g>
     <g id="text_13">
      <!-- 0.10 -->
      <g transform="translate(33.734375 368.881506) scale(0.1 -0.1)">
       <use xlink:href="#DejaVuSans-30"/>
       <use xlink:href="#DejaVuSans-2e" x="63.623047"/>
       <use xlink:href="#DejaVuSans-31" x="95.410156"/>
       <use xlink:href="#DejaVuSans-30" x="159.033203"/>
      </g>
     </g>
    </g>
    <g id="ytick_3">
     <g id="line2d_13">
      <g>
       <use xlink:href="#m699314323e" x="63" y="312.683437" style="stroke: #000000; stroke-width: 0.8"/>
      </g>
     </g>
     <g id="text_14">
      <!-- 0.15 -->
      <g transform="translate(33.734375 316.482656) scale(0.1 -0.1)">
       <use xlink:href="#DejaVuSans-30"/>
       <use xlink:href="#DejaVuSans-2e" x="63.623047"/>
       <use xlink:href="#DejaVuSans-31" x="95.410156"/>
       <use xlink:href="#DejaVuSans-35" x="159.033203"/>
      </g>
     </g>
    </g>
    <g id="ytick_4">
     <g id="line2d_14">
      <g>
       <use xlink:href="#m699314323e" x="63" y="260.284587" style="stroke: #000000; stroke-width: 0.8"/>
      </g>
     </g>
     <g id="text_15">
      <!-- 0.20 -->
      <g transform="translate(33.734375 264.083805) scale(0.1 -0.1)">
       <use xlink:href="#DejaVuSans-30"/>
       <use xlink:href="#DejaVuSans-2e" x="63.623047"/>
       <use xlink:href="#DejaVuSans-32" x="95.410156"/>
       <use xlink:href="#DejaVuSans-30" x="159.033203"/>
      </g>
     </g>
    </g>
    <g id="ytick_5">
     <g id="line2d_15">
      <g>
       <use xlink:href="#m699314323e" x="63" y="207.885736" style="stroke: #000000; stroke-width: 0.8"/>
      </g>
     </g>
     <g id="text_16">
      <!-- 0.25 -->
      <g transform="translate(33.734375 211.684955) scale(0.1 -0.1)">
       <use xlink:href="#DejaVuSans-30"/>
       <use xlink:href="#DejaVuSans-2e" x="63.623047"/>
       <use xlink:href="#DejaVuSans-32" x="95.410156"/>
       <use xlink:href="#DejaVuSans-35" x="159.033203"/>
      </g>
     </g>
    </g>
    <g id="ytick_6">
     <g id="line2d_16">
      <g>
       <use xlink:href="#m699314323e" x="63" y="155.486886" style="stroke: #000000; stroke-width: 0.8"/>
      </g>
     </g>
     <g id="text_17">
      <!-- 0.30 -->
      <g transform="translate(33.734375 159.286104) scale(0.1 -0.1)">
       <use xlink:href="#DejaVuSans-30"/>
       <use xlink:href="#DejaVuSans-2e" x="63.623047"/>
       <use xlink:href="#DejaVuSans-33" x="95.410156"/>
       <use xlink:href="#DejaVuSans-30" x="159.033203"/>
      </g>
     </g>
    </g>
    <g id="ytick_7">
     <g id="line2d_17">
      <g>
       <use xlink:href="#m699314323e" x="63" y="103.088035" style="stroke: #000000; stroke-width: 0.8"/>
      </g>
     </g>
     <g id="text_18">
      <!-- 0.35 -->
      <g transform="translate(33.734375 106.887254) scale(0.1 -0.1)">
       <use xlink:href="#DejaVuSans-30"/>
       <use xlink:href="#DejaVuSans-2e" x="63.623047"/>
       <use xlink:href="#DejaVuSans-33" x="95.410156"/>
       <use xlink:href="#DejaVuSans-35" x="159.033203"/>
      </g>
     </g>
    </g>
    <g id="text_19">
     <!-- Fitness -->
     <g transform="translate(27.654687 271.837188) rotate(-90) scale(0.1 -0.1)">
      <defs>
       <path id="DejaVuSans-46" d="M 628 4666 
L 3309 4666 
L 3309 4134 
L 1259 4134 
L 1259 2759 
L 3109 2759 
L 3109 2228 
L 1259 2228 
L 1259 0 
L 628 0 
L 628 4666 
z
" transform="scale(0.015625)"/>
       <path id="DejaVuSans-69" d="M 603 3500 
L 1178 3500 
L 1178 0 
L 603 0 
L 603 3500 
z
M 603 4863 
L 1178 4863 
L 1178 4134 
L 603 4134 
L 603 4863 
z
" transform="scale(0.015625)"/>
       <path id="DejaVuSans-74" d="M 1172 4494 
L 1172 3500 
L 2356 3500 
L 2356 3053 
L 1172 3053 
L 1172 1153 
Q 1172 725 1289 603 
Q 1406 481 1766 481 
L 2356 481 
L 2356 0 
L 1766 0 
Q 1100 0 847 248 
Q 594 497 594 1153 
L 594 3053 
L 172 3053 
L 172 3500 
L 594 3500 
L 594 4494 
L 1172 4494 
z
" transform="scale(0.015625)"/>
       <path id="DejaVuSans-6e" d="M 3513 2113 
L 3513 0 
L 2938 0 
L 2938 2094 
Q 2938 2591 2744 2837 
Q 2550 3084 2163 3084 
Q 1697 3084 1428 2787 
Q 1159 2491 1159 1978 
L 1159 0 
L 581 0 
L 581 3500 
L 1159 3500 
L 1159 2956 
Q 1366 3272 1645 3428 
Q 1925 3584 2291 3584 
Q 2894 3584 3203 3211 
Q 3513 2838 3513 2113 
z
" transform="scale(0.015625)"/>
       <path id="DejaVuSans-65" d="M 3597 1894 
L 3597 1613 
L 953 1613 
Q 991 1019 1311 708 
Q 1631 397 2203 397 
Q 2534 397 2845 478 
Q 3156 559 3463 722 
L 3463 178 
Q 3153 47 2828 -22 
Q 2503 -91 2169 -91 
Q 1331 -91 842 396 
Q 353 884 353 1716 
Q 353 2575 817 3079 
Q 1281 3584 2069 3584 
Q 2775 3584 3186 3129 
Q 3597 2675 3597 1894 
z
M 3022 2063 
Q 3016 2534 2758 2815 
Q 2500 3097 2075 3097 
Q 1594 3097 1305 2825 
Q 1016 2553 972 2059 
L 3022 2063 
z
" transform="scale(0.015625)"/>
       <path id="DejaVuSans-73" d="M 2834 3397 
L 2834 2853 
Q 2591 2978 2328 3040 
Q 2066 3103 1784 3103 
Q 1356 3103 1142 2972 
Q 928 2841 928 2578 
Q 928 2378 1081 2264 
Q 1234 2150 1697 2047 
L 1894 2003 
Q 2506 1872 2764 1633 
Q 3022 1394 3022 966 
Q 3022 478 2636 193 
Q 2250 -91 1575 -91 
Q 1294 -91 989 -36 
Q 684 19 347 128 
L 347 722 
Q 666 556 975 473 
Q 1284 391 1588 391 
Q 1994 391 2212 530 
Q 2431 669 2431 922 
Q 2431 1156 2273 1281 
Q 2116 1406 1581 1522 
L 1381 1569 
Q 847 1681 609 1914 
Q 372 2147 372 2553 
Q 372 3047 722 3315 
Q 1072 3584 1716 3584 
Q 2034 3584 2315 3537 
Q 2597 3491 2834 3397 
z
" transform="scale(0.015625)"/>
      </defs>
      <use xlink:href="#DejaVuSans-46"/>
      <use xlink:href="#DejaVuSans-69" x="50.269531"/>
      <use xlink:href="#DejaVuSans-74" x="78.052734"/>
      <use xlink:href="#DejaVuSans-6e" x="117.261719"/>
      <use xlink:href="#DejaVuSans-65" x="180.640625"/>
      <use xlink:href="#DejaVuSans-73" x="242.164062"/>
      <use xlink:href="#DejaVuSans-73" x="294.263672"/>
     </g>
    </g>
   </g>
   <g id="line2d_18">
    <path d="M 149.8 415.43641 
L 152.182397 412.426578 
L 154.564794 409.416747 
L 156.947191 406.406916 
L 159.329588 403.397085 
L 161.711985 400.387253 
L 164.094382 397.377422 
L 166.476779 394.367591 
L 168.859176 391.35776 
L 171.241573 388.347928 
L 173.62397 385.338097 
L 176.006367 382.328266 
L 178.388764 379.318435 
L 180.771161 376.308603 
L 183.153558 373.298772 
L 185.535955 370.288941 
L 187.918352 367.27911 
L 190.300748 364.269279 
L 192.683145 361.259447 
L 195.065542 358.249616 
L 197.447939 355.239785 
L 199.830336 352.229954 
L 202.212733 349.220122 
L 204.59513 346.210291 
L 206.977527 343.20046 
L 209.359924 340.190629 
L 211.742321 337.180797 
L 214.124718 334.170966 
L 216.507115 331.161135 
L 218.889512 328.151304 
L 221.271909 325.141472 
L 223.654306 322.131641 
L 226.036703 319.12181 
L 228.4191 316.111979 
L 230.801497 313.102147 
L 233.183894 310.092316 
L 235.566291 307.082485 
L 237.948688 304.072654 
L 240.331085 301.062822 
L 242.713482 298.052991 
L 245.095879 295.04316 
L 247.478276 292.033329 
L 249.860673 289.023498 
L 252.24307 286.013666 
L 254.625467 283.003835 
L 257.007864 279.994004 
L 259.390261 276.984173 
L 261.772658 273.974341 
L 264.155055 270.96451 
L 266.537452 267.954679 
L 268.919848 264.944848 
L 271.302245 261.935016 
L 273.684642 258.925185 
L 276.067039 255.915354 
L 278.449436 252.905523 
L 280.831833 249.895691 
L 283.21423 246.88586 
L 285.596627 243.876029 
L 287.979024 240.866198 
L 290.361421 237.856366 
L 292.743818 234.846535 
L 295.126215 231.836704 
L 297.508612 228.826873 
L 299.891009 225.817042 
L 302.273406 222.80721 
L 304.655803 219.797379 
L 307.0382 216.787548 
L 309.420597 213.777717 
L 311.802994 210.767885 
L 314.185391 207.758054 
L 316.567788 204.748223 
L 318.950185 201.738392 
L 321.332582 198.72856 
L 323.714979 195.718729 
L 326.097376 192.708898 
L 328.479773 189.699067 
L 330.86217 186.689235 
L 333.244567 183.679404 
L 335.626964 180.669573 
L 338.009361 177.659742 
L 340.391758 174.64991 
L 342.774155 171.640079 
L 345.156552 168.630248 
L 347.538948 165.620417 
L 349.921345 162.610586 
L 352.303742 159.600754 
L 354.686139 156.590923 
L 357.068536 153.581092 
L 359.450933 150.571261 
L 361.83333 147.561429 
L 364.215727 144.551598 
L 366.598124 141.541767 
L 368.980521 138.531936 
L 371.362918 135.522104 
L 373.745315 132.512273 
L 376.127712 129.502442 
L 378.510109 126.492611 
L 380.892506 123.482779 
L 383.274903 120.472948 
L 385.6573 117.463117 
" clip-path="url(#p877661ac59)" style="fill: none; stroke: #ffa500; stroke-width: 2.25; stroke-linecap: square"/>
   </g>
   <g id="patch_3">
    <path d="M 63 448.56 
L 63 60.48 
" style="fill: none; stroke: #000000; stroke-width: 0.8; stroke-linejoin: miter; stroke-linecap: square"/>
   </g>
   <g id="patch_4">
    <path d="M 63 448.56 
L 453.6 448.56 
" style="fill: none; stroke: #000000; stroke-width: 0.8; stroke-linejoin: miter; stroke-linecap: square"/>
   </g>
   <g id="text_20">
    <!-- ASXL1 -->
    <g transform="translate(199.314373 298.357447) scale(0.1 -0.1)">
     <defs>
      <path id="DejaVuSans-53" d="M 3425 4513 
L 3425 3897 
Q 3066 4069 2747 4153 
Q 2428 4238 2131 4238 
Q 1616 4238 1336 4038 
Q 1056 3838 1056 3469 
Q 1056 3159 1242 3001 
Q 1428 2844 1947 2747 
L 2328 2669 
Q 3034 2534 3370 2195 
Q 3706 1856 3706 1288 
Q 3706 609 3251 259 
Q 2797 -91 1919 -91 
Q 1588 -91 1214 -16 
Q 841 59 441 206 
L 441 856 
Q 825 641 1194 531 
Q 1563 422 1919 422 
Q 2459 422 2753 634 
Q 3047 847 3047 1241 
Q 3047 1584 2836 1778 
Q 2625 1972 2144 2069 
L 1759 2144 
Q 1053 2284 737 2584 
Q 422 2884 422 3419 
Q 422 4038 858 4394 
Q 1294 4750 2059 4750 
Q 2388 4750 2728 4690 
Q 3069 4631 3425 4513 
z
" transform="scale(0.015625)"/>
      <path id="DejaVuSans-58" d="M 403 4666 
L 1081 4666 
L 2241 2931 
L 3406 4666 
L 4084 4666 
L 2584 2425 
L 4184 0 
L 3506 0 
L 2194 1984 
L 872 0 
L 191 0 
L 1856 2491 
L 403 4666 
z
" transform="scale(0.015625)"/>
      <path id="DejaVuSans-4c" d="M 628 4666 
L 1259 4666 
L 1259 531 
L 3531 531 
L 3531 0 
L 628 0 
L 628 4666 
z
" transform="scale(0.015625)"/>
     </defs>
     <use xlink:href="#DejaVuSans-41"/>
     <use xlink:href="#DejaVuSans-53" x="68.408203"/>
     <use xlink:href="#DejaVuSans-58" x="131.884766"/>
     <use xlink:href="#DejaVuSans-4c" x="200.390625"/>
     <use xlink:href="#DejaVuSans-31" x="256.103516"/>
    </g>
   </g>
   <g id="text_21">
    <!-- BCORL1 -->
    <g transform="translate(169.822769 284.25752) scale(0.1 -0.1)">
     <defs>
      <path id="DejaVuSans-42" d="M 1259 2228 
L 1259 519 
L 2272 519 
Q 2781 519 3026 730 
Q 3272 941 3272 1375 
Q 3272 1813 3026 2020 
Q 2781 2228 2272 2228 
L 1259 2228 
z
M 1259 4147 
L 1259 2741 
L 2194 2741 
Q 2656 2741 2882 2914 
Q 3109 3088 3109 3444 
Q 3109 3797 2882 3972 
Q 2656 4147 2194 4147 
L 1259 4147 
z
M 628 4666 
L 2241 4666 
Q 2963 4666 3353 4366 
Q 3744 4066 3744 3513 
Q 3744 3084 3544 2831 
Q 3344 2578 2956 2516 
Q 3422 2416 3680 2098 
Q 3938 1781 3938 1306 
Q 3938 681 3513 340 
Q 3088 0 2303 0 
L 628 0 
L 628 4666 
z
" transform="scale(0.015625)"/>
      <path id="DejaVuSans-43" d="M 4122 4306 
L 4122 3641 
Q 3803 3938 3442 4084 
Q 3081 4231 2675 4231 
Q 1875 4231 1450 3742 
Q 1025 3253 1025 2328 
Q 1025 1406 1450 917 
Q 1875 428 2675 428 
Q 3081 428 3442 575 
Q 3803 722 4122 1019 
L 4122 359 
Q 3791 134 3420 21 
Q 3050 -91 2638 -91 
Q 1578 -91 968 557 
Q 359 1206 359 2328 
Q 359 3453 968 4101 
Q 1578 4750 2638 4750 
Q 3056 4750 3426 4639 
Q 3797 4528 4122 4306 
z
" transform="scale(0.015625)"/>
      <path id="DejaVuSans-4f" d="M 2522 4238 
Q 1834 4238 1429 3725 
Q 1025 3213 1025 2328 
Q 1025 1447 1429 934 
Q 1834 422 2522 422 
Q 3209 422 3611 934 
Q 4013 1447 4013 2328 
Q 4013 3213 3611 3725 
Q 3209 4238 2522 4238 
z
M 2522 4750 
Q 3503 4750 4090 4092 
Q 4678 3434 4678 2328 
Q 4678 1225 4090 567 
Q 3503 -91 2522 -91 
Q 1538 -91 948 565 
Q 359 1222 359 2328 
Q 359 3434 948 4092 
Q 1538 4750 2522 4750 
z
" transform="scale(0.015625)"/>
      <path id="DejaVuSans-52" d="M 2841 2188 
Q 3044 2119 3236 1894 
Q 3428 1669 3622 1275 
L 4263 0 
L 3584 0 
L 2988 1197 
Q 2756 1666 2539 1819 
Q 2322 1972 1947 1972 
L 1259 1972 
L 1259 0 
L 628 0 
L 628 4666 
L 2053 4666 
Q 2853 4666 3247 4331 
Q 3641 3997 3641 3322 
Q 3641 2881 3436 2590 
Q 3231 2300 2841 2188 
z
M 1259 4147 
L 1259 2491 
L 2053 2491 
Q 2509 2491 2742 2702 
Q 2975 2913 2975 3322 
Q 2975 3731 2742 3939 
Q 2509 4147 2053 4147 
L 1259 4147 
z
" transform="scale(0.015625)"/>
     </defs>
     <use xlink:href="#DejaVuSans-42"/>
     <use xlink:href="#DejaVuSans-43" x="66.853516"/>
     <use xlink:href="#DejaVuSans-4f" x="136.677734"/>
     <use xlink:href="#DejaVuSans-52" x="215.388672"/>
     <use xlink:href="#DejaVuSans-4c" x="284.871094"/>
     <use xlink:href="#DejaVuSans-31" x="340.583984"/>
    </g>
   </g>
   <g id="text_22">
    <!-- BRCC3 -->
    <g transform="translate(280.591825 340.461829) scale(0.1 -0.1)">
     <use xlink:href="#DejaVuSans-42"/>
     <use xlink:href="#DejaVuSans-52" x="68.603516"/>
     <use xlink:href="#DejaVuSans-43" x="133.085938"/>
     <use xlink:href="#DejaVuSans-43" x="202.910156"/>
     <use xlink:href="#DejaVuSans-33" x="272.734375"/>
    </g>
   </g>
   <g id="text_23">
    <!-- CBL -->
    <g transform="translate(250.767418 296.959591) scale(0.1 -0.1)">
     <use xlink:href="#DejaVuSans-43"/>
     <use xlink:href="#DejaVuSans-42" x="69.824219"/>
     <use xlink:href="#DejaVuSans-4c" x="138.427734"/>
    </g>
   </g>
   <g id="text_24">
    <!-- CEBPA -->
    <g transform="translate(279.733364 256.544786) scale(0.1 -0.1)">
     <defs>
      <path id="DejaVuSans-45" d="M 628 4666 
L 3578 4666 
L 3578 4134 
L 1259 4134 
L 1259 2753 
L 3481 2753 
L 3481 2222 
L 1259 2222 
L 1259 531 
L 3634 531 
L 3634 0 
L 628 0 
L 628 4666 
z
" transform="scale(0.015625)"/>
      <path id="DejaVuSans-50" d="M 1259 4147 
L 1259 2394 
L 2053 2394 
Q 2494 2394 2734 2622 
Q 2975 2850 2975 3272 
Q 2975 3691 2734 3919 
Q 2494 4147 2053 4147 
L 1259 4147 
z
M 628 4666 
L 2053 4666 
Q 2838 4666 3239 4311 
Q 3641 3956 3641 3272 
Q 3641 2581 3239 2228 
Q 2838 1875 2053 1875 
L 1259 1875 
L 1259 0 
L 628 0 
L 628 4666 
z
" transform="scale(0.015625)"/>
     </defs>
     <use xlink:href="#DejaVuSans-43"/>
     <use xlink:href="#DejaVuSans-45" x="69.824219"/>
     <use xlink:href="#DejaVuSans-42" x="133.007812"/>
     <use xlink:href="#DejaVuSans-50" x="201.611328"/>
     <use xlink:href="#DejaVuSans-41" x="255.539062"/>
    </g>
   </g>
   <g id="text_25">
    <!-- CREBBP -->
    <g transform="translate(202.988228 271.011256) scale(0.1 -0.1)">
     <use xlink:href="#DejaVuSans-43"/>
     <use xlink:href="#DejaVuSans-52" x="69.824219"/>
     <use xlink:href="#DejaVuSans-45" x="139.306641"/>
     <use xlink:href="#DejaVuSans-42" x="202.490234"/>
     <use xlink:href="#DejaVuSans-42" x="271.09375"/>
     <use xlink:href="#DejaVuSans-50" x="339.697266"/>
    </g>
   </g>
   <g id="text_26">
    <!-- CTCF -->
    <g transform="translate(146.49625 343.667304) scale(0.1 -0.1)">
     <use xlink:href="#DejaVuSans-43"/>
     <use xlink:href="#DejaVuSans-54" x="69.824219"/>
     <use xlink:href="#DejaVuSans-43" x="125.033203"/>
     <use xlink:href="#DejaVuSans-46" x="194.857422"/>
    </g>
   </g>
   <g id="text_27">
    <!-- CUX1 -->
    <g transform="translate(210.040192 429.556185) scale(0.1 -0.1)">
     <defs>
      <path id="DejaVuSans-55" d="M 556 4666 
L 1191 4666 
L 1191 1831 
Q 1191 1081 1462 751 
Q 1734 422 2344 422 
Q 2950 422 3222 751 
Q 3494 1081 3494 1831 
L 3494 4666 
L 4128 4666 
L 4128 1753 
Q 4128 841 3676 375 
Q 3225 -91 2344 -91 
Q 1459 -91 1007 375 
Q 556 841 556 1753 
L 556 4666 
z
" transform="scale(0.015625)"/>
     </defs>
     <use xlink:href="#DejaVuSans-43"/>
     <use xlink:href="#DejaVuSans-55" x="69.824219"/>
     <use xlink:href="#DejaVuSans-58" x="143.017578"/>
     <use xlink:href="#DejaVuSans-31" x="211.523438"/>
    </g>
   </g>
   <g id="text_28">
    <!-- DNMT3A -->
    <g transform="translate(160.286924 368.277364) scale(0.1 -0.1)">
     <defs>
      <path id="DejaVuSans-44" d="M 1259 4147 
L 1259 519 
L 2022 519 
Q 2988 519 3436 956 
Q 3884 1394 3884 2338 
Q 3884 3275 3436 3711 
Q 2988 4147 2022 4147 
L 1259 4147 
z
M 628 4666 
L 1925 4666 
Q 3281 4666 3915 4102 
Q 4550 3538 4550 2338 
Q 4550 1131 3912 565 
Q 3275 0 1925 0 
L 628 0 
L 628 4666 
z
" transform="scale(0.015625)"/>
      <path id="DejaVuSans-4e" d="M 628 4666 
L 1478 4666 
L 3547 763 
L 3547 4666 
L 4159 4666 
L 4159 0 
L 3309 0 
L 1241 3903 
L 1241 0 
L 628 0 
L 628 4666 
z
" transform="scale(0.015625)"/>
     </defs>
     <use xlink:href="#DejaVuSans-44"/>
     <use xlink:href="#DejaVuSans-4e" x="77.001953"/>
     <use xlink:href="#DejaVuSans-4d" x="151.806641"/>
     <use xlink:href="#DejaVuSans-54" x="238.085938"/>
     <use xlink:href="#DejaVuSans-33" x="299.169922"/>
     <use xlink:href="#DejaVuSans-41" x="362.792969"/>
    </g>
   </g>
   <g id="text_29">
    <!-- EZH2 -->
    <g transform="translate(270.96751 314.826632) scale(0.1 -0.1)">
     <defs>
      <path id="DejaVuSans-5a" d="M 359 4666 
L 4025 4666 
L 4025 4184 
L 1075 531 
L 4097 531 
L 4097 0 
L 288 0 
L 288 481 
L 3238 4134 
L 359 4134 
L 359 4666 
z
" transform="scale(0.015625)"/>
      <path id="DejaVuSans-48" d="M 628 4666 
L 1259 4666 
L 1259 2753 
L 3553 2753 
L 3553 4666 
L 4184 4666 
L 4184 0 
L 3553 0 
L 3553 2222 
L 1259 2222 
L 1259 0 
L 628 0 
L 628 4666 
z
" transform="scale(0.015625)"/>
     </defs>
     <use xlink:href="#DejaVuSans-45"/>
     <use xlink:href="#DejaVuSans-5a" x="63.183594"/>
     <use xlink:href="#DejaVuSans-48" x="131.689453"/>
     <use xlink:href="#DejaVuSans-32" x="206.884766"/>
    </g>
   </g>
   <g id="text_30">
    <!-- GNAS -->
    <g transform="translate(190.54748 345.085514) scale(0.1 -0.1)">
     <defs>
      <path id="DejaVuSans-47" d="M 3809 666 
L 3809 1919 
L 2778 1919 
L 2778 2438 
L 4434 2438 
L 4434 434 
Q 4069 175 3628 42 
Q 3188 -91 2688 -91 
Q 1594 -91 976 548 
Q 359 1188 359 2328 
Q 359 3472 976 4111 
Q 1594 4750 2688 4750 
Q 3144 4750 3555 4637 
Q 3966 4525 4313 4306 
L 4313 3634 
Q 3963 3931 3569 4081 
Q 3175 4231 2741 4231 
Q 1884 4231 1454 3753 
Q 1025 3275 1025 2328 
Q 1025 1384 1454 906 
Q 1884 428 2741 428 
Q 3075 428 3337 486 
Q 3600 544 3809 666 
z
" transform="scale(0.015625)"/>
     </defs>
     <use xlink:href="#DejaVuSans-47"/>
     <use xlink:href="#DejaVuSans-4e" x="77.490234"/>
     <use xlink:href="#DejaVuSans-41" x="152.294922"/>
     <use xlink:href="#DejaVuSans-53" x="220.703125"/>
    </g>
   </g>
   <g id="text_31">
    <!-- GNB1 -->
    <g transform="translate(122.357271 316.983726) scale(0.1 -0.1)">
     <use xlink:href="#DejaVuSans-47"/>
     <use xlink:href="#DejaVuSans-4e" x="77.490234"/>
     <use xlink:href="#DejaVuSans-42" x="152.294922"/>
     <use xlink:href="#DejaVuSans-31" x="220.898438"/>
    </g>
   </g>
   <g id="text_32">
    <!-- JAK2 -->
    <g transform="translate(227.019481 264.748865) scale(0.1 -0.1)">
     <defs>
      <path id="DejaVuSans-4a" d="M 628 4666 
L 1259 4666 
L 1259 325 
Q 1259 -519 939 -900 
Q 619 -1281 -91 -1281 
L -331 -1281 
L -331 -750 
L -134 -750 
Q 284 -750 456 -515 
Q 628 -281 628 325 
L 628 4666 
z
" transform="scale(0.015625)"/>
      <path id="DejaVuSans-4b" d="M 628 4666 
L 1259 4666 
L 1259 2694 
L 3353 4666 
L 4166 4666 
L 1850 2491 
L 4331 0 
L 3500 0 
L 1259 2247 
L 1259 0 
L 628 0 
L 628 4666 
z
" transform="scale(0.015625)"/>
     </defs>
     <use xlink:href="#DejaVuSans-4a"/>
     <use xlink:href="#DejaVuSans-41" x="27.742188"/>
     <use xlink:href="#DejaVuSans-4b" x="96.150391"/>
     <use xlink:href="#DejaVuSans-32" x="161.726562"/>
    </g>
   </g>
   <g id="text_33">
    <!-- KDM6A -->
    <g transform="translate(149.485469 420.87222) scale(0.1 -0.1)">
     <use xlink:href="#DejaVuSans-4b"/>
     <use xlink:href="#DejaVuSans-44" x="65.576172"/>
     <use xlink:href="#DejaVuSans-4d" x="142.578125"/>
     <use xlink:href="#DejaVuSans-36" x="228.857422"/>
     <use xlink:href="#DejaVuSans-41" x="292.480469"/>
    </g>
   </g>
   <g id="text_34">
    <!-- KRAS -->
    <g transform="translate(231.825984 336.441156) scale(0.1 -0.1)">
     <use xlink:href="#DejaVuSans-4b"/>
     <use xlink:href="#DejaVuSans-52" x="65.576172"/>
     <use xlink:href="#DejaVuSans-41" x="131.058594"/>
     <use xlink:href="#DejaVuSans-53" x="199.466797"/>
    </g>
   </g>
   <g id="text_35">
    <!-- LUC7L2 -->
    <g transform="translate(341.705424 269.571851) scale(0.1 -0.1)">
     <use xlink:href="#DejaVuSans-4c"/>
     <use xlink:href="#DejaVuSans-55" x="50.712891"/>
     <use xlink:href="#DejaVuSans-43" x="123.90625"/>
     <use xlink:href="#DejaVuSans-37" x="193.730469"/>
     <use xlink:href="#DejaVuSans-4c" x="257.353516"/>
     <use xlink:href="#DejaVuSans-32" x="313.066406"/>
    </g>
   </g>
   <g id="text_36">
    <!-- NF1 -->
    <g transform="translate(131.456415 359.47835) scale(0.1 -0.1)">
     <use xlink:href="#DejaVuSans-4e"/>
     <use xlink:href="#DejaVuSans-46" x="74.804688"/>
     <use xlink:href="#DejaVuSans-31" x="132.324219"/>
    </g>
   </g>
   <g id="text_37">
    <!-- NOTCH1 -->
    <g transform="translate(309.569539 324.639258) scale(0.1 -0.1)">
     <use xlink:href="#DejaVuSans-4e"/>
     <use xlink:href="#DejaVuSans-4f" x="74.804688"/>
     <use xlink:href="#DejaVuSans-54" x="153.515625"/>
     <use xlink:href="#DejaVuSans-43" x="208.724609"/>
     <use xlink:href="#DejaVuSans-48" x="278.548828"/>
     <use xlink:href="#DejaVuSans-31" x="353.744141"/>
    </g>
   </g>
   <g id="text_38">
    <!-- NRAS -->
    <g transform="translate(282.503986 173.755354) scale(0.1 -0.1)">
     <use xlink:href="#DejaVuSans-4e"/>
     <use xlink:href="#DejaVuSans-52" x="74.804688"/>
     <use xlink:href="#DejaVuSans-41" x="140.287109"/>
     <use xlink:href="#DejaVuSans-53" x="208.695312"/>
    </g>
   </g>
   <g id="text_39">
    <!-- PPM1D -->
    <g transform="translate(297.55458 298.770392) scale(0.1 -0.1)">
     <use xlink:href="#DejaVuSans-50"/>
     <use xlink:href="#DejaVuSans-50" x="60.302734"/>
     <use xlink:href="#DejaVuSans-4d" x="120.605469"/>
     <use xlink:href="#DejaVuSans-31" x="206.884766"/>
     <use xlink:href="#DejaVuSans-44" x="270.507812"/>
    </g>
   </g>
   <g id="text_40">
    <!-- PTPN11 -->
    <g transform="translate(279.117911 242.424495) scale(0.1 -0.1)">
     <use xlink:href="#DejaVuSans-50"/>
     <use xlink:href="#DejaVuSans-54" x="60.302734"/>
     <use xlink:href="#DejaVuSans-50" x="121.386719"/>
     <use xlink:href="#DejaVuSans-4e" x="181.689453"/>
     <use xlink:href="#DejaVuSans-31" x="256.494141"/>
     <use xlink:href="#DejaVuSans-31" x="320.117188"/>
    </g>
   </g>
   <g id="text_41">
    <!-- RAD21 -->
    <g transform="translate(253.385769 278.100823) scale(0.1 -0.1)">
     <use xlink:href="#DejaVuSans-52"/>
     <use xlink:href="#DejaVuSans-41" x="65.482422"/>
     <use xlink:href="#DejaVuSans-44" x="133.890625"/>
     <use xlink:href="#DejaVuSans-32" x="210.892578"/>
     <use xlink:href="#DejaVuSans-31" x="274.515625"/>
    </g>
   </g>
   <g id="text_42">
    <!-- SF3B1 -->
    <g transform="translate(250.288041 239.067527) scale(0.1 -0.1)">
     <use xlink:href="#DejaVuSans-53"/>
     <use xlink:href="#DejaVuSans-46" x="63.476562"/>
     <use xlink:href="#DejaVuSans-33" x="120.996094"/>
     <use xlink:href="#DejaVuSans-42" x="184.619141"/>
     <use xlink:href="#DejaVuSans-31" x="253.222656"/>
    </g>
   </g>
   <g id="text_43">
    <!-- SH2B3 -->
    <g transform="translate(283.813443 368.317194) scale(0.1 -0.1)">
     <use xlink:href="#DejaVuSans-53"/>
     <use xlink:href="#DejaVuSans-48" x="63.476562"/>
     <use xlink:href="#DejaVuSans-32" x="138.671875"/>
     <use xlink:href="#DejaVuSans-42" x="202.294922"/>
     <use xlink:href="#DejaVuSans-33" x="270.898438"/>
    </g>
   </g>
   <g id="text_44">
    <!-- SMC1A -->
    <g transform="translate(127.98875 377.498589) scale(0.1 -0.1)">
     <use xlink:href="#DejaVuSans-53"/>
     <use xlink:href="#DejaVuSans-4d" x="63.476562"/>
     <use xlink:href="#DejaVuSans-43" x="149.755859"/>
     <use xlink:href="#DejaVuSans-31" x="219.580078"/>
     <use xlink:href="#DejaVuSans-41" x="283.203125"/>
    </g>
   </g>
   <g id="text_45">
    <!-- SMC3 -->
    <g transform="translate(206.752003 363.24898) scale(0.1 -0.1)">
     <use xlink:href="#DejaVuSans-53"/>
     <use xlink:href="#DejaVuSans-4d" x="63.476562"/>
     <use xlink:href="#DejaVuSans-43" x="149.755859"/>
     <use xlink:href="#DejaVuSans-33" x="219.580078"/>
    </g>
   </g>
   <g id="text_46">
    <!-- SRSF2 -->
    <g transform="translate(305.412749 201.577782) scale(0.1 -0.1)">
     <use xlink:href="#DejaVuSans-53"/>
     <use xlink:href="#DejaVuSans-52" x="63.476562"/>
     <use xlink:href="#DejaVuSans-53" x="132.958984"/>
     <use xlink:href="#DejaVuSans-46" x="196.435547"/>
     <use xlink:href="#DejaVuSans-32" x="253.955078"/>
    </g>
   </g>
   <g id="text_47">
    <!-- STAG2 -->
    <g transform="translate(247.390874 374.592443) scale(0.1 -0.1)">
     <use xlink:href="#DejaVuSans-53"/>
     <use xlink:href="#DejaVuSans-54" x="63.476562"/>
     <use xlink:href="#DejaVuSans-41" x="116.810547"/>
     <use xlink:href="#DejaVuSans-47" x="183.46875"/>
     <use xlink:href="#DejaVuSans-32" x="260.958984"/>
    </g>
   </g>
   <g id="text_48">
    <!-- TET2 -->
    <g transform="translate(201.192596 322.168306) scale(0.1 -0.1)">
     <use xlink:href="#DejaVuSans-54"/>
     <use xlink:href="#DejaVuSans-45" x="61.083984"/>
     <use xlink:href="#DejaVuSans-54" x="124.267578"/>
     <use xlink:href="#DejaVuSans-32" x="185.351562"/>
    </g>
   </g>
   <g id="text_49">
    <!-- TP53 -->
    <g transform="translate(354.979225 296.010733) scale(0.1 -0.1)">
     <use xlink:href="#DejaVuSans-54"/>
     <use xlink:href="#DejaVuSans-50" x="61.083984"/>
     <use xlink:href="#DejaVuSans-35" x="121.386719"/>
     <use xlink:href="#DejaVuSans-33" x="185.009766"/>
    </g>
   </g>
   <g id="text_50">
    <!-- U2AF1 -->
    <g transform="translate(344.917463 161.115384) scale(0.1 -0.1)">
     <use xlink:href="#DejaVuSans-55"/>
     <use xlink:href="#DejaVuSans-32" x="73.193359"/>
     <use xlink:href="#DejaVuSans-41" x="136.816406"/>
     <use xlink:href="#DejaVuSans-46" x="205.224609"/>
     <use xlink:href="#DejaVuSans-31" x="262.744141"/>
    </g>
   </g>
   <g id="text_51">
    <!-- U2AF2 -->
    <g transform="translate(386.799331 76.559375) scale(0.1 -0.1)">
     <use xlink:href="#DejaVuSans-55"/>
     <use xlink:href="#DejaVuSans-32" x="73.193359"/>
     <use xlink:href="#DejaVuSans-41" x="136.816406"/>
     <use xlink:href="#DejaVuSans-46" x="205.224609"/>
     <use xlink:href="#DejaVuSans-32" x="262.744141"/>
    </g>
   </g>
   <g id="text_52">
    <!-- WT1 -->
    <g transform="translate(112.570459 390.082428) scale(0.1 -0.1)">
     <defs>
      <path id="DejaVuSans-57" d="M 213 4666 
L 850 4666 
L 1831 722 
L 2809 4666 
L 3519 4666 
L 4500 722 
L 5478 4666 
L 6119 4666 
L 4947 0 
L 4153 0 
L 3169 4050 
L 2175 0 
L 1381 0 
L 213 4666 
z
" transform="scale(0.015625)"/>
     </defs>
     <use xlink:href="#DejaVuSans-57"/>
     <use xlink:href="#DejaVuSans-54" x="98.876953"/>
     <use xlink:href="#DejaVuSans-31" x="159.960938"/>
    </g>
   </g>
   <g id="text_53">
    <!-- ZNF318 -->
    <g transform="translate(206.145357 397.106411) scale(0.1 -0.1)">
     <defs>
      <path id="DejaVuSans-38" d="M 2034 2216 
Q 1584 2216 1326 1975 
Q 1069 1734 1069 1313 
Q 1069 891 1326 650 
Q 1584 409 2034 409 
Q 2484 409 2743 651 
Q 3003 894 3003 1313 
Q 3003 1734 2745 1975 
Q 2488 2216 2034 2216 
z
M 1403 2484 
Q 997 2584 770 2862 
Q 544 3141 544 3541 
Q 544 4100 942 4425 
Q 1341 4750 2034 4750 
Q 2731 4750 3128 4425 
Q 3525 4100 3525 3541 
Q 3525 3141 3298 2862 
Q 3072 2584 2669 2484 
Q 3125 2378 3379 2068 
Q 3634 1759 3634 1313 
Q 3634 634 3220 271 
Q 2806 -91 2034 -91 
Q 1263 -91 848 271 
Q 434 634 434 1313 
Q 434 1759 690 2068 
Q 947 2378 1403 2484 
z
M 1172 3481 
Q 1172 3119 1398 2916 
Q 1625 2713 2034 2713 
Q 2441 2713 2670 2916 
Q 2900 3119 2900 3481 
Q 2900 3844 2670 4047 
Q 2441 4250 2034 4250 
Q 1625 4250 1398 4047 
Q 1172 3844 1172 3481 
z
" transform="scale(0.015625)"/>
     </defs>
     <use xlink:href="#DejaVuSans-5a"/>
     <use xlink:href="#DejaVuSans-4e" x="68.505859"/>
     <use xlink:href="#DejaVuSans-46" x="143.310547"/>
     <use xlink:href="#DejaVuSans-33" x="200.830078"/>
     <use xlink:href="#DejaVuSans-31" x="264.453125"/>
     <use xlink:href="#DejaVuSans-38" x="328.076172"/>
    </g>
   </g>
   <g id="text_54">
    <!-- ZRSR2 -->
    <g transform="translate(146.772249 394.509761) scale(0.1 -0.1)">
     <use xlink:href="#DejaVuSans-5a"/>
     <use xlink:href="#DejaVuSans-52" x="68.505859"/>
     <use xlink:href="#DejaVuSans-53" x="137.988281"/>
     <use xlink:href="#DejaVuSans-52" x="201.464844"/>
     <use xlink:href="#DejaVuSans-32" x="270.947266"/>
    </g>
   </g>
   <g id="patch_5">
    <path d="M 216.71706 297.009045 
Q 223.388977 303.657423 230.060895 310.305801 
" style="fill: none; stroke: #808080; stroke-linecap: round"/>
   </g>
   <g id="patch_6">
    <path d="M 191.514962 282.838379 
Q 209.50009 299.119826 227.485217 315.401273 
" style="fill: none; stroke: #808080; stroke-linecap: round"/>
   </g>
   <g id="patch_7">
    <path d="M 295.463358 337.243467 
Q 272.211405 331.762649 248.959451 326.281832 
" style="fill: none; stroke: #808080; stroke-linecap: round"/>
   </g>
   <g id="patch_8">
    <path d="M 294.120319 254.633201 
Q 286.865489 258.02999 279.610659 261.426778 
" style="fill: none; stroke: #808080; stroke-linecap: round"/>
   </g>
   <g id="patch_9">
    <path d="M 223.709483 270.113052 
Q 230.030966 286.443069 236.352449 302.773085 
" style="fill: none; stroke: #808080; stroke-linecap: round"/>
   </g>
   <g id="patch_10">
    <path d="M 161.084484 340.55194 
Q 190.084424 335.310131 219.084365 330.068322 
" style="fill: none; stroke: #808080; stroke-linecap: round"/>
   </g>
   <g id="patch_11">
    <path d="M 221.939819 426.054597 
Q 195.356268 415.431883 168.772718 404.80917 
" style="fill: none; stroke: #808080; stroke-linecap: round"/>
   </g>
   <g id="patch_12">
    <path d="M 180.300856 366.783361 
Q 178.499588 368.257451 176.698321 369.731541 
" style="fill: none; stroke: #808080; stroke-linecap: round"/>
   </g>
   <g id="patch_13">
    <path d="M 282.491725 312.083406 
Q 262.543448 312.244349 242.595172 312.405293 
" style="fill: none; stroke: #808080; stroke-linecap: round"/>
   </g>
   <g id="patch_14">
    <path d="M 206.195383 343.718854 
Q 208.2902 345.746957 210.385017 347.77506 
" style="fill: none; stroke: #808080; stroke-linecap: round"/>
   </g>
   <g id="patch_15">
    <path d="M 138.58345 314.309254 
Q 176.441298 315.916699 214.299146 317.524143 
" style="fill: none; stroke: #808080; stroke-linecap: round"/>
   </g>
   <g id="patch_16">
    <path d="M 239.627264 263.472644 
Q 242.222582 266.345621 244.817899 269.218597 
" style="fill: none; stroke: #808080; stroke-linecap: round"/>
   </g>
   <g id="patch_17">
    <path d="M 358.628613 267.400239 
Q 311.669426 281.836086 264.710239 296.271933 
" style="fill: none; stroke: #808080; stroke-linecap: round"/>
   </g>
   <g id="patch_18">
    <path d="M 142.420374 358.343055 
Q 145.527348 362.669528 148.634322 366.996002 
" style="fill: none; stroke: #808080; stroke-linecap: round"/>
   </g>
   <g id="patch_19">
    <path d="M 328.437296 321.861854 
Q 285.325514 321.473564 242.213732 321.085274 
" style="fill: none; stroke: #808080; stroke-linecap: round"/>
   </g>
   <g id="patch_20">
    <path d="M 312.935326 296.179486 
Q 286.515999 298.411317 260.096671 300.643148 
" style="fill: none; stroke: #808080; stroke-linecap: round"/>
   </g>
   <g id="patch_21">
    <path d="M 296.654538 240.801332 
Q 283.769658 249.673538 270.884778 258.545744 
" style="fill: none; stroke: #808080; stroke-linecap: round"/>
   </g>
   <g id="patch_22">
    <path d="M 269.608723 277.224085 
Q 267.010578 284.3744 264.412432 291.524715 
" style="fill: none; stroke: #808080; stroke-linecap: round"/>
   </g>
   <g id="patch_23">
    <path d="M 265.463096 238.196419 
Q 257.927648 259.5 250.392199 280.803582 
" style="fill: none; stroke: #808080; stroke-linecap: round"/>
   </g>
   <g id="patch_24">
    <path d="M 298.659037 364.877849 
Q 268.88549 354.119178 239.111943 343.360506 
" style="fill: none; stroke: #808080; stroke-linecap: round"/>
   </g>
   <g id="patch_25">
    <path d="M 146.621304 376.44136 
Q 147.685267 378.164003 148.74923 379.886646 
" style="fill: none; stroke: #808080; stroke-linecap: round"/>
   </g>
   <g id="patch_26">
    <path d="M 218.916793 360.511336 
Q 204.916181 360.663757 190.915569 360.816178 
" style="fill: none; stroke: #808080; stroke-linecap: round"/>
   </g>
   <g id="patch_27">
    <path d="M 262.276719 370.350613 
Q 254.526674 361.796199 246.77663 353.241786 
" style="fill: none; stroke: #808080; stroke-linecap: round"/>
   </g>
   <g id="patch_28">
    <path d="M 215.637001 319.273238 
Q 219.752006 318.993487 223.867012 318.713736 
" style="fill: none; stroke: #808080; stroke-linecap: round"/>
   </g>
   <g id="patch_29">
    <path d="M 365.419096 293.450808 
Q 307.100284 299.291816 248.781472 305.132824 
" style="fill: none; stroke: #808080; stroke-linecap: round"/>
   </g>
   <g id="patch_30">
    <path d="M 125.74902 387.208897 
Q 139.907044 386.400646 154.065069 385.592396 
" style="fill: none; stroke: #808080; stroke-linecap: round"/>
   </g>
   <g id="patch_31">
    <path d="M 223.930468 393.474003 
Q 209.00962 386.237298 194.088771 379.000594 
" style="fill: none; stroke: #808080; stroke-linecap: round"/>
   </g>
   <g id="patch_32">
    <path d="M 164.284458 393.593453 
Q 164.649834 394.453161 165.01521 395.312869 
" style="fill: none; stroke: #808080; stroke-linecap: round"/>
   </g>
   <g id="text_55">
    <!-- Fitness vs Age (R² = 0.881, p = 8.598e-17) -->
    <g style="fill: #7f7f7f" transform="translate(410.2 -127.466907) scale(0.12 -0.12)">
     <defs>
      <path id="DejaVuSans-20" transform="scale(0.015625)"/>
      <path id="DejaVuSans-76" d="M 191 3500 
L 800 3500 
L 1894 563 
L 2988 3500 
L 3597 3500 
L 2284 0 
L 1503 0 
L 191 3500 
z
" transform="scale(0.015625)"/>
      <path id="DejaVuSans-67" d="M 2906 1791 
Q 2906 2416 2648 2759 
Q 2391 3103 1925 3103 
Q 1463 3103 1205 2759 
Q 947 2416 947 1791 
Q 947 1169 1205 825 
Q 1463 481 1925 481 
Q 2391 481 2648 825 
Q 2906 1169 2906 1791 
z
M 3481 434 
Q 3481 -459 3084 -895 
Q 2688 -1331 1869 -1331 
Q 1566 -1331 1297 -1286 
Q 1028 -1241 775 -1147 
L 775 -588 
Q 1028 -725 1275 -790 
Q 1522 -856 1778 -856 
Q 2344 -856 2625 -561 
Q 2906 -266 2906 331 
L 2906 616 
Q 2728 306 2450 153 
Q 2172 0 1784 0 
Q 1141 0 747 490 
Q 353 981 353 1791 
Q 353 2603 747 3093 
Q 1141 3584 1784 3584 
Q 2172 3584 2450 3431 
Q 2728 3278 2906 2969 
L 2906 3500 
L 3481 3500 
L 3481 434 
z
" transform="scale(0.015625)"/>
      <path id="DejaVuSans-28" d="M 1984 4856 
Q 1566 4138 1362 3434 
Q 1159 2731 1159 2009 
Q 1159 1288 1364 580 
Q 1569 -128 1984 -844 
L 1484 -844 
Q 1016 -109 783 600 
Q 550 1309 550 2009 
Q 550 2706 781 3412 
Q 1013 4119 1484 4856 
L 1984 4856 
z
" transform="scale(0.015625)"/>
      <path id="DejaVuSans-b2" d="M 838 2444 
L 2163 2444 
L 2163 2088 
L 294 2088 
L 294 2431 
Q 400 2528 597 2703 
Q 1672 3656 1672 3950 
Q 1672 4156 1509 4282 
Q 1347 4409 1081 4409 
Q 919 4409 728 4354 
Q 538 4300 313 4191 
L 313 4575 
Q 553 4663 761 4706 
Q 969 4750 1147 4750 
Q 1600 4750 1872 4544 
Q 2144 4338 2144 4000 
Q 2144 3566 1109 2678 
Q 934 2528 838 2444 
z
" transform="scale(0.015625)"/>
      <path id="DejaVuSans-3d" d="M 678 2906 
L 4684 2906 
L 4684 2381 
L 678 2381 
L 678 2906 
z
M 678 1631 
L 4684 1631 
L 4684 1100 
L 678 1100 
L 678 1631 
z
" transform="scale(0.015625)"/>
      <path id="DejaVuSans-2c" d="M 750 794 
L 1409 794 
L 1409 256 
L 897 -744 
L 494 -744 
L 750 256 
L 750 794 
z
" transform="scale(0.015625)"/>
      <path id="DejaVuSans-70" d="M 1159 525 
L 1159 -1331 
L 581 -1331 
L 581 3500 
L 1159 3500 
L 1159 2969 
Q 1341 3281 1617 3432 
Q 1894 3584 2278 3584 
Q 2916 3584 3314 3078 
Q 3713 2572 3713 1747 
Q 3713 922 3314 415 
Q 2916 -91 2278 -91 
Q 1894 -91 1617 61 
Q 1341 213 1159 525 
z
M 3116 1747 
Q 3116 2381 2855 2742 
Q 2594 3103 2138 3103 
Q 1681 3103 1420 2742 
Q 1159 2381 1159 1747 
Q 1159 1113 1420 752 
Q 1681 391 2138 391 
Q 2594 391 2855 752 
Q 3116 1113 3116 1747 
z
" transform="scale(0.015625)"/>
      <path id="DejaVuSans-39" d="M 703 97 
L 703 672 
Q 941 559 1184 500 
Q 1428 441 1663 441 
Q 2288 441 2617 861 
Q 2947 1281 2994 2138 
Q 2813 1869 2534 1725 
Q 2256 1581 1919 1581 
Q 1219 1581 811 2004 
Q 403 2428 403 3163 
Q 403 3881 828 4315 
Q 1253 4750 1959 4750 
Q 2769 4750 3195 4129 
Q 3622 3509 3622 2328 
Q 3622 1225 3098 567 
Q 2575 -91 1691 -91 
Q 1453 -91 1209 -44 
Q 966 3 703 97 
z
M 1959 2075 
Q 2384 2075 2632 2365 
Q 2881 2656 2881 3163 
Q 2881 3666 2632 3958 
Q 2384 4250 1959 4250 
Q 1534 4250 1286 3958 
Q 1038 3666 1038 3163 
Q 1038 2656 1286 2365 
Q 1534 2075 1959 2075 
z
" transform="scale(0.015625)"/>
      <path id="DejaVuSans-2d" d="M 313 2009 
L 1997 2009 
L 1997 1497 
L 313 1497 
L 313 2009 
z
" transform="scale(0.015625)"/>
      <path id="DejaVuSans-29" d="M 513 4856 
L 1013 4856 
Q 1481 4119 1714 3412 
Q 1947 2706 1947 2009 
Q 1947 1309 1714 600 
Q 1481 -109 1013 -844 
L 513 -844 
Q 928 -128 1133 580 
Q 1338 1288 1338 2009 
Q 1338 2731 1133 3434 
Q 928 4138 513 4856 
z
" transform="scale(0.015625)"/>
     </defs>
     <use xlink:href="#DejaVuSans-46"/>
     <use xlink:href="#DejaVuSans-69" x="50.269531"/>
     <use xlink:href="#DejaVuSans-74" x="78.052734"/>
     <use xlink:href="#DejaVuSans-6e" x="117.261719"/>
     <use xlink:href="#DejaVuSans-65" x="180.640625"/>
     <use xlink:href="#DejaVuSans-73" x="242.164062"/>
     <use xlink:href="#DejaVuSans-73" x="294.263672"/>
     <use xlink:href="#DejaVuSans-20" x="346.363281"/>
     <use xlink:href="#DejaVuSans-76" x="378.150391"/>
     <use xlink:href="#DejaVuSans-73" x="437.330078"/>
     <use xlink:href="#DejaVuSans-20" x="489.429688"/>
     <use xlink:href="#DejaVuSans-41" x="521.216797"/>
     <use xlink:href="#DejaVuSans-67" x="589.625"/>
     <use xlink:href="#DejaVuSans-65" x="653.101562"/>
     <use xlink:href="#DejaVuSans-20" x="714.625"/>
     <use xlink:href="#DejaVuSans-28" x="746.412109"/>
     <use xlink:href="#DejaVuSans-52" x="785.425781"/>
     <use xlink:href="#DejaVuSans-b2" x="854.908203"/>
     <use xlink:href="#DejaVuSans-20" x="894.996094"/>
     <use xlink:href="#DejaVuSans-3d" x="926.783203"/>
     <use xlink:href="#DejaVuSans-20" x="1010.572266"/>
     <use xlink:href="#DejaVuSans-30" x="1042.359375"/>
     <use xlink:href="#DejaVuSans-2e" x="1105.982422"/>
     <use xlink:href="#DejaVuSans-38" x="1137.769531"/>
     <use xlink:href="#DejaVuSans-38" x="1201.392578"/>
     <use xlink:href="#DejaVuSans-31" x="1265.015625"/>
     <use xlink:href="#DejaVuSans-2c" x="1328.638672"/>
     <use xlink:href="#DejaVuSans-20" x="1360.425781"/>
     <use xlink:href="#DejaVuSans-70" x="1392.212891"/>
     <use xlink:href="#DejaVuSans-20" x="1455.689453"/>
     <use xlink:href="#DejaVuSans-3d" x="1487.476562"/>
     <use xlink:href="#DejaVuSans-20" x="1571.265625"/>
     <use xlink:href="#DejaVuSans-38" x="1603.052734"/>
     <use xlink:href="#DejaVuSans-2e" x="1666.675781"/>
     <use xlink:href="#DejaVuSans-35" x="1698.462891"/>
     <use xlink:href="#DejaVuSans-39" x="1762.085938"/>
     <use xlink:href="#DejaVuSans-38" x="1825.708984"/>
     <use xlink:href="#DejaVuSans-65" x="1889.332031"/>
     <use xlink:href="#DejaVuSans-2d" x="1950.855469"/>
     <use xlink:href="#DejaVuSans-31" x="1986.939453"/>
     <use xlink:href="#DejaVuSans-37" x="2050.5625"/>
     <use xlink:href="#DejaVuSans-29" x="2114.185547"/>
    </g>
   </g>
  </g>
 </g>
 <defs>
  <clipPath id="p877661ac59">
   <rect x="63" y="60.48" width="390.6" height="388.08"/>
  </clipPath>
 </defs>
</svg>
