<?xml version="1.0" encoding="UTF-8" standalone="no"?>
<svg
   width="576pt"
   height="360pt"
   viewBox="0 0 576 360"
   version="1.1"
   id="svg259"
   sodipodi:docname="JAK2_part.svg"
   inkscape:export-filename="JAK2_part.png"
   inkscape:export-xdpi="200"
   inkscape:export-ydpi="200"
   inkscape:version="1.4 (1:1.4+202410161351+e7c3feb100)"
   xmlns:inkscape="http://www.inkscape.org/namespaces/inkscape"
   xmlns:sodipodi="http://sodipodi.sourceforge.net/DTD/sodipodi-0.dtd"
   xmlns:xlink="http://www.w3.org/1999/xlink"
   xmlns="http://www.w3.org/2000/svg"
   xmlns:svg="http://www.w3.org/2000/svg"
   xmlns:rdf="http://www.w3.org/1999/02/22-rdf-syntax-ns#"
   xmlns:cc="http://creativecommons.org/ns#"
   xmlns:dc="http://purl.org/dc/elements/1.1/">
  <sodipodi:namedview
     id="namedview259"
     pagecolor="#ffffff"
     bordercolor="#000000"
     borderopacity="0.25"
     inkscape:showpageshadow="2"
     inkscape:pageopacity="0.0"
     inkscape:pagecheckerboard="0"
     inkscape:deskcolor="#d1d1d1"
     inkscape:document-units="pt"
     inkscape:zoom="1.3964445"
     inkscape:cx="380.96751"
     inkscape:cy="244.19158"
     inkscape:window-width="1920"
     inkscape:window-height="1043"
     inkscape:window-x="0"
     inkscape:window-y="0"
     inkscape:window-maximized="1"
     inkscape:current-layer="axes_1" />
  <metadata
     id="metadata1">
    <rdf:RDF>
      <cc:Work>
        <dc:type
           rdf:resource="http://purl.org/dc/dcmitype/StillImage" />
        <dc:date>2024-11-06T13:43:09.626921</dc:date>
        <dc:format>image/svg+xml</dc:format>
        <dc:creator>
          <cc:Agent>
            <dc:title>Matplotlib v3.9.2, https://matplotlib.org/</dc:title>
          </cc:Agent>
        </dc:creator>
      </cc:Work>
    </rdf:RDF>
  </metadata>
  <defs
     id="defs1">
    <style
       type="text/css"
       id="style1">*{stroke-linejoin: round; stroke-linecap: butt}</style>
  </defs>
  <g
     id="figure_1">
    <g
       id="axes_1">
      <g
         id="PathCollection_1">
        <defs
           id="defs2">
          <path
             id="m382e2e7421"
             d="M 0 3  C 0.795609 3 1.55874 2.683901 2.12132 2.12132  C 2.683901 1.55874 3 0.795609 3 0  C 3 -0.795609 2.683901 -1.55874 2.12132 -2.12132  C 1.55874 -2.683901 0.795609 -3 0 -3  C -0.795609 -3 -1.55874 -2.683901 -2.12132 -2.12132  C -2.683901 -1.55874 -3 -0.795609 -3 0  C -3 0.795609 -2.683901 1.55874 -2.12132 2.12132  C -1.55874 2.683901 -0.795609 3 0 3  z "
             style="stroke: #ffffff; stroke-width: 0.48" />
        </defs>
        <g
           clip-path="url(#p1b13ecd988)"
           id="g5">
          <use
             xlink:href="#m382e2e7421"
             x="169.108008"
             y="287.477976"
             style="fill: #1f77b4; stroke: #ffffff; stroke-width: 0.48"
             id="use2" />
          <use
             xlink:href="#m382e2e7421"
             x="186.070105"
             y="293.573608"
             style="fill: #1f77b4; stroke: #ffffff; stroke-width: 0.48"
             id="use3" />
          <use
             xlink:href="#m382e2e7421"
             x="211.513252"
             y="289.828377"
             style="fill: #1f77b4; stroke: #ffffff; stroke-width: 0.48"
             id="use4" />
          <use
             xlink:href="#m382e2e7421"
             x="287.84269"
             y="300.718154"
             style="fill: #1f77b4; stroke: #ffffff; stroke-width: 0.48"
             id="use5" />
        </g>
      </g>
      <g
         id="PolyCollection_1" />
      <g
         id="PathCollection_2">
        <defs
           id="defs5">
          <path
             id="m9f9bbeb69c"
             d="M 0 3  C 0.795609 3 1.55874 2.683901 2.12132 2.12132  C 2.683901 1.55874 3 0.795609 3 0  C 3 -0.795609 2.683901 -1.55874 2.12132 -2.12132  C 1.55874 -2.683901 0.795609 -3 0 -3  C -0.795609 -3 -1.55874 -2.683901 -2.12132 -2.12132  C -2.683901 -1.55874 -3 -0.795609 -3 0  C -3 0.795609 -2.683901 1.55874 -2.12132 2.12132  C -1.55874 2.683901 -0.795609 3 0 3  z "
             style="stroke: #ffffff; stroke-width: 0.48" />
        </defs>
        <g
           clip-path="url(#p1b13ecd988)"
           id="g9">
          <use
             xlink:href="#m9f9bbeb69c"
             x="169.108008"
             y="307.517782"
             style="fill: #ff7f0e; stroke: #ffffff; stroke-width: 0.48"
             id="use6" />
          <use
             xlink:href="#m9f9bbeb69c"
             x="186.070105"
             y="306.353113"
             style="fill: #ff7f0e; stroke: #ffffff; stroke-width: 0.48"
             id="use7" />
          <use
             xlink:href="#m9f9bbeb69c"
             x="211.513252"
             y="306.149391"
             style="fill: #ff7f0e; stroke: #ffffff; stroke-width: 0.48"
             id="use8" />
          <use
             xlink:href="#m9f9bbeb69c"
             x="287.84269"
             y="223.489119"
             style="fill: #ff7f0e; stroke: #ffffff; stroke-width: 0.48"
             id="use9" />
        </g>
      </g>
      <g
         id="PolyCollection_2" />
      <g
         id="matplotlib.axis_1">
        <g
           id="xtick_1">
          <g
             id="line2d_1">
            <defs
               id="defs9">
              <path
                 id="m7de301762d"
                 d="M 0 0  L 0 3.5  "
                 style="stroke: #000000; stroke-width: 0.8" />
            </defs>
            <g
               id="g10">
              <use
                 xlink:href="#m7de301762d"
                 x="101.259618"
                 y="320.4"
                 style="stroke: #000000; stroke-width: 0.8"
                 id="use10" />
            </g>
          </g>
          <g
             id="text_1">
            <!-- 60 -->
            <g
               transform="translate(94.897118 334.998438) scale(0.1 -0.1)"
               id="g12">
              <defs
                 id="defs10">
                <path
                   id="DejaVuSans-36"
                   d="M 2113 2584  Q 1688 2584 1439 2293  Q 1191 2003 1191 1497  Q 1191 994 1439 701  Q 1688 409 2113 409  Q 2538 409 2786 701  Q 3034 994 3034 1497  Q 3034 2003 2786 2293  Q 2538 2584 2113 2584  z M 3366 4563  L 3366 3988  Q 3128 4100 2886 4159  Q 2644 4219 2406 4219  Q 1781 4219 1451 3797  Q 1122 3375 1075 2522  Q 1259 2794 1537 2939  Q 1816 3084 2150 3084  Q 2853 3084 3261 2657  Q 3669 2231 3669 1497  Q 3669 778 3244 343  Q 2819 -91 2113 -91  Q 1303 -91 875 529  Q 447 1150 447 2328  Q 447 3434 972 4092  Q 1497 4750 2381 4750  Q 2619 4750 2861 4703  Q 3103 4656 3366 4563  z "
                   transform="scale(0.015625)" />
                <path
                   id="DejaVuSans-30"
                   d="M 2034 4250  Q 1547 4250 1301 3770  Q 1056 3291 1056 2328  Q 1056 1369 1301 889  Q 1547 409 2034 409  Q 2525 409 2770 889  Q 3016 1369 3016 2328  Q 3016 3291 2770 3770  Q 2525 4250 2034 4250  z M 2034 4750  Q 2819 4750 3233 4129  Q 3647 3509 3647 2328  Q 3647 1150 3233 529  Q 2819 -91 2034 -91  Q 1250 -91 836 529  Q 422 1150 422 2328  Q 422 3509 836 4129  Q 1250 4750 2034 4750  z "
                   transform="scale(0.015625)" />
              </defs>
              <use
                 xlink:href="#DejaVuSans-36"
                 id="use11" />
              <use
                 xlink:href="#DejaVuSans-30"
                 x="63.623047"
                 id="use12" />
            </g>
          </g>
        </g>
        <g
           id="xtick_2">
          <g
             id="line2d_2">
            <g
               id="g13">
              <use
                 xlink:href="#m7de301762d"
                 x="143.664862"
                 y="320.4"
                 style="stroke: #000000; stroke-width: 0.8"
                 id="use13" />
            </g>
          </g>
          <g
             id="text_2">
            <!-- 65 -->
            <g
               transform="translate(137.302362 334.998438) scale(0.1 -0.1)"
               id="g15">
              <defs
                 id="defs13">
                <path
                   id="DejaVuSans-35"
                   d="M 691 4666  L 3169 4666  L 3169 4134  L 1269 4134  L 1269 2991  Q 1406 3038 1543 3061  Q 1681 3084 1819 3084  Q 2600 3084 3056 2656  Q 3513 2228 3513 1497  Q 3513 744 3044 326  Q 2575 -91 1722 -91  Q 1428 -91 1123 -41  Q 819 9 494 109  L 494 744  Q 775 591 1075 516  Q 1375 441 1709 441  Q 2250 441 2565 725  Q 2881 1009 2881 1497  Q 2881 1984 2565 2268  Q 2250 2553 1709 2553  Q 1456 2553 1204 2497  Q 953 2441 691 2322  L 691 4666  z "
                   transform="scale(0.015625)" />
              </defs>
              <use
                 xlink:href="#DejaVuSans-36"
                 id="use14" />
              <use
                 xlink:href="#DejaVuSans-35"
                 x="63.623047"
                 id="use15" />
            </g>
          </g>
        </g>
        <g
           id="xtick_3">
          <g
             id="line2d_3">
            <g
               id="g16">
              <use
                 xlink:href="#m7de301762d"
                 x="186.070105"
                 y="320.4"
                 style="stroke: #000000; stroke-width: 0.8"
                 id="use16" />
            </g>
          </g>
          <g
             id="text_3">
            <!-- 70 -->
            <g
               transform="translate(179.707605 334.998438) scale(0.1 -0.1)"
               id="g18">
              <defs
                 id="defs16">
                <path
                   id="DejaVuSans-37"
                   d="M 525 4666  L 3525 4666  L 3525 4397  L 1831 0  L 1172 0  L 2766 4134  L 525 4134  L 525 4666  z "
                   transform="scale(0.015625)" />
              </defs>
              <use
                 xlink:href="#DejaVuSans-37"
                 id="use17" />
              <use
                 xlink:href="#DejaVuSans-30"
                 x="63.623047"
                 id="use18" />
            </g>
          </g>
        </g>
        <g
           id="xtick_4">
          <g
             id="line2d_4">
            <g
               id="g19">
              <use
                 xlink:href="#m7de301762d"
                 x="228.475349"
                 y="320.4"
                 style="stroke: #000000; stroke-width: 0.8"
                 id="use19" />
            </g>
          </g>
          <g
             id="text_4">
            <!-- 75 -->
            <g
               transform="translate(222.112849 334.998438) scale(0.1 -0.1)"
               id="g21">
              <use
                 xlink:href="#DejaVuSans-37"
                 id="use20" />
              <use
                 xlink:href="#DejaVuSans-35"
                 x="63.623047"
                 id="use21" />
            </g>
          </g>
        </g>
        <g
           id="xtick_5">
          <g
             id="line2d_5">
            <g
               id="g22">
              <use
                 xlink:href="#m7de301762d"
                 x="270.880593"
                 y="320.4"
                 style="stroke: #000000; stroke-width: 0.8"
                 id="use22" />
            </g>
          </g>
          <g
             id="text_5">
            <!-- 80 -->
            <g
               transform="translate(264.518093 334.998438) scale(0.1 -0.1)"
               id="g24">
              <defs
                 id="defs22">
                <path
                   id="DejaVuSans-38"
                   d="M 2034 2216  Q 1584 2216 1326 1975  Q 1069 1734 1069 1313  Q 1069 891 1326 650  Q 1584 409 2034 409  Q 2484 409 2743 651  Q 3003 894 3003 1313  Q 3003 1734 2745 1975  Q 2488 2216 2034 2216  z M 1403 2484  Q 997 2584 770 2862  Q 544 3141 544 3541  Q 544 4100 942 4425  Q 1341 4750 2034 4750  Q 2731 4750 3128 4425  Q 3525 4100 3525 3541  Q 3525 3141 3298 2862  Q 3072 2584 2669 2484  Q 3125 2378 3379 2068  Q 3634 1759 3634 1313  Q 3634 634 3220 271  Q 2806 -91 2034 -91  Q 1263 -91 848 271  Q 434 634 434 1313  Q 434 1759 690 2068  Q 947 2378 1403 2484  z M 1172 3481  Q 1172 3119 1398 2916  Q 1625 2713 2034 2713  Q 2441 2713 2670 2916  Q 2900 3119 2900 3481  Q 2900 3844 2670 4047  Q 2441 4250 2034 4250  Q 1625 4250 1398 4047  Q 1172 3844 1172 3481  z "
                   transform="scale(0.015625)" />
              </defs>
              <use
                 xlink:href="#DejaVuSans-38"
                 id="use23" />
              <use
                 xlink:href="#DejaVuSans-30"
                 x="63.623047"
                 id="use24" />
            </g>
          </g>
        </g>
        <g
           id="xtick_6">
          <g
             id="line2d_6">
            <g
               id="g25">
              <use
                 xlink:href="#m7de301762d"
                 x="313.285836"
                 y="320.4"
                 style="stroke: #000000; stroke-width: 0.8"
                 id="use25" />
            </g>
          </g>
          <g
             id="text_6">
            <!-- 85 -->
            <g
               transform="translate(306.923336 334.998438) scale(0.1 -0.1)"
               id="g27">
              <use
                 xlink:href="#DejaVuSans-38"
                 id="use26" />
              <use
                 xlink:href="#DejaVuSans-35"
                 x="63.623047"
                 id="use27" />
            </g>
          </g>
        </g>
        <g
           id="text_7">
          <!-- Age (yrs) -->
          <g
             transform="translate(184.491477 348.676562) scale(0.1 -0.1)"
             id="g36">
            <defs
               id="defs27">
              <path
                 id="DejaVuSans-41"
                 d="M 2188 4044  L 1331 1722  L 3047 1722  L 2188 4044  z M 1831 4666  L 2547 4666  L 4325 0  L 3669 0  L 3244 1197  L 1141 1197  L 716 0  L 50 0  L 1831 4666  z "
                 transform="scale(0.015625)" />
              <path
                 id="DejaVuSans-67"
                 d="M 2906 1791  Q 2906 2416 2648 2759  Q 2391 3103 1925 3103  Q 1463 3103 1205 2759  Q 947 2416 947 1791  Q 947 1169 1205 825  Q 1463 481 1925 481  Q 2391 481 2648 825  Q 2906 1169 2906 1791  z M 3481 434  Q 3481 -459 3084 -895  Q 2688 -1331 1869 -1331  Q 1566 -1331 1297 -1286  Q 1028 -1241 775 -1147  L 775 -588  Q 1028 -725 1275 -790  Q 1522 -856 1778 -856  Q 2344 -856 2625 -561  Q 2906 -266 2906 331  L 2906 616  Q 2728 306 2450 153  Q 2172 0 1784 0  Q 1141 0 747 490  Q 353 981 353 1791  Q 353 2603 747 3093  Q 1141 3584 1784 3584  Q 2172 3584 2450 3431  Q 2728 3278 2906 2969  L 2906 3500  L 3481 3500  L 3481 434  z "
                 transform="scale(0.015625)" />
              <path
                 id="DejaVuSans-65"
                 d="M 3597 1894  L 3597 1613  L 953 1613  Q 991 1019 1311 708  Q 1631 397 2203 397  Q 2534 397 2845 478  Q 3156 559 3463 722  L 3463 178  Q 3153 47 2828 -22  Q 2503 -91 2169 -91  Q 1331 -91 842 396  Q 353 884 353 1716  Q 353 2575 817 3079  Q 1281 3584 2069 3584  Q 2775 3584 3186 3129  Q 3597 2675 3597 1894  z M 3022 2063  Q 3016 2534 2758 2815  Q 2500 3097 2075 3097  Q 1594 3097 1305 2825  Q 1016 2553 972 2059  L 3022 2063  z "
                 transform="scale(0.015625)" />
              <path
                 id="DejaVuSans-20"
                 transform="scale(0.015625)" />
              <path
                 id="DejaVuSans-28"
                 d="M 1984 4856  Q 1566 4138 1362 3434  Q 1159 2731 1159 2009  Q 1159 1288 1364 580  Q 1569 -128 1984 -844  L 1484 -844  Q 1016 -109 783 600  Q 550 1309 550 2009  Q 550 2706 781 3412  Q 1013 4119 1484 4856  L 1984 4856  z "
                 transform="scale(0.015625)" />
              <path
                 id="DejaVuSans-79"
                 d="M 2059 -325  Q 1816 -950 1584 -1140  Q 1353 -1331 966 -1331  L 506 -1331  L 506 -850  L 844 -850  Q 1081 -850 1212 -737  Q 1344 -625 1503 -206  L 1606 56  L 191 3500  L 800 3500  L 1894 763  L 2988 3500  L 3597 3500  L 2059 -325  z "
                 transform="scale(0.015625)" />
              <path
                 id="DejaVuSans-72"
                 d="M 2631 2963  Q 2534 3019 2420 3045  Q 2306 3072 2169 3072  Q 1681 3072 1420 2755  Q 1159 2438 1159 1844  L 1159 0  L 581 0  L 581 3500  L 1159 3500  L 1159 2956  Q 1341 3275 1631 3429  Q 1922 3584 2338 3584  Q 2397 3584 2469 3576  Q 2541 3569 2628 3553  L 2631 2963  z "
                 transform="scale(0.015625)" />
              <path
                 id="DejaVuSans-73"
                 d="M 2834 3397  L 2834 2853  Q 2591 2978 2328 3040  Q 2066 3103 1784 3103  Q 1356 3103 1142 2972  Q 928 2841 928 2578  Q 928 2378 1081 2264  Q 1234 2150 1697 2047  L 1894 2003  Q 2506 1872 2764 1633  Q 3022 1394 3022 966  Q 3022 478 2636 193  Q 2250 -91 1575 -91  Q 1294 -91 989 -36  Q 684 19 347 128  L 347 722  Q 666 556 975 473  Q 1284 391 1588 391  Q 1994 391 2212 530  Q 2431 669 2431 922  Q 2431 1156 2273 1281  Q 2116 1406 1581 1522  L 1381 1569  Q 847 1681 609 1914  Q 372 2147 372 2553  Q 372 3047 722 3315  Q 1072 3584 1716 3584  Q 2034 3584 2315 3537  Q 2597 3491 2834 3397  z "
                 transform="scale(0.015625)" />
              <path
                 id="DejaVuSans-29"
                 d="M 513 4856  L 1013 4856  Q 1481 4119 1714 3412  Q 1947 2706 1947 2009  Q 1947 1309 1714 600  Q 1481 -109 1013 -844  L 513 -844  Q 928 -128 1133 580  Q 1338 1288 1338 2009  Q 1338 2731 1133 3434  Q 928 4138 513 4856  z "
                 transform="scale(0.015625)" />
            </defs>
            <use
               xlink:href="#DejaVuSans-41"
               id="use28" />
            <use
               xlink:href="#DejaVuSans-67"
               x="68.408203"
               id="use29" />
            <use
               xlink:href="#DejaVuSans-65"
               x="131.884766"
               id="use30" />
            <use
               xlink:href="#DejaVuSans-20"
               x="193.408203"
               id="use31" />
            <use
               xlink:href="#DejaVuSans-28"
               x="225.195312"
               id="use32" />
            <use
               xlink:href="#DejaVuSans-79"
               x="264.208984"
               id="use33" />
            <use
               xlink:href="#DejaVuSans-72"
               x="323.388672"
               id="use34" />
            <use
               xlink:href="#DejaVuSans-73"
               x="364.501953"
               id="use35" />
            <use
               xlink:href="#DejaVuSans-29"
               x="416.601562"
               id="use36" />
          </g>
        </g>
      </g>
      <g
         id="matplotlib.axis_2">
        <g
           id="ytick_1">
          <g
             id="line2d_7">
            <defs
               id="defs36">
              <path
                 id="mb0b217e8f6"
                 d="M 0 0  L -3.5 0  "
                 style="stroke: #000000; stroke-width: 0.8" />
            </defs>
            <g
               id="g37">
              <use
                 xlink:href="#mb0b217e8f6"
                 x="72"
                 y="307.804665"
                 style="stroke: #000000; stroke-width: 0.8"
                 id="use37" />
            </g>
          </g>
          <g
             id="text_8">
            <!-- 0.00 -->
            <g
               transform="translate(42.734375 311.603883) scale(0.1 -0.1)"
               id="g41">
              <defs
                 id="defs37">
                <path
                   id="DejaVuSans-2e"
                   d="M 684 794  L 1344 794  L 1344 0  L 684 0  L 684 794  z "
                   transform="scale(0.015625)" />
              </defs>
              <use
                 xlink:href="#DejaVuSans-30"
                 id="use38" />
              <use
                 xlink:href="#DejaVuSans-2e"
                 x="63.623047"
                 id="use39" />
              <use
                 xlink:href="#DejaVuSans-30"
                 x="95.410156"
                 id="use40" />
              <use
                 xlink:href="#DejaVuSans-30"
                 x="159.033203"
                 id="use41" />
            </g>
          </g>
        </g>
        <g
           id="ytick_2">
          <g
             id="line2d_8">
            <g
               id="g42">
              <use
                 xlink:href="#mb0b217e8f6"
                 x="72"
                 y="273.091834"
                 style="stroke: #000000; stroke-width: 0.8"
                 id="use42" />
            </g>
          </g>
          <g
             id="text_9">
            <!-- 0.05 -->
            <g
               transform="translate(42.734375 276.891052) scale(0.1 -0.1)"
               id="g46">
              <use
                 xlink:href="#DejaVuSans-30"
                 id="use43" />
              <use
                 xlink:href="#DejaVuSans-2e"
                 x="63.623047"
                 id="use44" />
              <use
                 xlink:href="#DejaVuSans-30"
                 x="95.410156"
                 id="use45" />
              <use
                 xlink:href="#DejaVuSans-35"
                 x="159.033203"
                 id="use46" />
            </g>
          </g>
        </g>
        <g
           id="ytick_3">
          <g
             id="line2d_9">
            <g
               id="g47">
              <use
                 xlink:href="#mb0b217e8f6"
                 x="72"
                 y="238.379002"
                 style="stroke: #000000; stroke-width: 0.8"
                 id="use47" />
            </g>
          </g>
          <g
             id="text_10">
            <!-- 0.10 -->
            <g
               transform="translate(42.734375 242.178221) scale(0.1 -0.1)"
               id="g51">
              <defs
                 id="defs47">
                <path
                   id="DejaVuSans-31"
                   d="M 794 531  L 1825 531  L 1825 4091  L 703 3866  L 703 4441  L 1819 4666  L 2450 4666  L 2450 531  L 3481 531  L 3481 0  L 794 0  L 794 531  z "
                   transform="scale(0.015625)" />
              </defs>
              <use
                 xlink:href="#DejaVuSans-30"
                 id="use48" />
              <use
                 xlink:href="#DejaVuSans-2e"
                 x="63.623047"
                 id="use49" />
              <use
                 xlink:href="#DejaVuSans-31"
                 x="95.410156"
                 id="use50" />
              <use
                 xlink:href="#DejaVuSans-30"
                 x="159.033203"
                 id="use51" />
            </g>
          </g>
        </g>
        <g
           id="ytick_4">
          <g
             id="line2d_10">
            <g
               id="g52">
              <use
                 xlink:href="#mb0b217e8f6"
                 x="72"
                 y="203.666171"
                 style="stroke: #000000; stroke-width: 0.8"
                 id="use52" />
            </g>
          </g>
          <g
             id="text_11">
            <!-- 0.15 -->
            <g
               transform="translate(42.734375 207.46539) scale(0.1 -0.1)"
               id="g56">
              <use
                 xlink:href="#DejaVuSans-30"
                 id="use53" />
              <use
                 xlink:href="#DejaVuSans-2e"
                 x="63.623047"
                 id="use54" />
              <use
                 xlink:href="#DejaVuSans-31"
                 x="95.410156"
                 id="use55" />
              <use
                 xlink:href="#DejaVuSans-35"
                 x="159.033203"
                 id="use56" />
            </g>
          </g>
        </g>
        <g
           id="ytick_5">
          <g
             id="line2d_11">
            <g
               id="g57">
              <use
                 xlink:href="#mb0b217e8f6"
                 x="72"
                 y="168.95334"
                 style="stroke: #000000; stroke-width: 0.8"
                 id="use57" />
            </g>
          </g>
          <g
             id="text_12">
            <!-- 0.20 -->
            <g
               transform="translate(42.734375 172.752559) scale(0.1 -0.1)"
               id="g61">
              <defs
                 id="defs57">
                <path
                   id="DejaVuSans-32"
                   d="M 1228 531  L 3431 531  L 3431 0  L 469 0  L 469 531  Q 828 903 1448 1529  Q 2069 2156 2228 2338  Q 2531 2678 2651 2914  Q 2772 3150 2772 3378  Q 2772 3750 2511 3984  Q 2250 4219 1831 4219  Q 1534 4219 1204 4116  Q 875 4013 500 3803  L 500 4441  Q 881 4594 1212 4672  Q 1544 4750 1819 4750  Q 2544 4750 2975 4387  Q 3406 4025 3406 3419  Q 3406 3131 3298 2873  Q 3191 2616 2906 2266  Q 2828 2175 2409 1742  Q 1991 1309 1228 531  z "
                   transform="scale(0.015625)" />
              </defs>
              <use
                 xlink:href="#DejaVuSans-30"
                 id="use58" />
              <use
                 xlink:href="#DejaVuSans-2e"
                 x="63.623047"
                 id="use59" />
              <use
                 xlink:href="#DejaVuSans-32"
                 x="95.410156"
                 id="use60" />
              <use
                 xlink:href="#DejaVuSans-30"
                 x="159.033203"
                 id="use61" />
            </g>
          </g>
        </g>
        <g
           id="ytick_6">
          <g
             id="line2d_12">
            <g
               id="g62">
              <use
                 xlink:href="#mb0b217e8f6"
                 x="72"
                 y="134.240509"
                 style="stroke: #000000; stroke-width: 0.8"
                 id="use62" />
            </g>
          </g>
          <g
             id="text_13">
            <!-- 0.25 -->
            <g
               transform="translate(42.734375 138.039728) scale(0.1 -0.1)"
               id="g66">
              <use
                 xlink:href="#DejaVuSans-30"
                 id="use63" />
              <use
                 xlink:href="#DejaVuSans-2e"
                 x="63.623047"
                 id="use64" />
              <use
                 xlink:href="#DejaVuSans-32"
                 x="95.410156"
                 id="use65" />
              <use
                 xlink:href="#DejaVuSans-35"
                 x="159.033203"
                 id="use66" />
            </g>
          </g>
        </g>
        <g
           id="ytick_7">
          <g
             id="line2d_13">
            <g
               id="g67">
              <use
                 xlink:href="#mb0b217e8f6"
                 x="72"
                 y="99.527678"
                 style="stroke: #000000; stroke-width: 0.8"
                 id="use67" />
            </g>
          </g>
          <g
             id="text_14">
            <!-- 0.30 -->
            <g
               transform="translate(42.734375 103.326897) scale(0.1 -0.1)"
               id="g71">
              <defs
                 id="defs67">
                <path
                   id="DejaVuSans-33"
                   d="M 2597 2516  Q 3050 2419 3304 2112  Q 3559 1806 3559 1356  Q 3559 666 3084 287  Q 2609 -91 1734 -91  Q 1441 -91 1130 -33  Q 819 25 488 141  L 488 750  Q 750 597 1062 519  Q 1375 441 1716 441  Q 2309 441 2620 675  Q 2931 909 2931 1356  Q 2931 1769 2642 2001  Q 2353 2234 1838 2234  L 1294 2234  L 1294 2753  L 1863 2753  Q 2328 2753 2575 2939  Q 2822 3125 2822 3475  Q 2822 3834 2567 4026  Q 2313 4219 1838 4219  Q 1578 4219 1281 4162  Q 984 4106 628 3988  L 628 4550  Q 988 4650 1302 4700  Q 1616 4750 1894 4750  Q 2613 4750 3031 4423  Q 3450 4097 3450 3541  Q 3450 3153 3228 2886  Q 3006 2619 2597 2516  z "
                   transform="scale(0.015625)" />
              </defs>
              <use
                 xlink:href="#DejaVuSans-30"
                 id="use68" />
              <use
                 xlink:href="#DejaVuSans-2e"
                 x="63.623047"
                 id="use69" />
              <use
                 xlink:href="#DejaVuSans-33"
                 x="95.410156"
                 id="use70" />
              <use
                 xlink:href="#DejaVuSans-30"
                 x="159.033203"
                 id="use71" />
            </g>
          </g>
        </g>
        <g
           id="ytick_8">
          <g
             id="line2d_14">
            <g
               id="g72">
              <use
                 xlink:href="#mb0b217e8f6"
                 x="72"
                 y="64.814847"
                 style="stroke: #000000; stroke-width: 0.8"
                 id="use72" />
            </g>
          </g>
          <g
             id="text_15">
            <!-- 0.35 -->
            <g
               transform="translate(42.734375 68.614066) scale(0.1 -0.1)"
               id="g76">
              <use
                 xlink:href="#DejaVuSans-30"
                 id="use73" />
              <use
                 xlink:href="#DejaVuSans-2e"
                 x="63.623047"
                 id="use74" />
              <use
                 xlink:href="#DejaVuSans-33"
                 x="95.410156"
                 id="use75" />
              <use
                 xlink:href="#DejaVuSans-35"
                 x="159.033203"
                 id="use76" />
            </g>
          </g>
        </g>
        <g
           id="text_16">
          <!-- VAF -->
          <g
             transform="translate(36.654688 191.197656) rotate(-90) scale(0.1 -0.1)"
             id="g79">
            <defs
               id="defs76">
              <path
                 id="DejaVuSans-56"
                 d="M 1831 0  L 50 4666  L 709 4666  L 2188 738  L 3669 4666  L 4325 4666  L 2547 0  L 1831 0  z "
                 transform="scale(0.015625)" />
              <path
                 id="DejaVuSans-46"
                 d="M 628 4666  L 3309 4666  L 3309 4134  L 1259 4134  L 1259 2759  L 3109 2759  L 3109 2228  L 1259 2228  L 1259 0  L 628 0  L 628 4666  z "
                 transform="scale(0.015625)" />
            </defs>
            <use
               xlink:href="#DejaVuSans-56"
               id="use77" />
            <use
               xlink:href="#DejaVuSans-41"
               x="62.033203"
               id="use78" />
            <use
               xlink:href="#DejaVuSans-46"
               x="130.441406"
               id="use79" />
          </g>
        </g>
      </g>
      <g
         id="line2d_15">
        <path
           d="M 84.297521 294.359336  L 89.316917 294.282686  L 94.336313 294.205631  L 99.355709 294.128174  L 104.375105 294.050319  L 109.394502 293.97207  L 114.413898 293.893435  L 119.433294 293.814423  L 124.45269 293.73505  L 129.472086 293.655332  L 134.491483 293.575293  L 139.510879 293.494965  L 144.530275 293.41439  L 149.549671 293.33362  L 154.569067 293.252727  L 159.588463 293.1718  L 164.60786 293.090958  L 169.627256 293.010352  L 174.646652 292.930179  L 179.666048 292.850693  L 184.685444 292.772221  L 189.704841 292.695183  L 194.724237 292.620123  L 199.743633 292.547735  L 204.763029 292.478912  L 209.782425 292.414796  L 214.801822 292.356846  L 219.821218 292.306919  L 224.840614 292.267368  L 229.86001 292.241164  L 234.879406 292.232029  L 239.898802 292.244591  L 244.918199 292.284543  L 249.937595 292.358788  L 254.956991 292.475544  L 259.976387 292.644361  L 264.995783 292.875978  L 270.01518 293.181928  L 275.034576 293.573804  L 280.053972 294.062106  L 285.073368 294.654645  L 290.092764 295.354637  L 295.112161 296.158781  L 300.131557 297.055805  L 305.150953 298.026057  L 310.170349 299.042566  L 315.189745 300.073638  L 320.209142 301.086523  L 325.228538 302.051289  L 330.247934 302.94397  "
           clip-path="url(#p1b13ecd988)"
           style="fill: none; stroke-dasharray: 5.55,2.4; stroke-dashoffset: 0; stroke: #1f77b4; stroke-width: 1.5"
           id="path79" />
      </g>
      <g
         id="line2d_16">
        <path
           d="M 84.297521 307.8  L 89.316917 307.798682  L 94.336313 307.796992  L 99.355709 307.794824  L 104.375105 307.792044  L 109.394502 307.788478  L 114.413898 307.783905  L 119.433294 307.77804  L 124.45269 307.770519  L 129.472086 307.760873  L 134.491483 307.748503  L 139.510879 307.732639  L 144.530275 307.712295  L 149.549671 307.686207  L 154.569067 307.652756  L 159.588463 307.609863  L 164.60786 307.554867  L 169.627256 307.484361  L 174.646652 307.393978  L 179.666048 307.278131  L 184.685444 307.12967  L 189.704841 306.939454  L 194.724237 306.695808  L 199.743633 306.383835  L 204.763029 305.984553  L 209.782425 305.473824  L 214.801822 304.821026  L 219.821218 303.98743  L 224.840614 302.924245  L 229.86001 301.570326  L 234.879406 299.849548  L 239.898802 297.667945  L 244.918199 294.910825  L 249.937595 291.440227  L 254.956991 287.093377  L 259.976387 281.683105  L 264.995783 275.00162  L 270.01518 266.829322  L 275.034576 256.950509  L 280.053972 245.177286  L 285.073368 231.38161  L 290.092764 215.532723  L 295.112161 197.733602  L 300.131557 178.246597  L 305.150953 157.497231  L 310.170349 136.048262  L 315.189745 114.544072  L 320.209142 93.635645  L 325.228538 73.903927  L 330.247934 55.8  "
           clip-path="url(#p1b13ecd988)"
           style="fill: none; stroke-dasharray: 5.55,2.4; stroke-dashoffset: 0; stroke: #ff7f0e; stroke-width: 1.5"
           id="path80" />
      </g>
      <g
         id="patch_3">
        <path
           d="M 72 320.4  L 72 43.2  "
           style="fill: none; stroke: #000000; stroke-width: 0.8; stroke-linejoin: miter; stroke-linecap: square"
           id="path81" />
      </g>
      <g
         id="patch_4">
        <path
           d="M 72 320.4  L 342.545455 320.4  "
           style="fill: none; stroke: #000000; stroke-width: 0.8; stroke-linejoin: miter; stroke-linecap: square"
           id="path82" />
      </g>
      <g
         id="text_17"
         transform="translate(-22.4869,-6)">
        <g
           id="patch_5">
          <path
             d="m 112.4869,295.35934 h 48.10156 V 283.68121 H 112.4869 Z"
             style="opacity:0.2;fill:#1f77b4"
             id="path83" />
        </g>
        <!-- ATMA: 0 -->
        <g
           style="fill:#1f77b4"
           transform="matrix(0.1,0,0,-0.1,113.4869,292.27965)"
           id="g89">
          <defs
             id="defs83">
            <path
               id="DejaVuSans-Bold-41"
               d="M 3419,850 H 1538 L 1241,0 H 31 L 1759,4666 H 3194 L 4922,0 H 3713 Z m -1581,866 h 1278 l -638,1856 z"
               transform="scale(0.015625)" />
            <path
               id="DejaVuSans-Bold-54"
               d="M 31,4666 H 4331 V 3756 H 2784 V 0 H 1581 V 3756 H 31 Z"
               transform="scale(0.015625)" />
            <path
               id="DejaVuSans-Bold-4d"
               d="M 588,4666 H 2119 L 3181,2169 4250,4666 H 5778 V 0 H 4641 V 3413 L 3566,897 H 2803 L 1728,3413 V 0 H 588 Z"
               transform="scale(0.015625)" />
            <path
               id="DejaVuSans-Bold-3a"
               d="M 716,3500 H 1844 V 2291 H 716 Z m 0,-2291 H 1844 V 0 H 716 Z"
               transform="scale(0.015625)" />
            <path
               id="DejaVuSans-Bold-20"
               transform="scale(0.015625)"
               d="" />
            <path
               id="DejaVuSans-Bold-30"
               d="m 2944,2338 q 0,875 -164,1232 -164,358 -552,358 -387,0 -553,-358 -166,-357 -166,-1232 0,-885 166,-1248 166,-362 553,-362 385,0 550,362 166,363 166,1248 z m 1203,-10 Q 4147,1169 3647,539 3147,-91 2228,-91 1306,-91 806,539 306,1169 306,2328 q 0,1163 500,1792 500,630 1422,630 919,0 1419,-630 500,-629 500,-1792 z"
               transform="scale(0.015625)" />
          </defs>
          <use
             xlink:href="#DejaVuSans-Bold-41"
             id="use83" />
          <use
             xlink:href="#DejaVuSans-Bold-54"
             x="69.642578"
             id="use84" />
          <use
             xlink:href="#DejaVuSans-Bold-4d"
             x="137.85547"
             id="use85" />
          <use
             xlink:href="#DejaVuSans-Bold-41"
             x="237.36719"
             id="use86" />
          <use
             xlink:href="#DejaVuSans-Bold-3a"
             x="316.63477"
             id="use87" />
          <use
             xlink:href="#DejaVuSans-Bold-20"
             x="356.625"
             id="use88" />
          <use
             xlink:href="#DejaVuSans-Bold-30"
             x="391.43945"
             id="use89" />
        </g>
      </g>
      <g
         id="text_18"
         transform="translate(-15.529088)">
        <g
           id="patch_6">
          <path
             d="m 105.52909,308.8 h 55.05937 v -11.67813 h -55.05937 z"
             style="opacity:0.2;fill:#ff7f0e"
             id="path89" />
        </g>
        <!-- ATMA: 57 -->
        <g
           style="fill:#ff7f0e"
           transform="matrix(0.1,0,0,-0.1,106.52909,305.72031)"
           id="g97">
          <defs
             id="defs89">
            <path
               id="DejaVuSans-Bold-35"
               d="M 678,4666 H 3669 V 3781 H 1638 v -722 q 137,38 276,58 139,21 289,21 853,0 1328,-427 475,-427 475,-1189 0,-756 -517,-1185 -517,-428 -1436,-428 -397,0 -786,77 -389,77 -773,233 v 947 q 381,-219 723,-329 342,-109 646,-109 437,0 688,214 252,214 252,580 0,369 -252,581 -251,213 -688,213 -260,0 -554,-68 -293,-67 -631,-207 z"
               transform="scale(0.015625)" />
            <path
               id="DejaVuSans-Bold-37"
               d="M 428,4666 H 3944 V 3988 L 2125,0 H 953 L 2675,3781 H 428 Z"
               transform="scale(0.015625)" />
          </defs>
          <use
             xlink:href="#DejaVuSans-Bold-41"
             id="use90" />
          <use
             xlink:href="#DejaVuSans-Bold-54"
             x="69.642578"
             id="use91" />
          <use
             xlink:href="#DejaVuSans-Bold-4d"
             x="137.85547"
             id="use92" />
          <use
             xlink:href="#DejaVuSans-Bold-41"
             x="237.36719"
             id="use93" />
          <use
             xlink:href="#DejaVuSans-Bold-3a"
             x="316.63477"
             id="use94" />
          <use
             xlink:href="#DejaVuSans-Bold-20"
             x="356.625"
             id="use95" />
          <use
             xlink:href="#DejaVuSans-Bold-35"
             x="391.43945"
             id="use96" />
          <use
             xlink:href="#DejaVuSans-Bold-37"
             x="461.01953"
             id="use97" />
        </g>
      </g>
      <g
         id="text_19">
        <!-- Clonal dynamics inference -->
        <g
           transform="translate(127.918977 37.2) scale(0.12 -0.12)"
           id="g122">
          <defs
             id="defs97">
            <path
               id="DejaVuSans-43"
               d="M 4122 4306  L 4122 3641  Q 3803 3938 3442 4084  Q 3081 4231 2675 4231  Q 1875 4231 1450 3742  Q 1025 3253 1025 2328  Q 1025 1406 1450 917  Q 1875 428 2675 428  Q 3081 428 3442 575  Q 3803 722 4122 1019  L 4122 359  Q 3791 134 3420 21  Q 3050 -91 2638 -91  Q 1578 -91 968 557  Q 359 1206 359 2328  Q 359 3453 968 4101  Q 1578 4750 2638 4750  Q 3056 4750 3426 4639  Q 3797 4528 4122 4306  z "
               transform="scale(0.015625)" />
            <path
               id="DejaVuSans-6c"
               d="M 603 4863  L 1178 4863  L 1178 0  L 603 0  L 603 4863  z "
               transform="scale(0.015625)" />
            <path
               id="DejaVuSans-6f"
               d="M 1959 3097  Q 1497 3097 1228 2736  Q 959 2375 959 1747  Q 959 1119 1226 758  Q 1494 397 1959 397  Q 2419 397 2687 759  Q 2956 1122 2956 1747  Q 2956 2369 2687 2733  Q 2419 3097 1959 3097  z M 1959 3584  Q 2709 3584 3137 3096  Q 3566 2609 3566 1747  Q 3566 888 3137 398  Q 2709 -91 1959 -91  Q 1206 -91 779 398  Q 353 888 353 1747  Q 353 2609 779 3096  Q 1206 3584 1959 3584  z "
               transform="scale(0.015625)" />
            <path
               id="DejaVuSans-6e"
               d="M 3513 2113  L 3513 0  L 2938 0  L 2938 2094  Q 2938 2591 2744 2837  Q 2550 3084 2163 3084  Q 1697 3084 1428 2787  Q 1159 2491 1159 1978  L 1159 0  L 581 0  L 581 3500  L 1159 3500  L 1159 2956  Q 1366 3272 1645 3428  Q 1925 3584 2291 3584  Q 2894 3584 3203 3211  Q 3513 2838 3513 2113  z "
               transform="scale(0.015625)" />
            <path
               id="DejaVuSans-61"
               d="M 2194 1759  Q 1497 1759 1228 1600  Q 959 1441 959 1056  Q 959 750 1161 570  Q 1363 391 1709 391  Q 2188 391 2477 730  Q 2766 1069 2766 1631  L 2766 1759  L 2194 1759  z M 3341 1997  L 3341 0  L 2766 0  L 2766 531  Q 2569 213 2275 61  Q 1981 -91 1556 -91  Q 1019 -91 701 211  Q 384 513 384 1019  Q 384 1609 779 1909  Q 1175 2209 1959 2209  L 2766 2209  L 2766 2266  Q 2766 2663 2505 2880  Q 2244 3097 1772 3097  Q 1472 3097 1187 3025  Q 903 2953 641 2809  L 641 3341  Q 956 3463 1253 3523  Q 1550 3584 1831 3584  Q 2591 3584 2966 3190  Q 3341 2797 3341 1997  z "
               transform="scale(0.015625)" />
            <path
               id="DejaVuSans-64"
               d="M 2906 2969  L 2906 4863  L 3481 4863  L 3481 0  L 2906 0  L 2906 525  Q 2725 213 2448 61  Q 2172 -91 1784 -91  Q 1150 -91 751 415  Q 353 922 353 1747  Q 353 2572 751 3078  Q 1150 3584 1784 3584  Q 2172 3584 2448 3432  Q 2725 3281 2906 2969  z M 947 1747  Q 947 1113 1208 752  Q 1469 391 1925 391  Q 2381 391 2643 752  Q 2906 1113 2906 1747  Q 2906 2381 2643 2742  Q 2381 3103 1925 3103  Q 1469 3103 1208 2742  Q 947 2381 947 1747  z "
               transform="scale(0.015625)" />
            <path
               id="DejaVuSans-6d"
               d="M 3328 2828  Q 3544 3216 3844 3400  Q 4144 3584 4550 3584  Q 5097 3584 5394 3201  Q 5691 2819 5691 2113  L 5691 0  L 5113 0  L 5113 2094  Q 5113 2597 4934 2840  Q 4756 3084 4391 3084  Q 3944 3084 3684 2787  Q 3425 2491 3425 1978  L 3425 0  L 2847 0  L 2847 2094  Q 2847 2600 2669 2842  Q 2491 3084 2119 3084  Q 1678 3084 1418 2786  Q 1159 2488 1159 1978  L 1159 0  L 581 0  L 581 3500  L 1159 3500  L 1159 2956  Q 1356 3278 1631 3431  Q 1906 3584 2284 3584  Q 2666 3584 2933 3390  Q 3200 3197 3328 2828  z "
               transform="scale(0.015625)" />
            <path
               id="DejaVuSans-69"
               d="M 603 3500  L 1178 3500  L 1178 0  L 603 0  L 603 3500  z M 603 4863  L 1178 4863  L 1178 4134  L 603 4134  L 603 4863  z "
               transform="scale(0.015625)" />
            <path
               id="DejaVuSans-63"
               d="M 3122 3366  L 3122 2828  Q 2878 2963 2633 3030  Q 2388 3097 2138 3097  Q 1578 3097 1268 2742  Q 959 2388 959 1747  Q 959 1106 1268 751  Q 1578 397 2138 397  Q 2388 397 2633 464  Q 2878 531 3122 666  L 3122 134  Q 2881 22 2623 -34  Q 2366 -91 2075 -91  Q 1284 -91 818 406  Q 353 903 353 1747  Q 353 2603 823 3093  Q 1294 3584 2113 3584  Q 2378 3584 2631 3529  Q 2884 3475 3122 3366  z "
               transform="scale(0.015625)" />
            <path
               id="DejaVuSans-66"
               d="M 2375 4863  L 2375 4384  L 1825 4384  Q 1516 4384 1395 4259  Q 1275 4134 1275 3809  L 1275 3500  L 2222 3500  L 2222 3053  L 1275 3053  L 1275 0  L 697 0  L 697 3053  L 147 3053  L 147 3500  L 697 3500  L 697 3744  Q 697 4328 969 4595  Q 1241 4863 1831 4863  L 2375 4863  z "
               transform="scale(0.015625)" />
          </defs>
          <use
             xlink:href="#DejaVuSans-43"
             id="use98" />
          <use
             xlink:href="#DejaVuSans-6c"
             x="69.824219"
             id="use99" />
          <use
             xlink:href="#DejaVuSans-6f"
             x="97.607422"
             id="use100" />
          <use
             xlink:href="#DejaVuSans-6e"
             x="158.789062"
             id="use101" />
          <use
             xlink:href="#DejaVuSans-61"
             x="222.167969"
             id="use102" />
          <use
             xlink:href="#DejaVuSans-6c"
             x="283.447266"
             id="use103" />
          <use
             xlink:href="#DejaVuSans-20"
             x="311.230469"
             id="use104" />
          <use
             xlink:href="#DejaVuSans-64"
             x="343.017578"
             id="use105" />
          <use
             xlink:href="#DejaVuSans-79"
             x="406.494141"
             id="use106" />
          <use
             xlink:href="#DejaVuSans-6e"
             x="465.673828"
             id="use107" />
          <use
             xlink:href="#DejaVuSans-61"
             x="529.052734"
             id="use108" />
          <use
             xlink:href="#DejaVuSans-6d"
             x="590.332031"
             id="use109" />
          <use
             xlink:href="#DejaVuSans-69"
             x="687.744141"
             id="use110" />
          <use
             xlink:href="#DejaVuSans-63"
             x="715.527344"
             id="use111" />
          <use
             xlink:href="#DejaVuSans-73"
             x="770.507812"
             id="use112" />
          <use
             xlink:href="#DejaVuSans-20"
             x="822.607422"
             id="use113" />
          <use
             xlink:href="#DejaVuSans-69"
             x="854.394531"
             id="use114" />
          <use
             xlink:href="#DejaVuSans-6e"
             x="882.177734"
             id="use115" />
          <use
             xlink:href="#DejaVuSans-66"
             x="945.556641"
             id="use116" />
          <use
             xlink:href="#DejaVuSans-65"
             x="980.761719"
             id="use117" />
          <use
             xlink:href="#DejaVuSans-72"
             x="1042.285156"
             id="use118" />
          <use
             xlink:href="#DejaVuSans-65"
             x="1081.148438"
             id="use119" />
          <use
             xlink:href="#DejaVuSans-6e"
             x="1142.671875"
             id="use120" />
          <use
             xlink:href="#DejaVuSans-63"
             x="1206.050781"
             id="use121" />
          <use
             xlink:href="#DejaVuSans-65"
             x="1261.03125"
             id="use122" />
        </g>
      </g>
      <g
         id="legend_1">
        <g
           id="patch_7">
          <path
             d="M 79 80.55625  L 199.745313 80.55625  Q 201.745313 80.55625 201.745313 78.55625  L 201.745313 50.2  Q 201.745313 48.2 199.745313 48.2  L 79 48.2  Q 77 48.2 77 50.2  L 77 78.55625  Q 77 80.55625 79 80.55625  z "
             style="fill: #ffffff; opacity: 0.8; stroke: #cccccc; stroke-linejoin: miter"
             id="path122" />
        </g>
        <g
           id="PathCollection_3">
          <g
             id="g123">
            <use
               xlink:href="#m382e2e7421"
               x="91"
               y="57.173437"
               style="fill: #1f77b4; stroke: #ffffff; stroke-width: 0.48"
               id="use123" />
          </g>
        </g>
        <g
           id="text_20">
          <!-- DNMT3A p.C494X -->
          <g
             transform="translate(109 59.798437) scale(0.1 -0.1)"
             id="g137">
            <defs
               id="defs123">
              <path
                 id="DejaVuSans-44"
                 d="M 1259 4147  L 1259 519  L 2022 519  Q 2988 519 3436 956  Q 3884 1394 3884 2338  Q 3884 3275 3436 3711  Q 2988 4147 2022 4147  L 1259 4147  z M 628 4666  L 1925 4666  Q 3281 4666 3915 4102  Q 4550 3538 4550 2338  Q 4550 1131 3912 565  Q 3275 0 1925 0  L 628 0  L 628 4666  z "
                 transform="scale(0.015625)" />
              <path
                 id="DejaVuSans-4e"
                 d="M 628 4666  L 1478 4666  L 3547 763  L 3547 4666  L 4159 4666  L 4159 0  L 3309 0  L 1241 3903  L 1241 0  L 628 0  L 628 4666  z "
                 transform="scale(0.015625)" />
              <path
                 id="DejaVuSans-4d"
                 d="M 628 4666  L 1569 4666  L 2759 1491  L 3956 4666  L 4897 4666  L 4897 0  L 4281 0  L 4281 4097  L 3078 897  L 2444 897  L 1241 4097  L 1241 0  L 628 0  L 628 4666  z "
                 transform="scale(0.015625)" />
              <path
                 id="DejaVuSans-54"
                 d="M -19 4666  L 3928 4666  L 3928 4134  L 2272 4134  L 2272 0  L 1638 0  L 1638 4134  L -19 4134  L -19 4666  z "
                 transform="scale(0.015625)" />
              <path
                 id="DejaVuSans-70"
                 d="M 1159 525  L 1159 -1331  L 581 -1331  L 581 3500  L 1159 3500  L 1159 2969  Q 1341 3281 1617 3432  Q 1894 3584 2278 3584  Q 2916 3584 3314 3078  Q 3713 2572 3713 1747  Q 3713 922 3314 415  Q 2916 -91 2278 -91  Q 1894 -91 1617 61  Q 1341 213 1159 525  z M 3116 1747  Q 3116 2381 2855 2742  Q 2594 3103 2138 3103  Q 1681 3103 1420 2742  Q 1159 2381 1159 1747  Q 1159 1113 1420 752  Q 1681 391 2138 391  Q 2594 391 2855 752  Q 3116 1113 3116 1747  z "
                 transform="scale(0.015625)" />
              <path
                 id="DejaVuSans-34"
                 d="M 2419 4116  L 825 1625  L 2419 1625  L 2419 4116  z M 2253 4666  L 3047 4666  L 3047 1625  L 3713 1625  L 3713 1100  L 3047 1100  L 3047 0  L 2419 0  L 2419 1100  L 313 1100  L 313 1709  L 2253 4666  z "
                 transform="scale(0.015625)" />
              <path
                 id="DejaVuSans-39"
                 d="M 703 97  L 703 672  Q 941 559 1184 500  Q 1428 441 1663 441  Q 2288 441 2617 861  Q 2947 1281 2994 2138  Q 2813 1869 2534 1725  Q 2256 1581 1919 1581  Q 1219 1581 811 2004  Q 403 2428 403 3163  Q 403 3881 828 4315  Q 1253 4750 1959 4750  Q 2769 4750 3195 4129  Q 3622 3509 3622 2328  Q 3622 1225 3098 567  Q 2575 -91 1691 -91  Q 1453 -91 1209 -44  Q 966 3 703 97  z M 1959 2075  Q 2384 2075 2632 2365  Q 2881 2656 2881 3163  Q 2881 3666 2632 3958  Q 2384 4250 1959 4250  Q 1534 4250 1286 3958  Q 1038 3666 1038 3163  Q 1038 2656 1286 2365  Q 1534 2075 1959 2075  z "
                 transform="scale(0.015625)" />
              <path
                 id="DejaVuSans-58"
                 d="M 403 4666  L 1081 4666  L 2241 2931  L 3406 4666  L 4084 4666  L 2584 2425  L 4184 0  L 3506 0  L 2194 1984  L 872 0  L 191 0  L 1856 2491  L 403 4666  z "
                 transform="scale(0.015625)" />
            </defs>
            <use
               xlink:href="#DejaVuSans-44"
               id="use124" />
            <use
               xlink:href="#DejaVuSans-4e"
               x="77.001953"
               id="use125" />
            <use
               xlink:href="#DejaVuSans-4d"
               x="151.806641"
               id="use126" />
            <use
               xlink:href="#DejaVuSans-54"
               x="238.085938"
               id="use127" />
            <use
               xlink:href="#DejaVuSans-33"
               x="299.169922"
               id="use128" />
            <use
               xlink:href="#DejaVuSans-41"
               x="362.792969"
               id="use129" />
            <use
               xlink:href="#DejaVuSans-20"
               x="431.201172"
               id="use130" />
            <use
               xlink:href="#DejaVuSans-70"
               x="462.988281"
               id="use131" />
            <use
               xlink:href="#DejaVuSans-2e"
               x="526.464844"
               id="use132" />
            <use
               xlink:href="#DejaVuSans-43"
               x="558.251953"
               id="use133" />
            <use
               xlink:href="#DejaVuSans-34"
               x="628.076172"
               id="use134" />
            <use
               xlink:href="#DejaVuSans-39"
               x="691.699219"
               id="use135" />
            <use
               xlink:href="#DejaVuSans-34"
               x="755.322266"
               id="use136" />
            <use
               xlink:href="#DejaVuSans-58"
               x="818.945312"
               id="use137" />
          </g>
        </g>
        <g
           id="PathCollection_4">
          <g
             id="g138">
            <use
               xlink:href="#m9f9bbeb69c"
               x="91"
               y="71.851562"
               style="fill: #ff7f0e; stroke: #ffffff; stroke-width: 0.48"
               id="use138" />
          </g>
        </g>
        <g
           id="text_21">
          <!-- JAK2 p.V617F -->
          <g
             transform="translate(109 74.476562) scale(0.1 -0.1)"
             id="g150">
            <defs
               id="defs138">
              <path
                 id="DejaVuSans-4a"
                 d="M 628 4666  L 1259 4666  L 1259 325  Q 1259 -519 939 -900  Q 619 -1281 -91 -1281  L -331 -1281  L -331 -750  L -134 -750  Q 284 -750 456 -515  Q 628 -281 628 325  L 628 4666  z "
                 transform="scale(0.015625)" />
              <path
                 id="DejaVuSans-4b"
                 d="M 628 4666  L 1259 4666  L 1259 2694  L 3353 4666  L 4166 4666  L 1850 2491  L 4331 0  L 3500 0  L 1259 2247  L 1259 0  L 628 0  L 628 4666  z "
                 transform="scale(0.015625)" />
            </defs>
            <use
               xlink:href="#DejaVuSans-4a"
               id="use139" />
            <use
               xlink:href="#DejaVuSans-41"
               x="27.742188"
               id="use140" />
            <use
               xlink:href="#DejaVuSans-4b"
               x="96.150391"
               id="use141" />
            <use
               xlink:href="#DejaVuSans-32"
               x="161.726562"
               id="use142" />
            <use
               xlink:href="#DejaVuSans-20"
               x="225.349609"
               id="use143" />
            <use
               xlink:href="#DejaVuSans-70"
               x="257.136719"
               id="use144" />
            <use
               xlink:href="#DejaVuSans-2e"
               x="320.613281"
               id="use145" />
            <use
               xlink:href="#DejaVuSans-56"
               x="352.400391"
               id="use146" />
            <use
               xlink:href="#DejaVuSans-36"
               x="420.808594"
               id="use147" />
            <use
               xlink:href="#DejaVuSans-31"
               x="484.431641"
               id="use148" />
            <use
               xlink:href="#DejaVuSans-37"
               x="548.054688"
               id="use149" />
            <use
               xlink:href="#DejaVuSans-46"
               x="611.677734"
               id="use150" />
          </g>
        </g>
      </g>
    </g>
    <g
       id="axes_2">
      <g
         id="PolyCollection_3" />
      <g
         id="PolyCollection_4">
        <defs
           id="defs150">
          <path
             id="me99687c32d"
             d="M 389.276033 -52.2  L 389.276033 -304.2  L 389.890909 -60.080599  L 390.505785 -52.357917  L 391.120661 -52.201976  L 391.735537 -52.200015  L 392.350413 -52.2  L 392.965289 -52.2  L 393.580165 -52.2  L 394.195041 -52.2  L 394.809917 -52.2  L 395.424793 -52.2  L 396.039669 -52.2  L 396.654545 -52.2  L 397.269421 -52.2  L 397.884298 -52.2  L 398.499173 -52.2  L 399.114049 -52.2  L 399.728926 -52.2  L 400.343801 -52.2  L 400.958677 -52.2  L 401.573552 -52.2  L 402.18843 -52.2  L 402.803306 -52.2  L 403.418181 -52.2  L 404.033057 -52.2  L 404.647935 -52.2  L 405.262809 -52.2  L 405.877685 -52.2  L 406.492562 -52.2  L 407.107438 -52.2  L 407.722312 -52.2  L 408.33719 -52.2  L 408.952065 -52.2  L 409.566941 -52.2  L 410.181819 -52.2  L 410.796694 -52.2  L 411.41157 -52.2  L 412.026446 -52.2  L 412.641322 -52.2  L 413.256197 -52.2  L 413.871073 -52.2  L 414.485949 -52.2  L 415.100826 -52.2  L 415.715702 -52.2  L 416.330578 -52.2  L 416.945454 -52.2  L 417.560329 -52.2  L 418.175207 -52.2  L 418.790081 -52.2  L 419.404956 -52.2  L 420.019834 -52.2  L 420.634712 -52.2  L 421.249586 -52.2  L 421.864461 -52.2  L 422.479335 -52.2  L 423.094217 -52.2  L 423.709091 -52.2  L 424.323966 -52.2  L 424.93884 -52.2  L 425.553718 -52.2  L 426.168593 -52.2  L 426.783471 -52.2  L 427.398349 -52.2  L 428.013223 -52.2  L 428.628098 -52.2  L 429.242972 -52.2  L 429.85785 -52.2  L 430.472725 -52.2  L 431.087603 -52.2  L 431.702481 -52.2  L 432.317355 -52.2  L 432.93223 -52.2  L 433.547104 -52.2  L 434.161982 -52.2  L 434.77686 -52.2  L 435.391735 -52.2  L 436.006609 -52.2  L 436.621487 -52.2  L 437.236362 -52.2  L 437.851236 -52.2  L 438.466114 -52.2  L 439.080992 -52.2  L 439.695867 -52.2  L 440.310741 -52.2  L 440.925619 -52.2  L 441.540494 -52.2  L 442.155368 -52.2  L 442.77025 -52.2  L 443.385124 -52.2  L 443.999999 -52.2  L 444.614873 -52.2  L 445.229751 -52.2  L 445.844626 -52.2  L 446.459504 -52.2  L 447.074378 -52.2  L 447.689256 -52.2  L 448.304131 -52.2  L 448.919005 -52.2  L 449.533883 -52.2  L 450.148754 -52.2  L 450.763636 -52.2  L 451.37851 -52.2  L 451.993385 -52.2  L 452.608259 -52.2  L 453.223141 -52.2  L 453.838015 -52.2  L 454.45289 -52.2  L 455.067764 -52.2  L 455.682638 -52.2  L 456.29752 -52.2  L 456.912395 -52.2  L 457.527277 -52.2  L 458.142151 -52.2  L 458.757025 -52.2  L 459.3719 -52.2  L 459.986774 -52.2  L 460.601649 -52.2  L 461.216523 -52.2  L 461.831405 -52.2  L 462.446279 -52.2  L 463.061154 -52.2  L 463.676028 -52.2  L 464.29091 -52.2  L 464.905784 -52.2  L 465.520659 -52.2  L 466.13554 -52.2  L 466.750415 -52.2  L 467.365289 -52.2  L 467.980164 -52.2  L 468.595038 -52.2  L 469.209913 -52.2  L 469.824787 -52.2  L 470.439669 -52.2  L 471.054543 -52.2  L 471.669418 -52.2  L 472.284299 -52.2  L 472.899174 -52.2  L 473.514048 -52.2  L 474.128923 -52.2  L 474.743804 -52.2  L 475.358679 -52.2  L 475.973553 -52.2  L 476.588428 -52.2  L 477.203302 -52.2  L 477.818176 -52.2  L 478.433051 -52.2  L 479.047925 -52.2  L 479.662807 -52.2  L 480.277689 -52.2  L 480.892563 -52.2  L 481.507438 -52.2  L 482.122312 -52.2  L 482.737187 -52.2  L 483.352061 -52.2  L 483.966943 -52.2  L 484.581817 -52.2  L 485.196692 -52.2  L 485.811566 -52.2  L 486.42644 -52.2  L 487.041315 -52.2  L 487.656189 -52.2  L 488.271078 -52.2  L 488.885953 -52.2  L 489.500827 -52.2  L 490.115702 -52.2  L 490.730576 -52.2  L 491.34545 -52.2  L 491.960325 -52.2  L 492.575207 -52.2  L 493.190081 -52.2  L 493.804956 -52.2  L 494.41983 -52.2  L 495.034704 -52.2  L 495.649586 -52.2  L 496.264461 -52.2  L 496.879342 -52.2  L 497.494217 -52.2  L 498.109091 -52.2  L 498.723966 -52.2  L 499.33884 -52.2  L 499.953714 -52.2  L 500.568589 -52.2  L 501.183463 -52.2  L 501.798345 -52.2  L 502.413219 -52.2  L 503.028094 -52.2  L 503.642976 -52.2  L 504.25785 -52.2  L 504.872725 -52.2  L 505.487599 -52.2  L 506.102481 -52.2  L 506.717355 -52.2  L 507.33223 -52.2  L 507.947104 -52.2  L 508.561978 -52.2  L 509.176853 -52.2  L 509.791727 -52.2  L 510.406609 -52.2  L 511.021483 -52.2  L 511.636365 -52.2  L 512.25124 -52.2  L 512.25124 -52.2  L 512.25124 -52.2  L 511.636365 -52.2  L 511.021483 -52.2  L 510.406609 -52.2  L 509.791727 -52.2  L 509.176853 -52.2  L 508.561978 -52.2  L 507.947104 -52.2  L 507.33223 -52.2  L 506.717355 -52.2  L 506.102481 -52.2  L 505.487599 -52.2  L 504.872725 -52.2  L 504.25785 -52.2  L 503.642976 -52.2  L 503.028094 -52.2  L 502.413219 -52.2  L 501.798345 -52.2  L 501.183463 -52.2  L 500.568589 -52.2  L 499.953714 -52.2  L 499.33884 -52.2  L 498.723966 -52.2  L 498.109091 -52.2  L 497.494217 -52.2  L 496.879342 -52.2  L 496.264461 -52.2  L 495.649586 -52.2  L 495.034704 -52.2  L 494.41983 -52.2  L 493.804956 -52.2  L 493.190081 -52.2  L 492.575207 -52.2  L 491.960325 -52.2  L 491.34545 -52.2  L 490.730576 -52.2  L 490.115702 -52.2  L 489.500827 -52.2  L 488.885953 -52.2  L 488.271078 -52.2  L 487.656189 -52.2  L 487.041315 -52.2  L 486.42644 -52.2  L 485.811566 -52.2  L 485.196692 -52.2  L 484.581817 -52.2  L 483.966943 -52.2  L 483.352061 -52.2  L 482.737187 -52.2  L 482.122312 -52.2  L 481.507438 -52.2  L 480.892563 -52.2  L 480.277689 -52.2  L 479.662807 -52.2  L 479.047925 -52.2  L 478.433051 -52.2  L 477.818176 -52.2  L 477.203302 -52.2  L 476.588428 -52.2  L 475.973553 -52.2  L 475.358679 -52.2  L 474.743804 -52.2  L 474.128923 -52.2  L 473.514048 -52.2  L 472.899174 -52.2  L 472.284299 -52.2  L 471.669418 -52.2  L 471.054543 -52.2  L 470.439669 -52.2  L 469.824787 -52.2  L 469.209913 -52.2  L 468.595038 -52.2  L 467.980164 -52.2  L 467.365289 -52.2  L 466.750415 -52.2  L 466.13554 -52.2  L 465.520659 -52.2  L 464.905784 -52.2  L 464.29091 -52.2  L 463.676028 -52.2  L 463.061154 -52.2  L 462.446279 -52.2  L 461.831405 -52.2  L 461.216523 -52.2  L 460.601649 -52.2  L 459.986774 -52.2  L 459.3719 -52.2  L 458.757025 -52.2  L 458.142151 -52.2  L 457.527277 -52.2  L 456.912395 -52.2  L 456.29752 -52.2  L 455.682638 -52.2  L 455.067764 -52.2  L 454.45289 -52.2  L 453.838015 -52.2  L 453.223141 -52.2  L 452.608259 -52.2  L 451.993385 -52.2  L 451.37851 -52.2  L 450.763636 -52.2  L 450.148754 -52.2  L 449.533883 -52.2  L 448.919005 -52.2  L 448.304131 -52.2  L 447.689256 -52.2  L 447.074378 -52.2  L 446.459504 -52.2  L 445.844626 -52.2  L 445.229751 -52.2  L 444.614873 -52.2  L 443.999999 -52.2  L 443.385124 -52.2  L 442.77025 -52.2  L 442.155368 -52.2  L 441.540494 -52.2  L 440.925619 -52.2  L 440.310741 -52.2  L 439.695867 -52.2  L 439.080992 -52.2  L 438.466114 -52.2  L 437.851236 -52.2  L 437.236362 -52.2  L 436.621487 -52.2  L 436.006609 -52.2  L 435.391735 -52.2  L 434.77686 -52.2  L 434.161982 -52.2  L 433.547104 -52.2  L 432.93223 -52.2  L 432.317355 -52.2  L 431.702481 -52.2  L 431.087603 -52.2  L 430.472725 -52.2  L 429.85785 -52.2  L 429.242972 -52.2  L 428.628098 -52.2  L 428.013223 -52.2  L 427.398349 -52.2  L 426.783471 -52.2  L 426.168593 -52.2  L 425.553718 -52.2  L 424.93884 -52.2  L 424.323966 -52.2  L 423.709091 -52.2  L 423.094217 -52.2  L 422.479335 -52.2  L 421.864461 -52.2  L 421.249586 -52.2  L 420.634712 -52.2  L 420.019834 -52.2  L 419.404956 -52.2  L 418.790081 -52.2  L 418.175207 -52.2  L 417.560329 -52.2  L 416.945454 -52.2  L 416.330578 -52.2  L 415.715702 -52.2  L 415.100826 -52.2  L 414.485949 -52.2  L 413.871073 -52.2  L 413.256197 -52.2  L 412.641322 -52.2  L 412.026446 -52.2  L 411.41157 -52.2  L 410.796694 -52.2  L 410.181819 -52.2  L 409.566941 -52.2  L 408.952065 -52.2  L 408.33719 -52.2  L 407.722312 -52.2  L 407.107438 -52.2  L 406.492562 -52.2  L 405.877685 -52.2  L 405.262809 -52.2  L 404.647935 -52.2  L 404.033057 -52.2  L 403.418181 -52.2  L 402.803306 -52.2  L 402.18843 -52.2  L 401.573552 -52.2  L 400.958677 -52.2  L 400.343801 -52.2  L 399.728926 -52.2  L 399.114049 -52.2  L 398.499173 -52.2  L 397.884298 -52.2  L 397.269421 -52.2  L 396.654545 -52.2  L 396.039669 -52.2  L 395.424793 -52.2  L 394.809917 -52.2  L 394.195041 -52.2  L 393.580165 -52.2  L 392.965289 -52.2  L 392.350413 -52.2  L 391.735537 -52.2  L 391.120661 -52.2  L 390.505785 -52.2  L 389.890909 -52.2  L 389.276033 -52.2  z "
             style="stroke: #1f77b4; stroke-opacity: 0.3" />
        </defs>
        <g
           clip-path="url(#p467281fd81)"
           id="g151">
          <use
             xlink:href="#me99687c32d"
             x="0"
             y="360"
             style="fill: #1f77b4; fill-opacity: 0.3; stroke: #1f77b4; stroke-opacity: 0.3"
             id="use151" />
        </g>
      </g>
      <g
         id="PolyCollection_5" />
      <g
         id="PolyCollection_6">
        <defs
           id="defs151">
          <path
             id="m4192cd0b5e"
             d="M 389.276033 -52.2  L 389.276033 -52.2  L 389.890909 -52.2  L 390.505785 -52.2  L 391.120661 -52.2  L 391.735537 -52.2  L 392.350413 -52.2  L 392.965289 -52.2  L 393.580165 -52.2  L 394.195041 -52.2  L 394.809917 -52.2  L 395.424793 -52.2  L 396.039669 -52.2  L 396.654545 -52.2  L 397.269421 -52.2  L 397.884298 -52.2  L 398.499173 -52.2  L 399.114049 -52.2  L 399.728926 -52.2  L 400.343801 -52.2  L 400.958677 -52.2  L 401.573552 -52.2  L 402.18843 -52.2  L 402.803306 -52.2  L 403.418181 -52.2  L 404.033057 -52.2  L 404.647935 -52.2  L 405.262809 -52.2  L 405.877685 -52.2  L 406.492562 -52.2  L 407.107438 -52.2  L 407.722312 -52.2  L 408.33719 -52.2  L 408.952065 -52.2  L 409.566941 -52.2  L 410.181819 -52.2  L 410.796694 -52.2  L 411.41157 -52.2  L 412.026446 -52.2  L 412.641322 -52.2  L 413.256197 -52.2  L 413.871073 -52.2  L 414.485949 -52.2  L 415.100826 -52.2  L 415.715702 -52.2  L 416.330578 -52.2  L 416.945454 -52.2  L 417.560329 -52.2  L 418.175207 -52.2  L 418.790081 -52.2  L 419.404956 -52.2  L 420.019834 -52.2  L 420.634712 -52.2  L 421.249586 -52.2  L 421.864461 -52.2  L 422.479335 -52.2  L 423.094217 -52.2  L 423.709091 -52.2  L 424.323966 -52.2  L 424.93884 -52.2  L 425.553718 -52.2  L 426.168593 -52.2  L 426.783471 -52.2  L 427.398349 -52.2  L 428.013223 -52.2  L 428.628098 -52.200002  L 429.242972 -52.200022  L 429.85785 -52.200231  L 430.472725 -52.201881  L 431.087603 -52.212047  L 431.702481 -52.261741  L 432.317355 -52.461567  L 432.93223 -53.131128  L 433.547104 -54.968995  L 434.161982 -59.318149  L 434.77686 -67.735702  L 435.391735 -82.522949  L 436.006609 -104.698959  L 436.621487 -135.37944  L 437.236362 -173.451941  L 437.851236 -213.504855  L 438.466114 -252.842199  L 439.080992 -284.245768  L 439.695867 -302.558559  L 440.310741 -304.2  L 440.925619 -290.671798  L 441.540494 -263.228139  L 442.155368 -228.070214  L 442.77025 -189.325468  L 443.385124 -152.545515  L 443.999999 -121.706629  L 444.614873 -97.410174  L 445.229751 -79.79265  L 445.844626 -68.14025  L 446.459504 -60.842756  L 447.074378 -56.645154  L 447.689256 -54.356684  L 448.304131 -53.191556  L 448.919005 -52.632462  L 449.533883 -52.378944  L 450.148754 -52.270315  L 450.763636 -52.226291  L 451.37851 -52.209405  L 451.993385 -52.203189  L 452.608259 -52.201039  L 453.223141 -52.200323  L 453.838015 -52.200096  L 454.45289 -52.200027  L 455.067764 -52.200008  L 455.682638 -52.200002  L 456.29752 -52.200001  L 456.912395 -52.2  L 457.527277 -52.2  L 458.142151 -52.2  L 458.757025 -52.2  L 459.3719 -52.2  L 459.986774 -52.2  L 460.601649 -52.2  L 461.216523 -52.2  L 461.831405 -52.2  L 462.446279 -52.2  L 463.061154 -52.2  L 463.676028 -52.2  L 464.29091 -52.2  L 464.905784 -52.2  L 465.520659 -52.2  L 466.13554 -52.2  L 466.750415 -52.2  L 467.365289 -52.2  L 467.980164 -52.2  L 468.595038 -52.2  L 469.209913 -52.2  L 469.824787 -52.2  L 470.439669 -52.2  L 471.054543 -52.2  L 471.669418 -52.2  L 472.284299 -52.2  L 472.899174 -52.2  L 473.514048 -52.2  L 474.128923 -52.2  L 474.743804 -52.2  L 475.358679 -52.2  L 475.973553 -52.2  L 476.588428 -52.2  L 477.203302 -52.2  L 477.818176 -52.2  L 478.433051 -52.2  L 479.047925 -52.2  L 479.662807 -52.2  L 480.277689 -52.2  L 480.892563 -52.2  L 481.507438 -52.2  L 482.122312 -52.2  L 482.737187 -52.2  L 483.352061 -52.2  L 483.966943 -52.2  L 484.581817 -52.2  L 485.196692 -52.2  L 485.811566 -52.2  L 486.42644 -52.2  L 487.041315 -52.2  L 487.656189 -52.2  L 488.271078 -52.2  L 488.885953 -52.2  L 489.500827 -52.2  L 490.115702 -52.2  L 490.730576 -52.2  L 491.34545 -52.2  L 491.960325 -52.2  L 492.575207 -52.2  L 493.190081 -52.2  L 493.804956 -52.2  L 494.41983 -52.2  L 495.034704 -52.2  L 495.649586 -52.2  L 496.264461 -52.2  L 496.879342 -52.2  L 497.494217 -52.2  L 498.109091 -52.2  L 498.723966 -52.2  L 499.33884 -52.2  L 499.953714 -52.2  L 500.568589 -52.2  L 501.183463 -52.2  L 501.798345 -52.2  L 502.413219 -52.2  L 503.028094 -52.2  L 503.642976 -52.2  L 504.25785 -52.2  L 504.872725 -52.2  L 505.487599 -52.2  L 506.102481 -52.2  L 506.717355 -52.2  L 507.33223 -52.2  L 507.947104 -52.2  L 508.561978 -52.2  L 509.176853 -52.2  L 509.791727 -52.2  L 510.406609 -52.2  L 511.021483 -52.2  L 511.636365 -52.2  L 512.25124 -52.2  L 512.25124 -52.2  L 512.25124 -52.2  L 511.636365 -52.2  L 511.021483 -52.2  L 510.406609 -52.2  L 509.791727 -52.2  L 509.176853 -52.2  L 508.561978 -52.2  L 507.947104 -52.2  L 507.33223 -52.2  L 506.717355 -52.2  L 506.102481 -52.2  L 505.487599 -52.2  L 504.872725 -52.2  L 504.25785 -52.2  L 503.642976 -52.2  L 503.028094 -52.2  L 502.413219 -52.2  L 501.798345 -52.2  L 501.183463 -52.2  L 500.568589 -52.2  L 499.953714 -52.2  L 499.33884 -52.2  L 498.723966 -52.2  L 498.109091 -52.2  L 497.494217 -52.2  L 496.879342 -52.2  L 496.264461 -52.2  L 495.649586 -52.2  L 495.034704 -52.2  L 494.41983 -52.2  L 493.804956 -52.2  L 493.190081 -52.2  L 492.575207 -52.2  L 491.960325 -52.2  L 491.34545 -52.2  L 490.730576 -52.2  L 490.115702 -52.2  L 489.500827 -52.2  L 488.885953 -52.2  L 488.271078 -52.2  L 487.656189 -52.2  L 487.041315 -52.2  L 486.42644 -52.2  L 485.811566 -52.2  L 485.196692 -52.2  L 484.581817 -52.2  L 483.966943 -52.2  L 483.352061 -52.2  L 482.737187 -52.2  L 482.122312 -52.2  L 481.507438 -52.2  L 480.892563 -52.2  L 480.277689 -52.2  L 479.662807 -52.2  L 479.047925 -52.2  L 478.433051 -52.2  L 477.818176 -52.2  L 477.203302 -52.2  L 476.588428 -52.2  L 475.973553 -52.2  L 475.358679 -52.2  L 474.743804 -52.2  L 474.128923 -52.2  L 473.514048 -52.2  L 472.899174 -52.2  L 472.284299 -52.2  L 471.669418 -52.2  L 471.054543 -52.2  L 470.439669 -52.2  L 469.824787 -52.2  L 469.209913 -52.2  L 468.595038 -52.2  L 467.980164 -52.2  L 467.365289 -52.2  L 466.750415 -52.2  L 466.13554 -52.2  L 465.520659 -52.2  L 464.905784 -52.2  L 464.29091 -52.2  L 463.676028 -52.2  L 463.061154 -52.2  L 462.446279 -52.2  L 461.831405 -52.2  L 461.216523 -52.2  L 460.601649 -52.2  L 459.986774 -52.2  L 459.3719 -52.2  L 458.757025 -52.2  L 458.142151 -52.2  L 457.527277 -52.2  L 456.912395 -52.2  L 456.29752 -52.2  L 455.682638 -52.2  L 455.067764 -52.2  L 454.45289 -52.2  L 453.838015 -52.2  L 453.223141 -52.2  L 452.608259 -52.2  L 451.993385 -52.2  L 451.37851 -52.2  L 450.763636 -52.2  L 450.148754 -52.2  L 449.533883 -52.2  L 448.919005 -52.2  L 448.304131 -52.2  L 447.689256 -52.2  L 447.074378 -52.2  L 446.459504 -52.2  L 445.844626 -52.2  L 445.229751 -52.2  L 444.614873 -52.2  L 443.999999 -52.2  L 443.385124 -52.2  L 442.77025 -52.2  L 442.155368 -52.2  L 441.540494 -52.2  L 440.925619 -52.2  L 440.310741 -52.2  L 439.695867 -52.2  L 439.080992 -52.2  L 438.466114 -52.2  L 437.851236 -52.2  L 437.236362 -52.2  L 436.621487 -52.2  L 436.006609 -52.2  L 435.391735 -52.2  L 434.77686 -52.2  L 434.161982 -52.2  L 433.547104 -52.2  L 432.93223 -52.2  L 432.317355 -52.2  L 431.702481 -52.2  L 431.087603 -52.2  L 430.472725 -52.2  L 429.85785 -52.2  L 429.242972 -52.2  L 428.628098 -52.2  L 428.013223 -52.2  L 427.398349 -52.2  L 426.783471 -52.2  L 426.168593 -52.2  L 425.553718 -52.2  L 424.93884 -52.2  L 424.323966 -52.2  L 423.709091 -52.2  L 423.094217 -52.2  L 422.479335 -52.2  L 421.864461 -52.2  L 421.249586 -52.2  L 420.634712 -52.2  L 420.019834 -52.2  L 419.404956 -52.2  L 418.790081 -52.2  L 418.175207 -52.2  L 417.560329 -52.2  L 416.945454 -52.2  L 416.330578 -52.2  L 415.715702 -52.2  L 415.100826 -52.2  L 414.485949 -52.2  L 413.871073 -52.2  L 413.256197 -52.2  L 412.641322 -52.2  L 412.026446 -52.2  L 411.41157 -52.2  L 410.796694 -52.2  L 410.181819 -52.2  L 409.566941 -52.2  L 408.952065 -52.2  L 408.33719 -52.2  L 407.722312 -52.2  L 407.107438 -52.2  L 406.492562 -52.2  L 405.877685 -52.2  L 405.262809 -52.2  L 404.647935 -52.2  L 404.033057 -52.2  L 403.418181 -52.2  L 402.803306 -52.2  L 402.18843 -52.2  L 401.573552 -52.2  L 400.958677 -52.2  L 400.343801 -52.2  L 399.728926 -52.2  L 399.114049 -52.2  L 398.499173 -52.2  L 397.884298 -52.2  L 397.269421 -52.2  L 396.654545 -52.2  L 396.039669 -52.2  L 395.424793 -52.2  L 394.809917 -52.2  L 394.195041 -52.2  L 393.580165 -52.2  L 392.965289 -52.2  L 392.350413 -52.2  L 391.735537 -52.2  L 391.120661 -52.2  L 390.505785 -52.2  L 389.890909 -52.2  L 389.276033 -52.2  z "
             style="stroke: #ff7f0e; stroke-opacity: 0.3" />
        </defs>
        <g
           clip-path="url(#p467281fd81)"
           id="g152">
          <use
             xlink:href="#m4192cd0b5e"
             x="0"
             y="360"
             style="fill: #ff7f0e; fill-opacity: 0.3; stroke: #ff7f0e; stroke-opacity: 0.3"
             id="use152" />
        </g>
      </g>
      <g
         id="matplotlib.axis_3">
        <g
           id="xtick_7">
          <g
             id="line2d_17">
            <g
               id="g153">
              <use
                 xlink:href="#m7de301762d"
                 x="388.033859"
                 y="320.4"
                 style="stroke: #000000; stroke-width: 0.8"
                 id="use153" />
            </g>
          </g>
          <g
             id="text_22">
            <!-- 0.0 -->
            <g
               transform="translate(380.082297 334.998438) scale(0.1 -0.1)"
               id="g156">
              <use
                 xlink:href="#DejaVuSans-30"
                 id="use154" />
              <use
                 xlink:href="#DejaVuSans-2e"
                 x="63.623047"
                 id="use155" />
              <use
                 xlink:href="#DejaVuSans-30"
                 x="95.410156"
                 id="use156" />
            </g>
          </g>
        </g>
        <g
           id="xtick_8">
          <g
             id="line2d_18">
            <g
               id="g157">
              <use
                 xlink:href="#m7de301762d"
                 x="450.142549"
                 y="320.4"
                 style="stroke: #000000; stroke-width: 0.8"
                 id="use157" />
            </g>
          </g>
          <g
             id="text_23">
            <!-- 0.5 -->
            <g
               transform="translate(442.190987 334.998438) scale(0.1 -0.1)"
               id="g160">
              <use
                 xlink:href="#DejaVuSans-30"
                 id="use158" />
              <use
                 xlink:href="#DejaVuSans-2e"
                 x="63.623047"
                 id="use159" />
              <use
                 xlink:href="#DejaVuSans-35"
                 x="95.410156"
                 id="use160" />
            </g>
          </g>
        </g>
        <g
           id="xtick_9">
          <g
             id="line2d_19">
            <g
               id="g161">
              <use
                 xlink:href="#m7de301762d"
                 x="512.25124"
                 y="320.4"
                 style="stroke: #000000; stroke-width: 0.8"
                 id="use161" />
            </g>
          </g>
          <g
             id="text_24">
            <!-- 1.0 -->
            <g
               transform="translate(504.299677 334.998438) scale(0.1 -0.1)"
               id="g164">
              <use
                 xlink:href="#DejaVuSans-31"
                 id="use162" />
              <use
                 xlink:href="#DejaVuSans-2e"
                 x="63.623047"
                 id="use163" />
              <use
                 xlink:href="#DejaVuSans-30"
                 x="95.410156"
                 id="use164" />
            </g>
          </g>
        </g>
        <g
           id="text_25">
          <!-- Fitness -->
          <g
             transform="translate(433.446449 348.676562) scale(0.1 -0.1)"
             id="g171">
            <defs
               id="defs164">
              <path
                 id="DejaVuSans-74"
                 d="M 1172 4494  L 1172 3500  L 2356 3500  L 2356 3053  L 1172 3053  L 1172 1153  Q 1172 725 1289 603  Q 1406 481 1766 481  L 2356 481  L 2356 0  L 1766 0  Q 1100 0 847 248  Q 594 497 594 1153  L 594 3053  L 172 3053  L 172 3500  L 594 3500  L 594 4494  L 1172 4494  z "
                 transform="scale(0.015625)" />
            </defs>
            <use
               xlink:href="#DejaVuSans-46"
               id="use165" />
            <use
               xlink:href="#DejaVuSans-69"
               x="50.269531"
               id="use166" />
            <use
               xlink:href="#DejaVuSans-74"
               x="78.052734"
               id="use167" />
            <use
               xlink:href="#DejaVuSans-6e"
               x="117.261719"
               id="use168" />
            <use
               xlink:href="#DejaVuSans-65"
               x="180.640625"
               id="use169" />
            <use
               xlink:href="#DejaVuSans-73"
               x="242.164062"
               id="use170" />
            <use
               xlink:href="#DejaVuSans-73"
               x="294.263672"
               id="use171" />
          </g>
        </g>
      </g>
      <g
         id="matplotlib.axis_4">
        <g
           id="ytick_9">
          <g
             id="line2d_20">
            <g
               id="g172">
              <use
                 xlink:href="#mb0b217e8f6"
                 x="383.127273"
                 y="307.8"
                 style="stroke: #000000; stroke-width: 0.8"
                 id="use172" />
            </g>
          </g>
          <g
             id="text_26">
            <!-- 0.0 -->
            <g
               transform="translate(360.224148 311.599219) scale(0.1 -0.1)"
               id="g175">
              <use
                 xlink:href="#DejaVuSans-30"
                 id="use173" />
              <use
                 xlink:href="#DejaVuSans-2e"
                 x="63.623047"
                 id="use174" />
              <use
                 xlink:href="#DejaVuSans-30"
                 x="95.410156"
                 id="use175" />
            </g>
          </g>
        </g>
        <g
           id="ytick_10">
          <g
             id="line2d_21">
            <g
               id="g176">
              <use
                 xlink:href="#mb0b217e8f6"
                 x="383.127273"
                 y="257.4"
                 style="stroke: #000000; stroke-width: 0.8"
                 id="use176" />
            </g>
          </g>
          <g
             id="text_27">
            <!-- 0.2 -->
            <g
               transform="translate(360.224148 261.199219) scale(0.1 -0.1)"
               id="g179">
              <use
                 xlink:href="#DejaVuSans-30"
                 id="use177" />
              <use
                 xlink:href="#DejaVuSans-2e"
                 x="63.623047"
                 id="use178" />
              <use
                 xlink:href="#DejaVuSans-32"
                 x="95.410156"
                 id="use179" />
            </g>
          </g>
        </g>
        <g
           id="ytick_11">
          <g
             id="line2d_22">
            <g
               id="g180">
              <use
                 xlink:href="#mb0b217e8f6"
                 x="383.127273"
                 y="207"
                 style="stroke: #000000; stroke-width: 0.8"
                 id="use180" />
            </g>
          </g>
          <g
             id="text_28">
            <!-- 0.4 -->
            <g
               transform="translate(360.224148 210.799219) scale(0.1 -0.1)"
               id="g183">
              <use
                 xlink:href="#DejaVuSans-30"
                 id="use181" />
              <use
                 xlink:href="#DejaVuSans-2e"
                 x="63.623047"
                 id="use182" />
              <use
                 xlink:href="#DejaVuSans-34"
                 x="95.410156"
                 id="use183" />
            </g>
          </g>
        </g>
        <g
           id="ytick_12">
          <g
             id="line2d_23">
            <g
               id="g184">
              <use
                 xlink:href="#mb0b217e8f6"
                 x="383.127273"
                 y="156.6"
                 style="stroke: #000000; stroke-width: 0.8"
                 id="use184" />
            </g>
          </g>
          <g
             id="text_29">
            <!-- 0.6 -->
            <g
               transform="translate(360.224148 160.399219) scale(0.1 -0.1)"
               id="g187">
              <use
                 xlink:href="#DejaVuSans-30"
                 id="use185" />
              <use
                 xlink:href="#DejaVuSans-2e"
                 x="63.623047"
                 id="use186" />
              <use
                 xlink:href="#DejaVuSans-36"
                 x="95.410156"
                 id="use187" />
            </g>
          </g>
        </g>
        <g
           id="ytick_13">
          <g
             id="line2d_24">
            <g
               id="g188">
              <use
                 xlink:href="#mb0b217e8f6"
                 x="383.127273"
                 y="106.2"
                 style="stroke: #000000; stroke-width: 0.8"
                 id="use188" />
            </g>
          </g>
          <g
             id="text_30">
            <!-- 0.8 -->
            <g
               transform="translate(360.224148 109.999219) scale(0.1 -0.1)"
               id="g191">
              <use
                 xlink:href="#DejaVuSans-30"
                 id="use189" />
              <use
                 xlink:href="#DejaVuSans-2e"
                 x="63.623047"
                 id="use190" />
              <use
                 xlink:href="#DejaVuSans-38"
                 x="95.410156"
                 id="use191" />
            </g>
          </g>
        </g>
        <g
           id="ytick_14">
          <g
             id="line2d_25">
            <g
               id="g192">
              <use
                 xlink:href="#mb0b217e8f6"
                 x="383.127273"
                 y="55.8"
                 style="stroke: #000000; stroke-width: 0.8"
                 id="use192" />
            </g>
          </g>
          <g
             id="text_31">
            <!-- 1.0 -->
            <g
               transform="translate(360.224148 59.599219) scale(0.1 -0.1)"
               id="g195">
              <use
                 xlink:href="#DejaVuSans-31"
                 id="use193" />
              <use
                 xlink:href="#DejaVuSans-2e"
                 x="63.623047"
                 id="use194" />
              <use
                 xlink:href="#DejaVuSans-30"
                 x="95.410156"
                 id="use195" />
            </g>
          </g>
        </g>
        <g
           id="text_32">
          <!-- Normalised likelihood -->
          <g
             transform="translate(354.14446 235.533594) rotate(-90) scale(0.1 -0.1)"
             id="g216">
            <defs
               id="defs195">
              <path
                 id="DejaVuSans-6b"
                 d="M 581 4863  L 1159 4863  L 1159 1991  L 2875 3500  L 3609 3500  L 1753 1863  L 3688 0  L 2938 0  L 1159 1709  L 1159 0  L 581 0  L 581 4863  z "
                 transform="scale(0.015625)" />
              <path
                 id="DejaVuSans-68"
                 d="M 3513 2113  L 3513 0  L 2938 0  L 2938 2094  Q 2938 2591 2744 2837  Q 2550 3084 2163 3084  Q 1697 3084 1428 2787  Q 1159 2491 1159 1978  L 1159 0  L 581 0  L 581 4863  L 1159 4863  L 1159 2956  Q 1366 3272 1645 3428  Q 1925 3584 2291 3584  Q 2894 3584 3203 3211  Q 3513 2838 3513 2113  z "
                 transform="scale(0.015625)" />
            </defs>
            <use
               xlink:href="#DejaVuSans-4e"
               id="use196" />
            <use
               xlink:href="#DejaVuSans-6f"
               x="74.804688"
               id="use197" />
            <use
               xlink:href="#DejaVuSans-72"
               x="135.986328"
               id="use198" />
            <use
               xlink:href="#DejaVuSans-6d"
               x="175.349609"
               id="use199" />
            <use
               xlink:href="#DejaVuSans-61"
               x="272.761719"
               id="use200" />
            <use
               xlink:href="#DejaVuSans-6c"
               x="334.041016"
               id="use201" />
            <use
               xlink:href="#DejaVuSans-69"
               x="361.824219"
               id="use202" />
            <use
               xlink:href="#DejaVuSans-73"
               x="389.607422"
               id="use203" />
            <use
               xlink:href="#DejaVuSans-65"
               x="441.707031"
               id="use204" />
            <use
               xlink:href="#DejaVuSans-64"
               x="503.230469"
               id="use205" />
            <use
               xlink:href="#DejaVuSans-20"
               x="566.707031"
               id="use206" />
            <use
               xlink:href="#DejaVuSans-6c"
               x="598.494141"
               id="use207" />
            <use
               xlink:href="#DejaVuSans-69"
               x="626.277344"
               id="use208" />
            <use
               xlink:href="#DejaVuSans-6b"
               x="654.060547"
               id="use209" />
            <use
               xlink:href="#DejaVuSans-65"
               x="708.345703"
               id="use210" />
            <use
               xlink:href="#DejaVuSans-6c"
               x="769.869141"
               id="use211" />
            <use
               xlink:href="#DejaVuSans-69"
               x="797.652344"
               id="use212" />
            <use
               xlink:href="#DejaVuSans-68"
               x="825.435547"
               id="use213" />
            <use
               xlink:href="#DejaVuSans-6f"
               x="888.814453"
               id="use214" />
            <use
               xlink:href="#DejaVuSans-6f"
               x="949.996094"
               id="use215" />
            <use
               xlink:href="#DejaVuSans-64"
               x="1011.177734"
               id="use216" />
          </g>
        </g>
      </g>
      <g
         id="line2d_26">
        <path
           d="M 389.276033 55.8  L 389.890909 299.919401  L 390.505785 307.642083  L 391.120661 307.798024  L 426.168593 307.8  L 512.25124 307.8  L 512.25124 307.8  "
           clip-path="url(#p467281fd81)"
           style="fill: none; stroke: #1f77b4; stroke-width: 1.5; stroke-linecap: square"
           id="path216" />
      </g>
      <g
         id="line2d_27">
        <path
           d="M 389.276033 307.8  L 431.702481 307.738259  L 432.317355 307.538433  L 432.93223 306.868872  L 433.547104 305.031005  L 434.161982 300.681851  L 434.77686 292.264298  L 435.391735 277.477051  L 436.006609 255.301041  L 436.621487 224.62056  L 439.080992 75.754232  L 439.695867 57.441441  L 440.310741 55.8  L 440.925619 69.328202  L 441.540494 96.771861  L 443.999999 238.293371  L 444.614873 262.589826  L 445.229751 280.20735  L 445.844626 291.85975  L 446.459504 299.157244  L 447.074378 303.354846  L 447.689256 305.643316  L 448.304131 306.808444  L 448.919005 307.367538  L 449.533883 307.621056  L 450.763636 307.773709  L 455.682638 307.799998  L 512.25124 307.8  L 512.25124 307.8  "
           clip-path="url(#p467281fd81)"
           style="fill: none; stroke: #ff7f0e; stroke-width: 1.5; stroke-linecap: square"
           id="path217" />
      </g>
      <g
         id="patch_9">
        <path
           d="M 383.127273 320.4  L 383.127273 43.2  "
           style="fill: none; stroke: #000000; stroke-width: 0.8; stroke-linejoin: miter; stroke-linecap: square"
           id="path218" />
      </g>
      <g
         id="patch_10">
        <path
           d="M 383.127273 320.4  L 518.4 320.4  "
           style="fill: none; stroke: #000000; stroke-width: 0.8; stroke-linejoin: miter; stroke-linecap: square"
           id="path219" />
      </g>
      <g
         id="text_33">
        <!-- Clonal Fitness -->
        <g
           transform="translate(409.402074 37.2) scale(0.12 -0.12)"
           id="g232">
          <use
             xlink:href="#DejaVuSans-43"
             id="use219" />
          <use
             xlink:href="#DejaVuSans-6c"
             x="69.824219"
             id="use220" />
          <use
             xlink:href="#DejaVuSans-6f"
             x="97.607422"
             id="use221" />
          <use
             xlink:href="#DejaVuSans-6e"
             x="158.789062"
             id="use222" />
          <use
             xlink:href="#DejaVuSans-61"
             x="222.167969"
             id="use223" />
          <use
             xlink:href="#DejaVuSans-6c"
             x="283.447266"
             id="use224" />
          <use
             xlink:href="#DejaVuSans-20"
             x="311.230469"
             id="use225" />
          <use
             xlink:href="#DejaVuSans-46"
             x="343.017578"
             id="use226" />
          <use
             xlink:href="#DejaVuSans-69"
             x="393.287109"
             id="use227" />
          <use
             xlink:href="#DejaVuSans-74"
             x="421.070312"
             id="use228" />
          <use
             xlink:href="#DejaVuSans-6e"
             x="460.279297"
             id="use229" />
          <use
             xlink:href="#DejaVuSans-65"
             x="523.658203"
             id="use230" />
          <use
             xlink:href="#DejaVuSans-73"
             x="585.181641"
             id="use231" />
          <use
             xlink:href="#DejaVuSans-73"
             x="637.28125"
             id="use232" />
        </g>
      </g>
    </g>
  </g>
  <defs
     id="defs259">
    <clipPath
       id="p1b13ecd988">
      <rect
         x="72"
         y="43.2"
         width="270.545455"
         height="277.2"
         id="rect258" />
    </clipPath>
    <clipPath
       id="p467281fd81">
      <rect
         x="383.127273"
         y="43.2"
         width="135.272727"
         height="277.2"
         id="rect259" />
    </clipPath>
  </defs>
</svg>
