<?xml version="1.0" encoding="utf-8" standalone="no"?>
<!DOCTYPE svg PUBLIC "-//W3C//DTD SVG 1.1//EN"
  "http://www.w3.org/Graphics/SVG/1.1/DTD/svg11.dtd">
<svg xmlns:xlink="http://www.w3.org/1999/xlink" width="720pt" height="360pt" viewBox="0 0 720 360" xmlns="http://www.w3.org/2000/svg" version="1.1">
 <metadata>
  <rdf:RDF xmlns:dc="http://purl.org/dc/elements/1.1/" xmlns:cc="http://creativecommons.org/ns#" xmlns:rdf="http://www.w3.org/1999/02/22-rdf-syntax-ns#">
   <cc:Work>
    <dc:type rdf:resource="http://purl.org/dc/dcmitype/StillImage"/>
    <dc:date>2024-11-07T20:19:04.103986</dc:date>
    <dc:format>image/svg+xml</dc:format>
    <dc:creator>
     <cc:Agent>
      <dc:title>Matplotlib v3.9.2, https://matplotlib.org/</dc:title>
     </cc:Agent>
    </dc:creator>
   </cc:Work>
  </rdf:RDF>
 </metadata>
 <defs>
  <style type="text/css">*{stroke-linejoin: round; stroke-linecap: butt}</style>
 </defs>
 <g id="figure_1">
  <g id="patch_1">
   <path d="M 0 360 
L 720 360 
L 720 0 
L 0 0 
z
" style="fill: #ffffff"/>
  </g>
  <g id="axes_1">
   <g id="patch_2">
    <path d="M 90 320.4 
L 428.181818 320.4 
L 428.181818 43.2 
L 90 43.2 
z
" style="fill: #ffffff"/>
   </g>
   <g id="PathCollection_1">
    <defs>
     <path id="ma749aae3ec" d="M 0 5 
C 1.326016 5 2.597899 4.473168 3.535534 3.535534 
C 4.473168 2.597899 5 1.326016 5 0 
C 5 -1.326016 4.473168 -2.597899 3.535534 -3.535534 
C 2.597899 -4.473168 1.326016 -5 0 -5 
C -1.326016 -5 -2.597899 -4.473168 -3.535534 -3.535534 
C -4.473168 -2.597899 -5 -1.326016 -5 0 
C -5 1.326016 -4.473168 2.597899 -3.535534 3.535534 
C -2.597899 4.473168 -1.326016 5 0 5 
z
" style="stroke: #ffffff; stroke-width: 0.8"/>
    </defs>
    <g clip-path="url(#p505ba3fd82)">
     <use xlink:href="#ma749aae3ec" x="176.261617" y="306.09431" style="fill: #1f77b4; stroke: #ffffff; stroke-width: 0.8"/>
     <use xlink:href="#ma749aae3ec" x="196.382643" y="304.054977" style="fill: #1f77b4; stroke: #ffffff; stroke-width: 0.8"/>
     <use xlink:href="#ma749aae3ec" x="224.252984" y="299.002722" style="fill: #1f77b4; stroke: #ffffff; stroke-width: 0.8"/>
    </g>
   </g>
   <g id="PolyCollection_1"/>
   <g id="PathCollection_2">
    <defs>
     <path id="mc0b32e6551" d="M -3 0 
L 3 0 
M 0 3 
L 0 -3 
" style="stroke: #1f77b4; stroke-width: 0.48"/>
    </defs>
    <g clip-path="url(#p505ba3fd82)">
     <use xlink:href="#mc0b32e6551" x="105.371901" y="307.779821" style="fill: #1f77b4; stroke: #1f77b4; stroke-width: 0.48"/>
     <use xlink:href="#mc0b32e6551" x="118.181818" y="307.678269" style="fill: #1f77b4; stroke: #1f77b4; stroke-width: 0.48"/>
     <use xlink:href="#mc0b32e6551" x="130.991736" y="307.50474" style="fill: #1f77b4; stroke: #1f77b4; stroke-width: 0.48"/>
     <use xlink:href="#mc0b32e6551" x="143.801653" y="307.208444" style="fill: #1f77b4; stroke: #1f77b4; stroke-width: 0.48"/>
     <use xlink:href="#mc0b32e6551" x="156.61157" y="306.703198" style="fill: #1f77b4; stroke: #1f77b4; stroke-width: 0.48"/>
     <use xlink:href="#mc0b32e6551" x="169.421488" y="305.843575" style="fill: #1f77b4; stroke: #1f77b4; stroke-width: 0.48"/>
     <use xlink:href="#mc0b32e6551" x="182.231405" y="304.38659" style="fill: #1f77b4; stroke: #1f77b4; stroke-width: 0.48"/>
     <use xlink:href="#mc0b32e6551" x="195.041322" y="301.93302" style="fill: #1f77b4; stroke: #1f77b4; stroke-width: 0.48"/>
     <use xlink:href="#mc0b32e6551" x="207.85124" y="297.845789" style="fill: #1f77b4; stroke: #1f77b4; stroke-width: 0.48"/>
     <use xlink:href="#mc0b32e6551" x="220.661157" y="291.158681" style="fill: #1f77b4; stroke: #1f77b4; stroke-width: 0.48"/>
     <use xlink:href="#mc0b32e6551" x="233.471074" y="280.533833" style="fill: #1f77b4; stroke: #1f77b4; stroke-width: 0.48"/>
     <use xlink:href="#mc0b32e6551" x="246.280992" y="264.414013" style="fill: #1f77b4; stroke: #1f77b4; stroke-width: 0.48"/>
     <use xlink:href="#mc0b32e6551" x="259.090909" y="241.593011" style="fill: #1f77b4; stroke: #1f77b4; stroke-width: 0.48"/>
     <use xlink:href="#mc0b32e6551" x="271.900826" y="212.261364" style="fill: #1f77b4; stroke: #1f77b4; stroke-width: 0.48"/>
     <use xlink:href="#mc0b32e6551" x="284.710744" y="178.911139" style="fill: #1f77b4; stroke: #1f77b4; stroke-width: 0.48"/>
     <use xlink:href="#mc0b32e6551" x="297.520661" y="145.888586" style="fill: #1f77b4; stroke: #1f77b4; stroke-width: 0.48"/>
     <use xlink:href="#mc0b32e6551" x="310.330579" y="117.376863" style="fill: #1f77b4; stroke: #1f77b4; stroke-width: 0.48"/>
     <use xlink:href="#mc0b32e6551" x="323.140496" y="95.529463" style="fill: #1f77b4; stroke: #1f77b4; stroke-width: 0.48"/>
     <use xlink:href="#mc0b32e6551" x="335.950413" y="80.270906" style="fill: #1f77b4; stroke: #1f77b4; stroke-width: 0.48"/>
     <use xlink:href="#mc0b32e6551" x="348.760331" y="70.291172" style="fill: #1f77b4; stroke: #1f77b4; stroke-width: 0.48"/>
     <use xlink:href="#mc0b32e6551" x="361.570248" y="64.041336" style="fill: #1f77b4; stroke: #1f77b4; stroke-width: 0.48"/>
     <use xlink:href="#mc0b32e6551" x="374.380165" y="60.233183" style="fill: #1f77b4; stroke: #1f77b4; stroke-width: 0.48"/>
     <use xlink:href="#mc0b32e6551" x="387.190083" y="57.951434" style="fill: #1f77b4; stroke: #1f77b4; stroke-width: 0.48"/>
     <use xlink:href="#mc0b32e6551" x="400" y="56.597998" style="fill: #1f77b4; stroke: #1f77b4; stroke-width: 0.48"/>
     <use xlink:href="#mc0b32e6551" x="412.809917" y="55.8" style="fill: #1f77b4; stroke: #1f77b4; stroke-width: 0.48"/>
    </g>
   </g>
   <g id="PathCollection_3">
    <defs>
     <path id="m6f53a8a82b" d="M 0 5 
C 1.326016 5 2.597899 4.473168 3.535534 3.535534 
C 4.473168 2.597899 5 1.326016 5 0 
C 5 -1.326016 4.473168 -2.597899 3.535534 -3.535534 
C 2.597899 -4.473168 1.326016 -5 0 -5 
C -1.326016 -5 -2.597899 -4.473168 -3.535534 -3.535534 
C -4.473168 -2.597899 -5 -1.326016 -5 0 
C -5 1.326016 -4.473168 2.597899 -3.535534 3.535534 
C -2.597899 4.473168 -1.326016 5 0 5 
z
" style="stroke: #ffffff; stroke-width: 0.8"/>
    </defs>
    <g clip-path="url(#p505ba3fd82)">
     <use xlink:href="#m6f53a8a82b" x="176.261617" y="232.475989" style="fill: #ff7f0e; stroke: #ffffff; stroke-width: 0.8"/>
     <use xlink:href="#m6f53a8a82b" x="196.382643" y="199.862951" style="fill: #ff7f0e; stroke: #ffffff; stroke-width: 0.8"/>
     <use xlink:href="#m6f53a8a82b" x="224.252984" y="166.086483" style="fill: #ff7f0e; stroke: #ffffff; stroke-width: 0.8"/>
    </g>
   </g>
   <g id="PolyCollection_2"/>
   <g id="PathCollection_4">
    <defs>
     <path id="m7bdb72d173" d="M -3 0 
L 3 0 
M 0 3 
L 0 -3 
" style="stroke: #ff7f0e; stroke-width: 0.48"/>
    </defs>
    <g clip-path="url(#p505ba3fd82)">
     <use xlink:href="#m7bdb72d173" x="105.371901" y="272.179009" style="fill: #ff7f0e; stroke: #ff7f0e; stroke-width: 0.48"/>
     <use xlink:href="#m7bdb72d173" x="118.181818" y="265.061773" style="fill: #ff7f0e; stroke: #ff7f0e; stroke-width: 0.48"/>
     <use xlink:href="#m7bdb72d173" x="130.991736" y="256.860063" style="fill: #ff7f0e; stroke: #ff7f0e; stroke-width: 0.48"/>
     <use xlink:href="#m7bdb72d173" x="143.801653" y="247.539345" style="fill: #ff7f0e; stroke: #ff7f0e; stroke-width: 0.48"/>
     <use xlink:href="#m7bdb72d173" x="156.61157" y="237.113107" style="fill: #ff7f0e; stroke: #ff7f0e; stroke-width: 0.48"/>
     <use xlink:href="#m7bdb72d173" x="169.421488" y="225.6545" style="fill: #ff7f0e; stroke: #ff7f0e; stroke-width: 0.48"/>
     <use xlink:href="#m7bdb72d173" x="182.231405" y="213.30329" style="fill: #ff7f0e; stroke: #ff7f0e; stroke-width: 0.48"/>
     <use xlink:href="#m7bdb72d173" x="195.041322" y="200.26529" style="fill: #ff7f0e; stroke: #ff7f0e; stroke-width: 0.48"/>
     <use xlink:href="#m7bdb72d173" x="207.85124" y="186.802434" style="fill: #ff7f0e; stroke: #ff7f0e; stroke-width: 0.48"/>
     <use xlink:href="#m7bdb72d173" x="220.661157" y="173.213683" style="fill: #ff7f0e; stroke: #ff7f0e; stroke-width: 0.48"/>
     <use xlink:href="#m7bdb72d173" x="233.471074" y="159.809302" style="fill: #ff7f0e; stroke: #ff7f0e; stroke-width: 0.48"/>
     <use xlink:href="#m7bdb72d173" x="246.280992" y="146.883051" style="fill: #ff7f0e; stroke: #ff7f0e; stroke-width: 0.48"/>
     <use xlink:href="#m7bdb72d173" x="259.090909" y="134.68742" style="fill: #ff7f0e; stroke: #ff7f0e; stroke-width: 0.48"/>
     <use xlink:href="#m7bdb72d173" x="271.900826" y="123.416146" style="fill: #ff7f0e; stroke: #ff7f0e; stroke-width: 0.48"/>
     <use xlink:href="#m7bdb72d173" x="284.710744" y="113.19613" style="fill: #ff7f0e; stroke: #ff7f0e; stroke-width: 0.48"/>
     <use xlink:href="#m7bdb72d173" x="297.520661" y="104.088474" style="fill: #ff7f0e; stroke: #ff7f0e; stroke-width: 0.48"/>
     <use xlink:href="#m7bdb72d173" x="310.330579" y="96.096562" style="fill: #ff7f0e; stroke: #ff7f0e; stroke-width: 0.48"/>
     <use xlink:href="#m7bdb72d173" x="323.140496" y="89.178246" style="fill: #ff7f0e; stroke: #ff7f0e; stroke-width: 0.48"/>
     <use xlink:href="#m7bdb72d173" x="335.950413" y="83.259321" style="fill: #ff7f0e; stroke: #ff7f0e; stroke-width: 0.48"/>
     <use xlink:href="#m7bdb72d173" x="348.760331" y="78.246153" style="fill: #ff7f0e; stroke: #ff7f0e; stroke-width: 0.48"/>
     <use xlink:href="#m7bdb72d173" x="361.570248" y="74.036223" style="fill: #ff7f0e; stroke: #ff7f0e; stroke-width: 0.48"/>
     <use xlink:href="#m7bdb72d173" x="374.380165" y="70.5261" style="fill: #ff7f0e; stroke: #ff7f0e; stroke-width: 0.48"/>
     <use xlink:href="#m7bdb72d173" x="387.190083" y="67.616915" style="fill: #ff7f0e; stroke: #ff7f0e; stroke-width: 0.48"/>
     <use xlink:href="#m7bdb72d173" x="400" y="65.217722" style="fill: #ff7f0e; stroke: #ff7f0e; stroke-width: 0.48"/>
     <use xlink:href="#m7bdb72d173" x="412.809917" y="63.2472" style="fill: #ff7f0e; stroke: #ff7f0e; stroke-width: 0.48"/>
    </g>
   </g>
   <g id="PathCollection_5">
    <defs>
     <path id="m8ef13d649b" d="M 0 5 
C 1.326016 5 2.597899 4.473168 3.535534 3.535534 
C 4.473168 2.597899 5 1.326016 5 0 
C 5 -1.326016 4.473168 -2.597899 3.535534 -3.535534 
C 2.597899 -4.473168 1.326016 -5 0 -5 
C -1.326016 -5 -2.597899 -4.473168 -3.535534 -3.535534 
C -4.473168 -2.597899 -5 -1.326016 -5 0 
C -5 1.326016 -4.473168 2.597899 -3.535534 3.535534 
C -2.597899 4.473168 -1.326016 5 0 5 
z
" style="stroke: #ffffff; stroke-width: 0.8"/>
    </defs>
    <g clip-path="url(#p505ba3fd82)">
     <use xlink:href="#m8ef13d649b" x="176.261617" y="282.455938" style="fill: #2ca02c; stroke: #ffffff; stroke-width: 0.8"/>
     <use xlink:href="#m8ef13d649b" x="196.382643" y="267.803351" style="fill: #2ca02c; stroke: #ffffff; stroke-width: 0.8"/>
     <use xlink:href="#m8ef13d649b" x="224.252984" y="277.360634" style="fill: #2ca02c; stroke: #ffffff; stroke-width: 0.8"/>
    </g>
   </g>
   <g id="PolyCollection_3"/>
   <g id="PathCollection_6">
    <defs>
     <path id="m924e02be40" d="M -3 0 
L 3 0 
M 0 3 
L 0 -3 
" style="stroke: #2ca02c; stroke-width: 0.48"/>
    </defs>
    <g clip-path="url(#p505ba3fd82)">
     <use xlink:href="#m924e02be40" x="105.371901" y="296.375177" style="fill: #2ca02c; stroke: #2ca02c; stroke-width: 0.48"/>
     <use xlink:href="#m924e02be40" x="118.181818" y="293.762166" style="fill: #2ca02c; stroke: #2ca02c; stroke-width: 0.48"/>
     <use xlink:href="#m924e02be40" x="130.991736" y="290.600259" style="fill: #2ca02c; stroke: #2ca02c; stroke-width: 0.48"/>
     <use xlink:href="#m924e02be40" x="143.801653" y="286.794725" style="fill: #2ca02c; stroke: #2ca02c; stroke-width: 0.48"/>
     <use xlink:href="#m924e02be40" x="156.61157" y="282.244162" style="fill: #2ca02c; stroke: #2ca02c; stroke-width: 0.48"/>
     <use xlink:href="#m924e02be40" x="169.421488" y="276.844721" style="fill: #2ca02c; stroke: #2ca02c; stroke-width: 0.48"/>
     <use xlink:href="#m924e02be40" x="182.231405" y="270.496657" style="fill: #2ca02c; stroke: #2ca02c; stroke-width: 0.48"/>
     <use xlink:href="#m924e02be40" x="195.041322" y="263.113446" style="fill: #2ca02c; stroke: #2ca02c; stroke-width: 0.48"/>
     <use xlink:href="#m924e02be40" x="207.85124" y="254.633343" style="fill: #2ca02c; stroke: #2ca02c; stroke-width: 0.48"/>
     <use xlink:href="#m924e02be40" x="220.661157" y="245.032596" style="fill: #2ca02c; stroke: #2ca02c; stroke-width: 0.48"/>
     <use xlink:href="#m924e02be40" x="233.471074" y="234.33866" style="fill: #2ca02c; stroke: #2ca02c; stroke-width: 0.48"/>
     <use xlink:href="#m924e02be40" x="246.280992" y="222.640951" style="fill: #2ca02c; stroke: #2ca02c; stroke-width: 0.48"/>
     <use xlink:href="#m924e02be40" x="259.090909" y="210.096159" style="fill: #2ca02c; stroke: #2ca02c; stroke-width: 0.48"/>
     <use xlink:href="#m924e02be40" x="271.900826" y="196.925451" style="fill: #2ca02c; stroke: #2ca02c; stroke-width: 0.48"/>
     <use xlink:href="#m924e02be40" x="284.710744" y="183.402137" style="fill: #2ca02c; stroke: #2ca02c; stroke-width: 0.48"/>
     <use xlink:href="#m924e02be40" x="297.520661" y="169.830588" style="fill: #2ca02c; stroke: #2ca02c; stroke-width: 0.48"/>
     <use xlink:href="#m924e02be40" x="310.330579" y="156.519516" style="fill: #2ca02c; stroke: #2ca02c; stroke-width: 0.48"/>
     <use xlink:href="#m924e02be40" x="323.140496" y="143.754451" style="fill: #2ca02c; stroke: #2ca02c; stroke-width: 0.48"/>
     <use xlink:href="#m924e02be40" x="335.950413" y="131.774474" style="fill: #2ca02c; stroke: #2ca02c; stroke-width: 0.48"/>
     <use xlink:href="#m924e02be40" x="348.760331" y="120.756979" style="fill: #2ca02c; stroke: #2ca02c; stroke-width: 0.48"/>
     <use xlink:href="#m924e02be40" x="361.570248" y="110.811985" style="fill: #2ca02c; stroke: #2ca02c; stroke-width: 0.48"/>
     <use xlink:href="#m924e02be40" x="374.380165" y="101.985182" style="fill: #2ca02c; stroke: #2ca02c; stroke-width: 0.48"/>
     <use xlink:href="#m924e02be40" x="387.190083" y="94.267325" style="fill: #2ca02c; stroke: #2ca02c; stroke-width: 0.48"/>
     <use xlink:href="#m924e02be40" x="400" y="87.606983" style="fill: #2ca02c; stroke: #2ca02c; stroke-width: 0.48"/>
     <use xlink:href="#m924e02be40" x="412.809917" y="81.923973" style="fill: #2ca02c; stroke: #2ca02c; stroke-width: 0.48"/>
    </g>
   </g>
   <g id="matplotlib.axis_1">
    <g id="xtick_1">
     <g id="line2d_1">
      <defs>
       <path id="mc98df24a6f" d="M 0 0 
L 0 3.5 
" style="stroke: #000000; stroke-width: 0.8"/>
      </defs>
      <g>
       <use xlink:href="#mc98df24a6f" x="107.275241" y="320.4" style="stroke: #000000; stroke-width: 0.8"/>
      </g>
     </g>
     <g id="text_1">
      <!-- 60 -->
      <g transform="translate(100.912741 334.998438) scale(0.1 -0.1)">
       <defs>
        <path id="DejaVuSans-36" d="M 2113 2584 
Q 1688 2584 1439 2293 
Q 1191 2003 1191 1497 
Q 1191 994 1439 701 
Q 1688 409 2113 409 
Q 2538 409 2786 701 
Q 3034 994 3034 1497 
Q 3034 2003 2786 2293 
Q 2538 2584 2113 2584 
z
M 3366 4563 
L 3366 3988 
Q 3128 4100 2886 4159 
Q 2644 4219 2406 4219 
Q 1781 4219 1451 3797 
Q 1122 3375 1075 2522 
Q 1259 2794 1537 2939 
Q 1816 3084 2150 3084 
Q 2853 3084 3261 2657 
Q 3669 2231 3669 1497 
Q 3669 778 3244 343 
Q 2819 -91 2113 -91 
Q 1303 -91 875 529 
Q 447 1150 447 2328 
Q 447 3434 972 4092 
Q 1497 4750 2381 4750 
Q 2619 4750 2861 4703 
Q 3103 4656 3366 4563 
z
" transform="scale(0.015625)"/>
        <path id="DejaVuSans-30" d="M 2034 4250 
Q 1547 4250 1301 3770 
Q 1056 3291 1056 2328 
Q 1056 1369 1301 889 
Q 1547 409 2034 409 
Q 2525 409 2770 889 
Q 3016 1369 3016 2328 
Q 3016 3291 2770 3770 
Q 2525 4250 2034 4250 
z
M 2034 4750 
Q 2819 4750 3233 4129 
Q 3647 3509 3647 2328 
Q 3647 1150 3233 529 
Q 2819 -91 2034 -91 
Q 1250 -91 836 529 
Q 422 1150 422 2328 
Q 422 3509 836 4129 
Q 1250 4750 2034 4750 
z
" transform="scale(0.015625)"/>
       </defs>
       <use xlink:href="#DejaVuSans-36"/>
       <use xlink:href="#DejaVuSans-30" x="63.623047"/>
      </g>
     </g>
    </g>
    <g id="xtick_2">
     <g id="line2d_2">
      <g>
       <use xlink:href="#mc98df24a6f" x="178.164957" y="320.4" style="stroke: #000000; stroke-width: 0.8"/>
      </g>
     </g>
     <g id="text_2">
      <!-- 70 -->
      <g transform="translate(171.802457 334.998438) scale(0.1 -0.1)">
       <defs>
        <path id="DejaVuSans-37" d="M 525 4666 
L 3525 4666 
L 3525 4397 
L 1831 0 
L 1172 0 
L 2766 4134 
L 525 4134 
L 525 4666 
z
" transform="scale(0.015625)"/>
       </defs>
       <use xlink:href="#DejaVuSans-37"/>
       <use xlink:href="#DejaVuSans-30" x="63.623047"/>
      </g>
     </g>
    </g>
    <g id="xtick_3">
     <g id="line2d_3">
      <g>
       <use xlink:href="#mc98df24a6f" x="249.054673" y="320.4" style="stroke: #000000; stroke-width: 0.8"/>
      </g>
     </g>
     <g id="text_3">
      <!-- 80 -->
      <g transform="translate(242.692173 334.998438) scale(0.1 -0.1)">
       <defs>
        <path id="DejaVuSans-38" d="M 2034 2216 
Q 1584 2216 1326 1975 
Q 1069 1734 1069 1313 
Q 1069 891 1326 650 
Q 1584 409 2034 409 
Q 2484 409 2743 651 
Q 3003 894 3003 1313 
Q 3003 1734 2745 1975 
Q 2488 2216 2034 2216 
z
M 1403 2484 
Q 997 2584 770 2862 
Q 544 3141 544 3541 
Q 544 4100 942 4425 
Q 1341 4750 2034 4750 
Q 2731 4750 3128 4425 
Q 3525 4100 3525 3541 
Q 3525 3141 3298 2862 
Q 3072 2584 2669 2484 
Q 3125 2378 3379 2068 
Q 3634 1759 3634 1313 
Q 3634 634 3220 271 
Q 2806 -91 2034 -91 
Q 1263 -91 848 271 
Q 434 634 434 1313 
Q 434 1759 690 2068 
Q 947 2378 1403 2484 
z
M 1172 3481 
Q 1172 3119 1398 2916 
Q 1625 2713 2034 2713 
Q 2441 2713 2670 2916 
Q 2900 3119 2900 3481 
Q 2900 3844 2670 4047 
Q 2441 4250 2034 4250 
Q 1625 4250 1398 4047 
Q 1172 3844 1172 3481 
z
" transform="scale(0.015625)"/>
       </defs>
       <use xlink:href="#DejaVuSans-38"/>
       <use xlink:href="#DejaVuSans-30" x="63.623047"/>
      </g>
     </g>
    </g>
    <g id="xtick_4">
     <g id="line2d_4">
      <g>
       <use xlink:href="#mc98df24a6f" x="319.944389" y="320.4" style="stroke: #000000; stroke-width: 0.8"/>
      </g>
     </g>
     <g id="text_4">
      <!-- 90 -->
      <g transform="translate(313.581889 334.998438) scale(0.1 -0.1)">
       <defs>
        <path id="DejaVuSans-39" d="M 703 97 
L 703 672 
Q 941 559 1184 500 
Q 1428 441 1663 441 
Q 2288 441 2617 861 
Q 2947 1281 2994 2138 
Q 2813 1869 2534 1725 
Q 2256 1581 1919 1581 
Q 1219 1581 811 2004 
Q 403 2428 403 3163 
Q 403 3881 828 4315 
Q 1253 4750 1959 4750 
Q 2769 4750 3195 4129 
Q 3622 3509 3622 2328 
Q 3622 1225 3098 567 
Q 2575 -91 1691 -91 
Q 1453 -91 1209 -44 
Q 966 3 703 97 
z
M 1959 2075 
Q 2384 2075 2632 2365 
Q 2881 2656 2881 3163 
Q 2881 3666 2632 3958 
Q 2384 4250 1959 4250 
Q 1534 4250 1286 3958 
Q 1038 3666 1038 3163 
Q 1038 2656 1286 2365 
Q 1534 2075 1959 2075 
z
" transform="scale(0.015625)"/>
       </defs>
       <use xlink:href="#DejaVuSans-39"/>
       <use xlink:href="#DejaVuSans-30" x="63.623047"/>
      </g>
     </g>
    </g>
    <g id="xtick_5">
     <g id="line2d_5">
      <g>
       <use xlink:href="#mc98df24a6f" x="390.834105" y="320.4" style="stroke: #000000; stroke-width: 0.8"/>
      </g>
     </g>
     <g id="text_5">
      <!-- 100 -->
      <g transform="translate(381.290355 334.998438) scale(0.1 -0.1)">
       <defs>
        <path id="DejaVuSans-31" d="M 794 531 
L 1825 531 
L 1825 4091 
L 703 3866 
L 703 4441 
L 1819 4666 
L 2450 4666 
L 2450 531 
L 3481 531 
L 3481 0 
L 794 0 
L 794 531 
z
" transform="scale(0.015625)"/>
       </defs>
       <use xlink:href="#DejaVuSans-31"/>
       <use xlink:href="#DejaVuSans-30" x="63.623047"/>
       <use xlink:href="#DejaVuSans-30" x="127.246094"/>
      </g>
     </g>
    </g>
    <g id="text_6">
     <!-- Age (yrs) -->
     <g transform="translate(236.309659 348.676562) scale(0.1 -0.1)">
      <defs>
       <path id="DejaVuSans-41" d="M 2188 4044 
L 1331 1722 
L 3047 1722 
L 2188 4044 
z
M 1831 4666 
L 2547 4666 
L 4325 0 
L 3669 0 
L 3244 1197 
L 1141 1197 
L 716 0 
L 50 0 
L 1831 4666 
z
" transform="scale(0.015625)"/>
       <path id="DejaVuSans-67" d="M 2906 1791 
Q 2906 2416 2648 2759 
Q 2391 3103 1925 3103 
Q 1463 3103 1205 2759 
Q 947 2416 947 1791 
Q 947 1169 1205 825 
Q 1463 481 1925 481 
Q 2391 481 2648 825 
Q 2906 1169 2906 1791 
z
M 3481 434 
Q 3481 -459 3084 -895 
Q 2688 -1331 1869 -1331 
Q 1566 -1331 1297 -1286 
Q 1028 -1241 775 -1147 
L 775 -588 
Q 1028 -725 1275 -790 
Q 1522 -856 1778 -856 
Q 2344 -856 2625 -561 
Q 2906 -266 2906 331 
L 2906 616 
Q 2728 306 2450 153 
Q 2172 0 1784 0 
Q 1141 0 747 490 
Q 353 981 353 1791 
Q 353 2603 747 3093 
Q 1141 3584 1784 3584 
Q 2172 3584 2450 3431 
Q 2728 3278 2906 2969 
L 2906 3500 
L 3481 3500 
L 3481 434 
z
" transform="scale(0.015625)"/>
       <path id="DejaVuSans-65" d="M 3597 1894 
L 3597 1613 
L 953 1613 
Q 991 1019 1311 708 
Q 1631 397 2203 397 
Q 2534 397 2845 478 
Q 3156 559 3463 722 
L 3463 178 
Q 3153 47 2828 -22 
Q 2503 -91 2169 -91 
Q 1331 -91 842 396 
Q 353 884 353 1716 
Q 353 2575 817 3079 
Q 1281 3584 2069 3584 
Q 2775 3584 3186 3129 
Q 3597 2675 3597 1894 
z
M 3022 2063 
Q 3016 2534 2758 2815 
Q 2500 3097 2075 3097 
Q 1594 3097 1305 2825 
Q 1016 2553 972 2059 
L 3022 2063 
z
" transform="scale(0.015625)"/>
       <path id="DejaVuSans-20" transform="scale(0.015625)"/>
       <path id="DejaVuSans-28" d="M 1984 4856 
Q 1566 4138 1362 3434 
Q 1159 2731 1159 2009 
Q 1159 1288 1364 580 
Q 1569 -128 1984 -844 
L 1484 -844 
Q 1016 -109 783 600 
Q 550 1309 550 2009 
Q 550 2706 781 3412 
Q 1013 4119 1484 4856 
L 1984 4856 
z
" transform="scale(0.015625)"/>
       <path id="DejaVuSans-79" d="M 2059 -325 
Q 1816 -950 1584 -1140 
Q 1353 -1331 966 -1331 
L 506 -1331 
L 506 -850 
L 844 -850 
Q 1081 -850 1212 -737 
Q 1344 -625 1503 -206 
L 1606 56 
L 191 3500 
L 800 3500 
L 1894 763 
L 2988 3500 
L 3597 3500 
L 2059 -325 
z
" transform="scale(0.015625)"/>
       <path id="DejaVuSans-72" d="M 2631 2963 
Q 2534 3019 2420 3045 
Q 2306 3072 2169 3072 
Q 1681 3072 1420 2755 
Q 1159 2438 1159 1844 
L 1159 0 
L 581 0 
L 581 3500 
L 1159 3500 
L 1159 2956 
Q 1341 3275 1631 3429 
Q 1922 3584 2338 3584 
Q 2397 3584 2469 3576 
Q 2541 3569 2628 3553 
L 2631 2963 
z
" transform="scale(0.015625)"/>
       <path id="DejaVuSans-73" d="M 2834 3397 
L 2834 2853 
Q 2591 2978 2328 3040 
Q 2066 3103 1784 3103 
Q 1356 3103 1142 2972 
Q 928 2841 928 2578 
Q 928 2378 1081 2264 
Q 1234 2150 1697 2047 
L 1894 2003 
Q 2506 1872 2764 1633 
Q 3022 1394 3022 966 
Q 3022 478 2636 193 
Q 2250 -91 1575 -91 
Q 1294 -91 989 -36 
Q 684 19 347 128 
L 347 722 
Q 666 556 975 473 
Q 1284 391 1588 391 
Q 1994 391 2212 530 
Q 2431 669 2431 922 
Q 2431 1156 2273 1281 
Q 2116 1406 1581 1522 
L 1381 1569 
Q 847 1681 609 1914 
Q 372 2147 372 2553 
Q 372 3047 722 3315 
Q 1072 3584 1716 3584 
Q 2034 3584 2315 3537 
Q 2597 3491 2834 3397 
z
" transform="scale(0.015625)"/>
       <path id="DejaVuSans-29" d="M 513 4856 
L 1013 4856 
Q 1481 4119 1714 3412 
Q 1947 2706 1947 2009 
Q 1947 1309 1714 600 
Q 1481 -109 1013 -844 
L 513 -844 
Q 928 -128 1133 580 
Q 1338 1288 1338 2009 
Q 1338 2731 1133 3434 
Q 928 4138 513 4856 
z
" transform="scale(0.015625)"/>
      </defs>
      <use xlink:href="#DejaVuSans-41"/>
      <use xlink:href="#DejaVuSans-67" x="68.408203"/>
      <use xlink:href="#DejaVuSans-65" x="131.884766"/>
      <use xlink:href="#DejaVuSans-20" x="193.408203"/>
      <use xlink:href="#DejaVuSans-28" x="225.195312"/>
      <use xlink:href="#DejaVuSans-79" x="264.208984"/>
      <use xlink:href="#DejaVuSans-72" x="323.388672"/>
      <use xlink:href="#DejaVuSans-73" x="364.501953"/>
      <use xlink:href="#DejaVuSans-29" x="416.601562"/>
     </g>
    </g>
   </g>
   <g id="matplotlib.axis_2">
    <g id="ytick_1">
     <g id="line2d_6">
      <defs>
       <path id="m2b708ceea6" d="M 0 0 
L -3.5 0 
" style="stroke: #000000; stroke-width: 0.8"/>
      </defs>
      <g>
       <use xlink:href="#m2b708ceea6" x="90" y="307.922862" style="stroke: #000000; stroke-width: 0.8"/>
      </g>
     </g>
     <g id="text_7">
      <!-- 0.0 -->
      <g transform="translate(67.096875 311.722081) scale(0.1 -0.1)">
       <defs>
        <path id="DejaVuSans-2e" d="M 684 794 
L 1344 794 
L 1344 0 
L 684 0 
L 684 794 
z
" transform="scale(0.015625)"/>
       </defs>
       <use xlink:href="#DejaVuSans-30"/>
       <use xlink:href="#DejaVuSans-2e" x="63.623047"/>
       <use xlink:href="#DejaVuSans-30" x="95.410156"/>
      </g>
     </g>
    </g>
    <g id="ytick_2">
     <g id="line2d_7">
      <g>
       <use xlink:href="#m2b708ceea6" x="90" y="257.271979" style="stroke: #000000; stroke-width: 0.8"/>
      </g>
     </g>
     <g id="text_8">
      <!-- 0.1 -->
      <g transform="translate(67.096875 261.071198) scale(0.1 -0.1)">
       <use xlink:href="#DejaVuSans-30"/>
       <use xlink:href="#DejaVuSans-2e" x="63.623047"/>
       <use xlink:href="#DejaVuSans-31" x="95.410156"/>
      </g>
     </g>
    </g>
    <g id="ytick_3">
     <g id="line2d_8">
      <g>
       <use xlink:href="#m2b708ceea6" x="90" y="206.621095" style="stroke: #000000; stroke-width: 0.8"/>
      </g>
     </g>
     <g id="text_9">
      <!-- 0.2 -->
      <g transform="translate(67.096875 210.420314) scale(0.1 -0.1)">
       <defs>
        <path id="DejaVuSans-32" d="M 1228 531 
L 3431 531 
L 3431 0 
L 469 0 
L 469 531 
Q 828 903 1448 1529 
Q 2069 2156 2228 2338 
Q 2531 2678 2651 2914 
Q 2772 3150 2772 3378 
Q 2772 3750 2511 3984 
Q 2250 4219 1831 4219 
Q 1534 4219 1204 4116 
Q 875 4013 500 3803 
L 500 4441 
Q 881 4594 1212 4672 
Q 1544 4750 1819 4750 
Q 2544 4750 2975 4387 
Q 3406 4025 3406 3419 
Q 3406 3131 3298 2873 
Q 3191 2616 2906 2266 
Q 2828 2175 2409 1742 
Q 1991 1309 1228 531 
z
" transform="scale(0.015625)"/>
       </defs>
       <use xlink:href="#DejaVuSans-30"/>
       <use xlink:href="#DejaVuSans-2e" x="63.623047"/>
       <use xlink:href="#DejaVuSans-32" x="95.410156"/>
      </g>
     </g>
    </g>
    <g id="ytick_4">
     <g id="line2d_9">
      <g>
       <use xlink:href="#m2b708ceea6" x="90" y="155.970212" style="stroke: #000000; stroke-width: 0.8"/>
      </g>
     </g>
     <g id="text_10">
      <!-- 0.3 -->
      <g transform="translate(67.096875 159.769431) scale(0.1 -0.1)">
       <defs>
        <path id="DejaVuSans-33" d="M 2597 2516 
Q 3050 2419 3304 2112 
Q 3559 1806 3559 1356 
Q 3559 666 3084 287 
Q 2609 -91 1734 -91 
Q 1441 -91 1130 -33 
Q 819 25 488 141 
L 488 750 
Q 750 597 1062 519 
Q 1375 441 1716 441 
Q 2309 441 2620 675 
Q 2931 909 2931 1356 
Q 2931 1769 2642 2001 
Q 2353 2234 1838 2234 
L 1294 2234 
L 1294 2753 
L 1863 2753 
Q 2328 2753 2575 2939 
Q 2822 3125 2822 3475 
Q 2822 3834 2567 4026 
Q 2313 4219 1838 4219 
Q 1578 4219 1281 4162 
Q 984 4106 628 3988 
L 628 4550 
Q 988 4650 1302 4700 
Q 1616 4750 1894 4750 
Q 2613 4750 3031 4423 
Q 3450 4097 3450 3541 
Q 3450 3153 3228 2886 
Q 3006 2619 2597 2516 
z
" transform="scale(0.015625)"/>
       </defs>
       <use xlink:href="#DejaVuSans-30"/>
       <use xlink:href="#DejaVuSans-2e" x="63.623047"/>
       <use xlink:href="#DejaVuSans-33" x="95.410156"/>
      </g>
     </g>
    </g>
    <g id="ytick_5">
     <g id="line2d_10">
      <g>
       <use xlink:href="#m2b708ceea6" x="90" y="105.319329" style="stroke: #000000; stroke-width: 0.8"/>
      </g>
     </g>
     <g id="text_11">
      <!-- 0.4 -->
      <g transform="translate(67.096875 109.118547) scale(0.1 -0.1)">
       <defs>
        <path id="DejaVuSans-34" d="M 2419 4116 
L 825 1625 
L 2419 1625 
L 2419 4116 
z
M 2253 4666 
L 3047 4666 
L 3047 1625 
L 3713 1625 
L 3713 1100 
L 3047 1100 
L 3047 0 
L 2419 0 
L 2419 1100 
L 313 1100 
L 313 1709 
L 2253 4666 
z
" transform="scale(0.015625)"/>
       </defs>
       <use xlink:href="#DejaVuSans-30"/>
       <use xlink:href="#DejaVuSans-2e" x="63.623047"/>
       <use xlink:href="#DejaVuSans-34" x="95.410156"/>
      </g>
     </g>
    </g>
    <g id="ytick_6">
     <g id="line2d_11">
      <g>
       <use xlink:href="#m2b708ceea6" x="90" y="54.668445" style="stroke: #000000; stroke-width: 0.8"/>
      </g>
     </g>
     <g id="text_12">
      <!-- 0.5 -->
      <g transform="translate(67.096875 58.467664) scale(0.1 -0.1)">
       <defs>
        <path id="DejaVuSans-35" d="M 691 4666 
L 3169 4666 
L 3169 4134 
L 1269 4134 
L 1269 2991 
Q 1406 3038 1543 3061 
Q 1681 3084 1819 3084 
Q 2600 3084 3056 2656 
Q 3513 2228 3513 1497 
Q 3513 744 3044 326 
Q 2575 -91 1722 -91 
Q 1428 -91 1123 -41 
Q 819 9 494 109 
L 494 744 
Q 775 591 1075 516 
Q 1375 441 1709 441 
Q 2250 441 2565 725 
Q 2881 1009 2881 1497 
Q 2881 1984 2565 2268 
Q 2250 2553 1709 2553 
Q 1456 2553 1204 2497 
Q 953 2441 691 2322 
L 691 4666 
z
" transform="scale(0.015625)"/>
       </defs>
       <use xlink:href="#DejaVuSans-30"/>
       <use xlink:href="#DejaVuSans-2e" x="63.623047"/>
       <use xlink:href="#DejaVuSans-35" x="95.410156"/>
      </g>
     </g>
    </g>
    <g id="text_13">
     <!-- VAF -->
     <g transform="translate(61.017187 191.197656) rotate(-90) scale(0.1 -0.1)">
      <defs>
       <path id="DejaVuSans-56" d="M 1831 0 
L 50 4666 
L 709 4666 
L 2188 738 
L 3669 4666 
L 4325 4666 
L 2547 0 
L 1831 0 
z
" transform="scale(0.015625)"/>
       <path id="DejaVuSans-46" d="M 628 4666 
L 3309 4666 
L 3309 4134 
L 1259 4134 
L 1259 2759 
L 3109 2759 
L 3109 2228 
L 1259 2228 
L 1259 0 
L 628 0 
L 628 4666 
z
" transform="scale(0.015625)"/>
      </defs>
      <use xlink:href="#DejaVuSans-56"/>
      <use xlink:href="#DejaVuSans-41" x="62.033203"/>
      <use xlink:href="#DejaVuSans-46" x="130.441406"/>
     </g>
    </g>
   </g>
   <g id="line2d_12">
    <path d="M 105.371901 307.8 
L 118.181818 307.719631 
L 130.991736 307.588933 
L 143.801653 307.378417 
L 156.61157 307.04303 
L 169.421488 306.515267 
L 182.231405 305.696177 
L 195.041322 304.444307 
L 207.85124 302.563215 
L 220.661157 299.789378 
L 233.471074 295.784301 
L 246.280992 290.137553 
L 259.090909 282.390886 
L 271.900826 272.095473 
L 284.710744 258.910302 
L 297.520661 242.734225 
L 310.330579 223.83586 
L 323.140496 202.917823 
L 335.950413 181.053637 
L 348.760331 159.488218 
L 361.570248 139.372158 
L 374.380165 121.542203 
L 387.190083 106.427146 
L 400 94.082044 
L 412.809917 84.29746 
" clip-path="url(#p505ba3fd82)" style="fill: none; stroke: #1f77b4; stroke-width: 1.5; stroke-linecap: square"/>
   </g>
   <g id="line2d_13">
    <path d="M 105.371901 272.19635 
L 118.181818 265.096168 
L 130.991736 256.927392 
L 143.801653 247.669157 
L 156.61157 237.359108 
L 169.421488 226.11175 
L 182.231405 214.135213 
L 195.041322 201.744011 
L 207.85124 189.365717 
L 220.661157 177.539984 
L 233.471074 166.90843 
L 246.280992 158.192401 
L 259.090909 152.152241 
L 271.900826 149.517937 
L 284.710744 150.881773 
L 297.520661 156.55621 
L 310.330579 166.42836 
L 323.140496 179.874737 
L 335.950413 195.805786 
L 348.760331 212.861695 
L 361.570248 229.696915 
L 374.380165 245.236439 
L 387.190083 258.810496 
L 400 270.151031 
L 412.809917 279.297502 
" clip-path="url(#p505ba3fd82)" style="fill: none; stroke: #ff7f0e; stroke-width: 1.5; stroke-linecap: square"/>
   </g>
   <g id="line2d_14">
    <path d="M 105.371901 297.536205 
L 118.181818 295.471991 
L 130.991736 293.097108 
L 143.801653 290.405491 
L 156.61157 287.408082 
L 169.421488 284.138173 
L 182.231405 280.656272 
L 195.041322 277.053816 
L 207.85124 273.455113 
L 220.661157 270.017055 
L 233.471074 266.926176 
L 246.280992 264.392192 
L 259.090909 262.636155 
L 271.900826 261.870293 
L 284.710744 262.266796 
L 297.520661 263.916508 
L 310.330579 266.786607 
L 323.140496 270.69583 
L 335.950413 275.327414 
L 348.760331 280.286026 
L 361.570248 285.180477 
L 374.380165 289.698234 
L 387.190083 293.644577 
L 400 296.941576 
L 412.809917 299.600701 
" clip-path="url(#p505ba3fd82)" style="fill: none; stroke: #2ca02c; stroke-width: 1.5; stroke-linecap: square"/>
   </g>
   <g id="patch_3">
    <path d="M 90 320.4 
L 90 43.2 
" style="fill: none; stroke: #000000; stroke-width: 0.8; stroke-linejoin: miter; stroke-linecap: square"/>
   </g>
   <g id="patch_4">
    <path d="M 90 320.4 
L 428.181818 320.4 
" style="fill: none; stroke: #000000; stroke-width: 0.8; stroke-linejoin: miter; stroke-linecap: square"/>
   </g>
   <g id="text_14">
    <!-- Clonal dynamics inference -->
    <g transform="translate(179.737159 37.2) scale(0.12 -0.12)">
     <defs>
      <path id="DejaVuSans-43" d="M 4122 4306 
L 4122 3641 
Q 3803 3938 3442 4084 
Q 3081 4231 2675 4231 
Q 1875 4231 1450 3742 
Q 1025 3253 1025 2328 
Q 1025 1406 1450 917 
Q 1875 428 2675 428 
Q 3081 428 3442 575 
Q 3803 722 4122 1019 
L 4122 359 
Q 3791 134 3420 21 
Q 3050 -91 2638 -91 
Q 1578 -91 968 557 
Q 359 1206 359 2328 
Q 359 3453 968 4101 
Q 1578 4750 2638 4750 
Q 3056 4750 3426 4639 
Q 3797 4528 4122 4306 
z
" transform="scale(0.015625)"/>
      <path id="DejaVuSans-6c" d="M 603 4863 
L 1178 4863 
L 1178 0 
L 603 0 
L 603 4863 
z
" transform="scale(0.015625)"/>
      <path id="DejaVuSans-6f" d="M 1959 3097 
Q 1497 3097 1228 2736 
Q 959 2375 959 1747 
Q 959 1119 1226 758 
Q 1494 397 1959 397 
Q 2419 397 2687 759 
Q 2956 1122 2956 1747 
Q 2956 2369 2687 2733 
Q 2419 3097 1959 3097 
z
M 1959 3584 
Q 2709 3584 3137 3096 
Q 3566 2609 3566 1747 
Q 3566 888 3137 398 
Q 2709 -91 1959 -91 
Q 1206 -91 779 398 
Q 353 888 353 1747 
Q 353 2609 779 3096 
Q 1206 3584 1959 3584 
z
" transform="scale(0.015625)"/>
      <path id="DejaVuSans-6e" d="M 3513 2113 
L 3513 0 
L 2938 0 
L 2938 2094 
Q 2938 2591 2744 2837 
Q 2550 3084 2163 3084 
Q 1697 3084 1428 2787 
Q 1159 2491 1159 1978 
L 1159 0 
L 581 0 
L 581 3500 
L 1159 3500 
L 1159 2956 
Q 1366 3272 1645 3428 
Q 1925 3584 2291 3584 
Q 2894 3584 3203 3211 
Q 3513 2838 3513 2113 
z
" transform="scale(0.015625)"/>
      <path id="DejaVuSans-61" d="M 2194 1759 
Q 1497 1759 1228 1600 
Q 959 1441 959 1056 
Q 959 750 1161 570 
Q 1363 391 1709 391 
Q 2188 391 2477 730 
Q 2766 1069 2766 1631 
L 2766 1759 
L 2194 1759 
z
M 3341 1997 
L 3341 0 
L 2766 0 
L 2766 531 
Q 2569 213 2275 61 
Q 1981 -91 1556 -91 
Q 1019 -91 701 211 
Q 384 513 384 1019 
Q 384 1609 779 1909 
Q 1175 2209 1959 2209 
L 2766 2209 
L 2766 2266 
Q 2766 2663 2505 2880 
Q 2244 3097 1772 3097 
Q 1472 3097 1187 3025 
Q 903 2953 641 2809 
L 641 3341 
Q 956 3463 1253 3523 
Q 1550 3584 1831 3584 
Q 2591 3584 2966 3190 
Q 3341 2797 3341 1997 
z
" transform="scale(0.015625)"/>
      <path id="DejaVuSans-64" d="M 2906 2969 
L 2906 4863 
L 3481 4863 
L 3481 0 
L 2906 0 
L 2906 525 
Q 2725 213 2448 61 
Q 2172 -91 1784 -91 
Q 1150 -91 751 415 
Q 353 922 353 1747 
Q 353 2572 751 3078 
Q 1150 3584 1784 3584 
Q 2172 3584 2448 3432 
Q 2725 3281 2906 2969 
z
M 947 1747 
Q 947 1113 1208 752 
Q 1469 391 1925 391 
Q 2381 391 2643 752 
Q 2906 1113 2906 1747 
Q 2906 2381 2643 2742 
Q 2381 3103 1925 3103 
Q 1469 3103 1208 2742 
Q 947 2381 947 1747 
z
" transform="scale(0.015625)"/>
      <path id="DejaVuSans-6d" d="M 3328 2828 
Q 3544 3216 3844 3400 
Q 4144 3584 4550 3584 
Q 5097 3584 5394 3201 
Q 5691 2819 5691 2113 
L 5691 0 
L 5113 0 
L 5113 2094 
Q 5113 2597 4934 2840 
Q 4756 3084 4391 3084 
Q 3944 3084 3684 2787 
Q 3425 2491 3425 1978 
L 3425 0 
L 2847 0 
L 2847 2094 
Q 2847 2600 2669 2842 
Q 2491 3084 2119 3084 
Q 1678 3084 1418 2786 
Q 1159 2488 1159 1978 
L 1159 0 
L 581 0 
L 581 3500 
L 1159 3500 
L 1159 2956 
Q 1356 3278 1631 3431 
Q 1906 3584 2284 3584 
Q 2666 3584 2933 3390 
Q 3200 3197 3328 2828 
z
" transform="scale(0.015625)"/>
      <path id="DejaVuSans-69" d="M 603 3500 
L 1178 3500 
L 1178 0 
L 603 0 
L 603 3500 
z
M 603 4863 
L 1178 4863 
L 1178 4134 
L 603 4134 
L 603 4863 
z
" transform="scale(0.015625)"/>
      <path id="DejaVuSans-63" d="M 3122 3366 
L 3122 2828 
Q 2878 2963 2633 3030 
Q 2388 3097 2138 3097 
Q 1578 3097 1268 2742 
Q 959 2388 959 1747 
Q 959 1106 1268 751 
Q 1578 397 2138 397 
Q 2388 397 2633 464 
Q 2878 531 3122 666 
L 3122 134 
Q 2881 22 2623 -34 
Q 2366 -91 2075 -91 
Q 1284 -91 818 406 
Q 353 903 353 1747 
Q 353 2603 823 3093 
Q 1294 3584 2113 3584 
Q 2378 3584 2631 3529 
Q 2884 3475 3122 3366 
z
" transform="scale(0.015625)"/>
      <path id="DejaVuSans-66" d="M 2375 4863 
L 2375 4384 
L 1825 4384 
Q 1516 4384 1395 4259 
Q 1275 4134 1275 3809 
L 1275 3500 
L 2222 3500 
L 2222 3053 
L 1275 3053 
L 1275 0 
L 697 0 
L 697 3053 
L 147 3053 
L 147 3500 
L 697 3500 
L 697 3744 
Q 697 4328 969 4595 
Q 1241 4863 1831 4863 
L 2375 4863 
z
" transform="scale(0.015625)"/>
     </defs>
     <use xlink:href="#DejaVuSans-43"/>
     <use xlink:href="#DejaVuSans-6c" x="69.824219"/>
     <use xlink:href="#DejaVuSans-6f" x="97.607422"/>
     <use xlink:href="#DejaVuSans-6e" x="158.789062"/>
     <use xlink:href="#DejaVuSans-61" x="222.167969"/>
     <use xlink:href="#DejaVuSans-6c" x="283.447266"/>
     <use xlink:href="#DejaVuSans-20" x="311.230469"/>
     <use xlink:href="#DejaVuSans-64" x="343.017578"/>
     <use xlink:href="#DejaVuSans-79" x="406.494141"/>
     <use xlink:href="#DejaVuSans-6e" x="465.673828"/>
     <use xlink:href="#DejaVuSans-61" x="529.052734"/>
     <use xlink:href="#DejaVuSans-6d" x="590.332031"/>
     <use xlink:href="#DejaVuSans-69" x="687.744141"/>
     <use xlink:href="#DejaVuSans-63" x="715.527344"/>
     <use xlink:href="#DejaVuSans-73" x="770.507812"/>
     <use xlink:href="#DejaVuSans-20" x="822.607422"/>
     <use xlink:href="#DejaVuSans-69" x="854.394531"/>
     <use xlink:href="#DejaVuSans-6e" x="882.177734"/>
     <use xlink:href="#DejaVuSans-66" x="945.556641"/>
     <use xlink:href="#DejaVuSans-65" x="980.761719"/>
     <use xlink:href="#DejaVuSans-72" x="1042.285156"/>
     <use xlink:href="#DejaVuSans-65" x="1081.148438"/>
     <use xlink:href="#DejaVuSans-6e" x="1142.671875"/>
     <use xlink:href="#DejaVuSans-63" x="1206.050781"/>
     <use xlink:href="#DejaVuSans-65" x="1261.03125"/>
    </g>
   </g>
   <g id="legend_1">
    <g id="patch_5">
     <path d="M 97 183.303125 
L 237.482813 183.303125 
Q 239.482813 183.303125 239.482813 181.303125 
L 239.482813 50.2 
Q 239.482813 48.2 237.482813 48.2 
L 97 48.2 
Q 95 48.2 95 50.2 
L 95 181.303125 
Q 95 183.303125 97 183.303125 
z
" style="fill: #ffffff; opacity: 0.8; stroke: #cccccc; stroke-linejoin: miter"/>
    </g>
    <g id="PathCollection_7">
     <g>
      <use xlink:href="#ma749aae3ec" x="109" y="57.173437" style="fill: #1f77b4; stroke: #ffffff; stroke-width: 0.8"/>
     </g>
    </g>
    <g id="text_15">
     <!-- DNMT3A p.Tyr735Cys -->
     <g transform="translate(127 59.798437) scale(0.1 -0.1)">
      <defs>
       <path id="DejaVuSans-44" d="M 1259 4147 
L 1259 519 
L 2022 519 
Q 2988 519 3436 956 
Q 3884 1394 3884 2338 
Q 3884 3275 3436 3711 
Q 2988 4147 2022 4147 
L 1259 4147 
z
M 628 4666 
L 1925 4666 
Q 3281 4666 3915 4102 
Q 4550 3538 4550 2338 
Q 4550 1131 3912 565 
Q 3275 0 1925 0 
L 628 0 
L 628 4666 
z
" transform="scale(0.015625)"/>
       <path id="DejaVuSans-4e" d="M 628 4666 
L 1478 4666 
L 3547 763 
L 3547 4666 
L 4159 4666 
L 4159 0 
L 3309 0 
L 1241 3903 
L 1241 0 
L 628 0 
L 628 4666 
z
" transform="scale(0.015625)"/>
       <path id="DejaVuSans-4d" d="M 628 4666 
L 1569 4666 
L 2759 1491 
L 3956 4666 
L 4897 4666 
L 4897 0 
L 4281 0 
L 4281 4097 
L 3078 897 
L 2444 897 
L 1241 4097 
L 1241 0 
L 628 0 
L 628 4666 
z
" transform="scale(0.015625)"/>
       <path id="DejaVuSans-54" d="M -19 4666 
L 3928 4666 
L 3928 4134 
L 2272 4134 
L 2272 0 
L 1638 0 
L 1638 4134 
L -19 4134 
L -19 4666 
z
" transform="scale(0.015625)"/>
       <path id="DejaVuSans-70" d="M 1159 525 
L 1159 -1331 
L 581 -1331 
L 581 3500 
L 1159 3500 
L 1159 2969 
Q 1341 3281 1617 3432 
Q 1894 3584 2278 3584 
Q 2916 3584 3314 3078 
Q 3713 2572 3713 1747 
Q 3713 922 3314 415 
Q 2916 -91 2278 -91 
Q 1894 -91 1617 61 
Q 1341 213 1159 525 
z
M 3116 1747 
Q 3116 2381 2855 2742 
Q 2594 3103 2138 3103 
Q 1681 3103 1420 2742 
Q 1159 2381 1159 1747 
Q 1159 1113 1420 752 
Q 1681 391 2138 391 
Q 2594 391 2855 752 
Q 3116 1113 3116 1747 
z
" transform="scale(0.015625)"/>
      </defs>
      <use xlink:href="#DejaVuSans-44"/>
      <use xlink:href="#DejaVuSans-4e" x="77.001953"/>
      <use xlink:href="#DejaVuSans-4d" x="151.806641"/>
      <use xlink:href="#DejaVuSans-54" x="238.085938"/>
      <use xlink:href="#DejaVuSans-33" x="299.169922"/>
      <use xlink:href="#DejaVuSans-41" x="362.792969"/>
      <use xlink:href="#DejaVuSans-20" x="431.201172"/>
      <use xlink:href="#DejaVuSans-70" x="462.988281"/>
      <use xlink:href="#DejaVuSans-2e" x="526.464844"/>
      <use xlink:href="#DejaVuSans-54" x="558.251953"/>
      <use xlink:href="#DejaVuSans-79" x="603.710938"/>
      <use xlink:href="#DejaVuSans-72" x="662.890625"/>
      <use xlink:href="#DejaVuSans-37" x="704.003906"/>
      <use xlink:href="#DejaVuSans-33" x="767.626953"/>
      <use xlink:href="#DejaVuSans-35" x="831.25"/>
      <use xlink:href="#DejaVuSans-43" x="894.873047"/>
      <use xlink:href="#DejaVuSans-79" x="964.697266"/>
      <use xlink:href="#DejaVuSans-73" x="1023.876953"/>
     </g>
    </g>
    <g id="line2d_15">
     <path d="M 99 70.976562 
L 109 70.976562 
L 119 70.976562 
" style="fill: none; stroke: #1f77b4; stroke-width: 1.5; stroke-linecap: square"/>
    </g>
    <g id="text_16">
     <!-- DNMT3A p.Tyr735Cys -->
     <g transform="translate(127 74.476562) scale(0.1 -0.1)">
      <use xlink:href="#DejaVuSans-44"/>
      <use xlink:href="#DejaVuSans-4e" x="77.001953"/>
      <use xlink:href="#DejaVuSans-4d" x="151.806641"/>
      <use xlink:href="#DejaVuSans-54" x="238.085938"/>
      <use xlink:href="#DejaVuSans-33" x="299.169922"/>
      <use xlink:href="#DejaVuSans-41" x="362.792969"/>
      <use xlink:href="#DejaVuSans-20" x="431.201172"/>
      <use xlink:href="#DejaVuSans-70" x="462.988281"/>
      <use xlink:href="#DejaVuSans-2e" x="526.464844"/>
      <use xlink:href="#DejaVuSans-54" x="558.251953"/>
      <use xlink:href="#DejaVuSans-79" x="603.710938"/>
      <use xlink:href="#DejaVuSans-72" x="662.890625"/>
      <use xlink:href="#DejaVuSans-37" x="704.003906"/>
      <use xlink:href="#DejaVuSans-33" x="767.626953"/>
      <use xlink:href="#DejaVuSans-35" x="831.25"/>
      <use xlink:href="#DejaVuSans-43" x="894.873047"/>
      <use xlink:href="#DejaVuSans-79" x="964.697266"/>
      <use xlink:href="#DejaVuSans-73" x="1023.876953"/>
     </g>
    </g>
    <g id="PathCollection_8">
     <g>
      <use xlink:href="#mc0b32e6551" x="109" y="86.529687" style="fill: #1f77b4; stroke: #1f77b4; stroke-width: 0.48"/>
     </g>
    </g>
    <g id="text_17">
     <!-- DNMT3A p.Tyr735Cys -->
     <g transform="translate(127 89.154687) scale(0.1 -0.1)">
      <use xlink:href="#DejaVuSans-44"/>
      <use xlink:href="#DejaVuSans-4e" x="77.001953"/>
      <use xlink:href="#DejaVuSans-4d" x="151.806641"/>
      <use xlink:href="#DejaVuSans-54" x="238.085938"/>
      <use xlink:href="#DejaVuSans-33" x="299.169922"/>
      <use xlink:href="#DejaVuSans-41" x="362.792969"/>
      <use xlink:href="#DejaVuSans-20" x="431.201172"/>
      <use xlink:href="#DejaVuSans-70" x="462.988281"/>
      <use xlink:href="#DejaVuSans-2e" x="526.464844"/>
      <use xlink:href="#DejaVuSans-54" x="558.251953"/>
      <use xlink:href="#DejaVuSans-79" x="603.710938"/>
      <use xlink:href="#DejaVuSans-72" x="662.890625"/>
      <use xlink:href="#DejaVuSans-37" x="704.003906"/>
      <use xlink:href="#DejaVuSans-33" x="767.626953"/>
      <use xlink:href="#DejaVuSans-35" x="831.25"/>
      <use xlink:href="#DejaVuSans-43" x="894.873047"/>
      <use xlink:href="#DejaVuSans-79" x="964.697266"/>
      <use xlink:href="#DejaVuSans-73" x="1023.876953"/>
     </g>
    </g>
    <g id="PathCollection_9">
     <g>
      <use xlink:href="#m6f53a8a82b" x="109" y="101.207812" style="fill: #ff7f0e; stroke: #ffffff; stroke-width: 0.8"/>
     </g>
    </g>
    <g id="text_18">
     <!-- DNMT3A p.Arg326Gly -->
     <g transform="translate(127 103.832812) scale(0.1 -0.1)">
      <defs>
       <path id="DejaVuSans-47" d="M 3809 666 
L 3809 1919 
L 2778 1919 
L 2778 2438 
L 4434 2438 
L 4434 434 
Q 4069 175 3628 42 
Q 3188 -91 2688 -91 
Q 1594 -91 976 548 
Q 359 1188 359 2328 
Q 359 3472 976 4111 
Q 1594 4750 2688 4750 
Q 3144 4750 3555 4637 
Q 3966 4525 4313 4306 
L 4313 3634 
Q 3963 3931 3569 4081 
Q 3175 4231 2741 4231 
Q 1884 4231 1454 3753 
Q 1025 3275 1025 2328 
Q 1025 1384 1454 906 
Q 1884 428 2741 428 
Q 3075 428 3337 486 
Q 3600 544 3809 666 
z
" transform="scale(0.015625)"/>
      </defs>
      <use xlink:href="#DejaVuSans-44"/>
      <use xlink:href="#DejaVuSans-4e" x="77.001953"/>
      <use xlink:href="#DejaVuSans-4d" x="151.806641"/>
      <use xlink:href="#DejaVuSans-54" x="238.085938"/>
      <use xlink:href="#DejaVuSans-33" x="299.169922"/>
      <use xlink:href="#DejaVuSans-41" x="362.792969"/>
      <use xlink:href="#DejaVuSans-20" x="431.201172"/>
      <use xlink:href="#DejaVuSans-70" x="462.988281"/>
      <use xlink:href="#DejaVuSans-2e" x="526.464844"/>
      <use xlink:href="#DejaVuSans-41" x="558.251953"/>
      <use xlink:href="#DejaVuSans-72" x="626.660156"/>
      <use xlink:href="#DejaVuSans-67" x="666.023438"/>
      <use xlink:href="#DejaVuSans-33" x="729.5"/>
      <use xlink:href="#DejaVuSans-32" x="793.123047"/>
      <use xlink:href="#DejaVuSans-36" x="856.746094"/>
      <use xlink:href="#DejaVuSans-47" x="920.369141"/>
      <use xlink:href="#DejaVuSans-6c" x="997.859375"/>
      <use xlink:href="#DejaVuSans-79" x="1025.642578"/>
     </g>
    </g>
    <g id="line2d_16">
     <path d="M 99 115.010937 
L 109 115.010937 
L 119 115.010937 
" style="fill: none; stroke: #ff7f0e; stroke-width: 1.5; stroke-linecap: square"/>
    </g>
    <g id="text_19">
     <!-- DNMT3A p.Arg326Gly -->
     <g transform="translate(127 118.510937) scale(0.1 -0.1)">
      <use xlink:href="#DejaVuSans-44"/>
      <use xlink:href="#DejaVuSans-4e" x="77.001953"/>
      <use xlink:href="#DejaVuSans-4d" x="151.806641"/>
      <use xlink:href="#DejaVuSans-54" x="238.085938"/>
      <use xlink:href="#DejaVuSans-33" x="299.169922"/>
      <use xlink:href="#DejaVuSans-41" x="362.792969"/>
      <use xlink:href="#DejaVuSans-20" x="431.201172"/>
      <use xlink:href="#DejaVuSans-70" x="462.988281"/>
      <use xlink:href="#DejaVuSans-2e" x="526.464844"/>
      <use xlink:href="#DejaVuSans-41" x="558.251953"/>
      <use xlink:href="#DejaVuSans-72" x="626.660156"/>
      <use xlink:href="#DejaVuSans-67" x="666.023438"/>
      <use xlink:href="#DejaVuSans-33" x="729.5"/>
      <use xlink:href="#DejaVuSans-32" x="793.123047"/>
      <use xlink:href="#DejaVuSans-36" x="856.746094"/>
      <use xlink:href="#DejaVuSans-47" x="920.369141"/>
      <use xlink:href="#DejaVuSans-6c" x="997.859375"/>
      <use xlink:href="#DejaVuSans-79" x="1025.642578"/>
     </g>
    </g>
    <g id="PathCollection_10">
     <g>
      <use xlink:href="#m7bdb72d173" x="109" y="130.564062" style="fill: #ff7f0e; stroke: #ff7f0e; stroke-width: 0.48"/>
     </g>
    </g>
    <g id="text_20">
     <!-- DNMT3A p.Arg326Gly -->
     <g transform="translate(127 133.189062) scale(0.1 -0.1)">
      <use xlink:href="#DejaVuSans-44"/>
      <use xlink:href="#DejaVuSans-4e" x="77.001953"/>
      <use xlink:href="#DejaVuSans-4d" x="151.806641"/>
      <use xlink:href="#DejaVuSans-54" x="238.085938"/>
      <use xlink:href="#DejaVuSans-33" x="299.169922"/>
      <use xlink:href="#DejaVuSans-41" x="362.792969"/>
      <use xlink:href="#DejaVuSans-20" x="431.201172"/>
      <use xlink:href="#DejaVuSans-70" x="462.988281"/>
      <use xlink:href="#DejaVuSans-2e" x="526.464844"/>
      <use xlink:href="#DejaVuSans-41" x="558.251953"/>
      <use xlink:href="#DejaVuSans-72" x="626.660156"/>
      <use xlink:href="#DejaVuSans-67" x="666.023438"/>
      <use xlink:href="#DejaVuSans-33" x="729.5"/>
      <use xlink:href="#DejaVuSans-32" x="793.123047"/>
      <use xlink:href="#DejaVuSans-36" x="856.746094"/>
      <use xlink:href="#DejaVuSans-47" x="920.369141"/>
      <use xlink:href="#DejaVuSans-6c" x="997.859375"/>
      <use xlink:href="#DejaVuSans-79" x="1025.642578"/>
     </g>
    </g>
    <g id="PathCollection_11">
     <g>
      <use xlink:href="#m8ef13d649b" x="109" y="145.242187" style="fill: #2ca02c; stroke: #ffffff; stroke-width: 0.8"/>
     </g>
    </g>
    <g id="text_21">
     <!-- JAK2 p.Val617Phe -->
     <g transform="translate(127 147.867187) scale(0.1 -0.1)">
      <defs>
       <path id="DejaVuSans-4a" d="M 628 4666 
L 1259 4666 
L 1259 325 
Q 1259 -519 939 -900 
Q 619 -1281 -91 -1281 
L -331 -1281 
L -331 -750 
L -134 -750 
Q 284 -750 456 -515 
Q 628 -281 628 325 
L 628 4666 
z
" transform="scale(0.015625)"/>
       <path id="DejaVuSans-4b" d="M 628 4666 
L 1259 4666 
L 1259 2694 
L 3353 4666 
L 4166 4666 
L 1850 2491 
L 4331 0 
L 3500 0 
L 1259 2247 
L 1259 0 
L 628 0 
L 628 4666 
z
" transform="scale(0.015625)"/>
       <path id="DejaVuSans-50" d="M 1259 4147 
L 1259 2394 
L 2053 2394 
Q 2494 2394 2734 2622 
Q 2975 2850 2975 3272 
Q 2975 3691 2734 3919 
Q 2494 4147 2053 4147 
L 1259 4147 
z
M 628 4666 
L 2053 4666 
Q 2838 4666 3239 4311 
Q 3641 3956 3641 3272 
Q 3641 2581 3239 2228 
Q 2838 1875 2053 1875 
L 1259 1875 
L 1259 0 
L 628 0 
L 628 4666 
z
" transform="scale(0.015625)"/>
       <path id="DejaVuSans-68" d="M 3513 2113 
L 3513 0 
L 2938 0 
L 2938 2094 
Q 2938 2591 2744 2837 
Q 2550 3084 2163 3084 
Q 1697 3084 1428 2787 
Q 1159 2491 1159 1978 
L 1159 0 
L 581 0 
L 581 4863 
L 1159 4863 
L 1159 2956 
Q 1366 3272 1645 3428 
Q 1925 3584 2291 3584 
Q 2894 3584 3203 3211 
Q 3513 2838 3513 2113 
z
" transform="scale(0.015625)"/>
      </defs>
      <use xlink:href="#DejaVuSans-4a"/>
      <use xlink:href="#DejaVuSans-41" x="27.742188"/>
      <use xlink:href="#DejaVuSans-4b" x="96.150391"/>
      <use xlink:href="#DejaVuSans-32" x="161.726562"/>
      <use xlink:href="#DejaVuSans-20" x="225.349609"/>
      <use xlink:href="#DejaVuSans-70" x="257.136719"/>
      <use xlink:href="#DejaVuSans-2e" x="320.613281"/>
      <use xlink:href="#DejaVuSans-56" x="352.400391"/>
      <use xlink:href="#DejaVuSans-61" x="413.058594"/>
      <use xlink:href="#DejaVuSans-6c" x="474.337891"/>
      <use xlink:href="#DejaVuSans-36" x="502.121094"/>
      <use xlink:href="#DejaVuSans-31" x="565.744141"/>
      <use xlink:href="#DejaVuSans-37" x="629.367188"/>
      <use xlink:href="#DejaVuSans-50" x="692.990234"/>
      <use xlink:href="#DejaVuSans-68" x="753.292969"/>
      <use xlink:href="#DejaVuSans-65" x="816.671875"/>
     </g>
    </g>
    <g id="line2d_17">
     <path d="M 99 159.045312 
L 109 159.045312 
L 119 159.045312 
" style="fill: none; stroke: #2ca02c; stroke-width: 1.5; stroke-linecap: square"/>
    </g>
    <g id="text_22">
     <!-- JAK2 p.Val617Phe -->
     <g transform="translate(127 162.545312) scale(0.1 -0.1)">
      <use xlink:href="#DejaVuSans-4a"/>
      <use xlink:href="#DejaVuSans-41" x="27.742188"/>
      <use xlink:href="#DejaVuSans-4b" x="96.150391"/>
      <use xlink:href="#DejaVuSans-32" x="161.726562"/>
      <use xlink:href="#DejaVuSans-20" x="225.349609"/>
      <use xlink:href="#DejaVuSans-70" x="257.136719"/>
      <use xlink:href="#DejaVuSans-2e" x="320.613281"/>
      <use xlink:href="#DejaVuSans-56" x="352.400391"/>
      <use xlink:href="#DejaVuSans-61" x="413.058594"/>
      <use xlink:href="#DejaVuSans-6c" x="474.337891"/>
      <use xlink:href="#DejaVuSans-36" x="502.121094"/>
      <use xlink:href="#DejaVuSans-31" x="565.744141"/>
      <use xlink:href="#DejaVuSans-37" x="629.367188"/>
      <use xlink:href="#DejaVuSans-50" x="692.990234"/>
      <use xlink:href="#DejaVuSans-68" x="753.292969"/>
      <use xlink:href="#DejaVuSans-65" x="816.671875"/>
     </g>
    </g>
    <g id="PathCollection_12">
     <g>
      <use xlink:href="#m924e02be40" x="109" y="174.598437" style="fill: #2ca02c; stroke: #2ca02c; stroke-width: 0.48"/>
     </g>
    </g>
    <g id="text_23">
     <!-- JAK2 p.Val617Phe -->
     <g transform="translate(127 177.223437) scale(0.1 -0.1)">
      <use xlink:href="#DejaVuSans-4a"/>
      <use xlink:href="#DejaVuSans-41" x="27.742188"/>
      <use xlink:href="#DejaVuSans-4b" x="96.150391"/>
      <use xlink:href="#DejaVuSans-32" x="161.726562"/>
      <use xlink:href="#DejaVuSans-20" x="225.349609"/>
      <use xlink:href="#DejaVuSans-70" x="257.136719"/>
      <use xlink:href="#DejaVuSans-2e" x="320.613281"/>
      <use xlink:href="#DejaVuSans-56" x="352.400391"/>
      <use xlink:href="#DejaVuSans-61" x="413.058594"/>
      <use xlink:href="#DejaVuSans-6c" x="474.337891"/>
      <use xlink:href="#DejaVuSans-36" x="502.121094"/>
      <use xlink:href="#DejaVuSans-31" x="565.744141"/>
      <use xlink:href="#DejaVuSans-37" x="629.367188"/>
      <use xlink:href="#DejaVuSans-50" x="692.990234"/>
      <use xlink:href="#DejaVuSans-68" x="753.292969"/>
      <use xlink:href="#DejaVuSans-65" x="816.671875"/>
     </g>
    </g>
   </g>
  </g>
  <g id="axes_2">
   <g id="patch_6">
    <path d="M 478.909091 320.4 
L 648 320.4 
L 648 43.2 
L 478.909091 43.2 
z
" style="fill: #ffffff"/>
   </g>
   <g id="PolyCollection_4"/>
   <g id="PolyCollection_5">
    <defs>
     <path id="mc5fd239dfb" d="M 486.595041 -52.2 
L 486.595041 -52.2 
L 487.363636 -52.2 
L 488.132231 -52.2 
L 488.900826 -52.2 
L 489.669421 -52.2 
L 490.438017 -52.2 
L 491.206611 -52.2 
L 491.975207 -52.2 
L 492.743801 -52.2 
L 493.512397 -52.2 
L 494.280991 -52.200001 
L 495.049586 -52.200007 
L 495.818181 -52.200028 
L 496.586777 -52.200094 
L 497.355372 -52.200265 
L 498.123966 -52.200658 
L 498.892562 -52.201516 
L 499.661157 -52.203352 
L 500.429751 -52.207223 
L 501.198346 -52.214989 
L 501.966941 -52.229532 
L 502.735537 -52.254951 
L 503.504132 -52.296933 
L 504.272727 -52.363471 
L 505.041321 -52.46606 
L 505.809918 -52.620371 
L 506.578511 -52.847699 
L 507.347107 -53.175789 
L 508.115702 -53.639906 
L 508.884297 -54.283282 
L 509.65289 -55.162115 
L 510.421488 -56.341831 
L 511.190081 -57.898696 
L 511.958676 -59.92582 
L 512.727274 -62.519367 
L 513.495867 -65.796511 
L 514.264462 -69.86337 
L 515.033058 -74.849168 
L 515.801653 -80.850758 
L 516.570246 -87.98892 
L 517.338841 -96.318384 
L 518.107437 -105.914463 
L 518.876032 -116.806331 
L 519.644627 -128.930083 
L 520.413223 -142.224816 
L 521.181818 -156.545162 
L 521.950411 -171.826309 
L 522.719009 -187.626875 
L 523.487602 -203.746466 
L 524.256195 -219.857075 
L 525.024792 -235.576508 
L 525.79339 -250.561731 
L 526.561983 -264.28296 
L 527.330576 -276.476467 
L 528.099169 -286.777602 
L 528.867771 -294.874603 
L 529.636364 -300.596929 
L 530.404957 -303.696082 
L 531.17355 -304.2 
L 531.942148 -302.098635 
L 532.710741 -297.390845 
L 533.479339 -290.270889 
L 534.247936 -281.126443 
L 535.016529 -270.052404 
L 535.785122 -257.552557 
L 536.553715 -243.729581 
L 537.322313 -229.145131 
L 538.090906 -214.175455 
L 538.859504 -199.058428 
L 539.628101 -184.09494 
L 540.396694 -169.585374 
L 541.165287 -155.691246 
L 541.93388 -142.622217 
L 542.702478 -130.491338 
L 543.471076 -119.403578 
L 544.239669 -109.406756 
L 545.008262 -100.485012 
L 545.776859 -92.578838 
L 546.545452 -85.683124 
L 547.314045 -79.773531 
L 548.082643 -74.712289 
L 548.85124 -70.418072 
L 549.619833 -66.844288 
L 550.388426 -63.875372 
L 551.157024 -61.438361 
L 551.925617 -59.453398 
L 552.69421 -57.8506 
L 553.462812 -56.571838 
L 554.231405 -55.554986 
L 554.999998 -54.756204 
L 555.768591 -54.132076 
L 556.537189 -53.648675 
L 557.305782 -53.278492 
L 558.07438 -52.99616 
L 558.842973 -52.783027 
L 559.61157 -52.622734 
L 560.380163 -52.504861 
L 561.148756 -52.417205 
L 561.917354 -52.353452 
L 562.685942 -52.307559 
L 563.454545 -52.274203 
L 564.223138 -52.250985 
L 564.991731 -52.234495 
L 565.760324 -52.223095 
L 566.528926 -52.215299 
L 567.297519 -52.209958 
L 568.066112 -52.206381 
L 568.834705 -52.204028 
L 569.603298 -52.202494 
L 570.3719 -52.201515 
L 571.140493 -52.200896 
L 571.909096 -52.200518 
L 572.677689 -52.200291 
L 573.446282 -52.20016 
L 574.214875 -52.200086 
L 574.983468 -52.200045 
L 575.752061 -52.200023 
L 576.520654 -52.200012 
L 577.289256 -52.200006 
L 578.057849 -52.200003 
L 578.826442 -52.200001 
L 579.595035 -52.200001 
L 580.363637 -52.2 
L 581.13223 -52.2 
L 581.900823 -52.2 
L 582.669426 -52.2 
L 583.438019 -52.2 
L 584.206612 -52.2 
L 584.975205 -52.2 
L 585.743798 -52.2 
L 586.512391 -52.2 
L 587.280984 -52.2 
L 588.049586 -52.2 
L 588.818179 -52.2 
L 589.586772 -52.2 
L 590.355374 -52.2 
L 591.123967 -52.2 
L 591.89256 -52.2 
L 592.661153 -52.2 
L 593.429756 -52.2 
L 594.198349 -52.2 
L 594.966942 -52.2 
L 595.735535 -52.2 
L 596.504128 -52.2 
L 597.272721 -52.2 
L 598.041314 -52.2 
L 598.809907 -52.2 
L 599.578509 -52.2 
L 600.347111 -52.2 
L 601.115704 -52.2 
L 601.884297 -52.2 
L 602.65289 -52.2 
L 603.421483 -52.2 
L 604.190076 -52.2 
L 604.958678 -52.2 
L 605.727271 -52.2 
L 606.495864 -52.2 
L 607.264458 -52.2 
L 608.033051 -52.2 
L 608.801644 -52.2 
L 609.570237 -52.2 
L 610.338848 -52.2 
L 611.107441 -52.2 
L 611.876034 -52.2 
L 612.644627 -52.2 
L 613.41322 -52.2 
L 614.181813 -52.2 
L 614.950406 -52.2 
L 615.719008 -52.2 
L 616.487601 -52.2 
L 617.256194 -52.2 
L 618.024787 -52.2 
L 618.79338 -52.2 
L 619.561983 -52.2 
L 620.330576 -52.2 
L 621.099178 -52.2 
L 621.867771 -52.2 
L 622.636364 -52.2 
L 623.404957 -52.2 
L 624.17355 -52.2 
L 624.942143 -52.2 
L 625.710736 -52.2 
L 626.479329 -52.2 
L 627.247931 -52.2 
L 628.016524 -52.2 
L 628.785117 -52.2 
L 629.55372 -52.2 
L 630.322313 -52.2 
L 631.090906 -52.2 
L 631.859499 -52.2 
L 632.628101 -52.2 
L 633.396694 -52.2 
L 634.165287 -52.2 
L 634.93388 -52.2 
L 635.702473 -52.2 
L 636.471066 -52.2 
L 637.239659 -52.2 
L 638.008261 -52.2 
L 638.776854 -52.2 
L 639.545457 -52.2 
L 640.31405 -52.2 
L 640.31405 -52.2 
L 640.31405 -52.2 
L 639.545457 -52.2 
L 638.776854 -52.2 
L 638.008261 -52.2 
L 637.239659 -52.2 
L 636.471066 -52.2 
L 635.702473 -52.2 
L 634.93388 -52.2 
L 634.165287 -52.2 
L 633.396694 -52.2 
L 632.628101 -52.2 
L 631.859499 -52.2 
L 631.090906 -52.2 
L 630.322313 -52.2 
L 629.55372 -52.2 
L 628.785117 -52.2 
L 628.016524 -52.2 
L 627.247931 -52.2 
L 626.479329 -52.2 
L 625.710736 -52.2 
L 624.942143 -52.2 
L 624.17355 -52.2 
L 623.404957 -52.2 
L 622.636364 -52.2 
L 621.867771 -52.2 
L 621.099178 -52.2 
L 620.330576 -52.2 
L 619.561983 -52.2 
L 618.79338 -52.2 
L 618.024787 -52.2 
L 617.256194 -52.2 
L 616.487601 -52.2 
L 615.719008 -52.2 
L 614.950406 -52.2 
L 614.181813 -52.2 
L 613.41322 -52.2 
L 612.644627 -52.2 
L 611.876034 -52.2 
L 611.107441 -52.2 
L 610.338848 -52.2 
L 609.570237 -52.2 
L 608.801644 -52.2 
L 608.033051 -52.2 
L 607.264458 -52.2 
L 606.495864 -52.2 
L 605.727271 -52.2 
L 604.958678 -52.2 
L 604.190076 -52.2 
L 603.421483 -52.2 
L 602.65289 -52.2 
L 601.884297 -52.2 
L 601.115704 -52.2 
L 600.347111 -52.2 
L 599.578509 -52.2 
L 598.809907 -52.2 
L 598.041314 -52.2 
L 597.272721 -52.2 
L 596.504128 -52.2 
L 595.735535 -52.2 
L 594.966942 -52.2 
L 594.198349 -52.2 
L 593.429756 -52.2 
L 592.661153 -52.2 
L 591.89256 -52.2 
L 591.123967 -52.2 
L 590.355374 -52.2 
L 589.586772 -52.2 
L 588.818179 -52.2 
L 588.049586 -52.2 
L 587.280984 -52.2 
L 586.512391 -52.2 
L 585.743798 -52.2 
L 584.975205 -52.2 
L 584.206612 -52.2 
L 583.438019 -52.2 
L 582.669426 -52.2 
L 581.900823 -52.2 
L 581.13223 -52.2 
L 580.363637 -52.2 
L 579.595035 -52.2 
L 578.826442 -52.2 
L 578.057849 -52.2 
L 577.289256 -52.2 
L 576.520654 -52.2 
L 575.752061 -52.2 
L 574.983468 -52.2 
L 574.214875 -52.2 
L 573.446282 -52.2 
L 572.677689 -52.2 
L 571.909096 -52.2 
L 571.140493 -52.2 
L 570.3719 -52.2 
L 569.603298 -52.2 
L 568.834705 -52.2 
L 568.066112 -52.2 
L 567.297519 -52.2 
L 566.528926 -52.2 
L 565.760324 -52.2 
L 564.991731 -52.2 
L 564.223138 -52.2 
L 563.454545 -52.2 
L 562.685942 -52.2 
L 561.917354 -52.2 
L 561.148756 -52.2 
L 560.380163 -52.2 
L 559.61157 -52.2 
L 558.842973 -52.2 
L 558.07438 -52.2 
L 557.305782 -52.2 
L 556.537189 -52.2 
L 555.768591 -52.2 
L 554.999998 -52.2 
L 554.231405 -52.2 
L 553.462812 -52.2 
L 552.69421 -52.2 
L 551.925617 -52.2 
L 551.157024 -52.2 
L 550.388426 -52.2 
L 549.619833 -52.2 
L 548.85124 -52.2 
L 548.082643 -52.2 
L 547.314045 -52.2 
L 546.545452 -52.2 
L 545.776859 -52.2 
L 545.008262 -52.2 
L 544.239669 -52.2 
L 543.471076 -52.2 
L 542.702478 -52.2 
L 541.93388 -52.2 
L 541.165287 -52.2 
L 540.396694 -52.2 
L 539.628101 -52.2 
L 538.859504 -52.2 
L 538.090906 -52.2 
L 537.322313 -52.2 
L 536.553715 -52.2 
L 535.785122 -52.2 
L 535.016529 -52.2 
L 534.247936 -52.2 
L 533.479339 -52.2 
L 532.710741 -52.2 
L 531.942148 -52.2 
L 531.17355 -52.2 
L 530.404957 -52.2 
L 529.636364 -52.2 
L 528.867771 -52.2 
L 528.099169 -52.2 
L 527.330576 -52.2 
L 526.561983 -52.2 
L 525.79339 -52.2 
L 525.024792 -52.2 
L 524.256195 -52.2 
L 523.487602 -52.2 
L 522.719009 -52.2 
L 521.950411 -52.2 
L 521.181818 -52.2 
L 520.413223 -52.2 
L 519.644627 -52.2 
L 518.876032 -52.2 
L 518.107437 -52.2 
L 517.338841 -52.2 
L 516.570246 -52.2 
L 515.801653 -52.2 
L 515.033058 -52.2 
L 514.264462 -52.2 
L 513.495867 -52.2 
L 512.727274 -52.2 
L 511.958676 -52.2 
L 511.190081 -52.2 
L 510.421488 -52.2 
L 509.65289 -52.2 
L 508.884297 -52.2 
L 508.115702 -52.2 
L 507.347107 -52.2 
L 506.578511 -52.2 
L 505.809918 -52.2 
L 505.041321 -52.2 
L 504.272727 -52.2 
L 503.504132 -52.2 
L 502.735537 -52.2 
L 501.966941 -52.2 
L 501.198346 -52.2 
L 500.429751 -52.2 
L 499.661157 -52.2 
L 498.892562 -52.2 
L 498.123966 -52.2 
L 497.355372 -52.2 
L 496.586777 -52.2 
L 495.818181 -52.2 
L 495.049586 -52.2 
L 494.280991 -52.2 
L 493.512397 -52.2 
L 492.743801 -52.2 
L 491.975207 -52.2 
L 491.206611 -52.2 
L 490.438017 -52.2 
L 489.669421 -52.2 
L 488.900826 -52.2 
L 488.132231 -52.2 
L 487.363636 -52.2 
L 486.595041 -52.2 
z
" style="stroke: #1f77b4; stroke-opacity: 0.3"/>
    </defs>
    <g clip-path="url(#p5d14b163b4)">
     <use xlink:href="#mc5fd239dfb" x="0" y="360" style="fill: #1f77b4; fill-opacity: 0.3; stroke: #1f77b4; stroke-opacity: 0.3"/>
    </g>
   </g>
   <g id="PolyCollection_6"/>
   <g id="PolyCollection_7">
    <defs>
     <path id="mc8d1daaae0" d="M 486.595041 -52.2 
L 486.595041 -52.2 
L 487.363636 -52.2 
L 488.132231 -52.2 
L 488.900826 -52.2 
L 489.669421 -52.2 
L 490.438017 -52.2 
L 491.206611 -52.2 
L 491.975207 -52.2 
L 492.743801 -52.2 
L 493.512397 -52.2 
L 494.280991 -52.2 
L 495.049586 -52.2 
L 495.818181 -52.200023 
L 496.586777 -52.210836 
L 497.355372 -52.373842 
L 498.123966 -53.269042 
L 498.892562 -58.175499 
L 499.661157 -72.12329 
L 500.429751 -103.443537 
L 501.198346 -156.941715 
L 501.966941 -224.333431 
L 502.735537 -286.926739 
L 503.504132 -304.2 
L 504.272727 -250.892555 
L 505.041321 -166.01112 
L 505.809918 -93.831078 
L 506.578511 -60.42364 
L 507.347107 -53.044585 
L 508.115702 -52.230771 
L 508.884297 -52.200438 
L 509.65289 -52.200002 
L 510.421488 -52.2 
L 511.190081 -52.2 
L 511.958676 -52.2 
L 512.727274 -52.2 
L 513.495867 -52.2 
L 514.264462 -52.2 
L 515.033058 -52.2 
L 515.801653 -52.2 
L 516.570246 -52.2 
L 517.338841 -52.2 
L 518.107437 -52.2 
L 518.876032 -52.2 
L 519.644627 -52.2 
L 520.413223 -52.2 
L 521.181818 -52.2 
L 521.950411 -52.2 
L 522.719009 -52.2 
L 523.487602 -52.2 
L 524.256195 -52.2 
L 525.024792 -52.2 
L 525.79339 -52.2 
L 526.561983 -52.2 
L 527.330576 -52.2 
L 528.099169 -52.2 
L 528.867771 -52.2 
L 529.636364 -52.2 
L 530.404957 -52.2 
L 531.17355 -52.2 
L 531.942148 -52.2 
L 532.710741 -52.2 
L 533.479339 -52.2 
L 534.247936 -52.2 
L 535.016529 -52.2 
L 535.785122 -52.2 
L 536.553715 -52.2 
L 537.322313 -52.2 
L 538.090906 -52.2 
L 538.859504 -52.2 
L 539.628101 -52.2 
L 540.396694 -52.2 
L 541.165287 -52.2 
L 541.93388 -52.2 
L 542.702478 -52.2 
L 543.471076 -52.2 
L 544.239669 -52.2 
L 545.008262 -52.2 
L 545.776859 -52.2 
L 546.545452 -52.2 
L 547.314045 -52.2 
L 548.082643 -52.2 
L 548.85124 -52.2 
L 549.619833 -52.2 
L 550.388426 -52.2 
L 551.157024 -52.2 
L 551.925617 -52.2 
L 552.69421 -52.2 
L 553.462812 -52.2 
L 554.231405 -52.2 
L 554.999998 -52.2 
L 555.768591 -52.2 
L 556.537189 -52.2 
L 557.305782 -52.2 
L 558.07438 -52.2 
L 558.842973 -52.2 
L 559.61157 -52.2 
L 560.380163 -52.2 
L 561.148756 -52.2 
L 561.917354 -52.2 
L 562.685942 -52.2 
L 563.454545 -52.2 
L 564.223138 -52.2 
L 564.991731 -52.2 
L 565.760324 -52.2 
L 566.528926 -52.2 
L 567.297519 -52.2 
L 568.066112 -52.2 
L 568.834705 -52.2 
L 569.603298 -52.2 
L 570.3719 -52.2 
L 571.140493 -52.2 
L 571.909096 -52.2 
L 572.677689 -52.2 
L 573.446282 -52.2 
L 574.214875 -52.2 
L 574.983468 -52.2 
L 575.752061 -52.2 
L 576.520654 -52.2 
L 577.289256 -52.2 
L 578.057849 -52.2 
L 578.826442 -52.2 
L 579.595035 -52.2 
L 580.363637 -52.2 
L 581.13223 -52.2 
L 581.900823 -52.2 
L 582.669426 -52.2 
L 583.438019 -52.2 
L 584.206612 -52.2 
L 584.975205 -52.2 
L 585.743798 -52.2 
L 586.512391 -52.2 
L 587.280984 -52.2 
L 588.049586 -52.2 
L 588.818179 -52.2 
L 589.586772 -52.2 
L 590.355374 -52.2 
L 591.123967 -52.2 
L 591.89256 -52.2 
L 592.661153 -52.2 
L 593.429756 -52.2 
L 594.198349 -52.2 
L 594.966942 -52.2 
L 595.735535 -52.2 
L 596.504128 -52.2 
L 597.272721 -52.2 
L 598.041314 -52.2 
L 598.809907 -52.2 
L 599.578509 -52.2 
L 600.347111 -52.2 
L 601.115704 -52.2 
L 601.884297 -52.2 
L 602.65289 -52.2 
L 603.421483 -52.2 
L 604.190076 -52.2 
L 604.958678 -52.2 
L 605.727271 -52.2 
L 606.495864 -52.2 
L 607.264458 -52.2 
L 608.033051 -52.2 
L 608.801644 -52.2 
L 609.570237 -52.2 
L 610.338848 -52.2 
L 611.107441 -52.2 
L 611.876034 -52.2 
L 612.644627 -52.2 
L 613.41322 -52.2 
L 614.181813 -52.2 
L 614.950406 -52.2 
L 615.719008 -52.2 
L 616.487601 -52.2 
L 617.256194 -52.2 
L 618.024787 -52.2 
L 618.79338 -52.2 
L 619.561983 -52.2 
L 620.330576 -52.2 
L 621.099178 -52.2 
L 621.867771 -52.2 
L 622.636364 -52.2 
L 623.404957 -52.2 
L 624.17355 -52.2 
L 624.942143 -52.2 
L 625.710736 -52.2 
L 626.479329 -52.2 
L 627.247931 -52.2 
L 628.016524 -52.2 
L 628.785117 -52.2 
L 629.55372 -52.2 
L 630.322313 -52.2 
L 631.090906 -52.2 
L 631.859499 -52.2 
L 632.628101 -52.2 
L 633.396694 -52.2 
L 634.165287 -52.2 
L 634.93388 -52.2 
L 635.702473 -52.2 
L 636.471066 -52.2 
L 637.239659 -52.2 
L 638.008261 -52.2 
L 638.776854 -52.2 
L 639.545457 -52.2 
L 640.31405 -52.2 
L 640.31405 -52.2 
L 640.31405 -52.2 
L 639.545457 -52.2 
L 638.776854 -52.2 
L 638.008261 -52.2 
L 637.239659 -52.2 
L 636.471066 -52.2 
L 635.702473 -52.2 
L 634.93388 -52.2 
L 634.165287 -52.2 
L 633.396694 -52.2 
L 632.628101 -52.2 
L 631.859499 -52.2 
L 631.090906 -52.2 
L 630.322313 -52.2 
L 629.55372 -52.2 
L 628.785117 -52.2 
L 628.016524 -52.2 
L 627.247931 -52.2 
L 626.479329 -52.2 
L 625.710736 -52.2 
L 624.942143 -52.2 
L 624.17355 -52.2 
L 623.404957 -52.2 
L 622.636364 -52.2 
L 621.867771 -52.2 
L 621.099178 -52.2 
L 620.330576 -52.2 
L 619.561983 -52.2 
L 618.79338 -52.2 
L 618.024787 -52.2 
L 617.256194 -52.2 
L 616.487601 -52.2 
L 615.719008 -52.2 
L 614.950406 -52.2 
L 614.181813 -52.2 
L 613.41322 -52.2 
L 612.644627 -52.2 
L 611.876034 -52.2 
L 611.107441 -52.2 
L 610.338848 -52.2 
L 609.570237 -52.2 
L 608.801644 -52.2 
L 608.033051 -52.2 
L 607.264458 -52.2 
L 606.495864 -52.2 
L 605.727271 -52.2 
L 604.958678 -52.2 
L 604.190076 -52.2 
L 603.421483 -52.2 
L 602.65289 -52.2 
L 601.884297 -52.2 
L 601.115704 -52.2 
L 600.347111 -52.2 
L 599.578509 -52.2 
L 598.809907 -52.2 
L 598.041314 -52.2 
L 597.272721 -52.2 
L 596.504128 -52.2 
L 595.735535 -52.2 
L 594.966942 -52.2 
L 594.198349 -52.2 
L 593.429756 -52.2 
L 592.661153 -52.2 
L 591.89256 -52.2 
L 591.123967 -52.2 
L 590.355374 -52.2 
L 589.586772 -52.2 
L 588.818179 -52.2 
L 588.049586 -52.2 
L 587.280984 -52.2 
L 586.512391 -52.2 
L 585.743798 -52.2 
L 584.975205 -52.2 
L 584.206612 -52.2 
L 583.438019 -52.2 
L 582.669426 -52.2 
L 581.900823 -52.2 
L 581.13223 -52.2 
L 580.363637 -52.2 
L 579.595035 -52.2 
L 578.826442 -52.2 
L 578.057849 -52.2 
L 577.289256 -52.2 
L 576.520654 -52.2 
L 575.752061 -52.2 
L 574.983468 -52.2 
L 574.214875 -52.2 
L 573.446282 -52.2 
L 572.677689 -52.2 
L 571.909096 -52.2 
L 571.140493 -52.2 
L 570.3719 -52.2 
L 569.603298 -52.2 
L 568.834705 -52.2 
L 568.066112 -52.2 
L 567.297519 -52.2 
L 566.528926 -52.2 
L 565.760324 -52.2 
L 564.991731 -52.2 
L 564.223138 -52.2 
L 563.454545 -52.2 
L 562.685942 -52.2 
L 561.917354 -52.2 
L 561.148756 -52.2 
L 560.380163 -52.2 
L 559.61157 -52.2 
L 558.842973 -52.2 
L 558.07438 -52.2 
L 557.305782 -52.2 
L 556.537189 -52.2 
L 555.768591 -52.2 
L 554.999998 -52.2 
L 554.231405 -52.2 
L 553.462812 -52.2 
L 552.69421 -52.2 
L 551.925617 -52.2 
L 551.157024 -52.2 
L 550.388426 -52.2 
L 549.619833 -52.2 
L 548.85124 -52.2 
L 548.082643 -52.2 
L 547.314045 -52.2 
L 546.545452 -52.2 
L 545.776859 -52.2 
L 545.008262 -52.2 
L 544.239669 -52.2 
L 543.471076 -52.2 
L 542.702478 -52.2 
L 541.93388 -52.2 
L 541.165287 -52.2 
L 540.396694 -52.2 
L 539.628101 -52.2 
L 538.859504 -52.2 
L 538.090906 -52.2 
L 537.322313 -52.2 
L 536.553715 -52.2 
L 535.785122 -52.2 
L 535.016529 -52.2 
L 534.247936 -52.2 
L 533.479339 -52.2 
L 532.710741 -52.2 
L 531.942148 -52.2 
L 531.17355 -52.2 
L 530.404957 -52.2 
L 529.636364 -52.2 
L 528.867771 -52.2 
L 528.099169 -52.2 
L 527.330576 -52.2 
L 526.561983 -52.2 
L 525.79339 -52.2 
L 525.024792 -52.2 
L 524.256195 -52.2 
L 523.487602 -52.2 
L 522.719009 -52.2 
L 521.950411 -52.2 
L 521.181818 -52.2 
L 520.413223 -52.2 
L 519.644627 -52.2 
L 518.876032 -52.2 
L 518.107437 -52.2 
L 517.338841 -52.2 
L 516.570246 -52.2 
L 515.801653 -52.2 
L 515.033058 -52.2 
L 514.264462 -52.2 
L 513.495867 -52.2 
L 512.727274 -52.2 
L 511.958676 -52.2 
L 511.190081 -52.2 
L 510.421488 -52.2 
L 509.65289 -52.2 
L 508.884297 -52.2 
L 508.115702 -52.2 
L 507.347107 -52.2 
L 506.578511 -52.2 
L 505.809918 -52.2 
L 505.041321 -52.2 
L 504.272727 -52.2 
L 503.504132 -52.2 
L 502.735537 -52.2 
L 501.966941 -52.2 
L 501.198346 -52.2 
L 500.429751 -52.2 
L 499.661157 -52.2 
L 498.892562 -52.2 
L 498.123966 -52.2 
L 497.355372 -52.2 
L 496.586777 -52.2 
L 495.818181 -52.2 
L 495.049586 -52.2 
L 494.280991 -52.2 
L 493.512397 -52.2 
L 492.743801 -52.2 
L 491.975207 -52.2 
L 491.206611 -52.2 
L 490.438017 -52.2 
L 489.669421 -52.2 
L 488.900826 -52.2 
L 488.132231 -52.2 
L 487.363636 -52.2 
L 486.595041 -52.2 
z
" style="stroke: #ff7f0e; stroke-opacity: 0.3"/>
    </defs>
    <g clip-path="url(#p5d14b163b4)">
     <use xlink:href="#mc8d1daaae0" x="0" y="360" style="fill: #ff7f0e; fill-opacity: 0.3; stroke: #ff7f0e; stroke-opacity: 0.3"/>
    </g>
   </g>
   <g id="matplotlib.axis_3">
    <g id="xtick_6">
     <g id="line2d_18">
      <g>
       <use xlink:href="#mc98df24a6f" x="485.042324" y="320.4" style="stroke: #000000; stroke-width: 0.8"/>
      </g>
     </g>
     <g id="text_24">
      <!-- 0.00 -->
      <g transform="translate(473.909512 334.998438) scale(0.1 -0.1)">
       <use xlink:href="#DejaVuSans-30"/>
       <use xlink:href="#DejaVuSans-2e" x="63.623047"/>
       <use xlink:href="#DejaVuSans-30" x="95.410156"/>
       <use xlink:href="#DejaVuSans-30" x="159.033203"/>
      </g>
     </g>
    </g>
    <g id="xtick_7">
     <g id="line2d_19">
      <g>
       <use xlink:href="#mc98df24a6f" x="523.860255" y="320.4" style="stroke: #000000; stroke-width: 0.8"/>
      </g>
     </g>
     <g id="text_25">
      <!-- 0.25 -->
      <g transform="translate(512.727443 334.998438) scale(0.1 -0.1)">
       <use xlink:href="#DejaVuSans-30"/>
       <use xlink:href="#DejaVuSans-2e" x="63.623047"/>
       <use xlink:href="#DejaVuSans-32" x="95.410156"/>
       <use xlink:href="#DejaVuSans-35" x="159.033203"/>
      </g>
     </g>
    </g>
    <g id="xtick_8">
     <g id="line2d_20">
      <g>
       <use xlink:href="#mc98df24a6f" x="562.678187" y="320.4" style="stroke: #000000; stroke-width: 0.8"/>
      </g>
     </g>
     <g id="text_26">
      <!-- 0.50 -->
      <g transform="translate(551.545374 334.998438) scale(0.1 -0.1)">
       <use xlink:href="#DejaVuSans-30"/>
       <use xlink:href="#DejaVuSans-2e" x="63.623047"/>
       <use xlink:href="#DejaVuSans-35" x="95.410156"/>
       <use xlink:href="#DejaVuSans-30" x="159.033203"/>
      </g>
     </g>
    </g>
    <g id="xtick_9">
     <g id="line2d_21">
      <g>
       <use xlink:href="#mc98df24a6f" x="601.496118" y="320.4" style="stroke: #000000; stroke-width: 0.8"/>
      </g>
     </g>
     <g id="text_27">
      <!-- 0.75 -->
      <g transform="translate(590.363306 334.998438) scale(0.1 -0.1)">
       <use xlink:href="#DejaVuSans-30"/>
       <use xlink:href="#DejaVuSans-2e" x="63.623047"/>
       <use xlink:href="#DejaVuSans-37" x="95.410156"/>
       <use xlink:href="#DejaVuSans-35" x="159.033203"/>
      </g>
     </g>
    </g>
    <g id="xtick_10">
     <g id="line2d_22">
      <g>
       <use xlink:href="#mc98df24a6f" x="640.31405" y="320.4" style="stroke: #000000; stroke-width: 0.8"/>
      </g>
     </g>
     <g id="text_28">
      <!-- 1.00 -->
      <g transform="translate(629.181237 334.998438) scale(0.1 -0.1)">
       <use xlink:href="#DejaVuSans-31"/>
       <use xlink:href="#DejaVuSans-2e" x="63.623047"/>
       <use xlink:href="#DejaVuSans-30" x="95.410156"/>
       <use xlink:href="#DejaVuSans-30" x="159.033203"/>
      </g>
     </g>
    </g>
    <g id="text_29">
     <!-- Fitness -->
     <g transform="translate(546.137358 348.676562) scale(0.1 -0.1)">
      <defs>
       <path id="DejaVuSans-74" d="M 1172 4494 
L 1172 3500 
L 2356 3500 
L 2356 3053 
L 1172 3053 
L 1172 1153 
Q 1172 725 1289 603 
Q 1406 481 1766 481 
L 2356 481 
L 2356 0 
L 1766 0 
Q 1100 0 847 248 
Q 594 497 594 1153 
L 594 3053 
L 172 3053 
L 172 3500 
L 594 3500 
L 594 4494 
L 1172 4494 
z
" transform="scale(0.015625)"/>
      </defs>
      <use xlink:href="#DejaVuSans-46"/>
      <use xlink:href="#DejaVuSans-69" x="50.269531"/>
      <use xlink:href="#DejaVuSans-74" x="78.052734"/>
      <use xlink:href="#DejaVuSans-6e" x="117.261719"/>
      <use xlink:href="#DejaVuSans-65" x="180.640625"/>
      <use xlink:href="#DejaVuSans-73" x="242.164062"/>
      <use xlink:href="#DejaVuSans-73" x="294.263672"/>
     </g>
    </g>
   </g>
   <g id="matplotlib.axis_4">
    <g id="ytick_7">
     <g id="line2d_23">
      <g>
       <use xlink:href="#m2b708ceea6" x="478.909091" y="307.8" style="stroke: #000000; stroke-width: 0.8"/>
      </g>
     </g>
     <g id="text_30">
      <!-- 0.0 -->
      <g transform="translate(456.005966 311.599219) scale(0.1 -0.1)">
       <use xlink:href="#DejaVuSans-30"/>
       <use xlink:href="#DejaVuSans-2e" x="63.623047"/>
       <use xlink:href="#DejaVuSans-30" x="95.410156"/>
      </g>
     </g>
    </g>
    <g id="ytick_8">
     <g id="line2d_24">
      <g>
       <use xlink:href="#m2b708ceea6" x="478.909091" y="257.4" style="stroke: #000000; stroke-width: 0.8"/>
      </g>
     </g>
     <g id="text_31">
      <!-- 0.2 -->
      <g transform="translate(456.005966 261.199219) scale(0.1 -0.1)">
       <use xlink:href="#DejaVuSans-30"/>
       <use xlink:href="#DejaVuSans-2e" x="63.623047"/>
       <use xlink:href="#DejaVuSans-32" x="95.410156"/>
      </g>
     </g>
    </g>
    <g id="ytick_9">
     <g id="line2d_25">
      <g>
       <use xlink:href="#m2b708ceea6" x="478.909091" y="207" style="stroke: #000000; stroke-width: 0.8"/>
      </g>
     </g>
     <g id="text_32">
      <!-- 0.4 -->
      <g transform="translate(456.005966 210.799219) scale(0.1 -0.1)">
       <use xlink:href="#DejaVuSans-30"/>
       <use xlink:href="#DejaVuSans-2e" x="63.623047"/>
       <use xlink:href="#DejaVuSans-34" x="95.410156"/>
      </g>
     </g>
    </g>
    <g id="ytick_10">
     <g id="line2d_26">
      <g>
       <use xlink:href="#m2b708ceea6" x="478.909091" y="156.6" style="stroke: #000000; stroke-width: 0.8"/>
      </g>
     </g>
     <g id="text_33">
      <!-- 0.6 -->
      <g transform="translate(456.005966 160.399219) scale(0.1 -0.1)">
       <use xlink:href="#DejaVuSans-30"/>
       <use xlink:href="#DejaVuSans-2e" x="63.623047"/>
       <use xlink:href="#DejaVuSans-36" x="95.410156"/>
      </g>
     </g>
    </g>
    <g id="ytick_11">
     <g id="line2d_27">
      <g>
       <use xlink:href="#m2b708ceea6" x="478.909091" y="106.2" style="stroke: #000000; stroke-width: 0.8"/>
      </g>
     </g>
     <g id="text_34">
      <!-- 0.8 -->
      <g transform="translate(456.005966 109.999219) scale(0.1 -0.1)">
       <use xlink:href="#DejaVuSans-30"/>
       <use xlink:href="#DejaVuSans-2e" x="63.623047"/>
       <use xlink:href="#DejaVuSans-38" x="95.410156"/>
      </g>
     </g>
    </g>
    <g id="ytick_12">
     <g id="line2d_28">
      <g>
       <use xlink:href="#m2b708ceea6" x="478.909091" y="55.8" style="stroke: #000000; stroke-width: 0.8"/>
      </g>
     </g>
     <g id="text_35">
      <!-- 1.0 -->
      <g transform="translate(456.005966 59.599219) scale(0.1 -0.1)">
       <use xlink:href="#DejaVuSans-31"/>
       <use xlink:href="#DejaVuSans-2e" x="63.623047"/>
       <use xlink:href="#DejaVuSans-30" x="95.410156"/>
      </g>
     </g>
    </g>
    <g id="text_36">
     <!-- Normalised likelihood -->
     <g transform="translate(449.926278 235.533594) rotate(-90) scale(0.1 -0.1)">
      <defs>
       <path id="DejaVuSans-6b" d="M 581 4863 
L 1159 4863 
L 1159 1991 
L 2875 3500 
L 3609 3500 
L 1753 1863 
L 3688 0 
L 2938 0 
L 1159 1709 
L 1159 0 
L 581 0 
L 581 4863 
z
" transform="scale(0.015625)"/>
      </defs>
      <use xlink:href="#DejaVuSans-4e"/>
      <use xlink:href="#DejaVuSans-6f" x="74.804688"/>
      <use xlink:href="#DejaVuSans-72" x="135.986328"/>
      <use xlink:href="#DejaVuSans-6d" x="175.349609"/>
      <use xlink:href="#DejaVuSans-61" x="272.761719"/>
      <use xlink:href="#DejaVuSans-6c" x="334.041016"/>
      <use xlink:href="#DejaVuSans-69" x="361.824219"/>
      <use xlink:href="#DejaVuSans-73" x="389.607422"/>
      <use xlink:href="#DejaVuSans-65" x="441.707031"/>
      <use xlink:href="#DejaVuSans-64" x="503.230469"/>
      <use xlink:href="#DejaVuSans-20" x="566.707031"/>
      <use xlink:href="#DejaVuSans-6c" x="598.494141"/>
      <use xlink:href="#DejaVuSans-69" x="626.277344"/>
      <use xlink:href="#DejaVuSans-6b" x="654.060547"/>
      <use xlink:href="#DejaVuSans-65" x="708.345703"/>
      <use xlink:href="#DejaVuSans-6c" x="769.869141"/>
      <use xlink:href="#DejaVuSans-69" x="797.652344"/>
      <use xlink:href="#DejaVuSans-68" x="825.435547"/>
      <use xlink:href="#DejaVuSans-6f" x="888.814453"/>
      <use xlink:href="#DejaVuSans-6f" x="949.996094"/>
      <use xlink:href="#DejaVuSans-64" x="1011.177734"/>
     </g>
    </g>
   </g>
   <g id="line2d_29">
    <path d="M 486.595041 307.8 
L 503.504132 307.703067 
L 505.041321 307.53394 
L 506.578511 307.152301 
L 507.347107 306.824211 
L 508.115702 306.360094 
L 508.884297 305.716718 
L 509.65289 304.837885 
L 510.421488 303.658169 
L 511.190081 302.101304 
L 511.958676 300.07418 
L 512.727274 297.480633 
L 513.495867 294.203489 
L 514.264462 290.13663 
L 515.033058 285.150832 
L 515.801653 279.149242 
L 516.570246 272.01108 
L 517.338841 263.681616 
L 518.876032 243.193669 
L 520.413223 217.775184 
L 521.950411 188.173691 
L 525.79339 109.438269 
L 527.330576 83.523533 
L 528.099169 73.222398 
L 528.867771 65.125397 
L 529.636364 59.403071 
L 530.404957 56.303918 
L 531.17355 55.8 
L 531.942148 57.901365 
L 532.710741 62.609155 
L 533.479339 69.729111 
L 534.247936 78.873557 
L 535.785122 102.447443 
L 538.090906 145.824545 
L 541.165287 204.308754 
L 542.702478 229.508662 
L 544.239669 250.593244 
L 545.776859 267.421162 
L 547.314045 280.226469 
L 548.082643 285.287711 
L 548.85124 289.581928 
L 549.619833 293.155712 
L 550.388426 296.124628 
L 551.157024 298.561639 
L 551.925617 300.546602 
L 552.69421 302.1494 
L 553.462812 303.428162 
L 554.231405 304.445014 
L 554.999998 305.243796 
L 556.537189 306.351325 
L 558.07438 307.00384 
L 559.61157 307.377266 
L 561.917354 307.646548 
L 565.760324 307.776905 
L 578.826442 307.799999 
L 640.31405 307.8 
L 640.31405 307.8 
" clip-path="url(#p5d14b163b4)" style="fill: none; stroke: #1f77b4; stroke-width: 1.5; stroke-linecap: square"/>
   </g>
   <g id="line2d_30">
    <path d="M 486.595041 307.8 
L 496.586777 307.789164 
L 497.355372 307.626158 
L 498.123966 306.730958 
L 498.892562 301.824501 
L 499.661157 287.87671 
L 500.429751 256.556463 
L 501.198346 203.058285 
L 502.735537 73.073261 
L 503.504132 55.8 
L 504.272727 109.107445 
L 505.041321 193.98888 
L 505.809918 266.168922 
L 506.578511 299.57636 
L 507.347107 306.955415 
L 508.115702 307.769229 
L 511.190081 307.8 
L 640.31405 307.8 
L 640.31405 307.8 
" clip-path="url(#p5d14b163b4)" style="fill: none; stroke: #ff7f0e; stroke-width: 1.5; stroke-linecap: square"/>
   </g>
   <g id="patch_7">
    <path d="M 478.909091 320.4 
L 478.909091 43.2 
" style="fill: none; stroke: #000000; stroke-width: 0.8; stroke-linejoin: miter; stroke-linecap: square"/>
   </g>
   <g id="patch_8">
    <path d="M 478.909091 320.4 
L 648 320.4 
" style="fill: none; stroke: #000000; stroke-width: 0.8; stroke-linejoin: miter; stroke-linecap: square"/>
   </g>
   <g id="text_37">
    <!-- Clonal Fitness -->
    <g transform="translate(522.092983 37.2) scale(0.12 -0.12)">
     <use xlink:href="#DejaVuSans-43"/>
     <use xlink:href="#DejaVuSans-6c" x="69.824219"/>
     <use xlink:href="#DejaVuSans-6f" x="97.607422"/>
     <use xlink:href="#DejaVuSans-6e" x="158.789062"/>
     <use xlink:href="#DejaVuSans-61" x="222.167969"/>
     <use xlink:href="#DejaVuSans-6c" x="283.447266"/>
     <use xlink:href="#DejaVuSans-20" x="311.230469"/>
     <use xlink:href="#DejaVuSans-46" x="343.017578"/>
     <use xlink:href="#DejaVuSans-69" x="393.287109"/>
     <use xlink:href="#DejaVuSans-74" x="421.070312"/>
     <use xlink:href="#DejaVuSans-6e" x="460.279297"/>
     <use xlink:href="#DejaVuSans-65" x="523.658203"/>
     <use xlink:href="#DejaVuSans-73" x="585.181641"/>
     <use xlink:href="#DejaVuSans-73" x="637.28125"/>
    </g>
   </g>
   <g id="legend_2">
    <g id="patch_9">
     <path d="M 500.517187 203.577031 
L 641 203.577031 
Q 643 203.577031 643 201.577031 
L 643 162.022969 
Q 643 160.022969 641 160.022969 
L 500.517187 160.022969 
Q 498.517187 160.022969 498.517187 162.022969 
L 498.517187 201.577031 
Q 498.517187 203.577031 500.517187 203.577031 
z
" style="fill: #ffffff; opacity: 0.8; stroke: #cccccc; stroke-linejoin: miter"/>
    </g>
    <g id="line2d_31">
     <path d="M 502.517187 168.121406 
L 512.517187 168.121406 
L 522.517187 168.121406 
" style="fill: none; stroke: #1f77b4; stroke-width: 1.5; stroke-linecap: square"/>
    </g>
    <g id="text_38">
     <!-- DNMT3A p.Tyr735Cys -->
     <g transform="translate(530.517187 171.621406) scale(0.1 -0.1)">
      <use xlink:href="#DejaVuSans-44"/>
      <use xlink:href="#DejaVuSans-4e" x="77.001953"/>
      <use xlink:href="#DejaVuSans-4d" x="151.806641"/>
      <use xlink:href="#DejaVuSans-54" x="238.085938"/>
      <use xlink:href="#DejaVuSans-33" x="299.169922"/>
      <use xlink:href="#DejaVuSans-41" x="362.792969"/>
      <use xlink:href="#DejaVuSans-20" x="431.201172"/>
      <use xlink:href="#DejaVuSans-70" x="462.988281"/>
      <use xlink:href="#DejaVuSans-2e" x="526.464844"/>
      <use xlink:href="#DejaVuSans-54" x="558.251953"/>
      <use xlink:href="#DejaVuSans-79" x="603.710938"/>
      <use xlink:href="#DejaVuSans-72" x="662.890625"/>
      <use xlink:href="#DejaVuSans-37" x="704.003906"/>
      <use xlink:href="#DejaVuSans-33" x="767.626953"/>
      <use xlink:href="#DejaVuSans-35" x="831.25"/>
      <use xlink:href="#DejaVuSans-43" x="894.873047"/>
      <use xlink:href="#DejaVuSans-79" x="964.697266"/>
      <use xlink:href="#DejaVuSans-73" x="1023.876953"/>
     </g>
    </g>
    <g id="line2d_32">
     <path d="M 502.517187 189.438281 
L 512.517187 189.438281 
L 522.517187 189.438281 
" style="fill: none; stroke: #ff7f0e; stroke-width: 1.5; stroke-linecap: square"/>
    </g>
    <g id="text_39">
     <!-- DNMT3A p.Arg326Gly -->
     <g transform="translate(530.517187 186.299531) scale(0.1 -0.1)">
      <use xlink:href="#DejaVuSans-44"/>
      <use xlink:href="#DejaVuSans-4e" x="77.001953"/>
      <use xlink:href="#DejaVuSans-4d" x="151.806641"/>
      <use xlink:href="#DejaVuSans-54" x="238.085938"/>
      <use xlink:href="#DejaVuSans-33" x="299.169922"/>
      <use xlink:href="#DejaVuSans-41" x="362.792969"/>
      <use xlink:href="#DejaVuSans-20" x="431.201172"/>
      <use xlink:href="#DejaVuSans-70" x="462.988281"/>
      <use xlink:href="#DejaVuSans-2e" x="526.464844"/>
      <use xlink:href="#DejaVuSans-41" x="558.251953"/>
      <use xlink:href="#DejaVuSans-72" x="626.660156"/>
      <use xlink:href="#DejaVuSans-67" x="666.023438"/>
      <use xlink:href="#DejaVuSans-33" x="729.5"/>
      <use xlink:href="#DejaVuSans-32" x="793.123047"/>
      <use xlink:href="#DejaVuSans-36" x="856.746094"/>
      <use xlink:href="#DejaVuSans-47" x="920.369141"/>
      <use xlink:href="#DejaVuSans-6c" x="997.859375"/>
      <use xlink:href="#DejaVuSans-79" x="1025.642578"/>
     </g>
     <!-- JAK2 p.Val617Phe -->
     <g transform="translate(530.517187 197.497344) scale(0.1 -0.1)">
      <use xlink:href="#DejaVuSans-4a"/>
      <use xlink:href="#DejaVuSans-41" x="27.742188"/>
      <use xlink:href="#DejaVuSans-4b" x="96.150391"/>
      <use xlink:href="#DejaVuSans-32" x="161.726562"/>
      <use xlink:href="#DejaVuSans-20" x="225.349609"/>
      <use xlink:href="#DejaVuSans-70" x="257.136719"/>
      <use xlink:href="#DejaVuSans-2e" x="320.613281"/>
      <use xlink:href="#DejaVuSans-56" x="352.400391"/>
      <use xlink:href="#DejaVuSans-61" x="413.058594"/>
      <use xlink:href="#DejaVuSans-6c" x="474.337891"/>
      <use xlink:href="#DejaVuSans-36" x="502.121094"/>
      <use xlink:href="#DejaVuSans-31" x="565.744141"/>
      <use xlink:href="#DejaVuSans-37" x="629.367188"/>
      <use xlink:href="#DejaVuSans-50" x="692.990234"/>
      <use xlink:href="#DejaVuSans-68" x="753.292969"/>
      <use xlink:href="#DejaVuSans-65" x="816.671875"/>
     </g>
    </g>
   </g>
  </g>
 </g>
 <defs>
  <clipPath id="p505ba3fd82">
   <rect x="90" y="43.2" width="338.181818" height="277.2"/>
  </clipPath>
  <clipPath id="p5d14b163b4">
   <rect x="478.909091" y="43.2" width="169.090909" height="277.2"/>
  </clipPath>
 </defs>
</svg>
