<?xml version="1.0" encoding="utf-8" standalone="no"?>
<!DOCTYPE svg PUBLIC "-//W3C//DTD SVG 1.1//EN"
  "http://www.w3.org/Graphics/SVG/1.1/DTD/svg11.dtd">
<svg xmlns:xlink="http://www.w3.org/1999/xlink" width="576pt" height="576pt" viewBox="0 0 576 576" xmlns="http://www.w3.org/2000/svg" version="1.1">
 <metadata>
  <rdf:RDF xmlns:dc="http://purl.org/dc/elements/1.1/" xmlns:cc="http://creativecommons.org/ns#" xmlns:rdf="http://www.w3.org/1999/02/22-rdf-syntax-ns#">
   <cc:Work>
    <dc:type rdf:resource="http://purl.org/dc/dcmitype/StillImage"/>
    <dc:date>2024-11-27T14:44:00.485214</dc:date>
    <dc:format>image/svg+xml</dc:format>
    <dc:creator>
     <cc:Agent>
      <dc:title>Matplotlib v3.9.2, https://matplotlib.org/</dc:title>
     </cc:Agent>
    </dc:creator>
   </cc:Work>
  </rdf:RDF>
 </metadata>
 <defs>
  <style type="text/css">*{stroke-linejoin: round; stroke-linecap: butt}</style>
 </defs>
 <g id="figure_1">
  <g id="patch_1">
   <path d="M 0 576 
L 576 576 
L 576 0 
L 0 0 
L 0 576 
z
" style="fill: none"/>
  </g>
  <g id="axes_1">
   <g id="patch_2">
    <path d="M 157.97 534.04 
L 565.2 534.04 
L 565.2 10.8 
L 157.97 10.8 
L 157.97 534.04 
z
" style="fill: none"/>
   </g>
   <g id="line2d_1">
    <path d="M 391.125878 534.04 
L 391.125878 10.8 
" clip-path="url(#pc83852bbe4)" style="fill: none; stroke-dasharray: 5.55,2.4; stroke-dashoffset: 0; stroke: #ff0000; stroke-opacity: 0.5; stroke-width: 1.5"/>
   </g>
   <g id="matplotlib.axis_1">
    <g id="xtick_1">
     <g id="line2d_2">
      <path d="M 175.270238 534.04 
L 175.270238 10.8 
" clip-path="url(#pc83852bbe4)" style="fill: none; stroke-dasharray: 2.96,1.28; stroke-dashoffset: 0; stroke: #808080; stroke-opacity: 0.3; stroke-width: 0.8"/>
     </g>
     <g id="line2d_3">
      <defs>
       <path id="m5e6c3342da" d="M 0 0 
L 0 3.5 
" style="stroke: #000000; stroke-width: 0.8"/>
      </defs>
      <g>
       <use xlink:href="#m5e6c3342da" x="175.270238" y="534.04" style="stroke: #000000; stroke-width: 0.8"/>
      </g>
     </g>
     <g id="text_1">
      <!-- −0.08 -->
      <g transform="translate(159.947582 548.638438) scale(0.1 -0.1)">
       <defs>
        <path id="DejaVuSans-2212" d="M 678 2272 
L 4684 2272 
L 4684 1741 
L 678 1741 
L 678 2272 
z
" transform="scale(0.015625)"/>
        <path id="DejaVuSans-30" d="M 2034 4250 
Q 1547 4250 1301 3770 
Q 1056 3291 1056 2328 
Q 1056 1369 1301 889 
Q 1547 409 2034 409 
Q 2525 409 2770 889 
Q 3016 1369 3016 2328 
Q 3016 3291 2770 3770 
Q 2525 4250 2034 4250 
z
M 2034 4750 
Q 2819 4750 3233 4129 
Q 3647 3509 3647 2328 
Q 3647 1150 3233 529 
Q 2819 -91 2034 -91 
Q 1250 -91 836 529 
Q 422 1150 422 2328 
Q 422 3509 836 4129 
Q 1250 4750 2034 4750 
z
" transform="scale(0.015625)"/>
        <path id="DejaVuSans-2e" d="M 684 794 
L 1344 794 
L 1344 0 
L 684 0 
L 684 794 
z
" transform="scale(0.015625)"/>
        <path id="DejaVuSans-38" d="M 2034 2216 
Q 1584 2216 1326 1975 
Q 1069 1734 1069 1313 
Q 1069 891 1326 650 
Q 1584 409 2034 409 
Q 2484 409 2743 651 
Q 3003 894 3003 1313 
Q 3003 1734 2745 1975 
Q 2488 2216 2034 2216 
z
M 1403 2484 
Q 997 2584 770 2862 
Q 544 3141 544 3541 
Q 544 4100 942 4425 
Q 1341 4750 2034 4750 
Q 2731 4750 3128 4425 
Q 3525 4100 3525 3541 
Q 3525 3141 3298 2862 
Q 3072 2584 2669 2484 
Q 3125 2378 3379 2068 
Q 3634 1759 3634 1313 
Q 3634 634 3220 271 
Q 2806 -91 2034 -91 
Q 1263 -91 848 271 
Q 434 634 434 1313 
Q 434 1759 690 2068 
Q 947 2378 1403 2484 
z
M 1172 3481 
Q 1172 3119 1398 2916 
Q 1625 2713 2034 2713 
Q 2441 2713 2670 2916 
Q 2900 3119 2900 3481 
Q 2900 3844 2670 4047 
Q 2441 4250 2034 4250 
Q 1625 4250 1398 4047 
Q 1172 3844 1172 3481 
z
" transform="scale(0.015625)"/>
       </defs>
       <use xlink:href="#DejaVuSans-2212"/>
       <use xlink:href="#DejaVuSans-30" x="83.789062"/>
       <use xlink:href="#DejaVuSans-2e" x="147.412109"/>
       <use xlink:href="#DejaVuSans-30" x="179.199219"/>
       <use xlink:href="#DejaVuSans-38" x="242.822266"/>
      </g>
     </g>
    </g>
    <g id="xtick_2">
     <g id="line2d_4">
      <path d="M 229.234148 534.04 
L 229.234148 10.8 
" clip-path="url(#pc83852bbe4)" style="fill: none; stroke-dasharray: 2.96,1.28; stroke-dashoffset: 0; stroke: #808080; stroke-opacity: 0.3; stroke-width: 0.8"/>
     </g>
     <g id="line2d_5">
      <g>
       <use xlink:href="#m5e6c3342da" x="229.234148" y="534.04" style="stroke: #000000; stroke-width: 0.8"/>
      </g>
     </g>
     <g id="text_2">
      <!-- −0.06 -->
      <g transform="translate(213.911492 548.638438) scale(0.1 -0.1)">
       <defs>
        <path id="DejaVuSans-36" d="M 2113 2584 
Q 1688 2584 1439 2293 
Q 1191 2003 1191 1497 
Q 1191 994 1439 701 
Q 1688 409 2113 409 
Q 2538 409 2786 701 
Q 3034 994 3034 1497 
Q 3034 2003 2786 2293 
Q 2538 2584 2113 2584 
z
M 3366 4563 
L 3366 3988 
Q 3128 4100 2886 4159 
Q 2644 4219 2406 4219 
Q 1781 4219 1451 3797 
Q 1122 3375 1075 2522 
Q 1259 2794 1537 2939 
Q 1816 3084 2150 3084 
Q 2853 3084 3261 2657 
Q 3669 2231 3669 1497 
Q 3669 778 3244 343 
Q 2819 -91 2113 -91 
Q 1303 -91 875 529 
Q 447 1150 447 2328 
Q 447 3434 972 4092 
Q 1497 4750 2381 4750 
Q 2619 4750 2861 4703 
Q 3103 4656 3366 4563 
z
" transform="scale(0.015625)"/>
       </defs>
       <use xlink:href="#DejaVuSans-2212"/>
       <use xlink:href="#DejaVuSans-30" x="83.789062"/>
       <use xlink:href="#DejaVuSans-2e" x="147.412109"/>
       <use xlink:href="#DejaVuSans-30" x="179.199219"/>
       <use xlink:href="#DejaVuSans-36" x="242.822266"/>
      </g>
     </g>
    </g>
    <g id="xtick_3">
     <g id="line2d_6">
      <path d="M 283.198058 534.04 
L 283.198058 10.8 
" clip-path="url(#pc83852bbe4)" style="fill: none; stroke-dasharray: 2.96,1.28; stroke-dashoffset: 0; stroke: #808080; stroke-opacity: 0.3; stroke-width: 0.8"/>
     </g>
     <g id="line2d_7">
      <g>
       <use xlink:href="#m5e6c3342da" x="283.198058" y="534.04" style="stroke: #000000; stroke-width: 0.8"/>
      </g>
     </g>
     <g id="text_3">
      <!-- −0.04 -->
      <g transform="translate(267.875402 548.638438) scale(0.1 -0.1)">
       <defs>
        <path id="DejaVuSans-34" d="M 2419 4116 
L 825 1625 
L 2419 1625 
L 2419 4116 
z
M 2253 4666 
L 3047 4666 
L 3047 1625 
L 3713 1625 
L 3713 1100 
L 3047 1100 
L 3047 0 
L 2419 0 
L 2419 1100 
L 313 1100 
L 313 1709 
L 2253 4666 
z
" transform="scale(0.015625)"/>
       </defs>
       <use xlink:href="#DejaVuSans-2212"/>
       <use xlink:href="#DejaVuSans-30" x="83.789062"/>
       <use xlink:href="#DejaVuSans-2e" x="147.412109"/>
       <use xlink:href="#DejaVuSans-30" x="179.199219"/>
       <use xlink:href="#DejaVuSans-34" x="242.822266"/>
      </g>
     </g>
    </g>
    <g id="xtick_4">
     <g id="line2d_8">
      <path d="M 337.161968 534.04 
L 337.161968 10.8 
" clip-path="url(#pc83852bbe4)" style="fill: none; stroke-dasharray: 2.96,1.28; stroke-dashoffset: 0; stroke: #808080; stroke-opacity: 0.3; stroke-width: 0.8"/>
     </g>
     <g id="line2d_9">
      <g>
       <use xlink:href="#m5e6c3342da" x="337.161968" y="534.04" style="stroke: #000000; stroke-width: 0.8"/>
      </g>
     </g>
     <g id="text_4">
      <!-- −0.02 -->
      <g transform="translate(321.839312 548.638438) scale(0.1 -0.1)">
       <defs>
        <path id="DejaVuSans-32" d="M 1228 531 
L 3431 531 
L 3431 0 
L 469 0 
L 469 531 
Q 828 903 1448 1529 
Q 2069 2156 2228 2338 
Q 2531 2678 2651 2914 
Q 2772 3150 2772 3378 
Q 2772 3750 2511 3984 
Q 2250 4219 1831 4219 
Q 1534 4219 1204 4116 
Q 875 4013 500 3803 
L 500 4441 
Q 881 4594 1212 4672 
Q 1544 4750 1819 4750 
Q 2544 4750 2975 4387 
Q 3406 4025 3406 3419 
Q 3406 3131 3298 2873 
Q 3191 2616 2906 2266 
Q 2828 2175 2409 1742 
Q 1991 1309 1228 531 
z
" transform="scale(0.015625)"/>
       </defs>
       <use xlink:href="#DejaVuSans-2212"/>
       <use xlink:href="#DejaVuSans-30" x="83.789062"/>
       <use xlink:href="#DejaVuSans-2e" x="147.412109"/>
       <use xlink:href="#DejaVuSans-30" x="179.199219"/>
       <use xlink:href="#DejaVuSans-32" x="242.822266"/>
      </g>
     </g>
    </g>
    <g id="xtick_5">
     <g id="line2d_10">
      <path d="M 391.125878 534.04 
L 391.125878 10.8 
" clip-path="url(#pc83852bbe4)" style="fill: none; stroke-dasharray: 2.96,1.28; stroke-dashoffset: 0; stroke: #808080; stroke-opacity: 0.3; stroke-width: 0.8"/>
     </g>
     <g id="line2d_11">
      <g>
       <use xlink:href="#m5e6c3342da" x="391.125878" y="534.04" style="stroke: #000000; stroke-width: 0.8"/>
      </g>
     </g>
     <g id="text_5">
      <!-- 0.00 -->
      <g transform="translate(379.993065 548.638438) scale(0.1 -0.1)">
       <use xlink:href="#DejaVuSans-30"/>
       <use xlink:href="#DejaVuSans-2e" x="63.623047"/>
       <use xlink:href="#DejaVuSans-30" x="95.410156"/>
       <use xlink:href="#DejaVuSans-30" x="159.033203"/>
      </g>
     </g>
    </g>
    <g id="xtick_6">
     <g id="line2d_12">
      <path d="M 445.089788 534.04 
L 445.089788 10.8 
" clip-path="url(#pc83852bbe4)" style="fill: none; stroke-dasharray: 2.96,1.28; stroke-dashoffset: 0; stroke: #808080; stroke-opacity: 0.3; stroke-width: 0.8"/>
     </g>
     <g id="line2d_13">
      <g>
       <use xlink:href="#m5e6c3342da" x="445.089788" y="534.04" style="stroke: #000000; stroke-width: 0.8"/>
      </g>
     </g>
     <g id="text_6">
      <!-- 0.02 -->
      <g transform="translate(433.956975 548.638438) scale(0.1 -0.1)">
       <use xlink:href="#DejaVuSans-30"/>
       <use xlink:href="#DejaVuSans-2e" x="63.623047"/>
       <use xlink:href="#DejaVuSans-30" x="95.410156"/>
       <use xlink:href="#DejaVuSans-32" x="159.033203"/>
      </g>
     </g>
    </g>
    <g id="xtick_7">
     <g id="line2d_14">
      <path d="M 499.053697 534.04 
L 499.053697 10.8 
" clip-path="url(#pc83852bbe4)" style="fill: none; stroke-dasharray: 2.96,1.28; stroke-dashoffset: 0; stroke: #808080; stroke-opacity: 0.3; stroke-width: 0.8"/>
     </g>
     <g id="line2d_15">
      <g>
       <use xlink:href="#m5e6c3342da" x="499.053697" y="534.04" style="stroke: #000000; stroke-width: 0.8"/>
      </g>
     </g>
     <g id="text_7">
      <!-- 0.04 -->
      <g transform="translate(487.920885 548.638438) scale(0.1 -0.1)">
       <use xlink:href="#DejaVuSans-30"/>
       <use xlink:href="#DejaVuSans-2e" x="63.623047"/>
       <use xlink:href="#DejaVuSans-30" x="95.410156"/>
       <use xlink:href="#DejaVuSans-34" x="159.033203"/>
      </g>
     </g>
    </g>
    <g id="xtick_8">
     <g id="line2d_16">
      <path d="M 553.017607 534.04 
L 553.017607 10.8 
" clip-path="url(#pc83852bbe4)" style="fill: none; stroke-dasharray: 2.96,1.28; stroke-dashoffset: 0; stroke: #808080; stroke-opacity: 0.3; stroke-width: 0.8"/>
     </g>
     <g id="line2d_17">
      <g>
       <use xlink:href="#m5e6c3342da" x="553.017607" y="534.04" style="stroke: #000000; stroke-width: 0.8"/>
      </g>
     </g>
     <g id="text_8">
      <!-- 0.06 -->
      <g transform="translate(541.884795 548.638438) scale(0.1 -0.1)">
       <use xlink:href="#DejaVuSans-30"/>
       <use xlink:href="#DejaVuSans-2e" x="63.623047"/>
       <use xlink:href="#DejaVuSans-30" x="95.410156"/>
       <use xlink:href="#DejaVuSans-36" x="159.033203"/>
      </g>
     </g>
    </g>
    <g id="text_9">
     <!-- Coefficient -->
     <g transform="translate(334.704531 562.316562) scale(0.1 -0.1)">
      <defs>
       <path id="DejaVuSans-43" d="M 4122 4306 
L 4122 3641 
Q 3803 3938 3442 4084 
Q 3081 4231 2675 4231 
Q 1875 4231 1450 3742 
Q 1025 3253 1025 2328 
Q 1025 1406 1450 917 
Q 1875 428 2675 428 
Q 3081 428 3442 575 
Q 3803 722 4122 1019 
L 4122 359 
Q 3791 134 3420 21 
Q 3050 -91 2638 -91 
Q 1578 -91 968 557 
Q 359 1206 359 2328 
Q 359 3453 968 4101 
Q 1578 4750 2638 4750 
Q 3056 4750 3426 4639 
Q 3797 4528 4122 4306 
z
" transform="scale(0.015625)"/>
       <path id="DejaVuSans-6f" d="M 1959 3097 
Q 1497 3097 1228 2736 
Q 959 2375 959 1747 
Q 959 1119 1226 758 
Q 1494 397 1959 397 
Q 2419 397 2687 759 
Q 2956 1122 2956 1747 
Q 2956 2369 2687 2733 
Q 2419 3097 1959 3097 
z
M 1959 3584 
Q 2709 3584 3137 3096 
Q 3566 2609 3566 1747 
Q 3566 888 3137 398 
Q 2709 -91 1959 -91 
Q 1206 -91 779 398 
Q 353 888 353 1747 
Q 353 2609 779 3096 
Q 1206 3584 1959 3584 
z
" transform="scale(0.015625)"/>
       <path id="DejaVuSans-65" d="M 3597 1894 
L 3597 1613 
L 953 1613 
Q 991 1019 1311 708 
Q 1631 397 2203 397 
Q 2534 397 2845 478 
Q 3156 559 3463 722 
L 3463 178 
Q 3153 47 2828 -22 
Q 2503 -91 2169 -91 
Q 1331 -91 842 396 
Q 353 884 353 1716 
Q 353 2575 817 3079 
Q 1281 3584 2069 3584 
Q 2775 3584 3186 3129 
Q 3597 2675 3597 1894 
z
M 3022 2063 
Q 3016 2534 2758 2815 
Q 2500 3097 2075 3097 
Q 1594 3097 1305 2825 
Q 1016 2553 972 2059 
L 3022 2063 
z
" transform="scale(0.015625)"/>
       <path id="DejaVuSans-66" d="M 2375 4863 
L 2375 4384 
L 1825 4384 
Q 1516 4384 1395 4259 
Q 1275 4134 1275 3809 
L 1275 3500 
L 2222 3500 
L 2222 3053 
L 1275 3053 
L 1275 0 
L 697 0 
L 697 3053 
L 147 3053 
L 147 3500 
L 697 3500 
L 697 3744 
Q 697 4328 969 4595 
Q 1241 4863 1831 4863 
L 2375 4863 
z
" transform="scale(0.015625)"/>
       <path id="DejaVuSans-69" d="M 603 3500 
L 1178 3500 
L 1178 0 
L 603 0 
L 603 3500 
z
M 603 4863 
L 1178 4863 
L 1178 4134 
L 603 4134 
L 603 4863 
z
" transform="scale(0.015625)"/>
       <path id="DejaVuSans-63" d="M 3122 3366 
L 3122 2828 
Q 2878 2963 2633 3030 
Q 2388 3097 2138 3097 
Q 1578 3097 1268 2742 
Q 959 2388 959 1747 
Q 959 1106 1268 751 
Q 1578 397 2138 397 
Q 2388 397 2633 464 
Q 2878 531 3122 666 
L 3122 134 
Q 2881 22 2623 -34 
Q 2366 -91 2075 -91 
Q 1284 -91 818 406 
Q 353 903 353 1747 
Q 353 2603 823 3093 
Q 1294 3584 2113 3584 
Q 2378 3584 2631 3529 
Q 2884 3475 3122 3366 
z
" transform="scale(0.015625)"/>
       <path id="DejaVuSans-6e" d="M 3513 2113 
L 3513 0 
L 2938 0 
L 2938 2094 
Q 2938 2591 2744 2837 
Q 2550 3084 2163 3084 
Q 1697 3084 1428 2787 
Q 1159 2491 1159 1978 
L 1159 0 
L 581 0 
L 581 3500 
L 1159 3500 
L 1159 2956 
Q 1366 3272 1645 3428 
Q 1925 3584 2291 3584 
Q 2894 3584 3203 3211 
Q 3513 2838 3513 2113 
z
" transform="scale(0.015625)"/>
       <path id="DejaVuSans-74" d="M 1172 4494 
L 1172 3500 
L 2356 3500 
L 2356 3053 
L 1172 3053 
L 1172 1153 
Q 1172 725 1289 603 
Q 1406 481 1766 481 
L 2356 481 
L 2356 0 
L 1766 0 
Q 1100 0 847 248 
Q 594 497 594 1153 
L 594 3053 
L 172 3053 
L 172 3500 
L 594 3500 
L 594 4494 
L 1172 4494 
z
" transform="scale(0.015625)"/>
      </defs>
      <use xlink:href="#DejaVuSans-43"/>
      <use xlink:href="#DejaVuSans-6f" x="69.824219"/>
      <use xlink:href="#DejaVuSans-65" x="131.005859"/>
      <use xlink:href="#DejaVuSans-66" x="192.529297"/>
      <use xlink:href="#DejaVuSans-66" x="227.734375"/>
      <use xlink:href="#DejaVuSans-69" x="262.939453"/>
      <use xlink:href="#DejaVuSans-63" x="290.722656"/>
      <use xlink:href="#DejaVuSans-69" x="345.703125"/>
      <use xlink:href="#DejaVuSans-65" x="373.486328"/>
      <use xlink:href="#DejaVuSans-6e" x="435.009766"/>
      <use xlink:href="#DejaVuSans-74" x="498.388672"/>
     </g>
    </g>
   </g>
   <g id="matplotlib.axis_2">
    <g id="ytick_1">
     <g id="line2d_18">
      <path d="M 157.97 501.911228 
L 565.2 501.911228 
" clip-path="url(#pc83852bbe4)" style="fill: none; stroke-dasharray: 2.96,1.28; stroke-dashoffset: 0; stroke: #808080; stroke-opacity: 0.3; stroke-width: 0.8"/>
     </g>
     <g id="line2d_19">
      <defs>
       <path id="ma495e39de9" d="M 0 0 
L -3.5 0 
" style="stroke: #000000; stroke-width: 0.8"/>
      </defs>
      <g>
       <use xlink:href="#ma495e39de9" x="157.97" y="501.911228" style="stroke: #000000; stroke-width: 0.8"/>
      </g>
     </g>
     <g id="text_10">
      <!-- BLOOD ALBUMIN -->
      <g transform="translate(66.62625 505.710447) scale(0.1 -0.1)">
       <defs>
        <path id="DejaVuSans-42" d="M 1259 2228 
L 1259 519 
L 2272 519 
Q 2781 519 3026 730 
Q 3272 941 3272 1375 
Q 3272 1813 3026 2020 
Q 2781 2228 2272 2228 
L 1259 2228 
z
M 1259 4147 
L 1259 2741 
L 2194 2741 
Q 2656 2741 2882 2914 
Q 3109 3088 3109 3444 
Q 3109 3797 2882 3972 
Q 2656 4147 2194 4147 
L 1259 4147 
z
M 628 4666 
L 2241 4666 
Q 2963 4666 3353 4366 
Q 3744 4066 3744 3513 
Q 3744 3084 3544 2831 
Q 3344 2578 2956 2516 
Q 3422 2416 3680 2098 
Q 3938 1781 3938 1306 
Q 3938 681 3513 340 
Q 3088 0 2303 0 
L 628 0 
L 628 4666 
z
" transform="scale(0.015625)"/>
        <path id="DejaVuSans-4c" d="M 628 4666 
L 1259 4666 
L 1259 531 
L 3531 531 
L 3531 0 
L 628 0 
L 628 4666 
z
" transform="scale(0.015625)"/>
        <path id="DejaVuSans-4f" d="M 2522 4238 
Q 1834 4238 1429 3725 
Q 1025 3213 1025 2328 
Q 1025 1447 1429 934 
Q 1834 422 2522 422 
Q 3209 422 3611 934 
Q 4013 1447 4013 2328 
Q 4013 3213 3611 3725 
Q 3209 4238 2522 4238 
z
M 2522 4750 
Q 3503 4750 4090 4092 
Q 4678 3434 4678 2328 
Q 4678 1225 4090 567 
Q 3503 -91 2522 -91 
Q 1538 -91 948 565 
Q 359 1222 359 2328 
Q 359 3434 948 4092 
Q 1538 4750 2522 4750 
z
" transform="scale(0.015625)"/>
        <path id="DejaVuSans-44" d="M 1259 4147 
L 1259 519 
L 2022 519 
Q 2988 519 3436 956 
Q 3884 1394 3884 2338 
Q 3884 3275 3436 3711 
Q 2988 4147 2022 4147 
L 1259 4147 
z
M 628 4666 
L 1925 4666 
Q 3281 4666 3915 4102 
Q 4550 3538 4550 2338 
Q 4550 1131 3912 565 
Q 3275 0 1925 0 
L 628 0 
L 628 4666 
z
" transform="scale(0.015625)"/>
        <path id="DejaVuSans-20" transform="scale(0.015625)"/>
        <path id="DejaVuSans-41" d="M 2188 4044 
L 1331 1722 
L 3047 1722 
L 2188 4044 
z
M 1831 4666 
L 2547 4666 
L 4325 0 
L 3669 0 
L 3244 1197 
L 1141 1197 
L 716 0 
L 50 0 
L 1831 4666 
z
" transform="scale(0.015625)"/>
        <path id="DejaVuSans-55" d="M 556 4666 
L 1191 4666 
L 1191 1831 
Q 1191 1081 1462 751 
Q 1734 422 2344 422 
Q 2950 422 3222 751 
Q 3494 1081 3494 1831 
L 3494 4666 
L 4128 4666 
L 4128 1753 
Q 4128 841 3676 375 
Q 3225 -91 2344 -91 
Q 1459 -91 1007 375 
Q 556 841 556 1753 
L 556 4666 
z
" transform="scale(0.015625)"/>
        <path id="DejaVuSans-4d" d="M 628 4666 
L 1569 4666 
L 2759 1491 
L 3956 4666 
L 4897 4666 
L 4897 0 
L 4281 0 
L 4281 4097 
L 3078 897 
L 2444 897 
L 1241 4097 
L 1241 0 
L 628 0 
L 628 4666 
z
" transform="scale(0.015625)"/>
        <path id="DejaVuSans-49" d="M 628 4666 
L 1259 4666 
L 1259 0 
L 628 0 
L 628 4666 
z
" transform="scale(0.015625)"/>
        <path id="DejaVuSans-4e" d="M 628 4666 
L 1478 4666 
L 3547 763 
L 3547 4666 
L 4159 4666 
L 4159 0 
L 3309 0 
L 1241 3903 
L 1241 0 
L 628 0 
L 628 4666 
z
" transform="scale(0.015625)"/>
       </defs>
       <use xlink:href="#DejaVuSans-42"/>
       <use xlink:href="#DejaVuSans-4c" x="68.603516"/>
       <use xlink:href="#DejaVuSans-4f" x="120.691406"/>
       <use xlink:href="#DejaVuSans-4f" x="199.402344"/>
       <use xlink:href="#DejaVuSans-44" x="278.113281"/>
       <use xlink:href="#DejaVuSans-20" x="355.115234"/>
       <use xlink:href="#DejaVuSans-41" x="386.902344"/>
       <use xlink:href="#DejaVuSans-4c" x="455.310547"/>
       <use xlink:href="#DejaVuSans-42" x="511.023438"/>
       <use xlink:href="#DejaVuSans-55" x="579.626953"/>
       <use xlink:href="#DejaVuSans-4d" x="652.820312"/>
       <use xlink:href="#DejaVuSans-49" x="739.099609"/>
       <use xlink:href="#DejaVuSans-4e" x="768.591797"/>
      </g>
     </g>
    </g>
    <g id="ytick_2">
     <g id="line2d_20">
      <path d="M 157.97 460.18555 
L 565.2 460.18555 
" clip-path="url(#pc83852bbe4)" style="fill: none; stroke-dasharray: 2.96,1.28; stroke-dashoffset: 0; stroke: #808080; stroke-opacity: 0.3; stroke-width: 0.8"/>
     </g>
     <g id="line2d_21">
      <g>
       <use xlink:href="#ma495e39de9" x="157.97" y="460.18555" style="stroke: #000000; stroke-width: 0.8"/>
      </g>
     </g>
     <g id="text_11">
      <!-- BLOOD -->
      <g transform="translate(115.455938 459.145706) scale(0.1 -0.1)">
       <use xlink:href="#DejaVuSans-42"/>
       <use xlink:href="#DejaVuSans-4c" x="68.603516"/>
       <use xlink:href="#DejaVuSans-4f" x="120.691406"/>
       <use xlink:href="#DejaVuSans-4f" x="199.402344"/>
       <use xlink:href="#DejaVuSans-44" x="278.113281"/>
      </g>
      <!-- BETA CRYPTOXANTHINE -->
      <g transform="translate(32.115312 470.343519) scale(0.1 -0.1)">
       <defs>
        <path id="DejaVuSans-45" d="M 628 4666 
L 3578 4666 
L 3578 4134 
L 1259 4134 
L 1259 2753 
L 3481 2753 
L 3481 2222 
L 1259 2222 
L 1259 531 
L 3634 531 
L 3634 0 
L 628 0 
L 628 4666 
z
" transform="scale(0.015625)"/>
        <path id="DejaVuSans-54" d="M -19 4666 
L 3928 4666 
L 3928 4134 
L 2272 4134 
L 2272 0 
L 1638 0 
L 1638 4134 
L -19 4134 
L -19 4666 
z
" transform="scale(0.015625)"/>
        <path id="DejaVuSans-52" d="M 2841 2188 
Q 3044 2119 3236 1894 
Q 3428 1669 3622 1275 
L 4263 0 
L 3584 0 
L 2988 1197 
Q 2756 1666 2539 1819 
Q 2322 1972 1947 1972 
L 1259 1972 
L 1259 0 
L 628 0 
L 628 4666 
L 2053 4666 
Q 2853 4666 3247 4331 
Q 3641 3997 3641 3322 
Q 3641 2881 3436 2590 
Q 3231 2300 2841 2188 
z
M 1259 4147 
L 1259 2491 
L 2053 2491 
Q 2509 2491 2742 2702 
Q 2975 2913 2975 3322 
Q 2975 3731 2742 3939 
Q 2509 4147 2053 4147 
L 1259 4147 
z
" transform="scale(0.015625)"/>
        <path id="DejaVuSans-59" d="M -13 4666 
L 666 4666 
L 1959 2747 
L 3244 4666 
L 3922 4666 
L 2272 2222 
L 2272 0 
L 1638 0 
L 1638 2222 
L -13 4666 
z
" transform="scale(0.015625)"/>
        <path id="DejaVuSans-50" d="M 1259 4147 
L 1259 2394 
L 2053 2394 
Q 2494 2394 2734 2622 
Q 2975 2850 2975 3272 
Q 2975 3691 2734 3919 
Q 2494 4147 2053 4147 
L 1259 4147 
z
M 628 4666 
L 2053 4666 
Q 2838 4666 3239 4311 
Q 3641 3956 3641 3272 
Q 3641 2581 3239 2228 
Q 2838 1875 2053 1875 
L 1259 1875 
L 1259 0 
L 628 0 
L 628 4666 
z
" transform="scale(0.015625)"/>
        <path id="DejaVuSans-58" d="M 403 4666 
L 1081 4666 
L 2241 2931 
L 3406 4666 
L 4084 4666 
L 2584 2425 
L 4184 0 
L 3506 0 
L 2194 1984 
L 872 0 
L 191 0 
L 1856 2491 
L 403 4666 
z
" transform="scale(0.015625)"/>
        <path id="DejaVuSans-48" d="M 628 4666 
L 1259 4666 
L 1259 2753 
L 3553 2753 
L 3553 4666 
L 4184 4666 
L 4184 0 
L 3553 0 
L 3553 2222 
L 1259 2222 
L 1259 0 
L 628 0 
L 628 4666 
z
" transform="scale(0.015625)"/>
       </defs>
       <use xlink:href="#DejaVuSans-42"/>
       <use xlink:href="#DejaVuSans-45" x="68.603516"/>
       <use xlink:href="#DejaVuSans-54" x="131.787109"/>
       <use xlink:href="#DejaVuSans-41" x="185.121094"/>
       <use xlink:href="#DejaVuSans-20" x="253.529297"/>
       <use xlink:href="#DejaVuSans-43" x="285.316406"/>
       <use xlink:href="#DejaVuSans-52" x="355.140625"/>
       <use xlink:href="#DejaVuSans-59" x="418.248047"/>
       <use xlink:href="#DejaVuSans-50" x="479.332031"/>
       <use xlink:href="#DejaVuSans-54" x="539.634766"/>
       <use xlink:href="#DejaVuSans-4f" x="600.71875"/>
       <use xlink:href="#DejaVuSans-58" x="673.054688"/>
       <use xlink:href="#DejaVuSans-41" x="741.560547"/>
       <use xlink:href="#DejaVuSans-4e" x="809.96875"/>
       <use xlink:href="#DejaVuSans-54" x="884.773438"/>
       <use xlink:href="#DejaVuSans-48" x="945.857422"/>
       <use xlink:href="#DejaVuSans-49" x="1021.052734"/>
       <use xlink:href="#DejaVuSans-4e" x="1050.544922"/>
       <use xlink:href="#DejaVuSans-45" x="1125.349609"/>
      </g>
     </g>
    </g>
    <g id="ytick_3">
     <g id="line2d_22">
      <path d="M 157.97 418.459872 
L 565.2 418.459872 
" clip-path="url(#pc83852bbe4)" style="fill: none; stroke-dasharray: 2.96,1.28; stroke-dashoffset: 0; stroke: #808080; stroke-opacity: 0.3; stroke-width: 0.8"/>
     </g>
     <g id="line2d_23">
      <g>
       <use xlink:href="#ma495e39de9" x="157.97" y="418.459872" style="stroke: #000000; stroke-width: 0.8"/>
      </g>
     </g>
     <g id="text_12">
      <!-- BLOOD HBA2 -->
      <g transform="translate(84.693438 422.259091) scale(0.1 -0.1)">
       <use xlink:href="#DejaVuSans-42"/>
       <use xlink:href="#DejaVuSans-4c" x="68.603516"/>
       <use xlink:href="#DejaVuSans-4f" x="120.691406"/>
       <use xlink:href="#DejaVuSans-4f" x="199.402344"/>
       <use xlink:href="#DejaVuSans-44" x="278.113281"/>
       <use xlink:href="#DejaVuSans-20" x="355.115234"/>
       <use xlink:href="#DejaVuSans-48" x="386.902344"/>
       <use xlink:href="#DejaVuSans-42" x="462.097656"/>
       <use xlink:href="#DejaVuSans-41" x="530.701172"/>
       <use xlink:href="#DejaVuSans-32" x="599.109375"/>
      </g>
     </g>
    </g>
    <g id="ytick_4">
     <g id="line2d_24">
      <path d="M 157.97 376.734195 
L 565.2 376.734195 
" clip-path="url(#pc83852bbe4)" style="fill: none; stroke-dasharray: 2.96,1.28; stroke-dashoffset: 0; stroke: #808080; stroke-opacity: 0.3; stroke-width: 0.8"/>
     </g>
     <g id="line2d_25">
      <g>
       <use xlink:href="#ma495e39de9" x="157.97" y="376.734195" style="stroke: #000000; stroke-width: 0.8"/>
      </g>
     </g>
     <g id="text_13">
      <!-- BLOOD -->
      <g transform="translate(115.455938 375.694351) scale(0.1 -0.1)">
       <use xlink:href="#DejaVuSans-42"/>
       <use xlink:href="#DejaVuSans-4c" x="68.603516"/>
       <use xlink:href="#DejaVuSans-4f" x="120.691406"/>
       <use xlink:href="#DejaVuSans-4f" x="199.402344"/>
       <use xlink:href="#DejaVuSans-44" x="278.113281"/>
      </g>
      <!-- HIGHSENS TNT -->
      <g transform="translate(75.859062 386.892163) scale(0.1 -0.1)">
       <defs>
        <path id="DejaVuSans-47" d="M 3809 666 
L 3809 1919 
L 2778 1919 
L 2778 2438 
L 4434 2438 
L 4434 434 
Q 4069 175 3628 42 
Q 3188 -91 2688 -91 
Q 1594 -91 976 548 
Q 359 1188 359 2328 
Q 359 3472 976 4111 
Q 1594 4750 2688 4750 
Q 3144 4750 3555 4637 
Q 3966 4525 4313 4306 
L 4313 3634 
Q 3963 3931 3569 4081 
Q 3175 4231 2741 4231 
Q 1884 4231 1454 3753 
Q 1025 3275 1025 2328 
Q 1025 1384 1454 906 
Q 1884 428 2741 428 
Q 3075 428 3337 486 
Q 3600 544 3809 666 
z
" transform="scale(0.015625)"/>
        <path id="DejaVuSans-53" d="M 3425 4513 
L 3425 3897 
Q 3066 4069 2747 4153 
Q 2428 4238 2131 4238 
Q 1616 4238 1336 4038 
Q 1056 3838 1056 3469 
Q 1056 3159 1242 3001 
Q 1428 2844 1947 2747 
L 2328 2669 
Q 3034 2534 3370 2195 
Q 3706 1856 3706 1288 
Q 3706 609 3251 259 
Q 2797 -91 1919 -91 
Q 1588 -91 1214 -16 
Q 841 59 441 206 
L 441 856 
Q 825 641 1194 531 
Q 1563 422 1919 422 
Q 2459 422 2753 634 
Q 3047 847 3047 1241 
Q 3047 1584 2836 1778 
Q 2625 1972 2144 2069 
L 1759 2144 
Q 1053 2284 737 2584 
Q 422 2884 422 3419 
Q 422 4038 858 4394 
Q 1294 4750 2059 4750 
Q 2388 4750 2728 4690 
Q 3069 4631 3425 4513 
z
" transform="scale(0.015625)"/>
       </defs>
       <use xlink:href="#DejaVuSans-48"/>
       <use xlink:href="#DejaVuSans-49" x="75.195312"/>
       <use xlink:href="#DejaVuSans-47" x="104.6875"/>
       <use xlink:href="#DejaVuSans-48" x="182.177734"/>
       <use xlink:href="#DejaVuSans-53" x="257.373047"/>
       <use xlink:href="#DejaVuSans-45" x="320.849609"/>
       <use xlink:href="#DejaVuSans-4e" x="384.033203"/>
       <use xlink:href="#DejaVuSans-53" x="458.837891"/>
       <use xlink:href="#DejaVuSans-20" x="522.314453"/>
       <use xlink:href="#DejaVuSans-54" x="554.101562"/>
       <use xlink:href="#DejaVuSans-4e" x="615.185547"/>
       <use xlink:href="#DejaVuSans-54" x="689.990234"/>
      </g>
     </g>
    </g>
    <g id="ytick_5">
     <g id="line2d_26">
      <path d="M 157.97 335.008517 
L 565.2 335.008517 
" clip-path="url(#pc83852bbe4)" style="fill: none; stroke-dasharray: 2.96,1.28; stroke-dashoffset: 0; stroke: #808080; stroke-opacity: 0.3; stroke-width: 0.8"/>
     </g>
     <g id="line2d_27">
      <g>
       <use xlink:href="#ma495e39de9" x="157.97" y="335.008517" style="stroke: #000000; stroke-width: 0.8"/>
      </g>
     </g>
     <g id="text_14">
      <!-- BLOOD -->
      <g transform="translate(115.455938 333.968673) scale(0.1 -0.1)">
       <use xlink:href="#DejaVuSans-42"/>
       <use xlink:href="#DejaVuSans-4c" x="68.603516"/>
       <use xlink:href="#DejaVuSans-4f" x="120.691406"/>
       <use xlink:href="#DejaVuSans-4f" x="199.402344"/>
       <use xlink:href="#DejaVuSans-44" x="278.113281"/>
      </g>
      <!-- ICAM 1 -->
      <g transform="translate(116.027812 345.166485) scale(0.1 -0.1)">
       <defs>
        <path id="DejaVuSans-31" d="M 794 531 
L 1825 531 
L 1825 4091 
L 703 3866 
L 703 4441 
L 1819 4666 
L 2450 4666 
L 2450 531 
L 3481 531 
L 3481 0 
L 794 0 
L 794 531 
z
" transform="scale(0.015625)"/>
       </defs>
       <use xlink:href="#DejaVuSans-49"/>
       <use xlink:href="#DejaVuSans-43" x="29.492188"/>
       <use xlink:href="#DejaVuSans-41" x="99.316406"/>
       <use xlink:href="#DejaVuSans-4d" x="167.724609"/>
       <use xlink:href="#DejaVuSans-20" x="254.003906"/>
       <use xlink:href="#DejaVuSans-31" x="285.791016"/>
      </g>
     </g>
    </g>
    <g id="ytick_6">
     <g id="line2d_28">
      <path d="M 157.97 293.282839 
L 565.2 293.282839 
" clip-path="url(#pc83852bbe4)" style="fill: none; stroke-dasharray: 2.96,1.28; stroke-dashoffset: 0; stroke: #808080; stroke-opacity: 0.3; stroke-width: 0.8"/>
     </g>
     <g id="line2d_29">
      <g>
       <use xlink:href="#ma495e39de9" x="157.97" y="293.282839" style="stroke: #000000; stroke-width: 0.8"/>
      </g>
     </g>
     <g id="text_15">
      <!-- BLOOD IRON -->
      <g transform="translate(87.02625 297.082058) scale(0.1 -0.1)">
       <use xlink:href="#DejaVuSans-42"/>
       <use xlink:href="#DejaVuSans-4c" x="68.603516"/>
       <use xlink:href="#DejaVuSans-4f" x="120.691406"/>
       <use xlink:href="#DejaVuSans-4f" x="199.402344"/>
       <use xlink:href="#DejaVuSans-44" x="278.113281"/>
       <use xlink:href="#DejaVuSans-20" x="355.115234"/>
       <use xlink:href="#DejaVuSans-49" x="386.902344"/>
       <use xlink:href="#DejaVuSans-52" x="416.394531"/>
       <use xlink:href="#DejaVuSans-4f" x="485.876953"/>
       <use xlink:href="#DejaVuSans-4e" x="564.587891"/>
      </g>
     </g>
    </g>
    <g id="ytick_7">
     <g id="line2d_30">
      <path d="M 157.97 251.557161 
L 565.2 251.557161 
" clip-path="url(#pc83852bbe4)" style="fill: none; stroke-dasharray: 2.96,1.28; stroke-dashoffset: 0; stroke: #808080; stroke-opacity: 0.3; stroke-width: 0.8"/>
     </g>
     <g id="line2d_31">
      <g>
       <use xlink:href="#ma495e39de9" x="157.97" y="251.557161" style="stroke: #000000; stroke-width: 0.8"/>
      </g>
     </g>
     <g id="text_16">
      <!-- BLOOD LYMPH -->
      <g transform="translate(79.745 255.35638) scale(0.1 -0.1)">
       <use xlink:href="#DejaVuSans-42"/>
       <use xlink:href="#DejaVuSans-4c" x="68.603516"/>
       <use xlink:href="#DejaVuSans-4f" x="120.691406"/>
       <use xlink:href="#DejaVuSans-4f" x="199.402344"/>
       <use xlink:href="#DejaVuSans-44" x="278.113281"/>
       <use xlink:href="#DejaVuSans-20" x="355.115234"/>
       <use xlink:href="#DejaVuSans-4c" x="386.902344"/>
       <use xlink:href="#DejaVuSans-59" x="429.365234"/>
       <use xlink:href="#DejaVuSans-4d" x="490.449219"/>
       <use xlink:href="#DejaVuSans-50" x="576.728516"/>
       <use xlink:href="#DejaVuSans-48" x="637.03125"/>
      </g>
     </g>
    </g>
    <g id="ytick_8">
     <g id="line2d_32">
      <path d="M 157.97 209.831483 
L 565.2 209.831483 
" clip-path="url(#pc83852bbe4)" style="fill: none; stroke-dasharray: 2.96,1.28; stroke-dashoffset: 0; stroke: #808080; stroke-opacity: 0.3; stroke-width: 0.8"/>
     </g>
     <g id="line2d_33">
      <g>
       <use xlink:href="#ma495e39de9" x="157.97" y="209.831483" style="stroke: #000000; stroke-width: 0.8"/>
      </g>
     </g>
     <g id="text_17">
      <!-- BLOOD NEUT -->
      <g transform="translate(85.05125 213.630702) scale(0.1 -0.1)">
       <use xlink:href="#DejaVuSans-42"/>
       <use xlink:href="#DejaVuSans-4c" x="68.603516"/>
       <use xlink:href="#DejaVuSans-4f" x="120.691406"/>
       <use xlink:href="#DejaVuSans-4f" x="199.402344"/>
       <use xlink:href="#DejaVuSans-44" x="278.113281"/>
       <use xlink:href="#DejaVuSans-20" x="355.115234"/>
       <use xlink:href="#DejaVuSans-4e" x="386.902344"/>
       <use xlink:href="#DejaVuSans-45" x="461.707031"/>
       <use xlink:href="#DejaVuSans-55" x="524.890625"/>
       <use xlink:href="#DejaVuSans-54" x="598.083984"/>
      </g>
     </g>
    </g>
    <g id="ytick_9">
     <g id="line2d_34">
      <path d="M 157.97 168.105805 
L 565.2 168.105805 
" clip-path="url(#pc83852bbe4)" style="fill: none; stroke-dasharray: 2.96,1.28; stroke-dashoffset: 0; stroke: #808080; stroke-opacity: 0.3; stroke-width: 0.8"/>
     </g>
     <g id="line2d_35">
      <g>
       <use xlink:href="#ma495e39de9" x="157.97" y="168.105805" style="stroke: #000000; stroke-width: 0.8"/>
      </g>
     </g>
     <g id="text_18">
      <!-- BLOOD POTASSIUM -->
      <g transform="translate(54.609062 171.905024) scale(0.1 -0.1)">
       <use xlink:href="#DejaVuSans-42"/>
       <use xlink:href="#DejaVuSans-4c" x="68.603516"/>
       <use xlink:href="#DejaVuSans-4f" x="120.691406"/>
       <use xlink:href="#DejaVuSans-4f" x="199.402344"/>
       <use xlink:href="#DejaVuSans-44" x="278.113281"/>
       <use xlink:href="#DejaVuSans-20" x="355.115234"/>
       <use xlink:href="#DejaVuSans-50" x="386.902344"/>
       <use xlink:href="#DejaVuSans-4f" x="447.205078"/>
       <use xlink:href="#DejaVuSans-54" x="525.916016"/>
       <use xlink:href="#DejaVuSans-41" x="579.25"/>
       <use xlink:href="#DejaVuSans-53" x="647.658203"/>
       <use xlink:href="#DejaVuSans-53" x="711.134766"/>
       <use xlink:href="#DejaVuSans-49" x="774.611328"/>
       <use xlink:href="#DejaVuSans-55" x="804.103516"/>
       <use xlink:href="#DejaVuSans-4d" x="877.296875"/>
      </g>
     </g>
    </g>
    <g id="ytick_10">
     <g id="line2d_36">
      <path d="M 157.97 126.380128 
L 565.2 126.380128 
" clip-path="url(#pc83852bbe4)" style="fill: none; stroke-dasharray: 2.96,1.28; stroke-dashoffset: 0; stroke: #808080; stroke-opacity: 0.3; stroke-width: 0.8"/>
     </g>
     <g id="line2d_37">
      <g>
       <use xlink:href="#ma495e39de9" x="157.97" y="126.380128" style="stroke: #000000; stroke-width: 0.8"/>
      </g>
     </g>
     <g id="text_19">
      <!-- CIRCULATION -->
      <g transform="translate(84.01375 130.179346) scale(0.1 -0.1)">
       <use xlink:href="#DejaVuSans-43"/>
       <use xlink:href="#DejaVuSans-49" x="69.824219"/>
       <use xlink:href="#DejaVuSans-52" x="99.316406"/>
       <use xlink:href="#DejaVuSans-43" x="163.798828"/>
       <use xlink:href="#DejaVuSans-55" x="233.623047"/>
       <use xlink:href="#DejaVuSans-4c" x="306.816406"/>
       <use xlink:href="#DejaVuSans-41" x="364.779297"/>
       <use xlink:href="#DejaVuSans-54" x="425.4375"/>
       <use xlink:href="#DejaVuSans-49" x="486.521484"/>
       <use xlink:href="#DejaVuSans-4f" x="516.013672"/>
       <use xlink:href="#DejaVuSans-4e" x="594.724609"/>
      </g>
     </g>
    </g>
    <g id="ytick_11">
     <g id="line2d_38">
      <path d="M 157.97 84.65445 
L 565.2 84.65445 
" clip-path="url(#pc83852bbe4)" style="fill: none; stroke-dasharray: 2.96,1.28; stroke-dashoffset: 0; stroke: #808080; stroke-opacity: 0.3; stroke-width: 0.8"/>
     </g>
     <g id="line2d_39">
      <g>
       <use xlink:href="#ma495e39de9" x="157.97" y="84.65445" style="stroke: #000000; stroke-width: 0.8"/>
      </g>
     </g>
     <g id="text_20">
      <!-- DIABETES -->
      <g transform="translate(101.524687 88.453669) scale(0.1 -0.1)">
       <use xlink:href="#DejaVuSans-44"/>
       <use xlink:href="#DejaVuSans-49" x="77.001953"/>
       <use xlink:href="#DejaVuSans-41" x="106.494141"/>
       <use xlink:href="#DejaVuSans-42" x="174.902344"/>
       <use xlink:href="#DejaVuSans-45" x="243.505859"/>
       <use xlink:href="#DejaVuSans-54" x="306.689453"/>
       <use xlink:href="#DejaVuSans-45" x="367.773438"/>
       <use xlink:href="#DejaVuSans-53" x="430.957031"/>
      </g>
     </g>
    </g>
    <g id="ytick_12">
     <g id="line2d_40">
      <path d="M 157.97 42.928772 
L 565.2 42.928772 
" clip-path="url(#pc83852bbe4)" style="fill: none; stroke-dasharray: 2.96,1.28; stroke-dashoffset: 0; stroke: #808080; stroke-opacity: 0.3; stroke-width: 0.8"/>
     </g>
     <g id="line2d_41">
      <g>
       <use xlink:href="#ma495e39de9" x="157.97" y="42.928772" style="stroke: #000000; stroke-width: 0.8"/>
      </g>
     </g>
     <g id="text_21">
      <!-- URINARY MICROALBUMIN -->
      <g transform="translate(24.97625 46.727991) scale(0.1 -0.1)">
       <use xlink:href="#DejaVuSans-55"/>
       <use xlink:href="#DejaVuSans-52" x="73.193359"/>
       <use xlink:href="#DejaVuSans-49" x="142.675781"/>
       <use xlink:href="#DejaVuSans-4e" x="172.167969"/>
       <use xlink:href="#DejaVuSans-41" x="246.972656"/>
       <use xlink:href="#DejaVuSans-52" x="315.380859"/>
       <use xlink:href="#DejaVuSans-59" x="378.488281"/>
       <use xlink:href="#DejaVuSans-20" x="439.572266"/>
       <use xlink:href="#DejaVuSans-4d" x="471.359375"/>
       <use xlink:href="#DejaVuSans-49" x="557.638672"/>
       <use xlink:href="#DejaVuSans-43" x="587.130859"/>
       <use xlink:href="#DejaVuSans-52" x="656.955078"/>
       <use xlink:href="#DejaVuSans-4f" x="726.4375"/>
       <use xlink:href="#DejaVuSans-41" x="803.398438"/>
       <use xlink:href="#DejaVuSans-4c" x="871.806641"/>
       <use xlink:href="#DejaVuSans-42" x="927.519531"/>
       <use xlink:href="#DejaVuSans-55" x="996.123047"/>
       <use xlink:href="#DejaVuSans-4d" x="1069.316406"/>
       <use xlink:href="#DejaVuSans-49" x="1155.595703"/>
       <use xlink:href="#DejaVuSans-4e" x="1185.087891"/>
      </g>
     </g>
    </g>
    <g id="text_22">
     <!-- Marker -->
     <g transform="translate(18.896562 289.699688) rotate(-90) scale(0.1 -0.1)">
      <defs>
       <path id="DejaVuSans-61" d="M 2194 1759 
Q 1497 1759 1228 1600 
Q 959 1441 959 1056 
Q 959 750 1161 570 
Q 1363 391 1709 391 
Q 2188 391 2477 730 
Q 2766 1069 2766 1631 
L 2766 1759 
L 2194 1759 
z
M 3341 1997 
L 3341 0 
L 2766 0 
L 2766 531 
Q 2569 213 2275 61 
Q 1981 -91 1556 -91 
Q 1019 -91 701 211 
Q 384 513 384 1019 
Q 384 1609 779 1909 
Q 1175 2209 1959 2209 
L 2766 2209 
L 2766 2266 
Q 2766 2663 2505 2880 
Q 2244 3097 1772 3097 
Q 1472 3097 1187 3025 
Q 903 2953 641 2809 
L 641 3341 
Q 956 3463 1253 3523 
Q 1550 3584 1831 3584 
Q 2591 3584 2966 3190 
Q 3341 2797 3341 1997 
z
" transform="scale(0.015625)"/>
       <path id="DejaVuSans-72" d="M 2631 2963 
Q 2534 3019 2420 3045 
Q 2306 3072 2169 3072 
Q 1681 3072 1420 2755 
Q 1159 2438 1159 1844 
L 1159 0 
L 581 0 
L 581 3500 
L 1159 3500 
L 1159 2956 
Q 1341 3275 1631 3429 
Q 1922 3584 2338 3584 
Q 2397 3584 2469 3576 
Q 2541 3569 2628 3553 
L 2631 2963 
z
" transform="scale(0.015625)"/>
       <path id="DejaVuSans-6b" d="M 581 4863 
L 1159 4863 
L 1159 1991 
L 2875 3500 
L 3609 3500 
L 1753 1863 
L 3688 0 
L 2938 0 
L 1159 1709 
L 1159 0 
L 581 0 
L 581 4863 
z
" transform="scale(0.015625)"/>
      </defs>
      <use xlink:href="#DejaVuSans-4d"/>
      <use xlink:href="#DejaVuSans-61" x="86.279297"/>
      <use xlink:href="#DejaVuSans-72" x="147.558594"/>
      <use xlink:href="#DejaVuSans-6b" x="188.671875"/>
      <use xlink:href="#DejaVuSans-65" x="242.957031"/>
      <use xlink:href="#DejaVuSans-72" x="304.480469"/>
     </g>
    </g>
   </g>
   <g id="line2d_42">
    <path d="M 306.854053 510.256364 
L 387.84222 510.256364 
" clip-path="url(#pc83852bbe4)" style="fill: none; stroke: #808080; stroke-opacity: 0.5; stroke-width: 1.5; stroke-linecap: square"/>
   </g>
   <g id="line2d_43">
    <path d="M 406.914378 468.530686 
L 475.675591 468.530686 
" clip-path="url(#pc83852bbe4)" style="fill: none; stroke: #808080; stroke-opacity: 0.5; stroke-width: 1.5; stroke-linecap: square"/>
   </g>
   <g id="line2d_44">
    <path d="M 334.601317 426.805008 
L 389.539926 426.805008 
" clip-path="url(#pc83852bbe4)" style="fill: none; stroke: #808080; stroke-opacity: 0.5; stroke-width: 1.5; stroke-linecap: square"/>
   </g>
   <g id="line2d_45">
    <path d="M 176.480455 385.07933 
L 362.052829 385.07933 
" clip-path="url(#pc83852bbe4)" style="fill: none; stroke: #808080; stroke-opacity: 0.5; stroke-width: 1.5; stroke-linecap: square"/>
   </g>
   <g id="line2d_46">
    <path d="M 348.488073 259.902297 
L 385.37934 259.902297 
" clip-path="url(#pc83852bbe4)" style="fill: none; stroke: #808080; stroke-opacity: 0.5; stroke-width: 1.5; stroke-linecap: square"/>
   </g>
   <g id="line2d_47">
    <path d="M 391.552994 218.176619 
L 431.40144 218.176619 
" clip-path="url(#pc83852bbe4)" style="fill: none; stroke: #808080; stroke-opacity: 0.5; stroke-width: 1.5; stroke-linecap: square"/>
   </g>
   <g id="line2d_48">
    <path d="M 395.84716 176.450941 
L 459.503076 176.450941 
" clip-path="url(#pc83852bbe4)" style="fill: none; stroke: #808080; stroke-opacity: 0.5; stroke-width: 1.5; stroke-linecap: square"/>
   </g>
   <g id="line2d_49">
    <path d="M 394.289408 134.725263 
L 435.402427 134.725263 
" clip-path="url(#pc83852bbe4)" style="fill: none; stroke: #808080; stroke-opacity: 0.5; stroke-width: 1.5; stroke-linecap: square"/>
   </g>
   <g id="line2d_50">
    <path d="M 378.409397 92.999585 
L 390.955961 92.999585 
" clip-path="url(#pc83852bbe4)" style="fill: none; stroke: #808080; stroke-opacity: 0.5; stroke-width: 1.5; stroke-linecap: square"/>
   </g>
   <g id="line2d_51">
    <path d="M 277.058064 501.911228 
L 362.880018 501.911228 
" clip-path="url(#pc83852bbe4)" style="fill: none; stroke: #808080; stroke-opacity: 0.5; stroke-width: 1.5; stroke-linecap: square"/>
   </g>
   <g id="line2d_52">
    <path d="M 401.867542 460.18555 
L 470.287903 460.18555 
" clip-path="url(#pc83852bbe4)" style="fill: none; stroke: #808080; stroke-opacity: 0.5; stroke-width: 1.5; stroke-linecap: square"/>
   </g>
   <g id="line2d_53">
    <path d="M 334.60211 418.459872 
L 388.198746 418.459872 
" clip-path="url(#pc83852bbe4)" style="fill: none; stroke: #808080; stroke-opacity: 0.5; stroke-width: 1.5; stroke-linecap: square"/>
   </g>
   <g id="line2d_54">
    <path d="M 346.108962 251.557161 
L 382.658803 251.557161 
" clip-path="url(#pc83852bbe4)" style="fill: none; stroke: #808080; stroke-opacity: 0.5; stroke-width: 1.5; stroke-linecap: square"/>
   </g>
   <g id="line2d_55">
    <path d="M 392.722643 168.105805 
L 458.07339 168.105805 
" clip-path="url(#pc83852bbe4)" style="fill: none; stroke: #808080; stroke-opacity: 0.5; stroke-width: 1.5; stroke-linecap: square"/>
   </g>
   <g id="line2d_56">
    <path d="M 377.711179 84.65445 
L 389.531282 84.65445 
" clip-path="url(#pc83852bbe4)" style="fill: none; stroke: #808080; stroke-opacity: 0.5; stroke-width: 1.5; stroke-linecap: square"/>
   </g>
   <g id="line2d_57">
    <path d="M 303.851771 42.928772 
L 384.909924 42.928772 
" clip-path="url(#pc83852bbe4)" style="fill: none; stroke: #808080; stroke-opacity: 0.5; stroke-width: 1.5; stroke-linecap: square"/>
   </g>
   <g id="line2d_58">
    <path d="M 292.090713 493.566093 
L 376.528213 493.566093 
" clip-path="url(#pc83852bbe4)" style="fill: none; stroke: #808080; stroke-opacity: 0.5; stroke-width: 1.5; stroke-linecap: square"/>
   </g>
   <g id="line2d_59">
    <path d="M 396.129194 326.663381 
L 546.689545 326.663381 
" clip-path="url(#pc83852bbe4)" style="fill: none; stroke: #808080; stroke-opacity: 0.5; stroke-width: 1.5; stroke-linecap: square"/>
   </g>
   <g id="line2d_60">
    <path d="M 178.066952 284.937703 
L 388.702993 284.937703 
" clip-path="url(#pc83852bbe4)" style="fill: none; stroke: #808080; stroke-opacity: 0.5; stroke-width: 1.5; stroke-linecap: square"/>
   </g>
   <g id="line2d_61">
    <path d="M 346.372789 243.212026 
L 385.912307 243.212026 
" clip-path="url(#pc83852bbe4)" style="fill: none; stroke: #808080; stroke-opacity: 0.5; stroke-width: 1.5; stroke-linecap: square"/>
   </g>
   <g id="line2d_62">
    <path d="M 274.628341 34.583636 
L 360.854441 34.583636 
" clip-path="url(#pc83852bbe4)" style="fill: none; stroke: #808080; stroke-opacity: 0.5; stroke-width: 1.5; stroke-linecap: square"/>
   </g>
   <g id="patch_3">
    <path d="M 157.97 534.04 
L 157.97 10.8 
" style="fill: none; stroke: #000000; stroke-width: 0.8; stroke-linejoin: miter; stroke-linecap: square"/>
   </g>
   <g id="patch_4">
    <path d="M 157.97 534.04 
L 565.2 534.04 
" style="fill: none; stroke: #000000; stroke-width: 0.8; stroke-linejoin: miter; stroke-linecap: square"/>
   </g>
   <g id="PathCollection_1">
    <path d="M 347.348136 515.256364 
C 348.674152 515.256364 349.946036 514.729532 350.88367 513.791898 
C 351.821305 512.854263 352.348136 511.582379 352.348136 510.256364 
C 352.348136 508.930348 351.821305 507.658464 350.88367 506.72083 
C 349.946036 505.783195 348.674152 505.256364 347.348136 505.256364 
C 346.022121 505.256364 344.750237 505.783195 343.812603 506.72083 
C 342.874968 507.658464 342.348136 508.930348 342.348136 510.256364 
C 342.348136 511.582379 342.874968 512.854263 343.812603 513.791898 
C 344.750237 514.729532 346.022121 515.256364 347.348136 515.256364 
z
" clip-path="url(#pc83852bbe4)" style="fill: #1f77b4; stroke: #ffffff; stroke-width: 0.8"/>
    <path d="M 441.294985 473.530686 
C 442.621 473.530686 443.892884 473.003854 444.830519 472.06622 
C 445.768153 471.128585 446.294985 469.856701 446.294985 468.530686 
C 446.294985 467.20467 445.768153 465.932786 444.830519 464.995152 
C 443.892884 464.057517 442.621 463.530686 441.294985 463.530686 
C 439.968969 463.530686 438.697085 464.057517 437.759451 464.995152 
C 436.821816 465.932786 436.294985 467.20467 436.294985 468.530686 
C 436.294985 469.856701 436.821816 471.128585 437.759451 472.06622 
C 438.697085 473.003854 439.968969 473.530686 441.294985 473.530686 
z
" clip-path="url(#pc83852bbe4)" style="fill: #1f77b4; stroke: #ffffff; stroke-width: 0.8"/>
    <path d="M 362.070622 431.805008 
C 363.396637 431.805008 364.668521 431.278176 365.606156 430.340542 
C 366.54379 429.402907 367.070622 428.131023 367.070622 426.805008 
C 367.070622 425.478992 366.54379 424.207109 365.606156 423.269474 
C 364.668521 422.33184 363.396637 421.805008 362.070622 421.805008 
C 360.744606 421.805008 359.472722 422.33184 358.535088 423.269474 
C 357.597453 424.207109 357.070622 425.478992 357.070622 426.805008 
C 357.070622 428.131023 357.597453 429.402907 358.535088 430.340542 
C 359.472722 431.278176 360.744606 431.805008 362.070622 431.805008 
z
" clip-path="url(#pc83852bbe4)" style="fill: #1f77b4; stroke: #ffffff; stroke-width: 0.8"/>
    <path d="M 269.266642 390.07933 
C 270.592657 390.07933 271.864541 389.552499 272.802176 388.614864 
C 273.73981 387.677229 274.266642 386.405346 274.266642 385.07933 
C 274.266642 383.753315 273.73981 382.481431 272.802176 381.543796 
C 271.864541 380.606162 270.592657 380.07933 269.266642 380.07933 
C 267.940626 380.07933 266.668743 380.606162 265.731108 381.543796 
C 264.793473 382.481431 264.266642 383.753315 264.266642 385.07933 
C 264.266642 386.405346 264.793473 387.677229 265.731108 388.614864 
C 266.668743 389.552499 267.940626 390.07933 269.266642 390.07933 
z
" clip-path="url(#pc83852bbe4)" style="fill: #1f77b4; stroke: #ffffff; stroke-width: 0.8"/>
    <path d="M 366.933707 264.902297 
C 368.259722 264.902297 369.531606 264.375465 370.469241 263.437831 
C 371.406875 262.500196 371.933707 261.228312 371.933707 259.902297 
C 371.933707 258.576281 371.406875 257.304397 370.469241 256.366763 
C 369.531606 255.429128 368.259722 254.902297 366.933707 254.902297 
C 365.607691 254.902297 364.335807 255.429128 363.398173 256.366763 
C 362.460538 257.304397 361.933707 258.576281 361.933707 259.902297 
C 361.933707 261.228312 362.460538 262.500196 363.398173 263.437831 
C 364.335807 264.375465 365.607691 264.902297 366.933707 264.902297 
z
" clip-path="url(#pc83852bbe4)" style="fill: #1f77b4; stroke: #ffffff; stroke-width: 0.8"/>
    <path d="M 411.477217 223.176619 
C 412.803233 223.176619 414.075117 222.649787 415.012751 221.712153 
C 415.950386 220.774518 416.477217 219.502634 416.477217 218.176619 
C 416.477217 216.850603 415.950386 215.578719 415.012751 214.641085 
C 414.075117 213.70345 412.803233 213.176619 411.477217 213.176619 
C 410.151202 213.176619 408.879318 213.70345 407.941683 214.641085 
C 407.004049 215.578719 406.477217 216.850603 406.477217 218.176619 
C 406.477217 219.502634 407.004049 220.774518 407.941683 221.712153 
C 408.879318 222.649787 410.151202 223.176619 411.477217 223.176619 
z
" clip-path="url(#pc83852bbe4)" style="fill: #1f77b4; stroke: #ffffff; stroke-width: 0.8"/>
    <path d="M 427.675118 181.450941 
C 429.001133 181.450941 430.273017 180.924109 431.210652 179.986475 
C 432.148286 179.04884 432.675118 177.776956 432.675118 176.450941 
C 432.675118 175.124925 432.148286 173.853042 431.210652 172.915407 
C 430.273017 171.977773 429.001133 171.450941 427.675118 171.450941 
C 426.349102 171.450941 425.077219 171.977773 424.139584 172.915407 
C 423.20195 173.853042 422.675118 175.124925 422.675118 176.450941 
C 422.675118 177.776956 423.20195 179.04884 424.139584 179.986475 
C 425.077219 180.924109 426.349102 181.450941 427.675118 181.450941 
z
" clip-path="url(#pc83852bbe4)" style="fill: #1f77b4; stroke: #ffffff; stroke-width: 0.8"/>
    <path d="M 414.845918 139.725263 
C 416.171933 139.725263 417.443817 139.198432 418.381452 138.260797 
C 419.319086 137.323163 419.845918 136.051279 419.845918 134.725263 
C 419.845918 133.399248 419.319086 132.127364 418.381452 131.189729 
C 417.443817 130.252095 416.171933 129.725263 414.845918 129.725263 
C 413.519902 129.725263 412.248018 130.252095 411.310384 131.189729 
C 410.372749 132.127364 409.845918 133.399248 409.845918 134.725263 
C 409.845918 136.051279 410.372749 137.323163 411.310384 138.260797 
C 412.248018 139.198432 413.519902 139.725263 414.845918 139.725263 
z
" clip-path="url(#pc83852bbe4)" style="fill: #1f77b4; stroke: #ffffff; stroke-width: 0.8"/>
    <path d="M 384.682679 97.999585 
C 386.008695 97.999585 387.280578 97.472754 388.218213 96.535119 
C 389.155847 95.597485 389.682679 94.325601 389.682679 92.999585 
C 389.682679 91.67357 389.155847 90.401686 388.218213 89.464051 
C 387.280578 88.526417 386.008695 87.999585 384.682679 87.999585 
C 383.356664 87.999585 382.08478 88.526417 381.147145 89.464051 
C 380.209511 90.401686 379.682679 91.67357 379.682679 92.999585 
C 379.682679 94.325601 380.209511 95.597485 381.147145 96.535119 
C 382.08478 97.472754 383.356664 97.999585 384.682679 97.999585 
z
" clip-path="url(#pc83852bbe4)" style="fill: #1f77b4; stroke: #ffffff; stroke-width: 0.8"/>
    <path d="M 317.469041 506.911228 
L 319.969041 504.411228 
L 322.469041 506.911228 
L 324.969041 504.411228 
L 322.469041 501.911228 
L 324.969041 499.411228 
L 322.469041 496.911228 
L 319.969041 499.411228 
L 317.469041 496.911228 
L 314.969041 499.411228 
L 317.469041 501.911228 
L 314.969041 504.411228 
z
" clip-path="url(#pc83852bbe4)" style="fill: #ff7f0e; stroke: #ffffff; stroke-width: 0.8"/>
    <path d="M 433.577723 465.18555 
L 436.077723 462.68555 
L 438.577723 465.18555 
L 441.077723 462.68555 
L 438.577723 460.18555 
L 441.077723 457.68555 
L 438.577723 455.18555 
L 436.077723 457.68555 
L 433.577723 455.18555 
L 431.077723 457.68555 
L 433.577723 460.18555 
L 431.077723 462.68555 
z
" clip-path="url(#pc83852bbe4)" style="fill: #ff7f0e; stroke: #ffffff; stroke-width: 0.8"/>
    <path d="M 358.900428 423.459872 
L 361.400428 420.959872 
L 363.900428 423.459872 
L 366.400428 420.959872 
L 363.900428 418.459872 
L 366.400428 415.959872 
L 363.900428 413.459872 
L 361.400428 415.959872 
L 358.900428 413.459872 
L 356.400428 415.959872 
L 358.900428 418.459872 
L 356.400428 420.959872 
z
" clip-path="url(#pc83852bbe4)" style="fill: #ff7f0e; stroke: #ffffff; stroke-width: 0.8"/>
    <path d="M 361.883882 256.557161 
L 364.383882 254.057161 
L 366.883882 256.557161 
L 369.383882 254.057161 
L 366.883882 251.557161 
L 369.383882 249.057161 
L 366.883882 246.557161 
L 364.383882 249.057161 
L 361.883882 246.557161 
L 359.383882 249.057161 
L 361.883882 251.557161 
L 359.383882 254.057161 
z
" clip-path="url(#pc83852bbe4)" style="fill: #ff7f0e; stroke: #ffffff; stroke-width: 0.8"/>
    <path d="M 422.898016 173.105805 
L 425.398016 170.605805 
L 427.898016 173.105805 
L 430.398016 170.605805 
L 427.898016 168.105805 
L 430.398016 165.605805 
L 427.898016 163.105805 
L 425.398016 165.605805 
L 422.898016 163.105805 
L 420.398016 165.605805 
L 422.898016 168.105805 
L 420.398016 170.605805 
z
" clip-path="url(#pc83852bbe4)" style="fill: #ff7f0e; stroke: #ffffff; stroke-width: 0.8"/>
    <path d="M 381.121231 89.65445 
L 383.621231 87.15445 
L 386.121231 89.65445 
L 388.621231 87.15445 
L 386.121231 84.65445 
L 388.621231 82.15445 
L 386.121231 79.65445 
L 383.621231 82.15445 
L 381.121231 79.65445 
L 378.621231 82.15445 
L 381.121231 84.65445 
L 378.621231 87.15445 
z
" clip-path="url(#pc83852bbe4)" style="fill: #ff7f0e; stroke: #ffffff; stroke-width: 0.8"/>
    <path d="M 341.880847 47.928772 
L 344.380847 45.428772 
L 346.880847 47.928772 
L 349.380847 45.428772 
L 346.880847 42.928772 
L 349.380847 40.428772 
L 346.880847 37.928772 
L 344.380847 40.428772 
L 341.880847 37.928772 
L 339.380847 40.428772 
L 341.880847 42.928772 
L 339.380847 45.428772 
z
" clip-path="url(#pc83852bbe4)" style="fill: #ff7f0e; stroke: #ffffff; stroke-width: 0.8"/>
    <path d="M 330.773929 490.030559 
L 330.773929 497.101626 
L 337.844997 497.101626 
L 337.844997 490.030559 
z
" clip-path="url(#pc83852bbe4)" style="fill: #2ca02c; stroke: #ffffff; stroke-width: 0.8"/>
    <path d="M 467.873836 323.127847 
L 467.873836 330.198915 
L 474.944904 330.198915 
L 474.944904 323.127847 
z
" clip-path="url(#pc83852bbe4)" style="fill: #2ca02c; stroke: #ffffff; stroke-width: 0.8"/>
    <path d="M 279.849438 281.402169 
L 279.849438 288.473237 
L 286.920506 288.473237 
L 286.920506 281.402169 
z
" clip-path="url(#pc83852bbe4)" style="fill: #2ca02c; stroke: #ffffff; stroke-width: 0.8"/>
    <path d="M 362.607014 239.676492 
L 362.607014 246.747559 
L 369.678082 246.747559 
L 369.678082 239.676492 
z
" clip-path="url(#pc83852bbe4)" style="fill: #2ca02c; stroke: #ffffff; stroke-width: 0.8"/>
    <path d="M 314.205857 31.048102 
L 314.205857 38.11917 
L 321.276925 38.11917 
L 321.276925 31.048102 
z
" clip-path="url(#pc83852bbe4)" style="fill: #2ca02c; stroke: #ffffff; stroke-width: 0.8"/>
   </g>
   <g id="line2d_63"/>
   <g id="line2d_64"/>
   <g id="line2d_65"/>
   <g id="legend_1">
    <g id="patch_5">
     <path d="M 467.7125 62.834375 
L 558.2 62.834375 
Q 560.2 62.834375 560.2 60.834375 
L 560.2 17.8 
Q 560.2 15.8 558.2 15.8 
L 467.7125 15.8 
Q 465.7125 15.8 465.7125 17.8 
L 465.7125 60.834375 
Q 465.7125 62.834375 467.7125 62.834375 
z
" style="fill: #ffffff; opacity: 0.8; stroke: #cccccc; stroke-linejoin: miter"/>
    </g>
    <g id="line2d_66">
     <defs>
      <path id="m396cc79f24" d="M 0 5 
C 1.326016 5 2.597899 4.473168 3.535534 3.535534 
C 4.473168 2.597899 5 1.326016 5 0 
C 5 -1.326016 4.473168 -2.597899 3.535534 -3.535534 
C 2.597899 -4.473168 1.326016 -5 0 -5 
C -1.326016 -5 -2.597899 -4.473168 -3.535534 -3.535534 
C -4.473168 -2.597899 -5 -1.326016 -5 0 
C -5 1.326016 -4.473168 2.597899 -3.535534 3.535534 
C -2.597899 4.473168 -1.326016 5 0 5 
z
" style="stroke: #ffffff; stroke-width: 0.8"/>
     </defs>
     <g>
      <use xlink:href="#m396cc79f24" x="479.7125" y="23.898438" style="fill: #1f77b4; stroke: #ffffff; stroke-width: 0.8"/>
     </g>
    </g>
    <g id="text_23">
     <!-- Max Fitness -->
     <g transform="translate(497.7125 27.398438) scale(0.1 -0.1)">
      <defs>
       <path id="DejaVuSans-78" d="M 3513 3500 
L 2247 1797 
L 3578 0 
L 2900 0 
L 1881 1375 
L 863 0 
L 184 0 
L 1544 1831 
L 300 3500 
L 978 3500 
L 1906 2253 
L 2834 3500 
L 3513 3500 
z
" transform="scale(0.015625)"/>
       <path id="DejaVuSans-46" d="M 628 4666 
L 3309 4666 
L 3309 4134 
L 1259 4134 
L 1259 2759 
L 3109 2759 
L 3109 2228 
L 1259 2228 
L 1259 0 
L 628 0 
L 628 4666 
z
" transform="scale(0.015625)"/>
       <path id="DejaVuSans-73" d="M 2834 3397 
L 2834 2853 
Q 2591 2978 2328 3040 
Q 2066 3103 1784 3103 
Q 1356 3103 1142 2972 
Q 928 2841 928 2578 
Q 928 2378 1081 2264 
Q 1234 2150 1697 2047 
L 1894 2003 
Q 2506 1872 2764 1633 
Q 3022 1394 3022 966 
Q 3022 478 2636 193 
Q 2250 -91 1575 -91 
Q 1294 -91 989 -36 
Q 684 19 347 128 
L 347 722 
Q 666 556 975 473 
Q 1284 391 1588 391 
Q 1994 391 2212 530 
Q 2431 669 2431 922 
Q 2431 1156 2273 1281 
Q 2116 1406 1581 1522 
L 1381 1569 
Q 847 1681 609 1914 
Q 372 2147 372 2553 
Q 372 3047 722 3315 
Q 1072 3584 1716 3584 
Q 2034 3584 2315 3537 
Q 2597 3491 2834 3397 
z
" transform="scale(0.015625)"/>
      </defs>
      <use xlink:href="#DejaVuSans-4d"/>
      <use xlink:href="#DejaVuSans-61" x="86.279297"/>
      <use xlink:href="#DejaVuSans-78" x="147.558594"/>
      <use xlink:href="#DejaVuSans-20" x="206.738281"/>
      <use xlink:href="#DejaVuSans-46" x="238.525391"/>
      <use xlink:href="#DejaVuSans-69" x="288.794922"/>
      <use xlink:href="#DejaVuSans-74" x="316.578125"/>
      <use xlink:href="#DejaVuSans-6e" x="355.787109"/>
      <use xlink:href="#DejaVuSans-65" x="419.166016"/>
      <use xlink:href="#DejaVuSans-73" x="480.689453"/>
      <use xlink:href="#DejaVuSans-73" x="532.789062"/>
     </g>
    </g>
    <g id="line2d_67">
     <defs>
      <path id="m641d59096e" d="M -2.5 5 
L 0 2.5 
L 2.5 5 
L 5 2.5 
L 2.5 0 
L 5 -2.5 
L 2.5 -5 
L 0 -2.5 
L -2.5 -5 
L -5 -2.5 
L -2.5 0 
L -5 2.5 
z
" style="stroke: #ffffff; stroke-width: 0.8; stroke-linejoin: miter"/>
     </defs>
     <g>
      <use xlink:href="#m641d59096e" x="479.7125" y="38.576563" style="fill: #ff7f0e; stroke: #ffffff; stroke-width: 0.8; stroke-linejoin: miter"/>
     </g>
    </g>
    <g id="text_24">
     <!-- MACS 120 -->
     <g transform="translate(497.7125 42.076563) scale(0.1 -0.1)">
      <use xlink:href="#DejaVuSans-4d"/>
      <use xlink:href="#DejaVuSans-41" x="86.279297"/>
      <use xlink:href="#DejaVuSans-43" x="152.9375"/>
      <use xlink:href="#DejaVuSans-53" x="222.761719"/>
      <use xlink:href="#DejaVuSans-20" x="286.238281"/>
      <use xlink:href="#DejaVuSans-31" x="318.025391"/>
      <use xlink:href="#DejaVuSans-32" x="381.648438"/>
      <use xlink:href="#DejaVuSans-30" x="445.271484"/>
     </g>
    </g>
    <g id="line2d_68">
     <defs>
      <path id="m80ebf9450c" d="M -3.535534 -3.535534 
L -3.535534 3.535534 
L 3.535534 3.535534 
L 3.535534 -3.535534 
z
" style="stroke: #ffffff; stroke-width: 0.8; stroke-linejoin: miter"/>
     </defs>
     <g>
      <use xlink:href="#m80ebf9450c" x="479.7125" y="53.254688" style="fill: #2ca02c; stroke: #ffffff; stroke-width: 0.8; stroke-linejoin: miter"/>
     </g>
    </g>
    <g id="text_25">
     <!-- Max VAF -->
     <g transform="translate(497.7125 56.754688) scale(0.1 -0.1)">
      <defs>
       <path id="DejaVuSans-56" d="M 1831 0 
L 50 4666 
L 709 4666 
L 2188 738 
L 3669 4666 
L 4325 4666 
L 2547 0 
L 1831 0 
z
" transform="scale(0.015625)"/>
      </defs>
      <use xlink:href="#DejaVuSans-4d"/>
      <use xlink:href="#DejaVuSans-61" x="86.279297"/>
      <use xlink:href="#DejaVuSans-78" x="147.558594"/>
      <use xlink:href="#DejaVuSans-20" x="206.738281"/>
      <use xlink:href="#DejaVuSans-56" x="238.525391"/>
      <use xlink:href="#DejaVuSans-41" x="300.558594"/>
      <use xlink:href="#DejaVuSans-46" x="368.966797"/>
     </g>
    </g>
   </g>
  </g>
 </g>
 <defs>
  <clipPath id="pc83852bbe4">
   <rect x="157.97" y="10.8" width="407.23" height="523.24"/>
  </clipPath>
 </defs>
</svg>
