<?xml version="1.0" encoding="utf-8" standalone="no"?>
<!DOCTYPE svg PUBLIC "-//W3C//DTD SVG 1.1//EN"
  "http://www.w3.org/Graphics/SVG/1.1/DTD/svg11.dtd">
<svg xmlns:xlink="http://www.w3.org/1999/xlink" width="453.13875pt" height="352.714375pt" viewBox="0 0 453.13875 352.714375" xmlns="http://www.w3.org/2000/svg" version="1.1">
 <metadata>
  <rdf:RDF xmlns:dc="http://purl.org/dc/elements/1.1/" xmlns:cc="http://creativecommons.org/ns#" xmlns:rdf="http://www.w3.org/1999/02/22-rdf-syntax-ns#">
   <cc:Work>
    <dc:type rdf:resource="http://purl.org/dc/dcmitype/StillImage"/>
    <dc:date>2024-11-06T12:39:34.158382</dc:date>
    <dc:format>image/svg+xml</dc:format>
    <dc:creator>
     <cc:Agent>
      <dc:title>Matplotlib v3.9.2, https://matplotlib.org/</dc:title>
     </cc:Agent>
    </dc:creator>
   </cc:Work>
  </rdf:RDF>
 </metadata>
 <defs>
  <style type="text/css">*{stroke-linejoin: round; stroke-linecap: butt}</style>
 </defs>
 <g id="figure_1">
  <g id="patch_1">
   <path d="M 0 352.714375 
L 453.13875 352.714375 
L 453.13875 0 
L 0 0 
L 0 352.714375 
z
" style="fill: none"/>
  </g>
  <g id="axes_1">
   <g id="patch_2">
    <path d="M 139.86875 315.158125 
L 445.93875 315.158125 
L 445.93875 22.318125 
L 139.86875 22.318125 
L 139.86875 315.158125 
z
" style="fill: none"/>
   </g>
   <g id="line2d_1">
    <path d="M 334.098696 315.158125 
L 334.098696 22.318125 
" clip-path="url(#pb58be4813d)" style="fill: none; stroke-dasharray: 5.55,2.4; stroke-dashoffset: 0; stroke: #ff0000; stroke-opacity: 0.5; stroke-width: 1.5"/>
   </g>
   <g id="matplotlib.axis_1">
    <g id="xtick_1">
     <g id="line2d_2">
      <path d="M 152.764353 315.158125 
L 152.764353 22.318125 
" clip-path="url(#pb58be4813d)" style="fill: none; stroke-dasharray: 2.96,1.28; stroke-dashoffset: 0; stroke: #808080; stroke-opacity: 0.3; stroke-width: 0.8"/>
     </g>
     <g id="line2d_3">
      <defs>
       <path id="m23ba5ff475" d="M 0 0 
L 0 3.5 
" style="stroke: #000000; stroke-width: 0.8"/>
      </defs>
      <g>
       <use xlink:href="#m23ba5ff475" x="152.764353" y="315.158125" style="stroke: #000000; stroke-width: 0.8"/>
      </g>
     </g>
     <g id="text_1">
      <!-- −0.08 -->
      <g transform="translate(137.441697 329.756562) scale(0.1 -0.1)">
       <defs>
        <path id="DejaVuSans-2212" d="M 678 2272 
L 4684 2272 
L 4684 1741 
L 678 1741 
L 678 2272 
z
" transform="scale(0.015625)"/>
        <path id="DejaVuSans-30" d="M 2034 4250 
Q 1547 4250 1301 3770 
Q 1056 3291 1056 2328 
Q 1056 1369 1301 889 
Q 1547 409 2034 409 
Q 2525 409 2770 889 
Q 3016 1369 3016 2328 
Q 3016 3291 2770 3770 
Q 2525 4250 2034 4250 
z
M 2034 4750 
Q 2819 4750 3233 4129 
Q 3647 3509 3647 2328 
Q 3647 1150 3233 529 
Q 2819 -91 2034 -91 
Q 1250 -91 836 529 
Q 422 1150 422 2328 
Q 422 3509 836 4129 
Q 1250 4750 2034 4750 
z
" transform="scale(0.015625)"/>
        <path id="DejaVuSans-2e" d="M 684 794 
L 1344 794 
L 1344 0 
L 684 0 
L 684 794 
z
" transform="scale(0.015625)"/>
        <path id="DejaVuSans-38" d="M 2034 2216 
Q 1584 2216 1326 1975 
Q 1069 1734 1069 1313 
Q 1069 891 1326 650 
Q 1584 409 2034 409 
Q 2484 409 2743 651 
Q 3003 894 3003 1313 
Q 3003 1734 2745 1975 
Q 2488 2216 2034 2216 
z
M 1403 2484 
Q 997 2584 770 2862 
Q 544 3141 544 3541 
Q 544 4100 942 4425 
Q 1341 4750 2034 4750 
Q 2731 4750 3128 4425 
Q 3525 4100 3525 3541 
Q 3525 3141 3298 2862 
Q 3072 2584 2669 2484 
Q 3125 2378 3379 2068 
Q 3634 1759 3634 1313 
Q 3634 634 3220 271 
Q 2806 -91 2034 -91 
Q 1263 -91 848 271 
Q 434 634 434 1313 
Q 434 1759 690 2068 
Q 947 2378 1403 2484 
z
M 1172 3481 
Q 1172 3119 1398 2916 
Q 1625 2713 2034 2713 
Q 2441 2713 2670 2916 
Q 2900 3119 2900 3481 
Q 2900 3844 2670 4047 
Q 2441 4250 2034 4250 
Q 1625 4250 1398 4047 
Q 1172 3844 1172 3481 
z
" transform="scale(0.015625)"/>
       </defs>
       <use xlink:href="#DejaVuSans-2212"/>
       <use xlink:href="#DejaVuSans-30" x="83.789062"/>
       <use xlink:href="#DejaVuSans-2e" x="147.412109"/>
       <use xlink:href="#DejaVuSans-30" x="179.199219"/>
       <use xlink:href="#DejaVuSans-38" x="242.822266"/>
      </g>
     </g>
    </g>
    <g id="xtick_2">
     <g id="line2d_4">
      <path d="M 198.097939 315.158125 
L 198.097939 22.318125 
" clip-path="url(#pb58be4813d)" style="fill: none; stroke-dasharray: 2.96,1.28; stroke-dashoffset: 0; stroke: #808080; stroke-opacity: 0.3; stroke-width: 0.8"/>
     </g>
     <g id="line2d_5">
      <g>
       <use xlink:href="#m23ba5ff475" x="198.097939" y="315.158125" style="stroke: #000000; stroke-width: 0.8"/>
      </g>
     </g>
     <g id="text_2">
      <!-- −0.06 -->
      <g transform="translate(182.775283 329.756562) scale(0.1 -0.1)">
       <defs>
        <path id="DejaVuSans-36" d="M 2113 2584 
Q 1688 2584 1439 2293 
Q 1191 2003 1191 1497 
Q 1191 994 1439 701 
Q 1688 409 2113 409 
Q 2538 409 2786 701 
Q 3034 994 3034 1497 
Q 3034 2003 2786 2293 
Q 2538 2584 2113 2584 
z
M 3366 4563 
L 3366 3988 
Q 3128 4100 2886 4159 
Q 2644 4219 2406 4219 
Q 1781 4219 1451 3797 
Q 1122 3375 1075 2522 
Q 1259 2794 1537 2939 
Q 1816 3084 2150 3084 
Q 2853 3084 3261 2657 
Q 3669 2231 3669 1497 
Q 3669 778 3244 343 
Q 2819 -91 2113 -91 
Q 1303 -91 875 529 
Q 447 1150 447 2328 
Q 447 3434 972 4092 
Q 1497 4750 2381 4750 
Q 2619 4750 2861 4703 
Q 3103 4656 3366 4563 
z
" transform="scale(0.015625)"/>
       </defs>
       <use xlink:href="#DejaVuSans-2212"/>
       <use xlink:href="#DejaVuSans-30" x="83.789062"/>
       <use xlink:href="#DejaVuSans-2e" x="147.412109"/>
       <use xlink:href="#DejaVuSans-30" x="179.199219"/>
       <use xlink:href="#DejaVuSans-36" x="242.822266"/>
      </g>
     </g>
    </g>
    <g id="xtick_3">
     <g id="line2d_6">
      <path d="M 243.431525 315.158125 
L 243.431525 22.318125 
" clip-path="url(#pb58be4813d)" style="fill: none; stroke-dasharray: 2.96,1.28; stroke-dashoffset: 0; stroke: #808080; stroke-opacity: 0.3; stroke-width: 0.8"/>
     </g>
     <g id="line2d_7">
      <g>
       <use xlink:href="#m23ba5ff475" x="243.431525" y="315.158125" style="stroke: #000000; stroke-width: 0.8"/>
      </g>
     </g>
     <g id="text_3">
      <!-- −0.04 -->
      <g transform="translate(228.108869 329.756562) scale(0.1 -0.1)">
       <defs>
        <path id="DejaVuSans-34" d="M 2419 4116 
L 825 1625 
L 2419 1625 
L 2419 4116 
z
M 2253 4666 
L 3047 4666 
L 3047 1625 
L 3713 1625 
L 3713 1100 
L 3047 1100 
L 3047 0 
L 2419 0 
L 2419 1100 
L 313 1100 
L 313 1709 
L 2253 4666 
z
" transform="scale(0.015625)"/>
       </defs>
       <use xlink:href="#DejaVuSans-2212"/>
       <use xlink:href="#DejaVuSans-30" x="83.789062"/>
       <use xlink:href="#DejaVuSans-2e" x="147.412109"/>
       <use xlink:href="#DejaVuSans-30" x="179.199219"/>
       <use xlink:href="#DejaVuSans-34" x="242.822266"/>
      </g>
     </g>
    </g>
    <g id="xtick_4">
     <g id="line2d_8">
      <path d="M 288.76511 315.158125 
L 288.76511 22.318125 
" clip-path="url(#pb58be4813d)" style="fill: none; stroke-dasharray: 2.96,1.28; stroke-dashoffset: 0; stroke: #808080; stroke-opacity: 0.3; stroke-width: 0.8"/>
     </g>
     <g id="line2d_9">
      <g>
       <use xlink:href="#m23ba5ff475" x="288.76511" y="315.158125" style="stroke: #000000; stroke-width: 0.8"/>
      </g>
     </g>
     <g id="text_4">
      <!-- −0.02 -->
      <g transform="translate(273.442454 329.756562) scale(0.1 -0.1)">
       <defs>
        <path id="DejaVuSans-32" d="M 1228 531 
L 3431 531 
L 3431 0 
L 469 0 
L 469 531 
Q 828 903 1448 1529 
Q 2069 2156 2228 2338 
Q 2531 2678 2651 2914 
Q 2772 3150 2772 3378 
Q 2772 3750 2511 3984 
Q 2250 4219 1831 4219 
Q 1534 4219 1204 4116 
Q 875 4013 500 3803 
L 500 4441 
Q 881 4594 1212 4672 
Q 1544 4750 1819 4750 
Q 2544 4750 2975 4387 
Q 3406 4025 3406 3419 
Q 3406 3131 3298 2873 
Q 3191 2616 2906 2266 
Q 2828 2175 2409 1742 
Q 1991 1309 1228 531 
z
" transform="scale(0.015625)"/>
       </defs>
       <use xlink:href="#DejaVuSans-2212"/>
       <use xlink:href="#DejaVuSans-30" x="83.789062"/>
       <use xlink:href="#DejaVuSans-2e" x="147.412109"/>
       <use xlink:href="#DejaVuSans-30" x="179.199219"/>
       <use xlink:href="#DejaVuSans-32" x="242.822266"/>
      </g>
     </g>
    </g>
    <g id="xtick_5">
     <g id="line2d_10">
      <path d="M 334.098696 315.158125 
L 334.098696 22.318125 
" clip-path="url(#pb58be4813d)" style="fill: none; stroke-dasharray: 2.96,1.28; stroke-dashoffset: 0; stroke: #808080; stroke-opacity: 0.3; stroke-width: 0.8"/>
     </g>
     <g id="line2d_11">
      <g>
       <use xlink:href="#m23ba5ff475" x="334.098696" y="315.158125" style="stroke: #000000; stroke-width: 0.8"/>
      </g>
     </g>
     <g id="text_5">
      <!-- 0.00 -->
      <g transform="translate(322.965884 329.756562) scale(0.1 -0.1)">
       <use xlink:href="#DejaVuSans-30"/>
       <use xlink:href="#DejaVuSans-2e" x="63.623047"/>
       <use xlink:href="#DejaVuSans-30" x="95.410156"/>
       <use xlink:href="#DejaVuSans-30" x="159.033203"/>
      </g>
     </g>
    </g>
    <g id="xtick_6">
     <g id="line2d_12">
      <path d="M 379.432282 315.158125 
L 379.432282 22.318125 
" clip-path="url(#pb58be4813d)" style="fill: none; stroke-dasharray: 2.96,1.28; stroke-dashoffset: 0; stroke: #808080; stroke-opacity: 0.3; stroke-width: 0.8"/>
     </g>
     <g id="line2d_13">
      <g>
       <use xlink:href="#m23ba5ff475" x="379.432282" y="315.158125" style="stroke: #000000; stroke-width: 0.8"/>
      </g>
     </g>
     <g id="text_6">
      <!-- 0.02 -->
      <g transform="translate(368.299469 329.756562) scale(0.1 -0.1)">
       <use xlink:href="#DejaVuSans-30"/>
       <use xlink:href="#DejaVuSans-2e" x="63.623047"/>
       <use xlink:href="#DejaVuSans-30" x="95.410156"/>
       <use xlink:href="#DejaVuSans-32" x="159.033203"/>
      </g>
     </g>
    </g>
    <g id="xtick_7">
     <g id="line2d_14">
      <path d="M 424.765867 315.158125 
L 424.765867 22.318125 
" clip-path="url(#pb58be4813d)" style="fill: none; stroke-dasharray: 2.96,1.28; stroke-dashoffset: 0; stroke: #808080; stroke-opacity: 0.3; stroke-width: 0.8"/>
     </g>
     <g id="line2d_15">
      <g>
       <use xlink:href="#m23ba5ff475" x="424.765867" y="315.158125" style="stroke: #000000; stroke-width: 0.8"/>
      </g>
     </g>
     <g id="text_7">
      <!-- 0.04 -->
      <g transform="translate(413.633055 329.756562) scale(0.1 -0.1)">
       <use xlink:href="#DejaVuSans-30"/>
       <use xlink:href="#DejaVuSans-2e" x="63.623047"/>
       <use xlink:href="#DejaVuSans-30" x="95.410156"/>
       <use xlink:href="#DejaVuSans-34" x="159.033203"/>
      </g>
     </g>
    </g>
    <g id="text_8">
     <!-- Coefficient -->
     <g transform="translate(266.023281 343.434687) scale(0.1 -0.1)">
      <defs>
       <path id="DejaVuSans-43" d="M 4122 4306 
L 4122 3641 
Q 3803 3938 3442 4084 
Q 3081 4231 2675 4231 
Q 1875 4231 1450 3742 
Q 1025 3253 1025 2328 
Q 1025 1406 1450 917 
Q 1875 428 2675 428 
Q 3081 428 3442 575 
Q 3803 722 4122 1019 
L 4122 359 
Q 3791 134 3420 21 
Q 3050 -91 2638 -91 
Q 1578 -91 968 557 
Q 359 1206 359 2328 
Q 359 3453 968 4101 
Q 1578 4750 2638 4750 
Q 3056 4750 3426 4639 
Q 3797 4528 4122 4306 
z
" transform="scale(0.015625)"/>
       <path id="DejaVuSans-6f" d="M 1959 3097 
Q 1497 3097 1228 2736 
Q 959 2375 959 1747 
Q 959 1119 1226 758 
Q 1494 397 1959 397 
Q 2419 397 2687 759 
Q 2956 1122 2956 1747 
Q 2956 2369 2687 2733 
Q 2419 3097 1959 3097 
z
M 1959 3584 
Q 2709 3584 3137 3096 
Q 3566 2609 3566 1747 
Q 3566 888 3137 398 
Q 2709 -91 1959 -91 
Q 1206 -91 779 398 
Q 353 888 353 1747 
Q 353 2609 779 3096 
Q 1206 3584 1959 3584 
z
" transform="scale(0.015625)"/>
       <path id="DejaVuSans-65" d="M 3597 1894 
L 3597 1613 
L 953 1613 
Q 991 1019 1311 708 
Q 1631 397 2203 397 
Q 2534 397 2845 478 
Q 3156 559 3463 722 
L 3463 178 
Q 3153 47 2828 -22 
Q 2503 -91 2169 -91 
Q 1331 -91 842 396 
Q 353 884 353 1716 
Q 353 2575 817 3079 
Q 1281 3584 2069 3584 
Q 2775 3584 3186 3129 
Q 3597 2675 3597 1894 
z
M 3022 2063 
Q 3016 2534 2758 2815 
Q 2500 3097 2075 3097 
Q 1594 3097 1305 2825 
Q 1016 2553 972 2059 
L 3022 2063 
z
" transform="scale(0.015625)"/>
       <path id="DejaVuSans-66" d="M 2375 4863 
L 2375 4384 
L 1825 4384 
Q 1516 4384 1395 4259 
Q 1275 4134 1275 3809 
L 1275 3500 
L 2222 3500 
L 2222 3053 
L 1275 3053 
L 1275 0 
L 697 0 
L 697 3053 
L 147 3053 
L 147 3500 
L 697 3500 
L 697 3744 
Q 697 4328 969 4595 
Q 1241 4863 1831 4863 
L 2375 4863 
z
" transform="scale(0.015625)"/>
       <path id="DejaVuSans-69" d="M 603 3500 
L 1178 3500 
L 1178 0 
L 603 0 
L 603 3500 
z
M 603 4863 
L 1178 4863 
L 1178 4134 
L 603 4134 
L 603 4863 
z
" transform="scale(0.015625)"/>
       <path id="DejaVuSans-63" d="M 3122 3366 
L 3122 2828 
Q 2878 2963 2633 3030 
Q 2388 3097 2138 3097 
Q 1578 3097 1268 2742 
Q 959 2388 959 1747 
Q 959 1106 1268 751 
Q 1578 397 2138 397 
Q 2388 397 2633 464 
Q 2878 531 3122 666 
L 3122 134 
Q 2881 22 2623 -34 
Q 2366 -91 2075 -91 
Q 1284 -91 818 406 
Q 353 903 353 1747 
Q 353 2603 823 3093 
Q 1294 3584 2113 3584 
Q 2378 3584 2631 3529 
Q 2884 3475 3122 3366 
z
" transform="scale(0.015625)"/>
       <path id="DejaVuSans-6e" d="M 3513 2113 
L 3513 0 
L 2938 0 
L 2938 2094 
Q 2938 2591 2744 2837 
Q 2550 3084 2163 3084 
Q 1697 3084 1428 2787 
Q 1159 2491 1159 1978 
L 1159 0 
L 581 0 
L 581 3500 
L 1159 3500 
L 1159 2956 
Q 1366 3272 1645 3428 
Q 1925 3584 2291 3584 
Q 2894 3584 3203 3211 
Q 3513 2838 3513 2113 
z
" transform="scale(0.015625)"/>
       <path id="DejaVuSans-74" d="M 1172 4494 
L 1172 3500 
L 2356 3500 
L 2356 3053 
L 1172 3053 
L 1172 1153 
Q 1172 725 1289 603 
Q 1406 481 1766 481 
L 2356 481 
L 2356 0 
L 1766 0 
Q 1100 0 847 248 
Q 594 497 594 1153 
L 594 3053 
L 172 3053 
L 172 3500 
L 594 3500 
L 594 4494 
L 1172 4494 
z
" transform="scale(0.015625)"/>
      </defs>
      <use xlink:href="#DejaVuSans-43"/>
      <use xlink:href="#DejaVuSans-6f" x="69.824219"/>
      <use xlink:href="#DejaVuSans-65" x="131.005859"/>
      <use xlink:href="#DejaVuSans-66" x="192.529297"/>
      <use xlink:href="#DejaVuSans-66" x="227.734375"/>
      <use xlink:href="#DejaVuSans-69" x="262.939453"/>
      <use xlink:href="#DejaVuSans-63" x="290.722656"/>
      <use xlink:href="#DejaVuSans-69" x="345.703125"/>
      <use xlink:href="#DejaVuSans-65" x="373.486328"/>
      <use xlink:href="#DejaVuSans-6e" x="435.009766"/>
      <use xlink:href="#DejaVuSans-74" x="498.388672"/>
     </g>
    </g>
   </g>
   <g id="matplotlib.axis_2">
    <g id="ytick_1">
     <g id="line2d_16">
      <path d="M 139.86875 294.452266 
L 445.93875 294.452266 
" clip-path="url(#pb58be4813d)" style="fill: none; stroke-dasharray: 2.96,1.28; stroke-dashoffset: 0; stroke: #808080; stroke-opacity: 0.3; stroke-width: 0.8"/>
     </g>
     <g id="line2d_17">
      <defs>
       <path id="me870146dc3" d="M 0 0 
L -3.5 0 
" style="stroke: #000000; stroke-width: 0.8"/>
      </defs>
      <g>
       <use xlink:href="#me870146dc3" x="139.86875" y="294.452266" style="stroke: #000000; stroke-width: 0.8"/>
      </g>
     </g>
     <g id="text_9">
      <!-- BLOOD ALBUMIN -->
      <g transform="translate(48.525 298.251485) scale(0.1 -0.1)">
       <defs>
        <path id="DejaVuSans-42" d="M 1259 2228 
L 1259 519 
L 2272 519 
Q 2781 519 3026 730 
Q 3272 941 3272 1375 
Q 3272 1813 3026 2020 
Q 2781 2228 2272 2228 
L 1259 2228 
z
M 1259 4147 
L 1259 2741 
L 2194 2741 
Q 2656 2741 2882 2914 
Q 3109 3088 3109 3444 
Q 3109 3797 2882 3972 
Q 2656 4147 2194 4147 
L 1259 4147 
z
M 628 4666 
L 2241 4666 
Q 2963 4666 3353 4366 
Q 3744 4066 3744 3513 
Q 3744 3084 3544 2831 
Q 3344 2578 2956 2516 
Q 3422 2416 3680 2098 
Q 3938 1781 3938 1306 
Q 3938 681 3513 340 
Q 3088 0 2303 0 
L 628 0 
L 628 4666 
z
" transform="scale(0.015625)"/>
        <path id="DejaVuSans-4c" d="M 628 4666 
L 1259 4666 
L 1259 531 
L 3531 531 
L 3531 0 
L 628 0 
L 628 4666 
z
" transform="scale(0.015625)"/>
        <path id="DejaVuSans-4f" d="M 2522 4238 
Q 1834 4238 1429 3725 
Q 1025 3213 1025 2328 
Q 1025 1447 1429 934 
Q 1834 422 2522 422 
Q 3209 422 3611 934 
Q 4013 1447 4013 2328 
Q 4013 3213 3611 3725 
Q 3209 4238 2522 4238 
z
M 2522 4750 
Q 3503 4750 4090 4092 
Q 4678 3434 4678 2328 
Q 4678 1225 4090 567 
Q 3503 -91 2522 -91 
Q 1538 -91 948 565 
Q 359 1222 359 2328 
Q 359 3434 948 4092 
Q 1538 4750 2522 4750 
z
" transform="scale(0.015625)"/>
        <path id="DejaVuSans-44" d="M 1259 4147 
L 1259 519 
L 2022 519 
Q 2988 519 3436 956 
Q 3884 1394 3884 2338 
Q 3884 3275 3436 3711 
Q 2988 4147 2022 4147 
L 1259 4147 
z
M 628 4666 
L 1925 4666 
Q 3281 4666 3915 4102 
Q 4550 3538 4550 2338 
Q 4550 1131 3912 565 
Q 3275 0 1925 0 
L 628 0 
L 628 4666 
z
" transform="scale(0.015625)"/>
        <path id="DejaVuSans-20" transform="scale(0.015625)"/>
        <path id="DejaVuSans-41" d="M 2188 4044 
L 1331 1722 
L 3047 1722 
L 2188 4044 
z
M 1831 4666 
L 2547 4666 
L 4325 0 
L 3669 0 
L 3244 1197 
L 1141 1197 
L 716 0 
L 50 0 
L 1831 4666 
z
" transform="scale(0.015625)"/>
        <path id="DejaVuSans-55" d="M 556 4666 
L 1191 4666 
L 1191 1831 
Q 1191 1081 1462 751 
Q 1734 422 2344 422 
Q 2950 422 3222 751 
Q 3494 1081 3494 1831 
L 3494 4666 
L 4128 4666 
L 4128 1753 
Q 4128 841 3676 375 
Q 3225 -91 2344 -91 
Q 1459 -91 1007 375 
Q 556 841 556 1753 
L 556 4666 
z
" transform="scale(0.015625)"/>
        <path id="DejaVuSans-4d" d="M 628 4666 
L 1569 4666 
L 2759 1491 
L 3956 4666 
L 4897 4666 
L 4897 0 
L 4281 0 
L 4281 4097 
L 3078 897 
L 2444 897 
L 1241 4097 
L 1241 0 
L 628 0 
L 628 4666 
z
" transform="scale(0.015625)"/>
        <path id="DejaVuSans-49" d="M 628 4666 
L 1259 4666 
L 1259 0 
L 628 0 
L 628 4666 
z
" transform="scale(0.015625)"/>
        <path id="DejaVuSans-4e" d="M 628 4666 
L 1478 4666 
L 3547 763 
L 3547 4666 
L 4159 4666 
L 4159 0 
L 3309 0 
L 1241 3903 
L 1241 0 
L 628 0 
L 628 4666 
z
" transform="scale(0.015625)"/>
       </defs>
       <use xlink:href="#DejaVuSans-42"/>
       <use xlink:href="#DejaVuSans-4c" x="68.603516"/>
       <use xlink:href="#DejaVuSans-4f" x="120.691406"/>
       <use xlink:href="#DejaVuSans-4f" x="199.402344"/>
       <use xlink:href="#DejaVuSans-44" x="278.113281"/>
       <use xlink:href="#DejaVuSans-20" x="355.115234"/>
       <use xlink:href="#DejaVuSans-41" x="386.902344"/>
       <use xlink:href="#DejaVuSans-4c" x="455.310547"/>
       <use xlink:href="#DejaVuSans-42" x="511.023438"/>
       <use xlink:href="#DejaVuSans-55" x="579.626953"/>
       <use xlink:href="#DejaVuSans-4d" x="652.820312"/>
       <use xlink:href="#DejaVuSans-49" x="739.099609"/>
       <use xlink:href="#DejaVuSans-4e" x="768.591797"/>
      </g>
     </g>
    </g>
    <g id="ytick_2">
     <g id="line2d_18">
      <path d="M 139.86875 257.477519 
L 445.93875 257.477519 
" clip-path="url(#pb58be4813d)" style="fill: none; stroke-dasharray: 2.96,1.28; stroke-dashoffset: 0; stroke: #808080; stroke-opacity: 0.3; stroke-width: 0.8"/>
     </g>
     <g id="line2d_19">
      <g>
       <use xlink:href="#me870146dc3" x="139.86875" y="257.477519" style="stroke: #000000; stroke-width: 0.8"/>
      </g>
     </g>
     <g id="text_10">
      <!-- BLOOD -->
      <g transform="translate(97.354688 256.437675) scale(0.1 -0.1)">
       <use xlink:href="#DejaVuSans-42"/>
       <use xlink:href="#DejaVuSans-4c" x="68.603516"/>
       <use xlink:href="#DejaVuSans-4f" x="120.691406"/>
       <use xlink:href="#DejaVuSans-4f" x="199.402344"/>
       <use xlink:href="#DejaVuSans-44" x="278.113281"/>
      </g>
      <!-- HIGHSENS TNT -->
      <g transform="translate(57.757812 267.635488) scale(0.1 -0.1)">
       <defs>
        <path id="DejaVuSans-48" d="M 628 4666 
L 1259 4666 
L 1259 2753 
L 3553 2753 
L 3553 4666 
L 4184 4666 
L 4184 0 
L 3553 0 
L 3553 2222 
L 1259 2222 
L 1259 0 
L 628 0 
L 628 4666 
z
" transform="scale(0.015625)"/>
        <path id="DejaVuSans-47" d="M 3809 666 
L 3809 1919 
L 2778 1919 
L 2778 2438 
L 4434 2438 
L 4434 434 
Q 4069 175 3628 42 
Q 3188 -91 2688 -91 
Q 1594 -91 976 548 
Q 359 1188 359 2328 
Q 359 3472 976 4111 
Q 1594 4750 2688 4750 
Q 3144 4750 3555 4637 
Q 3966 4525 4313 4306 
L 4313 3634 
Q 3963 3931 3569 4081 
Q 3175 4231 2741 4231 
Q 1884 4231 1454 3753 
Q 1025 3275 1025 2328 
Q 1025 1384 1454 906 
Q 1884 428 2741 428 
Q 3075 428 3337 486 
Q 3600 544 3809 666 
z
" transform="scale(0.015625)"/>
        <path id="DejaVuSans-53" d="M 3425 4513 
L 3425 3897 
Q 3066 4069 2747 4153 
Q 2428 4238 2131 4238 
Q 1616 4238 1336 4038 
Q 1056 3838 1056 3469 
Q 1056 3159 1242 3001 
Q 1428 2844 1947 2747 
L 2328 2669 
Q 3034 2534 3370 2195 
Q 3706 1856 3706 1288 
Q 3706 609 3251 259 
Q 2797 -91 1919 -91 
Q 1588 -91 1214 -16 
Q 841 59 441 206 
L 441 856 
Q 825 641 1194 531 
Q 1563 422 1919 422 
Q 2459 422 2753 634 
Q 3047 847 3047 1241 
Q 3047 1584 2836 1778 
Q 2625 1972 2144 2069 
L 1759 2144 
Q 1053 2284 737 2584 
Q 422 2884 422 3419 
Q 422 4038 858 4394 
Q 1294 4750 2059 4750 
Q 2388 4750 2728 4690 
Q 3069 4631 3425 4513 
z
" transform="scale(0.015625)"/>
        <path id="DejaVuSans-45" d="M 628 4666 
L 3578 4666 
L 3578 4134 
L 1259 4134 
L 1259 2753 
L 3481 2753 
L 3481 2222 
L 1259 2222 
L 1259 531 
L 3634 531 
L 3634 0 
L 628 0 
L 628 4666 
z
" transform="scale(0.015625)"/>
        <path id="DejaVuSans-54" d="M -19 4666 
L 3928 4666 
L 3928 4134 
L 2272 4134 
L 2272 0 
L 1638 0 
L 1638 4134 
L -19 4134 
L -19 4666 
z
" transform="scale(0.015625)"/>
       </defs>
       <use xlink:href="#DejaVuSans-48"/>
       <use xlink:href="#DejaVuSans-49" x="75.195312"/>
       <use xlink:href="#DejaVuSans-47" x="104.6875"/>
       <use xlink:href="#DejaVuSans-48" x="182.177734"/>
       <use xlink:href="#DejaVuSans-53" x="257.373047"/>
       <use xlink:href="#DejaVuSans-45" x="320.849609"/>
       <use xlink:href="#DejaVuSans-4e" x="384.033203"/>
       <use xlink:href="#DejaVuSans-53" x="458.837891"/>
       <use xlink:href="#DejaVuSans-20" x="522.314453"/>
       <use xlink:href="#DejaVuSans-54" x="554.101562"/>
       <use xlink:href="#DejaVuSans-4e" x="615.185547"/>
       <use xlink:href="#DejaVuSans-54" x="689.990234"/>
      </g>
     </g>
    </g>
    <g id="ytick_3">
     <g id="line2d_20">
      <path d="M 139.86875 220.502771 
L 445.93875 220.502771 
" clip-path="url(#pb58be4813d)" style="fill: none; stroke-dasharray: 2.96,1.28; stroke-dashoffset: 0; stroke: #808080; stroke-opacity: 0.3; stroke-width: 0.8"/>
     </g>
     <g id="line2d_21">
      <g>
       <use xlink:href="#me870146dc3" x="139.86875" y="220.502771" style="stroke: #000000; stroke-width: 0.8"/>
      </g>
     </g>
     <g id="text_11">
      <!-- BLOOD IRON -->
      <g transform="translate(68.925 224.30199) scale(0.1 -0.1)">
       <defs>
        <path id="DejaVuSans-52" d="M 2841 2188 
Q 3044 2119 3236 1894 
Q 3428 1669 3622 1275 
L 4263 0 
L 3584 0 
L 2988 1197 
Q 2756 1666 2539 1819 
Q 2322 1972 1947 1972 
L 1259 1972 
L 1259 0 
L 628 0 
L 628 4666 
L 2053 4666 
Q 2853 4666 3247 4331 
Q 3641 3997 3641 3322 
Q 3641 2881 3436 2590 
Q 3231 2300 2841 2188 
z
M 1259 4147 
L 1259 2491 
L 2053 2491 
Q 2509 2491 2742 2702 
Q 2975 2913 2975 3322 
Q 2975 3731 2742 3939 
Q 2509 4147 2053 4147 
L 1259 4147 
z
" transform="scale(0.015625)"/>
       </defs>
       <use xlink:href="#DejaVuSans-42"/>
       <use xlink:href="#DejaVuSans-4c" x="68.603516"/>
       <use xlink:href="#DejaVuSans-4f" x="120.691406"/>
       <use xlink:href="#DejaVuSans-4f" x="199.402344"/>
       <use xlink:href="#DejaVuSans-44" x="278.113281"/>
       <use xlink:href="#DejaVuSans-20" x="355.115234"/>
       <use xlink:href="#DejaVuSans-49" x="386.902344"/>
       <use xlink:href="#DejaVuSans-52" x="416.394531"/>
       <use xlink:href="#DejaVuSans-4f" x="485.876953"/>
       <use xlink:href="#DejaVuSans-4e" x="564.587891"/>
      </g>
     </g>
    </g>
    <g id="ytick_4">
     <g id="line2d_22">
      <path d="M 139.86875 183.528024 
L 445.93875 183.528024 
" clip-path="url(#pb58be4813d)" style="fill: none; stroke-dasharray: 2.96,1.28; stroke-dashoffset: 0; stroke: #808080; stroke-opacity: 0.3; stroke-width: 0.8"/>
     </g>
     <g id="line2d_23">
      <g>
       <use xlink:href="#me870146dc3" x="139.86875" y="183.528024" style="stroke: #000000; stroke-width: 0.8"/>
      </g>
     </g>
     <g id="text_12">
      <!-- BLOOD PLATELET -->
      <g transform="translate(45.859375 187.327243) scale(0.1 -0.1)">
       <defs>
        <path id="DejaVuSans-50" d="M 1259 4147 
L 1259 2394 
L 2053 2394 
Q 2494 2394 2734 2622 
Q 2975 2850 2975 3272 
Q 2975 3691 2734 3919 
Q 2494 4147 2053 4147 
L 1259 4147 
z
M 628 4666 
L 2053 4666 
Q 2838 4666 3239 4311 
Q 3641 3956 3641 3272 
Q 3641 2581 3239 2228 
Q 2838 1875 2053 1875 
L 1259 1875 
L 1259 0 
L 628 0 
L 628 4666 
z
" transform="scale(0.015625)"/>
       </defs>
       <use xlink:href="#DejaVuSans-42"/>
       <use xlink:href="#DejaVuSans-4c" x="68.603516"/>
       <use xlink:href="#DejaVuSans-4f" x="120.691406"/>
       <use xlink:href="#DejaVuSans-4f" x="199.402344"/>
       <use xlink:href="#DejaVuSans-44" x="278.113281"/>
       <use xlink:href="#DejaVuSans-20" x="355.115234"/>
       <use xlink:href="#DejaVuSans-50" x="386.902344"/>
       <use xlink:href="#DejaVuSans-4c" x="447.205078"/>
       <use xlink:href="#DejaVuSans-41" x="505.167969"/>
       <use xlink:href="#DejaVuSans-54" x="565.826172"/>
       <use xlink:href="#DejaVuSans-45" x="626.910156"/>
       <use xlink:href="#DejaVuSans-4c" x="690.09375"/>
       <use xlink:href="#DejaVuSans-45" x="745.806641"/>
       <use xlink:href="#DejaVuSans-54" x="808.990234"/>
      </g>
     </g>
    </g>
    <g id="ytick_5">
     <g id="line2d_24">
      <path d="M 139.86875 146.553277 
L 445.93875 146.553277 
" clip-path="url(#pb58be4813d)" style="fill: none; stroke-dasharray: 2.96,1.28; stroke-dashoffset: 0; stroke: #808080; stroke-opacity: 0.3; stroke-width: 0.8"/>
     </g>
     <g id="line2d_25">
      <g>
       <use xlink:href="#me870146dc3" x="139.86875" y="146.553277" style="stroke: #000000; stroke-width: 0.8"/>
      </g>
     </g>
     <g id="text_13">
      <!-- BLOOD POTASSIUM -->
      <g transform="translate(36.507812 150.352495) scale(0.1 -0.1)">
       <use xlink:href="#DejaVuSans-42"/>
       <use xlink:href="#DejaVuSans-4c" x="68.603516"/>
       <use xlink:href="#DejaVuSans-4f" x="120.691406"/>
       <use xlink:href="#DejaVuSans-4f" x="199.402344"/>
       <use xlink:href="#DejaVuSans-44" x="278.113281"/>
       <use xlink:href="#DejaVuSans-20" x="355.115234"/>
       <use xlink:href="#DejaVuSans-50" x="386.902344"/>
       <use xlink:href="#DejaVuSans-4f" x="447.205078"/>
       <use xlink:href="#DejaVuSans-54" x="525.916016"/>
       <use xlink:href="#DejaVuSans-41" x="579.25"/>
       <use xlink:href="#DejaVuSans-53" x="647.658203"/>
       <use xlink:href="#DejaVuSans-53" x="711.134766"/>
       <use xlink:href="#DejaVuSans-49" x="774.611328"/>
       <use xlink:href="#DejaVuSans-55" x="804.103516"/>
       <use xlink:href="#DejaVuSans-4d" x="877.296875"/>
      </g>
     </g>
    </g>
    <g id="ytick_6">
     <g id="line2d_26">
      <path d="M 139.86875 109.578529 
L 445.93875 109.578529 
" clip-path="url(#pb58be4813d)" style="fill: none; stroke-dasharray: 2.96,1.28; stroke-dashoffset: 0; stroke: #808080; stroke-opacity: 0.3; stroke-width: 0.8"/>
     </g>
     <g id="line2d_27">
      <g>
       <use xlink:href="#me870146dc3" x="139.86875" y="109.578529" style="stroke: #000000; stroke-width: 0.8"/>
      </g>
     </g>
     <g id="text_14">
      <!-- BLOOD TRYGLYCERIDE -->
      <g transform="translate(20.878125 113.377748) scale(0.1 -0.1)">
       <defs>
        <path id="DejaVuSans-59" d="M -13 4666 
L 666 4666 
L 1959 2747 
L 3244 4666 
L 3922 4666 
L 2272 2222 
L 2272 0 
L 1638 0 
L 1638 2222 
L -13 4666 
z
" transform="scale(0.015625)"/>
       </defs>
       <use xlink:href="#DejaVuSans-42"/>
       <use xlink:href="#DejaVuSans-4c" x="68.603516"/>
       <use xlink:href="#DejaVuSans-4f" x="120.691406"/>
       <use xlink:href="#DejaVuSans-4f" x="199.402344"/>
       <use xlink:href="#DejaVuSans-44" x="278.113281"/>
       <use xlink:href="#DejaVuSans-20" x="355.115234"/>
       <use xlink:href="#DejaVuSans-54" x="386.902344"/>
       <use xlink:href="#DejaVuSans-52" x="447.986328"/>
       <use xlink:href="#DejaVuSans-59" x="511.09375"/>
       <use xlink:href="#DejaVuSans-47" x="572.177734"/>
       <use xlink:href="#DejaVuSans-4c" x="649.667969"/>
       <use xlink:href="#DejaVuSans-59" x="692.130859"/>
       <use xlink:href="#DejaVuSans-43" x="747.714844"/>
       <use xlink:href="#DejaVuSans-45" x="817.539062"/>
       <use xlink:href="#DejaVuSans-52" x="880.722656"/>
       <use xlink:href="#DejaVuSans-49" x="950.205078"/>
       <use xlink:href="#DejaVuSans-44" x="979.697266"/>
       <use xlink:href="#DejaVuSans-45" x="1056.699219"/>
      </g>
     </g>
    </g>
    <g id="ytick_7">
     <g id="line2d_28">
      <path d="M 139.86875 72.603782 
L 445.93875 72.603782 
" clip-path="url(#pb58be4813d)" style="fill: none; stroke-dasharray: 2.96,1.28; stroke-dashoffset: 0; stroke: #808080; stroke-opacity: 0.3; stroke-width: 0.8"/>
     </g>
     <g id="line2d_29">
      <g>
       <use xlink:href="#me870146dc3" x="139.86875" y="72.603782" style="stroke: #000000; stroke-width: 0.8"/>
      </g>
     </g>
     <g id="text_15">
      <!-- CIRCULATION -->
      <g transform="translate(65.9125 76.403) scale(0.1 -0.1)">
       <use xlink:href="#DejaVuSans-43"/>
       <use xlink:href="#DejaVuSans-49" x="69.824219"/>
       <use xlink:href="#DejaVuSans-52" x="99.316406"/>
       <use xlink:href="#DejaVuSans-43" x="163.798828"/>
       <use xlink:href="#DejaVuSans-55" x="233.623047"/>
       <use xlink:href="#DejaVuSans-4c" x="306.816406"/>
       <use xlink:href="#DejaVuSans-41" x="364.779297"/>
       <use xlink:href="#DejaVuSans-54" x="425.4375"/>
       <use xlink:href="#DejaVuSans-49" x="486.521484"/>
       <use xlink:href="#DejaVuSans-4f" x="516.013672"/>
       <use xlink:href="#DejaVuSans-4e" x="594.724609"/>
      </g>
     </g>
    </g>
    <g id="ytick_8">
     <g id="line2d_30">
      <path d="M 139.86875 35.629034 
L 445.93875 35.629034 
" clip-path="url(#pb58be4813d)" style="fill: none; stroke-dasharray: 2.96,1.28; stroke-dashoffset: 0; stroke: #808080; stroke-opacity: 0.3; stroke-width: 0.8"/>
     </g>
     <g id="line2d_31">
      <g>
       <use xlink:href="#me870146dc3" x="139.86875" y="35.629034" style="stroke: #000000; stroke-width: 0.8"/>
      </g>
     </g>
     <g id="text_16">
      <!-- DIABETES -->
      <g transform="translate(83.423438 39.428253) scale(0.1 -0.1)">
       <use xlink:href="#DejaVuSans-44"/>
       <use xlink:href="#DejaVuSans-49" x="77.001953"/>
       <use xlink:href="#DejaVuSans-41" x="106.494141"/>
       <use xlink:href="#DejaVuSans-42" x="174.902344"/>
       <use xlink:href="#DejaVuSans-45" x="243.505859"/>
       <use xlink:href="#DejaVuSans-54" x="306.689453"/>
       <use xlink:href="#DejaVuSans-45" x="367.773438"/>
       <use xlink:href="#DejaVuSans-53" x="430.957031"/>
      </g>
     </g>
    </g>
    <g id="text_17">
     <!-- Marker -->
     <g transform="translate(14.798437 186.017812) rotate(-90) scale(0.1 -0.1)">
      <defs>
       <path id="DejaVuSans-61" d="M 2194 1759 
Q 1497 1759 1228 1600 
Q 959 1441 959 1056 
Q 959 750 1161 570 
Q 1363 391 1709 391 
Q 2188 391 2477 730 
Q 2766 1069 2766 1631 
L 2766 1759 
L 2194 1759 
z
M 3341 1997 
L 3341 0 
L 2766 0 
L 2766 531 
Q 2569 213 2275 61 
Q 1981 -91 1556 -91 
Q 1019 -91 701 211 
Q 384 513 384 1019 
Q 384 1609 779 1909 
Q 1175 2209 1959 2209 
L 2766 2209 
L 2766 2266 
Q 2766 2663 2505 2880 
Q 2244 3097 1772 3097 
Q 1472 3097 1187 3025 
Q 903 2953 641 2809 
L 641 3341 
Q 956 3463 1253 3523 
Q 1550 3584 1831 3584 
Q 2591 3584 2966 3190 
Q 3341 2797 3341 1997 
z
" transform="scale(0.015625)"/>
       <path id="DejaVuSans-72" d="M 2631 2963 
Q 2534 3019 2420 3045 
Q 2306 3072 2169 3072 
Q 1681 3072 1420 2755 
Q 1159 2438 1159 1844 
L 1159 0 
L 581 0 
L 581 3500 
L 1159 3500 
L 1159 2956 
Q 1341 3275 1631 3429 
Q 1922 3584 2338 3584 
Q 2397 3584 2469 3576 
Q 2541 3569 2628 3553 
L 2631 2963 
z
" transform="scale(0.015625)"/>
       <path id="DejaVuSans-6b" d="M 581 4863 
L 1159 4863 
L 1159 1991 
L 2875 3500 
L 3609 3500 
L 1753 1863 
L 3688 0 
L 2938 0 
L 1159 1709 
L 1159 0 
L 581 0 
L 581 4863 
z
" transform="scale(0.015625)"/>
      </defs>
      <use xlink:href="#DejaVuSans-4d"/>
      <use xlink:href="#DejaVuSans-61" x="86.279297"/>
      <use xlink:href="#DejaVuSans-72" x="147.558594"/>
      <use xlink:href="#DejaVuSans-6b" x="188.671875"/>
      <use xlink:href="#DejaVuSans-65" x="242.957031"/>
      <use xlink:href="#DejaVuSans-72" x="304.480469"/>
     </g>
    </g>
   </g>
   <g id="line2d_32">
    <path d="M 263.304271 301.847216 
L 331.340186 301.847216 
" clip-path="url(#pb58be4813d)" style="fill: none; stroke: #808080; stroke-opacity: 0.5; stroke-width: 1.5; stroke-linecap: square"/>
   </g>
   <g id="line2d_33">
    <path d="M 153.781023 264.872468 
L 309.675234 264.872468 
" clip-path="url(#pb58be4813d)" style="fill: none; stroke: #808080; stroke-opacity: 0.5; stroke-width: 1.5; stroke-linecap: square"/>
   </g>
   <g id="line2d_34">
    <path d="M 270.621256 190.922973 
L 329.672646 190.922973 
" clip-path="url(#pb58be4813d)" style="fill: none; stroke: #808080; stroke-opacity: 0.5; stroke-width: 1.5; stroke-linecap: square"/>
   </g>
   <g id="line2d_35">
    <path d="M 334.450338 153.948226 
L 432.026477 153.948226 
" clip-path="url(#pb58be4813d)" style="fill: none; stroke: #808080; stroke-opacity: 0.5; stroke-width: 1.5; stroke-linecap: square"/>
   </g>
   <g id="line2d_36">
    <path d="M 336.75629 79.998731 
L 371.294199 79.998731 
" clip-path="url(#pb58be4813d)" style="fill: none; stroke: #808080; stroke-opacity: 0.5; stroke-width: 1.5; stroke-linecap: square"/>
   </g>
   <g id="line2d_37">
    <path d="M 323.415933 43.023984 
L 333.955954 43.023984 
" clip-path="url(#pb58be4813d)" style="fill: none; stroke: #808080; stroke-opacity: 0.5; stroke-width: 1.5; stroke-linecap: square"/>
   </g>
   <g id="line2d_38">
    <path d="M 238.273486 294.452266 
L 310.370132 294.452266 
" clip-path="url(#pb58be4813d)" style="fill: none; stroke: #808080; stroke-opacity: 0.5; stroke-width: 1.5; stroke-linecap: square"/>
   </g>
   <g id="line2d_39">
    <path d="M 263.459431 183.528024 
L 321.670438 183.528024 
" clip-path="url(#pb58be4813d)" style="fill: none; stroke: #808080; stroke-opacity: 0.5; stroke-width: 1.5; stroke-linecap: square"/>
   </g>
   <g id="line2d_40">
    <path d="M 322.829379 35.629034 
L 332.759121 35.629034 
" clip-path="url(#pb58be4813d)" style="fill: none; stroke: #808080; stroke-opacity: 0.5; stroke-width: 1.5; stroke-linecap: square"/>
   </g>
   <g id="line2d_41">
    <path d="M 250.901998 287.057317 
L 321.835603 287.057317 
" clip-path="url(#pb58be4813d)" style="fill: none; stroke: #808080; stroke-opacity: 0.5; stroke-width: 1.5; stroke-linecap: square"/>
   </g>
   <g id="line2d_42">
    <path d="M 155.113795 213.107822 
L 332.063298 213.107822 
" clip-path="url(#pb58be4813d)" style="fill: none; stroke: #808080; stroke-opacity: 0.5; stroke-width: 1.5; stroke-linecap: square"/>
   </g>
   <g id="line2d_43">
    <path d="M 282.158863 176.133074 
L 334.008267 176.133074 
" clip-path="url(#pb58be4813d)" style="fill: none; stroke: #808080; stroke-opacity: 0.5; stroke-width: 1.5; stroke-linecap: square"/>
   </g>
   <g id="line2d_44">
    <path d="M 338.084944 102.18358 
L 431.77508 102.18358 
" clip-path="url(#pb58be4813d)" style="fill: none; stroke: #808080; stroke-opacity: 0.5; stroke-width: 1.5; stroke-linecap: square"/>
   </g>
   <g id="patch_3">
    <path d="M 139.86875 315.158125 
L 139.86875 22.318125 
" style="fill: none; stroke: #000000; stroke-width: 0.8; stroke-linejoin: miter; stroke-linecap: square"/>
   </g>
   <g id="patch_4">
    <path d="M 139.86875 315.158125 
L 445.93875 315.158125 
" style="fill: none; stroke: #000000; stroke-width: 0.8; stroke-linejoin: miter; stroke-linecap: square"/>
   </g>
   <g id="PathCollection_1">
    <path d="M 297.322229 306.847216 
C 298.648244 306.847216 299.920128 306.320384 300.857763 305.38275 
C 301.795397 304.445115 302.322229 303.173231 302.322229 301.847216 
C 302.322229 300.5212 301.795397 299.249317 300.857763 298.311682 
C 299.920128 297.374047 298.648244 296.847216 297.322229 296.847216 
C 295.996213 296.847216 294.724329 297.374047 293.786695 298.311682 
C 292.84906 299.249317 292.322229 300.5212 292.322229 301.847216 
C 292.322229 303.173231 292.84906 304.445115 293.786695 305.38275 
C 294.724329 306.320384 295.996213 306.847216 297.322229 306.847216 
z
" clip-path="url(#pb58be4813d)" style="fill: #1f77b4; stroke: #ffffff; stroke-width: 0.8"/>
    <path d="M 231.728128 269.872468 
C 233.054144 269.872468 234.326028 269.345637 235.263662 268.408002 
C 236.201297 267.470368 236.728128 266.198484 236.728128 264.872468 
C 236.728128 263.546453 236.201297 262.274569 235.263662 261.336935 
C 234.326028 260.3993 233.054144 259.872468 231.728128 259.872468 
C 230.402113 259.872468 229.130229 260.3993 228.192594 261.336935 
C 227.25496 262.274569 226.728128 263.546453 226.728128 264.872468 
C 226.728128 266.198484 227.25496 267.470368 228.192594 268.408002 
C 229.130229 269.345637 230.402113 269.872468 231.728128 269.872468 
z
" clip-path="url(#pb58be4813d)" style="fill: #1f77b4; stroke: #ffffff; stroke-width: 0.8"/>
    <path d="M 300.146951 195.922973 
C 301.472966 195.922973 302.74485 195.396142 303.682485 194.458507 
C 304.620119 193.520873 305.146951 192.248989 305.146951 190.922973 
C 305.146951 189.596958 304.620119 188.325074 303.682485 187.38744 
C 302.74485 186.449805 301.472966 185.922973 300.146951 185.922973 
C 298.820935 185.922973 297.549052 186.449805 296.611417 187.38744 
C 295.673782 188.325074 295.146951 189.596958 295.146951 190.922973 
C 295.146951 192.248989 295.673782 193.520873 296.611417 194.458507 
C 297.549052 195.396142 298.820935 195.922973 300.146951 195.922973 
z
" clip-path="url(#pb58be4813d)" style="fill: #1f77b4; stroke: #ffffff; stroke-width: 0.8"/>
    <path d="M 383.238408 158.948226 
C 384.564423 158.948226 385.836307 158.421394 386.773941 157.48376 
C 387.711576 156.546125 388.238408 155.274242 388.238408 153.948226 
C 388.238408 152.622211 387.711576 151.350327 386.773941 150.412692 
C 385.836307 149.475058 384.564423 148.948226 383.238408 148.948226 
C 381.912392 148.948226 380.640508 149.475058 379.702874 150.412692 
C 378.765239 151.350327 378.238408 152.622211 378.238408 153.948226 
C 378.238408 155.274242 378.765239 156.546125 379.702874 157.48376 
C 380.640508 158.421394 381.912392 158.948226 383.238408 158.948226 
z
" clip-path="url(#pb58be4813d)" style="fill: #1f77b4; stroke: #ffffff; stroke-width: 0.8"/>
    <path d="M 354.025245 84.998731 
C 355.35126 84.998731 356.623144 84.4719 357.560779 83.534265 
C 358.498413 82.59663 359.025245 81.324747 359.025245 79.998731 
C 359.025245 78.672716 358.498413 77.400832 357.560779 76.463197 
C 356.623144 75.525563 355.35126 74.998731 354.025245 74.998731 
C 352.699229 74.998731 351.427345 75.525563 350.489711 76.463197 
C 349.552076 77.400832 349.025245 78.672716 349.025245 79.998731 
C 349.025245 81.324747 349.552076 82.59663 350.489711 83.534265 
C 351.427345 84.4719 352.699229 84.998731 354.025245 84.998731 
z
" clip-path="url(#pb58be4813d)" style="fill: #1f77b4; stroke: #ffffff; stroke-width: 0.8"/>
    <path d="M 328.685943 48.023984 
C 330.011959 48.023984 331.283843 47.497152 332.221477 46.559517 
C 333.159112 45.621883 333.685943 44.349999 333.685943 43.023984 
C 333.685943 41.697968 333.159112 40.426084 332.221477 39.48845 
C 331.283843 38.550815 330.011959 38.023984 328.685943 38.023984 
C 327.359928 38.023984 326.088044 38.550815 325.15041 39.48845 
C 324.212775 40.426084 323.685943 41.697968 323.685943 43.023984 
C 323.685943 44.349999 324.212775 45.621883 325.15041 46.559517 
C 326.088044 47.497152 327.359928 48.023984 328.685943 48.023984 
z
" clip-path="url(#pb58be4813d)" style="fill: #1f77b4; stroke: #ffffff; stroke-width: 0.8"/>
    <path d="M 271.821809 299.452266 
L 274.321809 296.952266 
L 276.821809 299.452266 
L 279.321809 296.952266 
L 276.821809 294.452266 
L 279.321809 291.952266 
L 276.821809 289.452266 
L 274.321809 291.952266 
L 271.821809 289.452266 
L 269.321809 291.952266 
L 271.821809 294.452266 
L 269.321809 296.952266 
z
" clip-path="url(#pb58be4813d)" style="fill: #ff7f0e; stroke: #ffffff; stroke-width: 0.8"/>
    <path d="M 290.064934 188.528024 
L 292.564934 186.028024 
L 295.064934 188.528024 
L 297.564934 186.028024 
L 295.064934 183.528024 
L 297.564934 181.028024 
L 295.064934 178.528024 
L 292.564934 181.028024 
L 290.064934 178.528024 
L 287.564934 181.028024 
L 290.064934 183.528024 
L 287.564934 186.028024 
z
" clip-path="url(#pb58be4813d)" style="fill: #ff7f0e; stroke: #ffffff; stroke-width: 0.8"/>
    <path d="M 325.29425 40.629034 
L 327.79425 38.129034 
L 330.29425 40.629034 
L 332.79425 38.129034 
L 330.29425 35.629034 
L 332.79425 33.129034 
L 330.29425 30.629034 
L 327.79425 33.129034 
L 325.29425 30.629034 
L 322.79425 33.129034 
L 325.29425 35.629034 
L 322.79425 38.129034 
z
" clip-path="url(#pb58be4813d)" style="fill: #ff7f0e; stroke: #ffffff; stroke-width: 0.8"/>
    <path d="M 282.833267 283.521783 
L 282.833267 290.592851 
L 289.904334 290.592851 
L 289.904334 283.521783 
z
" clip-path="url(#pb58be4813d)" style="fill: #2ca02c; stroke: #ffffff; stroke-width: 0.8"/>
    <path d="M 240.053013 209.572288 
L 240.053013 216.643356 
L 247.12408 216.643356 
L 247.12408 209.572288 
z
" clip-path="url(#pb58be4813d)" style="fill: #2ca02c; stroke: #ffffff; stroke-width: 0.8"/>
    <path d="M 304.548031 172.597541 
L 304.548031 179.668608 
L 311.619099 179.668608 
L 311.619099 172.597541 
z
" clip-path="url(#pb58be4813d)" style="fill: #2ca02c; stroke: #ffffff; stroke-width: 0.8"/>
    <path d="M 381.394478 98.648046 
L 381.394478 105.719113 
L 388.465546 105.719113 
L 388.465546 98.648046 
z
" clip-path="url(#pb58be4813d)" style="fill: #2ca02c; stroke: #ffffff; stroke-width: 0.8"/>
   </g>
   <g id="line2d_45"/>
   <g id="line2d_46"/>
   <g id="line2d_47"/>
   <g id="text_18">
    <!-- Associations in LBC cohort -->
    <g transform="translate(213.618438 16.318125) scale(0.12 -0.12)">
     <defs>
      <path id="DejaVuSans-73" d="M 2834 3397 
L 2834 2853 
Q 2591 2978 2328 3040 
Q 2066 3103 1784 3103 
Q 1356 3103 1142 2972 
Q 928 2841 928 2578 
Q 928 2378 1081 2264 
Q 1234 2150 1697 2047 
L 1894 2003 
Q 2506 1872 2764 1633 
Q 3022 1394 3022 966 
Q 3022 478 2636 193 
Q 2250 -91 1575 -91 
Q 1294 -91 989 -36 
Q 684 19 347 128 
L 347 722 
Q 666 556 975 473 
Q 1284 391 1588 391 
Q 1994 391 2212 530 
Q 2431 669 2431 922 
Q 2431 1156 2273 1281 
Q 2116 1406 1581 1522 
L 1381 1569 
Q 847 1681 609 1914 
Q 372 2147 372 2553 
Q 372 3047 722 3315 
Q 1072 3584 1716 3584 
Q 2034 3584 2315 3537 
Q 2597 3491 2834 3397 
z
" transform="scale(0.015625)"/>
      <path id="DejaVuSans-68" d="M 3513 2113 
L 3513 0 
L 2938 0 
L 2938 2094 
Q 2938 2591 2744 2837 
Q 2550 3084 2163 3084 
Q 1697 3084 1428 2787 
Q 1159 2491 1159 1978 
L 1159 0 
L 581 0 
L 581 4863 
L 1159 4863 
L 1159 2956 
Q 1366 3272 1645 3428 
Q 1925 3584 2291 3584 
Q 2894 3584 3203 3211 
Q 3513 2838 3513 2113 
z
" transform="scale(0.015625)"/>
     </defs>
     <use xlink:href="#DejaVuSans-41"/>
     <use xlink:href="#DejaVuSans-73" x="68.408203"/>
     <use xlink:href="#DejaVuSans-73" x="120.507812"/>
     <use xlink:href="#DejaVuSans-6f" x="172.607422"/>
     <use xlink:href="#DejaVuSans-63" x="233.789062"/>
     <use xlink:href="#DejaVuSans-69" x="288.769531"/>
     <use xlink:href="#DejaVuSans-61" x="316.552734"/>
     <use xlink:href="#DejaVuSans-74" x="377.832031"/>
     <use xlink:href="#DejaVuSans-69" x="417.041016"/>
     <use xlink:href="#DejaVuSans-6f" x="444.824219"/>
     <use xlink:href="#DejaVuSans-6e" x="506.005859"/>
     <use xlink:href="#DejaVuSans-73" x="569.384766"/>
     <use xlink:href="#DejaVuSans-20" x="621.484375"/>
     <use xlink:href="#DejaVuSans-69" x="653.271484"/>
     <use xlink:href="#DejaVuSans-6e" x="681.054688"/>
     <use xlink:href="#DejaVuSans-20" x="744.433594"/>
     <use xlink:href="#DejaVuSans-4c" x="776.220703"/>
     <use xlink:href="#DejaVuSans-42" x="831.933594"/>
     <use xlink:href="#DejaVuSans-43" x="898.787109"/>
     <use xlink:href="#DejaVuSans-20" x="968.611328"/>
     <use xlink:href="#DejaVuSans-63" x="1000.398438"/>
     <use xlink:href="#DejaVuSans-6f" x="1055.378906"/>
     <use xlink:href="#DejaVuSans-68" x="1116.560547"/>
     <use xlink:href="#DejaVuSans-6f" x="1179.939453"/>
     <use xlink:href="#DejaVuSans-72" x="1241.121094"/>
     <use xlink:href="#DejaVuSans-74" x="1282.234375"/>
    </g>
   </g>
   <g id="legend_1">
    <g id="patch_5">
     <path d="M 348.45125 74.3525 
L 438.93875 74.3525 
Q 440.93875 74.3525 440.93875 72.3525 
L 440.93875 29.318125 
Q 440.93875 27.318125 438.93875 27.318125 
L 348.45125 27.318125 
Q 346.45125 27.318125 346.45125 29.318125 
L 346.45125 72.3525 
Q 346.45125 74.3525 348.45125 74.3525 
z
" style="fill: #ffffff; opacity: 0.8; stroke: #cccccc; stroke-linejoin: miter"/>
    </g>
    <g id="line2d_48">
     <defs>
      <path id="m465b0dc595" d="M 0 5 
C 1.326016 5 2.597899 4.473168 3.535534 3.535534 
C 4.473168 2.597899 5 1.326016 5 0 
C 5 -1.326016 4.473168 -2.597899 3.535534 -3.535534 
C 2.597899 -4.473168 1.326016 -5 0 -5 
C -1.326016 -5 -2.597899 -4.473168 -3.535534 -3.535534 
C -4.473168 -2.597899 -5 -1.326016 -5 0 
C -5 1.326016 -4.473168 2.597899 -3.535534 3.535534 
C -2.597899 4.473168 -1.326016 5 0 5 
z
" style="stroke: #ffffff; stroke-width: 0.8"/>
     </defs>
     <g>
      <use xlink:href="#m465b0dc595" x="360.45125" y="35.416562" style="fill: #1f77b4; stroke: #ffffff; stroke-width: 0.8"/>
     </g>
    </g>
    <g id="text_19">
     <!-- Max Fitness -->
     <g transform="translate(378.45125 38.916562) scale(0.1 -0.1)">
      <defs>
       <path id="DejaVuSans-78" d="M 3513 3500 
L 2247 1797 
L 3578 0 
L 2900 0 
L 1881 1375 
L 863 0 
L 184 0 
L 1544 1831 
L 300 3500 
L 978 3500 
L 1906 2253 
L 2834 3500 
L 3513 3500 
z
" transform="scale(0.015625)"/>
       <path id="DejaVuSans-46" d="M 628 4666 
L 3309 4666 
L 3309 4134 
L 1259 4134 
L 1259 2759 
L 3109 2759 
L 3109 2228 
L 1259 2228 
L 1259 0 
L 628 0 
L 628 4666 
z
" transform="scale(0.015625)"/>
      </defs>
      <use xlink:href="#DejaVuSans-4d"/>
      <use xlink:href="#DejaVuSans-61" x="86.279297"/>
      <use xlink:href="#DejaVuSans-78" x="147.558594"/>
      <use xlink:href="#DejaVuSans-20" x="206.738281"/>
      <use xlink:href="#DejaVuSans-46" x="238.525391"/>
      <use xlink:href="#DejaVuSans-69" x="288.794922"/>
      <use xlink:href="#DejaVuSans-74" x="316.578125"/>
      <use xlink:href="#DejaVuSans-6e" x="355.787109"/>
      <use xlink:href="#DejaVuSans-65" x="419.166016"/>
      <use xlink:href="#DejaVuSans-73" x="480.689453"/>
      <use xlink:href="#DejaVuSans-73" x="532.789062"/>
     </g>
    </g>
    <g id="line2d_49">
     <defs>
      <path id="mb2f4339a1e" d="M -2.5 5 
L 0 2.5 
L 2.5 5 
L 5 2.5 
L 2.5 0 
L 5 -2.5 
L 2.5 -5 
L 0 -2.5 
L -2.5 -5 
L -5 -2.5 
L -2.5 0 
L -5 2.5 
z
" style="stroke: #ffffff; stroke-width: 0.8; stroke-linejoin: miter"/>
     </defs>
     <g>
      <use xlink:href="#mb2f4339a1e" x="360.45125" y="50.094688" style="fill: #ff7f0e; stroke: #ffffff; stroke-width: 0.8; stroke-linejoin: miter"/>
     </g>
    </g>
    <g id="text_20">
     <!-- MACS 120 -->
     <g transform="translate(378.45125 53.594688) scale(0.1 -0.1)">
      <defs>
       <path id="DejaVuSans-31" d="M 794 531 
L 1825 531 
L 1825 4091 
L 703 3866 
L 703 4441 
L 1819 4666 
L 2450 4666 
L 2450 531 
L 3481 531 
L 3481 0 
L 794 0 
L 794 531 
z
" transform="scale(0.015625)"/>
      </defs>
      <use xlink:href="#DejaVuSans-4d"/>
      <use xlink:href="#DejaVuSans-41" x="86.279297"/>
      <use xlink:href="#DejaVuSans-43" x="152.9375"/>
      <use xlink:href="#DejaVuSans-53" x="222.761719"/>
      <use xlink:href="#DejaVuSans-20" x="286.238281"/>
      <use xlink:href="#DejaVuSans-31" x="318.025391"/>
      <use xlink:href="#DejaVuSans-32" x="381.648438"/>
      <use xlink:href="#DejaVuSans-30" x="445.271484"/>
     </g>
    </g>
    <g id="line2d_50">
     <defs>
      <path id="m9325a8e766" d="M -3.535534 -3.535534 
L -3.535534 3.535534 
L 3.535534 3.535534 
L 3.535534 -3.535534 
z
" style="stroke: #ffffff; stroke-width: 0.8; stroke-linejoin: miter"/>
     </defs>
     <g>
      <use xlink:href="#m9325a8e766" x="360.45125" y="64.772812" style="fill: #2ca02c; stroke: #ffffff; stroke-width: 0.8; stroke-linejoin: miter"/>
     </g>
    </g>
    <g id="text_21">
     <!-- Max VAF -->
     <g transform="translate(378.45125 68.272812) scale(0.1 -0.1)">
      <defs>
       <path id="DejaVuSans-56" d="M 1831 0 
L 50 4666 
L 709 4666 
L 2188 738 
L 3669 4666 
L 4325 4666 
L 2547 0 
L 1831 0 
z
" transform="scale(0.015625)"/>
      </defs>
      <use xlink:href="#DejaVuSans-4d"/>
      <use xlink:href="#DejaVuSans-61" x="86.279297"/>
      <use xlink:href="#DejaVuSans-78" x="147.558594"/>
      <use xlink:href="#DejaVuSans-20" x="206.738281"/>
      <use xlink:href="#DejaVuSans-56" x="238.525391"/>
      <use xlink:href="#DejaVuSans-41" x="300.558594"/>
      <use xlink:href="#DejaVuSans-46" x="368.966797"/>
     </g>
    </g>
   </g>
  </g>
 </g>
 <defs>
  <clipPath id="pb58be4813d">
   <rect x="139.86875" y="22.318125" width="306.07" height="292.84"/>
  </clipPath>
 </defs>
</svg>
