<?xml version="1.0" encoding="utf-8" standalone="no"?>
<!DOCTYPE svg PUBLIC "-//W3C//DTD SVG 1.1//EN"
  "http://www.w3.org/Graphics/SVG/1.1/DTD/svg11.dtd">
<svg xmlns:xlink="http://www.w3.org/1999/xlink" width="504pt" height="504pt" viewBox="0 0 504 504" xmlns="http://www.w3.org/2000/svg" version="1.1">
 <metadata>
  <rdf:RDF xmlns:dc="http://purl.org/dc/elements/1.1/" xmlns:cc="http://creativecommons.org/ns#" xmlns:rdf="http://www.w3.org/1999/02/22-rdf-syntax-ns#">
   <cc:Work>
    <dc:type rdf:resource="http://purl.org/dc/dcmitype/StillImage"/>
    <dc:date>2024-11-27T14:01:11.277585</dc:date>
    <dc:format>image/svg+xml</dc:format>
    <dc:creator>
     <cc:Agent>
      <dc:title>Matplotlib v3.9.2, https://matplotlib.org/</dc:title>
     </cc:Agent>
    </dc:creator>
   </cc:Work>
  </rdf:RDF>
 </metadata>
 <defs>
  <style type="text/css">*{stroke-linejoin: round; stroke-linecap: butt}</style>
 </defs>
 <g id="figure_1">
  <g id="patch_1">
   <path d="M 0 504 
L 504 504 
L 504 0 
L 0 0 
z
" style="fill: #ffffff"/>
  </g>
  <g id="axes_1">
   <g id="patch_2">
    <path d="M 63 448.56 
L 453.6 448.56 
L 453.6 60.48 
L 63 60.48 
z
" style="fill: #ffffff"/>
   </g>
   <g id="PathCollection_1">
    <defs>
     <path id="med9e6d463d" d="M 0 3 
C 0.795609 3 1.55874 2.683901 2.12132 2.12132 
C 2.683901 1.55874 3 0.795609 3 0 
C 3 -0.795609 2.683901 -1.55874 2.12132 -2.12132 
C 1.55874 -2.683901 0.795609 -3 0 -3 
C -0.795609 -3 -1.55874 -2.683901 -2.12132 -2.12132 
C -2.683901 -1.55874 -3 -0.795609 -3 0 
C -3 0.795609 -2.683901 1.55874 -2.12132 2.12132 
C -1.55874 2.683901 -0.795609 3 0 3 
z
" style="stroke: #ffffff; stroke-width: 0.48"/>
    </defs>
    <g clip-path="url(#pc3c8b8f0a7)">
     <use xlink:href="#med9e6d463d" x="231.479071" y="310.57938" style="fill: #1f77b4; stroke: #ffffff; stroke-width: 0.48"/>
     <use xlink:href="#med9e6d463d" x="228.968833" y="315.58024" style="fill: #1f77b4; stroke: #ffffff; stroke-width: 0.48"/>
     <use xlink:href="#med9e6d463d" x="247.010575" y="324.614056" style="fill: #1f77b4; stroke: #ffffff; stroke-width: 0.48"/>
     <use xlink:href="#med9e6d463d" x="242.777845" y="297.512614" style="fill: #1f77b4; stroke: #ffffff; stroke-width: 0.48"/>
     <use xlink:href="#med9e6d463d" x="277.79745" y="261.377352" style="fill: #1f77b4; stroke: #ffffff; stroke-width: 0.48"/>
     <use xlink:href="#med9e6d463d" x="237.07523" y="303.535154" style="fill: #1f77b4; stroke: #ffffff; stroke-width: 0.48"/>
     <use xlink:href="#med9e6d463d" x="221.04978" y="328.48569" style="fill: #1f77b4; stroke: #ffffff; stroke-width: 0.48"/>
     <use xlink:href="#med9e6d463d" x="166.915513" y="402.476928" style="fill: #1f77b4; stroke: #ffffff; stroke-width: 0.48"/>
     <use xlink:href="#med9e6d463d" x="175.152223" y="369.568033" style="fill: #1f77b4; stroke: #ffffff; stroke-width: 0.48"/>
     <use xlink:href="#med9e6d463d" x="240.5928" y="311.278426" style="fill: #1f77b4; stroke: #ffffff; stroke-width: 0.48"/>
     <use xlink:href="#med9e6d463d" x="211.821855" y="347.843861" style="fill: #1f77b4; stroke: #ffffff; stroke-width: 0.48"/>
     <use xlink:href="#med9e6d463d" x="216.296033" y="316.440602" style="fill: #1f77b4; stroke: #ffffff; stroke-width: 0.48"/>
     <use xlink:href="#med9e6d463d" x="246.16102" y="269.765898" style="fill: #1f77b4; stroke: #ffffff; stroke-width: 0.48"/>
     <use xlink:href="#med9e6d463d" x="149.8" y="411.080559" style="fill: #1f77b4; stroke: #ffffff; stroke-width: 0.48"/>
     <use xlink:href="#med9e6d463d" x="227.676092" y="326.420817" style="fill: #1f77b4; stroke: #ffffff; stroke-width: 0.48"/>
     <use xlink:href="#med9e6d463d" x="262.80058" y="295.791884" style="fill: #1f77b4; stroke: #ffffff; stroke-width: 0.48"/>
     <use xlink:href="#med9e6d463d" x="149.8" y="367.202035" style="fill: #1f77b4; stroke: #ffffff; stroke-width: 0.48"/>
     <use xlink:href="#med9e6d463d" x="240.213291" y="319.882057" style="fill: #1f77b4; stroke: #ffffff; stroke-width: 0.48"/>
     <use xlink:href="#med9e6d463d" x="281.98555" y="178.782497" style="fill: #1f77b4; stroke: #ffffff; stroke-width: 0.48"/>
     <use xlink:href="#med9e6d463d" x="258.105475" y="299.724975" style="fill: #1f77b4; stroke: #ffffff; stroke-width: 0.48"/>
     <use xlink:href="#med9e6d463d" x="269.23463" y="258.796258" style="fill: #1f77b4; stroke: #ffffff; stroke-width: 0.48"/>
     <use xlink:href="#med9e6d463d" x="263.730787" y="292.35043" style="fill: #1f77b4; stroke: #ffffff; stroke-width: 0.48"/>
     <use xlink:href="#med9e6d463d" x="249.72458" y="281.693033" style="fill: #1f77b4; stroke: #ffffff; stroke-width: 0.48"/>
     <use xlink:href="#med9e6d463d" x="237.23364" y="341.391136" style="fill: #1f77b4; stroke: #ffffff; stroke-width: 0.48"/>
     <use xlink:href="#med9e6d463d" x="149.8" y="380.107483" style="fill: #1f77b4; stroke: #ffffff; stroke-width: 0.48"/>
     <use xlink:href="#med9e6d463d" x="188.91208" y="359.458771" style="fill: #1f77b4; stroke: #ffffff; stroke-width: 0.48"/>
     <use xlink:href="#med9e6d463d" x="304.327436" y="202.528514" style="fill: #1f77b4; stroke: #ffffff; stroke-width: 0.48"/>
     <use xlink:href="#med9e6d463d" x="245.43407" y="350.424951" style="fill: #1f77b4; stroke: #ffffff; stroke-width: 0.48"/>
     <use xlink:href="#med9e6d463d" x="225.861485" y="317.405088" style="fill: #1f77b4; stroke: #ffffff; stroke-width: 0.48"/>
     <use xlink:href="#med9e6d463d" x="246.794009" y="304.223445" style="fill: #1f77b4; stroke: #ffffff; stroke-width: 0.48"/>
     <use xlink:href="#med9e6d463d" x="343.775432" y="162.263509" style="fill: #1f77b4; stroke: #ffffff; stroke-width: 0.48"/>
     <use xlink:href="#med9e6d463d" x="385.6573" y="78.12" style="fill: #1f77b4; stroke: #ffffff; stroke-width: 0.48"/>
     <use xlink:href="#med9e6d463d" x="156.059365" y="383.97912" style="fill: #1f77b4; stroke: #ffffff; stroke-width: 0.48"/>
     <use xlink:href="#med9e6d463d" x="192.29294" y="376.66603" style="fill: #1f77b4; stroke: #ffffff; stroke-width: 0.48"/>
     <use xlink:href="#med9e6d463d" x="165.796155" y="395.594021" style="fill: #1f77b4; stroke: #ffffff; stroke-width: 0.48"/>
    </g>
   </g>
   <g id="PolyCollection_1">
    <path d="M 149.8 396.958882 
L 149.8 430.92 
L 152.182397 427.556919 
L 154.564794 424.095409 
L 156.947191 420.653089 
L 159.329588 417.32377 
L 161.711985 413.994529 
L 164.094382 410.665289 
L 166.476779 407.336048 
L 168.859176 404.006808 
L 171.241573 400.663113 
L 173.62397 397.308363 
L 176.006367 393.990052 
L 178.388764 390.695494 
L 180.771161 387.36531 
L 183.153558 384.035117 
L 185.535955 380.70773 
L 187.918352 377.409167 
L 190.300748 374.19793 
L 192.683145 370.800179 
L 195.065542 367.464595 
L 197.447939 364.12948 
L 199.830336 360.860312 
L 202.212733 357.494701 
L 204.59513 354.175025 
L 206.977527 350.961682 
L 209.359924 347.663874 
L 211.742321 344.410057 
L 214.124718 341.399986 
L 216.507115 338.327321 
L 218.889512 335.245618 
L 221.271909 332.187993 
L 223.654306 329.030704 
L 226.036703 325.880805 
L 228.4191 322.947733 
L 230.801497 320.081526 
L 233.183894 317.251801 
L 235.566291 314.510587 
L 237.948688 311.667569 
L 240.331085 309.135719 
L 242.713482 306.652138 
L 245.095879 303.7912 
L 247.478276 301.279571 
L 249.860673 298.669955 
L 252.24307 295.929146 
L 254.625467 293.570912 
L 257.007864 290.973409 
L 259.390261 288.357415 
L 261.772658 285.87321 
L 264.155055 283.595826 
L 266.537452 281.125944 
L 268.919848 278.760283 
L 271.302245 276.389307 
L 273.684642 274.018331 
L 276.067039 271.647355 
L 278.449436 269.194654 
L 280.831833 266.760792 
L 283.21423 264.450327 
L 285.596627 262.000859 
L 287.979024 259.409002 
L 290.361421 256.942472 
L 292.743818 254.564814 
L 295.126215 252.185797 
L 297.508612 249.806331 
L 299.891009 247.426865 
L 302.273406 245.047398 
L 304.655803 242.667932 
L 307.0382 240.288466 
L 309.420597 237.909 
L 311.802994 235.529534 
L 314.185391 233.117644 
L 316.567788 230.678415 
L 318.950185 228.239049 
L 321.332582 225.797182 
L 323.714979 223.355315 
L 326.097376 220.913448 
L 328.479773 218.456454 
L 330.86217 216.008473 
L 333.244567 213.590838 
L 335.626964 211.151081 
L 338.009361 208.711324 
L 340.391758 206.271566 
L 342.774155 203.831809 
L 345.156552 201.392052 
L 347.538948 198.952295 
L 349.921345 196.512172 
L 352.303742 194.07132 
L 354.686139 191.630468 
L 357.068536 189.189616 
L 359.450933 186.748754 
L 361.83333 184.400784 
L 364.215727 182.06637 
L 366.598124 179.698014 
L 368.980521 177.254165 
L 371.362918 174.810315 
L 373.745315 172.366466 
L 376.127712 169.930493 
L 378.510109 167.488304 
L 380.892506 165.04518 
L 383.274903 162.602057 
L 385.6573 160.156559 
L 385.6573 90.090027 
L 385.6573 90.090027 
L 383.274903 93.534071 
L 380.892506 96.943695 
L 378.510109 100.340389 
L 376.127712 103.737084 
L 373.745315 107.135012 
L 371.362918 110.558055 
L 368.980521 113.946288 
L 366.598124 117.325047 
L 364.215727 120.722984 
L 361.83333 124.12044 
L 359.450933 127.517137 
L 357.068536 130.913833 
L 354.686139 134.288356 
L 352.303742 137.644169 
L 349.921345 140.941173 
L 347.538948 144.330555 
L 345.156552 147.720332 
L 342.774155 151.108456 
L 340.391758 154.49658 
L 338.009361 157.825293 
L 335.626964 161.108878 
L 333.244567 164.413634 
L 330.86217 167.824146 
L 328.479773 171.235946 
L 326.097376 174.580102 
L 323.714979 177.965114 
L 321.332582 181.305259 
L 318.950185 184.689737 
L 316.567788 188.156209 
L 314.185391 191.484151 
L 311.802994 194.981392 
L 309.420597 198.307044 
L 307.0382 201.652522 
L 304.655803 204.861609 
L 302.273406 208.142075 
L 299.891009 211.455286 
L 297.508612 214.709974 
L 295.126215 217.988108 
L 292.743818 221.268312 
L 290.361421 224.463753 
L 287.979024 227.791712 
L 285.596627 231.040937 
L 283.21423 234.292316 
L 280.831833 237.554334 
L 278.449436 240.807161 
L 276.067039 244.06047 
L 273.684642 247.299394 
L 271.302245 250.526042 
L 268.919848 253.819422 
L 266.537452 257.072365 
L 264.155055 260.253944 
L 261.772658 263.479556 
L 259.390261 266.657686 
L 257.007864 269.793588 
L 254.625467 273.080582 
L 252.24307 276.403496 
L 249.860673 279.564385 
L 247.478276 282.809891 
L 245.095879 286.016744 
L 242.713482 289.085628 
L 240.331085 292.339706 
L 237.948688 295.57276 
L 235.566291 298.690944 
L 233.183894 301.664293 
L 230.801497 304.780651 
L 228.4191 307.957989 
L 226.036703 311.008186 
L 223.654306 314.020351 
L 221.271909 317.070301 
L 218.889512 319.94078 
L 216.507115 322.944675 
L 214.124718 325.829372 
L 211.742321 328.790193 
L 209.359924 331.73167 
L 206.977527 334.390787 
L 204.59513 337.420506 
L 202.212733 340.345145 
L 199.830336 342.991806 
L 197.447939 345.847178 
L 195.065542 348.485835 
L 192.683145 351.080724 
L 190.300748 353.622026 
L 187.918352 356.266536 
L 185.535955 358.964553 
L 183.153558 361.500571 
L 180.771161 364.101473 
L 178.388764 366.486704 
L 176.006367 369.034072 
L 173.62397 371.576189 
L 171.241573 374.179037 
L 168.859176 376.613646 
L 166.476779 379.233918 
L 164.094382 381.921064 
L 161.711985 384.605917 
L 159.329588 387.184204 
L 156.947191 389.670493 
L 154.564794 392.067453 
L 152.182397 394.464414 
L 149.8 396.958882 
z
" clip-path="url(#pc3c8b8f0a7)" style="fill: #ffa500; fill-opacity: 0.15"/>
   </g>
   <g id="matplotlib.axis_1">
    <g id="xtick_1">
     <g id="line2d_1">
      <defs>
       <path id="m36e59a7b5e" d="M 0 0 
L 0 3.5 
" style="stroke: #000000; stroke-width: 0.8"/>
      </defs>
      <g>
       <use xlink:href="#m36e59a7b5e" x="63" y="448.56" style="stroke: #000000; stroke-width: 0.8"/>
      </g>
     </g>
     <g id="text_1">
      <!-- −20 -->
      <g transform="translate(52.447656 463.158437) scale(0.1 -0.1)">
       <defs>
        <path id="DejaVuSans-2212" d="M 678 2272 
L 4684 2272 
L 4684 1741 
L 678 1741 
L 678 2272 
z
" transform="scale(0.015625)"/>
        <path id="DejaVuSans-32" d="M 1228 531 
L 3431 531 
L 3431 0 
L 469 0 
L 469 531 
Q 828 903 1448 1529 
Q 2069 2156 2228 2338 
Q 2531 2678 2651 2914 
Q 2772 3150 2772 3378 
Q 2772 3750 2511 3984 
Q 2250 4219 1831 4219 
Q 1534 4219 1204 4116 
Q 875 4013 500 3803 
L 500 4441 
Q 881 4594 1212 4672 
Q 1544 4750 1819 4750 
Q 2544 4750 2975 4387 
Q 3406 4025 3406 3419 
Q 3406 3131 3298 2873 
Q 3191 2616 2906 2266 
Q 2828 2175 2409 1742 
Q 1991 1309 1228 531 
z
" transform="scale(0.015625)"/>
        <path id="DejaVuSans-30" d="M 2034 4250 
Q 1547 4250 1301 3770 
Q 1056 3291 1056 2328 
Q 1056 1369 1301 889 
Q 1547 409 2034 409 
Q 2525 409 2770 889 
Q 3016 1369 3016 2328 
Q 3016 3291 2770 3770 
Q 2525 4250 2034 4250 
z
M 2034 4750 
Q 2819 4750 3233 4129 
Q 3647 3509 3647 2328 
Q 3647 1150 3233 529 
Q 2819 -91 2034 -91 
Q 1250 -91 836 529 
Q 422 1150 422 2328 
Q 422 3509 836 4129 
Q 1250 4750 2034 4750 
z
" transform="scale(0.015625)"/>
       </defs>
       <use xlink:href="#DejaVuSans-2212"/>
       <use xlink:href="#DejaVuSans-32" x="83.789062"/>
       <use xlink:href="#DejaVuSans-30" x="147.412109"/>
      </g>
     </g>
    </g>
    <g id="xtick_2">
     <g id="line2d_2">
      <g>
       <use xlink:href="#m36e59a7b5e" x="106.4" y="448.56" style="stroke: #000000; stroke-width: 0.8"/>
      </g>
     </g>
     <g id="text_2">
      <!-- −10 -->
      <g transform="translate(95.847656 463.158437) scale(0.1 -0.1)">
       <defs>
        <path id="DejaVuSans-31" d="M 794 531 
L 1825 531 
L 1825 4091 
L 703 3866 
L 703 4441 
L 1819 4666 
L 2450 4666 
L 2450 531 
L 3481 531 
L 3481 0 
L 794 0 
L 794 531 
z
" transform="scale(0.015625)"/>
       </defs>
       <use xlink:href="#DejaVuSans-2212"/>
       <use xlink:href="#DejaVuSans-31" x="83.789062"/>
       <use xlink:href="#DejaVuSans-30" x="147.412109"/>
      </g>
     </g>
    </g>
    <g id="xtick_3">
     <g id="line2d_3">
      <g>
       <use xlink:href="#m36e59a7b5e" x="149.8" y="448.56" style="stroke: #000000; stroke-width: 0.8"/>
      </g>
     </g>
     <g id="text_3">
      <!-- 0 -->
      <g transform="translate(146.61875 463.158437) scale(0.1 -0.1)">
       <use xlink:href="#DejaVuSans-30"/>
      </g>
     </g>
    </g>
    <g id="xtick_4">
     <g id="line2d_4">
      <g>
       <use xlink:href="#m36e59a7b5e" x="193.2" y="448.56" style="stroke: #000000; stroke-width: 0.8"/>
      </g>
     </g>
     <g id="text_4">
      <!-- 10 -->
      <g transform="translate(186.8375 463.158437) scale(0.1 -0.1)">
       <use xlink:href="#DejaVuSans-31"/>
       <use xlink:href="#DejaVuSans-30" x="63.623047"/>
      </g>
     </g>
    </g>
    <g id="xtick_5">
     <g id="line2d_5">
      <g>
       <use xlink:href="#m36e59a7b5e" x="236.6" y="448.56" style="stroke: #000000; stroke-width: 0.8"/>
      </g>
     </g>
     <g id="text_5">
      <!-- 20 -->
      <g transform="translate(230.2375 463.158437) scale(0.1 -0.1)">
       <use xlink:href="#DejaVuSans-32"/>
       <use xlink:href="#DejaVuSans-30" x="63.623047"/>
      </g>
     </g>
    </g>
    <g id="xtick_6">
     <g id="line2d_6">
      <g>
       <use xlink:href="#m36e59a7b5e" x="280" y="448.56" style="stroke: #000000; stroke-width: 0.8"/>
      </g>
     </g>
     <g id="text_6">
      <!-- 30 -->
      <g transform="translate(273.6375 463.158437) scale(0.1 -0.1)">
       <defs>
        <path id="DejaVuSans-33" d="M 2597 2516 
Q 3050 2419 3304 2112 
Q 3559 1806 3559 1356 
Q 3559 666 3084 287 
Q 2609 -91 1734 -91 
Q 1441 -91 1130 -33 
Q 819 25 488 141 
L 488 750 
Q 750 597 1062 519 
Q 1375 441 1716 441 
Q 2309 441 2620 675 
Q 2931 909 2931 1356 
Q 2931 1769 2642 2001 
Q 2353 2234 1838 2234 
L 1294 2234 
L 1294 2753 
L 1863 2753 
Q 2328 2753 2575 2939 
Q 2822 3125 2822 3475 
Q 2822 3834 2567 4026 
Q 2313 4219 1838 4219 
Q 1578 4219 1281 4162 
Q 984 4106 628 3988 
L 628 4550 
Q 988 4650 1302 4700 
Q 1616 4750 1894 4750 
Q 2613 4750 3031 4423 
Q 3450 4097 3450 3541 
Q 3450 3153 3228 2886 
Q 3006 2619 2597 2516 
z
" transform="scale(0.015625)"/>
       </defs>
       <use xlink:href="#DejaVuSans-33"/>
       <use xlink:href="#DejaVuSans-30" x="63.623047"/>
      </g>
     </g>
    </g>
    <g id="xtick_7">
     <g id="line2d_7">
      <g>
       <use xlink:href="#m36e59a7b5e" x="323.4" y="448.56" style="stroke: #000000; stroke-width: 0.8"/>
      </g>
     </g>
     <g id="text_7">
      <!-- 40 -->
      <g transform="translate(317.0375 463.158437) scale(0.1 -0.1)">
       <defs>
        <path id="DejaVuSans-34" d="M 2419 4116 
L 825 1625 
L 2419 1625 
L 2419 4116 
z
M 2253 4666 
L 3047 4666 
L 3047 1625 
L 3713 1625 
L 3713 1100 
L 3047 1100 
L 3047 0 
L 2419 0 
L 2419 1100 
L 313 1100 
L 313 1709 
L 2253 4666 
z
" transform="scale(0.015625)"/>
       </defs>
       <use xlink:href="#DejaVuSans-34"/>
       <use xlink:href="#DejaVuSans-30" x="63.623047"/>
      </g>
     </g>
    </g>
    <g id="xtick_8">
     <g id="line2d_8">
      <g>
       <use xlink:href="#m36e59a7b5e" x="366.8" y="448.56" style="stroke: #000000; stroke-width: 0.8"/>
      </g>
     </g>
     <g id="text_8">
      <!-- 50 -->
      <g transform="translate(360.4375 463.158437) scale(0.1 -0.1)">
       <defs>
        <path id="DejaVuSans-35" d="M 691 4666 
L 3169 4666 
L 3169 4134 
L 1269 4134 
L 1269 2991 
Q 1406 3038 1543 3061 
Q 1681 3084 1819 3084 
Q 2600 3084 3056 2656 
Q 3513 2228 3513 1497 
Q 3513 744 3044 326 
Q 2575 -91 1722 -91 
Q 1428 -91 1123 -41 
Q 819 9 494 109 
L 494 744 
Q 775 591 1075 516 
Q 1375 441 1709 441 
Q 2250 441 2565 725 
Q 2881 1009 2881 1497 
Q 2881 1984 2565 2268 
Q 2250 2553 1709 2553 
Q 1456 2553 1204 2497 
Q 953 2441 691 2322 
L 691 4666 
z
" transform="scale(0.015625)"/>
       </defs>
       <use xlink:href="#DejaVuSans-35"/>
       <use xlink:href="#DejaVuSans-30" x="63.623047"/>
      </g>
     </g>
    </g>
    <g id="xtick_9">
     <g id="line2d_9">
      <g>
       <use xlink:href="#m36e59a7b5e" x="410.2" y="448.56" style="stroke: #000000; stroke-width: 0.8"/>
      </g>
     </g>
     <g id="text_9">
      <!-- 60 -->
      <g transform="translate(403.8375 463.158437) scale(0.1 -0.1)">
       <defs>
        <path id="DejaVuSans-36" d="M 2113 2584 
Q 1688 2584 1439 2293 
Q 1191 2003 1191 1497 
Q 1191 994 1439 701 
Q 1688 409 2113 409 
Q 2538 409 2786 701 
Q 3034 994 3034 1497 
Q 3034 2003 2786 2293 
Q 2538 2584 2113 2584 
z
M 3366 4563 
L 3366 3988 
Q 3128 4100 2886 4159 
Q 2644 4219 2406 4219 
Q 1781 4219 1451 3797 
Q 1122 3375 1075 2522 
Q 1259 2794 1537 2939 
Q 1816 3084 2150 3084 
Q 2853 3084 3261 2657 
Q 3669 2231 3669 1497 
Q 3669 778 3244 343 
Q 2819 -91 2113 -91 
Q 1303 -91 875 529 
Q 447 1150 447 2328 
Q 447 3434 972 4092 
Q 1497 4750 2381 4750 
Q 2619 4750 2861 4703 
Q 3103 4656 3366 4563 
z
" transform="scale(0.015625)"/>
       </defs>
       <use xlink:href="#DejaVuSans-36"/>
       <use xlink:href="#DejaVuSans-30" x="63.623047"/>
      </g>
     </g>
    </g>
    <g id="xtick_10">
     <g id="line2d_10">
      <g>
       <use xlink:href="#m36e59a7b5e" x="453.6" y="448.56" style="stroke: #000000; stroke-width: 0.8"/>
      </g>
     </g>
     <g id="text_10">
      <!-- 70 -->
      <g transform="translate(447.2375 463.158437) scale(0.1 -0.1)">
       <defs>
        <path id="DejaVuSans-37" d="M 525 4666 
L 3525 4666 
L 3525 4397 
L 1831 0 
L 1172 0 
L 2766 4134 
L 525 4134 
L 525 4666 
z
" transform="scale(0.015625)"/>
       </defs>
       <use xlink:href="#DejaVuSans-37"/>
       <use xlink:href="#DejaVuSans-30" x="63.623047"/>
      </g>
     </g>
    </g>
    <g id="text_11">
     <!-- ATMA -->
     <g transform="translate(244.478906 476.836563) scale(0.1 -0.1)">
      <defs>
       <path id="DejaVuSans-41" d="M 2188 4044 
L 1331 1722 
L 3047 1722 
L 2188 4044 
z
M 1831 4666 
L 2547 4666 
L 4325 0 
L 3669 0 
L 3244 1197 
L 1141 1197 
L 716 0 
L 50 0 
L 1831 4666 
z
" transform="scale(0.015625)"/>
       <path id="DejaVuSans-54" d="M -19 4666 
L 3928 4666 
L 3928 4134 
L 2272 4134 
L 2272 0 
L 1638 0 
L 1638 4134 
L -19 4134 
L -19 4666 
z
" transform="scale(0.015625)"/>
       <path id="DejaVuSans-4d" d="M 628 4666 
L 1569 4666 
L 2759 1491 
L 3956 4666 
L 4897 4666 
L 4897 0 
L 4281 0 
L 4281 4097 
L 3078 897 
L 2444 897 
L 1241 4097 
L 1241 0 
L 628 0 
L 628 4666 
z
" transform="scale(0.015625)"/>
      </defs>
      <use xlink:href="#DejaVuSans-41"/>
      <use xlink:href="#DejaVuSans-54" x="60.658203"/>
      <use xlink:href="#DejaVuSans-4d" x="121.742188"/>
      <use xlink:href="#DejaVuSans-41" x="208.021484"/>
     </g>
    </g>
   </g>
   <g id="matplotlib.axis_2">
    <g id="ytick_1">
     <g id="line2d_11">
      <defs>
       <path id="mc26d2dd7d4" d="M 0 0 
L -3.5 0 
" style="stroke: #000000; stroke-width: 0.8"/>
      </defs>
      <g>
       <use xlink:href="#mc26d2dd7d4" x="63" y="415.82559" style="stroke: #000000; stroke-width: 0.8"/>
      </g>
     </g>
     <g id="text_12">
      <!-- 0.05 -->
      <g transform="translate(33.734375 419.624809) scale(0.1 -0.1)">
       <defs>
        <path id="DejaVuSans-2e" d="M 684 794 
L 1344 794 
L 1344 0 
L 684 0 
L 684 794 
z
" transform="scale(0.015625)"/>
       </defs>
       <use xlink:href="#DejaVuSans-30"/>
       <use xlink:href="#DejaVuSans-2e" x="63.623047"/>
       <use xlink:href="#DejaVuSans-30" x="95.410156"/>
       <use xlink:href="#DejaVuSans-35" x="159.033203"/>
      </g>
     </g>
    </g>
    <g id="ytick_2">
     <g id="line2d_12">
      <g>
       <use xlink:href="#mc26d2dd7d4" x="63" y="363.682364" style="stroke: #000000; stroke-width: 0.8"/>
      </g>
     </g>
     <g id="text_13">
      <!-- 0.10 -->
      <g transform="translate(33.734375 367.481582) scale(0.1 -0.1)">
       <use xlink:href="#DejaVuSans-30"/>
       <use xlink:href="#DejaVuSans-2e" x="63.623047"/>
       <use xlink:href="#DejaVuSans-31" x="95.410156"/>
       <use xlink:href="#DejaVuSans-30" x="159.033203"/>
      </g>
     </g>
    </g>
    <g id="ytick_3">
     <g id="line2d_13">
      <g>
       <use xlink:href="#mc26d2dd7d4" x="63" y="311.539137" style="stroke: #000000; stroke-width: 0.8"/>
      </g>
     </g>
     <g id="text_14">
      <!-- 0.15 -->
      <g transform="translate(33.734375 315.338356) scale(0.1 -0.1)">
       <use xlink:href="#DejaVuSans-30"/>
       <use xlink:href="#DejaVuSans-2e" x="63.623047"/>
       <use xlink:href="#DejaVuSans-31" x="95.410156"/>
       <use xlink:href="#DejaVuSans-35" x="159.033203"/>
      </g>
     </g>
    </g>
    <g id="ytick_4">
     <g id="line2d_14">
      <g>
       <use xlink:href="#mc26d2dd7d4" x="63" y="259.39591" style="stroke: #000000; stroke-width: 0.8"/>
      </g>
     </g>
     <g id="text_15">
      <!-- 0.20 -->
      <g transform="translate(33.734375 263.195129) scale(0.1 -0.1)">
       <use xlink:href="#DejaVuSans-30"/>
       <use xlink:href="#DejaVuSans-2e" x="63.623047"/>
       <use xlink:href="#DejaVuSans-32" x="95.410156"/>
       <use xlink:href="#DejaVuSans-30" x="159.033203"/>
      </g>
     </g>
    </g>
    <g id="ytick_5">
     <g id="line2d_15">
      <g>
       <use xlink:href="#mc26d2dd7d4" x="63" y="207.252684" style="stroke: #000000; stroke-width: 0.8"/>
      </g>
     </g>
     <g id="text_16">
      <!-- 0.25 -->
      <g transform="translate(33.734375 211.051903) scale(0.1 -0.1)">
       <use xlink:href="#DejaVuSans-30"/>
       <use xlink:href="#DejaVuSans-2e" x="63.623047"/>
       <use xlink:href="#DejaVuSans-32" x="95.410156"/>
       <use xlink:href="#DejaVuSans-35" x="159.033203"/>
      </g>
     </g>
    </g>
    <g id="ytick_6">
     <g id="line2d_16">
      <g>
       <use xlink:href="#mc26d2dd7d4" x="63" y="155.109457" style="stroke: #000000; stroke-width: 0.8"/>
      </g>
     </g>
     <g id="text_17">
      <!-- 0.30 -->
      <g transform="translate(33.734375 158.908676) scale(0.1 -0.1)">
       <use xlink:href="#DejaVuSans-30"/>
       <use xlink:href="#DejaVuSans-2e" x="63.623047"/>
       <use xlink:href="#DejaVuSans-33" x="95.410156"/>
       <use xlink:href="#DejaVuSans-30" x="159.033203"/>
      </g>
     </g>
    </g>
    <g id="ytick_7">
     <g id="line2d_17">
      <g>
       <use xlink:href="#mc26d2dd7d4" x="63" y="102.966231" style="stroke: #000000; stroke-width: 0.8"/>
      </g>
     </g>
     <g id="text_18">
      <!-- 0.35 -->
      <g transform="translate(33.734375 106.765449) scale(0.1 -0.1)">
       <use xlink:href="#DejaVuSans-30"/>
       <use xlink:href="#DejaVuSans-2e" x="63.623047"/>
       <use xlink:href="#DejaVuSans-33" x="95.410156"/>
       <use xlink:href="#DejaVuSans-35" x="159.033203"/>
      </g>
     </g>
    </g>
    <g id="text_19">
     <!-- Fitness -->
     <g transform="translate(27.654687 271.837188) rotate(-90) scale(0.1 -0.1)">
      <defs>
       <path id="DejaVuSans-46" d="M 628 4666 
L 3309 4666 
L 3309 4134 
L 1259 4134 
L 1259 2759 
L 3109 2759 
L 3109 2228 
L 1259 2228 
L 1259 0 
L 628 0 
L 628 4666 
z
" transform="scale(0.015625)"/>
       <path id="DejaVuSans-69" d="M 603 3500 
L 1178 3500 
L 1178 0 
L 603 0 
L 603 3500 
z
M 603 4863 
L 1178 4863 
L 1178 4134 
L 603 4134 
L 603 4863 
z
" transform="scale(0.015625)"/>
       <path id="DejaVuSans-74" d="M 1172 4494 
L 1172 3500 
L 2356 3500 
L 2356 3053 
L 1172 3053 
L 1172 1153 
Q 1172 725 1289 603 
Q 1406 481 1766 481 
L 2356 481 
L 2356 0 
L 1766 0 
Q 1100 0 847 248 
Q 594 497 594 1153 
L 594 3053 
L 172 3053 
L 172 3500 
L 594 3500 
L 594 4494 
L 1172 4494 
z
" transform="scale(0.015625)"/>
       <path id="DejaVuSans-6e" d="M 3513 2113 
L 3513 0 
L 2938 0 
L 2938 2094 
Q 2938 2591 2744 2837 
Q 2550 3084 2163 3084 
Q 1697 3084 1428 2787 
Q 1159 2491 1159 1978 
L 1159 0 
L 581 0 
L 581 3500 
L 1159 3500 
L 1159 2956 
Q 1366 3272 1645 3428 
Q 1925 3584 2291 3584 
Q 2894 3584 3203 3211 
Q 3513 2838 3513 2113 
z
" transform="scale(0.015625)"/>
       <path id="DejaVuSans-65" d="M 3597 1894 
L 3597 1613 
L 953 1613 
Q 991 1019 1311 708 
Q 1631 397 2203 397 
Q 2534 397 2845 478 
Q 3156 559 3463 722 
L 3463 178 
Q 3153 47 2828 -22 
Q 2503 -91 2169 -91 
Q 1331 -91 842 396 
Q 353 884 353 1716 
Q 353 2575 817 3079 
Q 1281 3584 2069 3584 
Q 2775 3584 3186 3129 
Q 3597 2675 3597 1894 
z
M 3022 2063 
Q 3016 2534 2758 2815 
Q 2500 3097 2075 3097 
Q 1594 3097 1305 2825 
Q 1016 2553 972 2059 
L 3022 2063 
z
" transform="scale(0.015625)"/>
       <path id="DejaVuSans-73" d="M 2834 3397 
L 2834 2853 
Q 2591 2978 2328 3040 
Q 2066 3103 1784 3103 
Q 1356 3103 1142 2972 
Q 928 2841 928 2578 
Q 928 2378 1081 2264 
Q 1234 2150 1697 2047 
L 1894 2003 
Q 2506 1872 2764 1633 
Q 3022 1394 3022 966 
Q 3022 478 2636 193 
Q 2250 -91 1575 -91 
Q 1294 -91 989 -36 
Q 684 19 347 128 
L 347 722 
Q 666 556 975 473 
Q 1284 391 1588 391 
Q 1994 391 2212 530 
Q 2431 669 2431 922 
Q 2431 1156 2273 1281 
Q 2116 1406 1581 1522 
L 1381 1569 
Q 847 1681 609 1914 
Q 372 2147 372 2553 
Q 372 3047 722 3315 
Q 1072 3584 1716 3584 
Q 2034 3584 2315 3537 
Q 2597 3491 2834 3397 
z
" transform="scale(0.015625)"/>
      </defs>
      <use xlink:href="#DejaVuSans-46"/>
      <use xlink:href="#DejaVuSans-69" x="50.269531"/>
      <use xlink:href="#DejaVuSans-74" x="78.052734"/>
      <use xlink:href="#DejaVuSans-6e" x="117.261719"/>
      <use xlink:href="#DejaVuSans-65" x="180.640625"/>
      <use xlink:href="#DejaVuSans-73" x="242.164062"/>
      <use xlink:href="#DejaVuSans-73" x="294.263672"/>
     </g>
    </g>
   </g>
   <g id="line2d_18">
    <path d="M 149.8 413.790837 
L 152.182397 410.795689 
L 154.564794 407.800541 
L 156.947191 404.805393 
L 159.329588 401.810245 
L 161.711985 398.815097 
L 164.094382 395.819949 
L 166.476779 392.824801 
L 168.859176 389.829653 
L 171.241573 386.834505 
L 173.62397 383.839357 
L 176.006367 380.844209 
L 178.388764 377.849061 
L 180.771161 374.853913 
L 183.153558 371.858765 
L 185.535955 368.863617 
L 187.918352 365.868469 
L 190.300748 362.873321 
L 192.683145 359.878173 
L 195.065542 356.883025 
L 197.447939 353.887877 
L 199.830336 350.892729 
L 202.212733 347.897581 
L 204.59513 344.902433 
L 206.977527 341.907285 
L 209.359924 338.912137 
L 211.742321 335.916989 
L 214.124718 332.921841 
L 216.507115 329.926693 
L 218.889512 326.931545 
L 221.271909 323.936397 
L 223.654306 320.941249 
L 226.036703 317.946101 
L 228.4191 314.950953 
L 230.801497 311.955805 
L 233.183894 308.960657 
L 235.566291 305.965509 
L 237.948688 302.970361 
L 240.331085 299.975213 
L 242.713482 296.980065 
L 245.095879 293.984917 
L 247.478276 290.989769 
L 249.860673 287.994621 
L 252.24307 284.999473 
L 254.625467 282.004325 
L 257.007864 279.009177 
L 259.390261 276.014029 
L 261.772658 273.018881 
L 264.155055 270.023733 
L 266.537452 267.028585 
L 268.919848 264.033437 
L 271.302245 261.038289 
L 273.684642 258.043141 
L 276.067039 255.047993 
L 278.449436 252.052845 
L 280.831833 249.057697 
L 283.21423 246.062549 
L 285.596627 243.067401 
L 287.979024 240.072253 
L 290.361421 237.077105 
L 292.743818 234.081957 
L 295.126215 231.086809 
L 297.508612 228.091661 
L 299.891009 225.096513 
L 302.273406 222.101365 
L 304.655803 219.106217 
L 307.0382 216.111069 
L 309.420597 213.115921 
L 311.802994 210.120773 
L 314.185391 207.125625 
L 316.567788 204.130477 
L 318.950185 201.135329 
L 321.332582 198.140181 
L 323.714979 195.145033 
L 326.097376 192.149885 
L 328.479773 189.154737 
L 330.86217 186.159589 
L 333.244567 183.164441 
L 335.626964 180.169293 
L 338.009361 177.174145 
L 340.391758 174.178997 
L 342.774155 171.183849 
L 345.156552 168.188701 
L 347.538948 165.193553 
L 349.921345 162.198405 
L 352.303742 159.203257 
L 354.686139 156.208109 
L 357.068536 153.212961 
L 359.450933 150.217813 
L 361.83333 147.222665 
L 364.215727 144.227517 
L 366.598124 141.232369 
L 368.980521 138.237221 
L 371.362918 135.242073 
L 373.745315 132.246924 
L 376.127712 129.251776 
L 378.510109 126.256628 
L 380.892506 123.26148 
L 383.274903 120.266332 
L 385.6573 117.271184 
" clip-path="url(#pc3c8b8f0a7)" style="fill: none; stroke: #ffa500; stroke-width: 2.25; stroke-linecap: square"/>
   </g>
   <g id="patch_3">
    <path d="M 63 448.56 
L 63 60.48 
" style="fill: none; stroke: #000000; stroke-width: 0.8; stroke-linejoin: miter; stroke-linecap: square"/>
   </g>
   <g id="patch_4">
    <path d="M 63 448.56 
L 453.6 448.56 
" style="fill: none; stroke: #000000; stroke-width: 0.8; stroke-linejoin: miter; stroke-linecap: square"/>
   </g>
   <g id="text_20">
    <!-- ASXL1 -->
    <g transform="translate(163.247769 296.764463) scale(0.1 -0.1)">
     <defs>
      <path id="DejaVuSans-53" d="M 3425 4513 
L 3425 3897 
Q 3066 4069 2747 4153 
Q 2428 4238 2131 4238 
Q 1616 4238 1336 4038 
Q 1056 3838 1056 3469 
Q 1056 3159 1242 3001 
Q 1428 2844 1947 2747 
L 2328 2669 
Q 3034 2534 3370 2195 
Q 3706 1856 3706 1288 
Q 3706 609 3251 259 
Q 2797 -91 1919 -91 
Q 1588 -91 1214 -16 
Q 841 59 441 206 
L 441 856 
Q 825 641 1194 531 
Q 1563 422 1919 422 
Q 2459 422 2753 634 
Q 3047 847 3047 1241 
Q 3047 1584 2836 1778 
Q 2625 1972 2144 2069 
L 1759 2144 
Q 1053 2284 737 2584 
Q 422 2884 422 3419 
Q 422 4038 858 4394 
Q 1294 4750 2059 4750 
Q 2388 4750 2728 4690 
Q 3069 4631 3425 4513 
z
" transform="scale(0.015625)"/>
      <path id="DejaVuSans-58" d="M 403 4666 
L 1081 4666 
L 2241 2931 
L 3406 4666 
L 4084 4666 
L 2584 2425 
L 4184 0 
L 3506 0 
L 2194 1984 
L 872 0 
L 191 0 
L 1856 2491 
L 403 4666 
z
" transform="scale(0.015625)"/>
      <path id="DejaVuSans-4c" d="M 628 4666 
L 1259 4666 
L 1259 531 
L 3531 531 
L 3531 0 
L 628 0 
L 628 4666 
z
" transform="scale(0.015625)"/>
     </defs>
     <use xlink:href="#DejaVuSans-41"/>
     <use xlink:href="#DejaVuSans-53" x="68.408203"/>
     <use xlink:href="#DejaVuSans-58" x="131.884766"/>
     <use xlink:href="#DejaVuSans-4c" x="200.390625"/>
     <use xlink:href="#DejaVuSans-31" x="256.103516"/>
    </g>
   </g>
   <g id="text_21">
    <!-- BCORL1 -->
    <g transform="translate(303.369068 315.380535) scale(0.1 -0.1)">
     <defs>
      <path id="DejaVuSans-42" d="M 1259 2228 
L 1259 519 
L 2272 519 
Q 2781 519 3026 730 
Q 3272 941 3272 1375 
Q 3272 1813 3026 2020 
Q 2781 2228 2272 2228 
L 1259 2228 
z
M 1259 4147 
L 1259 2741 
L 2194 2741 
Q 2656 2741 2882 2914 
Q 3109 3088 3109 3444 
Q 3109 3797 2882 3972 
Q 2656 4147 2194 4147 
L 1259 4147 
z
M 628 4666 
L 2241 4666 
Q 2963 4666 3353 4366 
Q 3744 4066 3744 3513 
Q 3744 3084 3544 2831 
Q 3344 2578 2956 2516 
Q 3422 2416 3680 2098 
Q 3938 1781 3938 1306 
Q 3938 681 3513 340 
Q 3088 0 2303 0 
L 628 0 
L 628 4666 
z
" transform="scale(0.015625)"/>
      <path id="DejaVuSans-43" d="M 4122 4306 
L 4122 3641 
Q 3803 3938 3442 4084 
Q 3081 4231 2675 4231 
Q 1875 4231 1450 3742 
Q 1025 3253 1025 2328 
Q 1025 1406 1450 917 
Q 1875 428 2675 428 
Q 3081 428 3442 575 
Q 3803 722 4122 1019 
L 4122 359 
Q 3791 134 3420 21 
Q 3050 -91 2638 -91 
Q 1578 -91 968 557 
Q 359 1206 359 2328 
Q 359 3453 968 4101 
Q 1578 4750 2638 4750 
Q 3056 4750 3426 4639 
Q 3797 4528 4122 4306 
z
" transform="scale(0.015625)"/>
      <path id="DejaVuSans-4f" d="M 2522 4238 
Q 1834 4238 1429 3725 
Q 1025 3213 1025 2328 
Q 1025 1447 1429 934 
Q 1834 422 2522 422 
Q 3209 422 3611 934 
Q 4013 1447 4013 2328 
Q 4013 3213 3611 3725 
Q 3209 4238 2522 4238 
z
M 2522 4750 
Q 3503 4750 4090 4092 
Q 4678 3434 4678 2328 
Q 4678 1225 4090 567 
Q 3503 -91 2522 -91 
Q 1538 -91 948 565 
Q 359 1222 359 2328 
Q 359 3434 948 4092 
Q 1538 4750 2522 4750 
z
" transform="scale(0.015625)"/>
      <path id="DejaVuSans-52" d="M 2841 2188 
Q 3044 2119 3236 1894 
Q 3428 1669 3622 1275 
L 4263 0 
L 3584 0 
L 2988 1197 
Q 2756 1666 2539 1819 
Q 2322 1972 1947 1972 
L 1259 1972 
L 1259 0 
L 628 0 
L 628 4666 
L 2053 4666 
Q 2853 4666 3247 4331 
Q 3641 3997 3641 3322 
Q 3641 2881 3436 2590 
Q 3231 2300 2841 2188 
z
M 1259 4147 
L 1259 2491 
L 2053 2491 
Q 2509 2491 2742 2702 
Q 2975 2913 2975 3322 
Q 2975 3731 2742 3939 
Q 2509 4147 2053 4147 
L 1259 4147 
z
" transform="scale(0.015625)"/>
     </defs>
     <use xlink:href="#DejaVuSans-42"/>
     <use xlink:href="#DejaVuSans-43" x="66.853516"/>
     <use xlink:href="#DejaVuSans-4f" x="136.677734"/>
     <use xlink:href="#DejaVuSans-52" x="215.388672"/>
     <use xlink:href="#DejaVuSans-4c" x="284.871094"/>
     <use xlink:href="#DejaVuSans-31" x="340.583984"/>
    </g>
   </g>
   <g id="text_22">
    <!-- BRCC3 -->
    <g transform="translate(304.98032 340.584326) scale(0.1 -0.1)">
     <use xlink:href="#DejaVuSans-42"/>
     <use xlink:href="#DejaVuSans-52" x="68.603516"/>
     <use xlink:href="#DejaVuSans-43" x="133.085938"/>
     <use xlink:href="#DejaVuSans-43" x="202.910156"/>
     <use xlink:href="#DejaVuSans-33" x="272.734375"/>
    </g>
   </g>
   <g id="text_23">
    <!-- CBL -->
    <g transform="translate(218.101768 289.852408) scale(0.1 -0.1)">
     <use xlink:href="#DejaVuSans-43"/>
     <use xlink:href="#DejaVuSans-42" x="69.824219"/>
     <use xlink:href="#DejaVuSans-4c" x="138.427734"/>
    </g>
   </g>
   <g id="text_24">
    <!-- CEBPA -->
    <g transform="translate(286.426974 245.865085) scale(0.1 -0.1)">
     <defs>
      <path id="DejaVuSans-45" d="M 628 4666 
L 3578 4666 
L 3578 4134 
L 1259 4134 
L 1259 2753 
L 3481 2753 
L 3481 2222 
L 1259 2222 
L 1259 531 
L 3634 531 
L 3634 0 
L 628 0 
L 628 4666 
z
" transform="scale(0.015625)"/>
      <path id="DejaVuSans-50" d="M 1259 4147 
L 1259 2394 
L 2053 2394 
Q 2494 2394 2734 2622 
Q 2975 2850 2975 3272 
Q 2975 3691 2734 3919 
Q 2494 4147 2053 4147 
L 1259 4147 
z
M 628 4666 
L 2053 4666 
Q 2838 4666 3239 4311 
Q 3641 3956 3641 3272 
Q 3641 2581 3239 2228 
Q 2838 1875 2053 1875 
L 1259 1875 
L 1259 0 
L 628 0 
L 628 4666 
z
" transform="scale(0.015625)"/>
     </defs>
     <use xlink:href="#DejaVuSans-43"/>
     <use xlink:href="#DejaVuSans-45" x="69.824219"/>
     <use xlink:href="#DejaVuSans-42" x="133.007812"/>
     <use xlink:href="#DejaVuSans-50" x="201.611328"/>
     <use xlink:href="#DejaVuSans-41" x="255.539062"/>
    </g>
   </g>
   <g id="text_25">
    <!-- CREBBP -->
    <g transform="translate(187.148228 291.50282) scale(0.1 -0.1)">
     <use xlink:href="#DejaVuSans-43"/>
     <use xlink:href="#DejaVuSans-52" x="69.824219"/>
     <use xlink:href="#DejaVuSans-45" x="139.306641"/>
     <use xlink:href="#DejaVuSans-42" x="202.490234"/>
     <use xlink:href="#DejaVuSans-42" x="271.09375"/>
     <use xlink:href="#DejaVuSans-50" x="339.697266"/>
    </g>
   </g>
   <g id="text_26">
    <!-- CTCF -->
    <g transform="translate(228.858105 338.003236) scale(0.1 -0.1)">
     <use xlink:href="#DejaVuSans-43"/>
     <use xlink:href="#DejaVuSans-54" x="69.824219"/>
     <use xlink:href="#DejaVuSans-43" x="125.033203"/>
     <use xlink:href="#DejaVuSans-46" x="194.857422"/>
    </g>
   </g>
   <g id="text_27">
    <!-- CUX1 -->
    <g transform="translate(189.653482 416.396303) scale(0.1 -0.1)">
     <defs>
      <path id="DejaVuSans-55" d="M 556 4666 
L 1191 4666 
L 1191 1831 
Q 1191 1081 1462 751 
Q 1734 422 2344 422 
Q 2950 422 3222 751 
Q 3494 1081 3494 1831 
L 3494 4666 
L 4128 4666 
L 4128 1753 
Q 4128 841 3676 375 
Q 3225 -91 2344 -91 
Q 1459 -91 1007 375 
Q 556 841 556 1753 
L 556 4666 
z
" transform="scale(0.015625)"/>
     </defs>
     <use xlink:href="#DejaVuSans-43"/>
     <use xlink:href="#DejaVuSans-55" x="69.824219"/>
     <use xlink:href="#DejaVuSans-58" x="143.017578"/>
     <use xlink:href="#DejaVuSans-31" x="211.523438"/>
    </g>
   </g>
   <g id="text_28">
    <!-- DNMT3A -->
    <g transform="translate(133.837067 364.047408) scale(0.1 -0.1)">
     <defs>
      <path id="DejaVuSans-44" d="M 1259 4147 
L 1259 519 
L 2022 519 
Q 2988 519 3436 956 
Q 3884 1394 3884 2338 
Q 3884 3275 3436 3711 
Q 2988 4147 2022 4147 
L 1259 4147 
z
M 628 4666 
L 1925 4666 
Q 3281 4666 3915 4102 
Q 4550 3538 4550 2338 
Q 4550 1131 3912 565 
Q 3275 0 1925 0 
L 628 0 
L 628 4666 
z
" transform="scale(0.015625)"/>
      <path id="DejaVuSans-4e" d="M 628 4666 
L 1478 4666 
L 3547 763 
L 3547 4666 
L 4159 4666 
L 4159 0 
L 3309 0 
L 1241 3903 
L 1241 0 
L 628 0 
L 628 4666 
z
" transform="scale(0.015625)"/>
     </defs>
     <use xlink:href="#DejaVuSans-44"/>
     <use xlink:href="#DejaVuSans-4e" x="77.001953"/>
     <use xlink:href="#DejaVuSans-4d" x="151.806641"/>
     <use xlink:href="#DejaVuSans-54" x="238.085938"/>
     <use xlink:href="#DejaVuSans-33" x="299.169922"/>
     <use xlink:href="#DejaVuSans-41" x="362.792969"/>
    </g>
   </g>
   <g id="text_29">
    <!-- EZH2 -->
    <g transform="translate(347.404694 294.92435) scale(0.1 -0.1)">
     <defs>
      <path id="DejaVuSans-5a" d="M 359 4666 
L 4025 4666 
L 4025 4184 
L 1075 531 
L 4097 531 
L 4097 0 
L 288 0 
L 288 481 
L 3238 4134 
L 359 4134 
L 359 4666 
z
" transform="scale(0.015625)"/>
      <path id="DejaVuSans-48" d="M 628 4666 
L 1259 4666 
L 1259 2753 
L 3553 2753 
L 3553 4666 
L 4184 4666 
L 4184 0 
L 3553 0 
L 3553 2222 
L 1259 2222 
L 1259 0 
L 628 0 
L 628 4666 
z
" transform="scale(0.015625)"/>
     </defs>
     <use xlink:href="#DejaVuSans-45"/>
     <use xlink:href="#DejaVuSans-5a" x="63.183594"/>
     <use xlink:href="#DejaVuSans-48" x="131.689453"/>
     <use xlink:href="#DejaVuSans-32" x="206.884766"/>
    </g>
   </g>
   <g id="text_30">
    <!-- GNAS -->
    <g transform="translate(193.671658 370.679977) scale(0.1 -0.1)">
     <defs>
      <path id="DejaVuSans-47" d="M 3809 666 
L 3809 1919 
L 2778 1919 
L 2778 2438 
L 4434 2438 
L 4434 434 
Q 4069 175 3628 42 
Q 3188 -91 2688 -91 
Q 1594 -91 976 548 
Q 359 1188 359 2328 
Q 359 3472 976 4111 
Q 1594 4750 2688 4750 
Q 3144 4750 3555 4637 
Q 3966 4525 4313 4306 
L 4313 3634 
Q 3963 3931 3569 4081 
Q 3175 4231 2741 4231 
Q 1884 4231 1454 3753 
Q 1025 3275 1025 2328 
Q 1025 1384 1454 906 
Q 1884 428 2741 428 
Q 3075 428 3337 486 
Q 3600 544 3809 666 
z
" transform="scale(0.015625)"/>
     </defs>
     <use xlink:href="#DejaVuSans-47"/>
     <use xlink:href="#DejaVuSans-4e" x="77.490234"/>
     <use xlink:href="#DejaVuSans-41" x="152.294922"/>
     <use xlink:href="#DejaVuSans-53" x="220.703125"/>
    </g>
   </g>
   <g id="text_31">
    <!-- GNB1 -->
    <g transform="translate(124.420518 322.258146) scale(0.1 -0.1)">
     <use xlink:href="#DejaVuSans-47"/>
     <use xlink:href="#DejaVuSans-4e" x="77.490234"/>
     <use xlink:href="#DejaVuSans-42" x="152.294922"/>
     <use xlink:href="#DejaVuSans-31" x="220.898438"/>
    </g>
   </g>
   <g id="text_32">
    <!-- JAK2 -->
    <g transform="translate(241.903041 246.631989) scale(0.1 -0.1)">
     <defs>
      <path id="DejaVuSans-4a" d="M 628 4666 
L 1259 4666 
L 1259 325 
Q 1259 -519 939 -900 
Q 619 -1281 -91 -1281 
L -331 -1281 
L -331 -750 
L -134 -750 
Q 284 -750 456 -515 
Q 628 -281 628 325 
L 628 4666 
z
" transform="scale(0.015625)"/>
      <path id="DejaVuSans-4b" d="M 628 4666 
L 1259 4666 
L 1259 2694 
L 3353 4666 
L 4166 4666 
L 1850 2491 
L 4331 0 
L 3500 0 
L 1259 2247 
L 1259 0 
L 628 0 
L 628 4666 
z
" transform="scale(0.015625)"/>
     </defs>
     <use xlink:href="#DejaVuSans-4a"/>
     <use xlink:href="#DejaVuSans-41" x="27.742188"/>
     <use xlink:href="#DejaVuSans-4b" x="96.150391"/>
     <use xlink:href="#DejaVuSans-32" x="161.726562"/>
    </g>
   </g>
   <g id="text_33">
    <!-- KDM6A -->
    <g transform="translate(143.005469 419.959934) scale(0.1 -0.1)">
     <use xlink:href="#DejaVuSans-4b"/>
     <use xlink:href="#DejaVuSans-44" x="65.576172"/>
     <use xlink:href="#DejaVuSans-4d" x="142.578125"/>
     <use xlink:href="#DejaVuSans-36" x="228.857422"/>
     <use xlink:href="#DejaVuSans-41" x="292.480469"/>
    </g>
   </g>
   <g id="text_34">
    <!-- KRAS -->
    <g transform="translate(168.392124 335.205065) scale(0.1 -0.1)">
     <use xlink:href="#DejaVuSans-4b"/>
     <use xlink:href="#DejaVuSans-52" x="65.576172"/>
     <use xlink:href="#DejaVuSans-41" x="131.058594"/>
     <use xlink:href="#DejaVuSans-53" x="199.466797"/>
    </g>
   </g>
   <g id="text_35">
    <!-- LUC7L2 -->
    <g transform="translate(282.680074 292.974529) scale(0.1 -0.1)">
     <use xlink:href="#DejaVuSans-4c"/>
     <use xlink:href="#DejaVuSans-55" x="50.712891"/>
     <use xlink:href="#DejaVuSans-43" x="123.90625"/>
     <use xlink:href="#DejaVuSans-37" x="193.730469"/>
     <use xlink:href="#DejaVuSans-4c" x="257.353516"/>
     <use xlink:href="#DejaVuSans-32" x="313.066406"/>
    </g>
   </g>
   <g id="text_36">
    <!-- NF1 -->
    <g transform="translate(106.252344 363.12141) scale(0.1 -0.1)">
     <use xlink:href="#DejaVuSans-4e"/>
     <use xlink:href="#DejaVuSans-46" x="74.804688"/>
     <use xlink:href="#DejaVuSans-31" x="132.324219"/>
    </g>
   </g>
   <g id="text_37">
    <!-- NOTCH1 -->
    <g transform="translate(251.583269 326.637801) scale(0.1 -0.1)">
     <use xlink:href="#DejaVuSans-4e"/>
     <use xlink:href="#DejaVuSans-4f" x="74.804688"/>
     <use xlink:href="#DejaVuSans-54" x="153.515625"/>
     <use xlink:href="#DejaVuSans-43" x="208.724609"/>
     <use xlink:href="#DejaVuSans-48" x="278.548828"/>
     <use xlink:href="#DejaVuSans-31" x="353.744141"/>
    </g>
   </g>
   <g id="text_38">
    <!-- NRAS -->
    <g transform="translate(282.503986 173.261872) scale(0.1 -0.1)">
     <use xlink:href="#DejaVuSans-4e"/>
     <use xlink:href="#DejaVuSans-52" x="74.804688"/>
     <use xlink:href="#DejaVuSans-41" x="140.287109"/>
     <use xlink:href="#DejaVuSans-53" x="208.695312"/>
    </g>
   </g>
   <g id="text_39">
    <!-- PPM1D -->
    <g transform="translate(263.475575 303.973431) scale(0.1 -0.1)">
     <use xlink:href="#DejaVuSans-50"/>
     <use xlink:href="#DejaVuSans-50" x="60.302734"/>
     <use xlink:href="#DejaVuSans-4d" x="120.605469"/>
     <use xlink:href="#DejaVuSans-31" x="206.884766"/>
     <use xlink:href="#DejaVuSans-44" x="270.507812"/>
    </g>
   </g>
   <g id="text_40">
    <!-- PTPN11 -->
    <g transform="translate(254.424301 224.645273) scale(0.1 -0.1)">
     <use xlink:href="#DejaVuSans-50"/>
     <use xlink:href="#DejaVuSans-54" x="60.302734"/>
     <use xlink:href="#DejaVuSans-50" x="121.386719"/>
     <use xlink:href="#DejaVuSans-4e" x="181.689453"/>
     <use xlink:href="#DejaVuSans-31" x="256.494141"/>
     <use xlink:href="#DejaVuSans-31" x="320.117188"/>
    </g>
   </g>
   <g id="text_41">
    <!-- RAD21 -->
    <g transform="translate(344.353549 279.293268) scale(0.1 -0.1)">
     <use xlink:href="#DejaVuSans-52"/>
     <use xlink:href="#DejaVuSans-41" x="65.482422"/>
     <use xlink:href="#DejaVuSans-44" x="133.890625"/>
     <use xlink:href="#DejaVuSans-32" x="210.892578"/>
     <use xlink:href="#DejaVuSans-31" x="274.515625"/>
    </g>
   </g>
   <g id="text_42">
    <!-- SF3B1 -->
    <g transform="translate(224.604481 266.717822) scale(0.1 -0.1)">
     <use xlink:href="#DejaVuSans-53"/>
     <use xlink:href="#DejaVuSans-46" x="63.476562"/>
     <use xlink:href="#DejaVuSans-33" x="120.996094"/>
     <use xlink:href="#DejaVuSans-42" x="184.619141"/>
     <use xlink:href="#DejaVuSans-31" x="253.222656"/>
    </g>
   </g>
   <g id="text_43">
    <!-- SH2B3 -->
    <g transform="translate(266.973748 346.100192) scale(0.1 -0.1)">
     <use xlink:href="#DejaVuSans-53"/>
     <use xlink:href="#DejaVuSans-48" x="63.476562"/>
     <use xlink:href="#DejaVuSans-32" x="138.671875"/>
     <use xlink:href="#DejaVuSans-42" x="202.294922"/>
     <use xlink:href="#DejaVuSans-33" x="270.898438"/>
    </g>
   </g>
   <g id="text_44">
    <!-- SMC1A -->
    <g transform="translate(97.61375 384.666858) scale(0.1 -0.1)">
     <use xlink:href="#DejaVuSans-53"/>
     <use xlink:href="#DejaVuSans-4d" x="63.476562"/>
     <use xlink:href="#DejaVuSans-43" x="149.755859"/>
     <use xlink:href="#DejaVuSans-31" x="219.580078"/>
     <use xlink:href="#DejaVuSans-41" x="283.203125"/>
    </g>
   </g>
   <g id="text_45">
    <!-- SMC3 -->
    <g transform="translate(130.391052 351.138755) scale(0.1 -0.1)">
     <use xlink:href="#DejaVuSans-53"/>
     <use xlink:href="#DejaVuSans-4d" x="63.476562"/>
     <use xlink:href="#DejaVuSans-43" x="149.755859"/>
     <use xlink:href="#DejaVuSans-33" x="219.580078"/>
    </g>
   </g>
   <g id="text_46">
    <!-- SRSF2 -->
    <g transform="translate(305.412749 200.967889) scale(0.1 -0.1)">
     <use xlink:href="#DejaVuSans-53"/>
     <use xlink:href="#DejaVuSans-52" x="63.476562"/>
     <use xlink:href="#DejaVuSans-53" x="132.958984"/>
     <use xlink:href="#DejaVuSans-46" x="196.435547"/>
     <use xlink:href="#DejaVuSans-32" x="253.955078"/>
    </g>
   </g>
   <g id="text_47">
    <!-- STAG2 -->
    <g transform="translate(225.864734 361.790511) scale(0.1 -0.1)">
     <use xlink:href="#DejaVuSans-53"/>
     <use xlink:href="#DejaVuSans-54" x="63.476562"/>
     <use xlink:href="#DejaVuSans-41" x="116.810547"/>
     <use xlink:href="#DejaVuSans-47" x="183.46875"/>
     <use xlink:href="#DejaVuSans-32" x="260.958984"/>
    </g>
   </g>
   <g id="text_48">
    <!-- TET2 -->
    <g transform="translate(223.495396 324.459615) scale(0.1 -0.1)">
     <use xlink:href="#DejaVuSans-54"/>
     <use xlink:href="#DejaVuSans-45" x="61.083984"/>
     <use xlink:href="#DejaVuSans-54" x="124.267578"/>
     <use xlink:href="#DejaVuSans-32" x="185.351562"/>
    </g>
   </g>
   <g id="text_49">
    <!-- TP53 -->
    <g transform="translate(184.222041 269.721432) scale(0.1 -0.1)">
     <use xlink:href="#DejaVuSans-54"/>
     <use xlink:href="#DejaVuSans-50" x="61.083984"/>
     <use xlink:href="#DejaVuSans-35" x="121.386719"/>
     <use xlink:href="#DejaVuSans-33" x="185.009766"/>
    </g>
   </g>
   <g id="text_50">
    <!-- U2AF1 -->
    <g transform="translate(344.917463 160.702884) scale(0.1 -0.1)">
     <use xlink:href="#DejaVuSans-55"/>
     <use xlink:href="#DejaVuSans-32" x="73.193359"/>
     <use xlink:href="#DejaVuSans-41" x="136.816406"/>
     <use xlink:href="#DejaVuSans-46" x="205.224609"/>
     <use xlink:href="#DejaVuSans-31" x="262.744141"/>
    </g>
   </g>
   <g id="text_51">
    <!-- U2AF2 -->
    <g transform="translate(386.799331 76.559375) scale(0.1 -0.1)">
     <use xlink:href="#DejaVuSans-55"/>
     <use xlink:href="#DejaVuSans-32" x="73.193359"/>
     <use xlink:href="#DejaVuSans-41" x="136.816406"/>
     <use xlink:href="#DejaVuSans-46" x="205.224609"/>
     <use xlink:href="#DejaVuSans-32" x="262.744141"/>
    </g>
   </g>
   <g id="text_52">
    <!-- WT1 -->
    <g transform="translate(195.522249 390.793396) scale(0.1 -0.1)">
     <defs>
      <path id="DejaVuSans-57" d="M 213 4666 
L 850 4666 
L 1831 722 
L 2809 4666 
L 3519 4666 
L 4500 722 
L 5478 4666 
L 6119 4666 
L 4947 0 
L 4153 0 
L 3169 4050 
L 2175 0 
L 1381 0 
L 213 4666 
z
" transform="scale(0.015625)"/>
     </defs>
     <use xlink:href="#DejaVuSans-57"/>
     <use xlink:href="#DejaVuSans-54" x="98.876953"/>
     <use xlink:href="#DejaVuSans-31" x="159.960938"/>
    </g>
   </g>
   <g id="text_53">
    <!-- ZNF318 -->
    <g transform="translate(229.407784 386.985405) scale(0.1 -0.1)">
     <defs>
      <path id="DejaVuSans-38" d="M 2034 2216 
Q 1584 2216 1326 1975 
Q 1069 1734 1069 1313 
Q 1069 891 1326 650 
Q 1584 409 2034 409 
Q 2484 409 2743 651 
Q 3003 894 3003 1313 
Q 3003 1734 2745 1975 
Q 2488 2216 2034 2216 
z
M 1403 2484 
Q 997 2584 770 2862 
Q 544 3141 544 3541 
Q 544 4100 942 4425 
Q 1341 4750 2034 4750 
Q 2731 4750 3128 4425 
Q 3525 4100 3525 3541 
Q 3525 3141 3298 2862 
Q 3072 2584 2669 2484 
Q 3125 2378 3379 2068 
Q 3634 1759 3634 1313 
Q 3634 634 3220 271 
Q 2806 -91 2034 -91 
Q 1263 -91 848 271 
Q 434 634 434 1313 
Q 434 1759 690 2068 
Q 947 2378 1403 2484 
z
M 1172 3481 
Q 1172 3119 1398 2916 
Q 1625 2713 2034 2713 
Q 2441 2713 2670 2916 
Q 2900 3119 2900 3481 
Q 2900 3844 2670 4047 
Q 2441 4250 2034 4250 
Q 1625 4250 1398 4047 
Q 1172 3844 1172 3481 
z
" transform="scale(0.015625)"/>
     </defs>
     <use xlink:href="#DejaVuSans-5a"/>
     <use xlink:href="#DejaVuSans-4e" x="68.505859"/>
     <use xlink:href="#DejaVuSans-46" x="143.310547"/>
     <use xlink:href="#DejaVuSans-33" x="200.830078"/>
     <use xlink:href="#DejaVuSans-31" x="264.453125"/>
     <use xlink:href="#DejaVuSans-38" x="328.076172"/>
    </g>
   </g>
   <g id="text_54">
    <!-- ZRSR2 -->
    <g transform="translate(137.260459 401.481317) scale(0.1 -0.1)">
     <use xlink:href="#DejaVuSans-5a"/>
     <use xlink:href="#DejaVuSans-52" x="68.505859"/>
     <use xlink:href="#DejaVuSans-53" x="137.988281"/>
     <use xlink:href="#DejaVuSans-52" x="201.464844"/>
     <use xlink:href="#DejaVuSans-32" x="270.947266"/>
    </g>
   </g>
   <g id="patch_5">
    <path d="M 181.138175 294.609022 
Q 205.354592 302.29154 229.571009 309.974058 
" style="fill: none; stroke: #808080; stroke-linecap: round"/>
   </g>
   <g id="patch_6">
    <path d="M 321.579869 312.683741 
Q 276.273435 314.100743 230.967002 315.517745 
" style="fill: none; stroke: #808080; stroke-linecap: round"/>
   </g>
   <g id="patch_7">
    <path d="M 319.831672 337.477424 
Q 284.405613 331.219643 248.979554 324.961863 
" style="fill: none; stroke: #808080; stroke-linecap: round"/>
   </g>
   <g id="patch_8">
    <path d="M 229.450388 288.235219 
Q 235.292539 292.302007 241.13469 296.368795 
" style="fill: none; stroke: #808080; stroke-linecap: round"/>
   </g>
   <g id="patch_9">
    <path d="M 301.015349 244.290066 
Q 290.212734 252.240285 279.410119 260.190503 
" style="fill: none; stroke: #808080; stroke-linecap: round"/>
   </g>
   <g id="patch_10">
    <path d="M 208.942683 289.630009 
Q 222.110926 296.13871 235.27917 302.647411 
" style="fill: none; stroke: #808080; stroke-linecap: round"/>
   </g>
   <g id="patch_11">
    <path d="M 239.579271 334.616057 
Q 231.262262 331.864426 222.945253 329.112796 
" style="fill: none; stroke: #808080; stroke-linecap: round"/>
   </g>
   <g id="patch_12">
    <path d="M 201.499337 413.052499 
Q 185.163631 408.057117 168.827924 403.061734 
" style="fill: none; stroke: #808080; stroke-linecap: round"/>
   </g>
   <g id="patch_13">
    <path d="M 358.958388 292.478205 
Q 300.763539 301.721398 242.56869 310.964591 
" style="fill: none; stroke: #808080; stroke-linecap: round"/>
   </g>
   <g id="patch_14">
    <path d="M 208.266841 365.955081 
Q 209.852103 357.878874 211.437365 349.802667 
" style="fill: none; stroke: #808080; stroke-linecap: round"/>
   </g>
   <g id="patch_15">
    <path d="M 140.642332 319.420189 
Q 177.469486 317.969768 214.29664 316.519347 
" style="fill: none; stroke: #808080; stroke-linecap: round"/>
   </g>
   <g id="patch_16">
    <path d="M 252.64817 245.803864 
Q 249.665522 256.821076 246.682874 267.838288 
" style="fill: none; stroke: #808080; stroke-linecap: round"/>
   </g>
   <g id="patch_17">
    <path d="M 159.294934 416.245803 
Q 155.424868 414.140487 151.554801 412.035171 
" style="fill: none; stroke: #808080; stroke-linecap: round"/>
   </g>
   <g id="patch_18">
    <path d="M 183.525016 332.186441 
Q 204.610227 329.432955 225.695438 326.679468 
" style="fill: none; stroke: #808080; stroke-linecap: round"/>
   </g>
   <g id="patch_19">
    <path d="M 299.535074 290.500389 
Q 282.156591 293.003708 264.778108 295.507027 
" style="fill: none; stroke: #808080; stroke-linecap: round"/>
   </g>
   <g id="patch_20">
    <path d="M 118.00694 360.758641 
Q 132.92352 363.781735 147.840101 366.804829 
" style="fill: none; stroke: #808080; stroke-linecap: round"/>
   </g>
   <g id="patch_21">
    <path d="M 270.465379 323.632068 
Q 256.330874 321.879972 242.196369 320.127877 
" style="fill: none; stroke: #808080; stroke-linecap: round"/>
   </g>
   <g id="patch_22">
    <path d="M 278.85427 301.083361 
Q 269.476534 300.469418 260.098798 299.855475 
" style="fill: none; stroke: #808080; stroke-linecap: round"/>
   </g>
   <g id="patch_23">
    <path d="M 273.375426 223.872894 
Q 271.422549 240.343404 269.469673 256.813913 
" style="fill: none; stroke: #808080; stroke-linecap: round"/>
   </g>
   <g id="patch_24">
    <path d="M 359.287245 276.853911 
Q 312.496133 284.442088 265.705021 292.030266 
" style="fill: none; stroke: #808080; stroke-linecap: round"/>
   </g>
   <g id="patch_25">
    <path d="M 241.373804 265.729308 
Q 245.085373 272.824513 248.796943 279.919719 
" style="fill: none; stroke: #808080; stroke-linecap: round"/>
   </g>
   <g id="patch_26">
    <path d="M 281.701608 343.256923 
Q 260.467773 342.365994 239.233939 341.475065 
" style="fill: none; stroke: #808080; stroke-linecap: round"/>
   </g>
   <g id="patch_27">
    <path d="M 117.193067 381.803552 
Q 132.499459 381.007381 147.80585 380.21121 
" style="fill: none; stroke: #808080; stroke-linecap: round"/>
   </g>
   <g id="patch_28">
    <path d="M 146.493285 348.864238 
Q 166.733088 353.919338 186.972891 358.974438 
" style="fill: none; stroke: #808080; stroke-linecap: round"/>
   </g>
   <g id="patch_29">
    <path d="M 242.816204 357.169544 
Q 243.762752 354.730887 244.709299 352.292229 
" style="fill: none; stroke: #808080; stroke-linecap: round"/>
   </g>
   <g id="patch_30">
    <path d="M 234.105085 320.91692 
Q 230.903042 319.552827 227.701 318.188734 
" style="fill: none; stroke: #808080; stroke-linecap: round"/>
   </g>
   <g id="patch_31">
    <path d="M 198.259973 268.156041 
Q 221.725694 285.59427 245.191414 303.032499 
" style="fill: none; stroke: #808080; stroke-linecap: round"/>
   </g>
   <g id="patch_32">
    <path d="M 204.707505 387.874389 
Q 181.379618 386.006519 158.05173 384.13865 
" style="fill: none; stroke: #808080; stroke-linecap: round"/>
   </g>
   <g id="patch_33">
    <path d="M 247.009963 383.961633 
Q 220.641661 380.44586 194.27336 376.930086 
" style="fill: none; stroke: #808080; stroke-linecap: round"/>
   </g>
   <g id="text_55">
    <!-- Fitness vs Age (R² = 0.881, p = 8.598e-17) -->
    <g style="fill: #7f7f7f" transform="translate(106.4 102.966231) scale(0.12 -0.12)">
     <defs>
      <path id="DejaVuSans-20" transform="scale(0.015625)"/>
      <path id="DejaVuSans-76" d="M 191 3500 
L 800 3500 
L 1894 563 
L 2988 3500 
L 3597 3500 
L 2284 0 
L 1503 0 
L 191 3500 
z
" transform="scale(0.015625)"/>
      <path id="DejaVuSans-67" d="M 2906 1791 
Q 2906 2416 2648 2759 
Q 2391 3103 1925 3103 
Q 1463 3103 1205 2759 
Q 947 2416 947 1791 
Q 947 1169 1205 825 
Q 1463 481 1925 481 
Q 2391 481 2648 825 
Q 2906 1169 2906 1791 
z
M 3481 434 
Q 3481 -459 3084 -895 
Q 2688 -1331 1869 -1331 
Q 1566 -1331 1297 -1286 
Q 1028 -1241 775 -1147 
L 775 -588 
Q 1028 -725 1275 -790 
Q 1522 -856 1778 -856 
Q 2344 -856 2625 -561 
Q 2906 -266 2906 331 
L 2906 616 
Q 2728 306 2450 153 
Q 2172 0 1784 0 
Q 1141 0 747 490 
Q 353 981 353 1791 
Q 353 2603 747 3093 
Q 1141 3584 1784 3584 
Q 2172 3584 2450 3431 
Q 2728 3278 2906 2969 
L 2906 3500 
L 3481 3500 
L 3481 434 
z
" transform="scale(0.015625)"/>
      <path id="DejaVuSans-28" d="M 1984 4856 
Q 1566 4138 1362 3434 
Q 1159 2731 1159 2009 
Q 1159 1288 1364 580 
Q 1569 -128 1984 -844 
L 1484 -844 
Q 1016 -109 783 600 
Q 550 1309 550 2009 
Q 550 2706 781 3412 
Q 1013 4119 1484 4856 
L 1984 4856 
z
" transform="scale(0.015625)"/>
      <path id="DejaVuSans-b2" d="M 838 2444 
L 2163 2444 
L 2163 2088 
L 294 2088 
L 294 2431 
Q 400 2528 597 2703 
Q 1672 3656 1672 3950 
Q 1672 4156 1509 4282 
Q 1347 4409 1081 4409 
Q 919 4409 728 4354 
Q 538 4300 313 4191 
L 313 4575 
Q 553 4663 761 4706 
Q 969 4750 1147 4750 
Q 1600 4750 1872 4544 
Q 2144 4338 2144 4000 
Q 2144 3566 1109 2678 
Q 934 2528 838 2444 
z
" transform="scale(0.015625)"/>
      <path id="DejaVuSans-3d" d="M 678 2906 
L 4684 2906 
L 4684 2381 
L 678 2381 
L 678 2906 
z
M 678 1631 
L 4684 1631 
L 4684 1100 
L 678 1100 
L 678 1631 
z
" transform="scale(0.015625)"/>
      <path id="DejaVuSans-2c" d="M 750 794 
L 1409 794 
L 1409 256 
L 897 -744 
L 494 -744 
L 750 256 
L 750 794 
z
" transform="scale(0.015625)"/>
      <path id="DejaVuSans-70" d="M 1159 525 
L 1159 -1331 
L 581 -1331 
L 581 3500 
L 1159 3500 
L 1159 2969 
Q 1341 3281 1617 3432 
Q 1894 3584 2278 3584 
Q 2916 3584 3314 3078 
Q 3713 2572 3713 1747 
Q 3713 922 3314 415 
Q 2916 -91 2278 -91 
Q 1894 -91 1617 61 
Q 1341 213 1159 525 
z
M 3116 1747 
Q 3116 2381 2855 2742 
Q 2594 3103 2138 3103 
Q 1681 3103 1420 2742 
Q 1159 2381 1159 1747 
Q 1159 1113 1420 752 
Q 1681 391 2138 391 
Q 2594 391 2855 752 
Q 3116 1113 3116 1747 
z
" transform="scale(0.015625)"/>
      <path id="DejaVuSans-39" d="M 703 97 
L 703 672 
Q 941 559 1184 500 
Q 1428 441 1663 441 
Q 2288 441 2617 861 
Q 2947 1281 2994 2138 
Q 2813 1869 2534 1725 
Q 2256 1581 1919 1581 
Q 1219 1581 811 2004 
Q 403 2428 403 3163 
Q 403 3881 828 4315 
Q 1253 4750 1959 4750 
Q 2769 4750 3195 4129 
Q 3622 3509 3622 2328 
Q 3622 1225 3098 567 
Q 2575 -91 1691 -91 
Q 1453 -91 1209 -44 
Q 966 3 703 97 
z
M 1959 2075 
Q 2384 2075 2632 2365 
Q 2881 2656 2881 3163 
Q 2881 3666 2632 3958 
Q 2384 4250 1959 4250 
Q 1534 4250 1286 3958 
Q 1038 3666 1038 3163 
Q 1038 2656 1286 2365 
Q 1534 2075 1959 2075 
z
" transform="scale(0.015625)"/>
      <path id="DejaVuSans-2d" d="M 313 2009 
L 1997 2009 
L 1997 1497 
L 313 1497 
L 313 2009 
z
" transform="scale(0.015625)"/>
      <path id="DejaVuSans-29" d="M 513 4856 
L 1013 4856 
Q 1481 4119 1714 3412 
Q 1947 2706 1947 2009 
Q 1947 1309 1714 600 
Q 1481 -109 1013 -844 
L 513 -844 
Q 928 -128 1133 580 
Q 1338 1288 1338 2009 
Q 1338 2731 1133 3434 
Q 928 4138 513 4856 
z
" transform="scale(0.015625)"/>
     </defs>
     <use xlink:href="#DejaVuSans-46"/>
     <use xlink:href="#DejaVuSans-69" x="50.269531"/>
     <use xlink:href="#DejaVuSans-74" x="78.052734"/>
     <use xlink:href="#DejaVuSans-6e" x="117.261719"/>
     <use xlink:href="#DejaVuSans-65" x="180.640625"/>
     <use xlink:href="#DejaVuSans-73" x="242.164062"/>
     <use xlink:href="#DejaVuSans-73" x="294.263672"/>
     <use xlink:href="#DejaVuSans-20" x="346.363281"/>
     <use xlink:href="#DejaVuSans-76" x="378.150391"/>
     <use xlink:href="#DejaVuSans-73" x="437.330078"/>
     <use xlink:href="#DejaVuSans-20" x="489.429688"/>
     <use xlink:href="#DejaVuSans-41" x="521.216797"/>
     <use xlink:href="#DejaVuSans-67" x="589.625"/>
     <use xlink:href="#DejaVuSans-65" x="653.101562"/>
     <use xlink:href="#DejaVuSans-20" x="714.625"/>
     <use xlink:href="#DejaVuSans-28" x="746.412109"/>
     <use xlink:href="#DejaVuSans-52" x="785.425781"/>
     <use xlink:href="#DejaVuSans-b2" x="854.908203"/>
     <use xlink:href="#DejaVuSans-20" x="894.996094"/>
     <use xlink:href="#DejaVuSans-3d" x="926.783203"/>
     <use xlink:href="#DejaVuSans-20" x="1010.572266"/>
     <use xlink:href="#DejaVuSans-30" x="1042.359375"/>
     <use xlink:href="#DejaVuSans-2e" x="1105.982422"/>
     <use xlink:href="#DejaVuSans-38" x="1137.769531"/>
     <use xlink:href="#DejaVuSans-38" x="1201.392578"/>
     <use xlink:href="#DejaVuSans-31" x="1265.015625"/>
     <use xlink:href="#DejaVuSans-2c" x="1328.638672"/>
     <use xlink:href="#DejaVuSans-20" x="1360.425781"/>
     <use xlink:href="#DejaVuSans-70" x="1392.212891"/>
     <use xlink:href="#DejaVuSans-20" x="1455.689453"/>
     <use xlink:href="#DejaVuSans-3d" x="1487.476562"/>
     <use xlink:href="#DejaVuSans-20" x="1571.265625"/>
     <use xlink:href="#DejaVuSans-38" x="1603.052734"/>
     <use xlink:href="#DejaVuSans-2e" x="1666.675781"/>
     <use xlink:href="#DejaVuSans-35" x="1698.462891"/>
     <use xlink:href="#DejaVuSans-39" x="1762.085938"/>
     <use xlink:href="#DejaVuSans-38" x="1825.708984"/>
     <use xlink:href="#DejaVuSans-65" x="1889.332031"/>
     <use xlink:href="#DejaVuSans-2d" x="1950.855469"/>
     <use xlink:href="#DejaVuSans-31" x="1986.939453"/>
     <use xlink:href="#DejaVuSans-37" x="2050.5625"/>
     <use xlink:href="#DejaVuSans-29" x="2114.185547"/>
    </g>
   </g>
  </g>
 </g>
 <defs>
  <clipPath id="pc3c8b8f0a7">
   <rect x="63" y="60.48" width="390.6" height="388.08"/>
  </clipPath>
 </defs>
</svg>
